G04 #@! TF.GenerationSoftware,KiCad,Pcbnew,5.1.6-c6e7f7d~87~ubuntu20.04.1*
G04 #@! TF.CreationDate,2020-07-20T11:44:09+02:00*
G04 #@! TF.ProjectId,weerstasie,77656572-7374-4617-9369-652e6b696361,rev?*
G04 #@! TF.SameCoordinates,Original*
G04 #@! TF.FileFunction,Copper,L1,Top*
G04 #@! TF.FilePolarity,Positive*
%FSLAX46Y46*%
G04 Gerber Fmt 4.6, Leading zero omitted, Abs format (unit mm)*
G04 Created by KiCad (PCBNEW 5.1.6-c6e7f7d~87~ubuntu20.04.1) date 2020-07-20 11:44:09*
%MOMM*%
%LPD*%
G01*
G04 APERTURE LIST*
G04 #@! TA.AperFunction,EtchedComponent*
%ADD10C,1.000000*%
G04 #@! TD*
G04 #@! TA.AperFunction,SMDPad,CuDef*
%ADD11R,1.200000X3.000000*%
G04 #@! TD*
G04 #@! TA.AperFunction,SMDPad,CuDef*
%ADD12R,1.500000X0.550000*%
G04 #@! TD*
G04 #@! TA.AperFunction,SMDPad,CuDef*
%ADD13R,0.550000X1.500000*%
G04 #@! TD*
G04 #@! TA.AperFunction,ComponentPad*
%ADD14R,1.700000X1.700000*%
G04 #@! TD*
G04 #@! TA.AperFunction,ComponentPad*
%ADD15O,1.700000X1.700000*%
G04 #@! TD*
G04 #@! TA.AperFunction,ComponentPad*
%ADD16R,1.800000X1.800000*%
G04 #@! TD*
G04 #@! TA.AperFunction,ComponentPad*
%ADD17C,1.800000*%
G04 #@! TD*
G04 #@! TA.AperFunction,SMDPad,CuDef*
%ADD18R,0.350000X0.700000*%
G04 #@! TD*
G04 #@! TA.AperFunction,ComponentPad*
%ADD19R,7.000000X2.000000*%
G04 #@! TD*
G04 #@! TA.AperFunction,ViaPad*
%ADD20C,1.000000*%
G04 #@! TD*
G04 #@! TA.AperFunction,SMDPad,CuDef*
%ADD21C,1.000000*%
G04 #@! TD*
G04 #@! TA.AperFunction,SMDPad,CuDef*
%ADD22R,1.300000X1.600000*%
G04 #@! TD*
G04 #@! TA.AperFunction,ComponentPad*
%ADD23C,3.250000*%
G04 #@! TD*
G04 #@! TA.AperFunction,ComponentPad*
%ADD24C,1.600000*%
G04 #@! TD*
G04 #@! TA.AperFunction,ViaPad*
%ADD25C,2.200000*%
G04 #@! TD*
G04 #@! TA.AperFunction,ViaPad*
%ADD26C,0.600000*%
G04 #@! TD*
G04 #@! TA.AperFunction,Conductor*
%ADD27C,0.250000*%
G04 #@! TD*
G04 #@! TA.AperFunction,Conductor*
%ADD28C,1.000000*%
G04 #@! TD*
G04 #@! TA.AperFunction,Conductor*
%ADD29C,0.254000*%
G04 #@! TD*
G04 APERTURE END LIST*
D10*
X107000000Y-47000000D02*
X101000000Y-47000000D01*
X107000000Y-49000000D02*
X101000000Y-49000000D01*
X107000000Y-51000000D02*
X101000000Y-51000000D01*
X107000000Y-53000000D02*
X101000000Y-53000000D01*
X107000000Y-55000000D02*
X101000000Y-55000000D01*
X107000000Y-57000000D02*
X101000000Y-57000000D01*
X107000000Y-59000000D02*
X101000000Y-59000000D01*
X107000000Y-61000000D02*
X101000000Y-61000000D01*
X107000000Y-63000000D02*
X101000000Y-63000000D01*
X101000000Y-65000000D02*
X113000000Y-65000000D01*
G04 #@! TA.AperFunction,SMDPad,CuDef*
G36*
G01*
X119322000Y-106171050D02*
X119322000Y-105258550D01*
G75*
G02*
X119565750Y-105014800I243750J0D01*
G01*
X120053250Y-105014800D01*
G75*
G02*
X120297000Y-105258550I0J-243750D01*
G01*
X120297000Y-106171050D01*
G75*
G02*
X120053250Y-106414800I-243750J0D01*
G01*
X119565750Y-106414800D01*
G75*
G02*
X119322000Y-106171050I0J243750D01*
G01*
G37*
G04 #@! TD.AperFunction*
G04 #@! TA.AperFunction,SMDPad,CuDef*
G36*
G01*
X117447000Y-106171050D02*
X117447000Y-105258550D01*
G75*
G02*
X117690750Y-105014800I243750J0D01*
G01*
X118178250Y-105014800D01*
G75*
G02*
X118422000Y-105258550I0J-243750D01*
G01*
X118422000Y-106171050D01*
G75*
G02*
X118178250Y-106414800I-243750J0D01*
G01*
X117690750Y-106414800D01*
G75*
G02*
X117447000Y-106171050I0J243750D01*
G01*
G37*
G04 #@! TD.AperFunction*
G04 #@! TA.AperFunction,SMDPad,CuDef*
G36*
G01*
X104488400Y-104545450D02*
X104488400Y-103632950D01*
G75*
G02*
X104732150Y-103389200I243750J0D01*
G01*
X105219650Y-103389200D01*
G75*
G02*
X105463400Y-103632950I0J-243750D01*
G01*
X105463400Y-104545450D01*
G75*
G02*
X105219650Y-104789200I-243750J0D01*
G01*
X104732150Y-104789200D01*
G75*
G02*
X104488400Y-104545450I0J243750D01*
G01*
G37*
G04 #@! TD.AperFunction*
G04 #@! TA.AperFunction,SMDPad,CuDef*
G36*
G01*
X102613400Y-104545450D02*
X102613400Y-103632950D01*
G75*
G02*
X102857150Y-103389200I243750J0D01*
G01*
X103344650Y-103389200D01*
G75*
G02*
X103588400Y-103632950I0J-243750D01*
G01*
X103588400Y-104545450D01*
G75*
G02*
X103344650Y-104789200I-243750J0D01*
G01*
X102857150Y-104789200D01*
G75*
G02*
X102613400Y-104545450I0J243750D01*
G01*
G37*
G04 #@! TD.AperFunction*
G04 #@! TA.AperFunction,SMDPad,CuDef*
G36*
G01*
X112165450Y-104960000D02*
X111252950Y-104960000D01*
G75*
G02*
X111009200Y-104716250I0J243750D01*
G01*
X111009200Y-104228750D01*
G75*
G02*
X111252950Y-103985000I243750J0D01*
G01*
X112165450Y-103985000D01*
G75*
G02*
X112409200Y-104228750I0J-243750D01*
G01*
X112409200Y-104716250D01*
G75*
G02*
X112165450Y-104960000I-243750J0D01*
G01*
G37*
G04 #@! TD.AperFunction*
G04 #@! TA.AperFunction,SMDPad,CuDef*
G36*
G01*
X112165450Y-106835000D02*
X111252950Y-106835000D01*
G75*
G02*
X111009200Y-106591250I0J243750D01*
G01*
X111009200Y-106103750D01*
G75*
G02*
X111252950Y-105860000I243750J0D01*
G01*
X112165450Y-105860000D01*
G75*
G02*
X112409200Y-106103750I0J-243750D01*
G01*
X112409200Y-106591250D01*
G75*
G02*
X112165450Y-106835000I-243750J0D01*
G01*
G37*
G04 #@! TD.AperFunction*
D11*
X133000000Y-48500000D03*
X131000000Y-48500000D03*
X129000000Y-48500000D03*
X127000000Y-48500000D03*
X125000000Y-48500000D03*
X123000000Y-48500000D03*
X121000000Y-48500000D03*
X119000000Y-48500000D03*
X119000000Y-63500000D03*
X121000000Y-63500000D03*
X123000000Y-63500000D03*
X125000000Y-63500000D03*
X127000000Y-63500000D03*
X129000000Y-63500000D03*
X131000000Y-63500000D03*
X133000000Y-63500000D03*
D12*
X119300000Y-90000000D03*
X119300000Y-90800000D03*
X119300000Y-91600000D03*
X119300000Y-92400000D03*
X119300000Y-93200000D03*
X119300000Y-94000000D03*
X119300000Y-94800000D03*
X119300000Y-95600000D03*
X119300000Y-96400000D03*
X119300000Y-97200000D03*
X119300000Y-98000000D03*
D13*
X121000000Y-99700000D03*
X121800000Y-99700000D03*
X122600000Y-99700000D03*
X123400000Y-99700000D03*
X124200000Y-99700000D03*
X125000000Y-99700000D03*
X125800000Y-99700000D03*
X126600000Y-99700000D03*
X127400000Y-99700000D03*
X128200000Y-99700000D03*
X129000000Y-99700000D03*
D12*
X130700000Y-98000000D03*
X130700000Y-97200000D03*
X130700000Y-96400000D03*
X130700000Y-95600000D03*
X130700000Y-94800000D03*
X130700000Y-94000000D03*
X130700000Y-93200000D03*
X130700000Y-92400000D03*
X130700000Y-91600000D03*
X130700000Y-90800000D03*
X130700000Y-90000000D03*
D13*
X129000000Y-88300000D03*
X128200000Y-88300000D03*
X127400000Y-88300000D03*
X126600000Y-88300000D03*
X125800000Y-88300000D03*
X125000000Y-88300000D03*
X124200000Y-88300000D03*
X123400000Y-88300000D03*
X122600000Y-88300000D03*
X121800000Y-88300000D03*
X121000000Y-88300000D03*
D14*
X126492000Y-80518000D03*
X125000000Y-102000000D03*
D15*
X127540000Y-102000000D03*
D14*
X114960400Y-100533200D03*
D15*
X117500400Y-100533200D03*
D16*
X116250000Y-83000000D03*
D17*
X118790000Y-83000000D03*
D18*
X113975000Y-81875000D03*
X113325000Y-81875000D03*
X112675000Y-81875000D03*
X112025000Y-81875000D03*
X112025000Y-84125000D03*
X112675000Y-84125000D03*
X113325000Y-84125000D03*
X113975000Y-84125000D03*
D14*
X133350000Y-87630000D03*
X103225600Y-86410800D03*
X103225600Y-91490800D03*
X103225600Y-94030800D03*
X133350000Y-85090000D03*
X103225600Y-88950800D03*
D19*
X106500000Y-131000000D03*
X112500000Y-131000000D03*
X122500000Y-131000000D03*
X128500000Y-131000000D03*
D20*
X107000000Y-47000000D03*
X101000000Y-49000000D03*
X107000000Y-49000000D03*
X101000000Y-51000000D03*
X107000000Y-51000000D03*
X101000000Y-53000000D03*
X107000000Y-53000000D03*
X101000000Y-55000000D03*
X107000000Y-55000000D03*
X101000000Y-57000000D03*
X107000000Y-57000000D03*
X101000000Y-59000000D03*
X107000000Y-59000000D03*
X101000000Y-61000000D03*
X107000000Y-61000000D03*
X101000000Y-63000000D03*
X107000000Y-63000000D03*
X101000000Y-65000000D03*
D21*
X113000000Y-65000000D03*
G04 #@! TA.AperFunction,SMDPad,CuDef*
G36*
G01*
X123030400Y-106171050D02*
X123030400Y-105258550D01*
G75*
G02*
X123274150Y-105014800I243750J0D01*
G01*
X123761650Y-105014800D01*
G75*
G02*
X124005400Y-105258550I0J-243750D01*
G01*
X124005400Y-106171050D01*
G75*
G02*
X123761650Y-106414800I-243750J0D01*
G01*
X123274150Y-106414800D01*
G75*
G02*
X123030400Y-106171050I0J243750D01*
G01*
G37*
G04 #@! TD.AperFunction*
G04 #@! TA.AperFunction,SMDPad,CuDef*
G36*
G01*
X121155400Y-106171050D02*
X121155400Y-105258550D01*
G75*
G02*
X121399150Y-105014800I243750J0D01*
G01*
X121886650Y-105014800D01*
G75*
G02*
X122130400Y-105258550I0J-243750D01*
G01*
X122130400Y-106171050D01*
G75*
G02*
X121886650Y-106414800I-243750J0D01*
G01*
X121399150Y-106414800D01*
G75*
G02*
X121155400Y-106171050I0J243750D01*
G01*
G37*
G04 #@! TD.AperFunction*
G04 #@! TA.AperFunction,SMDPad,CuDef*
G36*
G01*
X103588400Y-105563350D02*
X103588400Y-106475850D01*
G75*
G02*
X103344650Y-106719600I-243750J0D01*
G01*
X102857150Y-106719600D01*
G75*
G02*
X102613400Y-106475850I0J243750D01*
G01*
X102613400Y-105563350D01*
G75*
G02*
X102857150Y-105319600I243750J0D01*
G01*
X103344650Y-105319600D01*
G75*
G02*
X103588400Y-105563350I0J-243750D01*
G01*
G37*
G04 #@! TD.AperFunction*
G04 #@! TA.AperFunction,SMDPad,CuDef*
G36*
G01*
X105463400Y-105563350D02*
X105463400Y-106475850D01*
G75*
G02*
X105219650Y-106719600I-243750J0D01*
G01*
X104732150Y-106719600D01*
G75*
G02*
X104488400Y-106475850I0J243750D01*
G01*
X104488400Y-105563350D01*
G75*
G02*
X104732150Y-105319600I243750J0D01*
G01*
X105219650Y-105319600D01*
G75*
G02*
X105463400Y-105563350I0J-243750D01*
G01*
G37*
G04 #@! TD.AperFunction*
G04 #@! TA.AperFunction,SMDPad,CuDef*
G36*
G01*
X108968600Y-105563350D02*
X108968600Y-106475850D01*
G75*
G02*
X108724850Y-106719600I-243750J0D01*
G01*
X108237350Y-106719600D01*
G75*
G02*
X107993600Y-106475850I0J243750D01*
G01*
X107993600Y-105563350D01*
G75*
G02*
X108237350Y-105319600I243750J0D01*
G01*
X108724850Y-105319600D01*
G75*
G02*
X108968600Y-105563350I0J-243750D01*
G01*
G37*
G04 #@! TD.AperFunction*
G04 #@! TA.AperFunction,SMDPad,CuDef*
G36*
G01*
X107093600Y-105563350D02*
X107093600Y-106475850D01*
G75*
G02*
X106849850Y-106719600I-243750J0D01*
G01*
X106362350Y-106719600D01*
G75*
G02*
X106118600Y-106475850I0J243750D01*
G01*
X106118600Y-105563350D01*
G75*
G02*
X106362350Y-105319600I243750J0D01*
G01*
X106849850Y-105319600D01*
G75*
G02*
X107093600Y-105563350I0J-243750D01*
G01*
G37*
G04 #@! TD.AperFunction*
G04 #@! TA.AperFunction,SMDPad,CuDef*
G36*
G01*
X127409000Y-67920550D02*
X127409000Y-68833050D01*
G75*
G02*
X127165250Y-69076800I-243750J0D01*
G01*
X126677750Y-69076800D01*
G75*
G02*
X126434000Y-68833050I0J243750D01*
G01*
X126434000Y-67920550D01*
G75*
G02*
X126677750Y-67676800I243750J0D01*
G01*
X127165250Y-67676800D01*
G75*
G02*
X127409000Y-67920550I0J-243750D01*
G01*
G37*
G04 #@! TD.AperFunction*
G04 #@! TA.AperFunction,SMDPad,CuDef*
G36*
G01*
X125534000Y-67920550D02*
X125534000Y-68833050D01*
G75*
G02*
X125290250Y-69076800I-243750J0D01*
G01*
X124802750Y-69076800D01*
G75*
G02*
X124559000Y-68833050I0J243750D01*
G01*
X124559000Y-67920550D01*
G75*
G02*
X124802750Y-67676800I243750J0D01*
G01*
X125290250Y-67676800D01*
G75*
G02*
X125534000Y-67920550I0J-243750D01*
G01*
G37*
G04 #@! TD.AperFunction*
G04 #@! TA.AperFunction,SMDPad,CuDef*
G36*
G01*
X116280250Y-77675800D02*
X115367750Y-77675800D01*
G75*
G02*
X115124000Y-77432050I0J243750D01*
G01*
X115124000Y-76944550D01*
G75*
G02*
X115367750Y-76700800I243750J0D01*
G01*
X116280250Y-76700800D01*
G75*
G02*
X116524000Y-76944550I0J-243750D01*
G01*
X116524000Y-77432050D01*
G75*
G02*
X116280250Y-77675800I-243750J0D01*
G01*
G37*
G04 #@! TD.AperFunction*
G04 #@! TA.AperFunction,SMDPad,CuDef*
G36*
G01*
X116280250Y-75800800D02*
X115367750Y-75800800D01*
G75*
G02*
X115124000Y-75557050I0J243750D01*
G01*
X115124000Y-75069550D01*
G75*
G02*
X115367750Y-74825800I243750J0D01*
G01*
X116280250Y-74825800D01*
G75*
G02*
X116524000Y-75069550I0J-243750D01*
G01*
X116524000Y-75557050D01*
G75*
G02*
X116280250Y-75800800I-243750J0D01*
G01*
G37*
G04 #@! TD.AperFunction*
G04 #@! TA.AperFunction,SMDPad,CuDef*
G36*
G01*
X117425000Y-64543750D02*
X117425000Y-65456250D01*
G75*
G02*
X117181250Y-65700000I-243750J0D01*
G01*
X116693750Y-65700000D01*
G75*
G02*
X116450000Y-65456250I0J243750D01*
G01*
X116450000Y-64543750D01*
G75*
G02*
X116693750Y-64300000I243750J0D01*
G01*
X117181250Y-64300000D01*
G75*
G02*
X117425000Y-64543750I0J-243750D01*
G01*
G37*
G04 #@! TD.AperFunction*
G04 #@! TA.AperFunction,SMDPad,CuDef*
G36*
G01*
X115550000Y-64543750D02*
X115550000Y-65456250D01*
G75*
G02*
X115306250Y-65700000I-243750J0D01*
G01*
X114818750Y-65700000D01*
G75*
G02*
X114575000Y-65456250I0J243750D01*
G01*
X114575000Y-64543750D01*
G75*
G02*
X114818750Y-64300000I243750J0D01*
G01*
X115306250Y-64300000D01*
G75*
G02*
X115550000Y-64543750I0J-243750D01*
G01*
G37*
G04 #@! TD.AperFunction*
G04 #@! TA.AperFunction,SMDPad,CuDef*
G36*
G01*
X113212700Y-90729750D02*
X113212700Y-91642250D01*
G75*
G02*
X112968950Y-91886000I-243750J0D01*
G01*
X112481450Y-91886000D01*
G75*
G02*
X112237700Y-91642250I0J243750D01*
G01*
X112237700Y-90729750D01*
G75*
G02*
X112481450Y-90486000I243750J0D01*
G01*
X112968950Y-90486000D01*
G75*
G02*
X113212700Y-90729750I0J-243750D01*
G01*
G37*
G04 #@! TD.AperFunction*
G04 #@! TA.AperFunction,SMDPad,CuDef*
G36*
G01*
X115087700Y-90729750D02*
X115087700Y-91642250D01*
G75*
G02*
X114843950Y-91886000I-243750J0D01*
G01*
X114356450Y-91886000D01*
G75*
G02*
X114112700Y-91642250I0J243750D01*
G01*
X114112700Y-90729750D01*
G75*
G02*
X114356450Y-90486000I243750J0D01*
G01*
X114843950Y-90486000D01*
G75*
G02*
X115087700Y-90729750I0J-243750D01*
G01*
G37*
G04 #@! TD.AperFunction*
G04 #@! TA.AperFunction,SMDPad,CuDef*
G36*
G01*
X111710150Y-98069100D02*
X112622650Y-98069100D01*
G75*
G02*
X112866400Y-98312850I0J-243750D01*
G01*
X112866400Y-98800350D01*
G75*
G02*
X112622650Y-99044100I-243750J0D01*
G01*
X111710150Y-99044100D01*
G75*
G02*
X111466400Y-98800350I0J243750D01*
G01*
X111466400Y-98312850D01*
G75*
G02*
X111710150Y-98069100I243750J0D01*
G01*
G37*
G04 #@! TD.AperFunction*
G04 #@! TA.AperFunction,SMDPad,CuDef*
G36*
G01*
X111710150Y-99944100D02*
X112622650Y-99944100D01*
G75*
G02*
X112866400Y-100187850I0J-243750D01*
G01*
X112866400Y-100675350D01*
G75*
G02*
X112622650Y-100919100I-243750J0D01*
G01*
X111710150Y-100919100D01*
G75*
G02*
X111466400Y-100675350I0J243750D01*
G01*
X111466400Y-100187850D01*
G75*
G02*
X111710150Y-99944100I243750J0D01*
G01*
G37*
G04 #@! TD.AperFunction*
G04 #@! TA.AperFunction,SMDPad,CuDef*
G36*
G01*
X129916100Y-128370650D02*
X129916100Y-127458150D01*
G75*
G02*
X130159850Y-127214400I243750J0D01*
G01*
X130647350Y-127214400D01*
G75*
G02*
X130891100Y-127458150I0J-243750D01*
G01*
X130891100Y-128370650D01*
G75*
G02*
X130647350Y-128614400I-243750J0D01*
G01*
X130159850Y-128614400D01*
G75*
G02*
X129916100Y-128370650I0J243750D01*
G01*
G37*
G04 #@! TD.AperFunction*
G04 #@! TA.AperFunction,SMDPad,CuDef*
G36*
G01*
X128041100Y-128370650D02*
X128041100Y-127458150D01*
G75*
G02*
X128284850Y-127214400I243750J0D01*
G01*
X128772350Y-127214400D01*
G75*
G02*
X129016100Y-127458150I0J-243750D01*
G01*
X129016100Y-128370650D01*
G75*
G02*
X128772350Y-128614400I-243750J0D01*
G01*
X128284850Y-128614400D01*
G75*
G02*
X128041100Y-128370650I0J243750D01*
G01*
G37*
G04 #@! TD.AperFunction*
G04 #@! TA.AperFunction,SMDPad,CuDef*
G36*
G01*
X125534000Y-66396550D02*
X125534000Y-67309050D01*
G75*
G02*
X125290250Y-67552800I-243750J0D01*
G01*
X124802750Y-67552800D01*
G75*
G02*
X124559000Y-67309050I0J243750D01*
G01*
X124559000Y-66396550D01*
G75*
G02*
X124802750Y-66152800I243750J0D01*
G01*
X125290250Y-66152800D01*
G75*
G02*
X125534000Y-66396550I0J-243750D01*
G01*
G37*
G04 #@! TD.AperFunction*
G04 #@! TA.AperFunction,SMDPad,CuDef*
G36*
G01*
X127409000Y-66396550D02*
X127409000Y-67309050D01*
G75*
G02*
X127165250Y-67552800I-243750J0D01*
G01*
X126677750Y-67552800D01*
G75*
G02*
X126434000Y-67309050I0J243750D01*
G01*
X126434000Y-66396550D01*
G75*
G02*
X126677750Y-66152800I243750J0D01*
G01*
X127165250Y-66152800D01*
G75*
G02*
X127409000Y-66396550I0J-243750D01*
G01*
G37*
G04 #@! TD.AperFunction*
G04 #@! TA.AperFunction,SMDPad,CuDef*
G36*
G01*
X125879800Y-86359050D02*
X125879800Y-85446550D01*
G75*
G02*
X126123550Y-85202800I243750J0D01*
G01*
X126611050Y-85202800D01*
G75*
G02*
X126854800Y-85446550I0J-243750D01*
G01*
X126854800Y-86359050D01*
G75*
G02*
X126611050Y-86602800I-243750J0D01*
G01*
X126123550Y-86602800D01*
G75*
G02*
X125879800Y-86359050I0J243750D01*
G01*
G37*
G04 #@! TD.AperFunction*
G04 #@! TA.AperFunction,SMDPad,CuDef*
G36*
G01*
X127754800Y-86359050D02*
X127754800Y-85446550D01*
G75*
G02*
X127998550Y-85202800I243750J0D01*
G01*
X128486050Y-85202800D01*
G75*
G02*
X128729800Y-85446550I0J-243750D01*
G01*
X128729800Y-86359050D01*
G75*
G02*
X128486050Y-86602800I-243750J0D01*
G01*
X127998550Y-86602800D01*
G75*
G02*
X127754800Y-86359050I0J243750D01*
G01*
G37*
G04 #@! TD.AperFunction*
G04 #@! TA.AperFunction,SMDPad,CuDef*
G36*
G01*
X113335750Y-64458000D02*
X114248250Y-64458000D01*
G75*
G02*
X114492000Y-64701750I0J-243750D01*
G01*
X114492000Y-65189250D01*
G75*
G02*
X114248250Y-65433000I-243750J0D01*
G01*
X113335750Y-65433000D01*
G75*
G02*
X113092000Y-65189250I0J243750D01*
G01*
X113092000Y-64701750D01*
G75*
G02*
X113335750Y-64458000I243750J0D01*
G01*
G37*
G04 #@! TD.AperFunction*
G04 #@! TA.AperFunction,SMDPad,CuDef*
G36*
G01*
X113335750Y-62583000D02*
X114248250Y-62583000D01*
G75*
G02*
X114492000Y-62826750I0J-243750D01*
G01*
X114492000Y-63314250D01*
G75*
G02*
X114248250Y-63558000I-243750J0D01*
G01*
X113335750Y-63558000D01*
G75*
G02*
X113092000Y-63314250I0J243750D01*
G01*
X113092000Y-62826750D01*
G75*
G02*
X113335750Y-62583000I243750J0D01*
G01*
G37*
G04 #@! TD.AperFunction*
G04 #@! TA.AperFunction,SMDPad,CuDef*
G36*
G01*
X118667850Y-67668200D02*
X117755350Y-67668200D01*
G75*
G02*
X117511600Y-67424450I0J243750D01*
G01*
X117511600Y-66936950D01*
G75*
G02*
X117755350Y-66693200I243750J0D01*
G01*
X118667850Y-66693200D01*
G75*
G02*
X118911600Y-66936950I0J-243750D01*
G01*
X118911600Y-67424450D01*
G75*
G02*
X118667850Y-67668200I-243750J0D01*
G01*
G37*
G04 #@! TD.AperFunction*
G04 #@! TA.AperFunction,SMDPad,CuDef*
G36*
G01*
X118667850Y-65793200D02*
X117755350Y-65793200D01*
G75*
G02*
X117511600Y-65549450I0J243750D01*
G01*
X117511600Y-65061950D01*
G75*
G02*
X117755350Y-64818200I243750J0D01*
G01*
X118667850Y-64818200D01*
G75*
G02*
X118911600Y-65061950I0J-243750D01*
G01*
X118911600Y-65549450D01*
G75*
G02*
X118667850Y-65793200I-243750J0D01*
G01*
G37*
G04 #@! TD.AperFunction*
D22*
X115316000Y-96646000D03*
X115316000Y-93346000D03*
X113316000Y-93346000D03*
X113316000Y-96646000D03*
D23*
X105520000Y-118000000D03*
D24*
X113775000Y-111650000D03*
X112505000Y-109110000D03*
X111235000Y-111650000D03*
X109965000Y-109110000D03*
X108695000Y-111650000D03*
X107425000Y-109110000D03*
D23*
X115680000Y-118000000D03*
X129480000Y-118000000D03*
D24*
X121225000Y-109110000D03*
X122495000Y-111650000D03*
X123765000Y-109110000D03*
X125035000Y-111650000D03*
X126305000Y-109110000D03*
X127575000Y-111650000D03*
D23*
X119320000Y-118000000D03*
D25*
X109067600Y-87223600D03*
X108407200Y-90525600D03*
X110744000Y-92506800D03*
X109728000Y-83820000D03*
X113400000Y-79800000D03*
X109728000Y-78740000D03*
D26*
X115000000Y-66500000D03*
X121200000Y-90000000D03*
X134000000Y-124000000D03*
X134000000Y-120000000D03*
X134000000Y-116000000D03*
X134000000Y-112000000D03*
X134000000Y-108000000D03*
X124000000Y-128500000D03*
X134000000Y-132000000D03*
X134000000Y-128000000D03*
X134000000Y-83000000D03*
X134000000Y-79000000D03*
X134000000Y-75000000D03*
X134000000Y-71000000D03*
X134000000Y-67000000D03*
X113500000Y-66500000D03*
X113500000Y-68000000D03*
X113500000Y-69500000D03*
X113500000Y-71000000D03*
X113500000Y-72500000D03*
X113500000Y-74000000D03*
X113500000Y-75500000D03*
X112500000Y-76500000D03*
X111000000Y-76500000D03*
X109500000Y-76500000D03*
X108000000Y-76500000D03*
X106500000Y-76500000D03*
X105000000Y-76500000D03*
X103500000Y-76500000D03*
X102000000Y-76500000D03*
X101000000Y-77500000D03*
X101000000Y-131000000D03*
X101000000Y-127000000D03*
X101000000Y-123000000D03*
X101000000Y-119000000D03*
X101000000Y-115000000D03*
X101000000Y-111000000D03*
X101000000Y-107000000D03*
X101000000Y-103000000D03*
X101000000Y-99000000D03*
X101000000Y-95000000D03*
X101000000Y-91000000D03*
X101000000Y-87000000D03*
X101000000Y-83000000D03*
X101000000Y-79000000D03*
X113500000Y-60500000D03*
X113500000Y-59000000D03*
X113500000Y-57500000D03*
X113500000Y-56000000D03*
X113500000Y-54500000D03*
X113500000Y-53000000D03*
X113500000Y-51500000D03*
X113500000Y-50000000D03*
X113500000Y-48500000D03*
X113500000Y-47000000D03*
X118000000Y-47000000D03*
X116500000Y-47000000D03*
X115000000Y-47000000D03*
X121000000Y-128500000D03*
X129500000Y-54000000D03*
X133000000Y-51000000D03*
X133000000Y-54000000D03*
X133000000Y-57000000D03*
X133553200Y-61010800D03*
X125628400Y-93167200D03*
X124968000Y-94742000D03*
X132029200Y-94132400D03*
X113500000Y-62000000D03*
X129387600Y-89662000D03*
X124968000Y-89865200D03*
X121107200Y-94488000D03*
X126238000Y-98145600D03*
X107645200Y-104546400D03*
X103632000Y-107797600D03*
X132334000Y-100787200D03*
X134061200Y-102819200D03*
X127965200Y-71628000D03*
X125780800Y-61163200D03*
X120700800Y-69342000D03*
X110388400Y-105460800D03*
X117043200Y-112522000D03*
X116738400Y-106680000D03*
X125780800Y-57505600D03*
X120904000Y-61112400D03*
X119786400Y-65989200D03*
X126034800Y-70002400D03*
X116586000Y-66548000D03*
X115366800Y-63347600D03*
X117297200Y-63246000D03*
X117754400Y-61366400D03*
X129743198Y-85902800D03*
X124866400Y-86715600D03*
X127304800Y-82143600D03*
X123139200Y-82194400D03*
X125882400Y-75641200D03*
X128066800Y-78079600D03*
X131267200Y-87630000D03*
X132537200Y-92303600D03*
X113944400Y-102311200D03*
X124002800Y-114655600D03*
X121869200Y-50800000D03*
X122123200Y-56032400D03*
X125730000Y-51663600D03*
X118059200Y-50901600D03*
X127406400Y-104597200D03*
X117398800Y-76403200D03*
X120548400Y-76250800D03*
D25*
X116586000Y-79705200D03*
D26*
X121513600Y-98247200D03*
X107950000Y-102463600D03*
X116840000Y-93472000D03*
D25*
X109728000Y-81280000D03*
X115773200Y-85902800D03*
D26*
X124968000Y-77622400D03*
X123037600Y-78638400D03*
X111963200Y-95046800D03*
X104952800Y-95148400D03*
X105003600Y-93014800D03*
X104952800Y-86563200D03*
X104749600Y-84582000D03*
X106934000Y-114452400D03*
X127711200Y-107899200D03*
X123478800Y-96266000D03*
X129336800Y-94792800D03*
X121208800Y-93252800D03*
X131799999Y-73076401D03*
X127000000Y-68276402D03*
X131805001Y-106557401D03*
X118675000Y-103530400D03*
X120434500Y-103530400D03*
X121700000Y-60100000D03*
X116795744Y-90708812D03*
X111251998Y-88899994D03*
X116992400Y-91592400D03*
X122400000Y-57300000D03*
X112025000Y-86399804D03*
X124002798Y-56794400D03*
X114950064Y-89025718D03*
X113030000Y-89306400D03*
X124002800Y-80518000D03*
X115520991Y-91970090D03*
X116433600Y-89458800D03*
X115265200Y-88290400D03*
X123037600Y-52476400D03*
X121818400Y-86918800D03*
X128676400Y-95504000D03*
X122936000Y-51155600D03*
X126593600Y-95961200D03*
X127000000Y-83921600D03*
X127304800Y-95453200D03*
X127423684Y-84616516D03*
X127965200Y-96012000D03*
X128219394Y-84699370D03*
X122478800Y-83058000D03*
X122478800Y-97790000D03*
X129900000Y-93200000D03*
D27*
X113325000Y-81875000D02*
X113325000Y-79875000D01*
X113325000Y-79875000D02*
X113400000Y-79800000D01*
X101000000Y-83000000D02*
X103000000Y-83000000D01*
X113500000Y-66500000D02*
X115000000Y-66500000D01*
X134000000Y-124000000D02*
X134000000Y-122000000D01*
X134000000Y-120000000D02*
X134000000Y-118000000D01*
X134000000Y-116000000D02*
X134000000Y-114000000D01*
X134000000Y-112000000D02*
X134000000Y-110000000D01*
X134000000Y-108000000D02*
X134000000Y-106000000D01*
X134000000Y-126000000D02*
X134000000Y-128000000D01*
X134000000Y-128000000D02*
X134000000Y-130000000D01*
X134000000Y-75000000D02*
X134000000Y-77000000D01*
X134000000Y-71000000D02*
X134000000Y-73000000D01*
X134000000Y-67000000D02*
X134000000Y-69000000D01*
X113500000Y-66500000D02*
X113500000Y-68000000D01*
X113500000Y-69500000D02*
X113500000Y-71000000D01*
X113500000Y-72500000D02*
X113500000Y-74000000D01*
X113500000Y-75500000D02*
X112500000Y-76500000D01*
X111000000Y-76500000D02*
X109500000Y-76500000D01*
X108000000Y-76500000D02*
X106500000Y-76500000D01*
X105000000Y-76500000D02*
X103500000Y-76500000D01*
X102000000Y-76500000D02*
X101000000Y-77500000D01*
X101000000Y-127000000D02*
X101000000Y-129000000D01*
X101000000Y-123000000D02*
X101000000Y-125000000D01*
X101000000Y-119000000D02*
X101000000Y-121000000D01*
X101000000Y-115000000D02*
X101000000Y-117000000D01*
X101000000Y-111000000D02*
X101000000Y-113000000D01*
X101000000Y-107000000D02*
X101000000Y-109000000D01*
X101000000Y-103000000D02*
X101000000Y-105000000D01*
X101000000Y-99000000D02*
X101000000Y-101000000D01*
X101000000Y-95000000D02*
X101000000Y-97000000D01*
X101000000Y-91000000D02*
X101000000Y-93000000D01*
X101000000Y-87000000D02*
X101000000Y-89000000D01*
X101000000Y-83000000D02*
X101000000Y-85000000D01*
X101000000Y-79000000D02*
X101000000Y-81000000D01*
X113500000Y-60500000D02*
X113500000Y-59000000D01*
X113500000Y-57500000D02*
X113500000Y-56000000D01*
X113500000Y-54500000D02*
X113500000Y-52500000D01*
X113500000Y-52500000D02*
X113500000Y-53000000D01*
X113500000Y-51500000D02*
X113500000Y-50000000D01*
X113500000Y-48500000D02*
X113500000Y-47000000D01*
X118000000Y-47000000D02*
X119000000Y-48000000D01*
X115000000Y-47000000D02*
X116500000Y-47000000D01*
X119000000Y-48000000D02*
X119000000Y-48500000D01*
X112500000Y-131000000D02*
X112500000Y-128000000D01*
X120500000Y-128000000D02*
X121000000Y-128500000D01*
X112500000Y-128000000D02*
X120500000Y-128000000D01*
X115824000Y-75250800D02*
X116074800Y-75000000D01*
X133000000Y-54000000D02*
X133000000Y-57000000D01*
X133000000Y-48500000D02*
X133000000Y-51000000D01*
X126288800Y-92506800D02*
X125628400Y-93167200D01*
X127609600Y-92506800D02*
X126288800Y-92506800D01*
X130700000Y-94000000D02*
X131896800Y-94000000D01*
X131896800Y-94000000D02*
X132029200Y-94132400D01*
X119000000Y-48500000D02*
X119000000Y-48000000D01*
X113792000Y-63058000D02*
X113792000Y-62792000D01*
X130700000Y-94000000D02*
X129102800Y-94000000D01*
X127609600Y-91440000D02*
X129387600Y-89662000D01*
X127609600Y-92506800D02*
X127609600Y-91440000D01*
X129102800Y-94000000D02*
X127609600Y-92506800D01*
X125000000Y-88300000D02*
X125000000Y-89833200D01*
X125000000Y-89833200D02*
X124968000Y-89865200D01*
X119300000Y-94000000D02*
X120619200Y-94000000D01*
X120619200Y-94000000D02*
X121107200Y-94488000D01*
X125800000Y-99700000D02*
X125800000Y-98583600D01*
X125800000Y-98583600D02*
X126238000Y-98145600D01*
X103038400Y-106019600D02*
X102987600Y-106070400D01*
X133654800Y-79345200D02*
X134000000Y-79000000D01*
X133654800Y-80924400D02*
X133654800Y-79345200D01*
X134000000Y-81269600D02*
X133654800Y-80924400D01*
X134000000Y-83000000D02*
X134000000Y-81269600D01*
X133350000Y-83650000D02*
X134000000Y-83000000D01*
X133350000Y-85090000D02*
X133350000Y-83650000D01*
X106543600Y-106019600D02*
X106606076Y-106019600D01*
X106606076Y-106019600D02*
X106606100Y-106019576D01*
X103100900Y-106019600D02*
X103100900Y-106019624D01*
X123580400Y-105714800D02*
X123517914Y-105714800D01*
X128660400Y-85902800D02*
X129743198Y-85902800D01*
X128304800Y-86258400D02*
X128660400Y-85902800D01*
X125000000Y-86849200D02*
X124866400Y-86715600D01*
X125000000Y-88300000D02*
X125000000Y-86849200D01*
X113975000Y-84968200D02*
X114808000Y-85801200D01*
X113975000Y-84125000D02*
X113975000Y-84968200D01*
X117368000Y-94000000D02*
X116840000Y-93472000D01*
X119300000Y-94000000D02*
X117368000Y-94000000D01*
D28*
X113750000Y-65000000D02*
X113792000Y-64958000D01*
X114958000Y-64958000D02*
X115000000Y-65000000D01*
X113792000Y-64958000D02*
X114958000Y-64958000D01*
X113000000Y-65000000D02*
X113750000Y-65000000D01*
D27*
X123478800Y-96266000D02*
X125000000Y-96266000D01*
X125000000Y-96266000D02*
X125018800Y-96266000D01*
X125018800Y-96266000D02*
X125000000Y-96266000D01*
X111709200Y-106360000D02*
X111724400Y-106375200D01*
X111724400Y-106375200D02*
X112064800Y-106375200D01*
X122500000Y-131000000D02*
X128500000Y-131000000D01*
X129336800Y-94792800D02*
X129344000Y-94800000D01*
X129344000Y-94800000D02*
X130700000Y-94800000D01*
X121462800Y-93200000D02*
X121462800Y-93167200D01*
X121430000Y-93200000D02*
X121462800Y-93167200D01*
X121261600Y-93200000D02*
X121430000Y-93200000D01*
X121261600Y-93200000D02*
X121208800Y-93252800D01*
X125000000Y-99700000D02*
X125000000Y-98418400D01*
X125000000Y-99700000D02*
X125000000Y-96266000D01*
X125000000Y-96266000D02*
X125000000Y-95892800D01*
X125000000Y-95892800D02*
X126092800Y-94800000D01*
X125800000Y-88300000D02*
X125800000Y-91892800D01*
X125800000Y-91892800D02*
X124492800Y-93200000D01*
X130700000Y-94800000D02*
X126092800Y-94800000D01*
X124492800Y-93200000D02*
X121462800Y-93200000D01*
X121462800Y-93200000D02*
X119300000Y-93200000D01*
X126092800Y-94800000D02*
X124492800Y-93200000D01*
D28*
X128500000Y-131000000D02*
X128500000Y-127989200D01*
D27*
X132647810Y-86927810D02*
X133350000Y-87630000D01*
X125800000Y-87057620D02*
X125929810Y-86927810D01*
X125800000Y-88300000D02*
X125800000Y-87057620D01*
X126367300Y-86895700D02*
X126399410Y-86927810D01*
X126367300Y-85902800D02*
X126367300Y-86895700D01*
X126399410Y-86927810D02*
X132647810Y-86927810D01*
X125929810Y-86927810D02*
X126399410Y-86927810D01*
D28*
X131799999Y-86500001D02*
X131799999Y-73076401D01*
X132929998Y-87630000D02*
X131799999Y-86500001D01*
X133350000Y-87630000D02*
X132929998Y-87630000D01*
X127000000Y-63500000D02*
X127000000Y-68276402D01*
D27*
X102288390Y-105155710D02*
X102288390Y-108333590D01*
X103253300Y-104190800D02*
X102288390Y-105155710D01*
X107416001Y-113461201D02*
X122534295Y-113461201D01*
X102288390Y-108333590D02*
X107416001Y-113461201D01*
X117934500Y-113461201D02*
X122534295Y-113461201D01*
X117934500Y-105714800D02*
X117934500Y-113461201D01*
X114757200Y-105714800D02*
X117934500Y-105714800D01*
X114124500Y-106347500D02*
X114757200Y-105714800D01*
X111709200Y-106347500D02*
X114124500Y-106347500D01*
X126921500Y-68376800D02*
X126921500Y-72468500D01*
X116060701Y-77425001D02*
X115824000Y-77188300D01*
X121964999Y-77425001D02*
X116060701Y-77425001D01*
X126921500Y-72468500D02*
X121964999Y-77425001D01*
X112397300Y-77188300D02*
X111709200Y-77876400D01*
X112675000Y-81275000D02*
X112675000Y-81875000D01*
X111709200Y-80309200D02*
X112675000Y-81275000D01*
X111709200Y-77876400D02*
X111709200Y-80309200D01*
X114825001Y-77249799D02*
X114886500Y-77188300D01*
X114825001Y-81024999D02*
X114825001Y-77249799D01*
X113975000Y-81875000D02*
X114825001Y-81024999D01*
X114886500Y-77188300D02*
X112397300Y-77188300D01*
X115824000Y-77188300D02*
X114886500Y-77188300D01*
D28*
X128528600Y-127214400D02*
X128528600Y-127914400D01*
X131805001Y-123937999D02*
X128528600Y-127214400D01*
X133579806Y-101820592D02*
X131805001Y-103595397D01*
X133579806Y-87859806D02*
X133579806Y-101820592D01*
X133350000Y-87630000D02*
X133579806Y-87859806D01*
X131805001Y-106557401D02*
X131805001Y-111679399D01*
X131805001Y-103595397D02*
X131805001Y-106557401D01*
D27*
X131656403Y-113461201D02*
X131805001Y-113609799D01*
X122534295Y-113461201D02*
X131656403Y-113461201D01*
D28*
X131805001Y-113609799D02*
X131805001Y-123937999D01*
X131805001Y-111679399D02*
X131805001Y-113609799D01*
D27*
X131775602Y-111650000D02*
X131805001Y-111679399D01*
X127575000Y-111650000D02*
X131775602Y-111650000D01*
X119822000Y-105714800D02*
X120548400Y-105714800D01*
X121580400Y-105714800D02*
X120548400Y-105714800D01*
X121642900Y-106887900D02*
X121642900Y-105714800D01*
X123865000Y-109110000D02*
X121642900Y-106887900D01*
X120416400Y-99700000D02*
X121000000Y-99700000D01*
X119809500Y-100306900D02*
X120416400Y-99700000D01*
X119809500Y-105714800D02*
X119809500Y-100306900D01*
X115976400Y-103530400D02*
X106625200Y-103530400D01*
X106625200Y-103530400D02*
X106574400Y-103581200D01*
X105964800Y-104190800D02*
X105140800Y-104190800D01*
X105964800Y-104190800D02*
X106574400Y-103581200D01*
X128066800Y-103530400D02*
X128065402Y-103529002D01*
X128065402Y-103529002D02*
X128066800Y-103530400D01*
X105038400Y-106019600D02*
X105038400Y-107730800D01*
X106570000Y-111650000D02*
X108095000Y-111650000D01*
X105054400Y-110134400D02*
X106570000Y-111650000D01*
X105054400Y-107746800D02*
X105054400Y-110134400D01*
X105038400Y-107730800D02*
X105054400Y-107746800D01*
X105140800Y-104190800D02*
X105140800Y-105917200D01*
X105140800Y-105917200D02*
X105038400Y-106019600D01*
X128066800Y-103527604D02*
X128066800Y-103530400D01*
X132754796Y-98839608D02*
X128066800Y-103527604D01*
X132754796Y-93537196D02*
X132754796Y-98839608D01*
X131617600Y-92400000D02*
X132754796Y-93537196D01*
X130700000Y-92400000D02*
X131617600Y-92400000D01*
X115976400Y-103530400D02*
X118675000Y-103530400D01*
X128064004Y-103530400D02*
X128066800Y-103527604D01*
X120434500Y-103530400D02*
X128064004Y-103530400D01*
X111709200Y-104460000D02*
X111490800Y-104241600D01*
X111490800Y-104241600D02*
X110134400Y-104241600D01*
X110134400Y-104241600D02*
X109365000Y-105011000D01*
X109365000Y-105011000D02*
X109365000Y-106019600D01*
X108543600Y-106019600D02*
X109365000Y-106019600D01*
X109365000Y-106019600D02*
X109321600Y-106019600D01*
X109321600Y-106019600D02*
X109365000Y-106019600D01*
X111709200Y-104460000D02*
X111267200Y-104460000D01*
X109365000Y-106019600D02*
X109365000Y-109110000D01*
X119300000Y-104118400D02*
X119300000Y-98000000D01*
X119176800Y-104241600D02*
X119300000Y-104118400D01*
X111927600Y-104241600D02*
X119176800Y-104241600D01*
X111709200Y-104460000D02*
X111927600Y-104241600D01*
D28*
X118211600Y-65293200D02*
X118211600Y-64288400D01*
X118211600Y-64288400D02*
X119000000Y-63500000D01*
X117000000Y-65000000D02*
X117500000Y-65000000D01*
X117500000Y-65000000D02*
X119000000Y-63500000D01*
D27*
X114770000Y-94800000D02*
X113316000Y-93346000D01*
X119300000Y-94800000D02*
X114770000Y-94800000D01*
X113316000Y-92470200D02*
X114600200Y-91186000D01*
X113316000Y-93346000D02*
X113316000Y-92470200D01*
X121707400Y-60107400D02*
X121807400Y-60107400D01*
X121700000Y-60100000D02*
X121707400Y-60107400D01*
X131000000Y-48500000D02*
X131000000Y-50965600D01*
X127711200Y-54203600D02*
X121807400Y-60107400D01*
X127762000Y-54203600D02*
X127711200Y-54203600D01*
X131000000Y-50965600D02*
X127762000Y-54203600D01*
X116886932Y-90800000D02*
X116795744Y-90708812D01*
X119300000Y-90800000D02*
X116886932Y-90800000D01*
X112025000Y-81875000D02*
X111251998Y-82648002D01*
X111251998Y-82648002D02*
X111251998Y-88899994D01*
X111201192Y-88950800D02*
X111251998Y-88899994D01*
X103225600Y-88950800D02*
X111201192Y-88950800D01*
X112025000Y-86600000D02*
X112000000Y-86600000D01*
X112000000Y-86600000D02*
X112025000Y-86600000D01*
X112025000Y-84125000D02*
X112025000Y-86600000D01*
X119292400Y-91592400D02*
X119300000Y-91600000D01*
X116992400Y-91592400D02*
X119292400Y-91592400D01*
X122400000Y-57218198D02*
X122400000Y-57300000D01*
X127000000Y-52618198D02*
X122400000Y-57218198D01*
X127000000Y-48500000D02*
X127000000Y-52618198D01*
X117000000Y-91600000D02*
X116992400Y-91592400D01*
X112025000Y-86600000D02*
X112025000Y-86399804D01*
X116568136Y-91592400D02*
X116992400Y-91592400D01*
X114010601Y-89034865D02*
X116568136Y-91592400D01*
X114010601Y-88904799D02*
X114010601Y-89034865D01*
X112025000Y-86600000D02*
X112025000Y-86919198D01*
X112025000Y-86919198D02*
X114010601Y-88904799D01*
X129000000Y-51797198D02*
X124002798Y-56794400D01*
X129000000Y-48500000D02*
X129000000Y-51797198D01*
X119300000Y-90000000D02*
X119216198Y-90083802D01*
X119216198Y-90083802D02*
X115890202Y-90083802D01*
X115890202Y-90083802D02*
X115366800Y-89560400D01*
X124002800Y-80518000D02*
X124002800Y-83058000D01*
X124002800Y-83058000D02*
X120396000Y-86664800D01*
X118323804Y-86664800D02*
X115428204Y-89560400D01*
X120396000Y-86664800D02*
X118323804Y-86664800D01*
X115428204Y-89560400D02*
X115366800Y-89560400D01*
X112675000Y-86868600D02*
X112675000Y-84125000D01*
X114925946Y-89001600D02*
X114950064Y-89025718D01*
X115366800Y-89560400D02*
X114808000Y-89001600D01*
X114808000Y-89001600D02*
X114925946Y-89001600D01*
X114808000Y-89001600D02*
X112675000Y-86868600D01*
X103956450Y-91490800D02*
X103225600Y-91490800D01*
X111912400Y-89306400D02*
X113030000Y-89306400D01*
X109118400Y-92100400D02*
X111912400Y-89306400D01*
X103835200Y-92100400D02*
X109118400Y-92100400D01*
X103225600Y-91490800D02*
X103835200Y-92100400D01*
X115771900Y-92220999D02*
X115520991Y-91970090D01*
X119120999Y-92220999D02*
X115771900Y-92220999D01*
X119300000Y-92400000D02*
X119120999Y-92220999D01*
X117592400Y-88300000D02*
X116433600Y-89458800D01*
X121000000Y-88300000D02*
X117592400Y-88300000D01*
X114858800Y-88290400D02*
X115265200Y-88290400D01*
X113325000Y-86756600D02*
X114858800Y-88290400D01*
X113325000Y-84125000D02*
X113325000Y-86756600D01*
X125000000Y-50514000D02*
X123037600Y-52476400D01*
X121818400Y-86918800D02*
X121800000Y-86937200D01*
X121800000Y-88300000D02*
X121800000Y-86937200D01*
X125000000Y-50514000D02*
X125000000Y-48500000D01*
X129661200Y-97200000D02*
X128676400Y-96215200D01*
X128676400Y-96215200D02*
X128676400Y-95504000D01*
X122936000Y-48564000D02*
X122936000Y-51155600D01*
X129661200Y-97200000D02*
X130700000Y-97200000D01*
X122936000Y-48564000D02*
X123000000Y-48500000D01*
X128200000Y-99700000D02*
X128200000Y-98024800D01*
X126593600Y-96418400D02*
X128200000Y-98024800D01*
X126593600Y-95961200D02*
X126593600Y-96418400D01*
X129000000Y-63500000D02*
X129000000Y-81921600D01*
X129000000Y-81921600D02*
X127000000Y-83921600D01*
X127304800Y-95453200D02*
X127304800Y-96445198D01*
X127304800Y-96445198D02*
X129000000Y-98140398D01*
X129000000Y-98140398D02*
X129000000Y-99700000D01*
X131000000Y-67131602D02*
X129540000Y-68591602D01*
X131000000Y-63500000D02*
X131000000Y-67131602D01*
X127423684Y-84558533D02*
X127423684Y-84616516D01*
X129540000Y-68591602D02*
X129540000Y-82442217D01*
X129540000Y-82442217D02*
X127423684Y-84558533D01*
X127965200Y-96012000D02*
X127965200Y-96469200D01*
X127965200Y-96469200D02*
X129496000Y-98000000D01*
X129496000Y-98000000D02*
X130700000Y-98000000D01*
X130098800Y-68834000D02*
X130098800Y-82819964D01*
X130098800Y-82819964D02*
X128219394Y-84699370D01*
X133000000Y-65932800D02*
X130098800Y-68834000D01*
X133000000Y-63500000D02*
X133000000Y-65932800D01*
X116362000Y-95600000D02*
X115316000Y-96646000D01*
X119300000Y-95600000D02*
X116362000Y-95600000D01*
X113405400Y-98556600D02*
X115316000Y-96646000D01*
X112166400Y-98556600D02*
X113405400Y-98556600D01*
X116316800Y-82933200D02*
X116250000Y-83000000D01*
X124200000Y-99700000D02*
X124200000Y-98444400D01*
X122478800Y-83058000D02*
X118848000Y-83058000D01*
X123545600Y-97790000D02*
X122478800Y-97790000D01*
X124200000Y-98444400D02*
X123545600Y-97790000D01*
X118848000Y-83058000D02*
X118790000Y-83000000D01*
X126492000Y-81205210D02*
X126492000Y-80518000D01*
X122600000Y-85097210D02*
X126492000Y-81205210D01*
X122600000Y-88300000D02*
X122600000Y-85097210D01*
X126600000Y-99700000D02*
X126600000Y-100400000D01*
X126600000Y-100400000D02*
X125000000Y-102000000D01*
X127400000Y-99700000D02*
X127400000Y-101860000D01*
X127400000Y-101860000D02*
X127540000Y-102000000D01*
X130700000Y-93200000D02*
X129900000Y-93200000D01*
X119300000Y-97200000D02*
X118242800Y-97200000D01*
X117500400Y-97942400D02*
X117500400Y-100533200D01*
X118242800Y-97200000D02*
X117500400Y-97942400D01*
X114960400Y-99415600D02*
X114960400Y-100533200D01*
X117976000Y-96400000D02*
X114960400Y-99415600D01*
X119300000Y-96400000D02*
X117976000Y-96400000D01*
D29*
G36*
X117810498Y-46755820D02*
G01*
X117774188Y-46875518D01*
X117761928Y-47000000D01*
X117765000Y-48214250D01*
X117923750Y-48373000D01*
X118873000Y-48373000D01*
X118873000Y-48353000D01*
X119127000Y-48353000D01*
X119127000Y-48373000D01*
X119147000Y-48373000D01*
X119147000Y-48627000D01*
X119127000Y-48627000D01*
X119127000Y-50476250D01*
X119285750Y-50635000D01*
X119600000Y-50638072D01*
X119724482Y-50625812D01*
X119844180Y-50589502D01*
X119954494Y-50530537D01*
X120000000Y-50493191D01*
X120045506Y-50530537D01*
X120155820Y-50589502D01*
X120275518Y-50625812D01*
X120400000Y-50638072D01*
X121600000Y-50638072D01*
X121724482Y-50625812D01*
X121844180Y-50589502D01*
X121954494Y-50530537D01*
X122000000Y-50493191D01*
X122045506Y-50530537D01*
X122155820Y-50589502D01*
X122176001Y-50595624D01*
X122176001Y-50610063D01*
X122107414Y-50712711D01*
X122036932Y-50882871D01*
X122001000Y-51063511D01*
X122001000Y-51247689D01*
X122036932Y-51428329D01*
X122107414Y-51598489D01*
X122209738Y-51751628D01*
X122324910Y-51866800D01*
X122311338Y-51880372D01*
X122209014Y-52033511D01*
X122138532Y-52203671D01*
X122102600Y-52384311D01*
X122102600Y-52568489D01*
X122138532Y-52749129D01*
X122209014Y-52919289D01*
X122311338Y-53072428D01*
X122441572Y-53202662D01*
X122594711Y-53304986D01*
X122764871Y-53375468D01*
X122945511Y-53411400D01*
X123129689Y-53411400D01*
X123310329Y-53375468D01*
X123480489Y-53304986D01*
X123633628Y-53202662D01*
X123763862Y-53072428D01*
X123866186Y-52919289D01*
X123936668Y-52749129D01*
X123960753Y-52628048D01*
X125511004Y-51077798D01*
X125540001Y-51054001D01*
X125634974Y-50938276D01*
X125705546Y-50806247D01*
X125749003Y-50662986D01*
X125753532Y-50617000D01*
X125844180Y-50589502D01*
X125954494Y-50530537D01*
X126000000Y-50493191D01*
X126045506Y-50530537D01*
X126155820Y-50589502D01*
X126240001Y-50615038D01*
X126240001Y-52303394D01*
X122146238Y-56397159D01*
X122127271Y-56400932D01*
X121957111Y-56471414D01*
X121803972Y-56573738D01*
X121673738Y-56703972D01*
X121571414Y-56857111D01*
X121500932Y-57027271D01*
X121465000Y-57207911D01*
X121465000Y-57392089D01*
X121500932Y-57572729D01*
X121571414Y-57742889D01*
X121673738Y-57896028D01*
X121803972Y-58026262D01*
X121957111Y-58128586D01*
X122127271Y-58199068D01*
X122307911Y-58235000D01*
X122492089Y-58235000D01*
X122633035Y-58206964D01*
X121674999Y-59165000D01*
X121607911Y-59165000D01*
X121427271Y-59200932D01*
X121257111Y-59271414D01*
X121103972Y-59373738D01*
X120973738Y-59503972D01*
X120871414Y-59657111D01*
X120800932Y-59827271D01*
X120765000Y-60007911D01*
X120765000Y-60192089D01*
X120800932Y-60372729D01*
X120871414Y-60542889D01*
X120973738Y-60696028D01*
X121103972Y-60826262D01*
X121257111Y-60928586D01*
X121427271Y-60999068D01*
X121607911Y-61035000D01*
X121792089Y-61035000D01*
X121972729Y-60999068D01*
X122142889Y-60928586D01*
X122296028Y-60826262D01*
X122426262Y-60696028D01*
X122528586Y-60542889D01*
X122586479Y-60403122D01*
X128110552Y-54879050D01*
X128186276Y-54838574D01*
X128302001Y-54743601D01*
X128325804Y-54714597D01*
X131511003Y-51529399D01*
X131540001Y-51505601D01*
X131634974Y-51389876D01*
X131705546Y-51257847D01*
X131749003Y-51114586D01*
X131760000Y-51002933D01*
X131763677Y-50965600D01*
X131760000Y-50928267D01*
X131760000Y-50615038D01*
X131844180Y-50589502D01*
X131954494Y-50530537D01*
X132000000Y-50493191D01*
X132045506Y-50530537D01*
X132155820Y-50589502D01*
X132275518Y-50625812D01*
X132400000Y-50638072D01*
X132714250Y-50635000D01*
X132873000Y-50476250D01*
X132873000Y-48627000D01*
X133127000Y-48627000D01*
X133127000Y-50476250D01*
X133285750Y-50635000D01*
X133600000Y-50638072D01*
X133724482Y-50625812D01*
X133844180Y-50589502D01*
X133954494Y-50530537D01*
X134051185Y-50451185D01*
X134130537Y-50354494D01*
X134189502Y-50244180D01*
X134225812Y-50124482D01*
X134238072Y-50000000D01*
X134235000Y-48785750D01*
X134076250Y-48627000D01*
X133127000Y-48627000D01*
X132873000Y-48627000D01*
X132853000Y-48627000D01*
X132853000Y-48373000D01*
X132873000Y-48373000D01*
X132873000Y-48353000D01*
X133127000Y-48353000D01*
X133127000Y-48373000D01*
X134076250Y-48373000D01*
X134235000Y-48214250D01*
X134238072Y-47000000D01*
X134225812Y-46875518D01*
X134189502Y-46755820D01*
X134165010Y-46710000D01*
X134290001Y-46710000D01*
X134290001Y-83610792D01*
X134200000Y-83601928D01*
X133635750Y-83605000D01*
X133477000Y-83763750D01*
X133477000Y-84963000D01*
X133497000Y-84963000D01*
X133497000Y-85217000D01*
X133477000Y-85217000D01*
X133477000Y-85237000D01*
X133223000Y-85237000D01*
X133223000Y-85217000D01*
X133203000Y-85217000D01*
X133203000Y-84963000D01*
X133223000Y-84963000D01*
X133223000Y-83763750D01*
X133064250Y-83605000D01*
X132934999Y-83604296D01*
X132934999Y-73020649D01*
X132918576Y-72853902D01*
X132853675Y-72639954D01*
X132748283Y-72442778D01*
X132606448Y-72269952D01*
X132433622Y-72128117D01*
X132236446Y-72022725D01*
X132022498Y-71957824D01*
X131799999Y-71935910D01*
X131577501Y-71957824D01*
X131363553Y-72022725D01*
X131166377Y-72128117D01*
X130993551Y-72269952D01*
X130858800Y-72434146D01*
X130858800Y-69148801D01*
X133511008Y-66496595D01*
X133540001Y-66472801D01*
X133563795Y-66443808D01*
X133563799Y-66443804D01*
X133634973Y-66357077D01*
X133644793Y-66338706D01*
X133705546Y-66225047D01*
X133749003Y-66081786D01*
X133760000Y-65970133D01*
X133760000Y-65970124D01*
X133763676Y-65932801D01*
X133760000Y-65895478D01*
X133760000Y-65615038D01*
X133844180Y-65589502D01*
X133954494Y-65530537D01*
X134051185Y-65451185D01*
X134130537Y-65354494D01*
X134189502Y-65244180D01*
X134225812Y-65124482D01*
X134238072Y-65000000D01*
X134238072Y-62000000D01*
X134225812Y-61875518D01*
X134189502Y-61755820D01*
X134130537Y-61645506D01*
X134051185Y-61548815D01*
X133954494Y-61469463D01*
X133844180Y-61410498D01*
X133724482Y-61374188D01*
X133600000Y-61361928D01*
X132400000Y-61361928D01*
X132275518Y-61374188D01*
X132155820Y-61410498D01*
X132045506Y-61469463D01*
X132000000Y-61506809D01*
X131954494Y-61469463D01*
X131844180Y-61410498D01*
X131724482Y-61374188D01*
X131600000Y-61361928D01*
X130400000Y-61361928D01*
X130275518Y-61374188D01*
X130155820Y-61410498D01*
X130045506Y-61469463D01*
X130000000Y-61506809D01*
X129954494Y-61469463D01*
X129844180Y-61410498D01*
X129724482Y-61374188D01*
X129600000Y-61361928D01*
X128400000Y-61361928D01*
X128275518Y-61374188D01*
X128155820Y-61410498D01*
X128045506Y-61469463D01*
X128000000Y-61506809D01*
X127954494Y-61469463D01*
X127844180Y-61410498D01*
X127724482Y-61374188D01*
X127600000Y-61361928D01*
X126400000Y-61361928D01*
X126275518Y-61374188D01*
X126155820Y-61410498D01*
X126045506Y-61469463D01*
X126000000Y-61506809D01*
X125954494Y-61469463D01*
X125844180Y-61410498D01*
X125724482Y-61374188D01*
X125600000Y-61361928D01*
X124400000Y-61361928D01*
X124275518Y-61374188D01*
X124155820Y-61410498D01*
X124045506Y-61469463D01*
X124000000Y-61506809D01*
X123954494Y-61469463D01*
X123844180Y-61410498D01*
X123724482Y-61374188D01*
X123600000Y-61361928D01*
X122400000Y-61361928D01*
X122275518Y-61374188D01*
X122155820Y-61410498D01*
X122045506Y-61469463D01*
X122000000Y-61506809D01*
X121954494Y-61469463D01*
X121844180Y-61410498D01*
X121724482Y-61374188D01*
X121600000Y-61361928D01*
X121285750Y-61365000D01*
X121127000Y-61523750D01*
X121127000Y-63373000D01*
X121147000Y-63373000D01*
X121147000Y-63627000D01*
X121127000Y-63627000D01*
X121127000Y-65476250D01*
X121285750Y-65635000D01*
X121600000Y-65638072D01*
X121724482Y-65625812D01*
X121844180Y-65589502D01*
X121954494Y-65530537D01*
X122000000Y-65493191D01*
X122045506Y-65530537D01*
X122155820Y-65589502D01*
X122275518Y-65625812D01*
X122400000Y-65638072D01*
X123600000Y-65638072D01*
X123724482Y-65625812D01*
X123844180Y-65589502D01*
X123954494Y-65530537D01*
X124000000Y-65493191D01*
X124045506Y-65530537D01*
X124155820Y-65589502D01*
X124225980Y-65610785D01*
X124204506Y-65622263D01*
X124107815Y-65701615D01*
X124028463Y-65798306D01*
X123969498Y-65908620D01*
X123933188Y-66028318D01*
X123920928Y-66152800D01*
X123924000Y-66567050D01*
X124082750Y-66725800D01*
X124919500Y-66725800D01*
X124919500Y-66705800D01*
X125173500Y-66705800D01*
X125173500Y-66725800D01*
X125193500Y-66725800D01*
X125193500Y-66979800D01*
X125173500Y-66979800D01*
X125173500Y-68249800D01*
X125193500Y-68249800D01*
X125193500Y-68503800D01*
X125173500Y-68503800D01*
X125173500Y-69553050D01*
X125332250Y-69711800D01*
X125534000Y-69714872D01*
X125658482Y-69702612D01*
X125778180Y-69666302D01*
X125888494Y-69607337D01*
X125985185Y-69527985D01*
X126048992Y-69450236D01*
X126054208Y-69456592D01*
X126161500Y-69544645D01*
X126161501Y-72153697D01*
X121650198Y-76665001D01*
X117112514Y-76665001D01*
X117094947Y-76607091D01*
X117013458Y-76454636D01*
X116903792Y-76321008D01*
X116897436Y-76315792D01*
X116975185Y-76251985D01*
X117054537Y-76155294D01*
X117113502Y-76044980D01*
X117149812Y-75925282D01*
X117162072Y-75800800D01*
X117159000Y-75599050D01*
X117000250Y-75440300D01*
X115951000Y-75440300D01*
X115951000Y-75460300D01*
X115697000Y-75460300D01*
X115697000Y-75440300D01*
X114647750Y-75440300D01*
X114489000Y-75599050D01*
X114485928Y-75800800D01*
X114498188Y-75925282D01*
X114534498Y-76044980D01*
X114593463Y-76155294D01*
X114672815Y-76251985D01*
X114750564Y-76315792D01*
X114744208Y-76321008D01*
X114656155Y-76428300D01*
X112434622Y-76428300D01*
X112397299Y-76424624D01*
X112359976Y-76428300D01*
X112359967Y-76428300D01*
X112248314Y-76439297D01*
X112105053Y-76482754D01*
X111973024Y-76553326D01*
X111857299Y-76648299D01*
X111833501Y-76677298D01*
X111198202Y-77312597D01*
X111169199Y-77336399D01*
X111114071Y-77403574D01*
X111074226Y-77452124D01*
X111026162Y-77542045D01*
X111003654Y-77584154D01*
X110960197Y-77727415D01*
X110949200Y-77839068D01*
X110949200Y-77839078D01*
X110945524Y-77876400D01*
X110949200Y-77913723D01*
X110949201Y-80271868D01*
X110945524Y-80309200D01*
X110949201Y-80346533D01*
X110960198Y-80458186D01*
X110967018Y-80480668D01*
X111003654Y-80601446D01*
X111074226Y-80733476D01*
X111121213Y-80790729D01*
X111169200Y-80849201D01*
X111198198Y-80872999D01*
X111398924Y-81073726D01*
X111398815Y-81073815D01*
X111319463Y-81170506D01*
X111260498Y-81280820D01*
X111224188Y-81400518D01*
X111211928Y-81525000D01*
X111211928Y-81613270D01*
X110741000Y-82084199D01*
X110711997Y-82108001D01*
X110663376Y-82167246D01*
X110617024Y-82223726D01*
X110549806Y-82349482D01*
X110546452Y-82355756D01*
X110502995Y-82499017D01*
X110491998Y-82610670D01*
X110491998Y-82610680D01*
X110488322Y-82648002D01*
X110491998Y-82685325D01*
X110491999Y-88190800D01*
X104713672Y-88190800D01*
X104713672Y-88100800D01*
X104701412Y-87976318D01*
X104665102Y-87856620D01*
X104606137Y-87746306D01*
X104552378Y-87680800D01*
X104606137Y-87615294D01*
X104665102Y-87504980D01*
X104701412Y-87385282D01*
X104713672Y-87260800D01*
X104713672Y-85560800D01*
X104701412Y-85436318D01*
X104665102Y-85316620D01*
X104606137Y-85206306D01*
X104526785Y-85109615D01*
X104430094Y-85030263D01*
X104319780Y-84971298D01*
X104200082Y-84934988D01*
X104075600Y-84922728D01*
X102375600Y-84922728D01*
X102251118Y-84934988D01*
X102131420Y-84971298D01*
X102021106Y-85030263D01*
X101924415Y-85109615D01*
X101845063Y-85206306D01*
X101786098Y-85316620D01*
X101749788Y-85436318D01*
X101737528Y-85560800D01*
X101737528Y-87260800D01*
X101749788Y-87385282D01*
X101786098Y-87504980D01*
X101845063Y-87615294D01*
X101898822Y-87680800D01*
X101845063Y-87746306D01*
X101786098Y-87856620D01*
X101749788Y-87976318D01*
X101737528Y-88100800D01*
X101737528Y-89800800D01*
X101749788Y-89925282D01*
X101786098Y-90044980D01*
X101845063Y-90155294D01*
X101898822Y-90220800D01*
X101845063Y-90286306D01*
X101786098Y-90396620D01*
X101749788Y-90516318D01*
X101737528Y-90640800D01*
X101737528Y-92340800D01*
X101749788Y-92465282D01*
X101786098Y-92584980D01*
X101845063Y-92695294D01*
X101898822Y-92760800D01*
X101845063Y-92826306D01*
X101786098Y-92936620D01*
X101749788Y-93056318D01*
X101737528Y-93180800D01*
X101737528Y-94880800D01*
X101749788Y-95005282D01*
X101786098Y-95124980D01*
X101845063Y-95235294D01*
X101924415Y-95331985D01*
X102021106Y-95411337D01*
X102131420Y-95470302D01*
X102251118Y-95506612D01*
X102375600Y-95518872D01*
X104075600Y-95518872D01*
X104200082Y-95506612D01*
X104319780Y-95470302D01*
X104430094Y-95411337D01*
X104526785Y-95331985D01*
X104606137Y-95235294D01*
X104665102Y-95124980D01*
X104701412Y-95005282D01*
X104713672Y-94880800D01*
X104713672Y-93180800D01*
X104701412Y-93056318D01*
X104665102Y-92936620D01*
X104624361Y-92860400D01*
X109081078Y-92860400D01*
X109118400Y-92864076D01*
X109155722Y-92860400D01*
X109155733Y-92860400D01*
X109267386Y-92849403D01*
X109410647Y-92805946D01*
X109542676Y-92735374D01*
X109658401Y-92640401D01*
X109682204Y-92611397D01*
X111601159Y-90692443D01*
X111602700Y-90900250D01*
X111761450Y-91059000D01*
X112598200Y-91059000D01*
X112598200Y-91039000D01*
X112852200Y-91039000D01*
X112852200Y-91059000D01*
X112872200Y-91059000D01*
X112872200Y-91313000D01*
X112852200Y-91313000D01*
X112852200Y-91333000D01*
X112598200Y-91333000D01*
X112598200Y-91313000D01*
X111761450Y-91313000D01*
X111602700Y-91471750D01*
X111599628Y-91886000D01*
X111611888Y-92010482D01*
X111648198Y-92130180D01*
X111707163Y-92240494D01*
X111786515Y-92337185D01*
X111883206Y-92416537D01*
X111993520Y-92475502D01*
X112033672Y-92487682D01*
X112027928Y-92546000D01*
X112027928Y-94146000D01*
X112040188Y-94270482D01*
X112076498Y-94390180D01*
X112135463Y-94500494D01*
X112214815Y-94597185D01*
X112311506Y-94676537D01*
X112421820Y-94735502D01*
X112541518Y-94771812D01*
X112666000Y-94784072D01*
X113679270Y-94784072D01*
X114126230Y-95231032D01*
X114090482Y-95220188D01*
X113966000Y-95207928D01*
X113601750Y-95211000D01*
X113443000Y-95369750D01*
X113443000Y-96519000D01*
X113463000Y-96519000D01*
X113463000Y-96773000D01*
X113443000Y-96773000D01*
X113443000Y-96793000D01*
X113189000Y-96793000D01*
X113189000Y-96773000D01*
X112189750Y-96773000D01*
X112031000Y-96931750D01*
X112028017Y-97431028D01*
X111710150Y-97431028D01*
X111538115Y-97447972D01*
X111372691Y-97498153D01*
X111220236Y-97579642D01*
X111086608Y-97689308D01*
X110976942Y-97822936D01*
X110895453Y-97975391D01*
X110845272Y-98140815D01*
X110828328Y-98312850D01*
X110828328Y-98800350D01*
X110845272Y-98972385D01*
X110895453Y-99137809D01*
X110976942Y-99290264D01*
X111086608Y-99423892D01*
X111092964Y-99429108D01*
X111015215Y-99492915D01*
X110935863Y-99589606D01*
X110876898Y-99699920D01*
X110840588Y-99819618D01*
X110828328Y-99944100D01*
X110831400Y-100145850D01*
X110990150Y-100304600D01*
X112039400Y-100304600D01*
X112039400Y-100284600D01*
X112293400Y-100284600D01*
X112293400Y-100304600D01*
X112313400Y-100304600D01*
X112313400Y-100558600D01*
X112293400Y-100558600D01*
X112293400Y-101395350D01*
X112452150Y-101554100D01*
X112866400Y-101557172D01*
X112990882Y-101544912D01*
X113110580Y-101508602D01*
X113220894Y-101449637D01*
X113317585Y-101370285D01*
X113396937Y-101273594D01*
X113455902Y-101163280D01*
X113472328Y-101109131D01*
X113472328Y-101383200D01*
X113484588Y-101507682D01*
X113520898Y-101627380D01*
X113579863Y-101737694D01*
X113659215Y-101834385D01*
X113755906Y-101913737D01*
X113866220Y-101972702D01*
X113985918Y-102009012D01*
X114110400Y-102021272D01*
X115810400Y-102021272D01*
X115934882Y-102009012D01*
X116054580Y-101972702D01*
X116164894Y-101913737D01*
X116261585Y-101834385D01*
X116340937Y-101737694D01*
X116399902Y-101627380D01*
X116421913Y-101554820D01*
X116553768Y-101686675D01*
X116796989Y-101849190D01*
X117067242Y-101961132D01*
X117354140Y-102018200D01*
X117646660Y-102018200D01*
X117933558Y-101961132D01*
X118203811Y-101849190D01*
X118447032Y-101686675D01*
X118540000Y-101593707D01*
X118540000Y-102603936D01*
X118402271Y-102631332D01*
X118232111Y-102701814D01*
X118129465Y-102770400D01*
X106662522Y-102770400D01*
X106625199Y-102766724D01*
X106587877Y-102770400D01*
X106587867Y-102770400D01*
X106476214Y-102781397D01*
X106332953Y-102824854D01*
X106200924Y-102895426D01*
X106085199Y-102990399D01*
X106061401Y-103019397D01*
X105946053Y-103134745D01*
X105843192Y-103009408D01*
X105709564Y-102899742D01*
X105557109Y-102818253D01*
X105391685Y-102768072D01*
X105219650Y-102751128D01*
X104732150Y-102751128D01*
X104560115Y-102768072D01*
X104394691Y-102818253D01*
X104242236Y-102899742D01*
X104108608Y-103009408D01*
X104038400Y-103094956D01*
X103968192Y-103009408D01*
X103834564Y-102899742D01*
X103682109Y-102818253D01*
X103516685Y-102768072D01*
X103344650Y-102751128D01*
X102857150Y-102751128D01*
X102685115Y-102768072D01*
X102519691Y-102818253D01*
X102367236Y-102899742D01*
X102233608Y-103009408D01*
X102123942Y-103143036D01*
X102042453Y-103295491D01*
X101992272Y-103460915D01*
X101975328Y-103632950D01*
X101975328Y-104393971D01*
X101777392Y-104591906D01*
X101748389Y-104615709D01*
X101707218Y-104665877D01*
X101653416Y-104731434D01*
X101613881Y-104805399D01*
X101582844Y-104863464D01*
X101539387Y-105006725D01*
X101528390Y-105118378D01*
X101528390Y-105118388D01*
X101524714Y-105155710D01*
X101528390Y-105193033D01*
X101528391Y-108296258D01*
X101524714Y-108333590D01*
X101528391Y-108370923D01*
X101536411Y-108452345D01*
X101539388Y-108482575D01*
X101582844Y-108625836D01*
X101653416Y-108757866D01*
X101702565Y-108817753D01*
X101748390Y-108873591D01*
X101777388Y-108897389D01*
X106852201Y-113972203D01*
X106876000Y-114001202D01*
X106904998Y-114025000D01*
X106991724Y-114096175D01*
X107092047Y-114149799D01*
X107123754Y-114166747D01*
X107267015Y-114210204D01*
X107378668Y-114221201D01*
X107378678Y-114221201D01*
X107416000Y-114224877D01*
X107453323Y-114221201D01*
X117897167Y-114221201D01*
X117934500Y-114224878D01*
X117971833Y-114221201D01*
X130670001Y-114221201D01*
X130670002Y-123467865D01*
X127765465Y-126372404D01*
X127722151Y-126407951D01*
X127580316Y-126580777D01*
X127482802Y-126763215D01*
X127474924Y-126777954D01*
X127410023Y-126991902D01*
X127388109Y-127214400D01*
X127393600Y-127270151D01*
X127393600Y-127726562D01*
X127381424Y-127766701D01*
X127365001Y-127933448D01*
X127365001Y-129361928D01*
X119000000Y-129361928D01*
X118875518Y-129374188D01*
X118755820Y-129410498D01*
X118645506Y-129469463D01*
X118548815Y-129548815D01*
X118469463Y-129645506D01*
X118410498Y-129755820D01*
X118374188Y-129875518D01*
X118361928Y-130000000D01*
X118361928Y-132000000D01*
X118374188Y-132124482D01*
X118410498Y-132244180D01*
X118434990Y-132290000D01*
X116565010Y-132290000D01*
X116589502Y-132244180D01*
X116625812Y-132124482D01*
X116638072Y-132000000D01*
X116635000Y-131285750D01*
X116476250Y-131127000D01*
X112627000Y-131127000D01*
X112627000Y-131147000D01*
X112373000Y-131147000D01*
X112373000Y-131127000D01*
X106627000Y-131127000D01*
X106627000Y-131147000D01*
X106373000Y-131147000D01*
X106373000Y-131127000D01*
X102523750Y-131127000D01*
X102365000Y-131285750D01*
X102361928Y-132000000D01*
X102374188Y-132124482D01*
X102410498Y-132244180D01*
X102434990Y-132290000D01*
X100710000Y-132290000D01*
X100710000Y-130000000D01*
X102361928Y-130000000D01*
X102365000Y-130714250D01*
X102523750Y-130873000D01*
X106373000Y-130873000D01*
X106373000Y-129523750D01*
X106627000Y-129523750D01*
X106627000Y-130873000D01*
X112373000Y-130873000D01*
X112373000Y-129523750D01*
X112627000Y-129523750D01*
X112627000Y-130873000D01*
X116476250Y-130873000D01*
X116635000Y-130714250D01*
X116638072Y-130000000D01*
X116625812Y-129875518D01*
X116589502Y-129755820D01*
X116530537Y-129645506D01*
X116451185Y-129548815D01*
X116354494Y-129469463D01*
X116244180Y-129410498D01*
X116124482Y-129374188D01*
X116000000Y-129361928D01*
X112785750Y-129365000D01*
X112627000Y-129523750D01*
X112373000Y-129523750D01*
X112214250Y-129365000D01*
X110009799Y-129362893D01*
X110000000Y-129361928D01*
X109500000Y-129362406D01*
X109000000Y-129361928D01*
X108990201Y-129362893D01*
X106785750Y-129365000D01*
X106627000Y-129523750D01*
X106373000Y-129523750D01*
X106214250Y-129365000D01*
X103000000Y-129361928D01*
X102875518Y-129374188D01*
X102755820Y-129410498D01*
X102645506Y-129469463D01*
X102548815Y-129548815D01*
X102469463Y-129645506D01*
X102410498Y-129755820D01*
X102374188Y-129875518D01*
X102361928Y-130000000D01*
X100710000Y-130000000D01*
X100710000Y-100919100D01*
X110828328Y-100919100D01*
X110840588Y-101043582D01*
X110876898Y-101163280D01*
X110935863Y-101273594D01*
X111015215Y-101370285D01*
X111111906Y-101449637D01*
X111222220Y-101508602D01*
X111341918Y-101544912D01*
X111466400Y-101557172D01*
X111880650Y-101554100D01*
X112039400Y-101395350D01*
X112039400Y-100558600D01*
X110990150Y-100558600D01*
X110831400Y-100717350D01*
X110828328Y-100919100D01*
X100710000Y-100919100D01*
X100710000Y-95846000D01*
X112027928Y-95846000D01*
X112031000Y-96360250D01*
X112189750Y-96519000D01*
X113189000Y-96519000D01*
X113189000Y-95369750D01*
X113030250Y-95211000D01*
X112666000Y-95207928D01*
X112541518Y-95220188D01*
X112421820Y-95256498D01*
X112311506Y-95315463D01*
X112214815Y-95394815D01*
X112135463Y-95491506D01*
X112076498Y-95601820D01*
X112040188Y-95721518D01*
X112027928Y-95846000D01*
X100710000Y-95846000D01*
X100710000Y-76127000D01*
X113000000Y-76127000D01*
X113024776Y-76124560D01*
X113048601Y-76117333D01*
X113070557Y-76105597D01*
X113089803Y-76089803D01*
X113105597Y-76070557D01*
X113117333Y-76048601D01*
X113124560Y-76024776D01*
X113127000Y-76000000D01*
X113127000Y-74825800D01*
X114485928Y-74825800D01*
X114489000Y-75027550D01*
X114647750Y-75186300D01*
X115697000Y-75186300D01*
X115697000Y-74349550D01*
X115951000Y-74349550D01*
X115951000Y-75186300D01*
X117000250Y-75186300D01*
X117159000Y-75027550D01*
X117162072Y-74825800D01*
X117149812Y-74701318D01*
X117113502Y-74581620D01*
X117054537Y-74471306D01*
X116975185Y-74374615D01*
X116878494Y-74295263D01*
X116768180Y-74236298D01*
X116648482Y-74199988D01*
X116524000Y-74187728D01*
X116109750Y-74190800D01*
X115951000Y-74349550D01*
X115697000Y-74349550D01*
X115538250Y-74190800D01*
X115124000Y-74187728D01*
X114999518Y-74199988D01*
X114879820Y-74236298D01*
X114769506Y-74295263D01*
X114672815Y-74374615D01*
X114593463Y-74471306D01*
X114534498Y-74581620D01*
X114498188Y-74701318D01*
X114485928Y-74825800D01*
X113127000Y-74825800D01*
X113127000Y-69076800D01*
X123920928Y-69076800D01*
X123933188Y-69201282D01*
X123969498Y-69320980D01*
X124028463Y-69431294D01*
X124107815Y-69527985D01*
X124204506Y-69607337D01*
X124314820Y-69666302D01*
X124434518Y-69702612D01*
X124559000Y-69714872D01*
X124760750Y-69711800D01*
X124919500Y-69553050D01*
X124919500Y-68503800D01*
X124082750Y-68503800D01*
X123924000Y-68662550D01*
X123920928Y-69076800D01*
X113127000Y-69076800D01*
X113127000Y-67668200D01*
X116873528Y-67668200D01*
X116885788Y-67792682D01*
X116922098Y-67912380D01*
X116981063Y-68022694D01*
X117060415Y-68119385D01*
X117157106Y-68198737D01*
X117267420Y-68257702D01*
X117387118Y-68294012D01*
X117511600Y-68306272D01*
X117925850Y-68303200D01*
X118084600Y-68144450D01*
X118084600Y-67307700D01*
X118338600Y-67307700D01*
X118338600Y-68144450D01*
X118497350Y-68303200D01*
X118911600Y-68306272D01*
X119036082Y-68294012D01*
X119155780Y-68257702D01*
X119266094Y-68198737D01*
X119362785Y-68119385D01*
X119442137Y-68022694D01*
X119501102Y-67912380D01*
X119537412Y-67792682D01*
X119549672Y-67668200D01*
X119547915Y-67552800D01*
X123920928Y-67552800D01*
X123927034Y-67614800D01*
X123920928Y-67676800D01*
X123924000Y-68091050D01*
X124082750Y-68249800D01*
X124919500Y-68249800D01*
X124919500Y-66979800D01*
X124082750Y-66979800D01*
X123924000Y-67138550D01*
X123920928Y-67552800D01*
X119547915Y-67552800D01*
X119546600Y-67466450D01*
X119387850Y-67307700D01*
X118338600Y-67307700D01*
X118084600Y-67307700D01*
X117035350Y-67307700D01*
X116876600Y-67466450D01*
X116873528Y-67668200D01*
X113127000Y-67668200D01*
X113127000Y-66135000D01*
X113694249Y-66135000D01*
X113750000Y-66140491D01*
X113805751Y-66135000D01*
X113805752Y-66135000D01*
X113972499Y-66118577D01*
X114056814Y-66093000D01*
X114211302Y-66093000D01*
X114328836Y-66189458D01*
X114481291Y-66270947D01*
X114646715Y-66321128D01*
X114818750Y-66338072D01*
X115306250Y-66338072D01*
X115478285Y-66321128D01*
X115643709Y-66270947D01*
X115796164Y-66189458D01*
X115929792Y-66079792D01*
X116000000Y-65994244D01*
X116070208Y-66079792D01*
X116203836Y-66189458D01*
X116356291Y-66270947D01*
X116521715Y-66321128D01*
X116693750Y-66338072D01*
X116981583Y-66338072D01*
X116981063Y-66338706D01*
X116922098Y-66449020D01*
X116885788Y-66568718D01*
X116873528Y-66693200D01*
X116876600Y-66894950D01*
X117035350Y-67053700D01*
X118084600Y-67053700D01*
X118084600Y-67033700D01*
X118338600Y-67033700D01*
X118338600Y-67053700D01*
X119387850Y-67053700D01*
X119546600Y-66894950D01*
X119549672Y-66693200D01*
X119537412Y-66568718D01*
X119501102Y-66449020D01*
X119442137Y-66338706D01*
X119362785Y-66242015D01*
X119285036Y-66178208D01*
X119291392Y-66172992D01*
X119401058Y-66039364D01*
X119482547Y-65886909D01*
X119532728Y-65721485D01*
X119540943Y-65638072D01*
X119600000Y-65638072D01*
X119724482Y-65625812D01*
X119844180Y-65589502D01*
X119954494Y-65530537D01*
X120000000Y-65493191D01*
X120045506Y-65530537D01*
X120155820Y-65589502D01*
X120275518Y-65625812D01*
X120400000Y-65638072D01*
X120714250Y-65635000D01*
X120873000Y-65476250D01*
X120873000Y-63627000D01*
X120853000Y-63627000D01*
X120853000Y-63373000D01*
X120873000Y-63373000D01*
X120873000Y-61523750D01*
X120714250Y-61365000D01*
X120400000Y-61361928D01*
X120275518Y-61374188D01*
X120155820Y-61410498D01*
X120045506Y-61469463D01*
X120000000Y-61506809D01*
X119954494Y-61469463D01*
X119844180Y-61410498D01*
X119724482Y-61374188D01*
X119600000Y-61361928D01*
X118400000Y-61361928D01*
X118275518Y-61374188D01*
X118155820Y-61410498D01*
X118045506Y-61469463D01*
X117948815Y-61548815D01*
X117869463Y-61645506D01*
X117810498Y-61755820D01*
X117774188Y-61875518D01*
X117761928Y-62000000D01*
X117761928Y-63132940D01*
X117448457Y-63446411D01*
X117405152Y-63481951D01*
X117369612Y-63525257D01*
X117228306Y-63666563D01*
X117181250Y-63661928D01*
X116693750Y-63661928D01*
X116521715Y-63678872D01*
X116356291Y-63729053D01*
X116203836Y-63810542D01*
X116070208Y-63920208D01*
X116000000Y-64005756D01*
X115929792Y-63920208D01*
X115796164Y-63810542D01*
X115643709Y-63729053D01*
X115478285Y-63678872D01*
X115306250Y-63661928D01*
X115119836Y-63661928D01*
X115130072Y-63558000D01*
X115127000Y-63356250D01*
X114968250Y-63197500D01*
X113919000Y-63197500D01*
X113919000Y-63217500D01*
X113665000Y-63217500D01*
X113665000Y-63197500D01*
X113645000Y-63197500D01*
X113645000Y-62943500D01*
X113665000Y-62943500D01*
X113665000Y-62106750D01*
X113919000Y-62106750D01*
X113919000Y-62943500D01*
X114968250Y-62943500D01*
X115127000Y-62784750D01*
X115130072Y-62583000D01*
X115117812Y-62458518D01*
X115081502Y-62338820D01*
X115022537Y-62228506D01*
X114943185Y-62131815D01*
X114846494Y-62052463D01*
X114736180Y-61993498D01*
X114616482Y-61957188D01*
X114492000Y-61944928D01*
X114077750Y-61948000D01*
X113919000Y-62106750D01*
X113665000Y-62106750D01*
X113506250Y-61948000D01*
X113127000Y-61945188D01*
X113127000Y-50000000D01*
X117761928Y-50000000D01*
X117774188Y-50124482D01*
X117810498Y-50244180D01*
X117869463Y-50354494D01*
X117948815Y-50451185D01*
X118045506Y-50530537D01*
X118155820Y-50589502D01*
X118275518Y-50625812D01*
X118400000Y-50638072D01*
X118714250Y-50635000D01*
X118873000Y-50476250D01*
X118873000Y-48627000D01*
X117923750Y-48627000D01*
X117765000Y-48785750D01*
X117761928Y-50000000D01*
X113127000Y-50000000D01*
X113127000Y-46710000D01*
X117834990Y-46710000D01*
X117810498Y-46755820D01*
G37*
X117810498Y-46755820D02*
X117774188Y-46875518D01*
X117761928Y-47000000D01*
X117765000Y-48214250D01*
X117923750Y-48373000D01*
X118873000Y-48373000D01*
X118873000Y-48353000D01*
X119127000Y-48353000D01*
X119127000Y-48373000D01*
X119147000Y-48373000D01*
X119147000Y-48627000D01*
X119127000Y-48627000D01*
X119127000Y-50476250D01*
X119285750Y-50635000D01*
X119600000Y-50638072D01*
X119724482Y-50625812D01*
X119844180Y-50589502D01*
X119954494Y-50530537D01*
X120000000Y-50493191D01*
X120045506Y-50530537D01*
X120155820Y-50589502D01*
X120275518Y-50625812D01*
X120400000Y-50638072D01*
X121600000Y-50638072D01*
X121724482Y-50625812D01*
X121844180Y-50589502D01*
X121954494Y-50530537D01*
X122000000Y-50493191D01*
X122045506Y-50530537D01*
X122155820Y-50589502D01*
X122176001Y-50595624D01*
X122176001Y-50610063D01*
X122107414Y-50712711D01*
X122036932Y-50882871D01*
X122001000Y-51063511D01*
X122001000Y-51247689D01*
X122036932Y-51428329D01*
X122107414Y-51598489D01*
X122209738Y-51751628D01*
X122324910Y-51866800D01*
X122311338Y-51880372D01*
X122209014Y-52033511D01*
X122138532Y-52203671D01*
X122102600Y-52384311D01*
X122102600Y-52568489D01*
X122138532Y-52749129D01*
X122209014Y-52919289D01*
X122311338Y-53072428D01*
X122441572Y-53202662D01*
X122594711Y-53304986D01*
X122764871Y-53375468D01*
X122945511Y-53411400D01*
X123129689Y-53411400D01*
X123310329Y-53375468D01*
X123480489Y-53304986D01*
X123633628Y-53202662D01*
X123763862Y-53072428D01*
X123866186Y-52919289D01*
X123936668Y-52749129D01*
X123960753Y-52628048D01*
X125511004Y-51077798D01*
X125540001Y-51054001D01*
X125634974Y-50938276D01*
X125705546Y-50806247D01*
X125749003Y-50662986D01*
X125753532Y-50617000D01*
X125844180Y-50589502D01*
X125954494Y-50530537D01*
X126000000Y-50493191D01*
X126045506Y-50530537D01*
X126155820Y-50589502D01*
X126240001Y-50615038D01*
X126240001Y-52303394D01*
X122146238Y-56397159D01*
X122127271Y-56400932D01*
X121957111Y-56471414D01*
X121803972Y-56573738D01*
X121673738Y-56703972D01*
X121571414Y-56857111D01*
X121500932Y-57027271D01*
X121465000Y-57207911D01*
X121465000Y-57392089D01*
X121500932Y-57572729D01*
X121571414Y-57742889D01*
X121673738Y-57896028D01*
X121803972Y-58026262D01*
X121957111Y-58128586D01*
X122127271Y-58199068D01*
X122307911Y-58235000D01*
X122492089Y-58235000D01*
X122633035Y-58206964D01*
X121674999Y-59165000D01*
X121607911Y-59165000D01*
X121427271Y-59200932D01*
X121257111Y-59271414D01*
X121103972Y-59373738D01*
X120973738Y-59503972D01*
X120871414Y-59657111D01*
X120800932Y-59827271D01*
X120765000Y-60007911D01*
X120765000Y-60192089D01*
X120800932Y-60372729D01*
X120871414Y-60542889D01*
X120973738Y-60696028D01*
X121103972Y-60826262D01*
X121257111Y-60928586D01*
X121427271Y-60999068D01*
X121607911Y-61035000D01*
X121792089Y-61035000D01*
X121972729Y-60999068D01*
X122142889Y-60928586D01*
X122296028Y-60826262D01*
X122426262Y-60696028D01*
X122528586Y-60542889D01*
X122586479Y-60403122D01*
X128110552Y-54879050D01*
X128186276Y-54838574D01*
X128302001Y-54743601D01*
X128325804Y-54714597D01*
X131511003Y-51529399D01*
X131540001Y-51505601D01*
X131634974Y-51389876D01*
X131705546Y-51257847D01*
X131749003Y-51114586D01*
X131760000Y-51002933D01*
X131763677Y-50965600D01*
X131760000Y-50928267D01*
X131760000Y-50615038D01*
X131844180Y-50589502D01*
X131954494Y-50530537D01*
X132000000Y-50493191D01*
X132045506Y-50530537D01*
X132155820Y-50589502D01*
X132275518Y-50625812D01*
X132400000Y-50638072D01*
X132714250Y-50635000D01*
X132873000Y-50476250D01*
X132873000Y-48627000D01*
X133127000Y-48627000D01*
X133127000Y-50476250D01*
X133285750Y-50635000D01*
X133600000Y-50638072D01*
X133724482Y-50625812D01*
X133844180Y-50589502D01*
X133954494Y-50530537D01*
X134051185Y-50451185D01*
X134130537Y-50354494D01*
X134189502Y-50244180D01*
X134225812Y-50124482D01*
X134238072Y-50000000D01*
X134235000Y-48785750D01*
X134076250Y-48627000D01*
X133127000Y-48627000D01*
X132873000Y-48627000D01*
X132853000Y-48627000D01*
X132853000Y-48373000D01*
X132873000Y-48373000D01*
X132873000Y-48353000D01*
X133127000Y-48353000D01*
X133127000Y-48373000D01*
X134076250Y-48373000D01*
X134235000Y-48214250D01*
X134238072Y-47000000D01*
X134225812Y-46875518D01*
X134189502Y-46755820D01*
X134165010Y-46710000D01*
X134290001Y-46710000D01*
X134290001Y-83610792D01*
X134200000Y-83601928D01*
X133635750Y-83605000D01*
X133477000Y-83763750D01*
X133477000Y-84963000D01*
X133497000Y-84963000D01*
X133497000Y-85217000D01*
X133477000Y-85217000D01*
X133477000Y-85237000D01*
X133223000Y-85237000D01*
X133223000Y-85217000D01*
X133203000Y-85217000D01*
X133203000Y-84963000D01*
X133223000Y-84963000D01*
X133223000Y-83763750D01*
X133064250Y-83605000D01*
X132934999Y-83604296D01*
X132934999Y-73020649D01*
X132918576Y-72853902D01*
X132853675Y-72639954D01*
X132748283Y-72442778D01*
X132606448Y-72269952D01*
X132433622Y-72128117D01*
X132236446Y-72022725D01*
X132022498Y-71957824D01*
X131799999Y-71935910D01*
X131577501Y-71957824D01*
X131363553Y-72022725D01*
X131166377Y-72128117D01*
X130993551Y-72269952D01*
X130858800Y-72434146D01*
X130858800Y-69148801D01*
X133511008Y-66496595D01*
X133540001Y-66472801D01*
X133563795Y-66443808D01*
X133563799Y-66443804D01*
X133634973Y-66357077D01*
X133644793Y-66338706D01*
X133705546Y-66225047D01*
X133749003Y-66081786D01*
X133760000Y-65970133D01*
X133760000Y-65970124D01*
X133763676Y-65932801D01*
X133760000Y-65895478D01*
X133760000Y-65615038D01*
X133844180Y-65589502D01*
X133954494Y-65530537D01*
X134051185Y-65451185D01*
X134130537Y-65354494D01*
X134189502Y-65244180D01*
X134225812Y-65124482D01*
X134238072Y-65000000D01*
X134238072Y-62000000D01*
X134225812Y-61875518D01*
X134189502Y-61755820D01*
X134130537Y-61645506D01*
X134051185Y-61548815D01*
X133954494Y-61469463D01*
X133844180Y-61410498D01*
X133724482Y-61374188D01*
X133600000Y-61361928D01*
X132400000Y-61361928D01*
X132275518Y-61374188D01*
X132155820Y-61410498D01*
X132045506Y-61469463D01*
X132000000Y-61506809D01*
X131954494Y-61469463D01*
X131844180Y-61410498D01*
X131724482Y-61374188D01*
X131600000Y-61361928D01*
X130400000Y-61361928D01*
X130275518Y-61374188D01*
X130155820Y-61410498D01*
X130045506Y-61469463D01*
X130000000Y-61506809D01*
X129954494Y-61469463D01*
X129844180Y-61410498D01*
X129724482Y-61374188D01*
X129600000Y-61361928D01*
X128400000Y-61361928D01*
X128275518Y-61374188D01*
X128155820Y-61410498D01*
X128045506Y-61469463D01*
X128000000Y-61506809D01*
X127954494Y-61469463D01*
X127844180Y-61410498D01*
X127724482Y-61374188D01*
X127600000Y-61361928D01*
X126400000Y-61361928D01*
X126275518Y-61374188D01*
X126155820Y-61410498D01*
X126045506Y-61469463D01*
X126000000Y-61506809D01*
X125954494Y-61469463D01*
X125844180Y-61410498D01*
X125724482Y-61374188D01*
X125600000Y-61361928D01*
X124400000Y-61361928D01*
X124275518Y-61374188D01*
X124155820Y-61410498D01*
X124045506Y-61469463D01*
X124000000Y-61506809D01*
X123954494Y-61469463D01*
X123844180Y-61410498D01*
X123724482Y-61374188D01*
X123600000Y-61361928D01*
X122400000Y-61361928D01*
X122275518Y-61374188D01*
X122155820Y-61410498D01*
X122045506Y-61469463D01*
X122000000Y-61506809D01*
X121954494Y-61469463D01*
X121844180Y-61410498D01*
X121724482Y-61374188D01*
X121600000Y-61361928D01*
X121285750Y-61365000D01*
X121127000Y-61523750D01*
X121127000Y-63373000D01*
X121147000Y-63373000D01*
X121147000Y-63627000D01*
X121127000Y-63627000D01*
X121127000Y-65476250D01*
X121285750Y-65635000D01*
X121600000Y-65638072D01*
X121724482Y-65625812D01*
X121844180Y-65589502D01*
X121954494Y-65530537D01*
X122000000Y-65493191D01*
X122045506Y-65530537D01*
X122155820Y-65589502D01*
X122275518Y-65625812D01*
X122400000Y-65638072D01*
X123600000Y-65638072D01*
X123724482Y-65625812D01*
X123844180Y-65589502D01*
X123954494Y-65530537D01*
X124000000Y-65493191D01*
X124045506Y-65530537D01*
X124155820Y-65589502D01*
X124225980Y-65610785D01*
X124204506Y-65622263D01*
X124107815Y-65701615D01*
X124028463Y-65798306D01*
X123969498Y-65908620D01*
X123933188Y-66028318D01*
X123920928Y-66152800D01*
X123924000Y-66567050D01*
X124082750Y-66725800D01*
X124919500Y-66725800D01*
X124919500Y-66705800D01*
X125173500Y-66705800D01*
X125173500Y-66725800D01*
X125193500Y-66725800D01*
X125193500Y-66979800D01*
X125173500Y-66979800D01*
X125173500Y-68249800D01*
X125193500Y-68249800D01*
X125193500Y-68503800D01*
X125173500Y-68503800D01*
X125173500Y-69553050D01*
X125332250Y-69711800D01*
X125534000Y-69714872D01*
X125658482Y-69702612D01*
X125778180Y-69666302D01*
X125888494Y-69607337D01*
X125985185Y-69527985D01*
X126048992Y-69450236D01*
X126054208Y-69456592D01*
X126161500Y-69544645D01*
X126161501Y-72153697D01*
X121650198Y-76665001D01*
X117112514Y-76665001D01*
X117094947Y-76607091D01*
X117013458Y-76454636D01*
X116903792Y-76321008D01*
X116897436Y-76315792D01*
X116975185Y-76251985D01*
X117054537Y-76155294D01*
X117113502Y-76044980D01*
X117149812Y-75925282D01*
X117162072Y-75800800D01*
X117159000Y-75599050D01*
X117000250Y-75440300D01*
X115951000Y-75440300D01*
X115951000Y-75460300D01*
X115697000Y-75460300D01*
X115697000Y-75440300D01*
X114647750Y-75440300D01*
X114489000Y-75599050D01*
X114485928Y-75800800D01*
X114498188Y-75925282D01*
X114534498Y-76044980D01*
X114593463Y-76155294D01*
X114672815Y-76251985D01*
X114750564Y-76315792D01*
X114744208Y-76321008D01*
X114656155Y-76428300D01*
X112434622Y-76428300D01*
X112397299Y-76424624D01*
X112359976Y-76428300D01*
X112359967Y-76428300D01*
X112248314Y-76439297D01*
X112105053Y-76482754D01*
X111973024Y-76553326D01*
X111857299Y-76648299D01*
X111833501Y-76677298D01*
X111198202Y-77312597D01*
X111169199Y-77336399D01*
X111114071Y-77403574D01*
X111074226Y-77452124D01*
X111026162Y-77542045D01*
X111003654Y-77584154D01*
X110960197Y-77727415D01*
X110949200Y-77839068D01*
X110949200Y-77839078D01*
X110945524Y-77876400D01*
X110949200Y-77913723D01*
X110949201Y-80271868D01*
X110945524Y-80309200D01*
X110949201Y-80346533D01*
X110960198Y-80458186D01*
X110967018Y-80480668D01*
X111003654Y-80601446D01*
X111074226Y-80733476D01*
X111121213Y-80790729D01*
X111169200Y-80849201D01*
X111198198Y-80872999D01*
X111398924Y-81073726D01*
X111398815Y-81073815D01*
X111319463Y-81170506D01*
X111260498Y-81280820D01*
X111224188Y-81400518D01*
X111211928Y-81525000D01*
X111211928Y-81613270D01*
X110741000Y-82084199D01*
X110711997Y-82108001D01*
X110663376Y-82167246D01*
X110617024Y-82223726D01*
X110549806Y-82349482D01*
X110546452Y-82355756D01*
X110502995Y-82499017D01*
X110491998Y-82610670D01*
X110491998Y-82610680D01*
X110488322Y-82648002D01*
X110491998Y-82685325D01*
X110491999Y-88190800D01*
X104713672Y-88190800D01*
X104713672Y-88100800D01*
X104701412Y-87976318D01*
X104665102Y-87856620D01*
X104606137Y-87746306D01*
X104552378Y-87680800D01*
X104606137Y-87615294D01*
X104665102Y-87504980D01*
X104701412Y-87385282D01*
X104713672Y-87260800D01*
X104713672Y-85560800D01*
X104701412Y-85436318D01*
X104665102Y-85316620D01*
X104606137Y-85206306D01*
X104526785Y-85109615D01*
X104430094Y-85030263D01*
X104319780Y-84971298D01*
X104200082Y-84934988D01*
X104075600Y-84922728D01*
X102375600Y-84922728D01*
X102251118Y-84934988D01*
X102131420Y-84971298D01*
X102021106Y-85030263D01*
X101924415Y-85109615D01*
X101845063Y-85206306D01*
X101786098Y-85316620D01*
X101749788Y-85436318D01*
X101737528Y-85560800D01*
X101737528Y-87260800D01*
X101749788Y-87385282D01*
X101786098Y-87504980D01*
X101845063Y-87615294D01*
X101898822Y-87680800D01*
X101845063Y-87746306D01*
X101786098Y-87856620D01*
X101749788Y-87976318D01*
X101737528Y-88100800D01*
X101737528Y-89800800D01*
X101749788Y-89925282D01*
X101786098Y-90044980D01*
X101845063Y-90155294D01*
X101898822Y-90220800D01*
X101845063Y-90286306D01*
X101786098Y-90396620D01*
X101749788Y-90516318D01*
X101737528Y-90640800D01*
X101737528Y-92340800D01*
X101749788Y-92465282D01*
X101786098Y-92584980D01*
X101845063Y-92695294D01*
X101898822Y-92760800D01*
X101845063Y-92826306D01*
X101786098Y-92936620D01*
X101749788Y-93056318D01*
X101737528Y-93180800D01*
X101737528Y-94880800D01*
X101749788Y-95005282D01*
X101786098Y-95124980D01*
X101845063Y-95235294D01*
X101924415Y-95331985D01*
X102021106Y-95411337D01*
X102131420Y-95470302D01*
X102251118Y-95506612D01*
X102375600Y-95518872D01*
X104075600Y-95518872D01*
X104200082Y-95506612D01*
X104319780Y-95470302D01*
X104430094Y-95411337D01*
X104526785Y-95331985D01*
X104606137Y-95235294D01*
X104665102Y-95124980D01*
X104701412Y-95005282D01*
X104713672Y-94880800D01*
X104713672Y-93180800D01*
X104701412Y-93056318D01*
X104665102Y-92936620D01*
X104624361Y-92860400D01*
X109081078Y-92860400D01*
X109118400Y-92864076D01*
X109155722Y-92860400D01*
X109155733Y-92860400D01*
X109267386Y-92849403D01*
X109410647Y-92805946D01*
X109542676Y-92735374D01*
X109658401Y-92640401D01*
X109682204Y-92611397D01*
X111601159Y-90692443D01*
X111602700Y-90900250D01*
X111761450Y-91059000D01*
X112598200Y-91059000D01*
X112598200Y-91039000D01*
X112852200Y-91039000D01*
X112852200Y-91059000D01*
X112872200Y-91059000D01*
X112872200Y-91313000D01*
X112852200Y-91313000D01*
X112852200Y-91333000D01*
X112598200Y-91333000D01*
X112598200Y-91313000D01*
X111761450Y-91313000D01*
X111602700Y-91471750D01*
X111599628Y-91886000D01*
X111611888Y-92010482D01*
X111648198Y-92130180D01*
X111707163Y-92240494D01*
X111786515Y-92337185D01*
X111883206Y-92416537D01*
X111993520Y-92475502D01*
X112033672Y-92487682D01*
X112027928Y-92546000D01*
X112027928Y-94146000D01*
X112040188Y-94270482D01*
X112076498Y-94390180D01*
X112135463Y-94500494D01*
X112214815Y-94597185D01*
X112311506Y-94676537D01*
X112421820Y-94735502D01*
X112541518Y-94771812D01*
X112666000Y-94784072D01*
X113679270Y-94784072D01*
X114126230Y-95231032D01*
X114090482Y-95220188D01*
X113966000Y-95207928D01*
X113601750Y-95211000D01*
X113443000Y-95369750D01*
X113443000Y-96519000D01*
X113463000Y-96519000D01*
X113463000Y-96773000D01*
X113443000Y-96773000D01*
X113443000Y-96793000D01*
X113189000Y-96793000D01*
X113189000Y-96773000D01*
X112189750Y-96773000D01*
X112031000Y-96931750D01*
X112028017Y-97431028D01*
X111710150Y-97431028D01*
X111538115Y-97447972D01*
X111372691Y-97498153D01*
X111220236Y-97579642D01*
X111086608Y-97689308D01*
X110976942Y-97822936D01*
X110895453Y-97975391D01*
X110845272Y-98140815D01*
X110828328Y-98312850D01*
X110828328Y-98800350D01*
X110845272Y-98972385D01*
X110895453Y-99137809D01*
X110976942Y-99290264D01*
X111086608Y-99423892D01*
X111092964Y-99429108D01*
X111015215Y-99492915D01*
X110935863Y-99589606D01*
X110876898Y-99699920D01*
X110840588Y-99819618D01*
X110828328Y-99944100D01*
X110831400Y-100145850D01*
X110990150Y-100304600D01*
X112039400Y-100304600D01*
X112039400Y-100284600D01*
X112293400Y-100284600D01*
X112293400Y-100304600D01*
X112313400Y-100304600D01*
X112313400Y-100558600D01*
X112293400Y-100558600D01*
X112293400Y-101395350D01*
X112452150Y-101554100D01*
X112866400Y-101557172D01*
X112990882Y-101544912D01*
X113110580Y-101508602D01*
X113220894Y-101449637D01*
X113317585Y-101370285D01*
X113396937Y-101273594D01*
X113455902Y-101163280D01*
X113472328Y-101109131D01*
X113472328Y-101383200D01*
X113484588Y-101507682D01*
X113520898Y-101627380D01*
X113579863Y-101737694D01*
X113659215Y-101834385D01*
X113755906Y-101913737D01*
X113866220Y-101972702D01*
X113985918Y-102009012D01*
X114110400Y-102021272D01*
X115810400Y-102021272D01*
X115934882Y-102009012D01*
X116054580Y-101972702D01*
X116164894Y-101913737D01*
X116261585Y-101834385D01*
X116340937Y-101737694D01*
X116399902Y-101627380D01*
X116421913Y-101554820D01*
X116553768Y-101686675D01*
X116796989Y-101849190D01*
X117067242Y-101961132D01*
X117354140Y-102018200D01*
X117646660Y-102018200D01*
X117933558Y-101961132D01*
X118203811Y-101849190D01*
X118447032Y-101686675D01*
X118540000Y-101593707D01*
X118540000Y-102603936D01*
X118402271Y-102631332D01*
X118232111Y-102701814D01*
X118129465Y-102770400D01*
X106662522Y-102770400D01*
X106625199Y-102766724D01*
X106587877Y-102770400D01*
X106587867Y-102770400D01*
X106476214Y-102781397D01*
X106332953Y-102824854D01*
X106200924Y-102895426D01*
X106085199Y-102990399D01*
X106061401Y-103019397D01*
X105946053Y-103134745D01*
X105843192Y-103009408D01*
X105709564Y-102899742D01*
X105557109Y-102818253D01*
X105391685Y-102768072D01*
X105219650Y-102751128D01*
X104732150Y-102751128D01*
X104560115Y-102768072D01*
X104394691Y-102818253D01*
X104242236Y-102899742D01*
X104108608Y-103009408D01*
X104038400Y-103094956D01*
X103968192Y-103009408D01*
X103834564Y-102899742D01*
X103682109Y-102818253D01*
X103516685Y-102768072D01*
X103344650Y-102751128D01*
X102857150Y-102751128D01*
X102685115Y-102768072D01*
X102519691Y-102818253D01*
X102367236Y-102899742D01*
X102233608Y-103009408D01*
X102123942Y-103143036D01*
X102042453Y-103295491D01*
X101992272Y-103460915D01*
X101975328Y-103632950D01*
X101975328Y-104393971D01*
X101777392Y-104591906D01*
X101748389Y-104615709D01*
X101707218Y-104665877D01*
X101653416Y-104731434D01*
X101613881Y-104805399D01*
X101582844Y-104863464D01*
X101539387Y-105006725D01*
X101528390Y-105118378D01*
X101528390Y-105118388D01*
X101524714Y-105155710D01*
X101528390Y-105193033D01*
X101528391Y-108296258D01*
X101524714Y-108333590D01*
X101528391Y-108370923D01*
X101536411Y-108452345D01*
X101539388Y-108482575D01*
X101582844Y-108625836D01*
X101653416Y-108757866D01*
X101702565Y-108817753D01*
X101748390Y-108873591D01*
X101777388Y-108897389D01*
X106852201Y-113972203D01*
X106876000Y-114001202D01*
X106904998Y-114025000D01*
X106991724Y-114096175D01*
X107092047Y-114149799D01*
X107123754Y-114166747D01*
X107267015Y-114210204D01*
X107378668Y-114221201D01*
X107378678Y-114221201D01*
X107416000Y-114224877D01*
X107453323Y-114221201D01*
X117897167Y-114221201D01*
X117934500Y-114224878D01*
X117971833Y-114221201D01*
X130670001Y-114221201D01*
X130670002Y-123467865D01*
X127765465Y-126372404D01*
X127722151Y-126407951D01*
X127580316Y-126580777D01*
X127482802Y-126763215D01*
X127474924Y-126777954D01*
X127410023Y-126991902D01*
X127388109Y-127214400D01*
X127393600Y-127270151D01*
X127393600Y-127726562D01*
X127381424Y-127766701D01*
X127365001Y-127933448D01*
X127365001Y-129361928D01*
X119000000Y-129361928D01*
X118875518Y-129374188D01*
X118755820Y-129410498D01*
X118645506Y-129469463D01*
X118548815Y-129548815D01*
X118469463Y-129645506D01*
X118410498Y-129755820D01*
X118374188Y-129875518D01*
X118361928Y-130000000D01*
X118361928Y-132000000D01*
X118374188Y-132124482D01*
X118410498Y-132244180D01*
X118434990Y-132290000D01*
X116565010Y-132290000D01*
X116589502Y-132244180D01*
X116625812Y-132124482D01*
X116638072Y-132000000D01*
X116635000Y-131285750D01*
X116476250Y-131127000D01*
X112627000Y-131127000D01*
X112627000Y-131147000D01*
X112373000Y-131147000D01*
X112373000Y-131127000D01*
X106627000Y-131127000D01*
X106627000Y-131147000D01*
X106373000Y-131147000D01*
X106373000Y-131127000D01*
X102523750Y-131127000D01*
X102365000Y-131285750D01*
X102361928Y-132000000D01*
X102374188Y-132124482D01*
X102410498Y-132244180D01*
X102434990Y-132290000D01*
X100710000Y-132290000D01*
X100710000Y-130000000D01*
X102361928Y-130000000D01*
X102365000Y-130714250D01*
X102523750Y-130873000D01*
X106373000Y-130873000D01*
X106373000Y-129523750D01*
X106627000Y-129523750D01*
X106627000Y-130873000D01*
X112373000Y-130873000D01*
X112373000Y-129523750D01*
X112627000Y-129523750D01*
X112627000Y-130873000D01*
X116476250Y-130873000D01*
X116635000Y-130714250D01*
X116638072Y-130000000D01*
X116625812Y-129875518D01*
X116589502Y-129755820D01*
X116530537Y-129645506D01*
X116451185Y-129548815D01*
X116354494Y-129469463D01*
X116244180Y-129410498D01*
X116124482Y-129374188D01*
X116000000Y-129361928D01*
X112785750Y-129365000D01*
X112627000Y-129523750D01*
X112373000Y-129523750D01*
X112214250Y-129365000D01*
X110009799Y-129362893D01*
X110000000Y-129361928D01*
X109500000Y-129362406D01*
X109000000Y-129361928D01*
X108990201Y-129362893D01*
X106785750Y-129365000D01*
X106627000Y-129523750D01*
X106373000Y-129523750D01*
X106214250Y-129365000D01*
X103000000Y-129361928D01*
X102875518Y-129374188D01*
X102755820Y-129410498D01*
X102645506Y-129469463D01*
X102548815Y-129548815D01*
X102469463Y-129645506D01*
X102410498Y-129755820D01*
X102374188Y-129875518D01*
X102361928Y-130000000D01*
X100710000Y-130000000D01*
X100710000Y-100919100D01*
X110828328Y-100919100D01*
X110840588Y-101043582D01*
X110876898Y-101163280D01*
X110935863Y-101273594D01*
X111015215Y-101370285D01*
X111111906Y-101449637D01*
X111222220Y-101508602D01*
X111341918Y-101544912D01*
X111466400Y-101557172D01*
X111880650Y-101554100D01*
X112039400Y-101395350D01*
X112039400Y-100558600D01*
X110990150Y-100558600D01*
X110831400Y-100717350D01*
X110828328Y-100919100D01*
X100710000Y-100919100D01*
X100710000Y-95846000D01*
X112027928Y-95846000D01*
X112031000Y-96360250D01*
X112189750Y-96519000D01*
X113189000Y-96519000D01*
X113189000Y-95369750D01*
X113030250Y-95211000D01*
X112666000Y-95207928D01*
X112541518Y-95220188D01*
X112421820Y-95256498D01*
X112311506Y-95315463D01*
X112214815Y-95394815D01*
X112135463Y-95491506D01*
X112076498Y-95601820D01*
X112040188Y-95721518D01*
X112027928Y-95846000D01*
X100710000Y-95846000D01*
X100710000Y-76127000D01*
X113000000Y-76127000D01*
X113024776Y-76124560D01*
X113048601Y-76117333D01*
X113070557Y-76105597D01*
X113089803Y-76089803D01*
X113105597Y-76070557D01*
X113117333Y-76048601D01*
X113124560Y-76024776D01*
X113127000Y-76000000D01*
X113127000Y-74825800D01*
X114485928Y-74825800D01*
X114489000Y-75027550D01*
X114647750Y-75186300D01*
X115697000Y-75186300D01*
X115697000Y-74349550D01*
X115951000Y-74349550D01*
X115951000Y-75186300D01*
X117000250Y-75186300D01*
X117159000Y-75027550D01*
X117162072Y-74825800D01*
X117149812Y-74701318D01*
X117113502Y-74581620D01*
X117054537Y-74471306D01*
X116975185Y-74374615D01*
X116878494Y-74295263D01*
X116768180Y-74236298D01*
X116648482Y-74199988D01*
X116524000Y-74187728D01*
X116109750Y-74190800D01*
X115951000Y-74349550D01*
X115697000Y-74349550D01*
X115538250Y-74190800D01*
X115124000Y-74187728D01*
X114999518Y-74199988D01*
X114879820Y-74236298D01*
X114769506Y-74295263D01*
X114672815Y-74374615D01*
X114593463Y-74471306D01*
X114534498Y-74581620D01*
X114498188Y-74701318D01*
X114485928Y-74825800D01*
X113127000Y-74825800D01*
X113127000Y-69076800D01*
X123920928Y-69076800D01*
X123933188Y-69201282D01*
X123969498Y-69320980D01*
X124028463Y-69431294D01*
X124107815Y-69527985D01*
X124204506Y-69607337D01*
X124314820Y-69666302D01*
X124434518Y-69702612D01*
X124559000Y-69714872D01*
X124760750Y-69711800D01*
X124919500Y-69553050D01*
X124919500Y-68503800D01*
X124082750Y-68503800D01*
X123924000Y-68662550D01*
X123920928Y-69076800D01*
X113127000Y-69076800D01*
X113127000Y-67668200D01*
X116873528Y-67668200D01*
X116885788Y-67792682D01*
X116922098Y-67912380D01*
X116981063Y-68022694D01*
X117060415Y-68119385D01*
X117157106Y-68198737D01*
X117267420Y-68257702D01*
X117387118Y-68294012D01*
X117511600Y-68306272D01*
X117925850Y-68303200D01*
X118084600Y-68144450D01*
X118084600Y-67307700D01*
X118338600Y-67307700D01*
X118338600Y-68144450D01*
X118497350Y-68303200D01*
X118911600Y-68306272D01*
X119036082Y-68294012D01*
X119155780Y-68257702D01*
X119266094Y-68198737D01*
X119362785Y-68119385D01*
X119442137Y-68022694D01*
X119501102Y-67912380D01*
X119537412Y-67792682D01*
X119549672Y-67668200D01*
X119547915Y-67552800D01*
X123920928Y-67552800D01*
X123927034Y-67614800D01*
X123920928Y-67676800D01*
X123924000Y-68091050D01*
X124082750Y-68249800D01*
X124919500Y-68249800D01*
X124919500Y-66979800D01*
X124082750Y-66979800D01*
X123924000Y-67138550D01*
X123920928Y-67552800D01*
X119547915Y-67552800D01*
X119546600Y-67466450D01*
X119387850Y-67307700D01*
X118338600Y-67307700D01*
X118084600Y-67307700D01*
X117035350Y-67307700D01*
X116876600Y-67466450D01*
X116873528Y-67668200D01*
X113127000Y-67668200D01*
X113127000Y-66135000D01*
X113694249Y-66135000D01*
X113750000Y-66140491D01*
X113805751Y-66135000D01*
X113805752Y-66135000D01*
X113972499Y-66118577D01*
X114056814Y-66093000D01*
X114211302Y-66093000D01*
X114328836Y-66189458D01*
X114481291Y-66270947D01*
X114646715Y-66321128D01*
X114818750Y-66338072D01*
X115306250Y-66338072D01*
X115478285Y-66321128D01*
X115643709Y-66270947D01*
X115796164Y-66189458D01*
X115929792Y-66079792D01*
X116000000Y-65994244D01*
X116070208Y-66079792D01*
X116203836Y-66189458D01*
X116356291Y-66270947D01*
X116521715Y-66321128D01*
X116693750Y-66338072D01*
X116981583Y-66338072D01*
X116981063Y-66338706D01*
X116922098Y-66449020D01*
X116885788Y-66568718D01*
X116873528Y-66693200D01*
X116876600Y-66894950D01*
X117035350Y-67053700D01*
X118084600Y-67053700D01*
X118084600Y-67033700D01*
X118338600Y-67033700D01*
X118338600Y-67053700D01*
X119387850Y-67053700D01*
X119546600Y-66894950D01*
X119549672Y-66693200D01*
X119537412Y-66568718D01*
X119501102Y-66449020D01*
X119442137Y-66338706D01*
X119362785Y-66242015D01*
X119285036Y-66178208D01*
X119291392Y-66172992D01*
X119401058Y-66039364D01*
X119482547Y-65886909D01*
X119532728Y-65721485D01*
X119540943Y-65638072D01*
X119600000Y-65638072D01*
X119724482Y-65625812D01*
X119844180Y-65589502D01*
X119954494Y-65530537D01*
X120000000Y-65493191D01*
X120045506Y-65530537D01*
X120155820Y-65589502D01*
X120275518Y-65625812D01*
X120400000Y-65638072D01*
X120714250Y-65635000D01*
X120873000Y-65476250D01*
X120873000Y-63627000D01*
X120853000Y-63627000D01*
X120853000Y-63373000D01*
X120873000Y-63373000D01*
X120873000Y-61523750D01*
X120714250Y-61365000D01*
X120400000Y-61361928D01*
X120275518Y-61374188D01*
X120155820Y-61410498D01*
X120045506Y-61469463D01*
X120000000Y-61506809D01*
X119954494Y-61469463D01*
X119844180Y-61410498D01*
X119724482Y-61374188D01*
X119600000Y-61361928D01*
X118400000Y-61361928D01*
X118275518Y-61374188D01*
X118155820Y-61410498D01*
X118045506Y-61469463D01*
X117948815Y-61548815D01*
X117869463Y-61645506D01*
X117810498Y-61755820D01*
X117774188Y-61875518D01*
X117761928Y-62000000D01*
X117761928Y-63132940D01*
X117448457Y-63446411D01*
X117405152Y-63481951D01*
X117369612Y-63525257D01*
X117228306Y-63666563D01*
X117181250Y-63661928D01*
X116693750Y-63661928D01*
X116521715Y-63678872D01*
X116356291Y-63729053D01*
X116203836Y-63810542D01*
X116070208Y-63920208D01*
X116000000Y-64005756D01*
X115929792Y-63920208D01*
X115796164Y-63810542D01*
X115643709Y-63729053D01*
X115478285Y-63678872D01*
X115306250Y-63661928D01*
X115119836Y-63661928D01*
X115130072Y-63558000D01*
X115127000Y-63356250D01*
X114968250Y-63197500D01*
X113919000Y-63197500D01*
X113919000Y-63217500D01*
X113665000Y-63217500D01*
X113665000Y-63197500D01*
X113645000Y-63197500D01*
X113645000Y-62943500D01*
X113665000Y-62943500D01*
X113665000Y-62106750D01*
X113919000Y-62106750D01*
X113919000Y-62943500D01*
X114968250Y-62943500D01*
X115127000Y-62784750D01*
X115130072Y-62583000D01*
X115117812Y-62458518D01*
X115081502Y-62338820D01*
X115022537Y-62228506D01*
X114943185Y-62131815D01*
X114846494Y-62052463D01*
X114736180Y-61993498D01*
X114616482Y-61957188D01*
X114492000Y-61944928D01*
X114077750Y-61948000D01*
X113919000Y-62106750D01*
X113665000Y-62106750D01*
X113506250Y-61948000D01*
X113127000Y-61945188D01*
X113127000Y-50000000D01*
X117761928Y-50000000D01*
X117774188Y-50124482D01*
X117810498Y-50244180D01*
X117869463Y-50354494D01*
X117948815Y-50451185D01*
X118045506Y-50530537D01*
X118155820Y-50589502D01*
X118275518Y-50625812D01*
X118400000Y-50638072D01*
X118714250Y-50635000D01*
X118873000Y-50476250D01*
X118873000Y-48627000D01*
X117923750Y-48627000D01*
X117765000Y-48785750D01*
X117761928Y-50000000D01*
X113127000Y-50000000D01*
X113127000Y-46710000D01*
X117834990Y-46710000D01*
X117810498Y-46755820D01*
G36*
X134290000Y-132290000D02*
G01*
X132565010Y-132290000D01*
X132589502Y-132244180D01*
X132625812Y-132124482D01*
X132638072Y-132000000D01*
X132638072Y-130000000D01*
X132625812Y-129875518D01*
X132589502Y-129755820D01*
X132530537Y-129645506D01*
X132451185Y-129548815D01*
X132354494Y-129469463D01*
X132244180Y-129410498D01*
X132124482Y-129374188D01*
X132000000Y-129361928D01*
X129635000Y-129361928D01*
X129635000Y-129184168D01*
X129671920Y-129203902D01*
X129791618Y-129240212D01*
X129916100Y-129252472D01*
X130117850Y-129249400D01*
X130276600Y-129090650D01*
X130276600Y-128041400D01*
X130530600Y-128041400D01*
X130530600Y-129090650D01*
X130689350Y-129249400D01*
X130891100Y-129252472D01*
X131015582Y-129240212D01*
X131135280Y-129203902D01*
X131245594Y-129144937D01*
X131342285Y-129065585D01*
X131421637Y-128968894D01*
X131480602Y-128858580D01*
X131516912Y-128738882D01*
X131529172Y-128614400D01*
X131526100Y-128200150D01*
X131367350Y-128041400D01*
X130530600Y-128041400D01*
X130276600Y-128041400D01*
X130256600Y-128041400D01*
X130256600Y-127787400D01*
X130276600Y-127787400D01*
X130276600Y-127767400D01*
X130530600Y-127767400D01*
X130530600Y-127787400D01*
X131367350Y-127787400D01*
X131526100Y-127628650D01*
X131529172Y-127214400D01*
X131516912Y-127089918D01*
X131480602Y-126970220D01*
X131421637Y-126859906D01*
X131342285Y-126763215D01*
X131245594Y-126683863D01*
X131135280Y-126624898D01*
X131015582Y-126588588D01*
X130891100Y-126576328D01*
X130769959Y-126578173D01*
X132568147Y-124779986D01*
X132611450Y-124744448D01*
X132753285Y-124571622D01*
X132858677Y-124374446D01*
X132923578Y-124160498D01*
X132940001Y-123993751D01*
X132945492Y-123937999D01*
X132940001Y-123882247D01*
X132940001Y-104065528D01*
X134290000Y-102715530D01*
X134290000Y-132290000D01*
G37*
X134290000Y-132290000D02*
X132565010Y-132290000D01*
X132589502Y-132244180D01*
X132625812Y-132124482D01*
X132638072Y-132000000D01*
X132638072Y-130000000D01*
X132625812Y-129875518D01*
X132589502Y-129755820D01*
X132530537Y-129645506D01*
X132451185Y-129548815D01*
X132354494Y-129469463D01*
X132244180Y-129410498D01*
X132124482Y-129374188D01*
X132000000Y-129361928D01*
X129635000Y-129361928D01*
X129635000Y-129184168D01*
X129671920Y-129203902D01*
X129791618Y-129240212D01*
X129916100Y-129252472D01*
X130117850Y-129249400D01*
X130276600Y-129090650D01*
X130276600Y-128041400D01*
X130530600Y-128041400D01*
X130530600Y-129090650D01*
X130689350Y-129249400D01*
X130891100Y-129252472D01*
X131015582Y-129240212D01*
X131135280Y-129203902D01*
X131245594Y-129144937D01*
X131342285Y-129065585D01*
X131421637Y-128968894D01*
X131480602Y-128858580D01*
X131516912Y-128738882D01*
X131529172Y-128614400D01*
X131526100Y-128200150D01*
X131367350Y-128041400D01*
X130530600Y-128041400D01*
X130276600Y-128041400D01*
X130256600Y-128041400D01*
X130256600Y-127787400D01*
X130276600Y-127787400D01*
X130276600Y-127767400D01*
X130530600Y-127767400D01*
X130530600Y-127787400D01*
X131367350Y-127787400D01*
X131526100Y-127628650D01*
X131529172Y-127214400D01*
X131516912Y-127089918D01*
X131480602Y-126970220D01*
X131421637Y-126859906D01*
X131342285Y-126763215D01*
X131245594Y-126683863D01*
X131135280Y-126624898D01*
X131015582Y-126588588D01*
X130891100Y-126576328D01*
X130769959Y-126578173D01*
X132568147Y-124779986D01*
X132611450Y-124744448D01*
X132753285Y-124571622D01*
X132858677Y-124374446D01*
X132923578Y-124160498D01*
X132940001Y-123993751D01*
X132945492Y-123937999D01*
X132940001Y-123882247D01*
X132940001Y-104065528D01*
X134290000Y-102715530D01*
X134290000Y-132290000D01*
G36*
X125886426Y-110489853D02*
G01*
X126163665Y-110545000D01*
X126446335Y-110545000D01*
X126723574Y-110489853D01*
X126736144Y-110484646D01*
X126660241Y-110535363D01*
X126460363Y-110735241D01*
X126304085Y-110969128D01*
X126271671Y-110908486D01*
X126027702Y-110836903D01*
X125214605Y-111650000D01*
X126027702Y-112463097D01*
X126271671Y-112391514D01*
X126302194Y-112327008D01*
X126303320Y-112329727D01*
X126460363Y-112564759D01*
X126596805Y-112701201D01*
X125830933Y-112701201D01*
X125848097Y-112642702D01*
X125035000Y-111829605D01*
X124221903Y-112642702D01*
X124239067Y-112701201D01*
X123473195Y-112701201D01*
X123609637Y-112564759D01*
X123765915Y-112330872D01*
X123798329Y-112391514D01*
X124042298Y-112463097D01*
X124855395Y-111650000D01*
X124042298Y-110836903D01*
X123798329Y-110908486D01*
X123767806Y-110972992D01*
X123766680Y-110970273D01*
X123609637Y-110735241D01*
X123409759Y-110535363D01*
X123333856Y-110484646D01*
X123346426Y-110489853D01*
X123623665Y-110545000D01*
X123906335Y-110545000D01*
X124183574Y-110489853D01*
X124283133Y-110448614D01*
X124221903Y-110657298D01*
X125035000Y-111470395D01*
X125848097Y-110657298D01*
X125786867Y-110448614D01*
X125886426Y-110489853D01*
G37*
X125886426Y-110489853D02*
X126163665Y-110545000D01*
X126446335Y-110545000D01*
X126723574Y-110489853D01*
X126736144Y-110484646D01*
X126660241Y-110535363D01*
X126460363Y-110735241D01*
X126304085Y-110969128D01*
X126271671Y-110908486D01*
X126027702Y-110836903D01*
X125214605Y-111650000D01*
X126027702Y-112463097D01*
X126271671Y-112391514D01*
X126302194Y-112327008D01*
X126303320Y-112329727D01*
X126460363Y-112564759D01*
X126596805Y-112701201D01*
X125830933Y-112701201D01*
X125848097Y-112642702D01*
X125035000Y-111829605D01*
X124221903Y-112642702D01*
X124239067Y-112701201D01*
X123473195Y-112701201D01*
X123609637Y-112564759D01*
X123765915Y-112330872D01*
X123798329Y-112391514D01*
X124042298Y-112463097D01*
X124855395Y-111650000D01*
X124042298Y-110836903D01*
X123798329Y-110908486D01*
X123767806Y-110972992D01*
X123766680Y-110970273D01*
X123609637Y-110735241D01*
X123409759Y-110535363D01*
X123333856Y-110484646D01*
X123346426Y-110489853D01*
X123623665Y-110545000D01*
X123906335Y-110545000D01*
X124183574Y-110489853D01*
X124283133Y-110448614D01*
X124221903Y-110657298D01*
X125035000Y-111470395D01*
X125848097Y-110657298D01*
X125786867Y-110448614D01*
X125886426Y-110489853D01*
G36*
X110438253Y-105053709D02*
G01*
X110519742Y-105206164D01*
X110629408Y-105339792D01*
X110714956Y-105410000D01*
X110629408Y-105480208D01*
X110519742Y-105613836D01*
X110438253Y-105766291D01*
X110388072Y-105931715D01*
X110371128Y-106103750D01*
X110371128Y-106591250D01*
X110388072Y-106763285D01*
X110438253Y-106928709D01*
X110519742Y-107081164D01*
X110629408Y-107214792D01*
X110763036Y-107324458D01*
X110915491Y-107405947D01*
X111080915Y-107456128D01*
X111252950Y-107473072D01*
X112165450Y-107473072D01*
X112337485Y-107456128D01*
X112502909Y-107405947D01*
X112655364Y-107324458D01*
X112788992Y-107214792D01*
X112877045Y-107107500D01*
X114087178Y-107107500D01*
X114124500Y-107111176D01*
X114161822Y-107107500D01*
X114161833Y-107107500D01*
X114273486Y-107096503D01*
X114416747Y-107053046D01*
X114548776Y-106982474D01*
X114664501Y-106887501D01*
X114688303Y-106858498D01*
X115072002Y-106474800D01*
X116865827Y-106474800D01*
X116876053Y-106508509D01*
X116957542Y-106660964D01*
X117067208Y-106794592D01*
X117174500Y-106882645D01*
X117174501Y-112701201D01*
X114753195Y-112701201D01*
X114889637Y-112564759D01*
X115046680Y-112329727D01*
X115154853Y-112068574D01*
X115210000Y-111791335D01*
X115210000Y-111508665D01*
X115154853Y-111231426D01*
X115046680Y-110970273D01*
X114889637Y-110735241D01*
X114689759Y-110535363D01*
X114454727Y-110378320D01*
X114193574Y-110270147D01*
X113916335Y-110215000D01*
X113633665Y-110215000D01*
X113356426Y-110270147D01*
X113256867Y-110311386D01*
X113318097Y-110102702D01*
X112505000Y-109289605D01*
X111691903Y-110102702D01*
X111751854Y-110307026D01*
X111721004Y-110292429D01*
X111446816Y-110223700D01*
X111164488Y-110209783D01*
X110884870Y-110251213D01*
X110788299Y-110285748D01*
X110879759Y-110224637D01*
X111079637Y-110024759D01*
X111235915Y-109790872D01*
X111268329Y-109851514D01*
X111512298Y-109923097D01*
X112325395Y-109110000D01*
X112684605Y-109110000D01*
X113497702Y-109923097D01*
X113741671Y-109851514D01*
X113862571Y-109596004D01*
X113931300Y-109321816D01*
X113945217Y-109039488D01*
X113903787Y-108759870D01*
X113808603Y-108493708D01*
X113741671Y-108368486D01*
X113497702Y-108296903D01*
X112684605Y-109110000D01*
X112325395Y-109110000D01*
X111512298Y-108296903D01*
X111268329Y-108368486D01*
X111237806Y-108432992D01*
X111236680Y-108430273D01*
X111079637Y-108195241D01*
X111001694Y-108117298D01*
X111691903Y-108117298D01*
X112505000Y-108930395D01*
X113318097Y-108117298D01*
X113246514Y-107873329D01*
X112991004Y-107752429D01*
X112716816Y-107683700D01*
X112434488Y-107669783D01*
X112154870Y-107711213D01*
X111888708Y-107806397D01*
X111763486Y-107873329D01*
X111691903Y-108117298D01*
X111001694Y-108117298D01*
X110879759Y-107995363D01*
X110644727Y-107838320D01*
X110383574Y-107730147D01*
X110125000Y-107678713D01*
X110125000Y-106056933D01*
X110128677Y-106019600D01*
X110125000Y-105982267D01*
X110125000Y-105325801D01*
X110428673Y-105022129D01*
X110438253Y-105053709D01*
G37*
X110438253Y-105053709D02*
X110519742Y-105206164D01*
X110629408Y-105339792D01*
X110714956Y-105410000D01*
X110629408Y-105480208D01*
X110519742Y-105613836D01*
X110438253Y-105766291D01*
X110388072Y-105931715D01*
X110371128Y-106103750D01*
X110371128Y-106591250D01*
X110388072Y-106763285D01*
X110438253Y-106928709D01*
X110519742Y-107081164D01*
X110629408Y-107214792D01*
X110763036Y-107324458D01*
X110915491Y-107405947D01*
X111080915Y-107456128D01*
X111252950Y-107473072D01*
X112165450Y-107473072D01*
X112337485Y-107456128D01*
X112502909Y-107405947D01*
X112655364Y-107324458D01*
X112788992Y-107214792D01*
X112877045Y-107107500D01*
X114087178Y-107107500D01*
X114124500Y-107111176D01*
X114161822Y-107107500D01*
X114161833Y-107107500D01*
X114273486Y-107096503D01*
X114416747Y-107053046D01*
X114548776Y-106982474D01*
X114664501Y-106887501D01*
X114688303Y-106858498D01*
X115072002Y-106474800D01*
X116865827Y-106474800D01*
X116876053Y-106508509D01*
X116957542Y-106660964D01*
X117067208Y-106794592D01*
X117174500Y-106882645D01*
X117174501Y-112701201D01*
X114753195Y-112701201D01*
X114889637Y-112564759D01*
X115046680Y-112329727D01*
X115154853Y-112068574D01*
X115210000Y-111791335D01*
X115210000Y-111508665D01*
X115154853Y-111231426D01*
X115046680Y-110970273D01*
X114889637Y-110735241D01*
X114689759Y-110535363D01*
X114454727Y-110378320D01*
X114193574Y-110270147D01*
X113916335Y-110215000D01*
X113633665Y-110215000D01*
X113356426Y-110270147D01*
X113256867Y-110311386D01*
X113318097Y-110102702D01*
X112505000Y-109289605D01*
X111691903Y-110102702D01*
X111751854Y-110307026D01*
X111721004Y-110292429D01*
X111446816Y-110223700D01*
X111164488Y-110209783D01*
X110884870Y-110251213D01*
X110788299Y-110285748D01*
X110879759Y-110224637D01*
X111079637Y-110024759D01*
X111235915Y-109790872D01*
X111268329Y-109851514D01*
X111512298Y-109923097D01*
X112325395Y-109110000D01*
X112684605Y-109110000D01*
X113497702Y-109923097D01*
X113741671Y-109851514D01*
X113862571Y-109596004D01*
X113931300Y-109321816D01*
X113945217Y-109039488D01*
X113903787Y-108759870D01*
X113808603Y-108493708D01*
X113741671Y-108368486D01*
X113497702Y-108296903D01*
X112684605Y-109110000D01*
X112325395Y-109110000D01*
X111512298Y-108296903D01*
X111268329Y-108368486D01*
X111237806Y-108432992D01*
X111236680Y-108430273D01*
X111079637Y-108195241D01*
X111001694Y-108117298D01*
X111691903Y-108117298D01*
X112505000Y-108930395D01*
X113318097Y-108117298D01*
X113246514Y-107873329D01*
X112991004Y-107752429D01*
X112716816Y-107683700D01*
X112434488Y-107669783D01*
X112154870Y-107711213D01*
X111888708Y-107806397D01*
X111763486Y-107873329D01*
X111691903Y-108117298D01*
X111001694Y-108117298D01*
X110879759Y-107995363D01*
X110644727Y-107838320D01*
X110383574Y-107730147D01*
X110125000Y-107678713D01*
X110125000Y-106056933D01*
X110128677Y-106019600D01*
X110125000Y-105982267D01*
X110125000Y-105325801D01*
X110428673Y-105022129D01*
X110438253Y-105053709D01*
G36*
X110421903Y-110657298D02*
G01*
X111235000Y-111470395D01*
X112048097Y-110657298D01*
X111988146Y-110452974D01*
X112018996Y-110467571D01*
X112293184Y-110536300D01*
X112575512Y-110550217D01*
X112855130Y-110508787D01*
X112951701Y-110474252D01*
X112860241Y-110535363D01*
X112660363Y-110735241D01*
X112504085Y-110969128D01*
X112471671Y-110908486D01*
X112227702Y-110836903D01*
X111414605Y-111650000D01*
X112227702Y-112463097D01*
X112471671Y-112391514D01*
X112502194Y-112327008D01*
X112503320Y-112329727D01*
X112660363Y-112564759D01*
X112796805Y-112701201D01*
X112030933Y-112701201D01*
X112048097Y-112642702D01*
X111235000Y-111829605D01*
X110421903Y-112642702D01*
X110439067Y-112701201D01*
X109673195Y-112701201D01*
X109809637Y-112564759D01*
X109965915Y-112330872D01*
X109998329Y-112391514D01*
X110242298Y-112463097D01*
X111055395Y-111650000D01*
X110242298Y-110836903D01*
X109998329Y-110908486D01*
X109967806Y-110972992D01*
X109966680Y-110970273D01*
X109809637Y-110735241D01*
X109609759Y-110535363D01*
X109533856Y-110484646D01*
X109546426Y-110489853D01*
X109823665Y-110545000D01*
X110106335Y-110545000D01*
X110383574Y-110489853D01*
X110483133Y-110448614D01*
X110421903Y-110657298D01*
G37*
X110421903Y-110657298D02*
X111235000Y-111470395D01*
X112048097Y-110657298D01*
X111988146Y-110452974D01*
X112018996Y-110467571D01*
X112293184Y-110536300D01*
X112575512Y-110550217D01*
X112855130Y-110508787D01*
X112951701Y-110474252D01*
X112860241Y-110535363D01*
X112660363Y-110735241D01*
X112504085Y-110969128D01*
X112471671Y-110908486D01*
X112227702Y-110836903D01*
X111414605Y-111650000D01*
X112227702Y-112463097D01*
X112471671Y-112391514D01*
X112502194Y-112327008D01*
X112503320Y-112329727D01*
X112660363Y-112564759D01*
X112796805Y-112701201D01*
X112030933Y-112701201D01*
X112048097Y-112642702D01*
X111235000Y-111829605D01*
X110421903Y-112642702D01*
X110439067Y-112701201D01*
X109673195Y-112701201D01*
X109809637Y-112564759D01*
X109965915Y-112330872D01*
X109998329Y-112391514D01*
X110242298Y-112463097D01*
X111055395Y-111650000D01*
X110242298Y-110836903D01*
X109998329Y-110908486D01*
X109967806Y-110972992D01*
X109966680Y-110970273D01*
X109809637Y-110735241D01*
X109609759Y-110535363D01*
X109533856Y-110484646D01*
X109546426Y-110489853D01*
X109823665Y-110545000D01*
X110106335Y-110545000D01*
X110383574Y-110489853D01*
X110483133Y-110448614D01*
X110421903Y-110657298D01*
G36*
X132444807Y-101350459D02*
G01*
X131041866Y-102753401D01*
X130998552Y-102788948D01*
X130856717Y-102961774D01*
X130759832Y-103143036D01*
X130751325Y-103158951D01*
X130686424Y-103372899D01*
X130664510Y-103595397D01*
X130670001Y-103651149D01*
X130670002Y-106501640D01*
X130670001Y-106501650D01*
X130670002Y-110890000D01*
X128793043Y-110890000D01*
X128689637Y-110735241D01*
X128489759Y-110535363D01*
X128254727Y-110378320D01*
X127993574Y-110270147D01*
X127716335Y-110215000D01*
X127433665Y-110215000D01*
X127156426Y-110270147D01*
X127143856Y-110275354D01*
X127219759Y-110224637D01*
X127419637Y-110024759D01*
X127576680Y-109789727D01*
X127684853Y-109528574D01*
X127740000Y-109251335D01*
X127740000Y-108968665D01*
X127684853Y-108691426D01*
X127576680Y-108430273D01*
X127419637Y-108195241D01*
X127219759Y-107995363D01*
X126984727Y-107838320D01*
X126723574Y-107730147D01*
X126446335Y-107675000D01*
X126163665Y-107675000D01*
X125886426Y-107730147D01*
X125625273Y-107838320D01*
X125390241Y-107995363D01*
X125190363Y-108195241D01*
X125035000Y-108427759D01*
X124879637Y-108195241D01*
X124679759Y-107995363D01*
X124444727Y-107838320D01*
X124183574Y-107730147D01*
X123906335Y-107675000D01*
X123623665Y-107675000D01*
X123524523Y-107694721D01*
X122854953Y-107025152D01*
X122905918Y-107040612D01*
X123030400Y-107052872D01*
X123232150Y-107049800D01*
X123390900Y-106891050D01*
X123390900Y-105841800D01*
X123644900Y-105841800D01*
X123644900Y-106891050D01*
X123803650Y-107049800D01*
X124005400Y-107052872D01*
X124129882Y-107040612D01*
X124249580Y-107004302D01*
X124359894Y-106945337D01*
X124456585Y-106865985D01*
X124535937Y-106769294D01*
X124594902Y-106658980D01*
X124631212Y-106539282D01*
X124643472Y-106414800D01*
X124640400Y-106000550D01*
X124481650Y-105841800D01*
X123644900Y-105841800D01*
X123390900Y-105841800D01*
X123370900Y-105841800D01*
X123370900Y-105587800D01*
X123390900Y-105587800D01*
X123390900Y-104538550D01*
X123644900Y-104538550D01*
X123644900Y-105587800D01*
X124481650Y-105587800D01*
X124640400Y-105429050D01*
X124643472Y-105014800D01*
X124631212Y-104890318D01*
X124594902Y-104770620D01*
X124535937Y-104660306D01*
X124456585Y-104563615D01*
X124359894Y-104484263D01*
X124249580Y-104425298D01*
X124129882Y-104388988D01*
X124005400Y-104376728D01*
X123803650Y-104379800D01*
X123644900Y-104538550D01*
X123390900Y-104538550D01*
X123232150Y-104379800D01*
X123030400Y-104376728D01*
X122905918Y-104388988D01*
X122786220Y-104425298D01*
X122675906Y-104484263D01*
X122579215Y-104563615D01*
X122515408Y-104641364D01*
X122510192Y-104635008D01*
X122376564Y-104525342D01*
X122224109Y-104443853D01*
X122058685Y-104393672D01*
X121886650Y-104376728D01*
X121399150Y-104376728D01*
X121227115Y-104393672D01*
X121061691Y-104443853D01*
X120909236Y-104525342D01*
X120775608Y-104635008D01*
X120726200Y-104695212D01*
X120676792Y-104635008D01*
X120569500Y-104546955D01*
X120569500Y-104456864D01*
X120707229Y-104429468D01*
X120877389Y-104358986D01*
X120980035Y-104290400D01*
X128026682Y-104290400D01*
X128064004Y-104294076D01*
X128065397Y-104293939D01*
X128066800Y-104294077D01*
X128215786Y-104279403D01*
X128359047Y-104235946D01*
X128491076Y-104165374D01*
X128606801Y-104070401D01*
X128632894Y-104038606D01*
X128643400Y-104025805D01*
X132444807Y-100224399D01*
X132444807Y-101350459D01*
G37*
X132444807Y-101350459D02*
X131041866Y-102753401D01*
X130998552Y-102788948D01*
X130856717Y-102961774D01*
X130759832Y-103143036D01*
X130751325Y-103158951D01*
X130686424Y-103372899D01*
X130664510Y-103595397D01*
X130670001Y-103651149D01*
X130670002Y-106501640D01*
X130670001Y-106501650D01*
X130670002Y-110890000D01*
X128793043Y-110890000D01*
X128689637Y-110735241D01*
X128489759Y-110535363D01*
X128254727Y-110378320D01*
X127993574Y-110270147D01*
X127716335Y-110215000D01*
X127433665Y-110215000D01*
X127156426Y-110270147D01*
X127143856Y-110275354D01*
X127219759Y-110224637D01*
X127419637Y-110024759D01*
X127576680Y-109789727D01*
X127684853Y-109528574D01*
X127740000Y-109251335D01*
X127740000Y-108968665D01*
X127684853Y-108691426D01*
X127576680Y-108430273D01*
X127419637Y-108195241D01*
X127219759Y-107995363D01*
X126984727Y-107838320D01*
X126723574Y-107730147D01*
X126446335Y-107675000D01*
X126163665Y-107675000D01*
X125886426Y-107730147D01*
X125625273Y-107838320D01*
X125390241Y-107995363D01*
X125190363Y-108195241D01*
X125035000Y-108427759D01*
X124879637Y-108195241D01*
X124679759Y-107995363D01*
X124444727Y-107838320D01*
X124183574Y-107730147D01*
X123906335Y-107675000D01*
X123623665Y-107675000D01*
X123524523Y-107694721D01*
X122854953Y-107025152D01*
X122905918Y-107040612D01*
X123030400Y-107052872D01*
X123232150Y-107049800D01*
X123390900Y-106891050D01*
X123390900Y-105841800D01*
X123644900Y-105841800D01*
X123644900Y-106891050D01*
X123803650Y-107049800D01*
X124005400Y-107052872D01*
X124129882Y-107040612D01*
X124249580Y-107004302D01*
X124359894Y-106945337D01*
X124456585Y-106865985D01*
X124535937Y-106769294D01*
X124594902Y-106658980D01*
X124631212Y-106539282D01*
X124643472Y-106414800D01*
X124640400Y-106000550D01*
X124481650Y-105841800D01*
X123644900Y-105841800D01*
X123390900Y-105841800D01*
X123370900Y-105841800D01*
X123370900Y-105587800D01*
X123390900Y-105587800D01*
X123390900Y-104538550D01*
X123644900Y-104538550D01*
X123644900Y-105587800D01*
X124481650Y-105587800D01*
X124640400Y-105429050D01*
X124643472Y-105014800D01*
X124631212Y-104890318D01*
X124594902Y-104770620D01*
X124535937Y-104660306D01*
X124456585Y-104563615D01*
X124359894Y-104484263D01*
X124249580Y-104425298D01*
X124129882Y-104388988D01*
X124005400Y-104376728D01*
X123803650Y-104379800D01*
X123644900Y-104538550D01*
X123390900Y-104538550D01*
X123232150Y-104379800D01*
X123030400Y-104376728D01*
X122905918Y-104388988D01*
X122786220Y-104425298D01*
X122675906Y-104484263D01*
X122579215Y-104563615D01*
X122515408Y-104641364D01*
X122510192Y-104635008D01*
X122376564Y-104525342D01*
X122224109Y-104443853D01*
X122058685Y-104393672D01*
X121886650Y-104376728D01*
X121399150Y-104376728D01*
X121227115Y-104393672D01*
X121061691Y-104443853D01*
X120909236Y-104525342D01*
X120775608Y-104635008D01*
X120726200Y-104695212D01*
X120676792Y-104635008D01*
X120569500Y-104546955D01*
X120569500Y-104456864D01*
X120707229Y-104429468D01*
X120877389Y-104358986D01*
X120980035Y-104290400D01*
X128026682Y-104290400D01*
X128064004Y-104294076D01*
X128065397Y-104293939D01*
X128066800Y-104294077D01*
X128215786Y-104279403D01*
X128359047Y-104235946D01*
X128491076Y-104165374D01*
X128606801Y-104070401D01*
X128632894Y-104038606D01*
X128643400Y-104025805D01*
X132444807Y-100224399D01*
X132444807Y-101350459D01*
G36*
X108854002Y-104447197D02*
G01*
X108824999Y-104470999D01*
X108769871Y-104538174D01*
X108730026Y-104586724D01*
X108687718Y-104665876D01*
X108679352Y-104681528D01*
X108237350Y-104681528D01*
X108065315Y-104698472D01*
X107899891Y-104748653D01*
X107747436Y-104830142D01*
X107613808Y-104939808D01*
X107608592Y-104946164D01*
X107544785Y-104868415D01*
X107448094Y-104789063D01*
X107337780Y-104730098D01*
X107218082Y-104693788D01*
X107093600Y-104681528D01*
X106891850Y-104684600D01*
X106733100Y-104843350D01*
X106733100Y-105892600D01*
X106753100Y-105892600D01*
X106753100Y-106146600D01*
X106733100Y-106146600D01*
X106733100Y-107195850D01*
X106891850Y-107354600D01*
X107093600Y-107357672D01*
X107218082Y-107345412D01*
X107337780Y-107309102D01*
X107448094Y-107250137D01*
X107544785Y-107170785D01*
X107608592Y-107093036D01*
X107613808Y-107099392D01*
X107747436Y-107209058D01*
X107899891Y-107290547D01*
X108065315Y-107340728D01*
X108237350Y-107357672D01*
X108605000Y-107357672D01*
X108605001Y-108293065D01*
X108539637Y-108195241D01*
X108339759Y-107995363D01*
X108104727Y-107838320D01*
X107843574Y-107730147D01*
X107566335Y-107675000D01*
X107283665Y-107675000D01*
X107006426Y-107730147D01*
X106745273Y-107838320D01*
X106510241Y-107995363D01*
X106310363Y-108195241D01*
X106153320Y-108430273D01*
X106045147Y-108691426D01*
X105990000Y-108968665D01*
X105990000Y-109251335D01*
X106045147Y-109528574D01*
X106153320Y-109789727D01*
X106310363Y-110024759D01*
X106510241Y-110224637D01*
X106745273Y-110381680D01*
X107006426Y-110489853D01*
X107283665Y-110545000D01*
X107566335Y-110545000D01*
X107843574Y-110489853D01*
X107856144Y-110484646D01*
X107780241Y-110535363D01*
X107580363Y-110735241D01*
X107476957Y-110890000D01*
X106884802Y-110890000D01*
X105814400Y-109819599D01*
X105814400Y-107784122D01*
X105818076Y-107746799D01*
X105814400Y-107709477D01*
X105814400Y-107709467D01*
X105803403Y-107597814D01*
X105798400Y-107581321D01*
X105798400Y-107268468D01*
X105874420Y-107309102D01*
X105994118Y-107345412D01*
X106118600Y-107357672D01*
X106320350Y-107354600D01*
X106479100Y-107195850D01*
X106479100Y-106146600D01*
X106459100Y-106146600D01*
X106459100Y-105892600D01*
X106479100Y-105892600D01*
X106479100Y-104843350D01*
X106428868Y-104793118D01*
X106504801Y-104730801D01*
X106528603Y-104701798D01*
X106940002Y-104290400D01*
X109010799Y-104290400D01*
X108854002Y-104447197D01*
G37*
X108854002Y-104447197D02*
X108824999Y-104470999D01*
X108769871Y-104538174D01*
X108730026Y-104586724D01*
X108687718Y-104665876D01*
X108679352Y-104681528D01*
X108237350Y-104681528D01*
X108065315Y-104698472D01*
X107899891Y-104748653D01*
X107747436Y-104830142D01*
X107613808Y-104939808D01*
X107608592Y-104946164D01*
X107544785Y-104868415D01*
X107448094Y-104789063D01*
X107337780Y-104730098D01*
X107218082Y-104693788D01*
X107093600Y-104681528D01*
X106891850Y-104684600D01*
X106733100Y-104843350D01*
X106733100Y-105892600D01*
X106753100Y-105892600D01*
X106753100Y-106146600D01*
X106733100Y-106146600D01*
X106733100Y-107195850D01*
X106891850Y-107354600D01*
X107093600Y-107357672D01*
X107218082Y-107345412D01*
X107337780Y-107309102D01*
X107448094Y-107250137D01*
X107544785Y-107170785D01*
X107608592Y-107093036D01*
X107613808Y-107099392D01*
X107747436Y-107209058D01*
X107899891Y-107290547D01*
X108065315Y-107340728D01*
X108237350Y-107357672D01*
X108605000Y-107357672D01*
X108605001Y-108293065D01*
X108539637Y-108195241D01*
X108339759Y-107995363D01*
X108104727Y-107838320D01*
X107843574Y-107730147D01*
X107566335Y-107675000D01*
X107283665Y-107675000D01*
X107006426Y-107730147D01*
X106745273Y-107838320D01*
X106510241Y-107995363D01*
X106310363Y-108195241D01*
X106153320Y-108430273D01*
X106045147Y-108691426D01*
X105990000Y-108968665D01*
X105990000Y-109251335D01*
X106045147Y-109528574D01*
X106153320Y-109789727D01*
X106310363Y-110024759D01*
X106510241Y-110224637D01*
X106745273Y-110381680D01*
X107006426Y-110489853D01*
X107283665Y-110545000D01*
X107566335Y-110545000D01*
X107843574Y-110489853D01*
X107856144Y-110484646D01*
X107780241Y-110535363D01*
X107580363Y-110735241D01*
X107476957Y-110890000D01*
X106884802Y-110890000D01*
X105814400Y-109819599D01*
X105814400Y-107784122D01*
X105818076Y-107746799D01*
X105814400Y-107709477D01*
X105814400Y-107709467D01*
X105803403Y-107597814D01*
X105798400Y-107581321D01*
X105798400Y-107268468D01*
X105874420Y-107309102D01*
X105994118Y-107345412D01*
X106118600Y-107357672D01*
X106320350Y-107354600D01*
X106479100Y-107195850D01*
X106479100Y-106146600D01*
X106459100Y-106146600D01*
X106459100Y-105892600D01*
X106479100Y-105892600D01*
X106479100Y-104843350D01*
X106428868Y-104793118D01*
X106504801Y-104730801D01*
X106528603Y-104701798D01*
X106940002Y-104290400D01*
X109010799Y-104290400D01*
X108854002Y-104447197D01*
G36*
X103227900Y-105892600D02*
G01*
X103247900Y-105892600D01*
X103247900Y-106146600D01*
X103227900Y-106146600D01*
X103227900Y-107195850D01*
X103386650Y-107354600D01*
X103588400Y-107357672D01*
X103712882Y-107345412D01*
X103832580Y-107309102D01*
X103942894Y-107250137D01*
X104039585Y-107170785D01*
X104103392Y-107093036D01*
X104108608Y-107099392D01*
X104242236Y-107209058D01*
X104278401Y-107228388D01*
X104278401Y-107693468D01*
X104274724Y-107730800D01*
X104289398Y-107879785D01*
X104294400Y-107896275D01*
X104294401Y-109264799D01*
X103048390Y-108018789D01*
X103048390Y-105872600D01*
X103227900Y-105872600D01*
X103227900Y-105892600D01*
G37*
X103227900Y-105892600D02*
X103247900Y-105892600D01*
X103247900Y-106146600D01*
X103227900Y-106146600D01*
X103227900Y-107195850D01*
X103386650Y-107354600D01*
X103588400Y-107357672D01*
X103712882Y-107345412D01*
X103832580Y-107309102D01*
X103942894Y-107250137D01*
X104039585Y-107170785D01*
X104103392Y-107093036D01*
X104108608Y-107099392D01*
X104242236Y-107209058D01*
X104278401Y-107228388D01*
X104278401Y-107693468D01*
X104274724Y-107730800D01*
X104289398Y-107879785D01*
X104294400Y-107896275D01*
X104294401Y-109264799D01*
X103048390Y-108018789D01*
X103048390Y-105872600D01*
X103227900Y-105872600D01*
X103227900Y-105892600D01*
G36*
X125839492Y-96515553D02*
G01*
X125844597Y-96567386D01*
X125888054Y-96710647D01*
X125958626Y-96842676D01*
X126053600Y-96958401D01*
X126082598Y-96982199D01*
X127412326Y-98311928D01*
X127125000Y-98311928D01*
X127000518Y-98324188D01*
X127000000Y-98324345D01*
X126999482Y-98324188D01*
X126875000Y-98311928D01*
X126325000Y-98311928D01*
X126200518Y-98324188D01*
X126199337Y-98324546D01*
X126085750Y-98315000D01*
X125993667Y-98407083D01*
X125970506Y-98419463D01*
X125873815Y-98498815D01*
X125800000Y-98588759D01*
X125760000Y-98540019D01*
X125760000Y-96440709D01*
X125767803Y-96414986D01*
X125768380Y-96409127D01*
X125839492Y-96515553D01*
G37*
X125839492Y-96515553D02*
X125844597Y-96567386D01*
X125888054Y-96710647D01*
X125958626Y-96842676D01*
X126053600Y-96958401D01*
X126082598Y-96982199D01*
X127412326Y-98311928D01*
X127125000Y-98311928D01*
X127000518Y-98324188D01*
X127000000Y-98324345D01*
X126999482Y-98324188D01*
X126875000Y-98311928D01*
X126325000Y-98311928D01*
X126200518Y-98324188D01*
X126199337Y-98324546D01*
X126085750Y-98315000D01*
X125993667Y-98407083D01*
X125970506Y-98419463D01*
X125873815Y-98498815D01*
X125800000Y-98588759D01*
X125760000Y-98540019D01*
X125760000Y-96440709D01*
X125767803Y-96414986D01*
X125768380Y-96409127D01*
X125839492Y-96515553D01*
G36*
X125017998Y-94800000D02*
G01*
X124489001Y-95328998D01*
X124459999Y-95352799D01*
X124365026Y-95468524D01*
X124344994Y-95506000D01*
X124024335Y-95506000D01*
X123921689Y-95437414D01*
X123751529Y-95366932D01*
X123570889Y-95331000D01*
X123386711Y-95331000D01*
X123206071Y-95366932D01*
X123035911Y-95437414D01*
X122882772Y-95539738D01*
X122752538Y-95669972D01*
X122650214Y-95823111D01*
X122579732Y-95993271D01*
X122543800Y-96173911D01*
X122543800Y-96358089D01*
X122579732Y-96538729D01*
X122650214Y-96708889D01*
X122752538Y-96862028D01*
X122802593Y-96912083D01*
X122751529Y-96890932D01*
X122570889Y-96855000D01*
X122386711Y-96855000D01*
X122206071Y-96890932D01*
X122035911Y-96961414D01*
X121882772Y-97063738D01*
X121752538Y-97193972D01*
X121650214Y-97347111D01*
X121579732Y-97517271D01*
X121543800Y-97697911D01*
X121543800Y-97882089D01*
X121579732Y-98062729D01*
X121650214Y-98232889D01*
X121703026Y-98311928D01*
X121525000Y-98311928D01*
X121400518Y-98324188D01*
X121400000Y-98324345D01*
X121399482Y-98324188D01*
X121275000Y-98311928D01*
X120725000Y-98311928D01*
X120684038Y-98315962D01*
X120688072Y-98275000D01*
X120688072Y-97725000D01*
X120675812Y-97600518D01*
X120675655Y-97600000D01*
X120675812Y-97599482D01*
X120688072Y-97475000D01*
X120688072Y-96925000D01*
X120675812Y-96800518D01*
X120675655Y-96800000D01*
X120675812Y-96799482D01*
X120688072Y-96675000D01*
X120688072Y-96125000D01*
X120675812Y-96000518D01*
X120675655Y-96000000D01*
X120675812Y-95999482D01*
X120688072Y-95875000D01*
X120688072Y-95325000D01*
X120675812Y-95200518D01*
X120675655Y-95200000D01*
X120675812Y-95199482D01*
X120688072Y-95075000D01*
X120688072Y-94525000D01*
X120675812Y-94400518D01*
X120675454Y-94399337D01*
X120685000Y-94285750D01*
X120592917Y-94193667D01*
X120580537Y-94170506D01*
X120544834Y-94127002D01*
X120685000Y-94127002D01*
X120685000Y-94027323D01*
X120765911Y-94081386D01*
X120936071Y-94151868D01*
X121116711Y-94187800D01*
X121300889Y-94187800D01*
X121481529Y-94151868D01*
X121651689Y-94081386D01*
X121804828Y-93979062D01*
X121823890Y-93960000D01*
X124177999Y-93960000D01*
X125017998Y-94800000D01*
G37*
X125017998Y-94800000D02*
X124489001Y-95328998D01*
X124459999Y-95352799D01*
X124365026Y-95468524D01*
X124344994Y-95506000D01*
X124024335Y-95506000D01*
X123921689Y-95437414D01*
X123751529Y-95366932D01*
X123570889Y-95331000D01*
X123386711Y-95331000D01*
X123206071Y-95366932D01*
X123035911Y-95437414D01*
X122882772Y-95539738D01*
X122752538Y-95669972D01*
X122650214Y-95823111D01*
X122579732Y-95993271D01*
X122543800Y-96173911D01*
X122543800Y-96358089D01*
X122579732Y-96538729D01*
X122650214Y-96708889D01*
X122752538Y-96862028D01*
X122802593Y-96912083D01*
X122751529Y-96890932D01*
X122570889Y-96855000D01*
X122386711Y-96855000D01*
X122206071Y-96890932D01*
X122035911Y-96961414D01*
X121882772Y-97063738D01*
X121752538Y-97193972D01*
X121650214Y-97347111D01*
X121579732Y-97517271D01*
X121543800Y-97697911D01*
X121543800Y-97882089D01*
X121579732Y-98062729D01*
X121650214Y-98232889D01*
X121703026Y-98311928D01*
X121525000Y-98311928D01*
X121400518Y-98324188D01*
X121400000Y-98324345D01*
X121399482Y-98324188D01*
X121275000Y-98311928D01*
X120725000Y-98311928D01*
X120684038Y-98315962D01*
X120688072Y-98275000D01*
X120688072Y-97725000D01*
X120675812Y-97600518D01*
X120675655Y-97600000D01*
X120675812Y-97599482D01*
X120688072Y-97475000D01*
X120688072Y-96925000D01*
X120675812Y-96800518D01*
X120675655Y-96800000D01*
X120675812Y-96799482D01*
X120688072Y-96675000D01*
X120688072Y-96125000D01*
X120675812Y-96000518D01*
X120675655Y-96000000D01*
X120675812Y-95999482D01*
X120688072Y-95875000D01*
X120688072Y-95325000D01*
X120675812Y-95200518D01*
X120675655Y-95200000D01*
X120675812Y-95199482D01*
X120688072Y-95075000D01*
X120688072Y-94525000D01*
X120675812Y-94400518D01*
X120675454Y-94399337D01*
X120685000Y-94285750D01*
X120592917Y-94193667D01*
X120580537Y-94170506D01*
X120544834Y-94127002D01*
X120685000Y-94127002D01*
X120685000Y-94027323D01*
X120765911Y-94081386D01*
X120936071Y-94151868D01*
X121116711Y-94187800D01*
X121300889Y-94187800D01*
X121481529Y-94151868D01*
X121651689Y-94081386D01*
X121804828Y-93979062D01*
X121823890Y-93960000D01*
X124177999Y-93960000D01*
X125017998Y-94800000D01*
G36*
X131994796Y-94195546D02*
G01*
X131992917Y-94193667D01*
X131980537Y-94170506D01*
X131944834Y-94127002D01*
X131994796Y-94127002D01*
X131994796Y-94195546D01*
G37*
X131994796Y-94195546D02*
X131992917Y-94193667D01*
X131980537Y-94170506D01*
X131944834Y-94127002D01*
X131994796Y-94127002D01*
X131994796Y-94195546D01*
G36*
X117911928Y-93475000D02*
G01*
X117924188Y-93599482D01*
X117924546Y-93600663D01*
X117915000Y-93714250D01*
X118007083Y-93806333D01*
X118019463Y-93829494D01*
X118098815Y-93926185D01*
X118188759Y-94000000D01*
X118140019Y-94040000D01*
X116603439Y-94040000D01*
X116601000Y-93631750D01*
X116442250Y-93473000D01*
X115443000Y-93473000D01*
X115443000Y-93493000D01*
X115189000Y-93493000D01*
X115189000Y-93473000D01*
X115169000Y-93473000D01*
X115169000Y-93219000D01*
X115189000Y-93219000D01*
X115189000Y-93199000D01*
X115443000Y-93199000D01*
X115443000Y-93219000D01*
X116442250Y-93219000D01*
X116601000Y-93060250D01*
X116601473Y-92980999D01*
X117911928Y-92980999D01*
X117911928Y-93475000D01*
G37*
X117911928Y-93475000D02*
X117924188Y-93599482D01*
X117924546Y-93600663D01*
X117915000Y-93714250D01*
X118007083Y-93806333D01*
X118019463Y-93829494D01*
X118098815Y-93926185D01*
X118188759Y-94000000D01*
X118140019Y-94040000D01*
X116603439Y-94040000D01*
X116601000Y-93631750D01*
X116442250Y-93473000D01*
X115443000Y-93473000D01*
X115443000Y-93493000D01*
X115189000Y-93493000D01*
X115189000Y-93473000D01*
X115169000Y-93473000D01*
X115169000Y-93219000D01*
X115189000Y-93219000D01*
X115189000Y-93199000D01*
X115443000Y-93199000D01*
X115443000Y-93219000D01*
X116442250Y-93219000D01*
X116601000Y-93060250D01*
X116601473Y-92980999D01*
X117911928Y-92980999D01*
X117911928Y-93475000D01*
G36*
X128600518Y-89675812D02*
G01*
X128725000Y-89688072D01*
X129275000Y-89688072D01*
X129315962Y-89684038D01*
X129311928Y-89725000D01*
X129311928Y-90275000D01*
X129324188Y-90399482D01*
X129324345Y-90400000D01*
X129324188Y-90400518D01*
X129311928Y-90525000D01*
X129311928Y-91075000D01*
X129324188Y-91199482D01*
X129324345Y-91200000D01*
X129324188Y-91200518D01*
X129311928Y-91325000D01*
X129311928Y-91875000D01*
X129324188Y-91999482D01*
X129324345Y-92000000D01*
X129324188Y-92000518D01*
X129311928Y-92125000D01*
X129311928Y-92468422D01*
X129303972Y-92473738D01*
X129173738Y-92603972D01*
X129071414Y-92757111D01*
X129000932Y-92927271D01*
X128965000Y-93107911D01*
X128965000Y-93292089D01*
X129000932Y-93472729D01*
X129071414Y-93642889D01*
X129173738Y-93796028D01*
X129237037Y-93859327D01*
X129064071Y-93893732D01*
X128893911Y-93964214D01*
X128780489Y-94040000D01*
X126407602Y-94040000D01*
X125567601Y-93200000D01*
X126311003Y-92456599D01*
X126340001Y-92432801D01*
X126391554Y-92369984D01*
X126434974Y-92317077D01*
X126505546Y-92185047D01*
X126519210Y-92140001D01*
X126549003Y-92041786D01*
X126560000Y-91930133D01*
X126560000Y-91930123D01*
X126563676Y-91892800D01*
X126560000Y-91855477D01*
X126560000Y-89688072D01*
X126875000Y-89688072D01*
X126999482Y-89675812D01*
X127000000Y-89675655D01*
X127000518Y-89675812D01*
X127125000Y-89688072D01*
X127675000Y-89688072D01*
X127799482Y-89675812D01*
X127800000Y-89675655D01*
X127800518Y-89675812D01*
X127925000Y-89688072D01*
X128475000Y-89688072D01*
X128599482Y-89675812D01*
X128600000Y-89675655D01*
X128600518Y-89675812D01*
G37*
X128600518Y-89675812D02*
X128725000Y-89688072D01*
X129275000Y-89688072D01*
X129315962Y-89684038D01*
X129311928Y-89725000D01*
X129311928Y-90275000D01*
X129324188Y-90399482D01*
X129324345Y-90400000D01*
X129324188Y-90400518D01*
X129311928Y-90525000D01*
X129311928Y-91075000D01*
X129324188Y-91199482D01*
X129324345Y-91200000D01*
X129324188Y-91200518D01*
X129311928Y-91325000D01*
X129311928Y-91875000D01*
X129324188Y-91999482D01*
X129324345Y-92000000D01*
X129324188Y-92000518D01*
X129311928Y-92125000D01*
X129311928Y-92468422D01*
X129303972Y-92473738D01*
X129173738Y-92603972D01*
X129071414Y-92757111D01*
X129000932Y-92927271D01*
X128965000Y-93107911D01*
X128965000Y-93292089D01*
X129000932Y-93472729D01*
X129071414Y-93642889D01*
X129173738Y-93796028D01*
X129237037Y-93859327D01*
X129064071Y-93893732D01*
X128893911Y-93964214D01*
X128780489Y-94040000D01*
X126407602Y-94040000D01*
X125567601Y-93200000D01*
X126311003Y-92456599D01*
X126340001Y-92432801D01*
X126391554Y-92369984D01*
X126434974Y-92317077D01*
X126505546Y-92185047D01*
X126519210Y-92140001D01*
X126549003Y-92041786D01*
X126560000Y-91930133D01*
X126560000Y-91930123D01*
X126563676Y-91892800D01*
X126560000Y-91855477D01*
X126560000Y-89688072D01*
X126875000Y-89688072D01*
X126999482Y-89675812D01*
X127000000Y-89675655D01*
X127000518Y-89675812D01*
X127125000Y-89688072D01*
X127675000Y-89688072D01*
X127799482Y-89675812D01*
X127800000Y-89675655D01*
X127800518Y-89675812D01*
X127925000Y-89688072D01*
X128475000Y-89688072D01*
X128599482Y-89675812D01*
X128600000Y-89675655D01*
X128600518Y-89675812D01*
G36*
X125040000Y-89459982D02*
G01*
X125040001Y-91577997D01*
X124177999Y-92440000D01*
X121683662Y-92440000D01*
X121668374Y-92435362D01*
X121651689Y-92424214D01*
X121481529Y-92353732D01*
X121300889Y-92317800D01*
X121116711Y-92317800D01*
X120936071Y-92353732D01*
X120765911Y-92424214D01*
X120742286Y-92440000D01*
X120688072Y-92440000D01*
X120688072Y-92125000D01*
X120675812Y-92000518D01*
X120675655Y-92000000D01*
X120675812Y-91999482D01*
X120688072Y-91875000D01*
X120688072Y-91325000D01*
X120675812Y-91200518D01*
X120675655Y-91200000D01*
X120675812Y-91199482D01*
X120688072Y-91075000D01*
X120688072Y-90525000D01*
X120675812Y-90400518D01*
X120675655Y-90400000D01*
X120675812Y-90399482D01*
X120688072Y-90275000D01*
X120688072Y-89725000D01*
X120684038Y-89684038D01*
X120725000Y-89688072D01*
X121275000Y-89688072D01*
X121399482Y-89675812D01*
X121400000Y-89675655D01*
X121400518Y-89675812D01*
X121525000Y-89688072D01*
X122075000Y-89688072D01*
X122199482Y-89675812D01*
X122200000Y-89675655D01*
X122200518Y-89675812D01*
X122325000Y-89688072D01*
X122875000Y-89688072D01*
X122999482Y-89675812D01*
X123000000Y-89675655D01*
X123000518Y-89675812D01*
X123125000Y-89688072D01*
X123675000Y-89688072D01*
X123799482Y-89675812D01*
X123800000Y-89675655D01*
X123800518Y-89675812D01*
X123925000Y-89688072D01*
X124475000Y-89688072D01*
X124599482Y-89675812D01*
X124600663Y-89675454D01*
X124714250Y-89685000D01*
X124806333Y-89592917D01*
X124829494Y-89580537D01*
X124926185Y-89501185D01*
X125000000Y-89411241D01*
X125040000Y-89459982D01*
G37*
X125040000Y-89459982D02*
X125040001Y-91577997D01*
X124177999Y-92440000D01*
X121683662Y-92440000D01*
X121668374Y-92435362D01*
X121651689Y-92424214D01*
X121481529Y-92353732D01*
X121300889Y-92317800D01*
X121116711Y-92317800D01*
X120936071Y-92353732D01*
X120765911Y-92424214D01*
X120742286Y-92440000D01*
X120688072Y-92440000D01*
X120688072Y-92125000D01*
X120675812Y-92000518D01*
X120675655Y-92000000D01*
X120675812Y-91999482D01*
X120688072Y-91875000D01*
X120688072Y-91325000D01*
X120675812Y-91200518D01*
X120675655Y-91200000D01*
X120675812Y-91199482D01*
X120688072Y-91075000D01*
X120688072Y-90525000D01*
X120675812Y-90400518D01*
X120675655Y-90400000D01*
X120675812Y-90399482D01*
X120688072Y-90275000D01*
X120688072Y-89725000D01*
X120684038Y-89684038D01*
X120725000Y-89688072D01*
X121275000Y-89688072D01*
X121399482Y-89675812D01*
X121400000Y-89675655D01*
X121400518Y-89675812D01*
X121525000Y-89688072D01*
X122075000Y-89688072D01*
X122199482Y-89675812D01*
X122200000Y-89675655D01*
X122200518Y-89675812D01*
X122325000Y-89688072D01*
X122875000Y-89688072D01*
X122999482Y-89675812D01*
X123000000Y-89675655D01*
X123000518Y-89675812D01*
X123125000Y-89688072D01*
X123675000Y-89688072D01*
X123799482Y-89675812D01*
X123800000Y-89675655D01*
X123800518Y-89675812D01*
X123925000Y-89688072D01*
X124475000Y-89688072D01*
X124599482Y-89675812D01*
X124600663Y-89675454D01*
X124714250Y-89685000D01*
X124806333Y-89592917D01*
X124829494Y-89580537D01*
X124926185Y-89501185D01*
X125000000Y-89411241D01*
X125040000Y-89459982D01*
G36*
X108803599Y-91340400D02*
G01*
X104713672Y-91340400D01*
X104713672Y-90640800D01*
X104701412Y-90516318D01*
X104665102Y-90396620D01*
X104606137Y-90286306D01*
X104552378Y-90220800D01*
X104606137Y-90155294D01*
X104665102Y-90044980D01*
X104701412Y-89925282D01*
X104713672Y-89800800D01*
X104713672Y-89710800D01*
X110433198Y-89710800D01*
X108803599Y-91340400D01*
G37*
X108803599Y-91340400D02*
X104713672Y-91340400D01*
X104713672Y-90640800D01*
X104701412Y-90516318D01*
X104665102Y-90396620D01*
X104606137Y-90286306D01*
X104552378Y-90220800D01*
X104606137Y-90155294D01*
X104665102Y-90044980D01*
X104701412Y-89925282D01*
X104713672Y-89800800D01*
X104713672Y-89710800D01*
X110433198Y-89710800D01*
X108803599Y-91340400D01*
G36*
X122035911Y-83886586D02*
G01*
X122080813Y-83905185D01*
X120081199Y-85904800D01*
X118361129Y-85904800D01*
X118323804Y-85901124D01*
X118286479Y-85904800D01*
X118286471Y-85904800D01*
X118174818Y-85915797D01*
X118031557Y-85959254D01*
X117899528Y-86029826D01*
X117783803Y-86124799D01*
X117760005Y-86153797D01*
X116082773Y-87831029D01*
X115991462Y-87694372D01*
X115861228Y-87564138D01*
X115708089Y-87461814D01*
X115537929Y-87391332D01*
X115357289Y-87355400D01*
X115173111Y-87355400D01*
X115027555Y-87384353D01*
X114085000Y-86441799D01*
X114085000Y-85110000D01*
X114102002Y-85110000D01*
X114102002Y-85030252D01*
X114181750Y-85110000D01*
X114289326Y-85097675D01*
X114408127Y-85058529D01*
X114517008Y-84996959D01*
X114611785Y-84915330D01*
X114688816Y-84816780D01*
X114745141Y-84705095D01*
X114778594Y-84584567D01*
X114787892Y-84459829D01*
X114785000Y-84410750D01*
X114626252Y-84252002D01*
X114785000Y-84252002D01*
X114785000Y-84190019D01*
X114819463Y-84254494D01*
X114898815Y-84351185D01*
X114995506Y-84430537D01*
X115105820Y-84489502D01*
X115225518Y-84525812D01*
X115350000Y-84538072D01*
X117150000Y-84538072D01*
X117274482Y-84525812D01*
X117394180Y-84489502D01*
X117504494Y-84430537D01*
X117601185Y-84351185D01*
X117680537Y-84254494D01*
X117739502Y-84144180D01*
X117745056Y-84125873D01*
X117811495Y-84192312D01*
X118062905Y-84360299D01*
X118342257Y-84476011D01*
X118638816Y-84535000D01*
X118941184Y-84535000D01*
X119237743Y-84476011D01*
X119517095Y-84360299D01*
X119768505Y-84192312D01*
X119982312Y-83978505D01*
X120089558Y-83818000D01*
X121933265Y-83818000D01*
X122035911Y-83886586D01*
G37*
X122035911Y-83886586D02*
X122080813Y-83905185D01*
X120081199Y-85904800D01*
X118361129Y-85904800D01*
X118323804Y-85901124D01*
X118286479Y-85904800D01*
X118286471Y-85904800D01*
X118174818Y-85915797D01*
X118031557Y-85959254D01*
X117899528Y-86029826D01*
X117783803Y-86124799D01*
X117760005Y-86153797D01*
X116082773Y-87831029D01*
X115991462Y-87694372D01*
X115861228Y-87564138D01*
X115708089Y-87461814D01*
X115537929Y-87391332D01*
X115357289Y-87355400D01*
X115173111Y-87355400D01*
X115027555Y-87384353D01*
X114085000Y-86441799D01*
X114085000Y-85110000D01*
X114102002Y-85110000D01*
X114102002Y-85030252D01*
X114181750Y-85110000D01*
X114289326Y-85097675D01*
X114408127Y-85058529D01*
X114517008Y-84996959D01*
X114611785Y-84915330D01*
X114688816Y-84816780D01*
X114745141Y-84705095D01*
X114778594Y-84584567D01*
X114787892Y-84459829D01*
X114785000Y-84410750D01*
X114626252Y-84252002D01*
X114785000Y-84252002D01*
X114785000Y-84190019D01*
X114819463Y-84254494D01*
X114898815Y-84351185D01*
X114995506Y-84430537D01*
X115105820Y-84489502D01*
X115225518Y-84525812D01*
X115350000Y-84538072D01*
X117150000Y-84538072D01*
X117274482Y-84525812D01*
X117394180Y-84489502D01*
X117504494Y-84430537D01*
X117601185Y-84351185D01*
X117680537Y-84254494D01*
X117739502Y-84144180D01*
X117745056Y-84125873D01*
X117811495Y-84192312D01*
X118062905Y-84360299D01*
X118342257Y-84476011D01*
X118638816Y-84535000D01*
X118941184Y-84535000D01*
X119237743Y-84476011D01*
X119517095Y-84360299D01*
X119768505Y-84192312D01*
X119982312Y-83978505D01*
X120089558Y-83818000D01*
X121933265Y-83818000D01*
X122035911Y-83886586D01*
G36*
X128155820Y-65589502D02*
G01*
X128240000Y-65615038D01*
X128240001Y-81606797D01*
X126848352Y-82998447D01*
X126727271Y-83022532D01*
X126557111Y-83093014D01*
X126403972Y-83195338D01*
X126273738Y-83325572D01*
X126171414Y-83478711D01*
X126100932Y-83648871D01*
X126065000Y-83829511D01*
X126065000Y-84013689D01*
X126100932Y-84194329D01*
X126171414Y-84364489D01*
X126273738Y-84517628D01*
X126320838Y-84564728D01*
X126123550Y-84564728D01*
X125951515Y-84581672D01*
X125786091Y-84631853D01*
X125633636Y-84713342D01*
X125500008Y-84823008D01*
X125390342Y-84956636D01*
X125308853Y-85109091D01*
X125258672Y-85274515D01*
X125241728Y-85446550D01*
X125241728Y-86359050D01*
X125257630Y-86520507D01*
X125236202Y-86546617D01*
X125236201Y-86546618D01*
X125165026Y-86633344D01*
X125094454Y-86765374D01*
X125069700Y-86846980D01*
X125050998Y-86908634D01*
X125046230Y-86957046D01*
X125036324Y-87057620D01*
X125040001Y-87094952D01*
X125040001Y-87140018D01*
X125000000Y-87188759D01*
X124926185Y-87098815D01*
X124829494Y-87019463D01*
X124806333Y-87007083D01*
X124714250Y-86915000D01*
X124600663Y-86924546D01*
X124599482Y-86924188D01*
X124475000Y-86911928D01*
X123925000Y-86911928D01*
X123800518Y-86924188D01*
X123800000Y-86924345D01*
X123799482Y-86924188D01*
X123675000Y-86911928D01*
X123360000Y-86911928D01*
X123360000Y-85412011D01*
X126765940Y-82006072D01*
X127342000Y-82006072D01*
X127466482Y-81993812D01*
X127586180Y-81957502D01*
X127696494Y-81898537D01*
X127793185Y-81819185D01*
X127872537Y-81722494D01*
X127931502Y-81612180D01*
X127967812Y-81492482D01*
X127980072Y-81368000D01*
X127980072Y-79668000D01*
X127967812Y-79543518D01*
X127931502Y-79423820D01*
X127872537Y-79313506D01*
X127793185Y-79216815D01*
X127696494Y-79137463D01*
X127586180Y-79078498D01*
X127466482Y-79042188D01*
X127342000Y-79029928D01*
X125642000Y-79029928D01*
X125517518Y-79042188D01*
X125397820Y-79078498D01*
X125287506Y-79137463D01*
X125190815Y-79216815D01*
X125111463Y-79313506D01*
X125052498Y-79423820D01*
X125016188Y-79543518D01*
X125003928Y-79668000D01*
X125003928Y-81368000D01*
X125016188Y-81492482D01*
X125042660Y-81579748D01*
X124762800Y-81859608D01*
X124762800Y-81063535D01*
X124831386Y-80960889D01*
X124901868Y-80790729D01*
X124937800Y-80610089D01*
X124937800Y-80425911D01*
X124901868Y-80245271D01*
X124831386Y-80075111D01*
X124729062Y-79921972D01*
X124598828Y-79791738D01*
X124445689Y-79689414D01*
X124275529Y-79618932D01*
X124094889Y-79583000D01*
X123910711Y-79583000D01*
X123730071Y-79618932D01*
X123559911Y-79689414D01*
X123406772Y-79791738D01*
X123276538Y-79921972D01*
X123174214Y-80075111D01*
X123103732Y-80245271D01*
X123067800Y-80425911D01*
X123067800Y-80610089D01*
X123103732Y-80790729D01*
X123174214Y-80960889D01*
X123242800Y-81063536D01*
X123242801Y-82518452D01*
X123205062Y-82461972D01*
X123074828Y-82331738D01*
X122921689Y-82229414D01*
X122751529Y-82158932D01*
X122570889Y-82123000D01*
X122386711Y-82123000D01*
X122206071Y-82158932D01*
X122035911Y-82229414D01*
X121933265Y-82298000D01*
X120160694Y-82298000D01*
X120150299Y-82272905D01*
X119982312Y-82021495D01*
X119768505Y-81807688D01*
X119517095Y-81639701D01*
X119237743Y-81523989D01*
X118941184Y-81465000D01*
X118638816Y-81465000D01*
X118342257Y-81523989D01*
X118062905Y-81639701D01*
X117811495Y-81807688D01*
X117745056Y-81874127D01*
X117739502Y-81855820D01*
X117680537Y-81745506D01*
X117601185Y-81648815D01*
X117504494Y-81569463D01*
X117394180Y-81510498D01*
X117274482Y-81474188D01*
X117150000Y-81461928D01*
X115449592Y-81461928D01*
X115459975Y-81449276D01*
X115530547Y-81317246D01*
X115539835Y-81286626D01*
X115574004Y-81173985D01*
X115585001Y-81062332D01*
X115585001Y-81062322D01*
X115588677Y-81024999D01*
X115585001Y-80987676D01*
X115585001Y-78313872D01*
X116280250Y-78313872D01*
X116452285Y-78296928D01*
X116617709Y-78246747D01*
X116733227Y-78185001D01*
X121927677Y-78185001D01*
X121964999Y-78188677D01*
X122002321Y-78185001D01*
X122002332Y-78185001D01*
X122113985Y-78174004D01*
X122257246Y-78130547D01*
X122389275Y-78059975D01*
X122505000Y-77965002D01*
X122528803Y-77935998D01*
X127432503Y-73032299D01*
X127461501Y-73008501D01*
X127487832Y-72976417D01*
X127556474Y-72892777D01*
X127627046Y-72760747D01*
X127670503Y-72617486D01*
X127681500Y-72505833D01*
X127681500Y-72505823D01*
X127685176Y-72468500D01*
X127681500Y-72431177D01*
X127681500Y-69544645D01*
X127788792Y-69456592D01*
X127898458Y-69322964D01*
X127979947Y-69170509D01*
X128030128Y-69005085D01*
X128047072Y-68833050D01*
X128047072Y-68725204D01*
X128053676Y-68712849D01*
X128118577Y-68498901D01*
X128135000Y-68332154D01*
X128135000Y-65578373D01*
X128155820Y-65589502D01*
G37*
X128155820Y-65589502D02*
X128240000Y-65615038D01*
X128240001Y-81606797D01*
X126848352Y-82998447D01*
X126727271Y-83022532D01*
X126557111Y-83093014D01*
X126403972Y-83195338D01*
X126273738Y-83325572D01*
X126171414Y-83478711D01*
X126100932Y-83648871D01*
X126065000Y-83829511D01*
X126065000Y-84013689D01*
X126100932Y-84194329D01*
X126171414Y-84364489D01*
X126273738Y-84517628D01*
X126320838Y-84564728D01*
X126123550Y-84564728D01*
X125951515Y-84581672D01*
X125786091Y-84631853D01*
X125633636Y-84713342D01*
X125500008Y-84823008D01*
X125390342Y-84956636D01*
X125308853Y-85109091D01*
X125258672Y-85274515D01*
X125241728Y-85446550D01*
X125241728Y-86359050D01*
X125257630Y-86520507D01*
X125236202Y-86546617D01*
X125236201Y-86546618D01*
X125165026Y-86633344D01*
X125094454Y-86765374D01*
X125069700Y-86846980D01*
X125050998Y-86908634D01*
X125046230Y-86957046D01*
X125036324Y-87057620D01*
X125040001Y-87094952D01*
X125040001Y-87140018D01*
X125000000Y-87188759D01*
X124926185Y-87098815D01*
X124829494Y-87019463D01*
X124806333Y-87007083D01*
X124714250Y-86915000D01*
X124600663Y-86924546D01*
X124599482Y-86924188D01*
X124475000Y-86911928D01*
X123925000Y-86911928D01*
X123800518Y-86924188D01*
X123800000Y-86924345D01*
X123799482Y-86924188D01*
X123675000Y-86911928D01*
X123360000Y-86911928D01*
X123360000Y-85412011D01*
X126765940Y-82006072D01*
X127342000Y-82006072D01*
X127466482Y-81993812D01*
X127586180Y-81957502D01*
X127696494Y-81898537D01*
X127793185Y-81819185D01*
X127872537Y-81722494D01*
X127931502Y-81612180D01*
X127967812Y-81492482D01*
X127980072Y-81368000D01*
X127980072Y-79668000D01*
X127967812Y-79543518D01*
X127931502Y-79423820D01*
X127872537Y-79313506D01*
X127793185Y-79216815D01*
X127696494Y-79137463D01*
X127586180Y-79078498D01*
X127466482Y-79042188D01*
X127342000Y-79029928D01*
X125642000Y-79029928D01*
X125517518Y-79042188D01*
X125397820Y-79078498D01*
X125287506Y-79137463D01*
X125190815Y-79216815D01*
X125111463Y-79313506D01*
X125052498Y-79423820D01*
X125016188Y-79543518D01*
X125003928Y-79668000D01*
X125003928Y-81368000D01*
X125016188Y-81492482D01*
X125042660Y-81579748D01*
X124762800Y-81859608D01*
X124762800Y-81063535D01*
X124831386Y-80960889D01*
X124901868Y-80790729D01*
X124937800Y-80610089D01*
X124937800Y-80425911D01*
X124901868Y-80245271D01*
X124831386Y-80075111D01*
X124729062Y-79921972D01*
X124598828Y-79791738D01*
X124445689Y-79689414D01*
X124275529Y-79618932D01*
X124094889Y-79583000D01*
X123910711Y-79583000D01*
X123730071Y-79618932D01*
X123559911Y-79689414D01*
X123406772Y-79791738D01*
X123276538Y-79921972D01*
X123174214Y-80075111D01*
X123103732Y-80245271D01*
X123067800Y-80425911D01*
X123067800Y-80610089D01*
X123103732Y-80790729D01*
X123174214Y-80960889D01*
X123242800Y-81063536D01*
X123242801Y-82518452D01*
X123205062Y-82461972D01*
X123074828Y-82331738D01*
X122921689Y-82229414D01*
X122751529Y-82158932D01*
X122570889Y-82123000D01*
X122386711Y-82123000D01*
X122206071Y-82158932D01*
X122035911Y-82229414D01*
X121933265Y-82298000D01*
X120160694Y-82298000D01*
X120150299Y-82272905D01*
X119982312Y-82021495D01*
X119768505Y-81807688D01*
X119517095Y-81639701D01*
X119237743Y-81523989D01*
X118941184Y-81465000D01*
X118638816Y-81465000D01*
X118342257Y-81523989D01*
X118062905Y-81639701D01*
X117811495Y-81807688D01*
X117745056Y-81874127D01*
X117739502Y-81855820D01*
X117680537Y-81745506D01*
X117601185Y-81648815D01*
X117504494Y-81569463D01*
X117394180Y-81510498D01*
X117274482Y-81474188D01*
X117150000Y-81461928D01*
X115449592Y-81461928D01*
X115459975Y-81449276D01*
X115530547Y-81317246D01*
X115539835Y-81286626D01*
X115574004Y-81173985D01*
X115585001Y-81062332D01*
X115585001Y-81062322D01*
X115588677Y-81024999D01*
X115585001Y-80987676D01*
X115585001Y-78313872D01*
X116280250Y-78313872D01*
X116452285Y-78296928D01*
X116617709Y-78246747D01*
X116733227Y-78185001D01*
X121927677Y-78185001D01*
X121964999Y-78188677D01*
X122002321Y-78185001D01*
X122002332Y-78185001D01*
X122113985Y-78174004D01*
X122257246Y-78130547D01*
X122389275Y-78059975D01*
X122505000Y-77965002D01*
X122528803Y-77935998D01*
X127432503Y-73032299D01*
X127461501Y-73008501D01*
X127487832Y-72976417D01*
X127556474Y-72892777D01*
X127627046Y-72760747D01*
X127670503Y-72617486D01*
X127681500Y-72505833D01*
X127681500Y-72505823D01*
X127685176Y-72468500D01*
X127681500Y-72431177D01*
X127681500Y-69544645D01*
X127788792Y-69456592D01*
X127898458Y-69322964D01*
X127979947Y-69170509D01*
X128030128Y-69005085D01*
X128047072Y-68833050D01*
X128047072Y-68725204D01*
X128053676Y-68712849D01*
X128118577Y-68498901D01*
X128135000Y-68332154D01*
X128135000Y-65578373D01*
X128155820Y-65589502D01*
G36*
X130664999Y-86167810D02*
G01*
X129344060Y-86167810D01*
X129206050Y-86029800D01*
X128369300Y-86029800D01*
X128369300Y-86049800D01*
X128115300Y-86049800D01*
X128115300Y-86029800D01*
X128095300Y-86029800D01*
X128095300Y-85775800D01*
X128115300Y-85775800D01*
X128115300Y-85755800D01*
X128369300Y-85755800D01*
X128369300Y-85775800D01*
X129206050Y-85775800D01*
X129364800Y-85617050D01*
X129367872Y-85202800D01*
X129355612Y-85078318D01*
X129319302Y-84958620D01*
X129260337Y-84848306D01*
X129208465Y-84785100D01*
X130609808Y-83383759D01*
X130638801Y-83359965D01*
X130662595Y-83330972D01*
X130662599Y-83330968D01*
X130664999Y-83328043D01*
X130664999Y-86167810D01*
G37*
X130664999Y-86167810D02*
X129344060Y-86167810D01*
X129206050Y-86029800D01*
X128369300Y-86029800D01*
X128369300Y-86049800D01*
X128115300Y-86049800D01*
X128115300Y-86029800D01*
X128095300Y-86029800D01*
X128095300Y-85775800D01*
X128115300Y-85775800D01*
X128115300Y-85755800D01*
X128369300Y-85755800D01*
X128369300Y-85775800D01*
X129206050Y-85775800D01*
X129364800Y-85617050D01*
X129367872Y-85202800D01*
X129355612Y-85078318D01*
X129319302Y-84958620D01*
X129260337Y-84848306D01*
X129208465Y-84785100D01*
X130609808Y-83383759D01*
X130638801Y-83359965D01*
X130662595Y-83330972D01*
X130662599Y-83330968D01*
X130664999Y-83328043D01*
X130664999Y-86167810D01*
G36*
X114065001Y-80710197D02*
G01*
X113888270Y-80886928D01*
X113800000Y-80886928D01*
X113675518Y-80899188D01*
X113651717Y-80906408D01*
X113639326Y-80902325D01*
X113531750Y-80890000D01*
X113452002Y-80969748D01*
X113452002Y-80890000D01*
X113330968Y-80890000D01*
X113309974Y-80850724D01*
X113284925Y-80820202D01*
X113238799Y-80763996D01*
X113238795Y-80763992D01*
X113215001Y-80734999D01*
X113186009Y-80711206D01*
X112469200Y-79994399D01*
X112469200Y-78191201D01*
X112712102Y-77948300D01*
X114065002Y-77948300D01*
X114065001Y-80710197D01*
G37*
X114065001Y-80710197D02*
X113888270Y-80886928D01*
X113800000Y-80886928D01*
X113675518Y-80899188D01*
X113651717Y-80906408D01*
X113639326Y-80902325D01*
X113531750Y-80890000D01*
X113452002Y-80969748D01*
X113452002Y-80890000D01*
X113330968Y-80890000D01*
X113309974Y-80850724D01*
X113284925Y-80820202D01*
X113238799Y-80763996D01*
X113238795Y-80763992D01*
X113215001Y-80734999D01*
X113186009Y-80711206D01*
X112469200Y-79994399D01*
X112469200Y-78191201D01*
X112712102Y-77948300D01*
X114065002Y-77948300D01*
X114065001Y-80710197D01*
M02*
