G04 #@! TF.FileFunction,Legend,Top*
%FSLAX46Y46*%
G04 Gerber Fmt 4.6, Leading zero omitted, Abs format (unit mm)*
G04 Created by KiCad (PCBNEW 4.0.7-e2-6376~58~ubuntu16.04.1) date Sat Sep  1 12:55:08 2018*
%MOMM*%
%LPD*%
G01*
G04 APERTURE LIST*
%ADD10C,0.100000*%
%ADD11C,0.500000*%
%ADD12C,0.120000*%
%ADD13C,0.150000*%
%ADD14C,0.203200*%
%ADD15C,1.000000*%
%ADD16C,0.125000*%
%ADD17C,0.025400*%
G04 APERTURE END LIST*
D10*
D11*
X108178743Y-128027086D02*
X110464457Y-128027086D01*
X124333143Y-127925486D02*
X126618857Y-127925486D01*
X125476000Y-129068343D02*
X125476000Y-126782629D01*
D12*
X115500000Y-65850000D02*
X116500000Y-65850000D01*
X116500000Y-64150000D02*
X115500000Y-64150000D01*
X112912000Y-64608000D02*
X112912000Y-63408000D01*
X114672000Y-63408000D02*
X114672000Y-64608000D01*
X119091600Y-65643200D02*
X119091600Y-66843200D01*
X117331600Y-66843200D02*
X117331600Y-65643200D01*
D13*
X134000000Y-64000000D02*
X134000000Y-48000000D01*
X134000000Y-48000000D02*
X118000000Y-48000000D01*
X118000000Y-48000000D02*
X118000000Y-64000000D01*
X118000000Y-64000000D02*
X134000000Y-64000000D01*
D12*
X119472000Y-106594800D02*
X118272000Y-106594800D01*
X118272000Y-104834800D02*
X119472000Y-104834800D01*
X123080400Y-104864800D02*
X122080400Y-104864800D01*
X122080400Y-106564800D02*
X123080400Y-106564800D01*
X103538400Y-106869600D02*
X104538400Y-106869600D01*
X104538400Y-105169600D02*
X103538400Y-105169600D01*
X107043600Y-106869600D02*
X108043600Y-106869600D01*
X108043600Y-105169600D02*
X107043600Y-105169600D01*
X114974000Y-75750800D02*
X114974000Y-76750800D01*
X116674000Y-76750800D02*
X116674000Y-75750800D01*
X111869600Y-92239200D02*
X112869600Y-92239200D01*
X112869600Y-90539200D02*
X111869600Y-90539200D01*
X111869600Y-99351200D02*
X112869600Y-99351200D01*
X112869600Y-97651200D02*
X111869600Y-97651200D01*
X125484000Y-67702800D02*
X126484000Y-67702800D01*
X126484000Y-66002800D02*
X125484000Y-66002800D01*
X127804800Y-85408400D02*
X126804800Y-85408400D01*
X126804800Y-87108400D02*
X127804800Y-87108400D01*
D13*
X119825000Y-88825000D02*
X119825000Y-89400000D01*
X130175000Y-88825000D02*
X130175000Y-89500000D01*
X130175000Y-99175000D02*
X130175000Y-98500000D01*
X119825000Y-99175000D02*
X119825000Y-98500000D01*
X119825000Y-88825000D02*
X120500000Y-88825000D01*
X119825000Y-99175000D02*
X120500000Y-99175000D01*
X130175000Y-99175000D02*
X129500000Y-99175000D01*
X130175000Y-88825000D02*
X129500000Y-88825000D01*
X119825000Y-89400000D02*
X118550000Y-89400000D01*
D12*
X126076400Y-80730400D02*
X128736400Y-80730400D01*
X126076400Y-80670400D02*
X126076400Y-80730400D01*
X128736400Y-80670400D02*
X128736400Y-80730400D01*
X126076400Y-80670400D02*
X128736400Y-80670400D01*
X126076400Y-79400400D02*
X126076400Y-78070400D01*
X126076400Y-78070400D02*
X127406400Y-78070400D01*
X128870000Y-103330000D02*
X128870000Y-100670000D01*
X126270000Y-103330000D02*
X128870000Y-103330000D01*
X126270000Y-100670000D02*
X128870000Y-100670000D01*
X126270000Y-103330000D02*
X126270000Y-100670000D01*
X125000000Y-103330000D02*
X123670000Y-103330000D01*
X123670000Y-103330000D02*
X123670000Y-102000000D01*
X118830400Y-101863200D02*
X118830400Y-99203200D01*
X116230400Y-101863200D02*
X118830400Y-101863200D01*
X116230400Y-99203200D02*
X118830400Y-99203200D01*
X116230400Y-101863200D02*
X116230400Y-99203200D01*
X114960400Y-101863200D02*
X113630400Y-101863200D01*
X113630400Y-101863200D02*
X113630400Y-100533200D01*
X104790800Y-105070800D02*
X103590800Y-105070800D01*
X103590800Y-103310800D02*
X104790800Y-103310800D01*
X112589200Y-104810000D02*
X112589200Y-106010000D01*
X110829200Y-106010000D02*
X110829200Y-104810000D01*
X110172000Y-97745200D02*
X114872000Y-97745200D01*
X114872000Y-97745200D02*
X114872000Y-92145200D01*
X119192335Y-81921392D02*
G75*
G03X115960000Y-81764484I-1672335J-1078608D01*
G01*
X119192335Y-84078608D02*
G75*
G02X115960000Y-84235516I-1672335J1078608D01*
G01*
X118561130Y-81920163D02*
G75*
G03X116479039Y-81920000I-1041130J-1079837D01*
G01*
X118561130Y-84079837D02*
G75*
G02X116479039Y-84080000I-1041130J1079837D01*
G01*
X115960000Y-81764000D02*
X115960000Y-81920000D01*
X115960000Y-84080000D02*
X115960000Y-84236000D01*
D13*
X111750000Y-81750000D02*
X114250000Y-81750000D01*
X111750000Y-84250000D02*
X111750000Y-81750000D01*
X114250000Y-84250000D02*
X111750000Y-84250000D01*
X114250000Y-81750000D02*
X114250000Y-84250000D01*
X114000000Y-83500000D02*
G75*
G03X114000000Y-83500000I-250000J0D01*
G01*
D12*
X101184400Y-102676000D02*
X103844400Y-102676000D01*
X101184400Y-102616000D02*
X101184400Y-102676000D01*
X103844400Y-102616000D02*
X103844400Y-102676000D01*
X101184400Y-102616000D02*
X103844400Y-102616000D01*
X101184400Y-101346000D02*
X101184400Y-100016000D01*
X101184400Y-100016000D02*
X102514400Y-100016000D01*
X108042400Y-87893200D02*
X110702400Y-87893200D01*
X108042400Y-87833200D02*
X108042400Y-87893200D01*
X110702400Y-87833200D02*
X110702400Y-87893200D01*
X108042400Y-87833200D02*
X110702400Y-87833200D01*
X108042400Y-86563200D02*
X108042400Y-85233200D01*
X108042400Y-85233200D02*
X109372400Y-85233200D01*
X122672800Y-81848000D02*
X125332800Y-81848000D01*
X122672800Y-81788000D02*
X122672800Y-81848000D01*
X125332800Y-81788000D02*
X125332800Y-81848000D01*
X122672800Y-81788000D02*
X125332800Y-81788000D01*
X122672800Y-80518000D02*
X122672800Y-79188000D01*
X122672800Y-79188000D02*
X124002800Y-79188000D01*
X102403600Y-89671200D02*
X105063600Y-89671200D01*
X102403600Y-89611200D02*
X102403600Y-89671200D01*
X105063600Y-89611200D02*
X105063600Y-89671200D01*
X102403600Y-89611200D02*
X105063600Y-89611200D01*
X102403600Y-88341200D02*
X102403600Y-87011200D01*
X102403600Y-87011200D02*
X103733600Y-87011200D01*
X130953200Y-86724800D02*
X133613200Y-86724800D01*
X130953200Y-86664800D02*
X130953200Y-86724800D01*
X133613200Y-86664800D02*
X133613200Y-86724800D01*
X130953200Y-86664800D02*
X133613200Y-86664800D01*
X130953200Y-85394800D02*
X130953200Y-84064800D01*
X130953200Y-84064800D02*
X132283200Y-84064800D01*
X120962800Y-127697600D02*
X121962800Y-127697600D01*
X121962800Y-125997600D02*
X120962800Y-125997600D01*
X125484000Y-69226800D02*
X126484000Y-69226800D01*
X126484000Y-67526800D02*
X125484000Y-67526800D01*
X108042400Y-90179200D02*
X110702400Y-90179200D01*
X108042400Y-90119200D02*
X108042400Y-90179200D01*
X110702400Y-90119200D02*
X110702400Y-90179200D01*
X108042400Y-90119200D02*
X110702400Y-90119200D01*
X108042400Y-88849200D02*
X108042400Y-87519200D01*
X108042400Y-87519200D02*
X109372400Y-87519200D01*
D14*
X118142000Y-123207000D02*
X118142000Y-126128000D01*
X118142000Y-126128000D02*
X131858000Y-126128000D01*
X131858000Y-126128000D02*
X131858000Y-123207000D01*
X103142000Y-123207000D02*
X103142000Y-126128000D01*
X103142000Y-126128000D02*
X116858000Y-126128000D01*
X116858000Y-126128000D02*
X116858000Y-123207000D01*
D15*
X103000000Y-131000000D02*
X103000000Y-130500000D01*
X103000000Y-130500000D02*
X103000000Y-130000000D01*
X103000000Y-130000000D02*
X116000000Y-130000000D01*
X116000000Y-130000000D02*
X116000000Y-132000000D01*
X116000000Y-132000000D02*
X103000000Y-132000000D01*
X103000000Y-132000000D02*
X103000000Y-131000000D01*
X119000000Y-131000000D02*
X119000000Y-130500000D01*
X119000000Y-130500000D02*
X119000000Y-130000000D01*
X119000000Y-130000000D02*
X132000000Y-130000000D01*
X132000000Y-130000000D02*
X132000000Y-132000000D01*
X132000000Y-132000000D02*
X119000000Y-132000000D01*
X119000000Y-132000000D02*
X119000000Y-131000000D01*
D13*
X116384343Y-63158666D02*
X116431962Y-63206285D01*
X116479581Y-63349142D01*
X116479581Y-63444380D01*
X116431962Y-63587238D01*
X116336724Y-63682476D01*
X116241486Y-63730095D01*
X116051010Y-63777714D01*
X115908152Y-63777714D01*
X115717676Y-63730095D01*
X115622438Y-63682476D01*
X115527200Y-63587238D01*
X115479581Y-63444380D01*
X115479581Y-63349142D01*
X115527200Y-63206285D01*
X115574819Y-63158666D01*
X115479581Y-62825333D02*
X115479581Y-62158666D01*
X116479581Y-62587238D01*
X114904781Y-61736266D02*
X114904781Y-62212457D01*
X113904781Y-62212457D01*
X114904781Y-60879123D02*
X114904781Y-61450552D01*
X114904781Y-61164838D02*
X113904781Y-61164838D01*
X114047638Y-61260076D01*
X114142876Y-61355314D01*
X114190495Y-61450552D01*
X118663981Y-69051466D02*
X118663981Y-69527657D01*
X117663981Y-69527657D01*
X117759219Y-68765752D02*
X117711600Y-68718133D01*
X117663981Y-68622895D01*
X117663981Y-68384799D01*
X117711600Y-68289561D01*
X117759219Y-68241942D01*
X117854457Y-68194323D01*
X117949695Y-68194323D01*
X118092552Y-68241942D01*
X118663981Y-68813371D01*
X118663981Y-68194323D01*
X116800381Y-56489505D02*
X117609905Y-56489505D01*
X117705143Y-56441886D01*
X117752762Y-56394267D01*
X117800381Y-56299029D01*
X117800381Y-56108552D01*
X117752762Y-56013314D01*
X117705143Y-55965695D01*
X117609905Y-55918076D01*
X116800381Y-55918076D01*
X116895619Y-55489505D02*
X116848000Y-55441886D01*
X116800381Y-55346648D01*
X116800381Y-55108552D01*
X116848000Y-55013314D01*
X116895619Y-54965695D01*
X116990857Y-54918076D01*
X117086095Y-54918076D01*
X117228952Y-54965695D01*
X117800381Y-55537124D01*
X117800381Y-54918076D01*
X118705334Y-104517181D02*
X118372000Y-104040990D01*
X118133905Y-104517181D02*
X118133905Y-103517181D01*
X118514858Y-103517181D01*
X118610096Y-103564800D01*
X118657715Y-103612419D01*
X118705334Y-103707657D01*
X118705334Y-103850514D01*
X118657715Y-103945752D01*
X118610096Y-103993371D01*
X118514858Y-104040990D01*
X118133905Y-104040990D01*
X119657715Y-104517181D02*
X119086286Y-104517181D01*
X119372000Y-104517181D02*
X119372000Y-103517181D01*
X119276762Y-103660038D01*
X119181524Y-103755276D01*
X119086286Y-103802895D01*
X122413734Y-104571943D02*
X122366115Y-104619562D01*
X122223258Y-104667181D01*
X122128020Y-104667181D01*
X121985162Y-104619562D01*
X121889924Y-104524324D01*
X121842305Y-104429086D01*
X121794686Y-104238610D01*
X121794686Y-104095752D01*
X121842305Y-103905276D01*
X121889924Y-103810038D01*
X121985162Y-103714800D01*
X122128020Y-103667181D01*
X122223258Y-103667181D01*
X122366115Y-103714800D01*
X122413734Y-103762419D01*
X123366115Y-104667181D02*
X122794686Y-104667181D01*
X123080400Y-104667181D02*
X123080400Y-103667181D01*
X122985162Y-103810038D01*
X122889924Y-103905276D01*
X122794686Y-103952895D01*
X101941334Y-107951543D02*
X101893715Y-107999162D01*
X101750858Y-108046781D01*
X101655620Y-108046781D01*
X101512762Y-107999162D01*
X101417524Y-107903924D01*
X101369905Y-107808686D01*
X101322286Y-107618210D01*
X101322286Y-107475352D01*
X101369905Y-107284876D01*
X101417524Y-107189638D01*
X101512762Y-107094400D01*
X101655620Y-107046781D01*
X101750858Y-107046781D01*
X101893715Y-107094400D01*
X101941334Y-107142019D01*
X102322286Y-107142019D02*
X102369905Y-107094400D01*
X102465143Y-107046781D01*
X102703239Y-107046781D01*
X102798477Y-107094400D01*
X102846096Y-107142019D01*
X102893715Y-107237257D01*
X102893715Y-107332495D01*
X102846096Y-107475352D01*
X102274667Y-108046781D01*
X102893715Y-108046781D01*
X109815334Y-107392743D02*
X109767715Y-107440362D01*
X109624858Y-107487981D01*
X109529620Y-107487981D01*
X109386762Y-107440362D01*
X109291524Y-107345124D01*
X109243905Y-107249886D01*
X109196286Y-107059410D01*
X109196286Y-106916552D01*
X109243905Y-106726076D01*
X109291524Y-106630838D01*
X109386762Y-106535600D01*
X109529620Y-106487981D01*
X109624858Y-106487981D01*
X109767715Y-106535600D01*
X109815334Y-106583219D01*
X110148667Y-106487981D02*
X110767715Y-106487981D01*
X110434381Y-106868933D01*
X110577239Y-106868933D01*
X110672477Y-106916552D01*
X110720096Y-106964171D01*
X110767715Y-107059410D01*
X110767715Y-107297505D01*
X110720096Y-107392743D01*
X110672477Y-107440362D01*
X110577239Y-107487981D01*
X110291524Y-107487981D01*
X110196286Y-107440362D01*
X110148667Y-107392743D01*
X114681143Y-76417466D02*
X114728762Y-76465085D01*
X114776381Y-76607942D01*
X114776381Y-76703180D01*
X114728762Y-76846038D01*
X114633524Y-76941276D01*
X114538286Y-76988895D01*
X114347810Y-77036514D01*
X114204952Y-77036514D01*
X114014476Y-76988895D01*
X113919238Y-76941276D01*
X113824000Y-76846038D01*
X113776381Y-76703180D01*
X113776381Y-76607942D01*
X113824000Y-76465085D01*
X113871619Y-76417466D01*
X113776381Y-75560323D02*
X113776381Y-75750800D01*
X113824000Y-75846038D01*
X113871619Y-75893657D01*
X114014476Y-75988895D01*
X114204952Y-76036514D01*
X114585905Y-76036514D01*
X114681143Y-75988895D01*
X114728762Y-75941276D01*
X114776381Y-75846038D01*
X114776381Y-75655561D01*
X114728762Y-75560323D01*
X114681143Y-75512704D01*
X114585905Y-75465085D01*
X114347810Y-75465085D01*
X114252571Y-75512704D01*
X114204952Y-75560323D01*
X114157333Y-75655561D01*
X114157333Y-75846038D01*
X114204952Y-75941276D01*
X114252571Y-75988895D01*
X114347810Y-76036514D01*
X114895334Y-91136743D02*
X114847715Y-91184362D01*
X114704858Y-91231981D01*
X114609620Y-91231981D01*
X114466762Y-91184362D01*
X114371524Y-91089124D01*
X114323905Y-90993886D01*
X114276286Y-90803410D01*
X114276286Y-90660552D01*
X114323905Y-90470076D01*
X114371524Y-90374838D01*
X114466762Y-90279600D01*
X114609620Y-90231981D01*
X114704858Y-90231981D01*
X114847715Y-90279600D01*
X114895334Y-90327219D01*
X115466762Y-90660552D02*
X115371524Y-90612933D01*
X115323905Y-90565314D01*
X115276286Y-90470076D01*
X115276286Y-90422457D01*
X115323905Y-90327219D01*
X115371524Y-90279600D01*
X115466762Y-90231981D01*
X115657239Y-90231981D01*
X115752477Y-90279600D01*
X115800096Y-90327219D01*
X115847715Y-90422457D01*
X115847715Y-90470076D01*
X115800096Y-90565314D01*
X115752477Y-90612933D01*
X115657239Y-90660552D01*
X115466762Y-90660552D01*
X115371524Y-90708171D01*
X115323905Y-90755790D01*
X115276286Y-90851029D01*
X115276286Y-91041505D01*
X115323905Y-91136743D01*
X115371524Y-91184362D01*
X115466762Y-91231981D01*
X115657239Y-91231981D01*
X115752477Y-91184362D01*
X115800096Y-91136743D01*
X115847715Y-91041505D01*
X115847715Y-90851029D01*
X115800096Y-90755790D01*
X115752477Y-90708171D01*
X115657239Y-90660552D01*
X112202934Y-100358343D02*
X112155315Y-100405962D01*
X112012458Y-100453581D01*
X111917220Y-100453581D01*
X111774362Y-100405962D01*
X111679124Y-100310724D01*
X111631505Y-100215486D01*
X111583886Y-100025010D01*
X111583886Y-99882152D01*
X111631505Y-99691676D01*
X111679124Y-99596438D01*
X111774362Y-99501200D01*
X111917220Y-99453581D01*
X112012458Y-99453581D01*
X112155315Y-99501200D01*
X112202934Y-99548819D01*
X112679124Y-100453581D02*
X112869600Y-100453581D01*
X112964839Y-100405962D01*
X113012458Y-100358343D01*
X113107696Y-100215486D01*
X113155315Y-100025010D01*
X113155315Y-99644057D01*
X113107696Y-99548819D01*
X113060077Y-99501200D01*
X112964839Y-99453581D01*
X112774362Y-99453581D01*
X112679124Y-99501200D01*
X112631505Y-99548819D01*
X112583886Y-99644057D01*
X112583886Y-99882152D01*
X112631505Y-99977390D01*
X112679124Y-100025010D01*
X112774362Y-100072629D01*
X112964839Y-100072629D01*
X113060077Y-100025010D01*
X113107696Y-99977390D01*
X113155315Y-99882152D01*
X128541543Y-67159143D02*
X128493924Y-67206762D01*
X128351067Y-67254381D01*
X128255829Y-67254381D01*
X128112971Y-67206762D01*
X128017733Y-67111524D01*
X127970114Y-67016286D01*
X127922495Y-66825810D01*
X127922495Y-66682952D01*
X127970114Y-66492476D01*
X128017733Y-66397238D01*
X128112971Y-66302000D01*
X128255829Y-66254381D01*
X128351067Y-66254381D01*
X128493924Y-66302000D01*
X128541543Y-66349619D01*
X129493924Y-67254381D02*
X128922495Y-67254381D01*
X129208209Y-67254381D02*
X129208209Y-66254381D01*
X129112971Y-66397238D01*
X129017733Y-66492476D01*
X128922495Y-66540095D01*
X129874876Y-66349619D02*
X129922495Y-66302000D01*
X130017733Y-66254381D01*
X130255829Y-66254381D01*
X130351067Y-66302000D01*
X130398686Y-66349619D01*
X130446305Y-66444857D01*
X130446305Y-66540095D01*
X130398686Y-66682952D01*
X129827257Y-67254381D01*
X130446305Y-67254381D01*
X124071143Y-85091543D02*
X124023524Y-85139162D01*
X123880667Y-85186781D01*
X123785429Y-85186781D01*
X123642571Y-85139162D01*
X123547333Y-85043924D01*
X123499714Y-84948686D01*
X123452095Y-84758210D01*
X123452095Y-84615352D01*
X123499714Y-84424876D01*
X123547333Y-84329638D01*
X123642571Y-84234400D01*
X123785429Y-84186781D01*
X123880667Y-84186781D01*
X124023524Y-84234400D01*
X124071143Y-84282019D01*
X125023524Y-85186781D02*
X124452095Y-85186781D01*
X124737809Y-85186781D02*
X124737809Y-84186781D01*
X124642571Y-84329638D01*
X124547333Y-84424876D01*
X124452095Y-84472495D01*
X125928286Y-84186781D02*
X125452095Y-84186781D01*
X125404476Y-84662971D01*
X125452095Y-84615352D01*
X125547333Y-84567733D01*
X125785429Y-84567733D01*
X125880667Y-84615352D01*
X125928286Y-84662971D01*
X125975905Y-84758210D01*
X125975905Y-84996305D01*
X125928286Y-85091543D01*
X125880667Y-85139162D01*
X125785429Y-85186781D01*
X125547333Y-85186781D01*
X125452095Y-85139162D01*
X125404476Y-85091543D01*
X118364095Y-86117181D02*
X118364095Y-86926705D01*
X118411714Y-87021943D01*
X118459333Y-87069562D01*
X118554571Y-87117181D01*
X118745048Y-87117181D01*
X118840286Y-87069562D01*
X118887905Y-87021943D01*
X118935524Y-86926705D01*
X118935524Y-86117181D01*
X119316476Y-86117181D02*
X119935524Y-86117181D01*
X119602190Y-86498133D01*
X119745048Y-86498133D01*
X119840286Y-86545752D01*
X119887905Y-86593371D01*
X119935524Y-86688610D01*
X119935524Y-86926705D01*
X119887905Y-87021943D01*
X119840286Y-87069562D01*
X119745048Y-87117181D01*
X119459333Y-87117181D01*
X119364095Y-87069562D01*
X119316476Y-87021943D01*
X127612877Y-76312781D02*
X127612877Y-77027067D01*
X127565257Y-77169924D01*
X127470019Y-77265162D01*
X127327162Y-77312781D01*
X127231924Y-77312781D01*
X128612877Y-77312781D02*
X128041448Y-77312781D01*
X128327162Y-77312781D02*
X128327162Y-76312781D01*
X128231924Y-76455638D01*
X128136686Y-76550876D01*
X128041448Y-76598495D01*
X129565258Y-77312781D02*
X128993829Y-77312781D01*
X129279543Y-77312781D02*
X129279543Y-76312781D01*
X129184305Y-76455638D01*
X129089067Y-76550876D01*
X128993829Y-76598495D01*
X125174477Y-103947981D02*
X125174477Y-104662267D01*
X125126857Y-104805124D01*
X125031619Y-104900362D01*
X124888762Y-104947981D01*
X124793524Y-104947981D01*
X126174477Y-104947981D02*
X125603048Y-104947981D01*
X125888762Y-104947981D02*
X125888762Y-103947981D01*
X125793524Y-104090838D01*
X125698286Y-104186076D01*
X125603048Y-104233695D01*
X126555429Y-104043219D02*
X126603048Y-103995600D01*
X126698286Y-103947981D01*
X126936382Y-103947981D01*
X127031620Y-103995600D01*
X127079239Y-104043219D01*
X127126858Y-104138457D01*
X127126858Y-104233695D01*
X127079239Y-104376552D01*
X126507810Y-104947981D01*
X127126858Y-104947981D01*
X113439677Y-102474781D02*
X113439677Y-103189067D01*
X113392057Y-103331924D01*
X113296819Y-103427162D01*
X113153962Y-103474781D01*
X113058724Y-103474781D01*
X114439677Y-103474781D02*
X113868248Y-103474781D01*
X114153962Y-103474781D02*
X114153962Y-102474781D01*
X114058724Y-102617638D01*
X113963486Y-102712876D01*
X113868248Y-102760495D01*
X114773010Y-102474781D02*
X115392058Y-102474781D01*
X115058724Y-102855733D01*
X115201582Y-102855733D01*
X115296820Y-102903352D01*
X115344439Y-102950971D01*
X115392058Y-103046210D01*
X115392058Y-103284305D01*
X115344439Y-103379543D01*
X115296820Y-103427162D01*
X115201582Y-103474781D01*
X114915867Y-103474781D01*
X114820629Y-103427162D01*
X114773010Y-103379543D01*
X101636534Y-104643181D02*
X101303200Y-104166990D01*
X101065105Y-104643181D02*
X101065105Y-103643181D01*
X101446058Y-103643181D01*
X101541296Y-103690800D01*
X101588915Y-103738419D01*
X101636534Y-103833657D01*
X101636534Y-103976514D01*
X101588915Y-104071752D01*
X101541296Y-104119371D01*
X101446058Y-104166990D01*
X101065105Y-104166990D01*
X102017486Y-103738419D02*
X102065105Y-103690800D01*
X102160343Y-103643181D01*
X102398439Y-103643181D01*
X102493677Y-103690800D01*
X102541296Y-103738419D01*
X102588915Y-103833657D01*
X102588915Y-103928895D01*
X102541296Y-104071752D01*
X101969867Y-104643181D01*
X102588915Y-104643181D01*
X110511581Y-105576666D02*
X110035390Y-105910000D01*
X110511581Y-106148095D02*
X109511581Y-106148095D01*
X109511581Y-105767142D01*
X109559200Y-105671904D01*
X109606819Y-105624285D01*
X109702057Y-105576666D01*
X109844914Y-105576666D01*
X109940152Y-105624285D01*
X109987771Y-105671904D01*
X110035390Y-105767142D01*
X110035390Y-106148095D01*
X109511581Y-105243333D02*
X109511581Y-104624285D01*
X109892533Y-104957619D01*
X109892533Y-104814761D01*
X109940152Y-104719523D01*
X109987771Y-104671904D01*
X110083010Y-104624285D01*
X110321105Y-104624285D01*
X110416343Y-104671904D01*
X110463962Y-104719523D01*
X110511581Y-104814761D01*
X110511581Y-105100476D01*
X110463962Y-105195714D01*
X110416343Y-105243333D01*
X109348190Y-95421391D02*
X109824381Y-95421391D01*
X108824381Y-95754724D02*
X109348190Y-95421391D01*
X108824381Y-95088057D01*
X109824381Y-94230914D02*
X109824381Y-94802343D01*
X109824381Y-94516629D02*
X108824381Y-94516629D01*
X108967238Y-94611867D01*
X109062476Y-94707105D01*
X109110095Y-94802343D01*
X118794305Y-81071981D02*
X118794305Y-80071981D01*
X119032400Y-80071981D01*
X119175258Y-80119600D01*
X119270496Y-80214838D01*
X119318115Y-80310076D01*
X119365734Y-80500552D01*
X119365734Y-80643410D01*
X119318115Y-80833886D01*
X119270496Y-80929124D01*
X119175258Y-81024362D01*
X119032400Y-81071981D01*
X118794305Y-81071981D01*
X120318115Y-81071981D02*
X119746686Y-81071981D01*
X120032400Y-81071981D02*
X120032400Y-80071981D01*
X119937162Y-80214838D01*
X119841924Y-80310076D01*
X119746686Y-80357695D01*
D16*
X114377190Y-83457143D02*
X114781952Y-83457143D01*
X114829571Y-83428571D01*
X114853381Y-83400000D01*
X114877190Y-83342857D01*
X114877190Y-83228571D01*
X114853381Y-83171429D01*
X114829571Y-83142857D01*
X114781952Y-83114286D01*
X114377190Y-83114286D01*
X114877190Y-82514286D02*
X114877190Y-82857143D01*
X114877190Y-82685715D02*
X114377190Y-82685715D01*
X114448619Y-82742858D01*
X114496238Y-82800000D01*
X114520048Y-82857143D01*
D13*
X104721067Y-100087181D02*
X104721067Y-100801467D01*
X104673447Y-100944324D01*
X104578209Y-101039562D01*
X104435352Y-101087181D01*
X104340114Y-101087181D01*
X105625829Y-100087181D02*
X105435352Y-100087181D01*
X105340114Y-100134800D01*
X105292495Y-100182419D01*
X105197257Y-100325276D01*
X105149638Y-100515752D01*
X105149638Y-100896705D01*
X105197257Y-100991943D01*
X105244876Y-101039562D01*
X105340114Y-101087181D01*
X105530591Y-101087181D01*
X105625829Y-101039562D01*
X105673448Y-100991943D01*
X105721067Y-100896705D01*
X105721067Y-100658610D01*
X105673448Y-100563371D01*
X105625829Y-100515752D01*
X105530591Y-100468133D01*
X105340114Y-100468133D01*
X105244876Y-100515752D01*
X105197257Y-100563371D01*
X105149638Y-100658610D01*
X111731467Y-85101181D02*
X111731467Y-85815467D01*
X111683847Y-85958324D01*
X111588609Y-86053562D01*
X111445752Y-86101181D01*
X111350514Y-86101181D01*
X112112419Y-85101181D02*
X112779086Y-85101181D01*
X112350514Y-86101181D01*
X123669467Y-77640381D02*
X123669467Y-78354667D01*
X123621847Y-78497524D01*
X123526609Y-78592762D01*
X123383752Y-78640381D01*
X123288514Y-78640381D01*
X124288514Y-78068952D02*
X124193276Y-78021333D01*
X124145657Y-77973714D01*
X124098038Y-77878476D01*
X124098038Y-77830857D01*
X124145657Y-77735619D01*
X124193276Y-77688000D01*
X124288514Y-77640381D01*
X124478991Y-77640381D01*
X124574229Y-77688000D01*
X124621848Y-77735619D01*
X124669467Y-77830857D01*
X124669467Y-77878476D01*
X124621848Y-77973714D01*
X124574229Y-78021333D01*
X124478991Y-78068952D01*
X124288514Y-78068952D01*
X124193276Y-78116571D01*
X124145657Y-78164190D01*
X124098038Y-78259429D01*
X124098038Y-78449905D01*
X124145657Y-78545143D01*
X124193276Y-78592762D01*
X124288514Y-78640381D01*
X124478991Y-78640381D01*
X124574229Y-78592762D01*
X124621848Y-78545143D01*
X124669467Y-78449905D01*
X124669467Y-78259429D01*
X124621848Y-78164190D01*
X124574229Y-78116571D01*
X124478991Y-78068952D01*
X103400267Y-85463581D02*
X103400267Y-86177867D01*
X103352647Y-86320724D01*
X103257409Y-86415962D01*
X103114552Y-86463581D01*
X103019314Y-86463581D01*
X103924076Y-86463581D02*
X104114552Y-86463581D01*
X104209791Y-86415962D01*
X104257410Y-86368343D01*
X104352648Y-86225486D01*
X104400267Y-86035010D01*
X104400267Y-85654057D01*
X104352648Y-85558819D01*
X104305029Y-85511200D01*
X104209791Y-85463581D01*
X104019314Y-85463581D01*
X103924076Y-85511200D01*
X103876457Y-85558819D01*
X103828838Y-85654057D01*
X103828838Y-85892152D01*
X103876457Y-85987390D01*
X103924076Y-86035010D01*
X104019314Y-86082629D01*
X104209791Y-86082629D01*
X104305029Y-86035010D01*
X104352648Y-85987390D01*
X104400267Y-85892152D01*
X131473677Y-82517181D02*
X131473677Y-83231467D01*
X131426057Y-83374324D01*
X131330819Y-83469562D01*
X131187962Y-83517181D01*
X131092724Y-83517181D01*
X132473677Y-83517181D02*
X131902248Y-83517181D01*
X132187962Y-83517181D02*
X132187962Y-82517181D01*
X132092724Y-82660038D01*
X131997486Y-82755276D01*
X131902248Y-82802895D01*
X133092724Y-82517181D02*
X133187963Y-82517181D01*
X133283201Y-82564800D01*
X133330820Y-82612419D01*
X133378439Y-82707657D01*
X133426058Y-82898133D01*
X133426058Y-83136229D01*
X133378439Y-83326705D01*
X133330820Y-83421943D01*
X133283201Y-83469562D01*
X133187963Y-83517181D01*
X133092724Y-83517181D01*
X132997486Y-83469562D01*
X132949867Y-83421943D01*
X132902248Y-83326705D01*
X132854629Y-83136229D01*
X132854629Y-82898133D01*
X132902248Y-82707657D01*
X132949867Y-82612419D01*
X132997486Y-82564800D01*
X133092724Y-82517181D01*
X117517943Y-127407943D02*
X117470324Y-127455562D01*
X117327467Y-127503181D01*
X117232229Y-127503181D01*
X117089371Y-127455562D01*
X116994133Y-127360324D01*
X116946514Y-127265086D01*
X116898895Y-127074610D01*
X116898895Y-126931752D01*
X116946514Y-126741276D01*
X116994133Y-126646038D01*
X117089371Y-126550800D01*
X117232229Y-126503181D01*
X117327467Y-126503181D01*
X117470324Y-126550800D01*
X117517943Y-126598419D01*
X118470324Y-127503181D02*
X117898895Y-127503181D01*
X118184609Y-127503181D02*
X118184609Y-126503181D01*
X118089371Y-126646038D01*
X117994133Y-126741276D01*
X117898895Y-126788895D01*
X119422705Y-127503181D02*
X118851276Y-127503181D01*
X119136990Y-127503181D02*
X119136990Y-126503181D01*
X119041752Y-126646038D01*
X118946514Y-126741276D01*
X118851276Y-126788895D01*
X125766534Y-70410343D02*
X125718915Y-70457962D01*
X125576058Y-70505581D01*
X125480820Y-70505581D01*
X125337962Y-70457962D01*
X125242724Y-70362724D01*
X125195105Y-70267486D01*
X125147486Y-70077010D01*
X125147486Y-69934152D01*
X125195105Y-69743676D01*
X125242724Y-69648438D01*
X125337962Y-69553200D01*
X125480820Y-69505581D01*
X125576058Y-69505581D01*
X125718915Y-69553200D01*
X125766534Y-69600819D01*
X126623677Y-69838914D02*
X126623677Y-70505581D01*
X126385581Y-69457962D02*
X126147486Y-70172248D01*
X126766534Y-70172248D01*
X111680667Y-88047581D02*
X111680667Y-88761867D01*
X111633047Y-88904724D01*
X111537809Y-88999962D01*
X111394952Y-89047581D01*
X111299714Y-89047581D01*
X112633048Y-88047581D02*
X112156857Y-88047581D01*
X112109238Y-88523771D01*
X112156857Y-88476152D01*
X112252095Y-88428533D01*
X112490191Y-88428533D01*
X112585429Y-88476152D01*
X112633048Y-88523771D01*
X112680667Y-88619010D01*
X112680667Y-88857105D01*
X112633048Y-88952343D01*
X112585429Y-88999962D01*
X112490191Y-89047581D01*
X112252095Y-89047581D01*
X112156857Y-88999962D01*
X112109238Y-88952343D01*
D17*
X117495048Y-126017867D02*
X117785333Y-126017867D01*
X117843390Y-126037219D01*
X117882095Y-126075924D01*
X117901448Y-126133981D01*
X117901448Y-126172686D01*
X117630514Y-125650172D02*
X117901448Y-125650172D01*
X117475695Y-125746934D02*
X117765981Y-125843695D01*
X117765981Y-125592115D01*
X117901448Y-124665619D02*
X117707924Y-124801085D01*
X117901448Y-124897847D02*
X117495048Y-124897847D01*
X117495048Y-124743028D01*
X117514400Y-124704323D01*
X117533752Y-124684971D01*
X117572457Y-124665619D01*
X117630514Y-124665619D01*
X117669219Y-124684971D01*
X117688571Y-124704323D01*
X117707924Y-124743028D01*
X117707924Y-124897847D01*
X117785333Y-124510799D02*
X117785333Y-124317276D01*
X117901448Y-124549504D02*
X117495048Y-124414038D01*
X117901448Y-124278571D01*
X117901448Y-124143104D02*
X117495048Y-124143104D01*
X117901448Y-123949580D02*
X117495048Y-123949580D01*
X117901448Y-123717352D01*
X117495048Y-123717352D01*
X102495048Y-126017867D02*
X102785333Y-126017867D01*
X102843390Y-126037219D01*
X102882095Y-126075924D01*
X102901448Y-126133981D01*
X102901448Y-126172686D01*
X102901448Y-125611467D02*
X102901448Y-125843695D01*
X102901448Y-125727581D02*
X102495048Y-125727581D01*
X102553105Y-125766286D01*
X102591810Y-125804991D01*
X102611162Y-125843695D01*
X102495048Y-124994609D02*
X102901448Y-124897847D01*
X102611162Y-124820437D01*
X102901448Y-124743028D01*
X102495048Y-124646266D01*
X102901448Y-124491447D02*
X102495048Y-124491447D01*
X102901448Y-124297923D02*
X102495048Y-124297923D01*
X102901448Y-124065695D01*
X102495048Y-124065695D01*
X102901448Y-123872171D02*
X102495048Y-123872171D01*
X102495048Y-123775409D01*
X102514400Y-123717352D01*
X102553105Y-123678647D01*
X102591810Y-123659295D01*
X102669219Y-123639943D01*
X102727276Y-123639943D01*
X102804686Y-123659295D01*
X102843390Y-123678647D01*
X102882095Y-123717352D01*
X102901448Y-123775409D01*
X102901448Y-123872171D01*
D13*
X102993867Y-128128781D02*
X102993867Y-128843067D01*
X102946247Y-128985924D01*
X102851009Y-129081162D01*
X102708152Y-129128781D01*
X102612914Y-129128781D01*
X103422438Y-128224019D02*
X103470057Y-128176400D01*
X103565295Y-128128781D01*
X103803391Y-128128781D01*
X103898629Y-128176400D01*
X103946248Y-128224019D01*
X103993867Y-128319257D01*
X103993867Y-128414495D01*
X103946248Y-128557352D01*
X103374819Y-129128781D01*
X103993867Y-129128781D01*
X118993867Y-128128781D02*
X118993867Y-128843067D01*
X118946247Y-128985924D01*
X118851009Y-129081162D01*
X118708152Y-129128781D01*
X118612914Y-129128781D01*
X119374819Y-128128781D02*
X119993867Y-128128781D01*
X119660533Y-128509733D01*
X119803391Y-128509733D01*
X119898629Y-128557352D01*
X119946248Y-128604971D01*
X119993867Y-128700210D01*
X119993867Y-128938305D01*
X119946248Y-129033543D01*
X119898629Y-129081162D01*
X119803391Y-129128781D01*
X119517676Y-129128781D01*
X119422438Y-129081162D01*
X119374819Y-129033543D01*
X112129867Y-48715467D02*
X112129867Y-48239276D01*
X112415581Y-48810705D02*
X111415581Y-48477372D01*
X112415581Y-48144038D01*
X111891771Y-47810705D02*
X111891771Y-47477371D01*
X112415581Y-47334514D02*
X112415581Y-47810705D01*
X111415581Y-47810705D01*
X111415581Y-47334514D01*
X112415581Y-46382133D02*
X112415581Y-46953562D01*
X112415581Y-46667848D02*
X111415581Y-46667848D01*
X111558438Y-46763086D01*
X111653676Y-46858324D01*
X111701295Y-46953562D01*
M02*
