G04 #@! TF.GenerationSoftware,KiCad,Pcbnew,5.0.2-bee76a0~70~ubuntu18.04.1*
G04 #@! TF.CreationDate,2019-02-20T16:39:47+02:00*
G04 #@! TF.ProjectId,weerstasie,77656572-7374-4617-9369-652e6b696361,rev?*
G04 #@! TF.SameCoordinates,Original*
G04 #@! TF.FileFunction,Soldermask,Bot*
G04 #@! TF.FilePolarity,Negative*
%FSLAX46Y46*%
G04 Gerber Fmt 4.6, Leading zero omitted, Abs format (unit mm)*
G04 Created by KiCad (PCBNEW 5.0.2-bee76a0~70~ubuntu18.04.1) date Wed 20 Feb 2019 16:39:47 SAST*
%MOMM*%
%LPD*%
G01*
G04 APERTURE LIST*
%ADD10C,0.100000*%
G04 APERTURE END LIST*
D10*
G36*
X132200000Y-132200000D02*
X118800000Y-132200000D01*
X118800000Y-129800000D01*
X132200000Y-129800000D01*
X132200000Y-132200000D01*
X132200000Y-132200000D01*
G37*
G36*
X116200000Y-132200000D02*
X102800000Y-132200000D01*
X102800000Y-129800000D01*
X116200000Y-129800000D01*
X116200000Y-132200000D01*
X116200000Y-132200000D01*
G37*
G36*
X115989122Y-116246115D02*
X116105041Y-116269173D01*
X116432620Y-116404861D01*
X116723511Y-116599228D01*
X116727436Y-116601851D01*
X116978149Y-116852564D01*
X117175140Y-117147382D01*
X117310827Y-117474960D01*
X117377402Y-117809653D01*
X117384515Y-117833103D01*
X117396066Y-117854713D01*
X117411612Y-117873655D01*
X117430554Y-117889201D01*
X117452165Y-117900752D01*
X117475614Y-117907865D01*
X117500000Y-117910267D01*
X117524386Y-117907865D01*
X117547836Y-117900752D01*
X117569446Y-117889201D01*
X117588388Y-117873655D01*
X117603934Y-117854713D01*
X117615485Y-117833102D01*
X117622598Y-117809653D01*
X117689173Y-117474960D01*
X117824860Y-117147382D01*
X118021851Y-116852564D01*
X118272564Y-116601851D01*
X118276489Y-116599228D01*
X118567380Y-116404861D01*
X118894959Y-116269173D01*
X119010878Y-116246115D01*
X119242714Y-116200000D01*
X119597286Y-116200000D01*
X119829122Y-116246115D01*
X119945041Y-116269173D01*
X120272620Y-116404861D01*
X120563511Y-116599228D01*
X120567436Y-116601851D01*
X120818149Y-116852564D01*
X121015140Y-117147382D01*
X121150827Y-117474960D01*
X121220000Y-117822714D01*
X121220000Y-118177286D01*
X121150827Y-118525040D01*
X121015140Y-118852618D01*
X120818149Y-119147436D01*
X120567436Y-119398149D01*
X120567433Y-119398151D01*
X120272620Y-119595139D01*
X119945041Y-119730827D01*
X119829122Y-119753885D01*
X119597286Y-119800000D01*
X119242714Y-119800000D01*
X119010878Y-119753885D01*
X118894959Y-119730827D01*
X118567380Y-119595139D01*
X118272567Y-119398151D01*
X118272564Y-119398149D01*
X118021851Y-119147436D01*
X117824860Y-118852618D01*
X117689173Y-118525040D01*
X117622598Y-118190347D01*
X117615485Y-118166897D01*
X117603934Y-118145287D01*
X117588388Y-118126345D01*
X117569446Y-118110799D01*
X117547835Y-118099248D01*
X117524386Y-118092135D01*
X117500000Y-118089733D01*
X117475614Y-118092135D01*
X117452164Y-118099248D01*
X117430554Y-118110799D01*
X117411612Y-118126345D01*
X117396066Y-118145287D01*
X117384515Y-118166898D01*
X117377402Y-118190347D01*
X117310827Y-118525040D01*
X117175140Y-118852618D01*
X116978149Y-119147436D01*
X116727436Y-119398149D01*
X116727433Y-119398151D01*
X116432620Y-119595139D01*
X116105041Y-119730827D01*
X115989122Y-119753885D01*
X115757286Y-119800000D01*
X115402714Y-119800000D01*
X115170878Y-119753885D01*
X115054959Y-119730827D01*
X114727380Y-119595139D01*
X114432567Y-119398151D01*
X114432564Y-119398149D01*
X114181851Y-119147436D01*
X113984860Y-118852618D01*
X113849173Y-118525040D01*
X113780000Y-118177286D01*
X113780000Y-117822714D01*
X113849173Y-117474960D01*
X113984860Y-117147382D01*
X114181851Y-116852564D01*
X114432564Y-116601851D01*
X114436489Y-116599228D01*
X114727380Y-116404861D01*
X115054959Y-116269173D01*
X115170878Y-116246115D01*
X115402714Y-116200000D01*
X115757286Y-116200000D01*
X115989122Y-116246115D01*
X115989122Y-116246115D01*
G37*
G36*
X105829122Y-116246115D02*
X105945041Y-116269173D01*
X106272620Y-116404861D01*
X106563511Y-116599228D01*
X106567436Y-116601851D01*
X106818149Y-116852564D01*
X107015140Y-117147382D01*
X107150827Y-117474960D01*
X107220000Y-117822714D01*
X107220000Y-118177286D01*
X107150827Y-118525040D01*
X107015140Y-118852618D01*
X106818149Y-119147436D01*
X106567436Y-119398149D01*
X106567433Y-119398151D01*
X106272620Y-119595139D01*
X105945041Y-119730827D01*
X105829122Y-119753885D01*
X105597286Y-119800000D01*
X105242714Y-119800000D01*
X105010878Y-119753885D01*
X104894959Y-119730827D01*
X104567380Y-119595139D01*
X104272567Y-119398151D01*
X104272564Y-119398149D01*
X104021851Y-119147436D01*
X103824860Y-118852618D01*
X103689173Y-118525040D01*
X103620000Y-118177286D01*
X103620000Y-117822714D01*
X103689173Y-117474960D01*
X103824860Y-117147382D01*
X104021851Y-116852564D01*
X104272564Y-116601851D01*
X104276489Y-116599228D01*
X104567380Y-116404861D01*
X104894959Y-116269173D01*
X105010878Y-116246115D01*
X105242714Y-116200000D01*
X105597286Y-116200000D01*
X105829122Y-116246115D01*
X105829122Y-116246115D01*
G37*
G36*
X129989122Y-116246115D02*
X130105041Y-116269173D01*
X130432620Y-116404861D01*
X130723511Y-116599228D01*
X130727436Y-116601851D01*
X130978149Y-116852564D01*
X131175140Y-117147382D01*
X131310827Y-117474960D01*
X131380000Y-117822714D01*
X131380000Y-118177286D01*
X131310827Y-118525040D01*
X131175140Y-118852618D01*
X130978149Y-119147436D01*
X130727436Y-119398149D01*
X130727433Y-119398151D01*
X130432620Y-119595139D01*
X130105041Y-119730827D01*
X129989122Y-119753885D01*
X129757286Y-119800000D01*
X129402714Y-119800000D01*
X129170878Y-119753885D01*
X129054959Y-119730827D01*
X128727380Y-119595139D01*
X128432567Y-119398151D01*
X128432564Y-119398149D01*
X128181851Y-119147436D01*
X127984860Y-118852618D01*
X127849173Y-118525040D01*
X127780000Y-118177286D01*
X127780000Y-117822714D01*
X127849173Y-117474960D01*
X127984860Y-117147382D01*
X128181851Y-116852564D01*
X128432564Y-116601851D01*
X128436489Y-116599228D01*
X128727380Y-116404861D01*
X129054959Y-116269173D01*
X129170878Y-116246115D01*
X129402714Y-116200000D01*
X129757286Y-116200000D01*
X129989122Y-116246115D01*
X129989122Y-116246115D01*
G37*
G36*
X126050000Y-103050000D02*
X123950000Y-103050000D01*
X123950000Y-100950000D01*
X126050000Y-100950000D01*
X126050000Y-103050000D01*
X126050000Y-103050000D01*
G37*
G36*
X127668707Y-100957596D02*
X127745836Y-100965193D01*
X127877787Y-101005220D01*
X127943763Y-101025233D01*
X128126172Y-101122733D01*
X128286054Y-101253946D01*
X128417267Y-101413828D01*
X128514767Y-101596237D01*
X128514767Y-101596238D01*
X128574807Y-101794164D01*
X128595080Y-102000000D01*
X128574807Y-102205836D01*
X128534780Y-102337787D01*
X128514767Y-102403763D01*
X128417267Y-102586172D01*
X128286054Y-102746054D01*
X128126172Y-102877267D01*
X127943763Y-102974767D01*
X127877787Y-102994780D01*
X127745836Y-103034807D01*
X127668707Y-103042404D01*
X127591580Y-103050000D01*
X127488420Y-103050000D01*
X127411293Y-103042404D01*
X127334164Y-103034807D01*
X127202213Y-102994780D01*
X127136237Y-102974767D01*
X126953828Y-102877267D01*
X126793946Y-102746054D01*
X126662733Y-102586172D01*
X126565233Y-102403763D01*
X126545220Y-102337787D01*
X126505193Y-102205836D01*
X126484920Y-102000000D01*
X126505193Y-101794164D01*
X126565233Y-101596238D01*
X126565233Y-101596237D01*
X126662733Y-101413828D01*
X126793946Y-101253946D01*
X126953828Y-101122733D01*
X127136237Y-101025233D01*
X127202213Y-101005220D01*
X127334164Y-100965193D01*
X127411293Y-100957596D01*
X127488420Y-100950000D01*
X127591580Y-100950000D01*
X127668707Y-100957596D01*
X127668707Y-100957596D01*
G37*
G36*
X103564400Y-102396000D02*
X101464400Y-102396000D01*
X101464400Y-100296000D01*
X103564400Y-100296000D01*
X103564400Y-102396000D01*
X103564400Y-102396000D01*
G37*
G36*
X116010400Y-101583200D02*
X113910400Y-101583200D01*
X113910400Y-99483200D01*
X116010400Y-99483200D01*
X116010400Y-101583200D01*
X116010400Y-101583200D01*
G37*
G36*
X117629107Y-99490796D02*
X117706236Y-99498393D01*
X117838187Y-99538420D01*
X117904163Y-99558433D01*
X118086572Y-99655933D01*
X118246454Y-99787146D01*
X118377667Y-99947028D01*
X118475167Y-100129437D01*
X118475167Y-100129438D01*
X118535207Y-100327364D01*
X118555480Y-100533200D01*
X118535207Y-100739036D01*
X118495180Y-100870987D01*
X118475167Y-100936963D01*
X118377667Y-101119372D01*
X118246454Y-101279254D01*
X118086572Y-101410467D01*
X117904163Y-101507967D01*
X117838187Y-101527980D01*
X117706236Y-101568007D01*
X117629107Y-101575604D01*
X117551980Y-101583200D01*
X117448820Y-101583200D01*
X117371693Y-101575604D01*
X117294564Y-101568007D01*
X117162613Y-101527980D01*
X117096637Y-101507967D01*
X116914228Y-101410467D01*
X116754346Y-101279254D01*
X116623133Y-101119372D01*
X116525633Y-100936963D01*
X116505620Y-100870987D01*
X116465593Y-100739036D01*
X116445320Y-100533200D01*
X116465593Y-100327364D01*
X116525633Y-100129438D01*
X116525633Y-100129437D01*
X116623133Y-99947028D01*
X116754346Y-99787146D01*
X116914228Y-99655933D01*
X117096637Y-99558433D01*
X117162613Y-99538420D01*
X117294564Y-99498393D01*
X117371693Y-99490796D01*
X117448820Y-99483200D01*
X117551980Y-99483200D01*
X117629107Y-99490796D01*
X117629107Y-99490796D01*
G37*
G36*
X107144800Y-99192000D02*
X105744800Y-99192000D01*
X105744800Y-96042000D01*
X107144800Y-96042000D01*
X107144800Y-99192000D01*
X107144800Y-99192000D01*
G37*
G36*
X103144800Y-99192000D02*
X101744800Y-99192000D01*
X101744800Y-96042000D01*
X103144800Y-96042000D01*
X103144800Y-99192000D01*
X103144800Y-99192000D01*
G37*
G36*
X130670697Y-96267997D02*
X130723353Y-96283970D01*
X130771865Y-96309900D01*
X130814396Y-96344804D01*
X130849300Y-96387335D01*
X130875230Y-96435847D01*
X130891203Y-96488503D01*
X130897200Y-96549390D01*
X130897200Y-97349610D01*
X130891203Y-97410497D01*
X130875230Y-97463153D01*
X130849300Y-97511665D01*
X130814396Y-97554196D01*
X130771865Y-97589100D01*
X130723353Y-97615030D01*
X130670697Y-97631003D01*
X130609810Y-97637000D01*
X129384590Y-97637000D01*
X129323703Y-97631003D01*
X129271047Y-97615030D01*
X129222535Y-97589100D01*
X129180004Y-97554196D01*
X129145100Y-97511665D01*
X129119170Y-97463153D01*
X129103197Y-97410497D01*
X129097200Y-97349610D01*
X129097200Y-96549390D01*
X129103197Y-96488503D01*
X129119170Y-96435847D01*
X129145100Y-96387335D01*
X129180004Y-96344804D01*
X129222535Y-96309900D01*
X129271047Y-96283970D01*
X129323703Y-96267997D01*
X129384590Y-96262000D01*
X130609810Y-96262000D01*
X130670697Y-96267997D01*
X130670697Y-96267997D01*
G37*
G36*
X122002297Y-95371997D02*
X122054953Y-95387970D01*
X122103465Y-95413900D01*
X122145996Y-95448804D01*
X122180900Y-95491335D01*
X122206830Y-95539847D01*
X122222803Y-95592503D01*
X122228800Y-95653390D01*
X122228800Y-96878610D01*
X122222803Y-96939497D01*
X122206830Y-96992153D01*
X122180900Y-97040665D01*
X122145996Y-97083196D01*
X122103465Y-97118100D01*
X122054953Y-97144030D01*
X122002297Y-97160003D01*
X121941410Y-97166000D01*
X121141190Y-97166000D01*
X121080303Y-97160003D01*
X121027647Y-97144030D01*
X120979135Y-97118100D01*
X120936604Y-97083196D01*
X120901700Y-97040665D01*
X120875770Y-96992153D01*
X120859797Y-96939497D01*
X120853800Y-96878610D01*
X120853800Y-95653390D01*
X120859797Y-95592503D01*
X120875770Y-95539847D01*
X120901700Y-95491335D01*
X120936604Y-95448804D01*
X120979135Y-95413900D01*
X121027647Y-95387970D01*
X121080303Y-95371997D01*
X121141190Y-95366000D01*
X121941410Y-95366000D01*
X122002297Y-95371997D01*
X122002297Y-95371997D01*
G37*
G36*
X123877297Y-95371997D02*
X123929953Y-95387970D01*
X123978465Y-95413900D01*
X124020996Y-95448804D01*
X124055900Y-95491335D01*
X124081830Y-95539847D01*
X124097803Y-95592503D01*
X124103800Y-95653390D01*
X124103800Y-96878610D01*
X124097803Y-96939497D01*
X124081830Y-96992153D01*
X124055900Y-97040665D01*
X124020996Y-97083196D01*
X123978465Y-97118100D01*
X123929953Y-97144030D01*
X123877297Y-97160003D01*
X123816410Y-97166000D01*
X123016190Y-97166000D01*
X122955303Y-97160003D01*
X122902647Y-97144030D01*
X122854135Y-97118100D01*
X122811604Y-97083196D01*
X122776700Y-97040665D01*
X122750770Y-96992153D01*
X122734797Y-96939497D01*
X122728800Y-96878610D01*
X122728800Y-95653390D01*
X122734797Y-95592503D01*
X122750770Y-95539847D01*
X122776700Y-95491335D01*
X122811604Y-95448804D01*
X122854135Y-95413900D01*
X122902647Y-95387970D01*
X122955303Y-95371997D01*
X123016190Y-95366000D01*
X123816410Y-95366000D01*
X123877297Y-95371997D01*
X123877297Y-95371997D01*
G37*
G36*
X130670697Y-94392997D02*
X130723353Y-94408970D01*
X130771865Y-94434900D01*
X130814396Y-94469804D01*
X130849300Y-94512335D01*
X130875230Y-94560847D01*
X130891203Y-94613503D01*
X130897200Y-94674390D01*
X130897200Y-95474610D01*
X130891203Y-95535497D01*
X130875230Y-95588153D01*
X130849300Y-95636665D01*
X130814396Y-95679196D01*
X130771865Y-95714100D01*
X130723353Y-95740030D01*
X130670697Y-95756003D01*
X130609810Y-95762000D01*
X129384590Y-95762000D01*
X129323703Y-95756003D01*
X129271047Y-95740030D01*
X129222535Y-95714100D01*
X129180004Y-95679196D01*
X129145100Y-95636665D01*
X129119170Y-95588153D01*
X129103197Y-95535497D01*
X129097200Y-95474610D01*
X129097200Y-94674390D01*
X129103197Y-94613503D01*
X129119170Y-94560847D01*
X129145100Y-94512335D01*
X129180004Y-94469804D01*
X129222535Y-94434900D01*
X129271047Y-94408970D01*
X129323703Y-94392997D01*
X129384590Y-94387000D01*
X130609810Y-94387000D01*
X130670697Y-94392997D01*
X130670697Y-94392997D01*
G37*
G36*
X121882297Y-92508797D02*
X121934953Y-92524770D01*
X121983465Y-92550700D01*
X122025996Y-92585604D01*
X122060900Y-92628135D01*
X122086830Y-92676647D01*
X122102803Y-92729303D01*
X122108800Y-92790190D01*
X122108800Y-93590410D01*
X122102803Y-93651297D01*
X122086830Y-93703953D01*
X122060900Y-93752465D01*
X122025996Y-93794996D01*
X121983465Y-93829900D01*
X121934953Y-93855830D01*
X121882297Y-93871803D01*
X121821410Y-93877800D01*
X120596190Y-93877800D01*
X120535303Y-93871803D01*
X120482647Y-93855830D01*
X120434135Y-93829900D01*
X120391604Y-93794996D01*
X120356700Y-93752465D01*
X120330770Y-93703953D01*
X120314797Y-93651297D01*
X120308800Y-93590410D01*
X120308800Y-92790190D01*
X120314797Y-92729303D01*
X120330770Y-92676647D01*
X120356700Y-92628135D01*
X120391604Y-92585604D01*
X120434135Y-92550700D01*
X120482647Y-92524770D01*
X120535303Y-92508797D01*
X120596190Y-92502800D01*
X121821410Y-92502800D01*
X121882297Y-92508797D01*
X121882297Y-92508797D01*
G37*
G36*
X130619897Y-92254797D02*
X130672553Y-92270770D01*
X130721065Y-92296700D01*
X130763596Y-92331604D01*
X130798500Y-92374135D01*
X130824430Y-92422647D01*
X130840403Y-92475303D01*
X130846400Y-92536190D01*
X130846400Y-93336410D01*
X130840403Y-93397297D01*
X130824430Y-93449953D01*
X130798500Y-93498465D01*
X130763596Y-93540996D01*
X130721065Y-93575900D01*
X130672553Y-93601830D01*
X130619897Y-93617803D01*
X130559010Y-93623800D01*
X129333790Y-93623800D01*
X129272903Y-93617803D01*
X129220247Y-93601830D01*
X129171735Y-93575900D01*
X129129204Y-93540996D01*
X129094300Y-93498465D01*
X129068370Y-93449953D01*
X129052397Y-93397297D01*
X129046400Y-93336410D01*
X129046400Y-92536190D01*
X129052397Y-92475303D01*
X129068370Y-92422647D01*
X129094300Y-92374135D01*
X129129204Y-92331604D01*
X129171735Y-92296700D01*
X129220247Y-92270770D01*
X129272903Y-92254797D01*
X129333790Y-92248800D01*
X130559010Y-92248800D01*
X130619897Y-92254797D01*
X130619897Y-92254797D01*
G37*
G36*
X103144800Y-93442000D02*
X101744800Y-93442000D01*
X101744800Y-90292000D01*
X103144800Y-90292000D01*
X103144800Y-93442000D01*
X103144800Y-93442000D01*
G37*
G36*
X107302697Y-88851197D02*
X107355353Y-88867170D01*
X107403865Y-88893100D01*
X107446396Y-88928004D01*
X107481300Y-88970535D01*
X107507230Y-89019047D01*
X107523203Y-89071703D01*
X107529200Y-89132590D01*
X107529200Y-89932810D01*
X107523203Y-89993697D01*
X107507230Y-90046353D01*
X107481300Y-90094865D01*
X107446396Y-90137396D01*
X107403865Y-90172300D01*
X107355353Y-90198230D01*
X107302697Y-90214203D01*
X107257548Y-90218650D01*
X107233514Y-90223431D01*
X107210875Y-90232808D01*
X107190501Y-90246422D01*
X107173174Y-90263749D01*
X107159560Y-90284124D01*
X107150182Y-90306763D01*
X107144800Y-90343048D01*
X107144800Y-93442000D01*
X105744800Y-93442000D01*
X105744800Y-90270310D01*
X105762982Y-90255388D01*
X105778528Y-90236446D01*
X105790079Y-90214835D01*
X105797192Y-90191386D01*
X105799594Y-90167000D01*
X105797192Y-90142614D01*
X105790079Y-90119165D01*
X105782898Y-90105730D01*
X105782905Y-90105726D01*
X105751170Y-90046353D01*
X105735197Y-89993697D01*
X105729200Y-89932810D01*
X105729200Y-89132590D01*
X105735197Y-89071703D01*
X105751170Y-89019047D01*
X105777100Y-88970535D01*
X105812004Y-88928004D01*
X105854535Y-88893100D01*
X105903047Y-88867170D01*
X105955703Y-88851197D01*
X106016590Y-88845200D01*
X107241810Y-88845200D01*
X107302697Y-88851197D01*
X107302697Y-88851197D01*
G37*
G36*
X121882297Y-90633797D02*
X121934953Y-90649770D01*
X121983465Y-90675700D01*
X122025996Y-90710604D01*
X122060900Y-90753135D01*
X122086830Y-90801647D01*
X122102803Y-90854303D01*
X122108800Y-90915190D01*
X122108800Y-91715410D01*
X122102803Y-91776297D01*
X122086830Y-91828953D01*
X122060900Y-91877465D01*
X122025996Y-91919996D01*
X121983465Y-91954900D01*
X121934953Y-91980830D01*
X121882297Y-91996803D01*
X121821410Y-92002800D01*
X120596190Y-92002800D01*
X120535303Y-91996803D01*
X120482647Y-91980830D01*
X120434135Y-91954900D01*
X120391604Y-91919996D01*
X120356700Y-91877465D01*
X120330770Y-91828953D01*
X120314797Y-91776297D01*
X120308800Y-91715410D01*
X120308800Y-90915190D01*
X120314797Y-90854303D01*
X120330770Y-90801647D01*
X120356700Y-90753135D01*
X120391604Y-90710604D01*
X120434135Y-90675700D01*
X120482647Y-90649770D01*
X120535303Y-90633797D01*
X120596190Y-90627800D01*
X121821410Y-90627800D01*
X121882297Y-90633797D01*
X121882297Y-90633797D01*
G37*
G36*
X130619897Y-90379797D02*
X130672553Y-90395770D01*
X130721065Y-90421700D01*
X130763596Y-90456604D01*
X130798500Y-90499135D01*
X130824430Y-90547647D01*
X130840403Y-90600303D01*
X130846400Y-90661190D01*
X130846400Y-91461410D01*
X130840403Y-91522297D01*
X130824430Y-91574953D01*
X130798500Y-91623465D01*
X130763596Y-91665996D01*
X130721065Y-91700900D01*
X130672553Y-91726830D01*
X130619897Y-91742803D01*
X130559010Y-91748800D01*
X129333790Y-91748800D01*
X129272903Y-91742803D01*
X129220247Y-91726830D01*
X129171735Y-91700900D01*
X129129204Y-91665996D01*
X129094300Y-91623465D01*
X129068370Y-91574953D01*
X129052397Y-91522297D01*
X129046400Y-91461410D01*
X129046400Y-90661190D01*
X129052397Y-90600303D01*
X129068370Y-90547647D01*
X129094300Y-90499135D01*
X129129204Y-90456604D01*
X129171735Y-90421700D01*
X129220247Y-90395770D01*
X129272903Y-90379797D01*
X129333790Y-90373800D01*
X130559010Y-90373800D01*
X130619897Y-90379797D01*
X130619897Y-90379797D01*
G37*
G36*
X110422400Y-89899200D02*
X108322400Y-89899200D01*
X108322400Y-85513200D01*
X110422400Y-85513200D01*
X110422400Y-89899200D01*
X110422400Y-89899200D01*
G37*
G36*
X104783600Y-89391200D02*
X102683600Y-89391200D01*
X102683600Y-87291200D01*
X104783600Y-87291200D01*
X104783600Y-89391200D01*
X104783600Y-89391200D01*
G37*
G36*
X107302697Y-86976197D02*
X107355353Y-86992170D01*
X107403865Y-87018100D01*
X107446396Y-87053004D01*
X107481300Y-87095535D01*
X107507230Y-87144047D01*
X107523203Y-87196703D01*
X107529200Y-87257590D01*
X107529200Y-88057810D01*
X107523203Y-88118697D01*
X107507230Y-88171353D01*
X107481300Y-88219865D01*
X107446396Y-88262396D01*
X107403865Y-88297300D01*
X107355353Y-88323230D01*
X107302697Y-88339203D01*
X107241810Y-88345200D01*
X106016590Y-88345200D01*
X105955703Y-88339203D01*
X105903047Y-88323230D01*
X105854535Y-88297300D01*
X105812004Y-88262396D01*
X105777100Y-88219865D01*
X105751170Y-88171353D01*
X105735197Y-88118697D01*
X105729200Y-88057810D01*
X105729200Y-87257590D01*
X105735197Y-87196703D01*
X105751170Y-87144047D01*
X105777100Y-87095535D01*
X105812004Y-87053004D01*
X105854535Y-87018100D01*
X105903047Y-86992170D01*
X105955703Y-86976197D01*
X106016590Y-86970200D01*
X107241810Y-86970200D01*
X107302697Y-86976197D01*
X107302697Y-86976197D01*
G37*
G36*
X133333200Y-86444800D02*
X131233200Y-86444800D01*
X131233200Y-84344800D01*
X133333200Y-84344800D01*
X133333200Y-86444800D01*
X133333200Y-86444800D01*
G37*
G36*
X119110857Y-81942272D02*
X119311042Y-82025191D01*
X119491213Y-82145578D01*
X119644422Y-82298787D01*
X119764809Y-82478958D01*
X119847728Y-82679143D01*
X119890000Y-82891658D01*
X119890000Y-83108342D01*
X119847728Y-83320857D01*
X119764809Y-83521042D01*
X119644422Y-83701213D01*
X119491213Y-83854422D01*
X119311042Y-83974809D01*
X119110857Y-84057728D01*
X118898342Y-84100000D01*
X118681658Y-84100000D01*
X118469143Y-84057728D01*
X118268958Y-83974809D01*
X118088787Y-83854422D01*
X117935578Y-83701213D01*
X117815191Y-83521042D01*
X117732272Y-83320857D01*
X117690000Y-83108342D01*
X117690000Y-82891658D01*
X117732272Y-82679143D01*
X117815191Y-82478958D01*
X117935578Y-82298787D01*
X118088787Y-82145578D01*
X118268958Y-82025191D01*
X118469143Y-81942272D01*
X118681658Y-81900000D01*
X118898342Y-81900000D01*
X119110857Y-81942272D01*
X119110857Y-81942272D01*
G37*
G36*
X116903897Y-80672397D02*
X116956553Y-80688370D01*
X117005065Y-80714300D01*
X117047596Y-80749204D01*
X117082500Y-80791735D01*
X117108430Y-80840247D01*
X117124403Y-80892903D01*
X117130400Y-80953790D01*
X117130400Y-81754006D01*
X117129539Y-81762745D01*
X117129539Y-81787249D01*
X117134318Y-81811282D01*
X117143695Y-81833922D01*
X117157309Y-81854297D01*
X117174635Y-81871624D01*
X117195009Y-81885239D01*
X117217648Y-81894617D01*
X117241682Y-81899398D01*
X117253937Y-81900000D01*
X117350000Y-81900000D01*
X117350000Y-84100000D01*
X115150000Y-84100000D01*
X115150000Y-81900000D01*
X115206863Y-81900000D01*
X115231249Y-81897598D01*
X115254698Y-81890485D01*
X115276309Y-81878934D01*
X115295251Y-81863388D01*
X115310797Y-81844446D01*
X115322348Y-81822835D01*
X115329461Y-81799386D01*
X115331863Y-81775000D01*
X115331261Y-81762745D01*
X115330400Y-81754006D01*
X115330400Y-80953790D01*
X115336397Y-80892903D01*
X115352370Y-80840247D01*
X115378300Y-80791735D01*
X115413204Y-80749204D01*
X115455735Y-80714300D01*
X115504247Y-80688370D01*
X115556903Y-80672397D01*
X115617790Y-80666400D01*
X116843010Y-80666400D01*
X116903897Y-80672397D01*
X116903897Y-80672397D01*
G37*
G36*
X125052800Y-81568000D02*
X122952800Y-81568000D01*
X122952800Y-79468000D01*
X125052800Y-79468000D01*
X125052800Y-81568000D01*
X125052800Y-81568000D01*
G37*
G36*
X128456400Y-80450400D02*
X126356400Y-80450400D01*
X126356400Y-78350400D01*
X128456400Y-78350400D01*
X128456400Y-80450400D01*
X128456400Y-80450400D01*
G37*
G36*
X116903897Y-78797397D02*
X116956553Y-78813370D01*
X117005065Y-78839300D01*
X117047596Y-78874204D01*
X117082500Y-78916735D01*
X117108430Y-78965247D01*
X117124403Y-79017903D01*
X117130400Y-79078790D01*
X117130400Y-79879010D01*
X117124403Y-79939897D01*
X117108430Y-79992553D01*
X117082500Y-80041065D01*
X117047596Y-80083596D01*
X117005065Y-80118500D01*
X116956553Y-80144430D01*
X116903897Y-80160403D01*
X116843010Y-80166400D01*
X115617790Y-80166400D01*
X115556903Y-80160403D01*
X115504247Y-80144430D01*
X115455735Y-80118500D01*
X115413204Y-80083596D01*
X115378300Y-80041065D01*
X115352370Y-79992553D01*
X115336397Y-79939897D01*
X115330400Y-79879010D01*
X115330400Y-79078790D01*
X115336397Y-79017903D01*
X115352370Y-78965247D01*
X115378300Y-78916735D01*
X115413204Y-78874204D01*
X115455735Y-78839300D01*
X115504247Y-78813370D01*
X115556903Y-78797397D01*
X115617790Y-78791400D01*
X116843010Y-78791400D01*
X116903897Y-78797397D01*
X116903897Y-78797397D01*
G37*
M02*
