G04 #@! TF.GenerationSoftware,KiCad,Pcbnew,5.1.6-c6e7f7d~87~ubuntu20.04.1*
G04 #@! TF.CreationDate,2020-07-20T11:44:09+02:00*
G04 #@! TF.ProjectId,weerstasie,77656572-7374-4617-9369-652e6b696361,rev?*
G04 #@! TF.SameCoordinates,Original*
G04 #@! TF.FileFunction,Soldermask,Top*
G04 #@! TF.FilePolarity,Negative*
%FSLAX46Y46*%
G04 Gerber Fmt 4.6, Leading zero omitted, Abs format (unit mm)*
G04 Created by KiCad (PCBNEW 5.1.6-c6e7f7d~87~ubuntu20.04.1) date 2020-07-20 11:44:09*
%MOMM*%
%LPD*%
G01*
G04 APERTURE LIST*
%ADD10C,0.100000*%
G04 APERTURE END LIST*
D10*
G36*
X132200000Y-132200000D02*
G01*
X118800000Y-132200000D01*
X118800000Y-129800000D01*
X132200000Y-129800000D01*
X132200000Y-132200000D01*
G37*
G36*
X116200000Y-132200000D02*
G01*
X102800000Y-132200000D01*
X102800000Y-129800000D01*
X116200000Y-129800000D01*
X116200000Y-132200000D01*
G37*
G36*
X128989599Y-127020397D02*
G01*
X129042247Y-127036368D01*
X129090768Y-127062302D01*
X129133295Y-127097205D01*
X129168198Y-127139732D01*
X129194132Y-127188253D01*
X129210103Y-127240901D01*
X129216100Y-127301790D01*
X129216100Y-128527010D01*
X129210103Y-128587899D01*
X129194132Y-128640547D01*
X129168198Y-128689068D01*
X129133295Y-128731595D01*
X129090768Y-128766498D01*
X129042247Y-128792432D01*
X128989599Y-128808403D01*
X128928710Y-128814400D01*
X128128490Y-128814400D01*
X128067601Y-128808403D01*
X128014953Y-128792432D01*
X127966432Y-128766498D01*
X127923905Y-128731595D01*
X127889002Y-128689068D01*
X127863068Y-128640547D01*
X127847097Y-128587899D01*
X127841100Y-128527010D01*
X127841100Y-127301790D01*
X127847097Y-127240901D01*
X127863068Y-127188253D01*
X127889002Y-127139732D01*
X127923905Y-127097205D01*
X127966432Y-127062302D01*
X128014953Y-127036368D01*
X128067601Y-127020397D01*
X128128490Y-127014400D01*
X128928710Y-127014400D01*
X128989599Y-127020397D01*
G37*
G36*
X130864599Y-127020397D02*
G01*
X130917247Y-127036368D01*
X130965768Y-127062302D01*
X131008295Y-127097205D01*
X131043198Y-127139732D01*
X131069132Y-127188253D01*
X131085103Y-127240901D01*
X131091100Y-127301790D01*
X131091100Y-128527010D01*
X131085103Y-128587899D01*
X131069132Y-128640547D01*
X131043198Y-128689068D01*
X131008295Y-128731595D01*
X130965768Y-128766498D01*
X130917247Y-128792432D01*
X130864599Y-128808403D01*
X130803710Y-128814400D01*
X130003490Y-128814400D01*
X129942601Y-128808403D01*
X129889953Y-128792432D01*
X129841432Y-128766498D01*
X129798905Y-128731595D01*
X129764002Y-128689068D01*
X129738068Y-128640547D01*
X129722097Y-128587899D01*
X129716100Y-128527010D01*
X129716100Y-127301790D01*
X129722097Y-127240901D01*
X129738068Y-127188253D01*
X129764002Y-127139732D01*
X129798905Y-127097205D01*
X129841432Y-127062302D01*
X129889953Y-127036368D01*
X129942601Y-127020397D01*
X130003490Y-127014400D01*
X130803710Y-127014400D01*
X130864599Y-127020397D01*
G37*
G36*
X116036040Y-116210067D02*
G01*
X116212333Y-116245134D01*
X116349904Y-116302118D01*
X116544460Y-116382705D01*
X116843369Y-116582430D01*
X117097570Y-116836631D01*
X117297295Y-117135540D01*
X117384516Y-117346111D01*
X117396067Y-117367722D01*
X117411612Y-117386663D01*
X117430554Y-117402209D01*
X117452165Y-117413760D01*
X117475614Y-117420873D01*
X117500000Y-117423275D01*
X117524386Y-117420873D01*
X117547835Y-117413760D01*
X117569446Y-117402209D01*
X117588387Y-117386664D01*
X117603933Y-117367722D01*
X117615484Y-117346111D01*
X117702705Y-117135540D01*
X117902430Y-116836631D01*
X118156631Y-116582430D01*
X118455540Y-116382705D01*
X118650096Y-116302118D01*
X118787667Y-116245134D01*
X118963960Y-116210067D01*
X119140252Y-116175000D01*
X119499748Y-116175000D01*
X119676040Y-116210067D01*
X119852333Y-116245134D01*
X119989904Y-116302118D01*
X120184460Y-116382705D01*
X120483369Y-116582430D01*
X120737570Y-116836631D01*
X120937295Y-117135540D01*
X121074866Y-117467668D01*
X121145000Y-117820252D01*
X121145000Y-118179748D01*
X121074866Y-118532332D01*
X120937295Y-118864460D01*
X120737570Y-119163369D01*
X120483369Y-119417570D01*
X120184460Y-119617295D01*
X119989904Y-119697882D01*
X119852333Y-119754866D01*
X119676040Y-119789933D01*
X119499748Y-119825000D01*
X119140252Y-119825000D01*
X118963960Y-119789933D01*
X118787667Y-119754866D01*
X118650096Y-119697882D01*
X118455540Y-119617295D01*
X118156631Y-119417570D01*
X117902430Y-119163369D01*
X117702705Y-118864460D01*
X117615484Y-118653889D01*
X117603933Y-118632278D01*
X117588388Y-118613337D01*
X117569446Y-118597791D01*
X117547835Y-118586240D01*
X117524386Y-118579127D01*
X117500000Y-118576725D01*
X117475614Y-118579127D01*
X117452165Y-118586240D01*
X117430554Y-118597791D01*
X117411613Y-118613336D01*
X117396067Y-118632278D01*
X117384516Y-118653889D01*
X117297295Y-118864460D01*
X117097570Y-119163369D01*
X116843369Y-119417570D01*
X116544460Y-119617295D01*
X116349904Y-119697882D01*
X116212333Y-119754866D01*
X116036040Y-119789933D01*
X115859748Y-119825000D01*
X115500252Y-119825000D01*
X115323960Y-119789933D01*
X115147667Y-119754866D01*
X115010096Y-119697882D01*
X114815540Y-119617295D01*
X114516631Y-119417570D01*
X114262430Y-119163369D01*
X114062705Y-118864460D01*
X113925134Y-118532332D01*
X113855000Y-118179748D01*
X113855000Y-117820252D01*
X113925134Y-117467668D01*
X114062705Y-117135540D01*
X114262430Y-116836631D01*
X114516631Y-116582430D01*
X114815540Y-116382705D01*
X115010096Y-116302118D01*
X115147667Y-116245134D01*
X115323960Y-116210067D01*
X115500252Y-116175000D01*
X115859748Y-116175000D01*
X116036040Y-116210067D01*
G37*
G36*
X129836040Y-116210067D02*
G01*
X130012333Y-116245134D01*
X130149904Y-116302118D01*
X130344460Y-116382705D01*
X130643369Y-116582430D01*
X130897570Y-116836631D01*
X131097295Y-117135540D01*
X131234866Y-117467668D01*
X131305000Y-117820252D01*
X131305000Y-118179748D01*
X131234866Y-118532332D01*
X131097295Y-118864460D01*
X130897570Y-119163369D01*
X130643369Y-119417570D01*
X130344460Y-119617295D01*
X130149904Y-119697882D01*
X130012333Y-119754866D01*
X129836040Y-119789933D01*
X129659748Y-119825000D01*
X129300252Y-119825000D01*
X129123960Y-119789933D01*
X128947667Y-119754866D01*
X128810096Y-119697882D01*
X128615540Y-119617295D01*
X128316631Y-119417570D01*
X128062430Y-119163369D01*
X127862705Y-118864460D01*
X127725134Y-118532332D01*
X127655000Y-118179748D01*
X127655000Y-117820252D01*
X127725134Y-117467668D01*
X127862705Y-117135540D01*
X128062430Y-116836631D01*
X128316631Y-116582430D01*
X128615540Y-116382705D01*
X128810096Y-116302118D01*
X128947667Y-116245134D01*
X129123960Y-116210067D01*
X129300252Y-116175000D01*
X129659748Y-116175000D01*
X129836040Y-116210067D01*
G37*
G36*
X105876040Y-116210067D02*
G01*
X106052333Y-116245134D01*
X106189904Y-116302118D01*
X106384460Y-116382705D01*
X106683369Y-116582430D01*
X106937570Y-116836631D01*
X107137295Y-117135540D01*
X107274866Y-117467668D01*
X107345000Y-117820252D01*
X107345000Y-118179748D01*
X107274866Y-118532332D01*
X107137295Y-118864460D01*
X106937570Y-119163369D01*
X106683369Y-119417570D01*
X106384460Y-119617295D01*
X106189904Y-119697882D01*
X106052333Y-119754866D01*
X105876040Y-119789933D01*
X105699748Y-119825000D01*
X105340252Y-119825000D01*
X105163960Y-119789933D01*
X104987667Y-119754866D01*
X104850096Y-119697882D01*
X104655540Y-119617295D01*
X104356631Y-119417570D01*
X104102430Y-119163369D01*
X103902705Y-118864460D01*
X103765134Y-118532332D01*
X103695000Y-118179748D01*
X103695000Y-117820252D01*
X103765134Y-117467668D01*
X103902705Y-117135540D01*
X104102430Y-116836631D01*
X104356631Y-116582430D01*
X104655540Y-116382705D01*
X104850096Y-116302118D01*
X104987667Y-116245134D01*
X105163960Y-116210067D01*
X105340252Y-116175000D01*
X105699748Y-116175000D01*
X105876040Y-116210067D01*
G37*
G36*
X125262290Y-110675619D02*
G01*
X125326689Y-110688429D01*
X125508678Y-110763811D01*
X125672463Y-110873249D01*
X125811751Y-111012537D01*
X125921189Y-111176322D01*
X125996571Y-111358311D01*
X126035000Y-111551509D01*
X126035000Y-111748491D01*
X125996571Y-111941689D01*
X125921189Y-112123678D01*
X125811751Y-112287463D01*
X125672463Y-112426751D01*
X125508678Y-112536189D01*
X125326689Y-112611571D01*
X125262290Y-112624381D01*
X125133493Y-112650000D01*
X124936507Y-112650000D01*
X124807710Y-112624381D01*
X124743311Y-112611571D01*
X124561322Y-112536189D01*
X124397537Y-112426751D01*
X124258249Y-112287463D01*
X124148811Y-112123678D01*
X124073429Y-111941689D01*
X124035000Y-111748491D01*
X124035000Y-111551509D01*
X124073429Y-111358311D01*
X124148811Y-111176322D01*
X124258249Y-111012537D01*
X124397537Y-110873249D01*
X124561322Y-110763811D01*
X124743311Y-110688429D01*
X124807710Y-110675619D01*
X124936507Y-110650000D01*
X125133493Y-110650000D01*
X125262290Y-110675619D01*
G37*
G36*
X127802290Y-110675619D02*
G01*
X127866689Y-110688429D01*
X128048678Y-110763811D01*
X128212463Y-110873249D01*
X128351751Y-111012537D01*
X128461189Y-111176322D01*
X128536571Y-111358311D01*
X128575000Y-111551509D01*
X128575000Y-111748491D01*
X128536571Y-111941689D01*
X128461189Y-112123678D01*
X128351751Y-112287463D01*
X128212463Y-112426751D01*
X128048678Y-112536189D01*
X127866689Y-112611571D01*
X127802290Y-112624381D01*
X127673493Y-112650000D01*
X127476507Y-112650000D01*
X127347710Y-112624381D01*
X127283311Y-112611571D01*
X127101322Y-112536189D01*
X126937537Y-112426751D01*
X126798249Y-112287463D01*
X126688811Y-112123678D01*
X126613429Y-111941689D01*
X126575000Y-111748491D01*
X126575000Y-111551509D01*
X126613429Y-111358311D01*
X126688811Y-111176322D01*
X126798249Y-111012537D01*
X126937537Y-110873249D01*
X127101322Y-110763811D01*
X127283311Y-110688429D01*
X127347710Y-110675619D01*
X127476507Y-110650000D01*
X127673493Y-110650000D01*
X127802290Y-110675619D01*
G37*
G36*
X122722290Y-110675619D02*
G01*
X122786689Y-110688429D01*
X122968678Y-110763811D01*
X123132463Y-110873249D01*
X123271751Y-111012537D01*
X123381189Y-111176322D01*
X123456571Y-111358311D01*
X123495000Y-111551509D01*
X123495000Y-111748491D01*
X123456571Y-111941689D01*
X123381189Y-112123678D01*
X123271751Y-112287463D01*
X123132463Y-112426751D01*
X122968678Y-112536189D01*
X122786689Y-112611571D01*
X122722290Y-112624381D01*
X122593493Y-112650000D01*
X122396507Y-112650000D01*
X122267710Y-112624381D01*
X122203311Y-112611571D01*
X122021322Y-112536189D01*
X121857537Y-112426751D01*
X121718249Y-112287463D01*
X121608811Y-112123678D01*
X121533429Y-111941689D01*
X121495000Y-111748491D01*
X121495000Y-111551509D01*
X121533429Y-111358311D01*
X121608811Y-111176322D01*
X121718249Y-111012537D01*
X121857537Y-110873249D01*
X122021322Y-110763811D01*
X122203311Y-110688429D01*
X122267710Y-110675619D01*
X122396507Y-110650000D01*
X122593493Y-110650000D01*
X122722290Y-110675619D01*
G37*
G36*
X114002290Y-110675619D02*
G01*
X114066689Y-110688429D01*
X114248678Y-110763811D01*
X114412463Y-110873249D01*
X114551751Y-111012537D01*
X114661189Y-111176322D01*
X114736571Y-111358311D01*
X114775000Y-111551509D01*
X114775000Y-111748491D01*
X114736571Y-111941689D01*
X114661189Y-112123678D01*
X114551751Y-112287463D01*
X114412463Y-112426751D01*
X114248678Y-112536189D01*
X114066689Y-112611571D01*
X114002290Y-112624381D01*
X113873493Y-112650000D01*
X113676507Y-112650000D01*
X113547710Y-112624381D01*
X113483311Y-112611571D01*
X113301322Y-112536189D01*
X113137537Y-112426751D01*
X112998249Y-112287463D01*
X112888811Y-112123678D01*
X112813429Y-111941689D01*
X112775000Y-111748491D01*
X112775000Y-111551509D01*
X112813429Y-111358311D01*
X112888811Y-111176322D01*
X112998249Y-111012537D01*
X113137537Y-110873249D01*
X113301322Y-110763811D01*
X113483311Y-110688429D01*
X113547710Y-110675619D01*
X113676507Y-110650000D01*
X113873493Y-110650000D01*
X114002290Y-110675619D01*
G37*
G36*
X111462290Y-110675619D02*
G01*
X111526689Y-110688429D01*
X111708678Y-110763811D01*
X111872463Y-110873249D01*
X112011751Y-111012537D01*
X112121189Y-111176322D01*
X112196571Y-111358311D01*
X112235000Y-111551509D01*
X112235000Y-111748491D01*
X112196571Y-111941689D01*
X112121189Y-112123678D01*
X112011751Y-112287463D01*
X111872463Y-112426751D01*
X111708678Y-112536189D01*
X111526689Y-112611571D01*
X111462290Y-112624381D01*
X111333493Y-112650000D01*
X111136507Y-112650000D01*
X111007710Y-112624381D01*
X110943311Y-112611571D01*
X110761322Y-112536189D01*
X110597537Y-112426751D01*
X110458249Y-112287463D01*
X110348811Y-112123678D01*
X110273429Y-111941689D01*
X110235000Y-111748491D01*
X110235000Y-111551509D01*
X110273429Y-111358311D01*
X110348811Y-111176322D01*
X110458249Y-111012537D01*
X110597537Y-110873249D01*
X110761322Y-110763811D01*
X110943311Y-110688429D01*
X111007710Y-110675619D01*
X111136507Y-110650000D01*
X111333493Y-110650000D01*
X111462290Y-110675619D01*
G37*
G36*
X108922290Y-110675619D02*
G01*
X108986689Y-110688429D01*
X109168678Y-110763811D01*
X109332463Y-110873249D01*
X109471751Y-111012537D01*
X109581189Y-111176322D01*
X109656571Y-111358311D01*
X109695000Y-111551509D01*
X109695000Y-111748491D01*
X109656571Y-111941689D01*
X109581189Y-112123678D01*
X109471751Y-112287463D01*
X109332463Y-112426751D01*
X109168678Y-112536189D01*
X108986689Y-112611571D01*
X108922290Y-112624381D01*
X108793493Y-112650000D01*
X108596507Y-112650000D01*
X108467710Y-112624381D01*
X108403311Y-112611571D01*
X108221322Y-112536189D01*
X108057537Y-112426751D01*
X107918249Y-112287463D01*
X107808811Y-112123678D01*
X107733429Y-111941689D01*
X107695000Y-111748491D01*
X107695000Y-111551509D01*
X107733429Y-111358311D01*
X107808811Y-111176322D01*
X107918249Y-111012537D01*
X108057537Y-110873249D01*
X108221322Y-110763811D01*
X108403311Y-110688429D01*
X108467710Y-110675619D01*
X108596507Y-110650000D01*
X108793493Y-110650000D01*
X108922290Y-110675619D01*
G37*
G36*
X110192290Y-108135619D02*
G01*
X110256689Y-108148429D01*
X110438678Y-108223811D01*
X110602463Y-108333249D01*
X110741751Y-108472537D01*
X110851189Y-108636322D01*
X110926571Y-108818311D01*
X110965000Y-109011509D01*
X110965000Y-109208491D01*
X110926571Y-109401689D01*
X110851189Y-109583678D01*
X110741751Y-109747463D01*
X110602463Y-109886751D01*
X110438678Y-109996189D01*
X110256689Y-110071571D01*
X110192290Y-110084381D01*
X110063493Y-110110000D01*
X109866507Y-110110000D01*
X109737710Y-110084381D01*
X109673311Y-110071571D01*
X109491322Y-109996189D01*
X109327537Y-109886751D01*
X109188249Y-109747463D01*
X109078811Y-109583678D01*
X109003429Y-109401689D01*
X108965000Y-109208491D01*
X108965000Y-109011509D01*
X109003429Y-108818311D01*
X109078811Y-108636322D01*
X109188249Y-108472537D01*
X109327537Y-108333249D01*
X109491322Y-108223811D01*
X109673311Y-108148429D01*
X109737710Y-108135619D01*
X109866507Y-108110000D01*
X110063493Y-108110000D01*
X110192290Y-108135619D01*
G37*
G36*
X126532290Y-108135619D02*
G01*
X126596689Y-108148429D01*
X126778678Y-108223811D01*
X126942463Y-108333249D01*
X127081751Y-108472537D01*
X127191189Y-108636322D01*
X127266571Y-108818311D01*
X127305000Y-109011509D01*
X127305000Y-109208491D01*
X127266571Y-109401689D01*
X127191189Y-109583678D01*
X127081751Y-109747463D01*
X126942463Y-109886751D01*
X126778678Y-109996189D01*
X126596689Y-110071571D01*
X126532290Y-110084381D01*
X126403493Y-110110000D01*
X126206507Y-110110000D01*
X126077710Y-110084381D01*
X126013311Y-110071571D01*
X125831322Y-109996189D01*
X125667537Y-109886751D01*
X125528249Y-109747463D01*
X125418811Y-109583678D01*
X125343429Y-109401689D01*
X125305000Y-109208491D01*
X125305000Y-109011509D01*
X125343429Y-108818311D01*
X125418811Y-108636322D01*
X125528249Y-108472537D01*
X125667537Y-108333249D01*
X125831322Y-108223811D01*
X126013311Y-108148429D01*
X126077710Y-108135619D01*
X126206507Y-108110000D01*
X126403493Y-108110000D01*
X126532290Y-108135619D01*
G37*
G36*
X112732290Y-108135619D02*
G01*
X112796689Y-108148429D01*
X112978678Y-108223811D01*
X113142463Y-108333249D01*
X113281751Y-108472537D01*
X113391189Y-108636322D01*
X113466571Y-108818311D01*
X113505000Y-109011509D01*
X113505000Y-109208491D01*
X113466571Y-109401689D01*
X113391189Y-109583678D01*
X113281751Y-109747463D01*
X113142463Y-109886751D01*
X112978678Y-109996189D01*
X112796689Y-110071571D01*
X112732290Y-110084381D01*
X112603493Y-110110000D01*
X112406507Y-110110000D01*
X112277710Y-110084381D01*
X112213311Y-110071571D01*
X112031322Y-109996189D01*
X111867537Y-109886751D01*
X111728249Y-109747463D01*
X111618811Y-109583678D01*
X111543429Y-109401689D01*
X111505000Y-109208491D01*
X111505000Y-109011509D01*
X111543429Y-108818311D01*
X111618811Y-108636322D01*
X111728249Y-108472537D01*
X111867537Y-108333249D01*
X112031322Y-108223811D01*
X112213311Y-108148429D01*
X112277710Y-108135619D01*
X112406507Y-108110000D01*
X112603493Y-108110000D01*
X112732290Y-108135619D01*
G37*
G36*
X107652290Y-108135619D02*
G01*
X107716689Y-108148429D01*
X107898678Y-108223811D01*
X108062463Y-108333249D01*
X108201751Y-108472537D01*
X108311189Y-108636322D01*
X108386571Y-108818311D01*
X108425000Y-109011509D01*
X108425000Y-109208491D01*
X108386571Y-109401689D01*
X108311189Y-109583678D01*
X108201751Y-109747463D01*
X108062463Y-109886751D01*
X107898678Y-109996189D01*
X107716689Y-110071571D01*
X107652290Y-110084381D01*
X107523493Y-110110000D01*
X107326507Y-110110000D01*
X107197710Y-110084381D01*
X107133311Y-110071571D01*
X106951322Y-109996189D01*
X106787537Y-109886751D01*
X106648249Y-109747463D01*
X106538811Y-109583678D01*
X106463429Y-109401689D01*
X106425000Y-109208491D01*
X106425000Y-109011509D01*
X106463429Y-108818311D01*
X106538811Y-108636322D01*
X106648249Y-108472537D01*
X106787537Y-108333249D01*
X106951322Y-108223811D01*
X107133311Y-108148429D01*
X107197710Y-108135619D01*
X107326507Y-108110000D01*
X107523493Y-108110000D01*
X107652290Y-108135619D01*
G37*
G36*
X121452290Y-108135619D02*
G01*
X121516689Y-108148429D01*
X121698678Y-108223811D01*
X121862463Y-108333249D01*
X122001751Y-108472537D01*
X122111189Y-108636322D01*
X122186571Y-108818311D01*
X122225000Y-109011509D01*
X122225000Y-109208491D01*
X122186571Y-109401689D01*
X122111189Y-109583678D01*
X122001751Y-109747463D01*
X121862463Y-109886751D01*
X121698678Y-109996189D01*
X121516689Y-110071571D01*
X121452290Y-110084381D01*
X121323493Y-110110000D01*
X121126507Y-110110000D01*
X120997710Y-110084381D01*
X120933311Y-110071571D01*
X120751322Y-109996189D01*
X120587537Y-109886751D01*
X120448249Y-109747463D01*
X120338811Y-109583678D01*
X120263429Y-109401689D01*
X120225000Y-109208491D01*
X120225000Y-109011509D01*
X120263429Y-108818311D01*
X120338811Y-108636322D01*
X120448249Y-108472537D01*
X120587537Y-108333249D01*
X120751322Y-108223811D01*
X120933311Y-108148429D01*
X120997710Y-108135619D01*
X121126507Y-108110000D01*
X121323493Y-108110000D01*
X121452290Y-108135619D01*
G37*
G36*
X123992290Y-108135619D02*
G01*
X124056689Y-108148429D01*
X124238678Y-108223811D01*
X124402463Y-108333249D01*
X124541751Y-108472537D01*
X124651189Y-108636322D01*
X124726571Y-108818311D01*
X124765000Y-109011509D01*
X124765000Y-109208491D01*
X124726571Y-109401689D01*
X124651189Y-109583678D01*
X124541751Y-109747463D01*
X124402463Y-109886751D01*
X124238678Y-109996189D01*
X124056689Y-110071571D01*
X123992290Y-110084381D01*
X123863493Y-110110000D01*
X123666507Y-110110000D01*
X123537710Y-110084381D01*
X123473311Y-110071571D01*
X123291322Y-109996189D01*
X123127537Y-109886751D01*
X122988249Y-109747463D01*
X122878811Y-109583678D01*
X122803429Y-109401689D01*
X122765000Y-109208491D01*
X122765000Y-109011509D01*
X122803429Y-108818311D01*
X122878811Y-108636322D01*
X122988249Y-108472537D01*
X123127537Y-108333249D01*
X123291322Y-108223811D01*
X123473311Y-108148429D01*
X123537710Y-108135619D01*
X123666507Y-108110000D01*
X123863493Y-108110000D01*
X123992290Y-108135619D01*
G37*
G36*
X112382699Y-105665997D02*
G01*
X112435347Y-105681968D01*
X112483868Y-105707902D01*
X112526395Y-105742805D01*
X112561298Y-105785332D01*
X112587232Y-105833853D01*
X112603203Y-105886501D01*
X112609200Y-105947390D01*
X112609200Y-106747610D01*
X112603203Y-106808499D01*
X112587232Y-106861147D01*
X112561298Y-106909668D01*
X112526395Y-106952195D01*
X112483868Y-106987098D01*
X112435347Y-107013032D01*
X112382699Y-107029003D01*
X112321810Y-107035000D01*
X111096590Y-107035000D01*
X111035701Y-107029003D01*
X110983053Y-107013032D01*
X110934532Y-106987098D01*
X110892005Y-106952195D01*
X110857102Y-106909668D01*
X110831168Y-106861147D01*
X110815197Y-106808499D01*
X110809200Y-106747610D01*
X110809200Y-105947390D01*
X110815197Y-105886501D01*
X110831168Y-105833853D01*
X110857102Y-105785332D01*
X110892005Y-105742805D01*
X110934532Y-105707902D01*
X110983053Y-105681968D01*
X111035701Y-105665997D01*
X111096590Y-105660000D01*
X112321810Y-105660000D01*
X112382699Y-105665997D01*
G37*
G36*
X108942099Y-105125597D02*
G01*
X108994747Y-105141568D01*
X109043268Y-105167502D01*
X109085795Y-105202405D01*
X109120698Y-105244932D01*
X109146632Y-105293453D01*
X109162603Y-105346101D01*
X109168600Y-105406990D01*
X109168600Y-106632210D01*
X109162603Y-106693099D01*
X109146632Y-106745747D01*
X109120698Y-106794268D01*
X109085795Y-106836795D01*
X109043268Y-106871698D01*
X108994747Y-106897632D01*
X108942099Y-106913603D01*
X108881210Y-106919600D01*
X108080990Y-106919600D01*
X108020101Y-106913603D01*
X107967453Y-106897632D01*
X107918932Y-106871698D01*
X107876405Y-106836795D01*
X107841502Y-106794268D01*
X107815568Y-106745747D01*
X107799597Y-106693099D01*
X107793600Y-106632210D01*
X107793600Y-105406990D01*
X107799597Y-105346101D01*
X107815568Y-105293453D01*
X107841502Y-105244932D01*
X107876405Y-105202405D01*
X107918932Y-105167502D01*
X107967453Y-105141568D01*
X108020101Y-105125597D01*
X108080990Y-105119600D01*
X108881210Y-105119600D01*
X108942099Y-105125597D01*
G37*
G36*
X103561899Y-103195197D02*
G01*
X103614547Y-103211168D01*
X103663068Y-103237102D01*
X103705595Y-103272005D01*
X103740498Y-103314532D01*
X103766432Y-103363053D01*
X103782403Y-103415701D01*
X103788400Y-103476590D01*
X103788400Y-104701810D01*
X103782403Y-104762699D01*
X103766432Y-104815347D01*
X103740498Y-104863868D01*
X103705595Y-104906395D01*
X103663064Y-104941301D01*
X103657713Y-104944161D01*
X103637339Y-104957774D01*
X103620012Y-104975101D01*
X103606398Y-104995476D01*
X103597020Y-105018115D01*
X103592240Y-105042148D01*
X103592240Y-105066652D01*
X103597020Y-105090685D01*
X103606398Y-105113324D01*
X103620011Y-105133698D01*
X103637338Y-105151025D01*
X103657713Y-105164639D01*
X103663064Y-105167499D01*
X103705595Y-105202405D01*
X103740498Y-105244932D01*
X103766432Y-105293453D01*
X103782403Y-105346101D01*
X103788400Y-105406990D01*
X103788400Y-106632210D01*
X103782403Y-106693099D01*
X103766432Y-106745747D01*
X103740498Y-106794268D01*
X103705595Y-106836795D01*
X103663068Y-106871698D01*
X103614547Y-106897632D01*
X103561899Y-106913603D01*
X103501010Y-106919600D01*
X102700790Y-106919600D01*
X102639901Y-106913603D01*
X102587253Y-106897632D01*
X102538732Y-106871698D01*
X102496205Y-106836795D01*
X102461302Y-106794268D01*
X102435368Y-106745747D01*
X102419397Y-106693099D01*
X102413400Y-106632210D01*
X102413400Y-105406990D01*
X102419397Y-105346101D01*
X102435368Y-105293453D01*
X102461302Y-105244932D01*
X102496205Y-105202405D01*
X102538736Y-105167499D01*
X102544087Y-105164639D01*
X102564461Y-105151026D01*
X102581788Y-105133699D01*
X102595402Y-105113324D01*
X102604780Y-105090685D01*
X102609560Y-105066652D01*
X102609560Y-105042148D01*
X102604780Y-105018115D01*
X102595402Y-104995476D01*
X102581789Y-104975102D01*
X102564462Y-104957775D01*
X102544087Y-104944161D01*
X102538736Y-104941301D01*
X102496205Y-104906395D01*
X102461302Y-104863868D01*
X102435368Y-104815347D01*
X102419397Y-104762699D01*
X102413400Y-104701810D01*
X102413400Y-103476590D01*
X102419397Y-103415701D01*
X102435368Y-103363053D01*
X102461302Y-103314532D01*
X102496205Y-103272005D01*
X102538732Y-103237102D01*
X102587253Y-103211168D01*
X102639901Y-103195197D01*
X102700790Y-103189200D01*
X103501010Y-103189200D01*
X103561899Y-103195197D01*
G37*
G36*
X107067099Y-105125597D02*
G01*
X107119747Y-105141568D01*
X107168268Y-105167502D01*
X107210795Y-105202405D01*
X107245698Y-105244932D01*
X107271632Y-105293453D01*
X107287603Y-105346101D01*
X107293600Y-105406990D01*
X107293600Y-106632210D01*
X107287603Y-106693099D01*
X107271632Y-106745747D01*
X107245698Y-106794268D01*
X107210795Y-106836795D01*
X107168268Y-106871698D01*
X107119747Y-106897632D01*
X107067099Y-106913603D01*
X107006210Y-106919600D01*
X106205990Y-106919600D01*
X106145101Y-106913603D01*
X106092453Y-106897632D01*
X106043932Y-106871698D01*
X106001405Y-106836795D01*
X105966502Y-106794268D01*
X105940568Y-106745747D01*
X105924597Y-106693099D01*
X105918600Y-106632210D01*
X105918600Y-105406990D01*
X105924597Y-105346101D01*
X105940568Y-105293453D01*
X105966502Y-105244932D01*
X106001405Y-105202405D01*
X106043932Y-105167502D01*
X106092453Y-105141568D01*
X106145101Y-105125597D01*
X106205990Y-105119600D01*
X107006210Y-105119600D01*
X107067099Y-105125597D01*
G37*
G36*
X105436899Y-103195197D02*
G01*
X105489547Y-103211168D01*
X105538068Y-103237102D01*
X105580595Y-103272005D01*
X105615498Y-103314532D01*
X105641432Y-103363053D01*
X105657403Y-103415701D01*
X105663400Y-103476590D01*
X105663400Y-104701810D01*
X105657403Y-104762699D01*
X105641432Y-104815347D01*
X105615498Y-104863868D01*
X105580595Y-104906395D01*
X105538064Y-104941301D01*
X105532713Y-104944161D01*
X105512339Y-104957774D01*
X105495012Y-104975101D01*
X105481398Y-104995476D01*
X105472020Y-105018115D01*
X105467240Y-105042148D01*
X105467240Y-105066652D01*
X105472020Y-105090685D01*
X105481398Y-105113324D01*
X105495011Y-105133698D01*
X105512338Y-105151025D01*
X105532713Y-105164639D01*
X105538064Y-105167499D01*
X105580595Y-105202405D01*
X105615498Y-105244932D01*
X105641432Y-105293453D01*
X105657403Y-105346101D01*
X105663400Y-105406990D01*
X105663400Y-106632210D01*
X105657403Y-106693099D01*
X105641432Y-106745747D01*
X105615498Y-106794268D01*
X105580595Y-106836795D01*
X105538068Y-106871698D01*
X105489547Y-106897632D01*
X105436899Y-106913603D01*
X105376010Y-106919600D01*
X104575790Y-106919600D01*
X104514901Y-106913603D01*
X104462253Y-106897632D01*
X104413732Y-106871698D01*
X104371205Y-106836795D01*
X104336302Y-106794268D01*
X104310368Y-106745747D01*
X104294397Y-106693099D01*
X104288400Y-106632210D01*
X104288400Y-105406990D01*
X104294397Y-105346101D01*
X104310368Y-105293453D01*
X104336302Y-105244932D01*
X104371205Y-105202405D01*
X104413736Y-105167499D01*
X104419087Y-105164639D01*
X104439461Y-105151026D01*
X104456788Y-105133699D01*
X104470402Y-105113324D01*
X104479780Y-105090685D01*
X104484560Y-105066652D01*
X104484560Y-105042148D01*
X104479780Y-105018115D01*
X104470402Y-104995476D01*
X104456789Y-104975102D01*
X104439462Y-104957775D01*
X104419087Y-104944161D01*
X104413736Y-104941301D01*
X104371205Y-104906395D01*
X104336302Y-104863868D01*
X104310368Y-104815347D01*
X104294397Y-104762699D01*
X104288400Y-104701810D01*
X104288400Y-103476590D01*
X104294397Y-103415701D01*
X104310368Y-103363053D01*
X104336302Y-103314532D01*
X104371205Y-103272005D01*
X104413732Y-103237102D01*
X104462253Y-103211168D01*
X104514901Y-103195197D01*
X104575790Y-103189200D01*
X105376010Y-103189200D01*
X105436899Y-103195197D01*
G37*
G36*
X123978899Y-104820797D02*
G01*
X124031547Y-104836768D01*
X124080068Y-104862702D01*
X124122595Y-104897605D01*
X124157498Y-104940132D01*
X124183432Y-104988653D01*
X124199403Y-105041301D01*
X124205400Y-105102190D01*
X124205400Y-106327410D01*
X124199403Y-106388299D01*
X124183432Y-106440947D01*
X124157498Y-106489468D01*
X124122595Y-106531995D01*
X124080068Y-106566898D01*
X124031547Y-106592832D01*
X123978899Y-106608803D01*
X123918010Y-106614800D01*
X123117790Y-106614800D01*
X123056901Y-106608803D01*
X123004253Y-106592832D01*
X122955732Y-106566898D01*
X122913205Y-106531995D01*
X122878302Y-106489468D01*
X122852368Y-106440947D01*
X122836397Y-106388299D01*
X122830400Y-106327410D01*
X122830400Y-105102190D01*
X122836397Y-105041301D01*
X122852368Y-104988653D01*
X122878302Y-104940132D01*
X122913205Y-104897605D01*
X122955732Y-104862702D01*
X123004253Y-104836768D01*
X123056901Y-104820797D01*
X123117790Y-104814800D01*
X123918010Y-104814800D01*
X123978899Y-104820797D01*
G37*
G36*
X122103899Y-104820797D02*
G01*
X122156547Y-104836768D01*
X122205068Y-104862702D01*
X122247595Y-104897605D01*
X122282498Y-104940132D01*
X122308432Y-104988653D01*
X122324403Y-105041301D01*
X122330400Y-105102190D01*
X122330400Y-106327410D01*
X122324403Y-106388299D01*
X122308432Y-106440947D01*
X122282498Y-106489468D01*
X122247595Y-106531995D01*
X122205068Y-106566898D01*
X122156547Y-106592832D01*
X122103899Y-106608803D01*
X122043010Y-106614800D01*
X121242790Y-106614800D01*
X121181901Y-106608803D01*
X121129253Y-106592832D01*
X121080732Y-106566898D01*
X121038205Y-106531995D01*
X121003302Y-106489468D01*
X120977368Y-106440947D01*
X120961397Y-106388299D01*
X120955400Y-106327410D01*
X120955400Y-105102190D01*
X120961397Y-105041301D01*
X120977368Y-104988653D01*
X121003302Y-104940132D01*
X121038205Y-104897605D01*
X121080732Y-104862702D01*
X121129253Y-104836768D01*
X121181901Y-104820797D01*
X121242790Y-104814800D01*
X122043010Y-104814800D01*
X122103899Y-104820797D01*
G37*
G36*
X118395499Y-104820797D02*
G01*
X118448147Y-104836768D01*
X118496668Y-104862702D01*
X118539195Y-104897605D01*
X118574098Y-104940132D01*
X118600032Y-104988653D01*
X118616003Y-105041301D01*
X118622000Y-105102190D01*
X118622000Y-106327410D01*
X118616003Y-106388299D01*
X118600032Y-106440947D01*
X118574098Y-106489468D01*
X118539195Y-106531995D01*
X118496668Y-106566898D01*
X118448147Y-106592832D01*
X118395499Y-106608803D01*
X118334610Y-106614800D01*
X117534390Y-106614800D01*
X117473501Y-106608803D01*
X117420853Y-106592832D01*
X117372332Y-106566898D01*
X117329805Y-106531995D01*
X117294902Y-106489468D01*
X117268968Y-106440947D01*
X117252997Y-106388299D01*
X117247000Y-106327410D01*
X117247000Y-105102190D01*
X117252997Y-105041301D01*
X117268968Y-104988653D01*
X117294902Y-104940132D01*
X117329805Y-104897605D01*
X117372332Y-104862702D01*
X117420853Y-104836768D01*
X117473501Y-104820797D01*
X117534390Y-104814800D01*
X118334610Y-104814800D01*
X118395499Y-104820797D01*
G37*
G36*
X120270499Y-104820797D02*
G01*
X120323147Y-104836768D01*
X120371668Y-104862702D01*
X120414195Y-104897605D01*
X120449098Y-104940132D01*
X120475032Y-104988653D01*
X120491003Y-105041301D01*
X120497000Y-105102190D01*
X120497000Y-106327410D01*
X120491003Y-106388299D01*
X120475032Y-106440947D01*
X120449098Y-106489468D01*
X120414195Y-106531995D01*
X120371668Y-106566898D01*
X120323147Y-106592832D01*
X120270499Y-106608803D01*
X120209610Y-106614800D01*
X119409390Y-106614800D01*
X119348501Y-106608803D01*
X119295853Y-106592832D01*
X119247332Y-106566898D01*
X119204805Y-106531995D01*
X119169902Y-106489468D01*
X119143968Y-106440947D01*
X119127997Y-106388299D01*
X119122000Y-106327410D01*
X119122000Y-105102190D01*
X119127997Y-105041301D01*
X119143968Y-104988653D01*
X119169902Y-104940132D01*
X119204805Y-104897605D01*
X119247332Y-104862702D01*
X119295853Y-104836768D01*
X119348501Y-104820797D01*
X119409390Y-104814800D01*
X120209610Y-104814800D01*
X120270499Y-104820797D01*
G37*
G36*
X112382699Y-103790997D02*
G01*
X112435347Y-103806968D01*
X112483868Y-103832902D01*
X112526395Y-103867805D01*
X112561298Y-103910332D01*
X112587232Y-103958853D01*
X112603203Y-104011501D01*
X112609200Y-104072390D01*
X112609200Y-104872610D01*
X112603203Y-104933499D01*
X112587232Y-104986147D01*
X112561298Y-105034668D01*
X112526395Y-105077195D01*
X112483868Y-105112098D01*
X112435347Y-105138032D01*
X112382699Y-105154003D01*
X112321810Y-105160000D01*
X111096590Y-105160000D01*
X111035701Y-105154003D01*
X110983053Y-105138032D01*
X110934532Y-105112098D01*
X110892005Y-105077195D01*
X110857102Y-105034668D01*
X110831168Y-104986147D01*
X110815197Y-104933499D01*
X110809200Y-104872610D01*
X110809200Y-104072390D01*
X110815197Y-104011501D01*
X110831168Y-103958853D01*
X110857102Y-103910332D01*
X110892005Y-103867805D01*
X110934532Y-103832902D01*
X110983053Y-103806968D01*
X111035701Y-103790997D01*
X111096590Y-103785000D01*
X112321810Y-103785000D01*
X112382699Y-103790997D01*
G37*
G36*
X126050000Y-103050000D02*
G01*
X123950000Y-103050000D01*
X123950000Y-100950000D01*
X126050000Y-100950000D01*
X126050000Y-103050000D01*
G37*
G36*
X127668687Y-100955027D02*
G01*
X127846274Y-100990350D01*
X128037362Y-101069502D01*
X128209336Y-101184411D01*
X128355589Y-101330664D01*
X128470498Y-101502638D01*
X128549650Y-101693726D01*
X128590000Y-101896584D01*
X128590000Y-102103416D01*
X128549650Y-102306274D01*
X128470498Y-102497362D01*
X128355589Y-102669336D01*
X128209336Y-102815589D01*
X128037362Y-102930498D01*
X127846274Y-103009650D01*
X127668687Y-103044973D01*
X127643417Y-103050000D01*
X127436583Y-103050000D01*
X127411313Y-103044973D01*
X127233726Y-103009650D01*
X127042638Y-102930498D01*
X126870664Y-102815589D01*
X126724411Y-102669336D01*
X126609502Y-102497362D01*
X126530350Y-102306274D01*
X126490000Y-102103416D01*
X126490000Y-101896584D01*
X126530350Y-101693726D01*
X126609502Y-101502638D01*
X126724411Y-101330664D01*
X126870664Y-101184411D01*
X127042638Y-101069502D01*
X127233726Y-100990350D01*
X127411313Y-100955027D01*
X127436583Y-100950000D01*
X127643417Y-100950000D01*
X127668687Y-100955027D01*
G37*
G36*
X116010400Y-101583200D02*
G01*
X113910400Y-101583200D01*
X113910400Y-99483200D01*
X116010400Y-99483200D01*
X116010400Y-101583200D01*
G37*
G36*
X117629087Y-99488227D02*
G01*
X117806674Y-99523550D01*
X117997762Y-99602702D01*
X118169736Y-99717611D01*
X118315989Y-99863864D01*
X118430898Y-100035838D01*
X118510050Y-100226926D01*
X118550400Y-100429784D01*
X118550400Y-100636616D01*
X118510050Y-100839474D01*
X118430898Y-101030562D01*
X118315989Y-101202536D01*
X118169736Y-101348789D01*
X117997762Y-101463698D01*
X117806674Y-101542850D01*
X117629087Y-101578173D01*
X117603817Y-101583200D01*
X117396983Y-101583200D01*
X117371713Y-101578173D01*
X117194126Y-101542850D01*
X117003038Y-101463698D01*
X116831064Y-101348789D01*
X116684811Y-101202536D01*
X116569902Y-101030562D01*
X116490750Y-100839474D01*
X116450400Y-100636616D01*
X116450400Y-100429784D01*
X116490750Y-100226926D01*
X116569902Y-100035838D01*
X116684811Y-99863864D01*
X116831064Y-99717611D01*
X117003038Y-99602702D01*
X117194126Y-99523550D01*
X117371713Y-99488227D01*
X117396983Y-99483200D01*
X117603817Y-99483200D01*
X117629087Y-99488227D01*
G37*
G36*
X112839899Y-99750097D02*
G01*
X112892547Y-99766068D01*
X112941068Y-99792002D01*
X112983595Y-99826905D01*
X113018498Y-99869432D01*
X113044432Y-99917953D01*
X113060403Y-99970601D01*
X113066400Y-100031490D01*
X113066400Y-100831710D01*
X113060403Y-100892599D01*
X113044432Y-100945247D01*
X113018498Y-100993768D01*
X112983595Y-101036295D01*
X112941068Y-101071198D01*
X112892547Y-101097132D01*
X112839899Y-101113103D01*
X112779010Y-101119100D01*
X111553790Y-101119100D01*
X111492901Y-101113103D01*
X111440253Y-101097132D01*
X111391732Y-101071198D01*
X111349205Y-101036295D01*
X111314302Y-100993768D01*
X111288368Y-100945247D01*
X111272397Y-100892599D01*
X111266400Y-100831710D01*
X111266400Y-100031490D01*
X111272397Y-99970601D01*
X111288368Y-99917953D01*
X111314302Y-99869432D01*
X111349205Y-99826905D01*
X111391732Y-99792002D01*
X111440253Y-99766068D01*
X111492901Y-99750097D01*
X111553790Y-99744100D01*
X112779010Y-99744100D01*
X112839899Y-99750097D01*
G37*
G36*
X129475000Y-100650000D02*
G01*
X120525000Y-100650000D01*
X120525000Y-98750000D01*
X129475000Y-98750000D01*
X129475000Y-100650000D01*
G37*
G36*
X114166000Y-97646000D02*
G01*
X112927343Y-97646000D01*
X112902957Y-97648402D01*
X112879508Y-97655515D01*
X112857897Y-97667066D01*
X112838955Y-97682611D01*
X112823410Y-97701553D01*
X112811859Y-97723164D01*
X112804746Y-97746613D01*
X112802344Y-97770999D01*
X112804746Y-97795385D01*
X112811859Y-97818834D01*
X112823410Y-97840445D01*
X112838955Y-97859387D01*
X112857897Y-97874932D01*
X112879508Y-97886483D01*
X112891058Y-97890616D01*
X112892547Y-97891068D01*
X112941068Y-97917002D01*
X112983595Y-97951905D01*
X113018498Y-97994432D01*
X113044432Y-98042953D01*
X113060403Y-98095601D01*
X113066400Y-98156490D01*
X113066400Y-98956710D01*
X113060403Y-99017599D01*
X113044432Y-99070247D01*
X113018498Y-99118768D01*
X112983595Y-99161295D01*
X112941068Y-99196198D01*
X112892547Y-99222132D01*
X112839899Y-99238103D01*
X112779010Y-99244100D01*
X111553790Y-99244100D01*
X111492901Y-99238103D01*
X111440253Y-99222132D01*
X111391732Y-99196198D01*
X111349205Y-99161295D01*
X111314302Y-99118768D01*
X111288368Y-99070247D01*
X111272397Y-99017599D01*
X111266400Y-98956710D01*
X111266400Y-98156490D01*
X111272397Y-98095601D01*
X111288368Y-98042953D01*
X111314302Y-97994432D01*
X111349205Y-97951905D01*
X111391732Y-97917002D01*
X111440253Y-97891068D01*
X111492901Y-97875097D01*
X111553790Y-97869100D01*
X112341001Y-97869100D01*
X112365387Y-97866698D01*
X112388836Y-97859585D01*
X112410447Y-97848034D01*
X112429389Y-97832489D01*
X112444934Y-97813547D01*
X112456485Y-97791936D01*
X112463598Y-97768487D01*
X112466000Y-97744101D01*
X112466000Y-95646000D01*
X114166000Y-95646000D01*
X114166000Y-97646000D01*
G37*
G36*
X120250000Y-98475000D02*
G01*
X118350000Y-98475000D01*
X118350000Y-89525000D01*
X120250000Y-89525000D01*
X120250000Y-98475000D01*
G37*
G36*
X131650000Y-98475000D02*
G01*
X129750000Y-98475000D01*
X129750000Y-89525000D01*
X131650000Y-89525000D01*
X131650000Y-98475000D01*
G37*
G36*
X116166000Y-97646000D02*
G01*
X114466000Y-97646000D01*
X114466000Y-95646000D01*
X116166000Y-95646000D01*
X116166000Y-97646000D01*
G37*
G36*
X104275600Y-95080800D02*
G01*
X102175600Y-95080800D01*
X102175600Y-92980800D01*
X104275600Y-92980800D01*
X104275600Y-95080800D01*
G37*
G36*
X116166000Y-94346000D02*
G01*
X114466000Y-94346000D01*
X114466000Y-92346000D01*
X116166000Y-92346000D01*
X116166000Y-94346000D01*
G37*
G36*
X114166000Y-94346000D02*
G01*
X112466000Y-94346000D01*
X112466000Y-92346000D01*
X114166000Y-92346000D01*
X114166000Y-94346000D01*
G37*
G36*
X104275600Y-92540800D02*
G01*
X102175600Y-92540800D01*
X102175600Y-90440800D01*
X104275600Y-90440800D01*
X104275600Y-92540800D01*
G37*
G36*
X113186199Y-90291997D02*
G01*
X113238847Y-90307968D01*
X113287368Y-90333902D01*
X113329895Y-90368805D01*
X113364798Y-90411332D01*
X113390732Y-90459853D01*
X113406703Y-90512501D01*
X113412700Y-90573390D01*
X113412700Y-91798610D01*
X113406703Y-91859499D01*
X113390732Y-91912147D01*
X113364798Y-91960668D01*
X113329895Y-92003195D01*
X113287368Y-92038098D01*
X113238847Y-92064032D01*
X113186199Y-92080003D01*
X113125310Y-92086000D01*
X112325090Y-92086000D01*
X112264201Y-92080003D01*
X112211553Y-92064032D01*
X112163032Y-92038098D01*
X112120505Y-92003195D01*
X112085602Y-91960668D01*
X112059668Y-91912147D01*
X112043697Y-91859499D01*
X112037700Y-91798610D01*
X112037700Y-90573390D01*
X112043697Y-90512501D01*
X112059668Y-90459853D01*
X112085602Y-90411332D01*
X112120505Y-90368805D01*
X112163032Y-90333902D01*
X112211553Y-90307968D01*
X112264201Y-90291997D01*
X112325090Y-90286000D01*
X113125310Y-90286000D01*
X113186199Y-90291997D01*
G37*
G36*
X115061199Y-90291997D02*
G01*
X115113847Y-90307968D01*
X115162368Y-90333902D01*
X115204895Y-90368805D01*
X115239798Y-90411332D01*
X115265732Y-90459853D01*
X115281703Y-90512501D01*
X115287700Y-90573390D01*
X115287700Y-91798610D01*
X115281703Y-91859499D01*
X115265732Y-91912147D01*
X115239798Y-91960668D01*
X115204895Y-92003195D01*
X115162368Y-92038098D01*
X115113847Y-92064032D01*
X115061199Y-92080003D01*
X115000310Y-92086000D01*
X114200090Y-92086000D01*
X114139201Y-92080003D01*
X114086553Y-92064032D01*
X114038032Y-92038098D01*
X113995505Y-92003195D01*
X113960602Y-91960668D01*
X113934668Y-91912147D01*
X113918697Y-91859499D01*
X113912700Y-91798610D01*
X113912700Y-90573390D01*
X113918697Y-90512501D01*
X113934668Y-90459853D01*
X113960602Y-90411332D01*
X113995505Y-90368805D01*
X114038032Y-90333902D01*
X114086553Y-90307968D01*
X114139201Y-90291997D01*
X114200090Y-90286000D01*
X115000310Y-90286000D01*
X115061199Y-90291997D01*
G37*
G36*
X104275600Y-90000800D02*
G01*
X102175600Y-90000800D01*
X102175600Y-87900800D01*
X104275600Y-87900800D01*
X104275600Y-90000800D01*
G37*
G36*
X129475000Y-89250000D02*
G01*
X120525000Y-89250000D01*
X120525000Y-87350000D01*
X129475000Y-87350000D01*
X129475000Y-89250000D01*
G37*
G36*
X134400000Y-88680000D02*
G01*
X132300000Y-88680000D01*
X132300000Y-86580000D01*
X134400000Y-86580000D01*
X134400000Y-88680000D01*
G37*
G36*
X104275600Y-87460800D02*
G01*
X102175600Y-87460800D01*
X102175600Y-85360800D01*
X104275600Y-85360800D01*
X104275600Y-87460800D01*
G37*
G36*
X126828299Y-85008797D02*
G01*
X126880947Y-85024768D01*
X126929468Y-85050702D01*
X126971995Y-85085605D01*
X127006898Y-85128132D01*
X127032832Y-85176653D01*
X127048803Y-85229301D01*
X127054800Y-85290190D01*
X127054800Y-86515410D01*
X127048803Y-86576299D01*
X127032832Y-86628947D01*
X127006898Y-86677468D01*
X126971995Y-86719995D01*
X126929468Y-86754898D01*
X126880947Y-86780832D01*
X126828299Y-86796803D01*
X126767410Y-86802800D01*
X125967190Y-86802800D01*
X125906301Y-86796803D01*
X125853653Y-86780832D01*
X125805132Y-86754898D01*
X125762605Y-86719995D01*
X125727702Y-86677468D01*
X125701768Y-86628947D01*
X125685797Y-86576299D01*
X125679800Y-86515410D01*
X125679800Y-85290190D01*
X125685797Y-85229301D01*
X125701768Y-85176653D01*
X125727702Y-85128132D01*
X125762605Y-85085605D01*
X125805132Y-85050702D01*
X125853653Y-85024768D01*
X125906301Y-85008797D01*
X125967190Y-85002800D01*
X126767410Y-85002800D01*
X126828299Y-85008797D01*
G37*
G36*
X128703299Y-85008797D02*
G01*
X128755947Y-85024768D01*
X128804468Y-85050702D01*
X128846995Y-85085605D01*
X128881898Y-85128132D01*
X128907832Y-85176653D01*
X128923803Y-85229301D01*
X128929800Y-85290190D01*
X128929800Y-86515410D01*
X128923803Y-86576299D01*
X128907832Y-86628947D01*
X128881898Y-86677468D01*
X128846995Y-86719995D01*
X128804468Y-86754898D01*
X128755947Y-86780832D01*
X128703299Y-86796803D01*
X128642410Y-86802800D01*
X127842190Y-86802800D01*
X127781301Y-86796803D01*
X127728653Y-86780832D01*
X127680132Y-86754898D01*
X127637605Y-86719995D01*
X127602702Y-86677468D01*
X127576768Y-86628947D01*
X127560797Y-86576299D01*
X127554800Y-86515410D01*
X127554800Y-85290190D01*
X127560797Y-85229301D01*
X127576768Y-85176653D01*
X127602702Y-85128132D01*
X127637605Y-85085605D01*
X127680132Y-85050702D01*
X127728653Y-85024768D01*
X127781301Y-85008797D01*
X127842190Y-85002800D01*
X128642410Y-85002800D01*
X128703299Y-85008797D01*
G37*
G36*
X134400000Y-86140000D02*
G01*
X132300000Y-86140000D01*
X132300000Y-84040000D01*
X134400000Y-84040000D01*
X134400000Y-86140000D01*
G37*
G36*
X114350000Y-84675000D02*
G01*
X111650000Y-84675000D01*
X111650000Y-83575000D01*
X114350000Y-83575000D01*
X114350000Y-84675000D01*
G37*
G36*
X119110857Y-81942272D02*
G01*
X119311043Y-82025192D01*
X119311045Y-82025193D01*
X119401738Y-82085792D01*
X119491208Y-82145574D01*
X119644426Y-82298792D01*
X119764808Y-82478957D01*
X119847728Y-82679143D01*
X119890000Y-82891658D01*
X119890000Y-83108342D01*
X119847728Y-83320857D01*
X119764808Y-83521043D01*
X119764807Y-83521045D01*
X119644425Y-83701209D01*
X119491209Y-83854425D01*
X119311045Y-83974807D01*
X119311044Y-83974808D01*
X119311043Y-83974808D01*
X119110857Y-84057728D01*
X118898342Y-84100000D01*
X118681658Y-84100000D01*
X118469143Y-84057728D01*
X118268957Y-83974808D01*
X118268956Y-83974808D01*
X118268955Y-83974807D01*
X118088791Y-83854425D01*
X117935575Y-83701209D01*
X117815193Y-83521045D01*
X117815192Y-83521043D01*
X117732272Y-83320857D01*
X117690000Y-83108342D01*
X117690000Y-82891658D01*
X117732272Y-82679143D01*
X117815192Y-82478957D01*
X117935574Y-82298792D01*
X118088792Y-82145574D01*
X118178262Y-82085792D01*
X118268955Y-82025193D01*
X118268957Y-82025192D01*
X118469143Y-81942272D01*
X118681658Y-81900000D01*
X118898342Y-81900000D01*
X119110857Y-81942272D01*
G37*
G36*
X117350000Y-84100000D02*
G01*
X115150000Y-84100000D01*
X115150000Y-81900000D01*
X117350000Y-81900000D01*
X117350000Y-84100000D01*
G37*
G36*
X114350000Y-82425000D02*
G01*
X111650000Y-82425000D01*
X111650000Y-81325000D01*
X114350000Y-81325000D01*
X114350000Y-82425000D01*
G37*
G36*
X127542000Y-81568000D02*
G01*
X125442000Y-81568000D01*
X125442000Y-79468000D01*
X127542000Y-79468000D01*
X127542000Y-81568000D01*
G37*
G36*
X116497499Y-76506797D02*
G01*
X116550147Y-76522768D01*
X116598668Y-76548702D01*
X116641195Y-76583605D01*
X116676098Y-76626132D01*
X116702032Y-76674653D01*
X116718003Y-76727301D01*
X116724000Y-76788190D01*
X116724000Y-77588410D01*
X116718003Y-77649299D01*
X116702032Y-77701947D01*
X116676098Y-77750468D01*
X116641195Y-77792995D01*
X116598668Y-77827898D01*
X116550147Y-77853832D01*
X116497499Y-77869803D01*
X116436610Y-77875800D01*
X115211390Y-77875800D01*
X115150501Y-77869803D01*
X115097853Y-77853832D01*
X115049332Y-77827898D01*
X115006805Y-77792995D01*
X114971902Y-77750468D01*
X114945968Y-77701947D01*
X114929997Y-77649299D01*
X114924000Y-77588410D01*
X114924000Y-76788190D01*
X114929997Y-76727301D01*
X114945968Y-76674653D01*
X114971902Y-76626132D01*
X115006805Y-76583605D01*
X115049332Y-76548702D01*
X115097853Y-76522768D01*
X115150501Y-76506797D01*
X115211390Y-76500800D01*
X116436610Y-76500800D01*
X116497499Y-76506797D01*
G37*
G36*
X116497499Y-74631797D02*
G01*
X116550147Y-74647768D01*
X116598668Y-74673702D01*
X116641195Y-74708605D01*
X116676098Y-74751132D01*
X116702032Y-74799653D01*
X116718003Y-74852301D01*
X116724000Y-74913190D01*
X116724000Y-75713410D01*
X116718003Y-75774299D01*
X116702032Y-75826947D01*
X116676098Y-75875468D01*
X116641195Y-75917995D01*
X116598668Y-75952898D01*
X116550147Y-75978832D01*
X116497499Y-75994803D01*
X116436610Y-76000800D01*
X115211390Y-76000800D01*
X115150501Y-75994803D01*
X115097853Y-75978832D01*
X115049332Y-75952898D01*
X115006805Y-75917995D01*
X114971902Y-75875468D01*
X114945968Y-75826947D01*
X114929997Y-75774299D01*
X114924000Y-75713410D01*
X114924000Y-74913190D01*
X114929997Y-74852301D01*
X114945968Y-74799653D01*
X114971902Y-74751132D01*
X115006805Y-74708605D01*
X115049332Y-74673702D01*
X115097853Y-74647768D01*
X115150501Y-74631797D01*
X115211390Y-74625800D01*
X116436610Y-74625800D01*
X116497499Y-74631797D01*
G37*
G36*
X125507499Y-65958797D02*
G01*
X125560147Y-65974768D01*
X125608668Y-66000702D01*
X125651195Y-66035605D01*
X125686098Y-66078132D01*
X125712032Y-66126653D01*
X125728003Y-66179301D01*
X125734000Y-66240190D01*
X125734000Y-67465410D01*
X125728003Y-67526302D01*
X125712164Y-67578514D01*
X125707383Y-67602547D01*
X125707383Y-67627051D01*
X125712164Y-67651086D01*
X125728003Y-67703298D01*
X125734000Y-67764190D01*
X125734000Y-68989410D01*
X125728003Y-69050299D01*
X125712032Y-69102947D01*
X125686098Y-69151468D01*
X125651195Y-69193995D01*
X125608668Y-69228898D01*
X125560147Y-69254832D01*
X125507499Y-69270803D01*
X125446610Y-69276800D01*
X124646390Y-69276800D01*
X124585501Y-69270803D01*
X124532853Y-69254832D01*
X124484332Y-69228898D01*
X124441805Y-69193995D01*
X124406902Y-69151468D01*
X124380968Y-69102947D01*
X124364997Y-69050299D01*
X124359000Y-68989410D01*
X124359000Y-67764190D01*
X124364997Y-67703298D01*
X124380836Y-67651086D01*
X124385617Y-67627053D01*
X124385617Y-67602549D01*
X124380836Y-67578514D01*
X124364997Y-67526302D01*
X124359000Y-67465410D01*
X124359000Y-66240190D01*
X124364997Y-66179301D01*
X124380968Y-66126653D01*
X124406902Y-66078132D01*
X124441805Y-66035605D01*
X124484332Y-66000702D01*
X124532853Y-65974768D01*
X124585501Y-65958797D01*
X124646390Y-65952800D01*
X125446610Y-65952800D01*
X125507499Y-65958797D01*
G37*
G36*
X127382499Y-65958797D02*
G01*
X127435147Y-65974768D01*
X127483668Y-66000702D01*
X127526195Y-66035605D01*
X127561098Y-66078132D01*
X127587032Y-66126653D01*
X127603003Y-66179301D01*
X127609000Y-66240190D01*
X127609000Y-67465410D01*
X127603003Y-67526302D01*
X127587164Y-67578514D01*
X127582383Y-67602547D01*
X127582383Y-67627051D01*
X127587164Y-67651086D01*
X127603003Y-67703298D01*
X127609000Y-67764190D01*
X127609000Y-68989410D01*
X127603003Y-69050299D01*
X127587032Y-69102947D01*
X127561098Y-69151468D01*
X127526195Y-69193995D01*
X127483668Y-69228898D01*
X127435147Y-69254832D01*
X127382499Y-69270803D01*
X127321610Y-69276800D01*
X126521390Y-69276800D01*
X126460501Y-69270803D01*
X126407853Y-69254832D01*
X126359332Y-69228898D01*
X126316805Y-69193995D01*
X126281902Y-69151468D01*
X126255968Y-69102947D01*
X126239997Y-69050299D01*
X126234000Y-68989410D01*
X126234000Y-67764190D01*
X126239997Y-67703298D01*
X126255836Y-67651086D01*
X126260617Y-67627053D01*
X126260617Y-67602549D01*
X126255836Y-67578514D01*
X126239997Y-67526302D01*
X126234000Y-67465410D01*
X126234000Y-66240190D01*
X126239997Y-66179301D01*
X126255968Y-66126653D01*
X126281902Y-66078132D01*
X126316805Y-66035605D01*
X126359332Y-66000702D01*
X126407853Y-65974768D01*
X126460501Y-65958797D01*
X126521390Y-65952800D01*
X127321610Y-65952800D01*
X127382499Y-65958797D01*
G37*
G36*
X118885099Y-66499197D02*
G01*
X118937747Y-66515168D01*
X118986268Y-66541102D01*
X119028795Y-66576005D01*
X119063698Y-66618532D01*
X119089632Y-66667053D01*
X119105603Y-66719701D01*
X119111600Y-66780590D01*
X119111600Y-67580810D01*
X119105603Y-67641699D01*
X119089632Y-67694347D01*
X119063698Y-67742868D01*
X119028795Y-67785395D01*
X118986268Y-67820298D01*
X118937747Y-67846232D01*
X118885099Y-67862203D01*
X118824210Y-67868200D01*
X117598990Y-67868200D01*
X117538101Y-67862203D01*
X117485453Y-67846232D01*
X117436932Y-67820298D01*
X117394405Y-67785395D01*
X117359502Y-67742868D01*
X117333568Y-67694347D01*
X117317597Y-67641699D01*
X117311600Y-67580810D01*
X117311600Y-66780590D01*
X117317597Y-66719701D01*
X117333568Y-66667053D01*
X117359502Y-66618532D01*
X117394405Y-66576005D01*
X117436932Y-66541102D01*
X117485453Y-66515168D01*
X117538101Y-66499197D01*
X117598990Y-66493200D01*
X118824210Y-66493200D01*
X118885099Y-66499197D01*
G37*
G36*
X119800000Y-65200000D02*
G01*
X119236599Y-65200000D01*
X119212213Y-65202402D01*
X119188764Y-65209515D01*
X119167153Y-65221066D01*
X119148211Y-65236611D01*
X119132666Y-65255553D01*
X119121115Y-65277164D01*
X119114002Y-65300613D01*
X119111600Y-65324999D01*
X119111600Y-65705810D01*
X119105603Y-65766699D01*
X119089632Y-65819347D01*
X119063698Y-65867868D01*
X119028795Y-65910395D01*
X118986268Y-65945298D01*
X118937747Y-65971232D01*
X118885099Y-65987203D01*
X118824210Y-65993200D01*
X117598990Y-65993200D01*
X117538101Y-65987203D01*
X117485453Y-65971232D01*
X117436932Y-65945298D01*
X117416311Y-65928374D01*
X117395936Y-65914760D01*
X117373298Y-65905383D01*
X117349264Y-65900602D01*
X117337011Y-65900000D01*
X116537390Y-65900000D01*
X116476501Y-65894003D01*
X116423853Y-65878032D01*
X116375332Y-65852098D01*
X116332805Y-65817195D01*
X116297902Y-65774668D01*
X116271968Y-65726147D01*
X116255997Y-65673499D01*
X116250000Y-65612610D01*
X116250000Y-64387390D01*
X116255997Y-64326501D01*
X116271968Y-64273853D01*
X116297902Y-64225332D01*
X116332805Y-64182805D01*
X116375332Y-64147902D01*
X116423853Y-64121968D01*
X116476501Y-64105997D01*
X116537390Y-64100000D01*
X117337610Y-64100000D01*
X117398499Y-64105997D01*
X117451147Y-64121968D01*
X117499668Y-64147902D01*
X117542195Y-64182805D01*
X117577098Y-64225332D01*
X117603032Y-64273853D01*
X117619003Y-64326501D01*
X117625000Y-64387390D01*
X117625000Y-64493201D01*
X117627402Y-64517587D01*
X117634515Y-64541036D01*
X117646066Y-64562647D01*
X117661611Y-64581589D01*
X117680553Y-64597134D01*
X117702164Y-64608685D01*
X117725613Y-64615798D01*
X117749999Y-64618200D01*
X118075001Y-64618200D01*
X118099387Y-64615798D01*
X118122836Y-64608685D01*
X118144447Y-64597134D01*
X118163389Y-64581589D01*
X118178934Y-64562647D01*
X118190485Y-64541036D01*
X118197598Y-64517587D01*
X118200000Y-64493201D01*
X118200000Y-61800000D01*
X119800000Y-61800000D01*
X119800000Y-65200000D01*
G37*
G36*
X115523499Y-64105997D02*
G01*
X115576147Y-64121968D01*
X115624668Y-64147902D01*
X115667195Y-64182805D01*
X115702098Y-64225332D01*
X115728032Y-64273853D01*
X115744003Y-64326501D01*
X115750000Y-64387390D01*
X115750000Y-65612610D01*
X115744003Y-65673499D01*
X115728032Y-65726147D01*
X115702098Y-65774668D01*
X115667195Y-65817195D01*
X115624668Y-65852098D01*
X115576147Y-65878032D01*
X115523499Y-65894003D01*
X115462610Y-65900000D01*
X114662390Y-65900000D01*
X114601501Y-65894003D01*
X114548853Y-65878032D01*
X114500332Y-65852098D01*
X114457805Y-65817195D01*
X114422902Y-65774668D01*
X114396968Y-65726148D01*
X114395623Y-65721714D01*
X114386246Y-65699075D01*
X114372632Y-65678701D01*
X114355305Y-65661374D01*
X114334931Y-65647760D01*
X114312292Y-65638383D01*
X114288259Y-65633602D01*
X114276006Y-65633000D01*
X113325856Y-65633000D01*
X113301470Y-65635402D01*
X113278021Y-65642515D01*
X113204182Y-65673100D01*
X113068945Y-65700000D01*
X112931055Y-65700000D01*
X112795818Y-65673100D01*
X112668427Y-65620333D01*
X112572520Y-65556250D01*
X112553776Y-65543726D01*
X112456274Y-65446224D01*
X112379668Y-65331574D01*
X112379667Y-65331573D01*
X112326900Y-65204182D01*
X112300000Y-65068945D01*
X112300000Y-64931055D01*
X112326900Y-64795818D01*
X112379667Y-64668427D01*
X112456273Y-64553778D01*
X112456274Y-64553776D01*
X112553776Y-64456274D01*
X112668426Y-64379668D01*
X112668427Y-64379667D01*
X112795818Y-64326900D01*
X112931055Y-64300000D01*
X112997063Y-64300000D01*
X113021449Y-64297598D01*
X113055987Y-64285241D01*
X113065853Y-64279968D01*
X113118501Y-64263997D01*
X113179390Y-64258000D01*
X114336972Y-64258000D01*
X114361358Y-64255598D01*
X114384807Y-64248485D01*
X114406418Y-64236934D01*
X114433597Y-64212301D01*
X114457805Y-64182805D01*
X114500332Y-64147902D01*
X114548853Y-64121968D01*
X114601501Y-64105997D01*
X114662390Y-64100000D01*
X115462610Y-64100000D01*
X115523499Y-64105997D01*
G37*
G36*
X121800000Y-65200000D02*
G01*
X120200000Y-65200000D01*
X120200000Y-61800000D01*
X121800000Y-61800000D01*
X121800000Y-65200000D01*
G37*
G36*
X133800000Y-65200000D02*
G01*
X132200000Y-65200000D01*
X132200000Y-61800000D01*
X133800000Y-61800000D01*
X133800000Y-65200000D01*
G37*
G36*
X123800000Y-65200000D02*
G01*
X122200000Y-65200000D01*
X122200000Y-61800000D01*
X123800000Y-61800000D01*
X123800000Y-65200000D01*
G37*
G36*
X125800000Y-65200000D02*
G01*
X124200000Y-65200000D01*
X124200000Y-61800000D01*
X125800000Y-61800000D01*
X125800000Y-65200000D01*
G37*
G36*
X127800000Y-65200000D02*
G01*
X126200000Y-65200000D01*
X126200000Y-61800000D01*
X127800000Y-61800000D01*
X127800000Y-65200000D01*
G37*
G36*
X131800000Y-65200000D02*
G01*
X130200000Y-65200000D01*
X130200000Y-61800000D01*
X131800000Y-61800000D01*
X131800000Y-65200000D01*
G37*
G36*
X129800000Y-65200000D02*
G01*
X128200000Y-65200000D01*
X128200000Y-61800000D01*
X129800000Y-61800000D01*
X129800000Y-65200000D01*
G37*
G36*
X114465499Y-62388997D02*
G01*
X114518147Y-62404968D01*
X114566668Y-62430902D01*
X114609195Y-62465805D01*
X114644098Y-62508332D01*
X114670032Y-62556853D01*
X114686003Y-62609501D01*
X114692000Y-62670390D01*
X114692000Y-63470610D01*
X114686003Y-63531499D01*
X114670032Y-63584147D01*
X114644098Y-63632668D01*
X114609195Y-63675195D01*
X114566668Y-63710098D01*
X114518147Y-63736032D01*
X114465499Y-63752003D01*
X114404610Y-63758000D01*
X113179390Y-63758000D01*
X113118501Y-63752003D01*
X113065853Y-63736032D01*
X113017332Y-63710098D01*
X112974805Y-63675195D01*
X112939902Y-63632668D01*
X112913968Y-63584147D01*
X112897997Y-63531499D01*
X112892000Y-63470610D01*
X112892000Y-62670390D01*
X112897997Y-62609501D01*
X112913968Y-62556853D01*
X112939902Y-62508332D01*
X112974805Y-62465805D01*
X113017332Y-62430902D01*
X113065853Y-62404968D01*
X113118501Y-62388997D01*
X113179390Y-62383000D01*
X114404610Y-62383000D01*
X114465499Y-62388997D01*
G37*
G36*
X129800000Y-50200000D02*
G01*
X128200000Y-50200000D01*
X128200000Y-46800000D01*
X129800000Y-46800000D01*
X129800000Y-50200000D01*
G37*
G36*
X127800000Y-50200000D02*
G01*
X126200000Y-50200000D01*
X126200000Y-46800000D01*
X127800000Y-46800000D01*
X127800000Y-50200000D01*
G37*
G36*
X125800000Y-50200000D02*
G01*
X124200000Y-50200000D01*
X124200000Y-46800000D01*
X125800000Y-46800000D01*
X125800000Y-50200000D01*
G37*
G36*
X123800000Y-50200000D02*
G01*
X122200000Y-50200000D01*
X122200000Y-46800000D01*
X123800000Y-46800000D01*
X123800000Y-50200000D01*
G37*
G36*
X121800000Y-50200000D02*
G01*
X120200000Y-50200000D01*
X120200000Y-46800000D01*
X121800000Y-46800000D01*
X121800000Y-50200000D01*
G37*
G36*
X119800000Y-50200000D02*
G01*
X118200000Y-50200000D01*
X118200000Y-46800000D01*
X119800000Y-46800000D01*
X119800000Y-50200000D01*
G37*
G36*
X133800000Y-50200000D02*
G01*
X132200000Y-50200000D01*
X132200000Y-46800000D01*
X133800000Y-46800000D01*
X133800000Y-50200000D01*
G37*
G36*
X131800000Y-50200000D02*
G01*
X130200000Y-50200000D01*
X130200000Y-46800000D01*
X131800000Y-46800000D01*
X131800000Y-50200000D01*
G37*
M02*
