G04 #@! TF.GenerationSoftware,KiCad,Pcbnew,5.0.2-bee76a0~70~ubuntu18.04.1*
G04 #@! TF.CreationDate,2019-02-20T16:39:47+02:00*
G04 #@! TF.ProjectId,weerstasie,77656572-7374-4617-9369-652e6b696361,rev?*
G04 #@! TF.SameCoordinates,Original*
G04 #@! TF.FileFunction,Soldermask,Top*
G04 #@! TF.FilePolarity,Negative*
%FSLAX46Y46*%
G04 Gerber Fmt 4.6, Leading zero omitted, Abs format (unit mm)*
G04 Created by KiCad (PCBNEW 5.0.2-bee76a0~70~ubuntu18.04.1) date Wed 20 Feb 2019 16:39:47 SAST*
%MOMM*%
%LPD*%
G01*
G04 APERTURE LIST*
%ADD10C,0.100000*%
G04 APERTURE END LIST*
D10*
G36*
X116200000Y-132200000D02*
X102800000Y-132200000D01*
X102800000Y-129800000D01*
X116200000Y-129800000D01*
X116200000Y-132200000D01*
X116200000Y-132200000D01*
G37*
G36*
X132200000Y-132200000D02*
X118800000Y-132200000D01*
X118800000Y-129800000D01*
X132200000Y-129800000D01*
X132200000Y-132200000D01*
X132200000Y-132200000D01*
G37*
G36*
X120986297Y-125953597D02*
X121038953Y-125969570D01*
X121087465Y-125995500D01*
X121129996Y-126030404D01*
X121164900Y-126072935D01*
X121190830Y-126121447D01*
X121206803Y-126174103D01*
X121212800Y-126234990D01*
X121212800Y-127460210D01*
X121206803Y-127521097D01*
X121190830Y-127573753D01*
X121164900Y-127622265D01*
X121129996Y-127664796D01*
X121087465Y-127699700D01*
X121038953Y-127725630D01*
X120986297Y-127741603D01*
X120925410Y-127747600D01*
X120125190Y-127747600D01*
X120064303Y-127741603D01*
X120011647Y-127725630D01*
X119963135Y-127699700D01*
X119920604Y-127664796D01*
X119885700Y-127622265D01*
X119859770Y-127573753D01*
X119843797Y-127521097D01*
X119837800Y-127460210D01*
X119837800Y-126234990D01*
X119843797Y-126174103D01*
X119859770Y-126121447D01*
X119885700Y-126072935D01*
X119920604Y-126030404D01*
X119963135Y-125995500D01*
X120011647Y-125969570D01*
X120064303Y-125953597D01*
X120125190Y-125947600D01*
X120925410Y-125947600D01*
X120986297Y-125953597D01*
X120986297Y-125953597D01*
G37*
G36*
X122861297Y-125953597D02*
X122913953Y-125969570D01*
X122962465Y-125995500D01*
X123004996Y-126030404D01*
X123039900Y-126072935D01*
X123065830Y-126121447D01*
X123081803Y-126174103D01*
X123087800Y-126234990D01*
X123087800Y-127460210D01*
X123081803Y-127521097D01*
X123065830Y-127573753D01*
X123039900Y-127622265D01*
X123004996Y-127664796D01*
X122962465Y-127699700D01*
X122913953Y-127725630D01*
X122861297Y-127741603D01*
X122800410Y-127747600D01*
X122000190Y-127747600D01*
X121939303Y-127741603D01*
X121886647Y-127725630D01*
X121838135Y-127699700D01*
X121795604Y-127664796D01*
X121760700Y-127622265D01*
X121734770Y-127573753D01*
X121718797Y-127521097D01*
X121712800Y-127460210D01*
X121712800Y-126234990D01*
X121718797Y-126174103D01*
X121734770Y-126121447D01*
X121760700Y-126072935D01*
X121795604Y-126030404D01*
X121838135Y-125995500D01*
X121886647Y-125969570D01*
X121939303Y-125953597D01*
X122000190Y-125947600D01*
X122800410Y-125947600D01*
X122861297Y-125953597D01*
X122861297Y-125953597D01*
G37*
G36*
X115989122Y-116246115D02*
X116105041Y-116269173D01*
X116432620Y-116404861D01*
X116723511Y-116599228D01*
X116727436Y-116601851D01*
X116978149Y-116852564D01*
X117175140Y-117147382D01*
X117310827Y-117474960D01*
X117377402Y-117809653D01*
X117384515Y-117833103D01*
X117396066Y-117854713D01*
X117411612Y-117873655D01*
X117430554Y-117889201D01*
X117452165Y-117900752D01*
X117475614Y-117907865D01*
X117500000Y-117910267D01*
X117524386Y-117907865D01*
X117547836Y-117900752D01*
X117569446Y-117889201D01*
X117588388Y-117873655D01*
X117603934Y-117854713D01*
X117615485Y-117833102D01*
X117622598Y-117809653D01*
X117689173Y-117474960D01*
X117824860Y-117147382D01*
X118021851Y-116852564D01*
X118272564Y-116601851D01*
X118276489Y-116599228D01*
X118567380Y-116404861D01*
X118894959Y-116269173D01*
X119010878Y-116246115D01*
X119242714Y-116200000D01*
X119597286Y-116200000D01*
X119829122Y-116246115D01*
X119945041Y-116269173D01*
X120272620Y-116404861D01*
X120563511Y-116599228D01*
X120567436Y-116601851D01*
X120818149Y-116852564D01*
X121015140Y-117147382D01*
X121150827Y-117474960D01*
X121220000Y-117822714D01*
X121220000Y-118177286D01*
X121150827Y-118525040D01*
X121015140Y-118852618D01*
X120818149Y-119147436D01*
X120567436Y-119398149D01*
X120567433Y-119398151D01*
X120272620Y-119595139D01*
X119945041Y-119730827D01*
X119829122Y-119753885D01*
X119597286Y-119800000D01*
X119242714Y-119800000D01*
X119010878Y-119753885D01*
X118894959Y-119730827D01*
X118567380Y-119595139D01*
X118272567Y-119398151D01*
X118272564Y-119398149D01*
X118021851Y-119147436D01*
X117824860Y-118852618D01*
X117689173Y-118525040D01*
X117622598Y-118190347D01*
X117615485Y-118166897D01*
X117603934Y-118145287D01*
X117588388Y-118126345D01*
X117569446Y-118110799D01*
X117547835Y-118099248D01*
X117524386Y-118092135D01*
X117500000Y-118089733D01*
X117475614Y-118092135D01*
X117452164Y-118099248D01*
X117430554Y-118110799D01*
X117411612Y-118126345D01*
X117396066Y-118145287D01*
X117384515Y-118166898D01*
X117377402Y-118190347D01*
X117310827Y-118525040D01*
X117175140Y-118852618D01*
X116978149Y-119147436D01*
X116727436Y-119398149D01*
X116727433Y-119398151D01*
X116432620Y-119595139D01*
X116105041Y-119730827D01*
X115989122Y-119753885D01*
X115757286Y-119800000D01*
X115402714Y-119800000D01*
X115170878Y-119753885D01*
X115054959Y-119730827D01*
X114727380Y-119595139D01*
X114432567Y-119398151D01*
X114432564Y-119398149D01*
X114181851Y-119147436D01*
X113984860Y-118852618D01*
X113849173Y-118525040D01*
X113780000Y-118177286D01*
X113780000Y-117822714D01*
X113849173Y-117474960D01*
X113984860Y-117147382D01*
X114181851Y-116852564D01*
X114432564Y-116601851D01*
X114436489Y-116599228D01*
X114727380Y-116404861D01*
X115054959Y-116269173D01*
X115170878Y-116246115D01*
X115402714Y-116200000D01*
X115757286Y-116200000D01*
X115989122Y-116246115D01*
X115989122Y-116246115D01*
G37*
G36*
X129989122Y-116246115D02*
X130105041Y-116269173D01*
X130432620Y-116404861D01*
X130723511Y-116599228D01*
X130727436Y-116601851D01*
X130978149Y-116852564D01*
X131175140Y-117147382D01*
X131310827Y-117474960D01*
X131380000Y-117822714D01*
X131380000Y-118177286D01*
X131310827Y-118525040D01*
X131175140Y-118852618D01*
X130978149Y-119147436D01*
X130727436Y-119398149D01*
X130727433Y-119398151D01*
X130432620Y-119595139D01*
X130105041Y-119730827D01*
X129989122Y-119753885D01*
X129757286Y-119800000D01*
X129402714Y-119800000D01*
X129170878Y-119753885D01*
X129054959Y-119730827D01*
X128727380Y-119595139D01*
X128432567Y-119398151D01*
X128432564Y-119398149D01*
X128181851Y-119147436D01*
X127984860Y-118852618D01*
X127849173Y-118525040D01*
X127780000Y-118177286D01*
X127780000Y-117822714D01*
X127849173Y-117474960D01*
X127984860Y-117147382D01*
X128181851Y-116852564D01*
X128432564Y-116601851D01*
X128436489Y-116599228D01*
X128727380Y-116404861D01*
X129054959Y-116269173D01*
X129170878Y-116246115D01*
X129402714Y-116200000D01*
X129757286Y-116200000D01*
X129989122Y-116246115D01*
X129989122Y-116246115D01*
G37*
G36*
X105829122Y-116246115D02*
X105945041Y-116269173D01*
X106272620Y-116404861D01*
X106563511Y-116599228D01*
X106567436Y-116601851D01*
X106818149Y-116852564D01*
X107015140Y-117147382D01*
X107150827Y-117474960D01*
X107220000Y-117822714D01*
X107220000Y-118177286D01*
X107150827Y-118525040D01*
X107015140Y-118852618D01*
X106818149Y-119147436D01*
X106567436Y-119398149D01*
X106567433Y-119398151D01*
X106272620Y-119595139D01*
X105945041Y-119730827D01*
X105829122Y-119753885D01*
X105597286Y-119800000D01*
X105242714Y-119800000D01*
X105010878Y-119753885D01*
X104894959Y-119730827D01*
X104567380Y-119595139D01*
X104272567Y-119398151D01*
X104272564Y-119398149D01*
X104021851Y-119147436D01*
X103824860Y-118852618D01*
X103689173Y-118525040D01*
X103620000Y-118177286D01*
X103620000Y-117822714D01*
X103689173Y-117474960D01*
X103824860Y-117147382D01*
X104021851Y-116852564D01*
X104272564Y-116601851D01*
X104276489Y-116599228D01*
X104567380Y-116404861D01*
X104894959Y-116269173D01*
X105010878Y-116246115D01*
X105242714Y-116200000D01*
X105597286Y-116200000D01*
X105829122Y-116246115D01*
X105829122Y-116246115D01*
G37*
G36*
X108927465Y-110554001D02*
X108927468Y-110554002D01*
X108927467Y-110554002D01*
X109134898Y-110639922D01*
X109134899Y-110639923D01*
X109321583Y-110764662D01*
X109480338Y-110923417D01*
X109480340Y-110923420D01*
X109605078Y-111110102D01*
X109671534Y-111270541D01*
X109690999Y-111317535D01*
X109734800Y-111537738D01*
X109734800Y-111762262D01*
X109690999Y-111982465D01*
X109690998Y-111982467D01*
X109605078Y-112189898D01*
X109605077Y-112189899D01*
X109480338Y-112376583D01*
X109321583Y-112535338D01*
X109321580Y-112535340D01*
X109134898Y-112660078D01*
X108974459Y-112726534D01*
X108927465Y-112745999D01*
X108707262Y-112789800D01*
X108482738Y-112789800D01*
X108262535Y-112745999D01*
X108215541Y-112726534D01*
X108055102Y-112660078D01*
X107868420Y-112535340D01*
X107868417Y-112535338D01*
X107709662Y-112376583D01*
X107584923Y-112189899D01*
X107584922Y-112189898D01*
X107499002Y-111982467D01*
X107499001Y-111982465D01*
X107455200Y-111762262D01*
X107455200Y-111537738D01*
X107499001Y-111317535D01*
X107518466Y-111270541D01*
X107584922Y-111110102D01*
X107709660Y-110923420D01*
X107709662Y-110923417D01*
X107868417Y-110764662D01*
X108055101Y-110639923D01*
X108055102Y-110639922D01*
X108262533Y-110554002D01*
X108262532Y-110554002D01*
X108262535Y-110554001D01*
X108482738Y-110510200D01*
X108707262Y-110510200D01*
X108927465Y-110554001D01*
X108927465Y-110554001D01*
G37*
G36*
X122927465Y-110554001D02*
X122927468Y-110554002D01*
X122927467Y-110554002D01*
X123134898Y-110639922D01*
X123134899Y-110639923D01*
X123321583Y-110764662D01*
X123480338Y-110923417D01*
X123480340Y-110923420D01*
X123605078Y-111110102D01*
X123671534Y-111270541D01*
X123690999Y-111317535D01*
X123734800Y-111537738D01*
X123734800Y-111762262D01*
X123690999Y-111982465D01*
X123690998Y-111982467D01*
X123605078Y-112189898D01*
X123605077Y-112189899D01*
X123480338Y-112376583D01*
X123321583Y-112535338D01*
X123321580Y-112535340D01*
X123134898Y-112660078D01*
X122974459Y-112726534D01*
X122927465Y-112745999D01*
X122707262Y-112789800D01*
X122482738Y-112789800D01*
X122262535Y-112745999D01*
X122215541Y-112726534D01*
X122055102Y-112660078D01*
X121868420Y-112535340D01*
X121868417Y-112535338D01*
X121709662Y-112376583D01*
X121584923Y-112189899D01*
X121584922Y-112189898D01*
X121499002Y-111982467D01*
X121499001Y-111982465D01*
X121455200Y-111762262D01*
X121455200Y-111537738D01*
X121499001Y-111317535D01*
X121518466Y-111270541D01*
X121584922Y-111110102D01*
X121709660Y-110923420D01*
X121709662Y-110923417D01*
X121868417Y-110764662D01*
X122055101Y-110639923D01*
X122055102Y-110639922D01*
X122262533Y-110554002D01*
X122262532Y-110554002D01*
X122262535Y-110554001D01*
X122482738Y-110510200D01*
X122707262Y-110510200D01*
X122927465Y-110554001D01*
X122927465Y-110554001D01*
G37*
G36*
X111467465Y-110554001D02*
X111467468Y-110554002D01*
X111467467Y-110554002D01*
X111674898Y-110639922D01*
X111674899Y-110639923D01*
X111861583Y-110764662D01*
X112020338Y-110923417D01*
X112020340Y-110923420D01*
X112145078Y-111110102D01*
X112211534Y-111270541D01*
X112230999Y-111317535D01*
X112274800Y-111537738D01*
X112274800Y-111762262D01*
X112230999Y-111982465D01*
X112230998Y-111982467D01*
X112145078Y-112189898D01*
X112145077Y-112189899D01*
X112020338Y-112376583D01*
X111861583Y-112535338D01*
X111861580Y-112535340D01*
X111674898Y-112660078D01*
X111514459Y-112726534D01*
X111467465Y-112745999D01*
X111247262Y-112789800D01*
X111022738Y-112789800D01*
X110802535Y-112745999D01*
X110755541Y-112726534D01*
X110595102Y-112660078D01*
X110408420Y-112535340D01*
X110408417Y-112535338D01*
X110249662Y-112376583D01*
X110124923Y-112189899D01*
X110124922Y-112189898D01*
X110039002Y-111982467D01*
X110039001Y-111982465D01*
X109995200Y-111762262D01*
X109995200Y-111537738D01*
X110039001Y-111317535D01*
X110058466Y-111270541D01*
X110124922Y-111110102D01*
X110249660Y-110923420D01*
X110249662Y-110923417D01*
X110408417Y-110764662D01*
X110595101Y-110639923D01*
X110595102Y-110639922D01*
X110802533Y-110554002D01*
X110802532Y-110554002D01*
X110802535Y-110554001D01*
X111022738Y-110510200D01*
X111247262Y-110510200D01*
X111467465Y-110554001D01*
X111467465Y-110554001D01*
G37*
G36*
X125467465Y-110554001D02*
X125467468Y-110554002D01*
X125467467Y-110554002D01*
X125674898Y-110639922D01*
X125674899Y-110639923D01*
X125861583Y-110764662D01*
X126020338Y-110923417D01*
X126020340Y-110923420D01*
X126145078Y-111110102D01*
X126211534Y-111270541D01*
X126230999Y-111317535D01*
X126274800Y-111537738D01*
X126274800Y-111762262D01*
X126230999Y-111982465D01*
X126230998Y-111982467D01*
X126145078Y-112189898D01*
X126145077Y-112189899D01*
X126020338Y-112376583D01*
X125861583Y-112535338D01*
X125861580Y-112535340D01*
X125674898Y-112660078D01*
X125514459Y-112726534D01*
X125467465Y-112745999D01*
X125247262Y-112789800D01*
X125022738Y-112789800D01*
X124802535Y-112745999D01*
X124755541Y-112726534D01*
X124595102Y-112660078D01*
X124408420Y-112535340D01*
X124408417Y-112535338D01*
X124249662Y-112376583D01*
X124124923Y-112189899D01*
X124124922Y-112189898D01*
X124039002Y-111982467D01*
X124039001Y-111982465D01*
X123995200Y-111762262D01*
X123995200Y-111537738D01*
X124039001Y-111317535D01*
X124058466Y-111270541D01*
X124124922Y-111110102D01*
X124249660Y-110923420D01*
X124249662Y-110923417D01*
X124408417Y-110764662D01*
X124595101Y-110639923D01*
X124595102Y-110639922D01*
X124802533Y-110554002D01*
X124802532Y-110554002D01*
X124802535Y-110554001D01*
X125022738Y-110510200D01*
X125247262Y-110510200D01*
X125467465Y-110554001D01*
X125467465Y-110554001D01*
G37*
G36*
X114007465Y-110554001D02*
X114007468Y-110554002D01*
X114007467Y-110554002D01*
X114214898Y-110639922D01*
X114214899Y-110639923D01*
X114401583Y-110764662D01*
X114560338Y-110923417D01*
X114560340Y-110923420D01*
X114685078Y-111110102D01*
X114751534Y-111270541D01*
X114770999Y-111317535D01*
X114814800Y-111537738D01*
X114814800Y-111762262D01*
X114770999Y-111982465D01*
X114770998Y-111982467D01*
X114685078Y-112189898D01*
X114685077Y-112189899D01*
X114560338Y-112376583D01*
X114401583Y-112535338D01*
X114401580Y-112535340D01*
X114214898Y-112660078D01*
X114054459Y-112726534D01*
X114007465Y-112745999D01*
X113787262Y-112789800D01*
X113562738Y-112789800D01*
X113342535Y-112745999D01*
X113295541Y-112726534D01*
X113135102Y-112660078D01*
X112948420Y-112535340D01*
X112948417Y-112535338D01*
X112789662Y-112376583D01*
X112664923Y-112189899D01*
X112664922Y-112189898D01*
X112579002Y-111982467D01*
X112579001Y-111982465D01*
X112535200Y-111762262D01*
X112535200Y-111537738D01*
X112579001Y-111317535D01*
X112598466Y-111270541D01*
X112664922Y-111110102D01*
X112789660Y-110923420D01*
X112789662Y-110923417D01*
X112948417Y-110764662D01*
X113135101Y-110639923D01*
X113135102Y-110639922D01*
X113342533Y-110554002D01*
X113342532Y-110554002D01*
X113342535Y-110554001D01*
X113562738Y-110510200D01*
X113787262Y-110510200D01*
X114007465Y-110554001D01*
X114007465Y-110554001D01*
G37*
G36*
X128007465Y-110554001D02*
X128007468Y-110554002D01*
X128007467Y-110554002D01*
X128214898Y-110639922D01*
X128214899Y-110639923D01*
X128401583Y-110764662D01*
X128560338Y-110923417D01*
X128560340Y-110923420D01*
X128685078Y-111110102D01*
X128751534Y-111270541D01*
X128770999Y-111317535D01*
X128814800Y-111537738D01*
X128814800Y-111762262D01*
X128770999Y-111982465D01*
X128770998Y-111982467D01*
X128685078Y-112189898D01*
X128685077Y-112189899D01*
X128560338Y-112376583D01*
X128401583Y-112535338D01*
X128401580Y-112535340D01*
X128214898Y-112660078D01*
X128054459Y-112726534D01*
X128007465Y-112745999D01*
X127787262Y-112789800D01*
X127562738Y-112789800D01*
X127342535Y-112745999D01*
X127295541Y-112726534D01*
X127135102Y-112660078D01*
X126948420Y-112535340D01*
X126948417Y-112535338D01*
X126789662Y-112376583D01*
X126664923Y-112189899D01*
X126664922Y-112189898D01*
X126579002Y-111982467D01*
X126579001Y-111982465D01*
X126535200Y-111762262D01*
X126535200Y-111537738D01*
X126579001Y-111317535D01*
X126598466Y-111270541D01*
X126664922Y-111110102D01*
X126789660Y-110923420D01*
X126789662Y-110923417D01*
X126948417Y-110764662D01*
X127135101Y-110639923D01*
X127135102Y-110639922D01*
X127342533Y-110554002D01*
X127342532Y-110554002D01*
X127342535Y-110554001D01*
X127562738Y-110510200D01*
X127787262Y-110510200D01*
X128007465Y-110554001D01*
X128007465Y-110554001D01*
G37*
G36*
X126737465Y-108014001D02*
X126737468Y-108014002D01*
X126737467Y-108014002D01*
X126944898Y-108099922D01*
X126944899Y-108099923D01*
X127131583Y-108224662D01*
X127290338Y-108383417D01*
X127290340Y-108383420D01*
X127415078Y-108570102D01*
X127481534Y-108730541D01*
X127500999Y-108777535D01*
X127544800Y-108997738D01*
X127544800Y-109222262D01*
X127500999Y-109442465D01*
X127500998Y-109442467D01*
X127415078Y-109649898D01*
X127415077Y-109649899D01*
X127290338Y-109836583D01*
X127131583Y-109995338D01*
X127131580Y-109995340D01*
X126944898Y-110120078D01*
X126784459Y-110186534D01*
X126737465Y-110205999D01*
X126517262Y-110249800D01*
X126292738Y-110249800D01*
X126072535Y-110205999D01*
X126025541Y-110186534D01*
X125865102Y-110120078D01*
X125678420Y-109995340D01*
X125678417Y-109995338D01*
X125519662Y-109836583D01*
X125394923Y-109649899D01*
X125394922Y-109649898D01*
X125309002Y-109442467D01*
X125309001Y-109442465D01*
X125265200Y-109222262D01*
X125265200Y-108997738D01*
X125309001Y-108777535D01*
X125328466Y-108730541D01*
X125394922Y-108570102D01*
X125519660Y-108383420D01*
X125519662Y-108383417D01*
X125678417Y-108224662D01*
X125865101Y-108099923D01*
X125865102Y-108099922D01*
X126072533Y-108014002D01*
X126072532Y-108014002D01*
X126072535Y-108014001D01*
X126292738Y-107970200D01*
X126517262Y-107970200D01*
X126737465Y-108014001D01*
X126737465Y-108014001D01*
G37*
G36*
X121657465Y-108014001D02*
X121657468Y-108014002D01*
X121657467Y-108014002D01*
X121864898Y-108099922D01*
X121864899Y-108099923D01*
X122051583Y-108224662D01*
X122210338Y-108383417D01*
X122210340Y-108383420D01*
X122335078Y-108570102D01*
X122401534Y-108730541D01*
X122420999Y-108777535D01*
X122464800Y-108997738D01*
X122464800Y-109222262D01*
X122420999Y-109442465D01*
X122420998Y-109442467D01*
X122335078Y-109649898D01*
X122335077Y-109649899D01*
X122210338Y-109836583D01*
X122051583Y-109995338D01*
X122051580Y-109995340D01*
X121864898Y-110120078D01*
X121704459Y-110186534D01*
X121657465Y-110205999D01*
X121437262Y-110249800D01*
X121212738Y-110249800D01*
X120992535Y-110205999D01*
X120945541Y-110186534D01*
X120785102Y-110120078D01*
X120598420Y-109995340D01*
X120598417Y-109995338D01*
X120439662Y-109836583D01*
X120314923Y-109649899D01*
X120314922Y-109649898D01*
X120229002Y-109442467D01*
X120229001Y-109442465D01*
X120185200Y-109222262D01*
X120185200Y-108997738D01*
X120229001Y-108777535D01*
X120248466Y-108730541D01*
X120314922Y-108570102D01*
X120439660Y-108383420D01*
X120439662Y-108383417D01*
X120598417Y-108224662D01*
X120785101Y-108099923D01*
X120785102Y-108099922D01*
X120992533Y-108014002D01*
X120992532Y-108014002D01*
X120992535Y-108014001D01*
X121212738Y-107970200D01*
X121437262Y-107970200D01*
X121657465Y-108014001D01*
X121657465Y-108014001D01*
G37*
G36*
X124197465Y-108014001D02*
X124197468Y-108014002D01*
X124197467Y-108014002D01*
X124404898Y-108099922D01*
X124404899Y-108099923D01*
X124591583Y-108224662D01*
X124750338Y-108383417D01*
X124750340Y-108383420D01*
X124875078Y-108570102D01*
X124941534Y-108730541D01*
X124960999Y-108777535D01*
X125004800Y-108997738D01*
X125004800Y-109222262D01*
X124960999Y-109442465D01*
X124960998Y-109442467D01*
X124875078Y-109649898D01*
X124875077Y-109649899D01*
X124750338Y-109836583D01*
X124591583Y-109995338D01*
X124591580Y-109995340D01*
X124404898Y-110120078D01*
X124244459Y-110186534D01*
X124197465Y-110205999D01*
X123977262Y-110249800D01*
X123752738Y-110249800D01*
X123532535Y-110205999D01*
X123485541Y-110186534D01*
X123325102Y-110120078D01*
X123138420Y-109995340D01*
X123138417Y-109995338D01*
X122979662Y-109836583D01*
X122854923Y-109649899D01*
X122854922Y-109649898D01*
X122769002Y-109442467D01*
X122769001Y-109442465D01*
X122725200Y-109222262D01*
X122725200Y-108997738D01*
X122769001Y-108777535D01*
X122788466Y-108730541D01*
X122854922Y-108570102D01*
X122979660Y-108383420D01*
X122979662Y-108383417D01*
X123138417Y-108224662D01*
X123325101Y-108099923D01*
X123325102Y-108099922D01*
X123532533Y-108014002D01*
X123532532Y-108014002D01*
X123532535Y-108014001D01*
X123752738Y-107970200D01*
X123977262Y-107970200D01*
X124197465Y-108014001D01*
X124197465Y-108014001D01*
G37*
G36*
X107657465Y-108014001D02*
X107657468Y-108014002D01*
X107657467Y-108014002D01*
X107864898Y-108099922D01*
X107864899Y-108099923D01*
X108051583Y-108224662D01*
X108210338Y-108383417D01*
X108210340Y-108383420D01*
X108335078Y-108570102D01*
X108401534Y-108730541D01*
X108420999Y-108777535D01*
X108464800Y-108997738D01*
X108464800Y-109222262D01*
X108420999Y-109442465D01*
X108420998Y-109442467D01*
X108335078Y-109649898D01*
X108335077Y-109649899D01*
X108210338Y-109836583D01*
X108051583Y-109995338D01*
X108051580Y-109995340D01*
X107864898Y-110120078D01*
X107704459Y-110186534D01*
X107657465Y-110205999D01*
X107437262Y-110249800D01*
X107212738Y-110249800D01*
X106992535Y-110205999D01*
X106945541Y-110186534D01*
X106785102Y-110120078D01*
X106598420Y-109995340D01*
X106598417Y-109995338D01*
X106439662Y-109836583D01*
X106314923Y-109649899D01*
X106314922Y-109649898D01*
X106229002Y-109442467D01*
X106229001Y-109442465D01*
X106185200Y-109222262D01*
X106185200Y-108997738D01*
X106229001Y-108777535D01*
X106248466Y-108730541D01*
X106314922Y-108570102D01*
X106439660Y-108383420D01*
X106439662Y-108383417D01*
X106598417Y-108224662D01*
X106785101Y-108099923D01*
X106785102Y-108099922D01*
X106992533Y-108014002D01*
X106992532Y-108014002D01*
X106992535Y-108014001D01*
X107212738Y-107970200D01*
X107437262Y-107970200D01*
X107657465Y-108014001D01*
X107657465Y-108014001D01*
G37*
G36*
X112737465Y-108014001D02*
X112737468Y-108014002D01*
X112737467Y-108014002D01*
X112944898Y-108099922D01*
X112944899Y-108099923D01*
X113131583Y-108224662D01*
X113290338Y-108383417D01*
X113290340Y-108383420D01*
X113415078Y-108570102D01*
X113481534Y-108730541D01*
X113500999Y-108777535D01*
X113544800Y-108997738D01*
X113544800Y-109222262D01*
X113500999Y-109442465D01*
X113500998Y-109442467D01*
X113415078Y-109649898D01*
X113415077Y-109649899D01*
X113290338Y-109836583D01*
X113131583Y-109995338D01*
X113131580Y-109995340D01*
X112944898Y-110120078D01*
X112784459Y-110186534D01*
X112737465Y-110205999D01*
X112517262Y-110249800D01*
X112292738Y-110249800D01*
X112072535Y-110205999D01*
X112025541Y-110186534D01*
X111865102Y-110120078D01*
X111678420Y-109995340D01*
X111678417Y-109995338D01*
X111519662Y-109836583D01*
X111394923Y-109649899D01*
X111394922Y-109649898D01*
X111309002Y-109442467D01*
X111309001Y-109442465D01*
X111265200Y-109222262D01*
X111265200Y-108997738D01*
X111309001Y-108777535D01*
X111328466Y-108730541D01*
X111394922Y-108570102D01*
X111519660Y-108383420D01*
X111519662Y-108383417D01*
X111678417Y-108224662D01*
X111865101Y-108099923D01*
X111865102Y-108099922D01*
X112072533Y-108014002D01*
X112072532Y-108014002D01*
X112072535Y-108014001D01*
X112292738Y-107970200D01*
X112517262Y-107970200D01*
X112737465Y-108014001D01*
X112737465Y-108014001D01*
G37*
G36*
X110197465Y-108014001D02*
X110197468Y-108014002D01*
X110197467Y-108014002D01*
X110404898Y-108099922D01*
X110404899Y-108099923D01*
X110591583Y-108224662D01*
X110750338Y-108383417D01*
X110750340Y-108383420D01*
X110875078Y-108570102D01*
X110941534Y-108730541D01*
X110960999Y-108777535D01*
X111004800Y-108997738D01*
X111004800Y-109222262D01*
X110960999Y-109442465D01*
X110960998Y-109442467D01*
X110875078Y-109649898D01*
X110875077Y-109649899D01*
X110750338Y-109836583D01*
X110591583Y-109995338D01*
X110591580Y-109995340D01*
X110404898Y-110120078D01*
X110244459Y-110186534D01*
X110197465Y-110205999D01*
X109977262Y-110249800D01*
X109752738Y-110249800D01*
X109532535Y-110205999D01*
X109485541Y-110186534D01*
X109325102Y-110120078D01*
X109138420Y-109995340D01*
X109138417Y-109995338D01*
X108979662Y-109836583D01*
X108854923Y-109649899D01*
X108854922Y-109649898D01*
X108769002Y-109442467D01*
X108769001Y-109442465D01*
X108725200Y-109222262D01*
X108725200Y-108997738D01*
X108769001Y-108777535D01*
X108788466Y-108730541D01*
X108854922Y-108570102D01*
X108979660Y-108383420D01*
X108979662Y-108383417D01*
X109138417Y-108224662D01*
X109325101Y-108099923D01*
X109325102Y-108099922D01*
X109532533Y-108014002D01*
X109532532Y-108014002D01*
X109532535Y-108014001D01*
X109752738Y-107970200D01*
X109977262Y-107970200D01*
X110197465Y-108014001D01*
X110197465Y-108014001D01*
G37*
G36*
X112382697Y-105665997D02*
X112435353Y-105681970D01*
X112483865Y-105707900D01*
X112526396Y-105742804D01*
X112561300Y-105785335D01*
X112587230Y-105833847D01*
X112603203Y-105886503D01*
X112609200Y-105947390D01*
X112609200Y-106747610D01*
X112603203Y-106808497D01*
X112587230Y-106861153D01*
X112561300Y-106909665D01*
X112526396Y-106952196D01*
X112483865Y-106987100D01*
X112435353Y-107013030D01*
X112382697Y-107029003D01*
X112321810Y-107035000D01*
X111096590Y-107035000D01*
X111035703Y-107029003D01*
X110983047Y-107013030D01*
X110934535Y-106987100D01*
X110892004Y-106952196D01*
X110857100Y-106909665D01*
X110831170Y-106861153D01*
X110815197Y-106808497D01*
X110809200Y-106747610D01*
X110809200Y-105947390D01*
X110815197Y-105886503D01*
X110831170Y-105833847D01*
X110857100Y-105785335D01*
X110892004Y-105742804D01*
X110934535Y-105707900D01*
X110983047Y-105681970D01*
X111035703Y-105665997D01*
X111096590Y-105660000D01*
X112321810Y-105660000D01*
X112382697Y-105665997D01*
X112382697Y-105665997D01*
G37*
G36*
X108942097Y-105125597D02*
X108994753Y-105141570D01*
X109043265Y-105167500D01*
X109085796Y-105202404D01*
X109120700Y-105244935D01*
X109146630Y-105293447D01*
X109162603Y-105346103D01*
X109168600Y-105406990D01*
X109168600Y-106632210D01*
X109162603Y-106693097D01*
X109146630Y-106745753D01*
X109120700Y-106794265D01*
X109085796Y-106836796D01*
X109043265Y-106871700D01*
X108994753Y-106897630D01*
X108942097Y-106913603D01*
X108881210Y-106919600D01*
X108080990Y-106919600D01*
X108020103Y-106913603D01*
X107967447Y-106897630D01*
X107918935Y-106871700D01*
X107876404Y-106836796D01*
X107841500Y-106794265D01*
X107815570Y-106745753D01*
X107799597Y-106693097D01*
X107793600Y-106632210D01*
X107793600Y-105406990D01*
X107799597Y-105346103D01*
X107815570Y-105293447D01*
X107841500Y-105244935D01*
X107876404Y-105202404D01*
X107918935Y-105167500D01*
X107967447Y-105141570D01*
X108020103Y-105125597D01*
X108080990Y-105119600D01*
X108881210Y-105119600D01*
X108942097Y-105125597D01*
X108942097Y-105125597D01*
G37*
G36*
X105589297Y-103296797D02*
X105641953Y-103312770D01*
X105690465Y-103338700D01*
X105732996Y-103373604D01*
X105767900Y-103416135D01*
X105793830Y-103464647D01*
X105809803Y-103517303D01*
X105815800Y-103578190D01*
X105815800Y-104803410D01*
X105809803Y-104864297D01*
X105793830Y-104916953D01*
X105767900Y-104965465D01*
X105732996Y-105007996D01*
X105690467Y-105042899D01*
X105657437Y-105060553D01*
X105637062Y-105074167D01*
X105619735Y-105091494D01*
X105606121Y-105111868D01*
X105596743Y-105134507D01*
X105591962Y-105158540D01*
X105591962Y-105183045D01*
X105596742Y-105207078D01*
X105606119Y-105229717D01*
X105612353Y-105239047D01*
X105641430Y-105293447D01*
X105657403Y-105346103D01*
X105663400Y-105406990D01*
X105663400Y-106632210D01*
X105657403Y-106693097D01*
X105641430Y-106745753D01*
X105615500Y-106794265D01*
X105580596Y-106836796D01*
X105538065Y-106871700D01*
X105489553Y-106897630D01*
X105436897Y-106913603D01*
X105376010Y-106919600D01*
X104575790Y-106919600D01*
X104514903Y-106913603D01*
X104462247Y-106897630D01*
X104413735Y-106871700D01*
X104371204Y-106836796D01*
X104336300Y-106794265D01*
X104310370Y-106745753D01*
X104294397Y-106693097D01*
X104288400Y-106632210D01*
X104288400Y-105406990D01*
X104294397Y-105346103D01*
X104310370Y-105293447D01*
X104336300Y-105244935D01*
X104371204Y-105202404D01*
X104413733Y-105167501D01*
X104446763Y-105149847D01*
X104467138Y-105136233D01*
X104484465Y-105118906D01*
X104498079Y-105098532D01*
X104507457Y-105075893D01*
X104512238Y-105051860D01*
X104512238Y-105027355D01*
X104507458Y-105003322D01*
X104498081Y-104980683D01*
X104491847Y-104971353D01*
X104462770Y-104916953D01*
X104446797Y-104864297D01*
X104440800Y-104803410D01*
X104440800Y-103578190D01*
X104446797Y-103517303D01*
X104462770Y-103464647D01*
X104488700Y-103416135D01*
X104523604Y-103373604D01*
X104566135Y-103338700D01*
X104614647Y-103312770D01*
X104667303Y-103296797D01*
X104728190Y-103290800D01*
X105528410Y-103290800D01*
X105589297Y-103296797D01*
X105589297Y-103296797D01*
G37*
G36*
X103714297Y-103296797D02*
X103766953Y-103312770D01*
X103815465Y-103338700D01*
X103857996Y-103373604D01*
X103892900Y-103416135D01*
X103918830Y-103464647D01*
X103934803Y-103517303D01*
X103940800Y-103578190D01*
X103940800Y-104803410D01*
X103934803Y-104864297D01*
X103918830Y-104916953D01*
X103892900Y-104965465D01*
X103857996Y-105007996D01*
X103815467Y-105042899D01*
X103782437Y-105060553D01*
X103762062Y-105074167D01*
X103744735Y-105091494D01*
X103731121Y-105111868D01*
X103721743Y-105134507D01*
X103716962Y-105158540D01*
X103716962Y-105183045D01*
X103721742Y-105207078D01*
X103731119Y-105229717D01*
X103737353Y-105239047D01*
X103766430Y-105293447D01*
X103782403Y-105346103D01*
X103788400Y-105406990D01*
X103788400Y-106632210D01*
X103782403Y-106693097D01*
X103766430Y-106745753D01*
X103740500Y-106794265D01*
X103705596Y-106836796D01*
X103663065Y-106871700D01*
X103614553Y-106897630D01*
X103561897Y-106913603D01*
X103501010Y-106919600D01*
X102700790Y-106919600D01*
X102639903Y-106913603D01*
X102587247Y-106897630D01*
X102538735Y-106871700D01*
X102496204Y-106836796D01*
X102461300Y-106794265D01*
X102435370Y-106745753D01*
X102419397Y-106693097D01*
X102413400Y-106632210D01*
X102413400Y-105406990D01*
X102419397Y-105346103D01*
X102435370Y-105293447D01*
X102461300Y-105244935D01*
X102496204Y-105202404D01*
X102538733Y-105167501D01*
X102571763Y-105149847D01*
X102592138Y-105136233D01*
X102609465Y-105118906D01*
X102623079Y-105098532D01*
X102632457Y-105075893D01*
X102637238Y-105051860D01*
X102637238Y-105027355D01*
X102632458Y-105003322D01*
X102623081Y-104980683D01*
X102616847Y-104971353D01*
X102587770Y-104916953D01*
X102571797Y-104864297D01*
X102565800Y-104803410D01*
X102565800Y-103578190D01*
X102571797Y-103517303D01*
X102587770Y-103464647D01*
X102613700Y-103416135D01*
X102648604Y-103373604D01*
X102691135Y-103338700D01*
X102739647Y-103312770D01*
X102792303Y-103296797D01*
X102853190Y-103290800D01*
X103653410Y-103290800D01*
X103714297Y-103296797D01*
X103714297Y-103296797D01*
G37*
G36*
X107067097Y-105125597D02*
X107119753Y-105141570D01*
X107168265Y-105167500D01*
X107210796Y-105202404D01*
X107245700Y-105244935D01*
X107271630Y-105293447D01*
X107287603Y-105346103D01*
X107293600Y-105406990D01*
X107293600Y-106632210D01*
X107287603Y-106693097D01*
X107271630Y-106745753D01*
X107245700Y-106794265D01*
X107210796Y-106836796D01*
X107168265Y-106871700D01*
X107119753Y-106897630D01*
X107067097Y-106913603D01*
X107006210Y-106919600D01*
X106205990Y-106919600D01*
X106145103Y-106913603D01*
X106092447Y-106897630D01*
X106043935Y-106871700D01*
X106001404Y-106836796D01*
X105966500Y-106794265D01*
X105940570Y-106745753D01*
X105924597Y-106693097D01*
X105918600Y-106632210D01*
X105918600Y-105406990D01*
X105924597Y-105346103D01*
X105940570Y-105293447D01*
X105966500Y-105244935D01*
X106001404Y-105202404D01*
X106043935Y-105167500D01*
X106092447Y-105141570D01*
X106145103Y-105125597D01*
X106205990Y-105119600D01*
X107006210Y-105119600D01*
X107067097Y-105125597D01*
X107067097Y-105125597D01*
G37*
G36*
X120270497Y-104820797D02*
X120323153Y-104836770D01*
X120371665Y-104862700D01*
X120414196Y-104897604D01*
X120449100Y-104940135D01*
X120475030Y-104988647D01*
X120491003Y-105041303D01*
X120497000Y-105102190D01*
X120497000Y-106327410D01*
X120491003Y-106388297D01*
X120475030Y-106440953D01*
X120449100Y-106489465D01*
X120414196Y-106531996D01*
X120371665Y-106566900D01*
X120323153Y-106592830D01*
X120270497Y-106608803D01*
X120209610Y-106614800D01*
X119409390Y-106614800D01*
X119348503Y-106608803D01*
X119295847Y-106592830D01*
X119247335Y-106566900D01*
X119204804Y-106531996D01*
X119169900Y-106489465D01*
X119143970Y-106440953D01*
X119127997Y-106388297D01*
X119122000Y-106327410D01*
X119122000Y-105102190D01*
X119127997Y-105041303D01*
X119143970Y-104988647D01*
X119169900Y-104940135D01*
X119204804Y-104897604D01*
X119247335Y-104862700D01*
X119295847Y-104836770D01*
X119348503Y-104820797D01*
X119409390Y-104814800D01*
X120209610Y-104814800D01*
X120270497Y-104820797D01*
X120270497Y-104820797D01*
G37*
G36*
X118395497Y-104820797D02*
X118448153Y-104836770D01*
X118496665Y-104862700D01*
X118539196Y-104897604D01*
X118574100Y-104940135D01*
X118600030Y-104988647D01*
X118616003Y-105041303D01*
X118622000Y-105102190D01*
X118622000Y-106327410D01*
X118616003Y-106388297D01*
X118600030Y-106440953D01*
X118574100Y-106489465D01*
X118539196Y-106531996D01*
X118496665Y-106566900D01*
X118448153Y-106592830D01*
X118395497Y-106608803D01*
X118334610Y-106614800D01*
X117534390Y-106614800D01*
X117473503Y-106608803D01*
X117420847Y-106592830D01*
X117372335Y-106566900D01*
X117329804Y-106531996D01*
X117294900Y-106489465D01*
X117268970Y-106440953D01*
X117252997Y-106388297D01*
X117247000Y-106327410D01*
X117247000Y-105102190D01*
X117252997Y-105041303D01*
X117268970Y-104988647D01*
X117294900Y-104940135D01*
X117329804Y-104897604D01*
X117372335Y-104862700D01*
X117420847Y-104836770D01*
X117473503Y-104820797D01*
X117534390Y-104814800D01*
X118334610Y-104814800D01*
X118395497Y-104820797D01*
X118395497Y-104820797D01*
G37*
G36*
X122103897Y-104820797D02*
X122156553Y-104836770D01*
X122205065Y-104862700D01*
X122247596Y-104897604D01*
X122282500Y-104940135D01*
X122308430Y-104988647D01*
X122324403Y-105041303D01*
X122330400Y-105102190D01*
X122330400Y-106327410D01*
X122324403Y-106388297D01*
X122308430Y-106440953D01*
X122282500Y-106489465D01*
X122247596Y-106531996D01*
X122205065Y-106566900D01*
X122156553Y-106592830D01*
X122103897Y-106608803D01*
X122043010Y-106614800D01*
X121242790Y-106614800D01*
X121181903Y-106608803D01*
X121129247Y-106592830D01*
X121080735Y-106566900D01*
X121038204Y-106531996D01*
X121003300Y-106489465D01*
X120977370Y-106440953D01*
X120961397Y-106388297D01*
X120955400Y-106327410D01*
X120955400Y-105102190D01*
X120961397Y-105041303D01*
X120977370Y-104988647D01*
X121003300Y-104940135D01*
X121038204Y-104897604D01*
X121080735Y-104862700D01*
X121129247Y-104836770D01*
X121181903Y-104820797D01*
X121242790Y-104814800D01*
X122043010Y-104814800D01*
X122103897Y-104820797D01*
X122103897Y-104820797D01*
G37*
G36*
X123978897Y-104820797D02*
X124031553Y-104836770D01*
X124080065Y-104862700D01*
X124122596Y-104897604D01*
X124157500Y-104940135D01*
X124183430Y-104988647D01*
X124199403Y-105041303D01*
X124205400Y-105102190D01*
X124205400Y-106327410D01*
X124199403Y-106388297D01*
X124183430Y-106440953D01*
X124157500Y-106489465D01*
X124122596Y-106531996D01*
X124080065Y-106566900D01*
X124031553Y-106592830D01*
X123978897Y-106608803D01*
X123918010Y-106614800D01*
X123117790Y-106614800D01*
X123056903Y-106608803D01*
X123004247Y-106592830D01*
X122955735Y-106566900D01*
X122913204Y-106531996D01*
X122878300Y-106489465D01*
X122852370Y-106440953D01*
X122836397Y-106388297D01*
X122830400Y-106327410D01*
X122830400Y-105102190D01*
X122836397Y-105041303D01*
X122852370Y-104988647D01*
X122878300Y-104940135D01*
X122913204Y-104897604D01*
X122955735Y-104862700D01*
X123004247Y-104836770D01*
X123056903Y-104820797D01*
X123117790Y-104814800D01*
X123918010Y-104814800D01*
X123978897Y-104820797D01*
X123978897Y-104820797D01*
G37*
G36*
X112382697Y-103790997D02*
X112435353Y-103806970D01*
X112483865Y-103832900D01*
X112526396Y-103867804D01*
X112561300Y-103910335D01*
X112587230Y-103958847D01*
X112603203Y-104011503D01*
X112609200Y-104072390D01*
X112609200Y-104872610D01*
X112603203Y-104933497D01*
X112587230Y-104986153D01*
X112561300Y-105034665D01*
X112526396Y-105077196D01*
X112483865Y-105112100D01*
X112435353Y-105138030D01*
X112382697Y-105154003D01*
X112321810Y-105160000D01*
X111096590Y-105160000D01*
X111035703Y-105154003D01*
X110983047Y-105138030D01*
X110934535Y-105112100D01*
X110892004Y-105077196D01*
X110857100Y-105034665D01*
X110831170Y-104986153D01*
X110815197Y-104933497D01*
X110809200Y-104872610D01*
X110809200Y-104072390D01*
X110815197Y-104011503D01*
X110831170Y-103958847D01*
X110857100Y-103910335D01*
X110892004Y-103867804D01*
X110934535Y-103832900D01*
X110983047Y-103806970D01*
X111035703Y-103790997D01*
X111096590Y-103785000D01*
X112321810Y-103785000D01*
X112382697Y-103790997D01*
X112382697Y-103790997D01*
G37*
G36*
X127668707Y-100957596D02*
X127745836Y-100965193D01*
X127877787Y-101005220D01*
X127943763Y-101025233D01*
X128126172Y-101122733D01*
X128286054Y-101253946D01*
X128417267Y-101413828D01*
X128514767Y-101596237D01*
X128514767Y-101596238D01*
X128574807Y-101794164D01*
X128595080Y-102000000D01*
X128574807Y-102205836D01*
X128534780Y-102337787D01*
X128514767Y-102403763D01*
X128417267Y-102586172D01*
X128286054Y-102746054D01*
X128126172Y-102877267D01*
X127943763Y-102974767D01*
X127877787Y-102994780D01*
X127745836Y-103034807D01*
X127668707Y-103042404D01*
X127591580Y-103050000D01*
X127488420Y-103050000D01*
X127411293Y-103042404D01*
X127334164Y-103034807D01*
X127202213Y-102994780D01*
X127136237Y-102974767D01*
X126953828Y-102877267D01*
X126793946Y-102746054D01*
X126662733Y-102586172D01*
X126565233Y-102403763D01*
X126545220Y-102337787D01*
X126505193Y-102205836D01*
X126484920Y-102000000D01*
X126505193Y-101794164D01*
X126565233Y-101596238D01*
X126565233Y-101596237D01*
X126662733Y-101413828D01*
X126793946Y-101253946D01*
X126953828Y-101122733D01*
X127136237Y-101025233D01*
X127202213Y-101005220D01*
X127334164Y-100965193D01*
X127411293Y-100957596D01*
X127488420Y-100950000D01*
X127591580Y-100950000D01*
X127668707Y-100957596D01*
X127668707Y-100957596D01*
G37*
G36*
X126050000Y-103050000D02*
X123950000Y-103050000D01*
X123950000Y-100950000D01*
X126050000Y-100950000D01*
X126050000Y-103050000D01*
X126050000Y-103050000D01*
G37*
G36*
X103564400Y-102396000D02*
X101464400Y-102396000D01*
X101464400Y-100296000D01*
X103564400Y-100296000D01*
X103564400Y-102396000D01*
X103564400Y-102396000D01*
G37*
G36*
X117629107Y-99490796D02*
X117706236Y-99498393D01*
X117838187Y-99538420D01*
X117904163Y-99558433D01*
X118086572Y-99655933D01*
X118246454Y-99787146D01*
X118377667Y-99947028D01*
X118475167Y-100129437D01*
X118475167Y-100129438D01*
X118535207Y-100327364D01*
X118555480Y-100533200D01*
X118535207Y-100739036D01*
X118495180Y-100870987D01*
X118475167Y-100936963D01*
X118377667Y-101119372D01*
X118246454Y-101279254D01*
X118086572Y-101410467D01*
X117904163Y-101507967D01*
X117838187Y-101527980D01*
X117706236Y-101568007D01*
X117629107Y-101575604D01*
X117551980Y-101583200D01*
X117448820Y-101583200D01*
X117371693Y-101575604D01*
X117294564Y-101568007D01*
X117162613Y-101527980D01*
X117096637Y-101507967D01*
X116914228Y-101410467D01*
X116754346Y-101279254D01*
X116623133Y-101119372D01*
X116525633Y-100936963D01*
X116505620Y-100870987D01*
X116465593Y-100739036D01*
X116445320Y-100533200D01*
X116465593Y-100327364D01*
X116525633Y-100129438D01*
X116525633Y-100129437D01*
X116623133Y-99947028D01*
X116754346Y-99787146D01*
X116914228Y-99655933D01*
X117096637Y-99558433D01*
X117162613Y-99538420D01*
X117294564Y-99498393D01*
X117371693Y-99490796D01*
X117448820Y-99483200D01*
X117551980Y-99483200D01*
X117629107Y-99490796D01*
X117629107Y-99490796D01*
G37*
G36*
X114872000Y-97745200D02*
X114118393Y-97745200D01*
X114094007Y-97747602D01*
X114070558Y-97754715D01*
X114048947Y-97766266D01*
X114030005Y-97781812D01*
X114014459Y-97800754D01*
X114002908Y-97822365D01*
X113995795Y-97845814D01*
X113993393Y-97870200D01*
X113993995Y-97882457D01*
X113994600Y-97888597D01*
X113994600Y-99113810D01*
X113988603Y-99174697D01*
X113972630Y-99227353D01*
X113946699Y-99275868D01*
X113944211Y-99278899D01*
X113930596Y-99299273D01*
X113921218Y-99321912D01*
X113916437Y-99345945D01*
X113916437Y-99370449D01*
X113921217Y-99394483D01*
X113930593Y-99417122D01*
X113944207Y-99437497D01*
X113961534Y-99454824D01*
X113981908Y-99468439D01*
X114004547Y-99477817D01*
X114028580Y-99482598D01*
X114040835Y-99483200D01*
X116010400Y-99483200D01*
X116010400Y-101583200D01*
X113910400Y-101583200D01*
X113910400Y-99519104D01*
X113907998Y-99494718D01*
X113900885Y-99471269D01*
X113889334Y-99449658D01*
X113873788Y-99430716D01*
X113854846Y-99415170D01*
X113833235Y-99403619D01*
X113809786Y-99396506D01*
X113773148Y-99394706D01*
X113707210Y-99401200D01*
X112906990Y-99401200D01*
X112846103Y-99395203D01*
X112793447Y-99379230D01*
X112744935Y-99353300D01*
X112702404Y-99318396D01*
X112667500Y-99275865D01*
X112641570Y-99227353D01*
X112625597Y-99174697D01*
X112619600Y-99113810D01*
X112619600Y-97888597D01*
X112620205Y-97882457D01*
X112620205Y-97875097D01*
X112621398Y-97870335D01*
X112625597Y-97827703D01*
X112641570Y-97775047D01*
X112657240Y-97745730D01*
X112666618Y-97723091D01*
X112672000Y-97686806D01*
X112672000Y-95245200D01*
X114872000Y-95245200D01*
X114872000Y-97745200D01*
X114872000Y-97745200D01*
G37*
G36*
X129475000Y-100650000D02*
X120525000Y-100650000D01*
X120525000Y-98750000D01*
X129475000Y-98750000D01*
X129475000Y-100650000D01*
X129475000Y-100650000D01*
G37*
G36*
X112372000Y-97745200D02*
X112243393Y-97745200D01*
X112219007Y-97747602D01*
X112195558Y-97754715D01*
X112173947Y-97766266D01*
X112155005Y-97781812D01*
X112139459Y-97800754D01*
X112127908Y-97822365D01*
X112120795Y-97845814D01*
X112118393Y-97870200D01*
X112118995Y-97882457D01*
X112119600Y-97888597D01*
X112119600Y-99113810D01*
X112113603Y-99174697D01*
X112097630Y-99227353D01*
X112071700Y-99275865D01*
X112036796Y-99318396D01*
X111994265Y-99353300D01*
X111945753Y-99379230D01*
X111893097Y-99395203D01*
X111832210Y-99401200D01*
X111031990Y-99401200D01*
X110971103Y-99395203D01*
X110918447Y-99379230D01*
X110869935Y-99353300D01*
X110827404Y-99318396D01*
X110792500Y-99275865D01*
X110766570Y-99227353D01*
X110750597Y-99174697D01*
X110744600Y-99113810D01*
X110744600Y-97888597D01*
X110745205Y-97882457D01*
X110745206Y-97857953D01*
X110740426Y-97833919D01*
X110731049Y-97811280D01*
X110717436Y-97790905D01*
X110700110Y-97773577D01*
X110679736Y-97759962D01*
X110657097Y-97750584D01*
X110633064Y-97745802D01*
X110620807Y-97745200D01*
X110172000Y-97745200D01*
X110172000Y-95245200D01*
X112372000Y-95245200D01*
X112372000Y-97745200D01*
X112372000Y-97745200D01*
G37*
G36*
X131650000Y-98475000D02*
X129750000Y-98475000D01*
X129750000Y-89525000D01*
X131650000Y-89525000D01*
X131650000Y-98475000D01*
X131650000Y-98475000D01*
G37*
G36*
X120250000Y-98475000D02*
X118350000Y-98475000D01*
X118350000Y-89525000D01*
X120250000Y-89525000D01*
X120250000Y-98475000D01*
X120250000Y-98475000D01*
G37*
G36*
X113768097Y-90495197D02*
X113820753Y-90511170D01*
X113869265Y-90537100D01*
X113911796Y-90572004D01*
X113946700Y-90614535D01*
X113972630Y-90663047D01*
X113988603Y-90715703D01*
X113994600Y-90776590D01*
X113994600Y-92001803D01*
X113993995Y-92007943D01*
X113993994Y-92032447D01*
X113998774Y-92056481D01*
X114008151Y-92079120D01*
X114021764Y-92099495D01*
X114039090Y-92116823D01*
X114059464Y-92130438D01*
X114082103Y-92139816D01*
X114106136Y-92144598D01*
X114118393Y-92145200D01*
X114872000Y-92145200D01*
X114872000Y-94645200D01*
X112672000Y-94645200D01*
X112672000Y-92203594D01*
X112669598Y-92179208D01*
X112657240Y-92144670D01*
X112641570Y-92115353D01*
X112625597Y-92062697D01*
X112621398Y-92020065D01*
X112620604Y-92016075D01*
X112620205Y-92007943D01*
X112619600Y-92001803D01*
X112619600Y-90776590D01*
X112625597Y-90715703D01*
X112641570Y-90663047D01*
X112667500Y-90614535D01*
X112702404Y-90572004D01*
X112744935Y-90537100D01*
X112793447Y-90511170D01*
X112846103Y-90495197D01*
X112906990Y-90489200D01*
X113707210Y-90489200D01*
X113768097Y-90495197D01*
X113768097Y-90495197D01*
G37*
G36*
X111893097Y-90495197D02*
X111945753Y-90511170D01*
X111994265Y-90537100D01*
X112036796Y-90572004D01*
X112071700Y-90614535D01*
X112097630Y-90663047D01*
X112113603Y-90715703D01*
X112119600Y-90776590D01*
X112119600Y-92001803D01*
X112118995Y-92007943D01*
X112118994Y-92032447D01*
X112123774Y-92056481D01*
X112133151Y-92079120D01*
X112146764Y-92099495D01*
X112164090Y-92116823D01*
X112184464Y-92130438D01*
X112207103Y-92139816D01*
X112231136Y-92144598D01*
X112243393Y-92145200D01*
X112372000Y-92145200D01*
X112372000Y-94645200D01*
X110172000Y-94645200D01*
X110172000Y-92145200D01*
X110620807Y-92145200D01*
X110645193Y-92142798D01*
X110668642Y-92135685D01*
X110690253Y-92124134D01*
X110709195Y-92108588D01*
X110724741Y-92089646D01*
X110736292Y-92068035D01*
X110743405Y-92044586D01*
X110745807Y-92020200D01*
X110745205Y-92007943D01*
X110744600Y-92001803D01*
X110744600Y-90776590D01*
X110750597Y-90715703D01*
X110766570Y-90663047D01*
X110792500Y-90614535D01*
X110827404Y-90572004D01*
X110869935Y-90537100D01*
X110918447Y-90511170D01*
X110971103Y-90495197D01*
X111031990Y-90489200D01*
X111832210Y-90489200D01*
X111893097Y-90495197D01*
X111893097Y-90495197D01*
G37*
G36*
X110422400Y-89899200D02*
X108322400Y-89899200D01*
X108322400Y-85513200D01*
X110422400Y-85513200D01*
X110422400Y-89899200D01*
X110422400Y-89899200D01*
G37*
G36*
X104783600Y-89391200D02*
X102683600Y-89391200D01*
X102683600Y-87291200D01*
X104783600Y-87291200D01*
X104783600Y-89391200D01*
X104783600Y-89391200D01*
G37*
G36*
X126828297Y-85364397D02*
X126880953Y-85380370D01*
X126929465Y-85406300D01*
X126971996Y-85441204D01*
X127006900Y-85483735D01*
X127032830Y-85532247D01*
X127048803Y-85584903D01*
X127054800Y-85645790D01*
X127054800Y-86871010D01*
X127048803Y-86931897D01*
X127032830Y-86984553D01*
X127006900Y-87033065D01*
X126971996Y-87075596D01*
X126929466Y-87110499D01*
X126921495Y-87114760D01*
X126901120Y-87128374D01*
X126883793Y-87145701D01*
X126870179Y-87166076D01*
X126860802Y-87188715D01*
X126856022Y-87212749D01*
X126856022Y-87237253D01*
X126860803Y-87261286D01*
X126870180Y-87283925D01*
X126883794Y-87304300D01*
X126901121Y-87321627D01*
X126921496Y-87335241D01*
X126944135Y-87344618D01*
X126980420Y-87350000D01*
X127629180Y-87350000D01*
X127653566Y-87347598D01*
X127677015Y-87340485D01*
X127698626Y-87328934D01*
X127717568Y-87313388D01*
X127733114Y-87294446D01*
X127744665Y-87272835D01*
X127751778Y-87249386D01*
X127754180Y-87225000D01*
X127751778Y-87200614D01*
X127744665Y-87177165D01*
X127733114Y-87155554D01*
X127717568Y-87136612D01*
X127688105Y-87114760D01*
X127680134Y-87110499D01*
X127637604Y-87075596D01*
X127602700Y-87033065D01*
X127576770Y-86984553D01*
X127560797Y-86931897D01*
X127554800Y-86871010D01*
X127554800Y-85645790D01*
X127560797Y-85584903D01*
X127576770Y-85532247D01*
X127602700Y-85483735D01*
X127637604Y-85441204D01*
X127680135Y-85406300D01*
X127728647Y-85380370D01*
X127781303Y-85364397D01*
X127842190Y-85358400D01*
X128642410Y-85358400D01*
X128703297Y-85364397D01*
X128755953Y-85380370D01*
X128804465Y-85406300D01*
X128846996Y-85441204D01*
X128881900Y-85483735D01*
X128907830Y-85532247D01*
X128923803Y-85584903D01*
X128929800Y-85645790D01*
X128929800Y-86871010D01*
X128923803Y-86931897D01*
X128907830Y-86984553D01*
X128881900Y-87033065D01*
X128846996Y-87075596D01*
X128804466Y-87110499D01*
X128796495Y-87114760D01*
X128776120Y-87128374D01*
X128758793Y-87145701D01*
X128745179Y-87166076D01*
X128735802Y-87188715D01*
X128731022Y-87212749D01*
X128731022Y-87237253D01*
X128735803Y-87261286D01*
X128745180Y-87283925D01*
X128758794Y-87304300D01*
X128776121Y-87321627D01*
X128796496Y-87335241D01*
X128819135Y-87344618D01*
X128855420Y-87350000D01*
X129475000Y-87350000D01*
X129475000Y-89250000D01*
X120525000Y-89250000D01*
X120525000Y-87350000D01*
X125754180Y-87350000D01*
X125778566Y-87347598D01*
X125802015Y-87340485D01*
X125823626Y-87328934D01*
X125842568Y-87313388D01*
X125858114Y-87294446D01*
X125869665Y-87272835D01*
X125876778Y-87249386D01*
X125879180Y-87225000D01*
X125876778Y-87200614D01*
X125869665Y-87177165D01*
X125858114Y-87155554D01*
X125842568Y-87136612D01*
X125813105Y-87114760D01*
X125805134Y-87110499D01*
X125762604Y-87075596D01*
X125727700Y-87033065D01*
X125701770Y-86984553D01*
X125685797Y-86931897D01*
X125679800Y-86871010D01*
X125679800Y-85645790D01*
X125685797Y-85584903D01*
X125701770Y-85532247D01*
X125727700Y-85483735D01*
X125762604Y-85441204D01*
X125805135Y-85406300D01*
X125853647Y-85380370D01*
X125906303Y-85364397D01*
X125967190Y-85358400D01*
X126767410Y-85358400D01*
X126828297Y-85364397D01*
X126828297Y-85364397D01*
G37*
G36*
X133333200Y-86444800D02*
X131233200Y-86444800D01*
X131233200Y-84344800D01*
X133333200Y-84344800D01*
X133333200Y-86444800D01*
X133333200Y-86444800D01*
G37*
G36*
X114350000Y-84675000D02*
X111650000Y-84675000D01*
X111650000Y-83575000D01*
X114350000Y-83575000D01*
X114350000Y-84675000D01*
X114350000Y-84675000D01*
G37*
G36*
X117350000Y-84100000D02*
X115150000Y-84100000D01*
X115150000Y-81900000D01*
X117350000Y-81900000D01*
X117350000Y-84100000D01*
X117350000Y-84100000D01*
G37*
G36*
X119110857Y-81942272D02*
X119311042Y-82025191D01*
X119491213Y-82145578D01*
X119644422Y-82298787D01*
X119764809Y-82478958D01*
X119847728Y-82679143D01*
X119890000Y-82891658D01*
X119890000Y-83108342D01*
X119847728Y-83320857D01*
X119764809Y-83521042D01*
X119644422Y-83701213D01*
X119491213Y-83854422D01*
X119311042Y-83974809D01*
X119110857Y-84057728D01*
X118898342Y-84100000D01*
X118681658Y-84100000D01*
X118469143Y-84057728D01*
X118268958Y-83974809D01*
X118088787Y-83854422D01*
X117935578Y-83701213D01*
X117815191Y-83521042D01*
X117732272Y-83320857D01*
X117690000Y-83108342D01*
X117690000Y-82891658D01*
X117732272Y-82679143D01*
X117815191Y-82478958D01*
X117935578Y-82298787D01*
X118088787Y-82145578D01*
X118268958Y-82025191D01*
X118469143Y-81942272D01*
X118681658Y-81900000D01*
X118898342Y-81900000D01*
X119110857Y-81942272D01*
X119110857Y-81942272D01*
G37*
G36*
X114350000Y-82425000D02*
X111650000Y-82425000D01*
X111650000Y-81325000D01*
X114350000Y-81325000D01*
X114350000Y-82425000D01*
X114350000Y-82425000D01*
G37*
G36*
X125052800Y-81568000D02*
X122952800Y-81568000D01*
X122952800Y-79468000D01*
X125052800Y-79468000D01*
X125052800Y-81568000D01*
X125052800Y-81568000D01*
G37*
G36*
X128456400Y-80450400D02*
X126356400Y-80450400D01*
X126356400Y-78350400D01*
X128456400Y-78350400D01*
X128456400Y-80450400D01*
X128456400Y-80450400D01*
G37*
G36*
X116497497Y-76506797D02*
X116550153Y-76522770D01*
X116598665Y-76548700D01*
X116641196Y-76583604D01*
X116676100Y-76626135D01*
X116702030Y-76674647D01*
X116718003Y-76727303D01*
X116724000Y-76788190D01*
X116724000Y-77588410D01*
X116718003Y-77649297D01*
X116702030Y-77701953D01*
X116676100Y-77750465D01*
X116641196Y-77792996D01*
X116598665Y-77827900D01*
X116550153Y-77853830D01*
X116497497Y-77869803D01*
X116436610Y-77875800D01*
X115211390Y-77875800D01*
X115150503Y-77869803D01*
X115097847Y-77853830D01*
X115049335Y-77827900D01*
X115006804Y-77792996D01*
X114971900Y-77750465D01*
X114945970Y-77701953D01*
X114929997Y-77649297D01*
X114924000Y-77588410D01*
X114924000Y-76788190D01*
X114929997Y-76727303D01*
X114945970Y-76674647D01*
X114971900Y-76626135D01*
X115006804Y-76583604D01*
X115049335Y-76548700D01*
X115097847Y-76522770D01*
X115150503Y-76506797D01*
X115211390Y-76500800D01*
X116436610Y-76500800D01*
X116497497Y-76506797D01*
X116497497Y-76506797D01*
G37*
G36*
X116497497Y-74631797D02*
X116550153Y-74647770D01*
X116598665Y-74673700D01*
X116641196Y-74708604D01*
X116676100Y-74751135D01*
X116702030Y-74799647D01*
X116718003Y-74852303D01*
X116724000Y-74913190D01*
X116724000Y-75713410D01*
X116718003Y-75774297D01*
X116702030Y-75826953D01*
X116676100Y-75875465D01*
X116641196Y-75917996D01*
X116598665Y-75952900D01*
X116550153Y-75978830D01*
X116497497Y-75994803D01*
X116436610Y-76000800D01*
X115211390Y-76000800D01*
X115150503Y-75994803D01*
X115097847Y-75978830D01*
X115049335Y-75952900D01*
X115006804Y-75917996D01*
X114971900Y-75875465D01*
X114945970Y-75826953D01*
X114929997Y-75774297D01*
X114924000Y-75713410D01*
X114924000Y-74913190D01*
X114929997Y-74852303D01*
X114945970Y-74799647D01*
X114971900Y-74751135D01*
X115006804Y-74708604D01*
X115049335Y-74673700D01*
X115097847Y-74647770D01*
X115150503Y-74631797D01*
X115211390Y-74625800D01*
X116436610Y-74625800D01*
X116497497Y-74631797D01*
X116497497Y-74631797D01*
G37*
G36*
X127382497Y-65958797D02*
X127435153Y-65974770D01*
X127483665Y-66000700D01*
X127526196Y-66035604D01*
X127561100Y-66078135D01*
X127587030Y-66126647D01*
X127603003Y-66179303D01*
X127609000Y-66240190D01*
X127609000Y-67465410D01*
X127603003Y-67526302D01*
X127587164Y-67578514D01*
X127582383Y-67602547D01*
X127582383Y-67627052D01*
X127587164Y-67651086D01*
X127603003Y-67703298D01*
X127609000Y-67764190D01*
X127609000Y-68989410D01*
X127603003Y-69050297D01*
X127587030Y-69102953D01*
X127561100Y-69151465D01*
X127526196Y-69193996D01*
X127483665Y-69228900D01*
X127435153Y-69254830D01*
X127382497Y-69270803D01*
X127321610Y-69276800D01*
X126521390Y-69276800D01*
X126460503Y-69270803D01*
X126407847Y-69254830D01*
X126359335Y-69228900D01*
X126316804Y-69193996D01*
X126281900Y-69151465D01*
X126255970Y-69102953D01*
X126239997Y-69050297D01*
X126234000Y-68989410D01*
X126234000Y-67764190D01*
X126239997Y-67703298D01*
X126255836Y-67651086D01*
X126260617Y-67627053D01*
X126260617Y-67602548D01*
X126255836Y-67578514D01*
X126239997Y-67526302D01*
X126234000Y-67465410D01*
X126234000Y-66240190D01*
X126239997Y-66179303D01*
X126255970Y-66126647D01*
X126281900Y-66078135D01*
X126316804Y-66035604D01*
X126359335Y-66000700D01*
X126407847Y-65974770D01*
X126460503Y-65958797D01*
X126521390Y-65952800D01*
X127321610Y-65952800D01*
X127382497Y-65958797D01*
X127382497Y-65958797D01*
G37*
G36*
X125507497Y-65958797D02*
X125560153Y-65974770D01*
X125608665Y-66000700D01*
X125651196Y-66035604D01*
X125686100Y-66078135D01*
X125712030Y-66126647D01*
X125728003Y-66179303D01*
X125734000Y-66240190D01*
X125734000Y-67465410D01*
X125728003Y-67526302D01*
X125712164Y-67578514D01*
X125707383Y-67602547D01*
X125707383Y-67627052D01*
X125712164Y-67651086D01*
X125728003Y-67703298D01*
X125734000Y-67764190D01*
X125734000Y-68989410D01*
X125728003Y-69050297D01*
X125712030Y-69102953D01*
X125686100Y-69151465D01*
X125651196Y-69193996D01*
X125608665Y-69228900D01*
X125560153Y-69254830D01*
X125507497Y-69270803D01*
X125446610Y-69276800D01*
X124646390Y-69276800D01*
X124585503Y-69270803D01*
X124532847Y-69254830D01*
X124484335Y-69228900D01*
X124441804Y-69193996D01*
X124406900Y-69151465D01*
X124380970Y-69102953D01*
X124364997Y-69050297D01*
X124359000Y-68989410D01*
X124359000Y-67764190D01*
X124364997Y-67703298D01*
X124380836Y-67651086D01*
X124385617Y-67627053D01*
X124385617Y-67602548D01*
X124380836Y-67578514D01*
X124364997Y-67526302D01*
X124359000Y-67465410D01*
X124359000Y-66240190D01*
X124364997Y-66179303D01*
X124380970Y-66126647D01*
X124406900Y-66078135D01*
X124441804Y-66035604D01*
X124484335Y-66000700D01*
X124532847Y-65974770D01*
X124585503Y-65958797D01*
X124646390Y-65952800D01*
X125446610Y-65952800D01*
X125507497Y-65958797D01*
X125507497Y-65958797D01*
G37*
G36*
X118885097Y-66499197D02*
X118937753Y-66515170D01*
X118986265Y-66541100D01*
X119028796Y-66576004D01*
X119063700Y-66618535D01*
X119089630Y-66667047D01*
X119105603Y-66719703D01*
X119111600Y-66780590D01*
X119111600Y-67580810D01*
X119105603Y-67641697D01*
X119089630Y-67694353D01*
X119063700Y-67742865D01*
X119028796Y-67785396D01*
X118986265Y-67820300D01*
X118937753Y-67846230D01*
X118885097Y-67862203D01*
X118824210Y-67868200D01*
X117598990Y-67868200D01*
X117538103Y-67862203D01*
X117485447Y-67846230D01*
X117436935Y-67820300D01*
X117394404Y-67785396D01*
X117359500Y-67742865D01*
X117333570Y-67694353D01*
X117317597Y-67641697D01*
X117311600Y-67580810D01*
X117311600Y-66780590D01*
X117317597Y-66719703D01*
X117333570Y-66667047D01*
X117359500Y-66618535D01*
X117394404Y-66576004D01*
X117436935Y-66541100D01*
X117485447Y-66515170D01*
X117538103Y-66499197D01*
X117598990Y-66493200D01*
X118824210Y-66493200D01*
X118885097Y-66499197D01*
X118885097Y-66499197D01*
G37*
G36*
X119800000Y-65200000D02*
X119236600Y-65200000D01*
X119212214Y-65202402D01*
X119188765Y-65209515D01*
X119167154Y-65221066D01*
X119148212Y-65236612D01*
X119132666Y-65255554D01*
X119121115Y-65277165D01*
X119114002Y-65300614D01*
X119111600Y-65325000D01*
X119111600Y-65705810D01*
X119105603Y-65766697D01*
X119089630Y-65819353D01*
X119063700Y-65867865D01*
X119028796Y-65910396D01*
X118986265Y-65945300D01*
X118937753Y-65971230D01*
X118885097Y-65987203D01*
X118824210Y-65993200D01*
X117598990Y-65993200D01*
X117538103Y-65987203D01*
X117485447Y-65971230D01*
X117436932Y-65945299D01*
X117416311Y-65928375D01*
X117395937Y-65914760D01*
X117373298Y-65905383D01*
X117349265Y-65900602D01*
X117337011Y-65900000D01*
X116537390Y-65900000D01*
X116476503Y-65894003D01*
X116423847Y-65878030D01*
X116375335Y-65852100D01*
X116332804Y-65817196D01*
X116297900Y-65774665D01*
X116271970Y-65726153D01*
X116255997Y-65673497D01*
X116250000Y-65612610D01*
X116250000Y-64387390D01*
X116255997Y-64326503D01*
X116271970Y-64273847D01*
X116297900Y-64225335D01*
X116332804Y-64182804D01*
X116375335Y-64147900D01*
X116423847Y-64121970D01*
X116476503Y-64105997D01*
X116537390Y-64100000D01*
X117337610Y-64100000D01*
X117398497Y-64105997D01*
X117451153Y-64121970D01*
X117499665Y-64147900D01*
X117542196Y-64182804D01*
X117577100Y-64225335D01*
X117603030Y-64273847D01*
X117619003Y-64326503D01*
X117625000Y-64387390D01*
X117625000Y-64493200D01*
X117627402Y-64517586D01*
X117634515Y-64541035D01*
X117646066Y-64562646D01*
X117661612Y-64581588D01*
X117680554Y-64597134D01*
X117702165Y-64608685D01*
X117725614Y-64615798D01*
X117750000Y-64618200D01*
X118075000Y-64618200D01*
X118099386Y-64615798D01*
X118122835Y-64608685D01*
X118144446Y-64597134D01*
X118163388Y-64581588D01*
X118178934Y-64562646D01*
X118190485Y-64541035D01*
X118197598Y-64517586D01*
X118200000Y-64493200D01*
X118200000Y-61800000D01*
X119800000Y-61800000D01*
X119800000Y-65200000D01*
X119800000Y-65200000D01*
G37*
G36*
X115523497Y-64105997D02*
X115576153Y-64121970D01*
X115624665Y-64147900D01*
X115667196Y-64182804D01*
X115702100Y-64225335D01*
X115728030Y-64273847D01*
X115744003Y-64326503D01*
X115750000Y-64387390D01*
X115750000Y-65612610D01*
X115744003Y-65673497D01*
X115728030Y-65726153D01*
X115702100Y-65774665D01*
X115667196Y-65817196D01*
X115624665Y-65852100D01*
X115576153Y-65878030D01*
X115523497Y-65894003D01*
X115462610Y-65900000D01*
X114662390Y-65900000D01*
X114601503Y-65894003D01*
X114548847Y-65878030D01*
X114500335Y-65852100D01*
X114457804Y-65817196D01*
X114422900Y-65774665D01*
X114396968Y-65726149D01*
X114395622Y-65721713D01*
X114386244Y-65699074D01*
X114372630Y-65678700D01*
X114355303Y-65661373D01*
X114334928Y-65647759D01*
X114312289Y-65638382D01*
X114276005Y-65633000D01*
X113325856Y-65633000D01*
X113301470Y-65635402D01*
X113278021Y-65642515D01*
X113204183Y-65673100D01*
X113068945Y-65700000D01*
X112931055Y-65700000D01*
X112795817Y-65673100D01*
X112668426Y-65620332D01*
X112553775Y-65543725D01*
X112456275Y-65446225D01*
X112439285Y-65420797D01*
X112379668Y-65331574D01*
X112357131Y-65277165D01*
X112326900Y-65204183D01*
X112300000Y-65068945D01*
X112300000Y-64931055D01*
X112326900Y-64795817D01*
X112379668Y-64668426D01*
X112424219Y-64601750D01*
X112456274Y-64553776D01*
X112553776Y-64456274D01*
X112668426Y-64379668D01*
X112675620Y-64376688D01*
X112795817Y-64326900D01*
X112931055Y-64300000D01*
X112997063Y-64300000D01*
X113021449Y-64297598D01*
X113055987Y-64285240D01*
X113065847Y-64279970D01*
X113118503Y-64263997D01*
X113179390Y-64258000D01*
X114336971Y-64258000D01*
X114361357Y-64255598D01*
X114384806Y-64248485D01*
X114406417Y-64236934D01*
X114433596Y-64212300D01*
X114457801Y-64182807D01*
X114500335Y-64147900D01*
X114548847Y-64121970D01*
X114601503Y-64105997D01*
X114662390Y-64100000D01*
X115462610Y-64100000D01*
X115523497Y-64105997D01*
X115523497Y-64105997D01*
G37*
G36*
X121800000Y-65200000D02*
X120200000Y-65200000D01*
X120200000Y-61800000D01*
X121800000Y-61800000D01*
X121800000Y-65200000D01*
X121800000Y-65200000D01*
G37*
G36*
X123800000Y-65200000D02*
X122200000Y-65200000D01*
X122200000Y-61800000D01*
X123800000Y-61800000D01*
X123800000Y-65200000D01*
X123800000Y-65200000D01*
G37*
G36*
X125800000Y-65200000D02*
X124200000Y-65200000D01*
X124200000Y-61800000D01*
X125800000Y-61800000D01*
X125800000Y-65200000D01*
X125800000Y-65200000D01*
G37*
G36*
X127800000Y-65200000D02*
X126200000Y-65200000D01*
X126200000Y-61800000D01*
X127800000Y-61800000D01*
X127800000Y-65200000D01*
X127800000Y-65200000D01*
G37*
G36*
X129800000Y-65200000D02*
X128200000Y-65200000D01*
X128200000Y-61800000D01*
X129800000Y-61800000D01*
X129800000Y-65200000D01*
X129800000Y-65200000D01*
G37*
G36*
X131800000Y-65200000D02*
X130200000Y-65200000D01*
X130200000Y-61800000D01*
X131800000Y-61800000D01*
X131800000Y-65200000D01*
X131800000Y-65200000D01*
G37*
G36*
X133800000Y-65200000D02*
X132200000Y-65200000D01*
X132200000Y-61800000D01*
X133800000Y-61800000D01*
X133800000Y-65200000D01*
X133800000Y-65200000D01*
G37*
G36*
X114465497Y-62388997D02*
X114518153Y-62404970D01*
X114566665Y-62430900D01*
X114609196Y-62465804D01*
X114644100Y-62508335D01*
X114670030Y-62556847D01*
X114686003Y-62609503D01*
X114692000Y-62670390D01*
X114692000Y-63470610D01*
X114686003Y-63531497D01*
X114670030Y-63584153D01*
X114644100Y-63632665D01*
X114609196Y-63675196D01*
X114566665Y-63710100D01*
X114518153Y-63736030D01*
X114465497Y-63752003D01*
X114404610Y-63758000D01*
X113179390Y-63758000D01*
X113118503Y-63752003D01*
X113065847Y-63736030D01*
X113017335Y-63710100D01*
X112974804Y-63675196D01*
X112939900Y-63632665D01*
X112913970Y-63584153D01*
X112897997Y-63531497D01*
X112892000Y-63470610D01*
X112892000Y-62670390D01*
X112897997Y-62609503D01*
X112913970Y-62556847D01*
X112939900Y-62508335D01*
X112974804Y-62465804D01*
X113017335Y-62430900D01*
X113065847Y-62404970D01*
X113118503Y-62388997D01*
X113179390Y-62383000D01*
X114404610Y-62383000D01*
X114465497Y-62388997D01*
X114465497Y-62388997D01*
G37*
G36*
X127800000Y-50200000D02*
X126200000Y-50200000D01*
X126200000Y-46800000D01*
X127800000Y-46800000D01*
X127800000Y-50200000D01*
X127800000Y-50200000D01*
G37*
G36*
X125800000Y-50200000D02*
X124200000Y-50200000D01*
X124200000Y-46800000D01*
X125800000Y-46800000D01*
X125800000Y-50200000D01*
X125800000Y-50200000D01*
G37*
G36*
X131800000Y-50200000D02*
X130200000Y-50200000D01*
X130200000Y-46800000D01*
X131800000Y-46800000D01*
X131800000Y-50200000D01*
X131800000Y-50200000D01*
G37*
G36*
X129800000Y-50200000D02*
X128200000Y-50200000D01*
X128200000Y-46800000D01*
X129800000Y-46800000D01*
X129800000Y-50200000D01*
X129800000Y-50200000D01*
G37*
G36*
X123800000Y-50200000D02*
X122200000Y-50200000D01*
X122200000Y-46800000D01*
X123800000Y-46800000D01*
X123800000Y-50200000D01*
X123800000Y-50200000D01*
G37*
G36*
X121800000Y-50200000D02*
X120200000Y-50200000D01*
X120200000Y-46800000D01*
X121800000Y-46800000D01*
X121800000Y-50200000D01*
X121800000Y-50200000D01*
G37*
G36*
X119800000Y-50200000D02*
X118200000Y-50200000D01*
X118200000Y-46800000D01*
X119800000Y-46800000D01*
X119800000Y-50200000D01*
X119800000Y-50200000D01*
G37*
G36*
X133800000Y-50200000D02*
X132200000Y-50200000D01*
X132200000Y-46800000D01*
X133800000Y-46800000D01*
X133800000Y-50200000D01*
X133800000Y-50200000D01*
G37*
M02*
