G04 #@! TF.GenerationSoftware,KiCad,Pcbnew,5.1.6-c6e7f7d~87~ubuntu20.04.1*
G04 #@! TF.CreationDate,2020-07-20T11:44:09+02:00*
G04 #@! TF.ProjectId,weerstasie,77656572-7374-4617-9369-652e6b696361,rev?*
G04 #@! TF.SameCoordinates,Original*
G04 #@! TF.FileFunction,Copper,L2,Bot*
G04 #@! TF.FilePolarity,Positive*
%FSLAX46Y46*%
G04 Gerber Fmt 4.6, Leading zero omitted, Abs format (unit mm)*
G04 Created by KiCad (PCBNEW 5.1.6-c6e7f7d~87~ubuntu20.04.1) date 2020-07-20 11:44:09*
%MOMM*%
%LPD*%
G01*
G04 APERTURE LIST*
G04 #@! TA.AperFunction,EtchedComponent*
%ADD10C,1.000000*%
G04 #@! TD*
G04 #@! TA.AperFunction,ComponentPad*
%ADD11R,1.700000X1.700000*%
G04 #@! TD*
G04 #@! TA.AperFunction,ComponentPad*
%ADD12O,1.700000X1.700000*%
G04 #@! TD*
G04 #@! TA.AperFunction,ComponentPad*
%ADD13R,1.800000X1.800000*%
G04 #@! TD*
G04 #@! TA.AperFunction,ComponentPad*
%ADD14C,1.800000*%
G04 #@! TD*
G04 #@! TA.AperFunction,ComponentPad*
%ADD15R,7.000000X2.000000*%
G04 #@! TD*
G04 #@! TA.AperFunction,ViaPad*
%ADD16C,1.000000*%
G04 #@! TD*
G04 #@! TA.AperFunction,ComponentPad*
%ADD17C,3.250000*%
G04 #@! TD*
G04 #@! TA.AperFunction,ComponentPad*
%ADD18C,1.600000*%
G04 #@! TD*
G04 #@! TA.AperFunction,ViaPad*
%ADD19C,2.200000*%
G04 #@! TD*
G04 #@! TA.AperFunction,ViaPad*
%ADD20C,0.600000*%
G04 #@! TD*
G04 #@! TA.AperFunction,Conductor*
%ADD21C,0.250000*%
G04 #@! TD*
G04 #@! TA.AperFunction,Conductor*
%ADD22C,1.000000*%
G04 #@! TD*
G04 #@! TA.AperFunction,Conductor*
%ADD23C,0.254000*%
G04 #@! TD*
G04 APERTURE END LIST*
D10*
X106000000Y-48000000D02*
X107000000Y-47000000D01*
X102000000Y-48000000D02*
X106000000Y-48000000D01*
X101000000Y-49000000D02*
X102000000Y-48000000D01*
X106000000Y-50000000D02*
X107000000Y-49000000D01*
X102000000Y-50000000D02*
X106000000Y-50000000D01*
X101000000Y-51000000D02*
X102000000Y-50000000D01*
X106000000Y-52000000D02*
X107000000Y-51000000D01*
X102000000Y-52000000D02*
X106000000Y-52000000D01*
X101000000Y-53000000D02*
X102000000Y-52000000D01*
X106000000Y-54000000D02*
X107000000Y-53000000D01*
X102000000Y-54000000D02*
X106000000Y-54000000D01*
X101000000Y-55000000D02*
X102000000Y-54000000D01*
X106000000Y-56000000D02*
X107000000Y-55000000D01*
X102000000Y-56000000D02*
X106000000Y-56000000D01*
X101000000Y-57000000D02*
X102000000Y-56000000D01*
X106000000Y-58000000D02*
X107000000Y-57000000D01*
X102000000Y-58000000D02*
X106000000Y-58000000D01*
X101000000Y-59000000D02*
X102000000Y-58000000D01*
X106000000Y-60000000D02*
X107000000Y-59000000D01*
X102000000Y-60000000D02*
X106000000Y-60000000D01*
X101000000Y-61000000D02*
X102000000Y-60000000D01*
X106000000Y-62000000D02*
X107000000Y-61000000D01*
X102000000Y-62000000D02*
X106000000Y-62000000D01*
X101000000Y-63000000D02*
X102000000Y-62000000D01*
X106000000Y-64000000D02*
X107000000Y-63000000D01*
X102000000Y-64000000D02*
X106000000Y-64000000D01*
X101000000Y-65000000D02*
X102000000Y-64000000D01*
G04 #@! TA.AperFunction,SMDPad,CuDef*
G36*
G01*
X126979500Y-105969750D02*
X126979500Y-106882250D01*
G75*
G02*
X126735750Y-107126000I-243750J0D01*
G01*
X126248250Y-107126000D01*
G75*
G02*
X126004500Y-106882250I0J243750D01*
G01*
X126004500Y-105969750D01*
G75*
G02*
X126248250Y-105726000I243750J0D01*
G01*
X126735750Y-105726000D01*
G75*
G02*
X126979500Y-105969750I0J-243750D01*
G01*
G37*
G04 #@! TD.AperFunction*
G04 #@! TA.AperFunction,SMDPad,CuDef*
G36*
G01*
X128854500Y-105969750D02*
X128854500Y-106882250D01*
G75*
G02*
X128610750Y-107126000I-243750J0D01*
G01*
X128123250Y-107126000D01*
G75*
G02*
X127879500Y-106882250I0J243750D01*
G01*
X127879500Y-105969750D01*
G75*
G02*
X128123250Y-105726000I243750J0D01*
G01*
X128610750Y-105726000D01*
G75*
G02*
X128854500Y-105969750I0J-243750D01*
G01*
G37*
G04 #@! TD.AperFunction*
G04 #@! TA.AperFunction,SMDPad,CuDef*
G36*
G01*
X118517350Y-79467100D02*
X119429850Y-79467100D01*
G75*
G02*
X119673600Y-79710850I0J-243750D01*
G01*
X119673600Y-80198350D01*
G75*
G02*
X119429850Y-80442100I-243750J0D01*
G01*
X118517350Y-80442100D01*
G75*
G02*
X118273600Y-80198350I0J243750D01*
G01*
X118273600Y-79710850D01*
G75*
G02*
X118517350Y-79467100I243750J0D01*
G01*
G37*
G04 #@! TD.AperFunction*
G04 #@! TA.AperFunction,SMDPad,CuDef*
G36*
G01*
X118517350Y-77592100D02*
X119429850Y-77592100D01*
G75*
G02*
X119673600Y-77835850I0J-243750D01*
G01*
X119673600Y-78323350D01*
G75*
G02*
X119429850Y-78567100I-243750J0D01*
G01*
X118517350Y-78567100D01*
G75*
G02*
X118273600Y-78323350I0J243750D01*
G01*
X118273600Y-77835850D01*
G75*
G02*
X118517350Y-77592100I243750J0D01*
G01*
G37*
G04 #@! TD.AperFunction*
D11*
X126492000Y-80518000D03*
X125000000Y-102000000D03*
D12*
X127540000Y-102000000D03*
D11*
X114960400Y-100533200D03*
D12*
X117500400Y-100533200D03*
D13*
X116250000Y-83000000D03*
D14*
X118790000Y-83000000D03*
D11*
X133350000Y-87630000D03*
X103225600Y-86410800D03*
X103225600Y-91490800D03*
X103225600Y-94030800D03*
X133350000Y-85090000D03*
X103225600Y-88950800D03*
D15*
X106500000Y-131000000D03*
X112500000Y-131000000D03*
X122500000Y-131000000D03*
X128500000Y-131000000D03*
D16*
X107000000Y-47000000D03*
X101000000Y-49000000D03*
X107000000Y-49000000D03*
X101000000Y-51000000D03*
X107000000Y-51000000D03*
X101000000Y-53000000D03*
X107000000Y-53000000D03*
X101000000Y-55000000D03*
X107000000Y-55000000D03*
X101000000Y-57000000D03*
X107000000Y-57000000D03*
X101000000Y-59000000D03*
X107000000Y-59000000D03*
X101000000Y-61000000D03*
X107000000Y-61000000D03*
X101000000Y-63000000D03*
X107000000Y-63000000D03*
X101000000Y-65000000D03*
G04 #@! TA.AperFunction,SMDPad,CuDef*
G36*
G01*
X121665050Y-93677800D02*
X120752550Y-93677800D01*
G75*
G02*
X120508800Y-93434050I0J243750D01*
G01*
X120508800Y-92946550D01*
G75*
G02*
X120752550Y-92702800I243750J0D01*
G01*
X121665050Y-92702800D01*
G75*
G02*
X121908800Y-92946550I0J-243750D01*
G01*
X121908800Y-93434050D01*
G75*
G02*
X121665050Y-93677800I-243750J0D01*
G01*
G37*
G04 #@! TD.AperFunction*
G04 #@! TA.AperFunction,SMDPad,CuDef*
G36*
G01*
X121665050Y-91802800D02*
X120752550Y-91802800D01*
G75*
G02*
X120508800Y-91559050I0J243750D01*
G01*
X120508800Y-91071550D01*
G75*
G02*
X120752550Y-90827800I243750J0D01*
G01*
X121665050Y-90827800D01*
G75*
G02*
X121908800Y-91071550I0J-243750D01*
G01*
X121908800Y-91559050D01*
G75*
G02*
X121665050Y-91802800I-243750J0D01*
G01*
G37*
G04 #@! TD.AperFunction*
G04 #@! TA.AperFunction,SMDPad,CuDef*
G36*
G01*
X130402650Y-91548800D02*
X129490150Y-91548800D01*
G75*
G02*
X129246400Y-91305050I0J243750D01*
G01*
X129246400Y-90817550D01*
G75*
G02*
X129490150Y-90573800I243750J0D01*
G01*
X130402650Y-90573800D01*
G75*
G02*
X130646400Y-90817550I0J-243750D01*
G01*
X130646400Y-91305050D01*
G75*
G02*
X130402650Y-91548800I-243750J0D01*
G01*
G37*
G04 #@! TD.AperFunction*
G04 #@! TA.AperFunction,SMDPad,CuDef*
G36*
G01*
X130402650Y-93423800D02*
X129490150Y-93423800D01*
G75*
G02*
X129246400Y-93180050I0J243750D01*
G01*
X129246400Y-92692550D01*
G75*
G02*
X129490150Y-92448800I243750J0D01*
G01*
X130402650Y-92448800D01*
G75*
G02*
X130646400Y-92692550I0J-243750D01*
G01*
X130646400Y-93180050D01*
G75*
G02*
X130402650Y-93423800I-243750J0D01*
G01*
G37*
G04 #@! TD.AperFunction*
G04 #@! TA.AperFunction,SMDPad,CuDef*
G36*
G01*
X123903800Y-95809750D02*
X123903800Y-96722250D01*
G75*
G02*
X123660050Y-96966000I-243750J0D01*
G01*
X123172550Y-96966000D01*
G75*
G02*
X122928800Y-96722250I0J243750D01*
G01*
X122928800Y-95809750D01*
G75*
G02*
X123172550Y-95566000I243750J0D01*
G01*
X123660050Y-95566000D01*
G75*
G02*
X123903800Y-95809750I0J-243750D01*
G01*
G37*
G04 #@! TD.AperFunction*
G04 #@! TA.AperFunction,SMDPad,CuDef*
G36*
G01*
X122028800Y-95809750D02*
X122028800Y-96722250D01*
G75*
G02*
X121785050Y-96966000I-243750J0D01*
G01*
X121297550Y-96966000D01*
G75*
G02*
X121053800Y-96722250I0J243750D01*
G01*
X121053800Y-95809750D01*
G75*
G02*
X121297550Y-95566000I243750J0D01*
G01*
X121785050Y-95566000D01*
G75*
G02*
X122028800Y-95809750I0J-243750D01*
G01*
G37*
G04 #@! TD.AperFunction*
G04 #@! TA.AperFunction,SMDPad,CuDef*
G36*
G01*
X129540950Y-96462000D02*
X130453450Y-96462000D01*
G75*
G02*
X130697200Y-96705750I0J-243750D01*
G01*
X130697200Y-97193250D01*
G75*
G02*
X130453450Y-97437000I-243750J0D01*
G01*
X129540950Y-97437000D01*
G75*
G02*
X129297200Y-97193250I0J243750D01*
G01*
X129297200Y-96705750D01*
G75*
G02*
X129540950Y-96462000I243750J0D01*
G01*
G37*
G04 #@! TD.AperFunction*
G04 #@! TA.AperFunction,SMDPad,CuDef*
G36*
G01*
X129540950Y-94587000D02*
X130453450Y-94587000D01*
G75*
G02*
X130697200Y-94830750I0J-243750D01*
G01*
X130697200Y-95318250D01*
G75*
G02*
X130453450Y-95562000I-243750J0D01*
G01*
X129540950Y-95562000D01*
G75*
G02*
X129297200Y-95318250I0J243750D01*
G01*
X129297200Y-94830750D01*
G75*
G02*
X129540950Y-94587000I243750J0D01*
G01*
G37*
G04 #@! TD.AperFunction*
D17*
X105520000Y-118000000D03*
D18*
X113775000Y-111650000D03*
X112505000Y-109110000D03*
X111235000Y-111650000D03*
X109965000Y-109110000D03*
X108695000Y-111650000D03*
X107425000Y-109110000D03*
D17*
X115680000Y-118000000D03*
X129480000Y-118000000D03*
D18*
X121225000Y-109110000D03*
X122495000Y-111650000D03*
X123765000Y-109110000D03*
X125035000Y-111650000D03*
X126305000Y-109110000D03*
X127575000Y-111650000D03*
D17*
X119320000Y-118000000D03*
D19*
X109067600Y-87223600D03*
X108407200Y-90525600D03*
X110744000Y-92506800D03*
X109728000Y-83820000D03*
X113400000Y-79800000D03*
X109728000Y-78740000D03*
D20*
X115000000Y-66500000D03*
X121200000Y-90000000D03*
X134000000Y-124000000D03*
X134000000Y-120000000D03*
X134000000Y-116000000D03*
X134000000Y-112000000D03*
X134000000Y-108000000D03*
X124000000Y-128500000D03*
X134000000Y-132000000D03*
X134000000Y-128000000D03*
X134000000Y-83000000D03*
X134000000Y-79000000D03*
X134000000Y-75000000D03*
X134000000Y-71000000D03*
X134000000Y-67000000D03*
X113500000Y-66500000D03*
X113500000Y-68000000D03*
X113500000Y-69500000D03*
X113500000Y-71000000D03*
X113500000Y-72500000D03*
X113500000Y-74000000D03*
X113500000Y-75500000D03*
X112500000Y-76500000D03*
X111000000Y-76500000D03*
X109500000Y-76500000D03*
X108000000Y-76500000D03*
X106500000Y-76500000D03*
X105000000Y-76500000D03*
X103500000Y-76500000D03*
X102000000Y-76500000D03*
X101000000Y-77500000D03*
X101000000Y-131000000D03*
X101000000Y-127000000D03*
X101000000Y-123000000D03*
X101000000Y-119000000D03*
X101000000Y-115000000D03*
X101000000Y-111000000D03*
X101000000Y-107000000D03*
X101000000Y-103000000D03*
X101000000Y-99000000D03*
X101000000Y-95000000D03*
X101000000Y-91000000D03*
X101000000Y-87000000D03*
X101000000Y-83000000D03*
X101000000Y-79000000D03*
X113500000Y-60500000D03*
X113500000Y-59000000D03*
X113500000Y-57500000D03*
X113500000Y-56000000D03*
X113500000Y-54500000D03*
X113500000Y-53000000D03*
X113500000Y-51500000D03*
X113500000Y-50000000D03*
X113500000Y-48500000D03*
X113500000Y-47000000D03*
X118000000Y-47000000D03*
X116500000Y-47000000D03*
X115000000Y-47000000D03*
X121000000Y-128500000D03*
X129500000Y-54000000D03*
X133000000Y-51000000D03*
X133000000Y-54000000D03*
X133000000Y-57000000D03*
X133553200Y-61010800D03*
X125628400Y-93167200D03*
X124968000Y-94742000D03*
X132029200Y-94132400D03*
X113500000Y-62000000D03*
X129387600Y-89662000D03*
X124968000Y-89865200D03*
X121107200Y-94488000D03*
X126238000Y-98145600D03*
X107645200Y-104546400D03*
X103632000Y-107797600D03*
X132334000Y-100787200D03*
X134061200Y-102819200D03*
X127965200Y-71628000D03*
X125780800Y-61163200D03*
X120700800Y-69342000D03*
X110388400Y-105460800D03*
X117043200Y-112522000D03*
X116738400Y-106680000D03*
X125780800Y-57505600D03*
X120904000Y-61112400D03*
X119786400Y-65989200D03*
X126034800Y-70002400D03*
X116586000Y-66548000D03*
X115366800Y-63347600D03*
X117297200Y-63246000D03*
X117754400Y-61366400D03*
X129743198Y-85902800D03*
X124866400Y-86715600D03*
X127304800Y-82143600D03*
X123139200Y-82194400D03*
X125882400Y-75641200D03*
X128066800Y-78079600D03*
X131267200Y-87630000D03*
X132537200Y-92303600D03*
X113944400Y-102311200D03*
X124002800Y-114655600D03*
X121869200Y-50800000D03*
X122123200Y-56032400D03*
X125730000Y-51663600D03*
X118059200Y-50901600D03*
X127406400Y-104597200D03*
X117398800Y-76403200D03*
X120548400Y-76250800D03*
D19*
X116586000Y-79705200D03*
D20*
X121513600Y-98247200D03*
X107950000Y-102463600D03*
X116840000Y-93472000D03*
D19*
X109728000Y-81280000D03*
X115773200Y-85902800D03*
D20*
X124968000Y-77622400D03*
X123037600Y-78638400D03*
X111963200Y-95046800D03*
X104952800Y-95148400D03*
X105003600Y-93014800D03*
X104952800Y-86563200D03*
X104749600Y-84582000D03*
X106934000Y-114452400D03*
X127711200Y-107899200D03*
X123478800Y-96266000D03*
X129336800Y-94792800D03*
X121208800Y-93252800D03*
X131799999Y-73076401D03*
X127000000Y-68276402D03*
X131805001Y-106557401D03*
X118675000Y-103530400D03*
X120434500Y-103530400D03*
X121700000Y-60100000D03*
X116795744Y-90708812D03*
X111251998Y-88899994D03*
X116992400Y-91592400D03*
X122400000Y-57300000D03*
X112025000Y-86399804D03*
X124002798Y-56794400D03*
X114950064Y-89025718D03*
X113030000Y-89306400D03*
X124002800Y-80518000D03*
X115520991Y-91970090D03*
X116433600Y-89458800D03*
X115265200Y-88290400D03*
X123037600Y-52476400D03*
X121818400Y-86918800D03*
X128676400Y-95504000D03*
X122936000Y-51155600D03*
X126593600Y-95961200D03*
X127000000Y-83921600D03*
X127304800Y-95453200D03*
X127423684Y-84616516D03*
X127965200Y-96012000D03*
X128219394Y-84699370D03*
X122478800Y-83058000D03*
X122478800Y-97790000D03*
X129900000Y-93200000D03*
D21*
X109800000Y-83200000D02*
X109800000Y-84200000D01*
X103000000Y-83000000D02*
X103000000Y-78600000D01*
X121208800Y-91252800D02*
X121208800Y-90008800D01*
X121208800Y-90008800D02*
X121200000Y-90000000D01*
X134000000Y-104000000D02*
X134000000Y-106000000D01*
X134000000Y-126000000D02*
X134000000Y-124000000D01*
X134000000Y-122000000D02*
X134000000Y-120000000D01*
X134000000Y-118000000D02*
X134000000Y-116000000D01*
X134000000Y-114000000D02*
X134000000Y-112000000D01*
X134000000Y-110000000D02*
X134000000Y-108000000D01*
X124000000Y-128500000D02*
X133500000Y-128500000D01*
X134000000Y-130000000D02*
X134000000Y-132000000D01*
X133500000Y-128500000D02*
X134000000Y-128000000D01*
X133000000Y-60000000D02*
X133000000Y-66000000D01*
X134000000Y-77000000D02*
X134000000Y-79000000D01*
X134000000Y-73000000D02*
X134000000Y-75000000D01*
X134000000Y-69000000D02*
X134000000Y-71000000D01*
X133000000Y-66000000D02*
X134000000Y-67000000D01*
X101000000Y-77500000D02*
X101000000Y-78500000D01*
X113500000Y-68000000D02*
X113500000Y-69500000D01*
X113500000Y-71000000D02*
X113500000Y-72500000D01*
X113500000Y-74000000D02*
X113500000Y-75500000D01*
X112500000Y-76500000D02*
X111000000Y-76500000D01*
X109500000Y-76500000D02*
X108000000Y-76500000D01*
X106500000Y-76500000D02*
X105000000Y-76500000D01*
X103500000Y-76500000D02*
X102000000Y-76500000D01*
X113500000Y-62000000D02*
X113500000Y-66500000D01*
X101000000Y-129000000D02*
X101000000Y-131000000D01*
X101000000Y-128000000D02*
X101000000Y-127000000D01*
X101000000Y-125000000D02*
X101000000Y-128000000D01*
X101000000Y-121000000D02*
X101000000Y-123000000D01*
X101000000Y-117000000D02*
X101000000Y-119000000D01*
X101000000Y-113000000D02*
X101000000Y-115000000D01*
X101000000Y-109000000D02*
X101000000Y-111000000D01*
X101000000Y-105000000D02*
X101000000Y-107000000D01*
X101000000Y-101000000D02*
X101000000Y-103000000D01*
X101000000Y-97000000D02*
X101000000Y-99000000D01*
X101000000Y-93000000D02*
X101000000Y-95000000D01*
X101000000Y-89000000D02*
X101000000Y-91000000D01*
X101000000Y-85000000D02*
X101000000Y-87000000D01*
X101000000Y-81000000D02*
X101000000Y-83000000D01*
X101000000Y-78500000D02*
X101000000Y-79000000D01*
X113500000Y-47000000D02*
X115000000Y-47000000D01*
X113500000Y-59000000D02*
X113500000Y-57500000D01*
X113500000Y-56000000D02*
X113500000Y-54500000D01*
X113500000Y-53000000D02*
X113500000Y-51500000D01*
X113500000Y-50000000D02*
X113500000Y-48500000D01*
X113500000Y-62000000D02*
X113500000Y-60500000D01*
X116500000Y-47000000D02*
X118000000Y-47000000D01*
X121000000Y-128500000D02*
X124000000Y-128500000D01*
X133000000Y-54000000D02*
X129500000Y-54000000D01*
X133000000Y-51000000D02*
X133000000Y-54000000D01*
X133000000Y-57000000D02*
X133000000Y-60000000D01*
X125628400Y-93167200D02*
X125628400Y-94081600D01*
X125628400Y-94081600D02*
X124968000Y-94742000D01*
X132080000Y-94929200D02*
X129997200Y-97012000D01*
X132080000Y-94183200D02*
X132080000Y-94929200D01*
X132029200Y-94132400D02*
X132080000Y-94183200D01*
X121107200Y-94488000D02*
X121107200Y-94538800D01*
X129997200Y-95012000D02*
X129556000Y-95012000D01*
X129556000Y-95012000D02*
X129336800Y-94792800D01*
D22*
X131799999Y-73076401D02*
X127000000Y-68276402D01*
D21*
X131673600Y-106426000D02*
X131805001Y-106557401D01*
X128367000Y-106426000D02*
X131673600Y-106426000D01*
X118675000Y-103530400D02*
X120434500Y-103530400D01*
X120500000Y-78000000D02*
X120500000Y-87004556D01*
X120500000Y-87004556D02*
X116795744Y-90708812D01*
X121700000Y-60100000D02*
X121700000Y-76800000D01*
X121700000Y-76800000D02*
X120500000Y-78000000D01*
X116795744Y-90708812D02*
X113060816Y-90708812D01*
X113060816Y-90708812D02*
X111251998Y-88899994D01*
X121158000Y-87426800D02*
X116992400Y-91592400D01*
X121158000Y-78242000D02*
X121158000Y-87426800D01*
X122400000Y-77000000D02*
X121158000Y-78242000D01*
X122400000Y-57300000D02*
X122400000Y-77000000D01*
X111963200Y-86563200D02*
X112000000Y-86600000D01*
X112000000Y-86600000D02*
X112000000Y-86424804D01*
X112000000Y-86424804D02*
X112025000Y-86399804D01*
X111172396Y-85547200D02*
X112025000Y-86399804D01*
X104089200Y-85547200D02*
X111172396Y-85547200D01*
X103225600Y-86410800D02*
X104089200Y-85547200D01*
X124002800Y-56794402D02*
X124002798Y-56794400D01*
X124002800Y-80518000D02*
X124002800Y-56794402D01*
X113310682Y-89025718D02*
X113030000Y-89306400D01*
X114950064Y-89025718D02*
X113310682Y-89025718D01*
X126405000Y-109110000D02*
X126405000Y-106582398D01*
X126405000Y-106582398D02*
X115520991Y-95698389D01*
X115519200Y-94996000D02*
X115520991Y-94997791D01*
X115520991Y-95698389D02*
X115520991Y-94997791D01*
X115519200Y-94030800D02*
X115520991Y-94029009D01*
X103225600Y-94030800D02*
X115519200Y-94030800D01*
X115520991Y-94029009D02*
X115520991Y-91970090D01*
X115520991Y-94997791D02*
X115520991Y-94029009D01*
X116433600Y-89458800D02*
X115265200Y-88290400D01*
X123037600Y-52476400D02*
X123037600Y-77262400D01*
X121818400Y-78481600D02*
X121818400Y-86918800D01*
X123037600Y-77262400D02*
X121818400Y-78481600D01*
X124815600Y-53035200D02*
X122936000Y-51155600D01*
X124815600Y-76098400D02*
X124815600Y-53035200D01*
X128930400Y-80213200D02*
X124815600Y-76098400D01*
X128930400Y-85587398D02*
X128930400Y-80213200D01*
X128676400Y-85841398D02*
X128930400Y-85587398D01*
X128676400Y-95504000D02*
X128676400Y-85841398D01*
X126593600Y-95961200D02*
X126593600Y-84328000D01*
X126644400Y-84277200D02*
X127000000Y-83921600D01*
X126593600Y-84328000D02*
X126644400Y-84277200D01*
X127304800Y-95453200D02*
X127304800Y-84735400D01*
X127304800Y-84735400D02*
X127423684Y-84616516D01*
X127965200Y-84953564D02*
X128219394Y-84699370D01*
X127965200Y-96012000D02*
X127965200Y-84953564D01*
X116250000Y-82678200D02*
X118973600Y-79954600D01*
X116250000Y-83000000D02*
X116250000Y-82678200D01*
X122478800Y-96367600D02*
X122478800Y-83058000D01*
X122478800Y-97790000D02*
X122478800Y-96367600D01*
X129900000Y-93200000D02*
X129946400Y-93153600D01*
X129946400Y-93153600D02*
X129946400Y-92998800D01*
X122595000Y-104765898D02*
X122595000Y-111650000D01*
X118362302Y-100533200D02*
X122595000Y-104765898D01*
X117500400Y-100533200D02*
X118362302Y-100533200D01*
X114960400Y-102745400D02*
X121325000Y-109110000D01*
X114960400Y-100533200D02*
X114960400Y-102745400D01*
D23*
G36*
X134290001Y-83610792D02*
G01*
X134200000Y-83601928D01*
X133635750Y-83605000D01*
X133477000Y-83763750D01*
X133477000Y-84963000D01*
X133497000Y-84963000D01*
X133497000Y-85217000D01*
X133477000Y-85217000D01*
X133477000Y-85237000D01*
X133223000Y-85237000D01*
X133223000Y-85217000D01*
X132023750Y-85217000D01*
X131865000Y-85375750D01*
X131861928Y-85940000D01*
X131874188Y-86064482D01*
X131910498Y-86184180D01*
X131969463Y-86294494D01*
X132023222Y-86360000D01*
X131969463Y-86425506D01*
X131910498Y-86535820D01*
X131874188Y-86655518D01*
X131861928Y-86780000D01*
X131861928Y-88480000D01*
X131874188Y-88604482D01*
X131910498Y-88724180D01*
X131969463Y-88834494D01*
X132048815Y-88931185D01*
X132145506Y-89010537D01*
X132255820Y-89069502D01*
X132375518Y-89105812D01*
X132500000Y-89118072D01*
X134200000Y-89118072D01*
X134290001Y-89109208D01*
X134290000Y-132290000D01*
X132565010Y-132290000D01*
X132589502Y-132244180D01*
X132625812Y-132124482D01*
X132638072Y-132000000D01*
X132638072Y-130000000D01*
X132625812Y-129875518D01*
X132589502Y-129755820D01*
X132530537Y-129645506D01*
X132451185Y-129548815D01*
X132354494Y-129469463D01*
X132244180Y-129410498D01*
X132124482Y-129374188D01*
X132000000Y-129361928D01*
X119000000Y-129361928D01*
X118875518Y-129374188D01*
X118755820Y-129410498D01*
X118645506Y-129469463D01*
X118548815Y-129548815D01*
X118469463Y-129645506D01*
X118410498Y-129755820D01*
X118374188Y-129875518D01*
X118361928Y-130000000D01*
X118361928Y-132000000D01*
X118374188Y-132124482D01*
X118410498Y-132244180D01*
X118434990Y-132290000D01*
X116565010Y-132290000D01*
X116589502Y-132244180D01*
X116625812Y-132124482D01*
X116638072Y-132000000D01*
X116635000Y-131285750D01*
X116476250Y-131127000D01*
X112627000Y-131127000D01*
X112627000Y-131147000D01*
X112373000Y-131147000D01*
X112373000Y-131127000D01*
X106627000Y-131127000D01*
X106627000Y-131147000D01*
X106373000Y-131147000D01*
X106373000Y-131127000D01*
X102523750Y-131127000D01*
X102365000Y-131285750D01*
X102361928Y-132000000D01*
X102374188Y-132124482D01*
X102410498Y-132244180D01*
X102434990Y-132290000D01*
X100710000Y-132290000D01*
X100710000Y-130000000D01*
X102361928Y-130000000D01*
X102365000Y-130714250D01*
X102523750Y-130873000D01*
X106373000Y-130873000D01*
X106373000Y-129523750D01*
X106627000Y-129523750D01*
X106627000Y-130873000D01*
X112373000Y-130873000D01*
X112373000Y-129523750D01*
X112627000Y-129523750D01*
X112627000Y-130873000D01*
X116476250Y-130873000D01*
X116635000Y-130714250D01*
X116638072Y-130000000D01*
X116625812Y-129875518D01*
X116589502Y-129755820D01*
X116530537Y-129645506D01*
X116451185Y-129548815D01*
X116354494Y-129469463D01*
X116244180Y-129410498D01*
X116124482Y-129374188D01*
X116000000Y-129361928D01*
X112785750Y-129365000D01*
X112627000Y-129523750D01*
X112373000Y-129523750D01*
X112214250Y-129365000D01*
X110009799Y-129362893D01*
X110000000Y-129361928D01*
X109500000Y-129362406D01*
X109000000Y-129361928D01*
X108990201Y-129362893D01*
X106785750Y-129365000D01*
X106627000Y-129523750D01*
X106373000Y-129523750D01*
X106214250Y-129365000D01*
X103000000Y-129361928D01*
X102875518Y-129374188D01*
X102755820Y-129410498D01*
X102645506Y-129469463D01*
X102548815Y-129548815D01*
X102469463Y-129645506D01*
X102410498Y-129755820D01*
X102374188Y-129875518D01*
X102361928Y-130000000D01*
X100710000Y-130000000D01*
X100710000Y-108968665D01*
X105990000Y-108968665D01*
X105990000Y-109251335D01*
X106045147Y-109528574D01*
X106153320Y-109789727D01*
X106310363Y-110024759D01*
X106510241Y-110224637D01*
X106745273Y-110381680D01*
X107006426Y-110489853D01*
X107283665Y-110545000D01*
X107566335Y-110545000D01*
X107843574Y-110489853D01*
X107856144Y-110484646D01*
X107780241Y-110535363D01*
X107580363Y-110735241D01*
X107423320Y-110970273D01*
X107315147Y-111231426D01*
X107260000Y-111508665D01*
X107260000Y-111791335D01*
X107315147Y-112068574D01*
X107423320Y-112329727D01*
X107580363Y-112564759D01*
X107780241Y-112764637D01*
X108015273Y-112921680D01*
X108276426Y-113029853D01*
X108553665Y-113085000D01*
X108836335Y-113085000D01*
X109113574Y-113029853D01*
X109374727Y-112921680D01*
X109609759Y-112764637D01*
X109731694Y-112642702D01*
X110421903Y-112642702D01*
X110493486Y-112886671D01*
X110748996Y-113007571D01*
X111023184Y-113076300D01*
X111305512Y-113090217D01*
X111585130Y-113048787D01*
X111851292Y-112953603D01*
X111976514Y-112886671D01*
X112048097Y-112642702D01*
X111235000Y-111829605D01*
X110421903Y-112642702D01*
X109731694Y-112642702D01*
X109809637Y-112564759D01*
X109965915Y-112330872D01*
X109998329Y-112391514D01*
X110242298Y-112463097D01*
X111055395Y-111650000D01*
X110242298Y-110836903D01*
X109998329Y-110908486D01*
X109967806Y-110972992D01*
X109966680Y-110970273D01*
X109809637Y-110735241D01*
X109609759Y-110535363D01*
X109533856Y-110484646D01*
X109546426Y-110489853D01*
X109823665Y-110545000D01*
X110106335Y-110545000D01*
X110383574Y-110489853D01*
X110483133Y-110448614D01*
X110421903Y-110657298D01*
X111235000Y-111470395D01*
X112048097Y-110657298D01*
X111988146Y-110452974D01*
X112018996Y-110467571D01*
X112293184Y-110536300D01*
X112575512Y-110550217D01*
X112855130Y-110508787D01*
X112951701Y-110474252D01*
X112860241Y-110535363D01*
X112660363Y-110735241D01*
X112504085Y-110969128D01*
X112471671Y-110908486D01*
X112227702Y-110836903D01*
X111414605Y-111650000D01*
X112227702Y-112463097D01*
X112471671Y-112391514D01*
X112502194Y-112327008D01*
X112503320Y-112329727D01*
X112660363Y-112564759D01*
X112860241Y-112764637D01*
X113095273Y-112921680D01*
X113356426Y-113029853D01*
X113633665Y-113085000D01*
X113916335Y-113085000D01*
X114193574Y-113029853D01*
X114454727Y-112921680D01*
X114689759Y-112764637D01*
X114889637Y-112564759D01*
X115046680Y-112329727D01*
X115154853Y-112068574D01*
X115210000Y-111791335D01*
X115210000Y-111508665D01*
X115154853Y-111231426D01*
X115046680Y-110970273D01*
X114889637Y-110735241D01*
X114689759Y-110535363D01*
X114454727Y-110378320D01*
X114193574Y-110270147D01*
X113916335Y-110215000D01*
X113633665Y-110215000D01*
X113356426Y-110270147D01*
X113256867Y-110311386D01*
X113318097Y-110102702D01*
X112505000Y-109289605D01*
X111691903Y-110102702D01*
X111751854Y-110307026D01*
X111721004Y-110292429D01*
X111446816Y-110223700D01*
X111164488Y-110209783D01*
X110884870Y-110251213D01*
X110788299Y-110285748D01*
X110879759Y-110224637D01*
X111079637Y-110024759D01*
X111235915Y-109790872D01*
X111268329Y-109851514D01*
X111512298Y-109923097D01*
X112325395Y-109110000D01*
X112684605Y-109110000D01*
X113497702Y-109923097D01*
X113741671Y-109851514D01*
X113862571Y-109596004D01*
X113931300Y-109321816D01*
X113945217Y-109039488D01*
X113903787Y-108759870D01*
X113808603Y-108493708D01*
X113741671Y-108368486D01*
X113497702Y-108296903D01*
X112684605Y-109110000D01*
X112325395Y-109110000D01*
X111512298Y-108296903D01*
X111268329Y-108368486D01*
X111237806Y-108432992D01*
X111236680Y-108430273D01*
X111079637Y-108195241D01*
X111001694Y-108117298D01*
X111691903Y-108117298D01*
X112505000Y-108930395D01*
X113318097Y-108117298D01*
X113246514Y-107873329D01*
X112991004Y-107752429D01*
X112716816Y-107683700D01*
X112434488Y-107669783D01*
X112154870Y-107711213D01*
X111888708Y-107806397D01*
X111763486Y-107873329D01*
X111691903Y-108117298D01*
X111001694Y-108117298D01*
X110879759Y-107995363D01*
X110644727Y-107838320D01*
X110383574Y-107730147D01*
X110106335Y-107675000D01*
X109823665Y-107675000D01*
X109546426Y-107730147D01*
X109285273Y-107838320D01*
X109050241Y-107995363D01*
X108850363Y-108195241D01*
X108695000Y-108427759D01*
X108539637Y-108195241D01*
X108339759Y-107995363D01*
X108104727Y-107838320D01*
X107843574Y-107730147D01*
X107566335Y-107675000D01*
X107283665Y-107675000D01*
X107006426Y-107730147D01*
X106745273Y-107838320D01*
X106510241Y-107995363D01*
X106310363Y-108195241D01*
X106153320Y-108430273D01*
X106045147Y-108691426D01*
X105990000Y-108968665D01*
X100710000Y-108968665D01*
X100710000Y-85560800D01*
X101737528Y-85560800D01*
X101737528Y-87260800D01*
X101749788Y-87385282D01*
X101786098Y-87504980D01*
X101845063Y-87615294D01*
X101898822Y-87680800D01*
X101845063Y-87746306D01*
X101786098Y-87856620D01*
X101749788Y-87976318D01*
X101737528Y-88100800D01*
X101737528Y-89800800D01*
X101749788Y-89925282D01*
X101786098Y-90044980D01*
X101845063Y-90155294D01*
X101898822Y-90220800D01*
X101845063Y-90286306D01*
X101786098Y-90396620D01*
X101749788Y-90516318D01*
X101737528Y-90640800D01*
X101737528Y-92340800D01*
X101749788Y-92465282D01*
X101786098Y-92584980D01*
X101845063Y-92695294D01*
X101898822Y-92760800D01*
X101845063Y-92826306D01*
X101786098Y-92936620D01*
X101749788Y-93056318D01*
X101737528Y-93180800D01*
X101737528Y-94880800D01*
X101749788Y-95005282D01*
X101786098Y-95124980D01*
X101845063Y-95235294D01*
X101924415Y-95331985D01*
X102021106Y-95411337D01*
X102131420Y-95470302D01*
X102251118Y-95506612D01*
X102375600Y-95518872D01*
X104075600Y-95518872D01*
X104200082Y-95506612D01*
X104319780Y-95470302D01*
X104430094Y-95411337D01*
X104526785Y-95331985D01*
X104606137Y-95235294D01*
X104665102Y-95124980D01*
X104701412Y-95005282D01*
X104713672Y-94880800D01*
X104713672Y-94790800D01*
X114760991Y-94790800D01*
X114760991Y-94940493D01*
X114755524Y-94996000D01*
X114760991Y-95051506D01*
X114760991Y-95661067D01*
X114757315Y-95698389D01*
X114760991Y-95735711D01*
X114760991Y-95735721D01*
X114771988Y-95847374D01*
X114796529Y-95928275D01*
X114815445Y-95990635D01*
X114886017Y-96122665D01*
X114899402Y-96138974D01*
X114980990Y-96238390D01*
X115009994Y-96262193D01*
X117833083Y-99085282D01*
X117646660Y-99048200D01*
X117354140Y-99048200D01*
X117067242Y-99105268D01*
X116796989Y-99217210D01*
X116553768Y-99379725D01*
X116421913Y-99511580D01*
X116399902Y-99439020D01*
X116340937Y-99328706D01*
X116261585Y-99232015D01*
X116164894Y-99152663D01*
X116054580Y-99093698D01*
X115934882Y-99057388D01*
X115810400Y-99045128D01*
X114110400Y-99045128D01*
X113985918Y-99057388D01*
X113866220Y-99093698D01*
X113755906Y-99152663D01*
X113659215Y-99232015D01*
X113579863Y-99328706D01*
X113520898Y-99439020D01*
X113484588Y-99558718D01*
X113472328Y-99683200D01*
X113472328Y-101383200D01*
X113484588Y-101507682D01*
X113520898Y-101627380D01*
X113579863Y-101737694D01*
X113659215Y-101834385D01*
X113755906Y-101913737D01*
X113866220Y-101972702D01*
X113985918Y-102009012D01*
X114110400Y-102021272D01*
X114200401Y-102021272D01*
X114200401Y-102708068D01*
X114196724Y-102745400D01*
X114200401Y-102782733D01*
X114211398Y-102894386D01*
X114223527Y-102934372D01*
X114254854Y-103037646D01*
X114325426Y-103169676D01*
X114396601Y-103256402D01*
X114420400Y-103285401D01*
X114449398Y-103309199D01*
X119842903Y-108702705D01*
X119790000Y-108968665D01*
X119790000Y-109251335D01*
X119845147Y-109528574D01*
X119953320Y-109789727D01*
X120110363Y-110024759D01*
X120310241Y-110224637D01*
X120545273Y-110381680D01*
X120806426Y-110489853D01*
X121083665Y-110545000D01*
X121366335Y-110545000D01*
X121643574Y-110489853D01*
X121656144Y-110484646D01*
X121580241Y-110535363D01*
X121380363Y-110735241D01*
X121223320Y-110970273D01*
X121115147Y-111231426D01*
X121060000Y-111508665D01*
X121060000Y-111791335D01*
X121115147Y-112068574D01*
X121223320Y-112329727D01*
X121380363Y-112564759D01*
X121580241Y-112764637D01*
X121815273Y-112921680D01*
X122076426Y-113029853D01*
X122353665Y-113085000D01*
X122636335Y-113085000D01*
X122913574Y-113029853D01*
X123174727Y-112921680D01*
X123409759Y-112764637D01*
X123531694Y-112642702D01*
X124221903Y-112642702D01*
X124293486Y-112886671D01*
X124548996Y-113007571D01*
X124823184Y-113076300D01*
X125105512Y-113090217D01*
X125385130Y-113048787D01*
X125651292Y-112953603D01*
X125776514Y-112886671D01*
X125848097Y-112642702D01*
X125035000Y-111829605D01*
X124221903Y-112642702D01*
X123531694Y-112642702D01*
X123609637Y-112564759D01*
X123765915Y-112330872D01*
X123798329Y-112391514D01*
X124042298Y-112463097D01*
X124855395Y-111650000D01*
X124042298Y-110836903D01*
X123798329Y-110908486D01*
X123767806Y-110972992D01*
X123766680Y-110970273D01*
X123609637Y-110735241D01*
X123409759Y-110535363D01*
X123355000Y-110498774D01*
X123355000Y-110491558D01*
X123623665Y-110545000D01*
X123906335Y-110545000D01*
X124183574Y-110489853D01*
X124283133Y-110448614D01*
X124221903Y-110657298D01*
X125035000Y-111470395D01*
X125848097Y-110657298D01*
X125786867Y-110448614D01*
X125886426Y-110489853D01*
X126163665Y-110545000D01*
X126446335Y-110545000D01*
X126723574Y-110489853D01*
X126736144Y-110484646D01*
X126660241Y-110535363D01*
X126460363Y-110735241D01*
X126304085Y-110969128D01*
X126271671Y-110908486D01*
X126027702Y-110836903D01*
X125214605Y-111650000D01*
X126027702Y-112463097D01*
X126271671Y-112391514D01*
X126302194Y-112327008D01*
X126303320Y-112329727D01*
X126460363Y-112564759D01*
X126660241Y-112764637D01*
X126895273Y-112921680D01*
X127156426Y-113029853D01*
X127433665Y-113085000D01*
X127716335Y-113085000D01*
X127993574Y-113029853D01*
X128254727Y-112921680D01*
X128489759Y-112764637D01*
X128689637Y-112564759D01*
X128846680Y-112329727D01*
X128954853Y-112068574D01*
X129010000Y-111791335D01*
X129010000Y-111508665D01*
X128954853Y-111231426D01*
X128846680Y-110970273D01*
X128689637Y-110735241D01*
X128489759Y-110535363D01*
X128254727Y-110378320D01*
X127993574Y-110270147D01*
X127716335Y-110215000D01*
X127433665Y-110215000D01*
X127156426Y-110270147D01*
X127143856Y-110275354D01*
X127219759Y-110224637D01*
X127419637Y-110024759D01*
X127576680Y-109789727D01*
X127684853Y-109528574D01*
X127740000Y-109251335D01*
X127740000Y-108968665D01*
X127684853Y-108691426D01*
X127576680Y-108430273D01*
X127419637Y-108195241D01*
X127219759Y-107995363D01*
X127165000Y-107958774D01*
X127165000Y-107647884D01*
X127225664Y-107615458D01*
X127359292Y-107505792D01*
X127429500Y-107420244D01*
X127499708Y-107505792D01*
X127633336Y-107615458D01*
X127785791Y-107696947D01*
X127951215Y-107747128D01*
X128123250Y-107764072D01*
X128610750Y-107764072D01*
X128782785Y-107747128D01*
X128948209Y-107696947D01*
X129100664Y-107615458D01*
X129234292Y-107505792D01*
X129343958Y-107372164D01*
X129425447Y-107219709D01*
X129435673Y-107186000D01*
X131111310Y-107186000D01*
X131208973Y-107283663D01*
X131362112Y-107385987D01*
X131532272Y-107456469D01*
X131712912Y-107492401D01*
X131897090Y-107492401D01*
X132077730Y-107456469D01*
X132247890Y-107385987D01*
X132401029Y-107283663D01*
X132531263Y-107153429D01*
X132633587Y-107000290D01*
X132704069Y-106830130D01*
X132740001Y-106649490D01*
X132740001Y-106465312D01*
X132704069Y-106284672D01*
X132633587Y-106114512D01*
X132531263Y-105961373D01*
X132401029Y-105831139D01*
X132247890Y-105728815D01*
X132077730Y-105658333D01*
X131897090Y-105622401D01*
X131712912Y-105622401D01*
X131532272Y-105658333D01*
X131513762Y-105666000D01*
X129435673Y-105666000D01*
X129425447Y-105632291D01*
X129343958Y-105479836D01*
X129234292Y-105346208D01*
X129100664Y-105236542D01*
X128948209Y-105155053D01*
X128782785Y-105104872D01*
X128610750Y-105087928D01*
X128123250Y-105087928D01*
X127951215Y-105104872D01*
X127785791Y-105155053D01*
X127633336Y-105236542D01*
X127499708Y-105346208D01*
X127429500Y-105431756D01*
X127359292Y-105346208D01*
X127225664Y-105236542D01*
X127073209Y-105155053D01*
X126907785Y-105104872D01*
X126735750Y-105087928D01*
X126248250Y-105087928D01*
X126076215Y-105104872D01*
X126019485Y-105122081D01*
X124385476Y-103488072D01*
X125850000Y-103488072D01*
X125974482Y-103475812D01*
X126094180Y-103439502D01*
X126204494Y-103380537D01*
X126301185Y-103301185D01*
X126380537Y-103204494D01*
X126439502Y-103094180D01*
X126461513Y-103021620D01*
X126593368Y-103153475D01*
X126836589Y-103315990D01*
X127106842Y-103427932D01*
X127393740Y-103485000D01*
X127686260Y-103485000D01*
X127973158Y-103427932D01*
X128243411Y-103315990D01*
X128486632Y-103153475D01*
X128693475Y-102946632D01*
X128855990Y-102703411D01*
X128967932Y-102433158D01*
X129025000Y-102146260D01*
X129025000Y-101853740D01*
X128967932Y-101566842D01*
X128855990Y-101296589D01*
X128693475Y-101053368D01*
X128486632Y-100846525D01*
X128243411Y-100684010D01*
X127973158Y-100572068D01*
X127686260Y-100515000D01*
X127393740Y-100515000D01*
X127106842Y-100572068D01*
X126836589Y-100684010D01*
X126593368Y-100846525D01*
X126461513Y-100978380D01*
X126439502Y-100905820D01*
X126380537Y-100795506D01*
X126301185Y-100698815D01*
X126204494Y-100619463D01*
X126094180Y-100560498D01*
X125974482Y-100524188D01*
X125850000Y-100511928D01*
X124150000Y-100511928D01*
X124025518Y-100524188D01*
X123905820Y-100560498D01*
X123795506Y-100619463D01*
X123698815Y-100698815D01*
X123619463Y-100795506D01*
X123560498Y-100905820D01*
X123524188Y-101025518D01*
X123511928Y-101150000D01*
X123511928Y-102614524D01*
X117863404Y-96966000D01*
X120415728Y-96966000D01*
X120427988Y-97090482D01*
X120464298Y-97210180D01*
X120523263Y-97320494D01*
X120602615Y-97417185D01*
X120699306Y-97496537D01*
X120809620Y-97555502D01*
X120929318Y-97591812D01*
X121053800Y-97604072D01*
X121255550Y-97601000D01*
X121414300Y-97442250D01*
X121414300Y-96393000D01*
X120577550Y-96393000D01*
X120418800Y-96551750D01*
X120415728Y-96966000D01*
X117863404Y-96966000D01*
X116463404Y-95566000D01*
X120415728Y-95566000D01*
X120418800Y-95980250D01*
X120577550Y-96139000D01*
X121414300Y-96139000D01*
X121414300Y-95089750D01*
X121255550Y-94931000D01*
X121053800Y-94927928D01*
X120929318Y-94940188D01*
X120809620Y-94976498D01*
X120699306Y-95035463D01*
X120602615Y-95114815D01*
X120523263Y-95211506D01*
X120464298Y-95321820D01*
X120427988Y-95441518D01*
X120415728Y-95566000D01*
X116463404Y-95566000D01*
X116280991Y-95383588D01*
X116280991Y-95035114D01*
X116284667Y-94997791D01*
X116280991Y-94960469D01*
X116280991Y-94066331D01*
X116284667Y-94029009D01*
X116280991Y-93991686D01*
X116280991Y-92515625D01*
X116349577Y-92412979D01*
X116390908Y-92313198D01*
X116396372Y-92318662D01*
X116549511Y-92420986D01*
X116719671Y-92491468D01*
X116900311Y-92527400D01*
X117084489Y-92527400D01*
X117265129Y-92491468D01*
X117435289Y-92420986D01*
X117588428Y-92318662D01*
X117718662Y-92188428D01*
X117820986Y-92035289D01*
X117891468Y-91865129D01*
X117915553Y-91744048D01*
X118831801Y-90827800D01*
X119870728Y-90827800D01*
X119873800Y-91029550D01*
X120032550Y-91188300D01*
X121081800Y-91188300D01*
X121081800Y-90351550D01*
X120923050Y-90192800D01*
X120508800Y-90189728D01*
X120384318Y-90201988D01*
X120264620Y-90238298D01*
X120154306Y-90297263D01*
X120057615Y-90376615D01*
X119978263Y-90473306D01*
X119919298Y-90583620D01*
X119882988Y-90703318D01*
X119870728Y-90827800D01*
X118831801Y-90827800D01*
X121669003Y-87990599D01*
X121698001Y-87966801D01*
X121718801Y-87941457D01*
X121718800Y-90191137D01*
X121494550Y-90192800D01*
X121335800Y-90351550D01*
X121335800Y-91188300D01*
X121355800Y-91188300D01*
X121355800Y-91442300D01*
X121335800Y-91442300D01*
X121335800Y-91462300D01*
X121081800Y-91462300D01*
X121081800Y-91442300D01*
X120032550Y-91442300D01*
X119873800Y-91601050D01*
X119870728Y-91802800D01*
X119882988Y-91927282D01*
X119919298Y-92046980D01*
X119978263Y-92157294D01*
X120057615Y-92253985D01*
X120135364Y-92317792D01*
X120129008Y-92323008D01*
X120019342Y-92456636D01*
X119937853Y-92609091D01*
X119887672Y-92774515D01*
X119870728Y-92946550D01*
X119870728Y-93434050D01*
X119887672Y-93606085D01*
X119937853Y-93771509D01*
X120019342Y-93923964D01*
X120129008Y-94057592D01*
X120262636Y-94167258D01*
X120415091Y-94248747D01*
X120580515Y-94298928D01*
X120752550Y-94315872D01*
X121665050Y-94315872D01*
X121718800Y-94310578D01*
X121718800Y-95039250D01*
X121668300Y-95089750D01*
X121668300Y-96139000D01*
X121688300Y-96139000D01*
X121688300Y-96393000D01*
X121668300Y-96393000D01*
X121668300Y-97320043D01*
X121650214Y-97347111D01*
X121579732Y-97517271D01*
X121543800Y-97697911D01*
X121543800Y-97882089D01*
X121579732Y-98062729D01*
X121650214Y-98232889D01*
X121752538Y-98386028D01*
X121882772Y-98516262D01*
X122035911Y-98618586D01*
X122206071Y-98689068D01*
X122386711Y-98725000D01*
X122570889Y-98725000D01*
X122751529Y-98689068D01*
X122921689Y-98618586D01*
X123074828Y-98516262D01*
X123205062Y-98386028D01*
X123307386Y-98232889D01*
X123377868Y-98062729D01*
X123413800Y-97882089D01*
X123413800Y-97697911D01*
X123395134Y-97604072D01*
X123660050Y-97604072D01*
X123832085Y-97587128D01*
X123997509Y-97536947D01*
X124149964Y-97455458D01*
X124172455Y-97437000D01*
X128659128Y-97437000D01*
X128671388Y-97561482D01*
X128707698Y-97681180D01*
X128766663Y-97791494D01*
X128846015Y-97888185D01*
X128942706Y-97967537D01*
X129053020Y-98026502D01*
X129172718Y-98062812D01*
X129297200Y-98075072D01*
X129711450Y-98072000D01*
X129870200Y-97913250D01*
X129870200Y-97076500D01*
X130124200Y-97076500D01*
X130124200Y-97913250D01*
X130282950Y-98072000D01*
X130697200Y-98075072D01*
X130821682Y-98062812D01*
X130941380Y-98026502D01*
X131051694Y-97967537D01*
X131148385Y-97888185D01*
X131227737Y-97791494D01*
X131286702Y-97681180D01*
X131323012Y-97561482D01*
X131335272Y-97437000D01*
X131332200Y-97235250D01*
X131173450Y-97076500D01*
X130124200Y-97076500D01*
X129870200Y-97076500D01*
X128820950Y-97076500D01*
X128662200Y-97235250D01*
X128659128Y-97437000D01*
X124172455Y-97437000D01*
X124283592Y-97345792D01*
X124393258Y-97212164D01*
X124474747Y-97059709D01*
X124524928Y-96894285D01*
X124541872Y-96722250D01*
X124541872Y-95809750D01*
X124524928Y-95637715D01*
X124474747Y-95472291D01*
X124393258Y-95319836D01*
X124283592Y-95186208D01*
X124149964Y-95076542D01*
X123997509Y-94995053D01*
X123832085Y-94944872D01*
X123660050Y-94927928D01*
X123238800Y-94927928D01*
X123238800Y-83603535D01*
X123307386Y-83500889D01*
X123377868Y-83330729D01*
X123413800Y-83150089D01*
X123413800Y-82965911D01*
X123377868Y-82785271D01*
X123307386Y-82615111D01*
X123205062Y-82461972D01*
X123074828Y-82331738D01*
X122921689Y-82229414D01*
X122751529Y-82158932D01*
X122578400Y-82124494D01*
X122578400Y-78796401D01*
X123242800Y-78132002D01*
X123242800Y-79972465D01*
X123174214Y-80075111D01*
X123103732Y-80245271D01*
X123067800Y-80425911D01*
X123067800Y-80610089D01*
X123103732Y-80790729D01*
X123174214Y-80960889D01*
X123276538Y-81114028D01*
X123406772Y-81244262D01*
X123559911Y-81346586D01*
X123730071Y-81417068D01*
X123910711Y-81453000D01*
X124094889Y-81453000D01*
X124275529Y-81417068D01*
X124445689Y-81346586D01*
X124598828Y-81244262D01*
X124729062Y-81114028D01*
X124831386Y-80960889D01*
X124901868Y-80790729D01*
X124937800Y-80610089D01*
X124937800Y-80425911D01*
X124901868Y-80245271D01*
X124831386Y-80075111D01*
X124762800Y-79972465D01*
X124762800Y-77120401D01*
X126672326Y-79029928D01*
X125642000Y-79029928D01*
X125517518Y-79042188D01*
X125397820Y-79078498D01*
X125287506Y-79137463D01*
X125190815Y-79216815D01*
X125111463Y-79313506D01*
X125052498Y-79423820D01*
X125016188Y-79543518D01*
X125003928Y-79668000D01*
X125003928Y-81368000D01*
X125016188Y-81492482D01*
X125052498Y-81612180D01*
X125111463Y-81722494D01*
X125190815Y-81819185D01*
X125287506Y-81898537D01*
X125397820Y-81957502D01*
X125517518Y-81993812D01*
X125642000Y-82006072D01*
X127342000Y-82006072D01*
X127466482Y-81993812D01*
X127586180Y-81957502D01*
X127696494Y-81898537D01*
X127793185Y-81819185D01*
X127872537Y-81722494D01*
X127931502Y-81612180D01*
X127967812Y-81492482D01*
X127980072Y-81368000D01*
X127980072Y-80337674D01*
X128170401Y-80528003D01*
X128170400Y-83764370D01*
X128127305Y-83764370D01*
X127946665Y-83800302D01*
X127930520Y-83806989D01*
X127899068Y-83648871D01*
X127828586Y-83478711D01*
X127726262Y-83325572D01*
X127596028Y-83195338D01*
X127442889Y-83093014D01*
X127272729Y-83022532D01*
X127092089Y-82986600D01*
X126907911Y-82986600D01*
X126727271Y-83022532D01*
X126557111Y-83093014D01*
X126403972Y-83195338D01*
X126273738Y-83325572D01*
X126171414Y-83478711D01*
X126100932Y-83648871D01*
X126077092Y-83768719D01*
X126053600Y-83787999D01*
X126029802Y-83816997D01*
X126029801Y-83816998D01*
X125958626Y-83903724D01*
X125888054Y-84035754D01*
X125844598Y-84179015D01*
X125829924Y-84328000D01*
X125833601Y-84365332D01*
X125833600Y-95415665D01*
X125765014Y-95518311D01*
X125694532Y-95688471D01*
X125658600Y-95869111D01*
X125658600Y-96053289D01*
X125694532Y-96233929D01*
X125765014Y-96404089D01*
X125867338Y-96557228D01*
X125997572Y-96687462D01*
X126150711Y-96789786D01*
X126320871Y-96860268D01*
X126501511Y-96896200D01*
X126685689Y-96896200D01*
X126866329Y-96860268D01*
X127036489Y-96789786D01*
X127189628Y-96687462D01*
X127254000Y-96623090D01*
X127369172Y-96738262D01*
X127522311Y-96840586D01*
X127692471Y-96911068D01*
X127873111Y-96947000D01*
X128057289Y-96947000D01*
X128237929Y-96911068D01*
X128408089Y-96840586D01*
X128561228Y-96738262D01*
X128661803Y-96637687D01*
X128662200Y-96663750D01*
X128820950Y-96822500D01*
X129870200Y-96822500D01*
X129870200Y-96802500D01*
X130124200Y-96802500D01*
X130124200Y-96822500D01*
X131173450Y-96822500D01*
X131332200Y-96663750D01*
X131335272Y-96462000D01*
X131323012Y-96337518D01*
X131286702Y-96217820D01*
X131227737Y-96107506D01*
X131148385Y-96010815D01*
X131070636Y-95947008D01*
X131076992Y-95941792D01*
X131186658Y-95808164D01*
X131268147Y-95655709D01*
X131318328Y-95490285D01*
X131335272Y-95318250D01*
X131335272Y-94830750D01*
X131318328Y-94658715D01*
X131268147Y-94493291D01*
X131186658Y-94340836D01*
X131076992Y-94207208D01*
X130943364Y-94097542D01*
X130790909Y-94016053D01*
X130730391Y-93997695D01*
X130740109Y-93994747D01*
X130892564Y-93913258D01*
X131026192Y-93803592D01*
X131135858Y-93669964D01*
X131217347Y-93517509D01*
X131267528Y-93352085D01*
X131284472Y-93180050D01*
X131284472Y-92692550D01*
X131267528Y-92520515D01*
X131217347Y-92355091D01*
X131135858Y-92202636D01*
X131026192Y-92069008D01*
X131019836Y-92063792D01*
X131097585Y-91999985D01*
X131176937Y-91903294D01*
X131235902Y-91792980D01*
X131272212Y-91673282D01*
X131284472Y-91548800D01*
X131281400Y-91347050D01*
X131122650Y-91188300D01*
X130073400Y-91188300D01*
X130073400Y-91208300D01*
X129819400Y-91208300D01*
X129819400Y-91188300D01*
X129799400Y-91188300D01*
X129799400Y-90934300D01*
X129819400Y-90934300D01*
X129819400Y-90097550D01*
X130073400Y-90097550D01*
X130073400Y-90934300D01*
X131122650Y-90934300D01*
X131281400Y-90775550D01*
X131284472Y-90573800D01*
X131272212Y-90449318D01*
X131235902Y-90329620D01*
X131176937Y-90219306D01*
X131097585Y-90122615D01*
X131000894Y-90043263D01*
X130890580Y-89984298D01*
X130770882Y-89947988D01*
X130646400Y-89935728D01*
X130232150Y-89938800D01*
X130073400Y-90097550D01*
X129819400Y-90097550D01*
X129660650Y-89938800D01*
X129436400Y-89937137D01*
X129436400Y-86156199D01*
X129441398Y-86151201D01*
X129470401Y-86127399D01*
X129565374Y-86011674D01*
X129635946Y-85879645D01*
X129679403Y-85736384D01*
X129690400Y-85624731D01*
X129690400Y-85624722D01*
X129694076Y-85587399D01*
X129690400Y-85550076D01*
X129690400Y-84240000D01*
X131861928Y-84240000D01*
X131865000Y-84804250D01*
X132023750Y-84963000D01*
X133223000Y-84963000D01*
X133223000Y-83763750D01*
X133064250Y-83605000D01*
X132500000Y-83601928D01*
X132375518Y-83614188D01*
X132255820Y-83650498D01*
X132145506Y-83709463D01*
X132048815Y-83788815D01*
X131969463Y-83885506D01*
X131910498Y-83995820D01*
X131874188Y-84115518D01*
X131861928Y-84240000D01*
X129690400Y-84240000D01*
X129690400Y-80250523D01*
X129694076Y-80213200D01*
X129690400Y-80175877D01*
X129690400Y-80175867D01*
X129679403Y-80064214D01*
X129635946Y-79920953D01*
X129574296Y-79805615D01*
X129565374Y-79788923D01*
X129494199Y-79702197D01*
X129470401Y-79673199D01*
X129441403Y-79649401D01*
X125575600Y-75783599D01*
X125575600Y-68276402D01*
X125859509Y-68276402D01*
X125881423Y-68498900D01*
X125946324Y-68712848D01*
X126051717Y-68910024D01*
X126158012Y-69039545D01*
X131036855Y-73918390D01*
X131166376Y-74024685D01*
X131363552Y-74130077D01*
X131577500Y-74194978D01*
X131799999Y-74216892D01*
X132022498Y-74194978D01*
X132236446Y-74130077D01*
X132433622Y-74024685D01*
X132606448Y-73882850D01*
X132748283Y-73710024D01*
X132853675Y-73512848D01*
X132918576Y-73298900D01*
X132940490Y-73076401D01*
X132918576Y-72853902D01*
X132853675Y-72639954D01*
X132748283Y-72442778D01*
X132641988Y-72313257D01*
X127763143Y-67434414D01*
X127633622Y-67328119D01*
X127436446Y-67222726D01*
X127222498Y-67157825D01*
X127000000Y-67135911D01*
X126777502Y-67157825D01*
X126563554Y-67222726D01*
X126366378Y-67328119D01*
X126193552Y-67469954D01*
X126051717Y-67642780D01*
X125946324Y-67839956D01*
X125881423Y-68053904D01*
X125859509Y-68276402D01*
X125575600Y-68276402D01*
X125575600Y-53072523D01*
X125579276Y-53035200D01*
X125575600Y-52997877D01*
X125575600Y-52997867D01*
X125564603Y-52886214D01*
X125521146Y-52742953D01*
X125450574Y-52610924D01*
X125355601Y-52495199D01*
X125326603Y-52471401D01*
X123859153Y-51003952D01*
X123835068Y-50882871D01*
X123764586Y-50712711D01*
X123662262Y-50559572D01*
X123532028Y-50429338D01*
X123378889Y-50327014D01*
X123208729Y-50256532D01*
X123028089Y-50220600D01*
X122843911Y-50220600D01*
X122663271Y-50256532D01*
X122493111Y-50327014D01*
X122339972Y-50429338D01*
X122209738Y-50559572D01*
X122107414Y-50712711D01*
X122036932Y-50882871D01*
X122001000Y-51063511D01*
X122001000Y-51247689D01*
X122036932Y-51428329D01*
X122107414Y-51598489D01*
X122209738Y-51751628D01*
X122324910Y-51866800D01*
X122311338Y-51880372D01*
X122209014Y-52033511D01*
X122138532Y-52203671D01*
X122102600Y-52384311D01*
X122102600Y-52568489D01*
X122138532Y-52749129D01*
X122209014Y-52919289D01*
X122277600Y-53021935D01*
X122277600Y-56371029D01*
X122127271Y-56400932D01*
X121957111Y-56471414D01*
X121803972Y-56573738D01*
X121673738Y-56703972D01*
X121571414Y-56857111D01*
X121500932Y-57027271D01*
X121465000Y-57207911D01*
X121465000Y-57392089D01*
X121500932Y-57572729D01*
X121571414Y-57742889D01*
X121640000Y-57845535D01*
X121640000Y-59165000D01*
X121607911Y-59165000D01*
X121427271Y-59200932D01*
X121257111Y-59271414D01*
X121103972Y-59373738D01*
X120973738Y-59503972D01*
X120871414Y-59657111D01*
X120800932Y-59827271D01*
X120765000Y-60007911D01*
X120765000Y-60192089D01*
X120800932Y-60372729D01*
X120871414Y-60542889D01*
X120940000Y-60645535D01*
X120940001Y-76485197D01*
X120196680Y-77228519D01*
X120124785Y-77140915D01*
X120028094Y-77061563D01*
X119917780Y-77002598D01*
X119798082Y-76966288D01*
X119673600Y-76954028D01*
X119259350Y-76957100D01*
X119100600Y-77115850D01*
X119100600Y-77952600D01*
X119120600Y-77952600D01*
X119120600Y-78206600D01*
X119100600Y-78206600D01*
X119100600Y-78226600D01*
X118846600Y-78226600D01*
X118846600Y-78206600D01*
X117797350Y-78206600D01*
X117638600Y-78365350D01*
X117635528Y-78567100D01*
X117647788Y-78691582D01*
X117684098Y-78811280D01*
X117743063Y-78921594D01*
X117822415Y-79018285D01*
X117900164Y-79082092D01*
X117893808Y-79087308D01*
X117784142Y-79220936D01*
X117702653Y-79373391D01*
X117652472Y-79538815D01*
X117635528Y-79710850D01*
X117635528Y-80198350D01*
X117637278Y-80216120D01*
X116391471Y-81461928D01*
X115350000Y-81461928D01*
X115225518Y-81474188D01*
X115105820Y-81510498D01*
X114995506Y-81569463D01*
X114898815Y-81648815D01*
X114819463Y-81745506D01*
X114760498Y-81855820D01*
X114724188Y-81975518D01*
X114711928Y-82100000D01*
X114711928Y-83900000D01*
X114724188Y-84024482D01*
X114760498Y-84144180D01*
X114819463Y-84254494D01*
X114898815Y-84351185D01*
X114995506Y-84430537D01*
X115105820Y-84489502D01*
X115225518Y-84525812D01*
X115350000Y-84538072D01*
X117150000Y-84538072D01*
X117274482Y-84525812D01*
X117394180Y-84489502D01*
X117504494Y-84430537D01*
X117601185Y-84351185D01*
X117680537Y-84254494D01*
X117739502Y-84144180D01*
X117745056Y-84125873D01*
X117811495Y-84192312D01*
X118062905Y-84360299D01*
X118342257Y-84476011D01*
X118638816Y-84535000D01*
X118941184Y-84535000D01*
X119237743Y-84476011D01*
X119517095Y-84360299D01*
X119740001Y-84211358D01*
X119740001Y-86689753D01*
X117306605Y-89123149D01*
X117262186Y-89015911D01*
X117159862Y-88862772D01*
X117029628Y-88732538D01*
X116876489Y-88630214D01*
X116706329Y-88559732D01*
X116585249Y-88535647D01*
X116188353Y-88138751D01*
X116164268Y-88017671D01*
X116093786Y-87847511D01*
X115991462Y-87694372D01*
X115861228Y-87564138D01*
X115708089Y-87461814D01*
X115537929Y-87391332D01*
X115357289Y-87355400D01*
X115173111Y-87355400D01*
X114992471Y-87391332D01*
X114822311Y-87461814D01*
X114669172Y-87564138D01*
X114538938Y-87694372D01*
X114436614Y-87847511D01*
X114366132Y-88017671D01*
X114330200Y-88198311D01*
X114330200Y-88265718D01*
X113348004Y-88265718D01*
X113310681Y-88262042D01*
X113273358Y-88265718D01*
X113273349Y-88265718D01*
X113161696Y-88276715D01*
X113018435Y-88320172D01*
X112913518Y-88376252D01*
X112757271Y-88407332D01*
X112587111Y-88477814D01*
X112433972Y-88580138D01*
X112303738Y-88710372D01*
X112237023Y-88810218D01*
X112175151Y-88748346D01*
X112151066Y-88627265D01*
X112080584Y-88457105D01*
X111978260Y-88303966D01*
X111848026Y-88173732D01*
X111694887Y-88071408D01*
X111524727Y-88000926D01*
X111344087Y-87964994D01*
X111159909Y-87964994D01*
X110979269Y-88000926D01*
X110809109Y-88071408D01*
X110655970Y-88173732D01*
X110525736Y-88303966D01*
X110423412Y-88457105D01*
X110352930Y-88627265D01*
X110316998Y-88807905D01*
X110316998Y-88992083D01*
X110352930Y-89172723D01*
X110423412Y-89342883D01*
X110525736Y-89496022D01*
X110655970Y-89626256D01*
X110809109Y-89728580D01*
X110979269Y-89799062D01*
X111100350Y-89823147D01*
X112497017Y-91219815D01*
X112520815Y-91248813D01*
X112549813Y-91272611D01*
X112636539Y-91343786D01*
X112768569Y-91414358D01*
X112911830Y-91457815D01*
X113023483Y-91468812D01*
X113023493Y-91468812D01*
X113060816Y-91472488D01*
X113098139Y-91468812D01*
X114731419Y-91468812D01*
X114692405Y-91527201D01*
X114621923Y-91697361D01*
X114585991Y-91878001D01*
X114585991Y-92062179D01*
X114621923Y-92242819D01*
X114692405Y-92412979D01*
X114760992Y-92515626D01*
X114760991Y-93270800D01*
X104713672Y-93270800D01*
X104713672Y-93180800D01*
X104701412Y-93056318D01*
X104665102Y-92936620D01*
X104606137Y-92826306D01*
X104552378Y-92760800D01*
X104606137Y-92695294D01*
X104665102Y-92584980D01*
X104701412Y-92465282D01*
X104713672Y-92340800D01*
X104713672Y-90640800D01*
X104701412Y-90516318D01*
X104665102Y-90396620D01*
X104606137Y-90286306D01*
X104552378Y-90220800D01*
X104606137Y-90155294D01*
X104665102Y-90044980D01*
X104701412Y-89925282D01*
X104713672Y-89800800D01*
X104713672Y-88100800D01*
X104701412Y-87976318D01*
X104665102Y-87856620D01*
X104606137Y-87746306D01*
X104552378Y-87680800D01*
X104606137Y-87615294D01*
X104665102Y-87504980D01*
X104701412Y-87385282D01*
X104713672Y-87260800D01*
X104713672Y-86307200D01*
X110857595Y-86307200D01*
X111101847Y-86551453D01*
X111125932Y-86672533D01*
X111196414Y-86842693D01*
X111298738Y-86995832D01*
X111428972Y-87126066D01*
X111504566Y-87176576D01*
X111575724Y-87234974D01*
X111707753Y-87305546D01*
X111851014Y-87349003D01*
X112000000Y-87363677D01*
X112148985Y-87349003D01*
X112292246Y-87305546D01*
X112308603Y-87296803D01*
X112328844Y-87285984D01*
X112467889Y-87228390D01*
X112621028Y-87126066D01*
X112751262Y-86995832D01*
X112853586Y-86842693D01*
X112924068Y-86672533D01*
X112960000Y-86491893D01*
X112960000Y-86307715D01*
X112924068Y-86127075D01*
X112853586Y-85956915D01*
X112751262Y-85803776D01*
X112621028Y-85673542D01*
X112467889Y-85571218D01*
X112297729Y-85500736D01*
X112176649Y-85476651D01*
X111736199Y-85036202D01*
X111712397Y-85007199D01*
X111596672Y-84912226D01*
X111464643Y-84841654D01*
X111321382Y-84798197D01*
X111209729Y-84787200D01*
X111209718Y-84787200D01*
X111172396Y-84783524D01*
X111135074Y-84787200D01*
X104126523Y-84787200D01*
X104089200Y-84783524D01*
X104051877Y-84787200D01*
X104051867Y-84787200D01*
X103940214Y-84798197D01*
X103796953Y-84841654D01*
X103664924Y-84912226D01*
X103652127Y-84922728D01*
X102375600Y-84922728D01*
X102251118Y-84934988D01*
X102131420Y-84971298D01*
X102021106Y-85030263D01*
X101924415Y-85109615D01*
X101845063Y-85206306D01*
X101786098Y-85316620D01*
X101749788Y-85436318D01*
X101737528Y-85560800D01*
X100710000Y-85560800D01*
X100710000Y-77592100D01*
X117635528Y-77592100D01*
X117638600Y-77793850D01*
X117797350Y-77952600D01*
X118846600Y-77952600D01*
X118846600Y-77115850D01*
X118687850Y-76957100D01*
X118273600Y-76954028D01*
X118149118Y-76966288D01*
X118029420Y-77002598D01*
X117919106Y-77061563D01*
X117822415Y-77140915D01*
X117743063Y-77237606D01*
X117684098Y-77347920D01*
X117647788Y-77467618D01*
X117635528Y-77592100D01*
X100710000Y-77592100D01*
X100710000Y-76127000D01*
X113000000Y-76127000D01*
X113024776Y-76124560D01*
X113048601Y-76117333D01*
X113070557Y-76105597D01*
X113089803Y-76089803D01*
X113105597Y-76070557D01*
X113117333Y-76048601D01*
X113124560Y-76024776D01*
X113127000Y-76000000D01*
X113127000Y-46710000D01*
X134290001Y-46710000D01*
X134290001Y-83610792D01*
G37*
X134290001Y-83610792D02*
X134200000Y-83601928D01*
X133635750Y-83605000D01*
X133477000Y-83763750D01*
X133477000Y-84963000D01*
X133497000Y-84963000D01*
X133497000Y-85217000D01*
X133477000Y-85217000D01*
X133477000Y-85237000D01*
X133223000Y-85237000D01*
X133223000Y-85217000D01*
X132023750Y-85217000D01*
X131865000Y-85375750D01*
X131861928Y-85940000D01*
X131874188Y-86064482D01*
X131910498Y-86184180D01*
X131969463Y-86294494D01*
X132023222Y-86360000D01*
X131969463Y-86425506D01*
X131910498Y-86535820D01*
X131874188Y-86655518D01*
X131861928Y-86780000D01*
X131861928Y-88480000D01*
X131874188Y-88604482D01*
X131910498Y-88724180D01*
X131969463Y-88834494D01*
X132048815Y-88931185D01*
X132145506Y-89010537D01*
X132255820Y-89069502D01*
X132375518Y-89105812D01*
X132500000Y-89118072D01*
X134200000Y-89118072D01*
X134290001Y-89109208D01*
X134290000Y-132290000D01*
X132565010Y-132290000D01*
X132589502Y-132244180D01*
X132625812Y-132124482D01*
X132638072Y-132000000D01*
X132638072Y-130000000D01*
X132625812Y-129875518D01*
X132589502Y-129755820D01*
X132530537Y-129645506D01*
X132451185Y-129548815D01*
X132354494Y-129469463D01*
X132244180Y-129410498D01*
X132124482Y-129374188D01*
X132000000Y-129361928D01*
X119000000Y-129361928D01*
X118875518Y-129374188D01*
X118755820Y-129410498D01*
X118645506Y-129469463D01*
X118548815Y-129548815D01*
X118469463Y-129645506D01*
X118410498Y-129755820D01*
X118374188Y-129875518D01*
X118361928Y-130000000D01*
X118361928Y-132000000D01*
X118374188Y-132124482D01*
X118410498Y-132244180D01*
X118434990Y-132290000D01*
X116565010Y-132290000D01*
X116589502Y-132244180D01*
X116625812Y-132124482D01*
X116638072Y-132000000D01*
X116635000Y-131285750D01*
X116476250Y-131127000D01*
X112627000Y-131127000D01*
X112627000Y-131147000D01*
X112373000Y-131147000D01*
X112373000Y-131127000D01*
X106627000Y-131127000D01*
X106627000Y-131147000D01*
X106373000Y-131147000D01*
X106373000Y-131127000D01*
X102523750Y-131127000D01*
X102365000Y-131285750D01*
X102361928Y-132000000D01*
X102374188Y-132124482D01*
X102410498Y-132244180D01*
X102434990Y-132290000D01*
X100710000Y-132290000D01*
X100710000Y-130000000D01*
X102361928Y-130000000D01*
X102365000Y-130714250D01*
X102523750Y-130873000D01*
X106373000Y-130873000D01*
X106373000Y-129523750D01*
X106627000Y-129523750D01*
X106627000Y-130873000D01*
X112373000Y-130873000D01*
X112373000Y-129523750D01*
X112627000Y-129523750D01*
X112627000Y-130873000D01*
X116476250Y-130873000D01*
X116635000Y-130714250D01*
X116638072Y-130000000D01*
X116625812Y-129875518D01*
X116589502Y-129755820D01*
X116530537Y-129645506D01*
X116451185Y-129548815D01*
X116354494Y-129469463D01*
X116244180Y-129410498D01*
X116124482Y-129374188D01*
X116000000Y-129361928D01*
X112785750Y-129365000D01*
X112627000Y-129523750D01*
X112373000Y-129523750D01*
X112214250Y-129365000D01*
X110009799Y-129362893D01*
X110000000Y-129361928D01*
X109500000Y-129362406D01*
X109000000Y-129361928D01*
X108990201Y-129362893D01*
X106785750Y-129365000D01*
X106627000Y-129523750D01*
X106373000Y-129523750D01*
X106214250Y-129365000D01*
X103000000Y-129361928D01*
X102875518Y-129374188D01*
X102755820Y-129410498D01*
X102645506Y-129469463D01*
X102548815Y-129548815D01*
X102469463Y-129645506D01*
X102410498Y-129755820D01*
X102374188Y-129875518D01*
X102361928Y-130000000D01*
X100710000Y-130000000D01*
X100710000Y-108968665D01*
X105990000Y-108968665D01*
X105990000Y-109251335D01*
X106045147Y-109528574D01*
X106153320Y-109789727D01*
X106310363Y-110024759D01*
X106510241Y-110224637D01*
X106745273Y-110381680D01*
X107006426Y-110489853D01*
X107283665Y-110545000D01*
X107566335Y-110545000D01*
X107843574Y-110489853D01*
X107856144Y-110484646D01*
X107780241Y-110535363D01*
X107580363Y-110735241D01*
X107423320Y-110970273D01*
X107315147Y-111231426D01*
X107260000Y-111508665D01*
X107260000Y-111791335D01*
X107315147Y-112068574D01*
X107423320Y-112329727D01*
X107580363Y-112564759D01*
X107780241Y-112764637D01*
X108015273Y-112921680D01*
X108276426Y-113029853D01*
X108553665Y-113085000D01*
X108836335Y-113085000D01*
X109113574Y-113029853D01*
X109374727Y-112921680D01*
X109609759Y-112764637D01*
X109731694Y-112642702D01*
X110421903Y-112642702D01*
X110493486Y-112886671D01*
X110748996Y-113007571D01*
X111023184Y-113076300D01*
X111305512Y-113090217D01*
X111585130Y-113048787D01*
X111851292Y-112953603D01*
X111976514Y-112886671D01*
X112048097Y-112642702D01*
X111235000Y-111829605D01*
X110421903Y-112642702D01*
X109731694Y-112642702D01*
X109809637Y-112564759D01*
X109965915Y-112330872D01*
X109998329Y-112391514D01*
X110242298Y-112463097D01*
X111055395Y-111650000D01*
X110242298Y-110836903D01*
X109998329Y-110908486D01*
X109967806Y-110972992D01*
X109966680Y-110970273D01*
X109809637Y-110735241D01*
X109609759Y-110535363D01*
X109533856Y-110484646D01*
X109546426Y-110489853D01*
X109823665Y-110545000D01*
X110106335Y-110545000D01*
X110383574Y-110489853D01*
X110483133Y-110448614D01*
X110421903Y-110657298D01*
X111235000Y-111470395D01*
X112048097Y-110657298D01*
X111988146Y-110452974D01*
X112018996Y-110467571D01*
X112293184Y-110536300D01*
X112575512Y-110550217D01*
X112855130Y-110508787D01*
X112951701Y-110474252D01*
X112860241Y-110535363D01*
X112660363Y-110735241D01*
X112504085Y-110969128D01*
X112471671Y-110908486D01*
X112227702Y-110836903D01*
X111414605Y-111650000D01*
X112227702Y-112463097D01*
X112471671Y-112391514D01*
X112502194Y-112327008D01*
X112503320Y-112329727D01*
X112660363Y-112564759D01*
X112860241Y-112764637D01*
X113095273Y-112921680D01*
X113356426Y-113029853D01*
X113633665Y-113085000D01*
X113916335Y-113085000D01*
X114193574Y-113029853D01*
X114454727Y-112921680D01*
X114689759Y-112764637D01*
X114889637Y-112564759D01*
X115046680Y-112329727D01*
X115154853Y-112068574D01*
X115210000Y-111791335D01*
X115210000Y-111508665D01*
X115154853Y-111231426D01*
X115046680Y-110970273D01*
X114889637Y-110735241D01*
X114689759Y-110535363D01*
X114454727Y-110378320D01*
X114193574Y-110270147D01*
X113916335Y-110215000D01*
X113633665Y-110215000D01*
X113356426Y-110270147D01*
X113256867Y-110311386D01*
X113318097Y-110102702D01*
X112505000Y-109289605D01*
X111691903Y-110102702D01*
X111751854Y-110307026D01*
X111721004Y-110292429D01*
X111446816Y-110223700D01*
X111164488Y-110209783D01*
X110884870Y-110251213D01*
X110788299Y-110285748D01*
X110879759Y-110224637D01*
X111079637Y-110024759D01*
X111235915Y-109790872D01*
X111268329Y-109851514D01*
X111512298Y-109923097D01*
X112325395Y-109110000D01*
X112684605Y-109110000D01*
X113497702Y-109923097D01*
X113741671Y-109851514D01*
X113862571Y-109596004D01*
X113931300Y-109321816D01*
X113945217Y-109039488D01*
X113903787Y-108759870D01*
X113808603Y-108493708D01*
X113741671Y-108368486D01*
X113497702Y-108296903D01*
X112684605Y-109110000D01*
X112325395Y-109110000D01*
X111512298Y-108296903D01*
X111268329Y-108368486D01*
X111237806Y-108432992D01*
X111236680Y-108430273D01*
X111079637Y-108195241D01*
X111001694Y-108117298D01*
X111691903Y-108117298D01*
X112505000Y-108930395D01*
X113318097Y-108117298D01*
X113246514Y-107873329D01*
X112991004Y-107752429D01*
X112716816Y-107683700D01*
X112434488Y-107669783D01*
X112154870Y-107711213D01*
X111888708Y-107806397D01*
X111763486Y-107873329D01*
X111691903Y-108117298D01*
X111001694Y-108117298D01*
X110879759Y-107995363D01*
X110644727Y-107838320D01*
X110383574Y-107730147D01*
X110106335Y-107675000D01*
X109823665Y-107675000D01*
X109546426Y-107730147D01*
X109285273Y-107838320D01*
X109050241Y-107995363D01*
X108850363Y-108195241D01*
X108695000Y-108427759D01*
X108539637Y-108195241D01*
X108339759Y-107995363D01*
X108104727Y-107838320D01*
X107843574Y-107730147D01*
X107566335Y-107675000D01*
X107283665Y-107675000D01*
X107006426Y-107730147D01*
X106745273Y-107838320D01*
X106510241Y-107995363D01*
X106310363Y-108195241D01*
X106153320Y-108430273D01*
X106045147Y-108691426D01*
X105990000Y-108968665D01*
X100710000Y-108968665D01*
X100710000Y-85560800D01*
X101737528Y-85560800D01*
X101737528Y-87260800D01*
X101749788Y-87385282D01*
X101786098Y-87504980D01*
X101845063Y-87615294D01*
X101898822Y-87680800D01*
X101845063Y-87746306D01*
X101786098Y-87856620D01*
X101749788Y-87976318D01*
X101737528Y-88100800D01*
X101737528Y-89800800D01*
X101749788Y-89925282D01*
X101786098Y-90044980D01*
X101845063Y-90155294D01*
X101898822Y-90220800D01*
X101845063Y-90286306D01*
X101786098Y-90396620D01*
X101749788Y-90516318D01*
X101737528Y-90640800D01*
X101737528Y-92340800D01*
X101749788Y-92465282D01*
X101786098Y-92584980D01*
X101845063Y-92695294D01*
X101898822Y-92760800D01*
X101845063Y-92826306D01*
X101786098Y-92936620D01*
X101749788Y-93056318D01*
X101737528Y-93180800D01*
X101737528Y-94880800D01*
X101749788Y-95005282D01*
X101786098Y-95124980D01*
X101845063Y-95235294D01*
X101924415Y-95331985D01*
X102021106Y-95411337D01*
X102131420Y-95470302D01*
X102251118Y-95506612D01*
X102375600Y-95518872D01*
X104075600Y-95518872D01*
X104200082Y-95506612D01*
X104319780Y-95470302D01*
X104430094Y-95411337D01*
X104526785Y-95331985D01*
X104606137Y-95235294D01*
X104665102Y-95124980D01*
X104701412Y-95005282D01*
X104713672Y-94880800D01*
X104713672Y-94790800D01*
X114760991Y-94790800D01*
X114760991Y-94940493D01*
X114755524Y-94996000D01*
X114760991Y-95051506D01*
X114760991Y-95661067D01*
X114757315Y-95698389D01*
X114760991Y-95735711D01*
X114760991Y-95735721D01*
X114771988Y-95847374D01*
X114796529Y-95928275D01*
X114815445Y-95990635D01*
X114886017Y-96122665D01*
X114899402Y-96138974D01*
X114980990Y-96238390D01*
X115009994Y-96262193D01*
X117833083Y-99085282D01*
X117646660Y-99048200D01*
X117354140Y-99048200D01*
X117067242Y-99105268D01*
X116796989Y-99217210D01*
X116553768Y-99379725D01*
X116421913Y-99511580D01*
X116399902Y-99439020D01*
X116340937Y-99328706D01*
X116261585Y-99232015D01*
X116164894Y-99152663D01*
X116054580Y-99093698D01*
X115934882Y-99057388D01*
X115810400Y-99045128D01*
X114110400Y-99045128D01*
X113985918Y-99057388D01*
X113866220Y-99093698D01*
X113755906Y-99152663D01*
X113659215Y-99232015D01*
X113579863Y-99328706D01*
X113520898Y-99439020D01*
X113484588Y-99558718D01*
X113472328Y-99683200D01*
X113472328Y-101383200D01*
X113484588Y-101507682D01*
X113520898Y-101627380D01*
X113579863Y-101737694D01*
X113659215Y-101834385D01*
X113755906Y-101913737D01*
X113866220Y-101972702D01*
X113985918Y-102009012D01*
X114110400Y-102021272D01*
X114200401Y-102021272D01*
X114200401Y-102708068D01*
X114196724Y-102745400D01*
X114200401Y-102782733D01*
X114211398Y-102894386D01*
X114223527Y-102934372D01*
X114254854Y-103037646D01*
X114325426Y-103169676D01*
X114396601Y-103256402D01*
X114420400Y-103285401D01*
X114449398Y-103309199D01*
X119842903Y-108702705D01*
X119790000Y-108968665D01*
X119790000Y-109251335D01*
X119845147Y-109528574D01*
X119953320Y-109789727D01*
X120110363Y-110024759D01*
X120310241Y-110224637D01*
X120545273Y-110381680D01*
X120806426Y-110489853D01*
X121083665Y-110545000D01*
X121366335Y-110545000D01*
X121643574Y-110489853D01*
X121656144Y-110484646D01*
X121580241Y-110535363D01*
X121380363Y-110735241D01*
X121223320Y-110970273D01*
X121115147Y-111231426D01*
X121060000Y-111508665D01*
X121060000Y-111791335D01*
X121115147Y-112068574D01*
X121223320Y-112329727D01*
X121380363Y-112564759D01*
X121580241Y-112764637D01*
X121815273Y-112921680D01*
X122076426Y-113029853D01*
X122353665Y-113085000D01*
X122636335Y-113085000D01*
X122913574Y-113029853D01*
X123174727Y-112921680D01*
X123409759Y-112764637D01*
X123531694Y-112642702D01*
X124221903Y-112642702D01*
X124293486Y-112886671D01*
X124548996Y-113007571D01*
X124823184Y-113076300D01*
X125105512Y-113090217D01*
X125385130Y-113048787D01*
X125651292Y-112953603D01*
X125776514Y-112886671D01*
X125848097Y-112642702D01*
X125035000Y-111829605D01*
X124221903Y-112642702D01*
X123531694Y-112642702D01*
X123609637Y-112564759D01*
X123765915Y-112330872D01*
X123798329Y-112391514D01*
X124042298Y-112463097D01*
X124855395Y-111650000D01*
X124042298Y-110836903D01*
X123798329Y-110908486D01*
X123767806Y-110972992D01*
X123766680Y-110970273D01*
X123609637Y-110735241D01*
X123409759Y-110535363D01*
X123355000Y-110498774D01*
X123355000Y-110491558D01*
X123623665Y-110545000D01*
X123906335Y-110545000D01*
X124183574Y-110489853D01*
X124283133Y-110448614D01*
X124221903Y-110657298D01*
X125035000Y-111470395D01*
X125848097Y-110657298D01*
X125786867Y-110448614D01*
X125886426Y-110489853D01*
X126163665Y-110545000D01*
X126446335Y-110545000D01*
X126723574Y-110489853D01*
X126736144Y-110484646D01*
X126660241Y-110535363D01*
X126460363Y-110735241D01*
X126304085Y-110969128D01*
X126271671Y-110908486D01*
X126027702Y-110836903D01*
X125214605Y-111650000D01*
X126027702Y-112463097D01*
X126271671Y-112391514D01*
X126302194Y-112327008D01*
X126303320Y-112329727D01*
X126460363Y-112564759D01*
X126660241Y-112764637D01*
X126895273Y-112921680D01*
X127156426Y-113029853D01*
X127433665Y-113085000D01*
X127716335Y-113085000D01*
X127993574Y-113029853D01*
X128254727Y-112921680D01*
X128489759Y-112764637D01*
X128689637Y-112564759D01*
X128846680Y-112329727D01*
X128954853Y-112068574D01*
X129010000Y-111791335D01*
X129010000Y-111508665D01*
X128954853Y-111231426D01*
X128846680Y-110970273D01*
X128689637Y-110735241D01*
X128489759Y-110535363D01*
X128254727Y-110378320D01*
X127993574Y-110270147D01*
X127716335Y-110215000D01*
X127433665Y-110215000D01*
X127156426Y-110270147D01*
X127143856Y-110275354D01*
X127219759Y-110224637D01*
X127419637Y-110024759D01*
X127576680Y-109789727D01*
X127684853Y-109528574D01*
X127740000Y-109251335D01*
X127740000Y-108968665D01*
X127684853Y-108691426D01*
X127576680Y-108430273D01*
X127419637Y-108195241D01*
X127219759Y-107995363D01*
X127165000Y-107958774D01*
X127165000Y-107647884D01*
X127225664Y-107615458D01*
X127359292Y-107505792D01*
X127429500Y-107420244D01*
X127499708Y-107505792D01*
X127633336Y-107615458D01*
X127785791Y-107696947D01*
X127951215Y-107747128D01*
X128123250Y-107764072D01*
X128610750Y-107764072D01*
X128782785Y-107747128D01*
X128948209Y-107696947D01*
X129100664Y-107615458D01*
X129234292Y-107505792D01*
X129343958Y-107372164D01*
X129425447Y-107219709D01*
X129435673Y-107186000D01*
X131111310Y-107186000D01*
X131208973Y-107283663D01*
X131362112Y-107385987D01*
X131532272Y-107456469D01*
X131712912Y-107492401D01*
X131897090Y-107492401D01*
X132077730Y-107456469D01*
X132247890Y-107385987D01*
X132401029Y-107283663D01*
X132531263Y-107153429D01*
X132633587Y-107000290D01*
X132704069Y-106830130D01*
X132740001Y-106649490D01*
X132740001Y-106465312D01*
X132704069Y-106284672D01*
X132633587Y-106114512D01*
X132531263Y-105961373D01*
X132401029Y-105831139D01*
X132247890Y-105728815D01*
X132077730Y-105658333D01*
X131897090Y-105622401D01*
X131712912Y-105622401D01*
X131532272Y-105658333D01*
X131513762Y-105666000D01*
X129435673Y-105666000D01*
X129425447Y-105632291D01*
X129343958Y-105479836D01*
X129234292Y-105346208D01*
X129100664Y-105236542D01*
X128948209Y-105155053D01*
X128782785Y-105104872D01*
X128610750Y-105087928D01*
X128123250Y-105087928D01*
X127951215Y-105104872D01*
X127785791Y-105155053D01*
X127633336Y-105236542D01*
X127499708Y-105346208D01*
X127429500Y-105431756D01*
X127359292Y-105346208D01*
X127225664Y-105236542D01*
X127073209Y-105155053D01*
X126907785Y-105104872D01*
X126735750Y-105087928D01*
X126248250Y-105087928D01*
X126076215Y-105104872D01*
X126019485Y-105122081D01*
X124385476Y-103488072D01*
X125850000Y-103488072D01*
X125974482Y-103475812D01*
X126094180Y-103439502D01*
X126204494Y-103380537D01*
X126301185Y-103301185D01*
X126380537Y-103204494D01*
X126439502Y-103094180D01*
X126461513Y-103021620D01*
X126593368Y-103153475D01*
X126836589Y-103315990D01*
X127106842Y-103427932D01*
X127393740Y-103485000D01*
X127686260Y-103485000D01*
X127973158Y-103427932D01*
X128243411Y-103315990D01*
X128486632Y-103153475D01*
X128693475Y-102946632D01*
X128855990Y-102703411D01*
X128967932Y-102433158D01*
X129025000Y-102146260D01*
X129025000Y-101853740D01*
X128967932Y-101566842D01*
X128855990Y-101296589D01*
X128693475Y-101053368D01*
X128486632Y-100846525D01*
X128243411Y-100684010D01*
X127973158Y-100572068D01*
X127686260Y-100515000D01*
X127393740Y-100515000D01*
X127106842Y-100572068D01*
X126836589Y-100684010D01*
X126593368Y-100846525D01*
X126461513Y-100978380D01*
X126439502Y-100905820D01*
X126380537Y-100795506D01*
X126301185Y-100698815D01*
X126204494Y-100619463D01*
X126094180Y-100560498D01*
X125974482Y-100524188D01*
X125850000Y-100511928D01*
X124150000Y-100511928D01*
X124025518Y-100524188D01*
X123905820Y-100560498D01*
X123795506Y-100619463D01*
X123698815Y-100698815D01*
X123619463Y-100795506D01*
X123560498Y-100905820D01*
X123524188Y-101025518D01*
X123511928Y-101150000D01*
X123511928Y-102614524D01*
X117863404Y-96966000D01*
X120415728Y-96966000D01*
X120427988Y-97090482D01*
X120464298Y-97210180D01*
X120523263Y-97320494D01*
X120602615Y-97417185D01*
X120699306Y-97496537D01*
X120809620Y-97555502D01*
X120929318Y-97591812D01*
X121053800Y-97604072D01*
X121255550Y-97601000D01*
X121414300Y-97442250D01*
X121414300Y-96393000D01*
X120577550Y-96393000D01*
X120418800Y-96551750D01*
X120415728Y-96966000D01*
X117863404Y-96966000D01*
X116463404Y-95566000D01*
X120415728Y-95566000D01*
X120418800Y-95980250D01*
X120577550Y-96139000D01*
X121414300Y-96139000D01*
X121414300Y-95089750D01*
X121255550Y-94931000D01*
X121053800Y-94927928D01*
X120929318Y-94940188D01*
X120809620Y-94976498D01*
X120699306Y-95035463D01*
X120602615Y-95114815D01*
X120523263Y-95211506D01*
X120464298Y-95321820D01*
X120427988Y-95441518D01*
X120415728Y-95566000D01*
X116463404Y-95566000D01*
X116280991Y-95383588D01*
X116280991Y-95035114D01*
X116284667Y-94997791D01*
X116280991Y-94960469D01*
X116280991Y-94066331D01*
X116284667Y-94029009D01*
X116280991Y-93991686D01*
X116280991Y-92515625D01*
X116349577Y-92412979D01*
X116390908Y-92313198D01*
X116396372Y-92318662D01*
X116549511Y-92420986D01*
X116719671Y-92491468D01*
X116900311Y-92527400D01*
X117084489Y-92527400D01*
X117265129Y-92491468D01*
X117435289Y-92420986D01*
X117588428Y-92318662D01*
X117718662Y-92188428D01*
X117820986Y-92035289D01*
X117891468Y-91865129D01*
X117915553Y-91744048D01*
X118831801Y-90827800D01*
X119870728Y-90827800D01*
X119873800Y-91029550D01*
X120032550Y-91188300D01*
X121081800Y-91188300D01*
X121081800Y-90351550D01*
X120923050Y-90192800D01*
X120508800Y-90189728D01*
X120384318Y-90201988D01*
X120264620Y-90238298D01*
X120154306Y-90297263D01*
X120057615Y-90376615D01*
X119978263Y-90473306D01*
X119919298Y-90583620D01*
X119882988Y-90703318D01*
X119870728Y-90827800D01*
X118831801Y-90827800D01*
X121669003Y-87990599D01*
X121698001Y-87966801D01*
X121718801Y-87941457D01*
X121718800Y-90191137D01*
X121494550Y-90192800D01*
X121335800Y-90351550D01*
X121335800Y-91188300D01*
X121355800Y-91188300D01*
X121355800Y-91442300D01*
X121335800Y-91442300D01*
X121335800Y-91462300D01*
X121081800Y-91462300D01*
X121081800Y-91442300D01*
X120032550Y-91442300D01*
X119873800Y-91601050D01*
X119870728Y-91802800D01*
X119882988Y-91927282D01*
X119919298Y-92046980D01*
X119978263Y-92157294D01*
X120057615Y-92253985D01*
X120135364Y-92317792D01*
X120129008Y-92323008D01*
X120019342Y-92456636D01*
X119937853Y-92609091D01*
X119887672Y-92774515D01*
X119870728Y-92946550D01*
X119870728Y-93434050D01*
X119887672Y-93606085D01*
X119937853Y-93771509D01*
X120019342Y-93923964D01*
X120129008Y-94057592D01*
X120262636Y-94167258D01*
X120415091Y-94248747D01*
X120580515Y-94298928D01*
X120752550Y-94315872D01*
X121665050Y-94315872D01*
X121718800Y-94310578D01*
X121718800Y-95039250D01*
X121668300Y-95089750D01*
X121668300Y-96139000D01*
X121688300Y-96139000D01*
X121688300Y-96393000D01*
X121668300Y-96393000D01*
X121668300Y-97320043D01*
X121650214Y-97347111D01*
X121579732Y-97517271D01*
X121543800Y-97697911D01*
X121543800Y-97882089D01*
X121579732Y-98062729D01*
X121650214Y-98232889D01*
X121752538Y-98386028D01*
X121882772Y-98516262D01*
X122035911Y-98618586D01*
X122206071Y-98689068D01*
X122386711Y-98725000D01*
X122570889Y-98725000D01*
X122751529Y-98689068D01*
X122921689Y-98618586D01*
X123074828Y-98516262D01*
X123205062Y-98386028D01*
X123307386Y-98232889D01*
X123377868Y-98062729D01*
X123413800Y-97882089D01*
X123413800Y-97697911D01*
X123395134Y-97604072D01*
X123660050Y-97604072D01*
X123832085Y-97587128D01*
X123997509Y-97536947D01*
X124149964Y-97455458D01*
X124172455Y-97437000D01*
X128659128Y-97437000D01*
X128671388Y-97561482D01*
X128707698Y-97681180D01*
X128766663Y-97791494D01*
X128846015Y-97888185D01*
X128942706Y-97967537D01*
X129053020Y-98026502D01*
X129172718Y-98062812D01*
X129297200Y-98075072D01*
X129711450Y-98072000D01*
X129870200Y-97913250D01*
X129870200Y-97076500D01*
X130124200Y-97076500D01*
X130124200Y-97913250D01*
X130282950Y-98072000D01*
X130697200Y-98075072D01*
X130821682Y-98062812D01*
X130941380Y-98026502D01*
X131051694Y-97967537D01*
X131148385Y-97888185D01*
X131227737Y-97791494D01*
X131286702Y-97681180D01*
X131323012Y-97561482D01*
X131335272Y-97437000D01*
X131332200Y-97235250D01*
X131173450Y-97076500D01*
X130124200Y-97076500D01*
X129870200Y-97076500D01*
X128820950Y-97076500D01*
X128662200Y-97235250D01*
X128659128Y-97437000D01*
X124172455Y-97437000D01*
X124283592Y-97345792D01*
X124393258Y-97212164D01*
X124474747Y-97059709D01*
X124524928Y-96894285D01*
X124541872Y-96722250D01*
X124541872Y-95809750D01*
X124524928Y-95637715D01*
X124474747Y-95472291D01*
X124393258Y-95319836D01*
X124283592Y-95186208D01*
X124149964Y-95076542D01*
X123997509Y-94995053D01*
X123832085Y-94944872D01*
X123660050Y-94927928D01*
X123238800Y-94927928D01*
X123238800Y-83603535D01*
X123307386Y-83500889D01*
X123377868Y-83330729D01*
X123413800Y-83150089D01*
X123413800Y-82965911D01*
X123377868Y-82785271D01*
X123307386Y-82615111D01*
X123205062Y-82461972D01*
X123074828Y-82331738D01*
X122921689Y-82229414D01*
X122751529Y-82158932D01*
X122578400Y-82124494D01*
X122578400Y-78796401D01*
X123242800Y-78132002D01*
X123242800Y-79972465D01*
X123174214Y-80075111D01*
X123103732Y-80245271D01*
X123067800Y-80425911D01*
X123067800Y-80610089D01*
X123103732Y-80790729D01*
X123174214Y-80960889D01*
X123276538Y-81114028D01*
X123406772Y-81244262D01*
X123559911Y-81346586D01*
X123730071Y-81417068D01*
X123910711Y-81453000D01*
X124094889Y-81453000D01*
X124275529Y-81417068D01*
X124445689Y-81346586D01*
X124598828Y-81244262D01*
X124729062Y-81114028D01*
X124831386Y-80960889D01*
X124901868Y-80790729D01*
X124937800Y-80610089D01*
X124937800Y-80425911D01*
X124901868Y-80245271D01*
X124831386Y-80075111D01*
X124762800Y-79972465D01*
X124762800Y-77120401D01*
X126672326Y-79029928D01*
X125642000Y-79029928D01*
X125517518Y-79042188D01*
X125397820Y-79078498D01*
X125287506Y-79137463D01*
X125190815Y-79216815D01*
X125111463Y-79313506D01*
X125052498Y-79423820D01*
X125016188Y-79543518D01*
X125003928Y-79668000D01*
X125003928Y-81368000D01*
X125016188Y-81492482D01*
X125052498Y-81612180D01*
X125111463Y-81722494D01*
X125190815Y-81819185D01*
X125287506Y-81898537D01*
X125397820Y-81957502D01*
X125517518Y-81993812D01*
X125642000Y-82006072D01*
X127342000Y-82006072D01*
X127466482Y-81993812D01*
X127586180Y-81957502D01*
X127696494Y-81898537D01*
X127793185Y-81819185D01*
X127872537Y-81722494D01*
X127931502Y-81612180D01*
X127967812Y-81492482D01*
X127980072Y-81368000D01*
X127980072Y-80337674D01*
X128170401Y-80528003D01*
X128170400Y-83764370D01*
X128127305Y-83764370D01*
X127946665Y-83800302D01*
X127930520Y-83806989D01*
X127899068Y-83648871D01*
X127828586Y-83478711D01*
X127726262Y-83325572D01*
X127596028Y-83195338D01*
X127442889Y-83093014D01*
X127272729Y-83022532D01*
X127092089Y-82986600D01*
X126907911Y-82986600D01*
X126727271Y-83022532D01*
X126557111Y-83093014D01*
X126403972Y-83195338D01*
X126273738Y-83325572D01*
X126171414Y-83478711D01*
X126100932Y-83648871D01*
X126077092Y-83768719D01*
X126053600Y-83787999D01*
X126029802Y-83816997D01*
X126029801Y-83816998D01*
X125958626Y-83903724D01*
X125888054Y-84035754D01*
X125844598Y-84179015D01*
X125829924Y-84328000D01*
X125833601Y-84365332D01*
X125833600Y-95415665D01*
X125765014Y-95518311D01*
X125694532Y-95688471D01*
X125658600Y-95869111D01*
X125658600Y-96053289D01*
X125694532Y-96233929D01*
X125765014Y-96404089D01*
X125867338Y-96557228D01*
X125997572Y-96687462D01*
X126150711Y-96789786D01*
X126320871Y-96860268D01*
X126501511Y-96896200D01*
X126685689Y-96896200D01*
X126866329Y-96860268D01*
X127036489Y-96789786D01*
X127189628Y-96687462D01*
X127254000Y-96623090D01*
X127369172Y-96738262D01*
X127522311Y-96840586D01*
X127692471Y-96911068D01*
X127873111Y-96947000D01*
X128057289Y-96947000D01*
X128237929Y-96911068D01*
X128408089Y-96840586D01*
X128561228Y-96738262D01*
X128661803Y-96637687D01*
X128662200Y-96663750D01*
X128820950Y-96822500D01*
X129870200Y-96822500D01*
X129870200Y-96802500D01*
X130124200Y-96802500D01*
X130124200Y-96822500D01*
X131173450Y-96822500D01*
X131332200Y-96663750D01*
X131335272Y-96462000D01*
X131323012Y-96337518D01*
X131286702Y-96217820D01*
X131227737Y-96107506D01*
X131148385Y-96010815D01*
X131070636Y-95947008D01*
X131076992Y-95941792D01*
X131186658Y-95808164D01*
X131268147Y-95655709D01*
X131318328Y-95490285D01*
X131335272Y-95318250D01*
X131335272Y-94830750D01*
X131318328Y-94658715D01*
X131268147Y-94493291D01*
X131186658Y-94340836D01*
X131076992Y-94207208D01*
X130943364Y-94097542D01*
X130790909Y-94016053D01*
X130730391Y-93997695D01*
X130740109Y-93994747D01*
X130892564Y-93913258D01*
X131026192Y-93803592D01*
X131135858Y-93669964D01*
X131217347Y-93517509D01*
X131267528Y-93352085D01*
X131284472Y-93180050D01*
X131284472Y-92692550D01*
X131267528Y-92520515D01*
X131217347Y-92355091D01*
X131135858Y-92202636D01*
X131026192Y-92069008D01*
X131019836Y-92063792D01*
X131097585Y-91999985D01*
X131176937Y-91903294D01*
X131235902Y-91792980D01*
X131272212Y-91673282D01*
X131284472Y-91548800D01*
X131281400Y-91347050D01*
X131122650Y-91188300D01*
X130073400Y-91188300D01*
X130073400Y-91208300D01*
X129819400Y-91208300D01*
X129819400Y-91188300D01*
X129799400Y-91188300D01*
X129799400Y-90934300D01*
X129819400Y-90934300D01*
X129819400Y-90097550D01*
X130073400Y-90097550D01*
X130073400Y-90934300D01*
X131122650Y-90934300D01*
X131281400Y-90775550D01*
X131284472Y-90573800D01*
X131272212Y-90449318D01*
X131235902Y-90329620D01*
X131176937Y-90219306D01*
X131097585Y-90122615D01*
X131000894Y-90043263D01*
X130890580Y-89984298D01*
X130770882Y-89947988D01*
X130646400Y-89935728D01*
X130232150Y-89938800D01*
X130073400Y-90097550D01*
X129819400Y-90097550D01*
X129660650Y-89938800D01*
X129436400Y-89937137D01*
X129436400Y-86156199D01*
X129441398Y-86151201D01*
X129470401Y-86127399D01*
X129565374Y-86011674D01*
X129635946Y-85879645D01*
X129679403Y-85736384D01*
X129690400Y-85624731D01*
X129690400Y-85624722D01*
X129694076Y-85587399D01*
X129690400Y-85550076D01*
X129690400Y-84240000D01*
X131861928Y-84240000D01*
X131865000Y-84804250D01*
X132023750Y-84963000D01*
X133223000Y-84963000D01*
X133223000Y-83763750D01*
X133064250Y-83605000D01*
X132500000Y-83601928D01*
X132375518Y-83614188D01*
X132255820Y-83650498D01*
X132145506Y-83709463D01*
X132048815Y-83788815D01*
X131969463Y-83885506D01*
X131910498Y-83995820D01*
X131874188Y-84115518D01*
X131861928Y-84240000D01*
X129690400Y-84240000D01*
X129690400Y-80250523D01*
X129694076Y-80213200D01*
X129690400Y-80175877D01*
X129690400Y-80175867D01*
X129679403Y-80064214D01*
X129635946Y-79920953D01*
X129574296Y-79805615D01*
X129565374Y-79788923D01*
X129494199Y-79702197D01*
X129470401Y-79673199D01*
X129441403Y-79649401D01*
X125575600Y-75783599D01*
X125575600Y-68276402D01*
X125859509Y-68276402D01*
X125881423Y-68498900D01*
X125946324Y-68712848D01*
X126051717Y-68910024D01*
X126158012Y-69039545D01*
X131036855Y-73918390D01*
X131166376Y-74024685D01*
X131363552Y-74130077D01*
X131577500Y-74194978D01*
X131799999Y-74216892D01*
X132022498Y-74194978D01*
X132236446Y-74130077D01*
X132433622Y-74024685D01*
X132606448Y-73882850D01*
X132748283Y-73710024D01*
X132853675Y-73512848D01*
X132918576Y-73298900D01*
X132940490Y-73076401D01*
X132918576Y-72853902D01*
X132853675Y-72639954D01*
X132748283Y-72442778D01*
X132641988Y-72313257D01*
X127763143Y-67434414D01*
X127633622Y-67328119D01*
X127436446Y-67222726D01*
X127222498Y-67157825D01*
X127000000Y-67135911D01*
X126777502Y-67157825D01*
X126563554Y-67222726D01*
X126366378Y-67328119D01*
X126193552Y-67469954D01*
X126051717Y-67642780D01*
X125946324Y-67839956D01*
X125881423Y-68053904D01*
X125859509Y-68276402D01*
X125575600Y-68276402D01*
X125575600Y-53072523D01*
X125579276Y-53035200D01*
X125575600Y-52997877D01*
X125575600Y-52997867D01*
X125564603Y-52886214D01*
X125521146Y-52742953D01*
X125450574Y-52610924D01*
X125355601Y-52495199D01*
X125326603Y-52471401D01*
X123859153Y-51003952D01*
X123835068Y-50882871D01*
X123764586Y-50712711D01*
X123662262Y-50559572D01*
X123532028Y-50429338D01*
X123378889Y-50327014D01*
X123208729Y-50256532D01*
X123028089Y-50220600D01*
X122843911Y-50220600D01*
X122663271Y-50256532D01*
X122493111Y-50327014D01*
X122339972Y-50429338D01*
X122209738Y-50559572D01*
X122107414Y-50712711D01*
X122036932Y-50882871D01*
X122001000Y-51063511D01*
X122001000Y-51247689D01*
X122036932Y-51428329D01*
X122107414Y-51598489D01*
X122209738Y-51751628D01*
X122324910Y-51866800D01*
X122311338Y-51880372D01*
X122209014Y-52033511D01*
X122138532Y-52203671D01*
X122102600Y-52384311D01*
X122102600Y-52568489D01*
X122138532Y-52749129D01*
X122209014Y-52919289D01*
X122277600Y-53021935D01*
X122277600Y-56371029D01*
X122127271Y-56400932D01*
X121957111Y-56471414D01*
X121803972Y-56573738D01*
X121673738Y-56703972D01*
X121571414Y-56857111D01*
X121500932Y-57027271D01*
X121465000Y-57207911D01*
X121465000Y-57392089D01*
X121500932Y-57572729D01*
X121571414Y-57742889D01*
X121640000Y-57845535D01*
X121640000Y-59165000D01*
X121607911Y-59165000D01*
X121427271Y-59200932D01*
X121257111Y-59271414D01*
X121103972Y-59373738D01*
X120973738Y-59503972D01*
X120871414Y-59657111D01*
X120800932Y-59827271D01*
X120765000Y-60007911D01*
X120765000Y-60192089D01*
X120800932Y-60372729D01*
X120871414Y-60542889D01*
X120940000Y-60645535D01*
X120940001Y-76485197D01*
X120196680Y-77228519D01*
X120124785Y-77140915D01*
X120028094Y-77061563D01*
X119917780Y-77002598D01*
X119798082Y-76966288D01*
X119673600Y-76954028D01*
X119259350Y-76957100D01*
X119100600Y-77115850D01*
X119100600Y-77952600D01*
X119120600Y-77952600D01*
X119120600Y-78206600D01*
X119100600Y-78206600D01*
X119100600Y-78226600D01*
X118846600Y-78226600D01*
X118846600Y-78206600D01*
X117797350Y-78206600D01*
X117638600Y-78365350D01*
X117635528Y-78567100D01*
X117647788Y-78691582D01*
X117684098Y-78811280D01*
X117743063Y-78921594D01*
X117822415Y-79018285D01*
X117900164Y-79082092D01*
X117893808Y-79087308D01*
X117784142Y-79220936D01*
X117702653Y-79373391D01*
X117652472Y-79538815D01*
X117635528Y-79710850D01*
X117635528Y-80198350D01*
X117637278Y-80216120D01*
X116391471Y-81461928D01*
X115350000Y-81461928D01*
X115225518Y-81474188D01*
X115105820Y-81510498D01*
X114995506Y-81569463D01*
X114898815Y-81648815D01*
X114819463Y-81745506D01*
X114760498Y-81855820D01*
X114724188Y-81975518D01*
X114711928Y-82100000D01*
X114711928Y-83900000D01*
X114724188Y-84024482D01*
X114760498Y-84144180D01*
X114819463Y-84254494D01*
X114898815Y-84351185D01*
X114995506Y-84430537D01*
X115105820Y-84489502D01*
X115225518Y-84525812D01*
X115350000Y-84538072D01*
X117150000Y-84538072D01*
X117274482Y-84525812D01*
X117394180Y-84489502D01*
X117504494Y-84430537D01*
X117601185Y-84351185D01*
X117680537Y-84254494D01*
X117739502Y-84144180D01*
X117745056Y-84125873D01*
X117811495Y-84192312D01*
X118062905Y-84360299D01*
X118342257Y-84476011D01*
X118638816Y-84535000D01*
X118941184Y-84535000D01*
X119237743Y-84476011D01*
X119517095Y-84360299D01*
X119740001Y-84211358D01*
X119740001Y-86689753D01*
X117306605Y-89123149D01*
X117262186Y-89015911D01*
X117159862Y-88862772D01*
X117029628Y-88732538D01*
X116876489Y-88630214D01*
X116706329Y-88559732D01*
X116585249Y-88535647D01*
X116188353Y-88138751D01*
X116164268Y-88017671D01*
X116093786Y-87847511D01*
X115991462Y-87694372D01*
X115861228Y-87564138D01*
X115708089Y-87461814D01*
X115537929Y-87391332D01*
X115357289Y-87355400D01*
X115173111Y-87355400D01*
X114992471Y-87391332D01*
X114822311Y-87461814D01*
X114669172Y-87564138D01*
X114538938Y-87694372D01*
X114436614Y-87847511D01*
X114366132Y-88017671D01*
X114330200Y-88198311D01*
X114330200Y-88265718D01*
X113348004Y-88265718D01*
X113310681Y-88262042D01*
X113273358Y-88265718D01*
X113273349Y-88265718D01*
X113161696Y-88276715D01*
X113018435Y-88320172D01*
X112913518Y-88376252D01*
X112757271Y-88407332D01*
X112587111Y-88477814D01*
X112433972Y-88580138D01*
X112303738Y-88710372D01*
X112237023Y-88810218D01*
X112175151Y-88748346D01*
X112151066Y-88627265D01*
X112080584Y-88457105D01*
X111978260Y-88303966D01*
X111848026Y-88173732D01*
X111694887Y-88071408D01*
X111524727Y-88000926D01*
X111344087Y-87964994D01*
X111159909Y-87964994D01*
X110979269Y-88000926D01*
X110809109Y-88071408D01*
X110655970Y-88173732D01*
X110525736Y-88303966D01*
X110423412Y-88457105D01*
X110352930Y-88627265D01*
X110316998Y-88807905D01*
X110316998Y-88992083D01*
X110352930Y-89172723D01*
X110423412Y-89342883D01*
X110525736Y-89496022D01*
X110655970Y-89626256D01*
X110809109Y-89728580D01*
X110979269Y-89799062D01*
X111100350Y-89823147D01*
X112497017Y-91219815D01*
X112520815Y-91248813D01*
X112549813Y-91272611D01*
X112636539Y-91343786D01*
X112768569Y-91414358D01*
X112911830Y-91457815D01*
X113023483Y-91468812D01*
X113023493Y-91468812D01*
X113060816Y-91472488D01*
X113098139Y-91468812D01*
X114731419Y-91468812D01*
X114692405Y-91527201D01*
X114621923Y-91697361D01*
X114585991Y-91878001D01*
X114585991Y-92062179D01*
X114621923Y-92242819D01*
X114692405Y-92412979D01*
X114760992Y-92515626D01*
X114760991Y-93270800D01*
X104713672Y-93270800D01*
X104713672Y-93180800D01*
X104701412Y-93056318D01*
X104665102Y-92936620D01*
X104606137Y-92826306D01*
X104552378Y-92760800D01*
X104606137Y-92695294D01*
X104665102Y-92584980D01*
X104701412Y-92465282D01*
X104713672Y-92340800D01*
X104713672Y-90640800D01*
X104701412Y-90516318D01*
X104665102Y-90396620D01*
X104606137Y-90286306D01*
X104552378Y-90220800D01*
X104606137Y-90155294D01*
X104665102Y-90044980D01*
X104701412Y-89925282D01*
X104713672Y-89800800D01*
X104713672Y-88100800D01*
X104701412Y-87976318D01*
X104665102Y-87856620D01*
X104606137Y-87746306D01*
X104552378Y-87680800D01*
X104606137Y-87615294D01*
X104665102Y-87504980D01*
X104701412Y-87385282D01*
X104713672Y-87260800D01*
X104713672Y-86307200D01*
X110857595Y-86307200D01*
X111101847Y-86551453D01*
X111125932Y-86672533D01*
X111196414Y-86842693D01*
X111298738Y-86995832D01*
X111428972Y-87126066D01*
X111504566Y-87176576D01*
X111575724Y-87234974D01*
X111707753Y-87305546D01*
X111851014Y-87349003D01*
X112000000Y-87363677D01*
X112148985Y-87349003D01*
X112292246Y-87305546D01*
X112308603Y-87296803D01*
X112328844Y-87285984D01*
X112467889Y-87228390D01*
X112621028Y-87126066D01*
X112751262Y-86995832D01*
X112853586Y-86842693D01*
X112924068Y-86672533D01*
X112960000Y-86491893D01*
X112960000Y-86307715D01*
X112924068Y-86127075D01*
X112853586Y-85956915D01*
X112751262Y-85803776D01*
X112621028Y-85673542D01*
X112467889Y-85571218D01*
X112297729Y-85500736D01*
X112176649Y-85476651D01*
X111736199Y-85036202D01*
X111712397Y-85007199D01*
X111596672Y-84912226D01*
X111464643Y-84841654D01*
X111321382Y-84798197D01*
X111209729Y-84787200D01*
X111209718Y-84787200D01*
X111172396Y-84783524D01*
X111135074Y-84787200D01*
X104126523Y-84787200D01*
X104089200Y-84783524D01*
X104051877Y-84787200D01*
X104051867Y-84787200D01*
X103940214Y-84798197D01*
X103796953Y-84841654D01*
X103664924Y-84912226D01*
X103652127Y-84922728D01*
X102375600Y-84922728D01*
X102251118Y-84934988D01*
X102131420Y-84971298D01*
X102021106Y-85030263D01*
X101924415Y-85109615D01*
X101845063Y-85206306D01*
X101786098Y-85316620D01*
X101749788Y-85436318D01*
X101737528Y-85560800D01*
X100710000Y-85560800D01*
X100710000Y-77592100D01*
X117635528Y-77592100D01*
X117638600Y-77793850D01*
X117797350Y-77952600D01*
X118846600Y-77952600D01*
X118846600Y-77115850D01*
X118687850Y-76957100D01*
X118273600Y-76954028D01*
X118149118Y-76966288D01*
X118029420Y-77002598D01*
X117919106Y-77061563D01*
X117822415Y-77140915D01*
X117743063Y-77237606D01*
X117684098Y-77347920D01*
X117647788Y-77467618D01*
X117635528Y-77592100D01*
X100710000Y-77592100D01*
X100710000Y-76127000D01*
X113000000Y-76127000D01*
X113024776Y-76124560D01*
X113048601Y-76117333D01*
X113070557Y-76105597D01*
X113089803Y-76089803D01*
X113105597Y-76070557D01*
X113117333Y-76048601D01*
X113124560Y-76024776D01*
X113127000Y-76000000D01*
X113127000Y-46710000D01*
X134290001Y-46710000D01*
X134290001Y-83610792D01*
M02*
