G04 #@! TF.GenerationSoftware,KiCad,Pcbnew,5.0.2-bee76a0~70~ubuntu18.04.1*
G04 #@! TF.CreationDate,2019-02-20T16:39:47+02:00*
G04 #@! TF.ProjectId,weerstasie,77656572-7374-4617-9369-652e6b696361,rev?*
G04 #@! TF.SameCoordinates,Original*
G04 #@! TF.FileFunction,Copper,L1,Top*
G04 #@! TF.FilePolarity,Positive*
%FSLAX46Y46*%
G04 Gerber Fmt 4.6, Leading zero omitted, Abs format (unit mm)*
G04 Created by KiCad (PCBNEW 5.0.2-bee76a0~70~ubuntu18.04.1) date Wed 20 Feb 2019 16:39:47 SAST*
%MOMM*%
%LPD*%
G01*
G04 APERTURE LIST*
G04 #@! TA.AperFunction,EtchedComponent*
%ADD10C,1.000000*%
G04 #@! TD*
G04 #@! TA.AperFunction,Conductor*
%ADD11C,0.100000*%
G04 #@! TD*
G04 #@! TA.AperFunction,SMDPad,CuDef*
%ADD12C,0.975000*%
G04 #@! TD*
G04 #@! TA.AperFunction,SMDPad,CuDef*
%ADD13R,1.200000X3.000000*%
G04 #@! TD*
G04 #@! TA.AperFunction,SMDPad,CuDef*
%ADD14R,1.500000X0.550000*%
G04 #@! TD*
G04 #@! TA.AperFunction,SMDPad,CuDef*
%ADD15R,0.550000X1.500000*%
G04 #@! TD*
G04 #@! TA.AperFunction,ComponentPad*
%ADD16R,1.700000X1.700000*%
G04 #@! TD*
G04 #@! TA.AperFunction,ComponentPad*
%ADD17O,1.700000X1.700000*%
G04 #@! TD*
G04 #@! TA.AperFunction,SMDPad,CuDef*
%ADD18R,1.800000X2.100000*%
G04 #@! TD*
G04 #@! TA.AperFunction,ComponentPad*
%ADD19R,1.800000X1.800000*%
G04 #@! TD*
G04 #@! TA.AperFunction,ComponentPad*
%ADD20C,1.800000*%
G04 #@! TD*
G04 #@! TA.AperFunction,SMDPad,CuDef*
%ADD21R,0.350000X0.700000*%
G04 #@! TD*
G04 #@! TA.AperFunction,ComponentPad*
%ADD22C,3.200000*%
G04 #@! TD*
G04 #@! TA.AperFunction,ComponentPad*
%ADD23C,1.879600*%
G04 #@! TD*
G04 #@! TA.AperFunction,ComponentPad*
%ADD24R,7.000000X2.000000*%
G04 #@! TD*
G04 #@! TA.AperFunction,ViaPad*
%ADD25C,1.000000*%
G04 #@! TD*
G04 #@! TA.AperFunction,BGAPad,CuDef*
%ADD26C,1.000000*%
G04 #@! TD*
G04 #@! TA.AperFunction,ViaPad*
%ADD27C,2.200000*%
G04 #@! TD*
G04 #@! TA.AperFunction,ViaPad*
%ADD28C,0.600000*%
G04 #@! TD*
G04 #@! TA.AperFunction,Conductor*
%ADD29C,0.250000*%
G04 #@! TD*
G04 #@! TA.AperFunction,Conductor*
%ADD30C,1.000000*%
G04 #@! TD*
G04 #@! TA.AperFunction,Conductor*
%ADD31C,0.254000*%
G04 #@! TD*
G04 APERTURE END LIST*
D10*
G04 #@! TO.C,AE1*
X107000000Y-47000000D02*
X101000000Y-47000000D01*
X107000000Y-49000000D02*
X101000000Y-49000000D01*
X107000000Y-51000000D02*
X101000000Y-51000000D01*
X107000000Y-53000000D02*
X101000000Y-53000000D01*
X107000000Y-55000000D02*
X101000000Y-55000000D01*
X107000000Y-57000000D02*
X101000000Y-57000000D01*
X107000000Y-59000000D02*
X101000000Y-59000000D01*
X107000000Y-61000000D02*
X101000000Y-61000000D01*
X107000000Y-63000000D02*
X101000000Y-63000000D01*
X101000000Y-65000000D02*
X113000000Y-65000000D01*
G04 #@! TD*
D11*
G04 #@! TO.N,/RAIN*
G04 #@! TO.C,R1*
G36*
X120077142Y-105015974D02*
X120100803Y-105019484D01*
X120124007Y-105025296D01*
X120146529Y-105033354D01*
X120168153Y-105043582D01*
X120188670Y-105055879D01*
X120207883Y-105070129D01*
X120225607Y-105086193D01*
X120241671Y-105103917D01*
X120255921Y-105123130D01*
X120268218Y-105143647D01*
X120278446Y-105165271D01*
X120286504Y-105187793D01*
X120292316Y-105210997D01*
X120295826Y-105234658D01*
X120297000Y-105258550D01*
X120297000Y-106171050D01*
X120295826Y-106194942D01*
X120292316Y-106218603D01*
X120286504Y-106241807D01*
X120278446Y-106264329D01*
X120268218Y-106285953D01*
X120255921Y-106306470D01*
X120241671Y-106325683D01*
X120225607Y-106343407D01*
X120207883Y-106359471D01*
X120188670Y-106373721D01*
X120168153Y-106386018D01*
X120146529Y-106396246D01*
X120124007Y-106404304D01*
X120100803Y-106410116D01*
X120077142Y-106413626D01*
X120053250Y-106414800D01*
X119565750Y-106414800D01*
X119541858Y-106413626D01*
X119518197Y-106410116D01*
X119494993Y-106404304D01*
X119472471Y-106396246D01*
X119450847Y-106386018D01*
X119430330Y-106373721D01*
X119411117Y-106359471D01*
X119393393Y-106343407D01*
X119377329Y-106325683D01*
X119363079Y-106306470D01*
X119350782Y-106285953D01*
X119340554Y-106264329D01*
X119332496Y-106241807D01*
X119326684Y-106218603D01*
X119323174Y-106194942D01*
X119322000Y-106171050D01*
X119322000Y-105258550D01*
X119323174Y-105234658D01*
X119326684Y-105210997D01*
X119332496Y-105187793D01*
X119340554Y-105165271D01*
X119350782Y-105143647D01*
X119363079Y-105123130D01*
X119377329Y-105103917D01*
X119393393Y-105086193D01*
X119411117Y-105070129D01*
X119430330Y-105055879D01*
X119450847Y-105043582D01*
X119472471Y-105033354D01*
X119494993Y-105025296D01*
X119518197Y-105019484D01*
X119541858Y-105015974D01*
X119565750Y-105014800D01*
X120053250Y-105014800D01*
X120077142Y-105015974D01*
X120077142Y-105015974D01*
G37*
D12*
G04 #@! TD*
G04 #@! TO.P,R1,2*
G04 #@! TO.N,/RAIN*
X119809500Y-105714800D03*
D11*
G04 #@! TO.N,VCC*
G04 #@! TO.C,R1*
G36*
X118202142Y-105015974D02*
X118225803Y-105019484D01*
X118249007Y-105025296D01*
X118271529Y-105033354D01*
X118293153Y-105043582D01*
X118313670Y-105055879D01*
X118332883Y-105070129D01*
X118350607Y-105086193D01*
X118366671Y-105103917D01*
X118380921Y-105123130D01*
X118393218Y-105143647D01*
X118403446Y-105165271D01*
X118411504Y-105187793D01*
X118417316Y-105210997D01*
X118420826Y-105234658D01*
X118422000Y-105258550D01*
X118422000Y-106171050D01*
X118420826Y-106194942D01*
X118417316Y-106218603D01*
X118411504Y-106241807D01*
X118403446Y-106264329D01*
X118393218Y-106285953D01*
X118380921Y-106306470D01*
X118366671Y-106325683D01*
X118350607Y-106343407D01*
X118332883Y-106359471D01*
X118313670Y-106373721D01*
X118293153Y-106386018D01*
X118271529Y-106396246D01*
X118249007Y-106404304D01*
X118225803Y-106410116D01*
X118202142Y-106413626D01*
X118178250Y-106414800D01*
X117690750Y-106414800D01*
X117666858Y-106413626D01*
X117643197Y-106410116D01*
X117619993Y-106404304D01*
X117597471Y-106396246D01*
X117575847Y-106386018D01*
X117555330Y-106373721D01*
X117536117Y-106359471D01*
X117518393Y-106343407D01*
X117502329Y-106325683D01*
X117488079Y-106306470D01*
X117475782Y-106285953D01*
X117465554Y-106264329D01*
X117457496Y-106241807D01*
X117451684Y-106218603D01*
X117448174Y-106194942D01*
X117447000Y-106171050D01*
X117447000Y-105258550D01*
X117448174Y-105234658D01*
X117451684Y-105210997D01*
X117457496Y-105187793D01*
X117465554Y-105165271D01*
X117475782Y-105143647D01*
X117488079Y-105123130D01*
X117502329Y-105103917D01*
X117518393Y-105086193D01*
X117536117Y-105070129D01*
X117555330Y-105055879D01*
X117575847Y-105043582D01*
X117597471Y-105033354D01*
X117619993Y-105025296D01*
X117643197Y-105019484D01*
X117666858Y-105015974D01*
X117690750Y-105014800D01*
X118178250Y-105014800D01*
X118202142Y-105015974D01*
X118202142Y-105015974D01*
G37*
D12*
G04 #@! TD*
G04 #@! TO.P,R1,1*
G04 #@! TO.N,VCC*
X117934500Y-105714800D03*
D11*
G04 #@! TO.N,/WIND_DIR*
G04 #@! TO.C,R2*
G36*
X105395942Y-103491974D02*
X105419603Y-103495484D01*
X105442807Y-103501296D01*
X105465329Y-103509354D01*
X105486953Y-103519582D01*
X105507470Y-103531879D01*
X105526683Y-103546129D01*
X105544407Y-103562193D01*
X105560471Y-103579917D01*
X105574721Y-103599130D01*
X105587018Y-103619647D01*
X105597246Y-103641271D01*
X105605304Y-103663793D01*
X105611116Y-103686997D01*
X105614626Y-103710658D01*
X105615800Y-103734550D01*
X105615800Y-104647050D01*
X105614626Y-104670942D01*
X105611116Y-104694603D01*
X105605304Y-104717807D01*
X105597246Y-104740329D01*
X105587018Y-104761953D01*
X105574721Y-104782470D01*
X105560471Y-104801683D01*
X105544407Y-104819407D01*
X105526683Y-104835471D01*
X105507470Y-104849721D01*
X105486953Y-104862018D01*
X105465329Y-104872246D01*
X105442807Y-104880304D01*
X105419603Y-104886116D01*
X105395942Y-104889626D01*
X105372050Y-104890800D01*
X104884550Y-104890800D01*
X104860658Y-104889626D01*
X104836997Y-104886116D01*
X104813793Y-104880304D01*
X104791271Y-104872246D01*
X104769647Y-104862018D01*
X104749130Y-104849721D01*
X104729917Y-104835471D01*
X104712193Y-104819407D01*
X104696129Y-104801683D01*
X104681879Y-104782470D01*
X104669582Y-104761953D01*
X104659354Y-104740329D01*
X104651296Y-104717807D01*
X104645484Y-104694603D01*
X104641974Y-104670942D01*
X104640800Y-104647050D01*
X104640800Y-103734550D01*
X104641974Y-103710658D01*
X104645484Y-103686997D01*
X104651296Y-103663793D01*
X104659354Y-103641271D01*
X104669582Y-103619647D01*
X104681879Y-103599130D01*
X104696129Y-103579917D01*
X104712193Y-103562193D01*
X104729917Y-103546129D01*
X104749130Y-103531879D01*
X104769647Y-103519582D01*
X104791271Y-103509354D01*
X104813793Y-103501296D01*
X104836997Y-103495484D01*
X104860658Y-103491974D01*
X104884550Y-103490800D01*
X105372050Y-103490800D01*
X105395942Y-103491974D01*
X105395942Y-103491974D01*
G37*
D12*
G04 #@! TD*
G04 #@! TO.P,R2,2*
G04 #@! TO.N,/WIND_DIR*
X105128300Y-104190800D03*
D11*
G04 #@! TO.N,VCC*
G04 #@! TO.C,R2*
G36*
X103520942Y-103491974D02*
X103544603Y-103495484D01*
X103567807Y-103501296D01*
X103590329Y-103509354D01*
X103611953Y-103519582D01*
X103632470Y-103531879D01*
X103651683Y-103546129D01*
X103669407Y-103562193D01*
X103685471Y-103579917D01*
X103699721Y-103599130D01*
X103712018Y-103619647D01*
X103722246Y-103641271D01*
X103730304Y-103663793D01*
X103736116Y-103686997D01*
X103739626Y-103710658D01*
X103740800Y-103734550D01*
X103740800Y-104647050D01*
X103739626Y-104670942D01*
X103736116Y-104694603D01*
X103730304Y-104717807D01*
X103722246Y-104740329D01*
X103712018Y-104761953D01*
X103699721Y-104782470D01*
X103685471Y-104801683D01*
X103669407Y-104819407D01*
X103651683Y-104835471D01*
X103632470Y-104849721D01*
X103611953Y-104862018D01*
X103590329Y-104872246D01*
X103567807Y-104880304D01*
X103544603Y-104886116D01*
X103520942Y-104889626D01*
X103497050Y-104890800D01*
X103009550Y-104890800D01*
X102985658Y-104889626D01*
X102961997Y-104886116D01*
X102938793Y-104880304D01*
X102916271Y-104872246D01*
X102894647Y-104862018D01*
X102874130Y-104849721D01*
X102854917Y-104835471D01*
X102837193Y-104819407D01*
X102821129Y-104801683D01*
X102806879Y-104782470D01*
X102794582Y-104761953D01*
X102784354Y-104740329D01*
X102776296Y-104717807D01*
X102770484Y-104694603D01*
X102766974Y-104670942D01*
X102765800Y-104647050D01*
X102765800Y-103734550D01*
X102766974Y-103710658D01*
X102770484Y-103686997D01*
X102776296Y-103663793D01*
X102784354Y-103641271D01*
X102794582Y-103619647D01*
X102806879Y-103599130D01*
X102821129Y-103579917D01*
X102837193Y-103562193D01*
X102854917Y-103546129D01*
X102874130Y-103531879D01*
X102894647Y-103519582D01*
X102916271Y-103509354D01*
X102938793Y-103501296D01*
X102961997Y-103495484D01*
X102985658Y-103491974D01*
X103009550Y-103490800D01*
X103497050Y-103490800D01*
X103520942Y-103491974D01*
X103520942Y-103491974D01*
G37*
D12*
G04 #@! TD*
G04 #@! TO.P,R2,1*
G04 #@! TO.N,VCC*
X103253300Y-104190800D03*
D11*
G04 #@! TO.N,/WIND_SPEED*
G04 #@! TO.C,R3*
G36*
X112189342Y-103986174D02*
X112213003Y-103989684D01*
X112236207Y-103995496D01*
X112258729Y-104003554D01*
X112280353Y-104013782D01*
X112300870Y-104026079D01*
X112320083Y-104040329D01*
X112337807Y-104056393D01*
X112353871Y-104074117D01*
X112368121Y-104093330D01*
X112380418Y-104113847D01*
X112390646Y-104135471D01*
X112398704Y-104157993D01*
X112404516Y-104181197D01*
X112408026Y-104204858D01*
X112409200Y-104228750D01*
X112409200Y-104716250D01*
X112408026Y-104740142D01*
X112404516Y-104763803D01*
X112398704Y-104787007D01*
X112390646Y-104809529D01*
X112380418Y-104831153D01*
X112368121Y-104851670D01*
X112353871Y-104870883D01*
X112337807Y-104888607D01*
X112320083Y-104904671D01*
X112300870Y-104918921D01*
X112280353Y-104931218D01*
X112258729Y-104941446D01*
X112236207Y-104949504D01*
X112213003Y-104955316D01*
X112189342Y-104958826D01*
X112165450Y-104960000D01*
X111252950Y-104960000D01*
X111229058Y-104958826D01*
X111205397Y-104955316D01*
X111182193Y-104949504D01*
X111159671Y-104941446D01*
X111138047Y-104931218D01*
X111117530Y-104918921D01*
X111098317Y-104904671D01*
X111080593Y-104888607D01*
X111064529Y-104870883D01*
X111050279Y-104851670D01*
X111037982Y-104831153D01*
X111027754Y-104809529D01*
X111019696Y-104787007D01*
X111013884Y-104763803D01*
X111010374Y-104740142D01*
X111009200Y-104716250D01*
X111009200Y-104228750D01*
X111010374Y-104204858D01*
X111013884Y-104181197D01*
X111019696Y-104157993D01*
X111027754Y-104135471D01*
X111037982Y-104113847D01*
X111050279Y-104093330D01*
X111064529Y-104074117D01*
X111080593Y-104056393D01*
X111098317Y-104040329D01*
X111117530Y-104026079D01*
X111138047Y-104013782D01*
X111159671Y-104003554D01*
X111182193Y-103995496D01*
X111205397Y-103989684D01*
X111229058Y-103986174D01*
X111252950Y-103985000D01*
X112165450Y-103985000D01*
X112189342Y-103986174D01*
X112189342Y-103986174D01*
G37*
D12*
G04 #@! TD*
G04 #@! TO.P,R3,2*
G04 #@! TO.N,/WIND_SPEED*
X111709200Y-104472500D03*
D11*
G04 #@! TO.N,VCC*
G04 #@! TO.C,R3*
G36*
X112189342Y-105861174D02*
X112213003Y-105864684D01*
X112236207Y-105870496D01*
X112258729Y-105878554D01*
X112280353Y-105888782D01*
X112300870Y-105901079D01*
X112320083Y-105915329D01*
X112337807Y-105931393D01*
X112353871Y-105949117D01*
X112368121Y-105968330D01*
X112380418Y-105988847D01*
X112390646Y-106010471D01*
X112398704Y-106032993D01*
X112404516Y-106056197D01*
X112408026Y-106079858D01*
X112409200Y-106103750D01*
X112409200Y-106591250D01*
X112408026Y-106615142D01*
X112404516Y-106638803D01*
X112398704Y-106662007D01*
X112390646Y-106684529D01*
X112380418Y-106706153D01*
X112368121Y-106726670D01*
X112353871Y-106745883D01*
X112337807Y-106763607D01*
X112320083Y-106779671D01*
X112300870Y-106793921D01*
X112280353Y-106806218D01*
X112258729Y-106816446D01*
X112236207Y-106824504D01*
X112213003Y-106830316D01*
X112189342Y-106833826D01*
X112165450Y-106835000D01*
X111252950Y-106835000D01*
X111229058Y-106833826D01*
X111205397Y-106830316D01*
X111182193Y-106824504D01*
X111159671Y-106816446D01*
X111138047Y-106806218D01*
X111117530Y-106793921D01*
X111098317Y-106779671D01*
X111080593Y-106763607D01*
X111064529Y-106745883D01*
X111050279Y-106726670D01*
X111037982Y-106706153D01*
X111027754Y-106684529D01*
X111019696Y-106662007D01*
X111013884Y-106638803D01*
X111010374Y-106615142D01*
X111009200Y-106591250D01*
X111009200Y-106103750D01*
X111010374Y-106079858D01*
X111013884Y-106056197D01*
X111019696Y-106032993D01*
X111027754Y-106010471D01*
X111037982Y-105988847D01*
X111050279Y-105968330D01*
X111064529Y-105949117D01*
X111080593Y-105931393D01*
X111098317Y-105915329D01*
X111117530Y-105901079D01*
X111138047Y-105888782D01*
X111159671Y-105878554D01*
X111182193Y-105870496D01*
X111205397Y-105864684D01*
X111229058Y-105861174D01*
X111252950Y-105860000D01*
X112165450Y-105860000D01*
X112189342Y-105861174D01*
X112189342Y-105861174D01*
G37*
D12*
G04 #@! TD*
G04 #@! TO.P,R3,1*
G04 #@! TO.N,VCC*
X111709200Y-106347500D03*
D13*
G04 #@! TO.P,U2,1*
G04 #@! TO.N,GND*
X133000000Y-48500000D03*
G04 #@! TO.P,U2,2*
G04 #@! TO.N,/MISO*
X131000000Y-48500000D03*
G04 #@! TO.P,U2,3*
G04 #@! TO.N,/MOSI*
X129000000Y-48500000D03*
G04 #@! TO.P,U2,4*
G04 #@! TO.N,/SCK*
X127000000Y-48500000D03*
G04 #@! TO.P,U2,5*
G04 #@! TO.N,/RFM_SS*
X125000000Y-48500000D03*
G04 #@! TO.P,U2,6*
G04 #@! TO.N,/RFM_RESET*
X123000000Y-48500000D03*
G04 #@! TO.P,U2,7*
G04 #@! TO.N,N/C*
X121000000Y-48500000D03*
G04 #@! TO.P,U2,8*
G04 #@! TO.N,GND*
X119000000Y-48500000D03*
G04 #@! TO.P,U2,9*
G04 #@! TO.N,Net-(C7-Pad1)*
X119000000Y-63500000D03*
G04 #@! TO.P,U2,10*
G04 #@! TO.N,GND*
X121000000Y-63500000D03*
G04 #@! TO.P,U2,11*
G04 #@! TO.N,N/C*
X123000000Y-63500000D03*
G04 #@! TO.P,U2,12*
X125000000Y-63500000D03*
G04 #@! TO.P,U2,13*
G04 #@! TO.N,VCC*
X127000000Y-63500000D03*
G04 #@! TO.P,U2,14*
G04 #@! TO.N,/RFM_D0*
X129000000Y-63500000D03*
G04 #@! TO.P,U2,15*
G04 #@! TO.N,/RFM_D1*
X131000000Y-63500000D03*
G04 #@! TO.P,U2,16*
G04 #@! TO.N,/RFM_D2*
X133000000Y-63500000D03*
G04 #@! TD*
D14*
G04 #@! TO.P,U3,1*
G04 #@! TO.N,/MOSI*
X119300000Y-90000000D03*
G04 #@! TO.P,U3,2*
G04 #@! TO.N,/MISO*
X119300000Y-90800000D03*
G04 #@! TO.P,U3,3*
G04 #@! TO.N,/SCK*
X119300000Y-91600000D03*
G04 #@! TO.P,U3,4*
G04 #@! TO.N,/RESET*
X119300000Y-92400000D03*
G04 #@! TO.P,U3,5*
G04 #@! TO.N,VCC*
X119300000Y-93200000D03*
G04 #@! TO.P,U3,6*
G04 #@! TO.N,GND*
X119300000Y-94000000D03*
G04 #@! TO.P,U3,7*
G04 #@! TO.N,Net-(C8-Pad1)*
X119300000Y-94800000D03*
G04 #@! TO.P,U3,8*
G04 #@! TO.N,Net-(C9-Pad1)*
X119300000Y-95600000D03*
G04 #@! TO.P,U3,9*
G04 #@! TO.N,Net-(J13-Pad1)*
X119300000Y-96400000D03*
G04 #@! TO.P,U3,10*
G04 #@! TO.N,Net-(J13-Pad2)*
X119300000Y-97200000D03*
G04 #@! TO.P,U3,11*
G04 #@! TO.N,/WIND_SPEED*
X119300000Y-98000000D03*
D15*
G04 #@! TO.P,U3,12*
G04 #@! TO.N,/RAIN*
X121000000Y-99700000D03*
G04 #@! TO.P,U3,13*
G04 #@! TO.N,N/C*
X121800000Y-99700000D03*
G04 #@! TO.P,U3,14*
X122600000Y-99700000D03*
G04 #@! TO.P,U3,15*
X123400000Y-99700000D03*
G04 #@! TO.P,U3,16*
G04 #@! TO.N,Net-(D1-Pad2)*
X124200000Y-99700000D03*
G04 #@! TO.P,U3,17*
G04 #@! TO.N,VCC*
X125000000Y-99700000D03*
G04 #@! TO.P,U3,18*
G04 #@! TO.N,GND*
X125800000Y-99700000D03*
G04 #@! TO.P,U3,19*
G04 #@! TO.N,Net-(J12-Pad1)*
X126600000Y-99700000D03*
G04 #@! TO.P,U3,20*
G04 #@! TO.N,Net-(J12-Pad2)*
X127400000Y-99700000D03*
G04 #@! TO.P,U3,21*
G04 #@! TO.N,/RFM_D0*
X128200000Y-99700000D03*
G04 #@! TO.P,U3,22*
G04 #@! TO.N,/RFM_D1*
X129000000Y-99700000D03*
D14*
G04 #@! TO.P,U3,23*
G04 #@! TO.N,/RFM_D2*
X130700000Y-98000000D03*
G04 #@! TO.P,U3,24*
G04 #@! TO.N,/RFM_RESET*
X130700000Y-97200000D03*
G04 #@! TO.P,U3,25*
G04 #@! TO.N,N/C*
X130700000Y-96400000D03*
G04 #@! TO.P,U3,26*
X130700000Y-95600000D03*
G04 #@! TO.P,U3,27*
G04 #@! TO.N,VCC*
X130700000Y-94800000D03*
G04 #@! TO.P,U3,28*
G04 #@! TO.N,GND*
X130700000Y-94000000D03*
G04 #@! TO.P,U3,29*
G04 #@! TO.N,Net-(C10-Pad1)*
X130700000Y-93200000D03*
G04 #@! TO.P,U3,30*
G04 #@! TO.N,/WIND_DIR*
X130700000Y-92400000D03*
G04 #@! TO.P,U3,31*
G04 #@! TO.N,/SOLAR_1*
X130700000Y-91600000D03*
G04 #@! TO.P,U3,32*
G04 #@! TO.N,/SOLAR_2*
X130700000Y-90800000D03*
G04 #@! TO.P,U3,33*
G04 #@! TO.N,/SOLAR_5*
X130700000Y-90000000D03*
D15*
G04 #@! TO.P,U3,34*
G04 #@! TO.N,/SOLAR_6*
X129000000Y-88300000D03*
G04 #@! TO.P,U3,35*
G04 #@! TO.N,N/C*
X128200000Y-88300000D03*
G04 #@! TO.P,U3,36*
X127400000Y-88300000D03*
G04 #@! TO.P,U3,37*
X126600000Y-88300000D03*
G04 #@! TO.P,U3,38*
G04 #@! TO.N,VCC*
X125800000Y-88300000D03*
G04 #@! TO.P,U3,39*
G04 #@! TO.N,GND*
X125000000Y-88300000D03*
G04 #@! TO.P,U3,40*
G04 #@! TO.N,N/C*
X124200000Y-88300000D03*
G04 #@! TO.P,U3,41*
X123400000Y-88300000D03*
G04 #@! TO.P,U3,42*
G04 #@! TO.N,Net-(J11-Pad1)*
X122600000Y-88300000D03*
G04 #@! TO.P,U3,43*
G04 #@! TO.N,/RFM_SS*
X121800000Y-88300000D03*
G04 #@! TO.P,U3,44*
G04 #@! TO.N,/BME_SS*
X121000000Y-88300000D03*
G04 #@! TD*
D16*
G04 #@! TO.P,J11,1*
G04 #@! TO.N,Net-(J11-Pad1)*
X127406400Y-79400400D03*
G04 #@! TD*
G04 #@! TO.P,J12,1*
G04 #@! TO.N,Net-(J12-Pad1)*
X125000000Y-102000000D03*
D17*
G04 #@! TO.P,J12,2*
G04 #@! TO.N,Net-(J12-Pad2)*
X127540000Y-102000000D03*
G04 #@! TD*
D16*
G04 #@! TO.P,J13,1*
G04 #@! TO.N,Net-(J13-Pad1)*
X114960400Y-100533200D03*
D17*
G04 #@! TO.P,J13,2*
G04 #@! TO.N,Net-(J13-Pad2)*
X117500400Y-100533200D03*
G04 #@! TD*
D18*
G04 #@! TO.P,Y1,1*
G04 #@! TO.N,Net-(C9-Pad1)*
X113772000Y-96495200D03*
G04 #@! TO.P,Y1,2*
G04 #@! TO.N,Net-(C8-Pad1)*
X113772000Y-93395200D03*
G04 #@! TO.P,Y1,3*
G04 #@! TO.N,N/C*
X111272000Y-93395200D03*
G04 #@! TO.P,Y1,4*
X111272000Y-96495200D03*
G04 #@! TD*
D19*
G04 #@! TO.P,D1,1*
G04 #@! TO.N,Net-(D1-Pad1)*
X116250000Y-83000000D03*
D20*
G04 #@! TO.P,D1,2*
G04 #@! TO.N,Net-(D1-Pad2)*
X118790000Y-83000000D03*
G04 #@! TD*
D21*
G04 #@! TO.P,U1,8*
G04 #@! TO.N,VCC*
X113975000Y-81875000D03*
G04 #@! TO.P,U1,7*
G04 #@! TO.N,GND*
X113325000Y-81875000D03*
G04 #@! TO.P,U1,6*
G04 #@! TO.N,VCC*
X112675000Y-81875000D03*
G04 #@! TO.P,U1,5*
G04 #@! TO.N,/MISO*
X112025000Y-81875000D03*
G04 #@! TO.P,U1,4*
G04 #@! TO.N,/SCK*
X112025000Y-84125000D03*
G04 #@! TO.P,U1,3*
G04 #@! TO.N,/MOSI*
X112675000Y-84125000D03*
G04 #@! TO.P,U1,2*
G04 #@! TO.N,/BME_SS*
X113325000Y-84125000D03*
G04 #@! TO.P,U1,1*
G04 #@! TO.N,GND*
X113975000Y-84125000D03*
G04 #@! TD*
D16*
G04 #@! TO.P,J6,1*
G04 #@! TO.N,VCC*
X102514400Y-101346000D03*
G04 #@! TD*
G04 #@! TO.P,J7,1*
G04 #@! TO.N,/SCK*
X109372400Y-86563200D03*
G04 #@! TD*
G04 #@! TO.P,J8,1*
G04 #@! TO.N,/MOSI*
X124002800Y-80518000D03*
G04 #@! TD*
G04 #@! TO.P,J9,1*
G04 #@! TO.N,/RESET*
X103733600Y-88341200D03*
G04 #@! TD*
G04 #@! TO.P,J10,1*
G04 #@! TO.N,GND*
X132283200Y-85394800D03*
G04 #@! TD*
G04 #@! TO.P,J5,1*
G04 #@! TO.N,/MISO*
X109372400Y-88849200D03*
G04 #@! TD*
D22*
G04 #@! TO.P,J4,8*
G04 #@! TO.N,GND*
X129580000Y-118000000D03*
D23*
G04 #@! TO.P,J4,1*
G04 #@! TO.N,/SOLAR_1*
X121325000Y-109110000D03*
G04 #@! TO.P,J4,2*
G04 #@! TO.N,/SOLAR_2*
X122595000Y-111650000D03*
G04 #@! TO.P,J4,3*
G04 #@! TO.N,/RAIN*
X123865000Y-109110000D03*
G04 #@! TO.P,J4,4*
G04 #@! TO.N,GND*
X125135000Y-111650000D03*
G04 #@! TO.P,J4,5*
G04 #@! TO.N,/SOLAR_5*
X126405000Y-109110000D03*
G04 #@! TO.P,J4,6*
G04 #@! TO.N,/SOLAR_6*
X127675000Y-111650000D03*
D22*
G04 #@! TO.P,J4,7*
G04 #@! TO.N,GND*
X119420000Y-118000000D03*
G04 #@! TD*
G04 #@! TO.P,J1,8*
G04 #@! TO.N,GND*
X115580000Y-118000000D03*
D23*
G04 #@! TO.P,J1,1*
G04 #@! TO.N,N/C*
X107325000Y-109110000D03*
G04 #@! TO.P,J1,2*
G04 #@! TO.N,/WIND_DIR*
X108595000Y-111650000D03*
G04 #@! TO.P,J1,3*
G04 #@! TO.N,/WIND_SPEED*
X109865000Y-109110000D03*
G04 #@! TO.P,J1,4*
G04 #@! TO.N,GND*
X111135000Y-111650000D03*
G04 #@! TO.P,J1,5*
X112405000Y-109110000D03*
G04 #@! TO.P,J1,6*
G04 #@! TO.N,N/C*
X113675000Y-111650000D03*
D22*
G04 #@! TO.P,J1,7*
G04 #@! TO.N,GND*
X105420000Y-118000000D03*
G04 #@! TD*
D24*
G04 #@! TO.P,J2,1*
G04 #@! TO.N,GND*
X106500000Y-131000000D03*
X112500000Y-131000000D03*
G04 #@! TD*
G04 #@! TO.P,J3,1*
G04 #@! TO.N,VCC*
X122500000Y-131000000D03*
X128500000Y-131000000D03*
G04 #@! TD*
D25*
G04 #@! TO.N,*
G04 #@! TO.C,AE1*
X107000000Y-47000000D03*
X101000000Y-49000000D03*
X107000000Y-49000000D03*
X101000000Y-51000000D03*
X107000000Y-51000000D03*
X101000000Y-53000000D03*
X107000000Y-53000000D03*
X101000000Y-55000000D03*
X107000000Y-55000000D03*
X101000000Y-57000000D03*
X107000000Y-57000000D03*
X101000000Y-59000000D03*
X107000000Y-59000000D03*
X101000000Y-61000000D03*
X107000000Y-61000000D03*
X101000000Y-63000000D03*
X107000000Y-63000000D03*
X101000000Y-65000000D03*
D26*
G04 #@! TD*
G04 #@! TO.P,AE1,1*
G04 #@! TO.N,Net-(AE1-Pad1)*
X113000000Y-65000000D03*
D11*
G04 #@! TO.N,GND*
G04 #@! TO.C,C1*
G36*
X123785542Y-105015974D02*
X123809203Y-105019484D01*
X123832407Y-105025296D01*
X123854929Y-105033354D01*
X123876553Y-105043582D01*
X123897070Y-105055879D01*
X123916283Y-105070129D01*
X123934007Y-105086193D01*
X123950071Y-105103917D01*
X123964321Y-105123130D01*
X123976618Y-105143647D01*
X123986846Y-105165271D01*
X123994904Y-105187793D01*
X124000716Y-105210997D01*
X124004226Y-105234658D01*
X124005400Y-105258550D01*
X124005400Y-106171050D01*
X124004226Y-106194942D01*
X124000716Y-106218603D01*
X123994904Y-106241807D01*
X123986846Y-106264329D01*
X123976618Y-106285953D01*
X123964321Y-106306470D01*
X123950071Y-106325683D01*
X123934007Y-106343407D01*
X123916283Y-106359471D01*
X123897070Y-106373721D01*
X123876553Y-106386018D01*
X123854929Y-106396246D01*
X123832407Y-106404304D01*
X123809203Y-106410116D01*
X123785542Y-106413626D01*
X123761650Y-106414800D01*
X123274150Y-106414800D01*
X123250258Y-106413626D01*
X123226597Y-106410116D01*
X123203393Y-106404304D01*
X123180871Y-106396246D01*
X123159247Y-106386018D01*
X123138730Y-106373721D01*
X123119517Y-106359471D01*
X123101793Y-106343407D01*
X123085729Y-106325683D01*
X123071479Y-106306470D01*
X123059182Y-106285953D01*
X123048954Y-106264329D01*
X123040896Y-106241807D01*
X123035084Y-106218603D01*
X123031574Y-106194942D01*
X123030400Y-106171050D01*
X123030400Y-105258550D01*
X123031574Y-105234658D01*
X123035084Y-105210997D01*
X123040896Y-105187793D01*
X123048954Y-105165271D01*
X123059182Y-105143647D01*
X123071479Y-105123130D01*
X123085729Y-105103917D01*
X123101793Y-105086193D01*
X123119517Y-105070129D01*
X123138730Y-105055879D01*
X123159247Y-105043582D01*
X123180871Y-105033354D01*
X123203393Y-105025296D01*
X123226597Y-105019484D01*
X123250258Y-105015974D01*
X123274150Y-105014800D01*
X123761650Y-105014800D01*
X123785542Y-105015974D01*
X123785542Y-105015974D01*
G37*
D12*
G04 #@! TD*
G04 #@! TO.P,C1,2*
G04 #@! TO.N,GND*
X123517900Y-105714800D03*
D11*
G04 #@! TO.N,/RAIN*
G04 #@! TO.C,C1*
G36*
X121910542Y-105015974D02*
X121934203Y-105019484D01*
X121957407Y-105025296D01*
X121979929Y-105033354D01*
X122001553Y-105043582D01*
X122022070Y-105055879D01*
X122041283Y-105070129D01*
X122059007Y-105086193D01*
X122075071Y-105103917D01*
X122089321Y-105123130D01*
X122101618Y-105143647D01*
X122111846Y-105165271D01*
X122119904Y-105187793D01*
X122125716Y-105210997D01*
X122129226Y-105234658D01*
X122130400Y-105258550D01*
X122130400Y-106171050D01*
X122129226Y-106194942D01*
X122125716Y-106218603D01*
X122119904Y-106241807D01*
X122111846Y-106264329D01*
X122101618Y-106285953D01*
X122089321Y-106306470D01*
X122075071Y-106325683D01*
X122059007Y-106343407D01*
X122041283Y-106359471D01*
X122022070Y-106373721D01*
X122001553Y-106386018D01*
X121979929Y-106396246D01*
X121957407Y-106404304D01*
X121934203Y-106410116D01*
X121910542Y-106413626D01*
X121886650Y-106414800D01*
X121399150Y-106414800D01*
X121375258Y-106413626D01*
X121351597Y-106410116D01*
X121328393Y-106404304D01*
X121305871Y-106396246D01*
X121284247Y-106386018D01*
X121263730Y-106373721D01*
X121244517Y-106359471D01*
X121226793Y-106343407D01*
X121210729Y-106325683D01*
X121196479Y-106306470D01*
X121184182Y-106285953D01*
X121173954Y-106264329D01*
X121165896Y-106241807D01*
X121160084Y-106218603D01*
X121156574Y-106194942D01*
X121155400Y-106171050D01*
X121155400Y-105258550D01*
X121156574Y-105234658D01*
X121160084Y-105210997D01*
X121165896Y-105187793D01*
X121173954Y-105165271D01*
X121184182Y-105143647D01*
X121196479Y-105123130D01*
X121210729Y-105103917D01*
X121226793Y-105086193D01*
X121244517Y-105070129D01*
X121263730Y-105055879D01*
X121284247Y-105043582D01*
X121305871Y-105033354D01*
X121328393Y-105025296D01*
X121351597Y-105019484D01*
X121375258Y-105015974D01*
X121399150Y-105014800D01*
X121886650Y-105014800D01*
X121910542Y-105015974D01*
X121910542Y-105015974D01*
G37*
D12*
G04 #@! TD*
G04 #@! TO.P,C1,1*
G04 #@! TO.N,/RAIN*
X121642900Y-105714800D03*
D11*
G04 #@! TO.N,GND*
G04 #@! TO.C,C2*
G36*
X103368542Y-105320774D02*
X103392203Y-105324284D01*
X103415407Y-105330096D01*
X103437929Y-105338154D01*
X103459553Y-105348382D01*
X103480070Y-105360679D01*
X103499283Y-105374929D01*
X103517007Y-105390993D01*
X103533071Y-105408717D01*
X103547321Y-105427930D01*
X103559618Y-105448447D01*
X103569846Y-105470071D01*
X103577904Y-105492593D01*
X103583716Y-105515797D01*
X103587226Y-105539458D01*
X103588400Y-105563350D01*
X103588400Y-106475850D01*
X103587226Y-106499742D01*
X103583716Y-106523403D01*
X103577904Y-106546607D01*
X103569846Y-106569129D01*
X103559618Y-106590753D01*
X103547321Y-106611270D01*
X103533071Y-106630483D01*
X103517007Y-106648207D01*
X103499283Y-106664271D01*
X103480070Y-106678521D01*
X103459553Y-106690818D01*
X103437929Y-106701046D01*
X103415407Y-106709104D01*
X103392203Y-106714916D01*
X103368542Y-106718426D01*
X103344650Y-106719600D01*
X102857150Y-106719600D01*
X102833258Y-106718426D01*
X102809597Y-106714916D01*
X102786393Y-106709104D01*
X102763871Y-106701046D01*
X102742247Y-106690818D01*
X102721730Y-106678521D01*
X102702517Y-106664271D01*
X102684793Y-106648207D01*
X102668729Y-106630483D01*
X102654479Y-106611270D01*
X102642182Y-106590753D01*
X102631954Y-106569129D01*
X102623896Y-106546607D01*
X102618084Y-106523403D01*
X102614574Y-106499742D01*
X102613400Y-106475850D01*
X102613400Y-105563350D01*
X102614574Y-105539458D01*
X102618084Y-105515797D01*
X102623896Y-105492593D01*
X102631954Y-105470071D01*
X102642182Y-105448447D01*
X102654479Y-105427930D01*
X102668729Y-105408717D01*
X102684793Y-105390993D01*
X102702517Y-105374929D01*
X102721730Y-105360679D01*
X102742247Y-105348382D01*
X102763871Y-105338154D01*
X102786393Y-105330096D01*
X102809597Y-105324284D01*
X102833258Y-105320774D01*
X102857150Y-105319600D01*
X103344650Y-105319600D01*
X103368542Y-105320774D01*
X103368542Y-105320774D01*
G37*
D12*
G04 #@! TD*
G04 #@! TO.P,C2,2*
G04 #@! TO.N,GND*
X103100900Y-106019600D03*
D11*
G04 #@! TO.N,/WIND_DIR*
G04 #@! TO.C,C2*
G36*
X105243542Y-105320774D02*
X105267203Y-105324284D01*
X105290407Y-105330096D01*
X105312929Y-105338154D01*
X105334553Y-105348382D01*
X105355070Y-105360679D01*
X105374283Y-105374929D01*
X105392007Y-105390993D01*
X105408071Y-105408717D01*
X105422321Y-105427930D01*
X105434618Y-105448447D01*
X105444846Y-105470071D01*
X105452904Y-105492593D01*
X105458716Y-105515797D01*
X105462226Y-105539458D01*
X105463400Y-105563350D01*
X105463400Y-106475850D01*
X105462226Y-106499742D01*
X105458716Y-106523403D01*
X105452904Y-106546607D01*
X105444846Y-106569129D01*
X105434618Y-106590753D01*
X105422321Y-106611270D01*
X105408071Y-106630483D01*
X105392007Y-106648207D01*
X105374283Y-106664271D01*
X105355070Y-106678521D01*
X105334553Y-106690818D01*
X105312929Y-106701046D01*
X105290407Y-106709104D01*
X105267203Y-106714916D01*
X105243542Y-106718426D01*
X105219650Y-106719600D01*
X104732150Y-106719600D01*
X104708258Y-106718426D01*
X104684597Y-106714916D01*
X104661393Y-106709104D01*
X104638871Y-106701046D01*
X104617247Y-106690818D01*
X104596730Y-106678521D01*
X104577517Y-106664271D01*
X104559793Y-106648207D01*
X104543729Y-106630483D01*
X104529479Y-106611270D01*
X104517182Y-106590753D01*
X104506954Y-106569129D01*
X104498896Y-106546607D01*
X104493084Y-106523403D01*
X104489574Y-106499742D01*
X104488400Y-106475850D01*
X104488400Y-105563350D01*
X104489574Y-105539458D01*
X104493084Y-105515797D01*
X104498896Y-105492593D01*
X104506954Y-105470071D01*
X104517182Y-105448447D01*
X104529479Y-105427930D01*
X104543729Y-105408717D01*
X104559793Y-105390993D01*
X104577517Y-105374929D01*
X104596730Y-105360679D01*
X104617247Y-105348382D01*
X104638871Y-105338154D01*
X104661393Y-105330096D01*
X104684597Y-105324284D01*
X104708258Y-105320774D01*
X104732150Y-105319600D01*
X105219650Y-105319600D01*
X105243542Y-105320774D01*
X105243542Y-105320774D01*
G37*
D12*
G04 #@! TD*
G04 #@! TO.P,C2,1*
G04 #@! TO.N,/WIND_DIR*
X104975900Y-106019600D03*
D11*
G04 #@! TO.N,/WIND_SPEED*
G04 #@! TO.C,C3*
G36*
X108748742Y-105320774D02*
X108772403Y-105324284D01*
X108795607Y-105330096D01*
X108818129Y-105338154D01*
X108839753Y-105348382D01*
X108860270Y-105360679D01*
X108879483Y-105374929D01*
X108897207Y-105390993D01*
X108913271Y-105408717D01*
X108927521Y-105427930D01*
X108939818Y-105448447D01*
X108950046Y-105470071D01*
X108958104Y-105492593D01*
X108963916Y-105515797D01*
X108967426Y-105539458D01*
X108968600Y-105563350D01*
X108968600Y-106475850D01*
X108967426Y-106499742D01*
X108963916Y-106523403D01*
X108958104Y-106546607D01*
X108950046Y-106569129D01*
X108939818Y-106590753D01*
X108927521Y-106611270D01*
X108913271Y-106630483D01*
X108897207Y-106648207D01*
X108879483Y-106664271D01*
X108860270Y-106678521D01*
X108839753Y-106690818D01*
X108818129Y-106701046D01*
X108795607Y-106709104D01*
X108772403Y-106714916D01*
X108748742Y-106718426D01*
X108724850Y-106719600D01*
X108237350Y-106719600D01*
X108213458Y-106718426D01*
X108189797Y-106714916D01*
X108166593Y-106709104D01*
X108144071Y-106701046D01*
X108122447Y-106690818D01*
X108101930Y-106678521D01*
X108082717Y-106664271D01*
X108064993Y-106648207D01*
X108048929Y-106630483D01*
X108034679Y-106611270D01*
X108022382Y-106590753D01*
X108012154Y-106569129D01*
X108004096Y-106546607D01*
X107998284Y-106523403D01*
X107994774Y-106499742D01*
X107993600Y-106475850D01*
X107993600Y-105563350D01*
X107994774Y-105539458D01*
X107998284Y-105515797D01*
X108004096Y-105492593D01*
X108012154Y-105470071D01*
X108022382Y-105448447D01*
X108034679Y-105427930D01*
X108048929Y-105408717D01*
X108064993Y-105390993D01*
X108082717Y-105374929D01*
X108101930Y-105360679D01*
X108122447Y-105348382D01*
X108144071Y-105338154D01*
X108166593Y-105330096D01*
X108189797Y-105324284D01*
X108213458Y-105320774D01*
X108237350Y-105319600D01*
X108724850Y-105319600D01*
X108748742Y-105320774D01*
X108748742Y-105320774D01*
G37*
D12*
G04 #@! TD*
G04 #@! TO.P,C3,1*
G04 #@! TO.N,/WIND_SPEED*
X108481100Y-106019600D03*
D11*
G04 #@! TO.N,GND*
G04 #@! TO.C,C3*
G36*
X106873742Y-105320774D02*
X106897403Y-105324284D01*
X106920607Y-105330096D01*
X106943129Y-105338154D01*
X106964753Y-105348382D01*
X106985270Y-105360679D01*
X107004483Y-105374929D01*
X107022207Y-105390993D01*
X107038271Y-105408717D01*
X107052521Y-105427930D01*
X107064818Y-105448447D01*
X107075046Y-105470071D01*
X107083104Y-105492593D01*
X107088916Y-105515797D01*
X107092426Y-105539458D01*
X107093600Y-105563350D01*
X107093600Y-106475850D01*
X107092426Y-106499742D01*
X107088916Y-106523403D01*
X107083104Y-106546607D01*
X107075046Y-106569129D01*
X107064818Y-106590753D01*
X107052521Y-106611270D01*
X107038271Y-106630483D01*
X107022207Y-106648207D01*
X107004483Y-106664271D01*
X106985270Y-106678521D01*
X106964753Y-106690818D01*
X106943129Y-106701046D01*
X106920607Y-106709104D01*
X106897403Y-106714916D01*
X106873742Y-106718426D01*
X106849850Y-106719600D01*
X106362350Y-106719600D01*
X106338458Y-106718426D01*
X106314797Y-106714916D01*
X106291593Y-106709104D01*
X106269071Y-106701046D01*
X106247447Y-106690818D01*
X106226930Y-106678521D01*
X106207717Y-106664271D01*
X106189993Y-106648207D01*
X106173929Y-106630483D01*
X106159679Y-106611270D01*
X106147382Y-106590753D01*
X106137154Y-106569129D01*
X106129096Y-106546607D01*
X106123284Y-106523403D01*
X106119774Y-106499742D01*
X106118600Y-106475850D01*
X106118600Y-105563350D01*
X106119774Y-105539458D01*
X106123284Y-105515797D01*
X106129096Y-105492593D01*
X106137154Y-105470071D01*
X106147382Y-105448447D01*
X106159679Y-105427930D01*
X106173929Y-105408717D01*
X106189993Y-105390993D01*
X106207717Y-105374929D01*
X106226930Y-105360679D01*
X106247447Y-105348382D01*
X106269071Y-105338154D01*
X106291593Y-105330096D01*
X106314797Y-105324284D01*
X106338458Y-105320774D01*
X106362350Y-105319600D01*
X106849850Y-105319600D01*
X106873742Y-105320774D01*
X106873742Y-105320774D01*
G37*
D12*
G04 #@! TD*
G04 #@! TO.P,C3,2*
G04 #@! TO.N,GND*
X106606100Y-106019600D03*
D11*
G04 #@! TO.N,VCC*
G04 #@! TO.C,C4*
G36*
X127189142Y-67677974D02*
X127212803Y-67681484D01*
X127236007Y-67687296D01*
X127258529Y-67695354D01*
X127280153Y-67705582D01*
X127300670Y-67717879D01*
X127319883Y-67732129D01*
X127337607Y-67748193D01*
X127353671Y-67765917D01*
X127367921Y-67785130D01*
X127380218Y-67805647D01*
X127390446Y-67827271D01*
X127398504Y-67849793D01*
X127404316Y-67872997D01*
X127407826Y-67896658D01*
X127409000Y-67920550D01*
X127409000Y-68833050D01*
X127407826Y-68856942D01*
X127404316Y-68880603D01*
X127398504Y-68903807D01*
X127390446Y-68926329D01*
X127380218Y-68947953D01*
X127367921Y-68968470D01*
X127353671Y-68987683D01*
X127337607Y-69005407D01*
X127319883Y-69021471D01*
X127300670Y-69035721D01*
X127280153Y-69048018D01*
X127258529Y-69058246D01*
X127236007Y-69066304D01*
X127212803Y-69072116D01*
X127189142Y-69075626D01*
X127165250Y-69076800D01*
X126677750Y-69076800D01*
X126653858Y-69075626D01*
X126630197Y-69072116D01*
X126606993Y-69066304D01*
X126584471Y-69058246D01*
X126562847Y-69048018D01*
X126542330Y-69035721D01*
X126523117Y-69021471D01*
X126505393Y-69005407D01*
X126489329Y-68987683D01*
X126475079Y-68968470D01*
X126462782Y-68947953D01*
X126452554Y-68926329D01*
X126444496Y-68903807D01*
X126438684Y-68880603D01*
X126435174Y-68856942D01*
X126434000Y-68833050D01*
X126434000Y-67920550D01*
X126435174Y-67896658D01*
X126438684Y-67872997D01*
X126444496Y-67849793D01*
X126452554Y-67827271D01*
X126462782Y-67805647D01*
X126475079Y-67785130D01*
X126489329Y-67765917D01*
X126505393Y-67748193D01*
X126523117Y-67732129D01*
X126542330Y-67717879D01*
X126562847Y-67705582D01*
X126584471Y-67695354D01*
X126606993Y-67687296D01*
X126630197Y-67681484D01*
X126653858Y-67677974D01*
X126677750Y-67676800D01*
X127165250Y-67676800D01*
X127189142Y-67677974D01*
X127189142Y-67677974D01*
G37*
D12*
G04 #@! TD*
G04 #@! TO.P,C4,1*
G04 #@! TO.N,VCC*
X126921500Y-68376800D03*
D11*
G04 #@! TO.N,GND*
G04 #@! TO.C,C4*
G36*
X125314142Y-67677974D02*
X125337803Y-67681484D01*
X125361007Y-67687296D01*
X125383529Y-67695354D01*
X125405153Y-67705582D01*
X125425670Y-67717879D01*
X125444883Y-67732129D01*
X125462607Y-67748193D01*
X125478671Y-67765917D01*
X125492921Y-67785130D01*
X125505218Y-67805647D01*
X125515446Y-67827271D01*
X125523504Y-67849793D01*
X125529316Y-67872997D01*
X125532826Y-67896658D01*
X125534000Y-67920550D01*
X125534000Y-68833050D01*
X125532826Y-68856942D01*
X125529316Y-68880603D01*
X125523504Y-68903807D01*
X125515446Y-68926329D01*
X125505218Y-68947953D01*
X125492921Y-68968470D01*
X125478671Y-68987683D01*
X125462607Y-69005407D01*
X125444883Y-69021471D01*
X125425670Y-69035721D01*
X125405153Y-69048018D01*
X125383529Y-69058246D01*
X125361007Y-69066304D01*
X125337803Y-69072116D01*
X125314142Y-69075626D01*
X125290250Y-69076800D01*
X124802750Y-69076800D01*
X124778858Y-69075626D01*
X124755197Y-69072116D01*
X124731993Y-69066304D01*
X124709471Y-69058246D01*
X124687847Y-69048018D01*
X124667330Y-69035721D01*
X124648117Y-69021471D01*
X124630393Y-69005407D01*
X124614329Y-68987683D01*
X124600079Y-68968470D01*
X124587782Y-68947953D01*
X124577554Y-68926329D01*
X124569496Y-68903807D01*
X124563684Y-68880603D01*
X124560174Y-68856942D01*
X124559000Y-68833050D01*
X124559000Y-67920550D01*
X124560174Y-67896658D01*
X124563684Y-67872997D01*
X124569496Y-67849793D01*
X124577554Y-67827271D01*
X124587782Y-67805647D01*
X124600079Y-67785130D01*
X124614329Y-67765917D01*
X124630393Y-67748193D01*
X124648117Y-67732129D01*
X124667330Y-67717879D01*
X124687847Y-67705582D01*
X124709471Y-67695354D01*
X124731993Y-67687296D01*
X124755197Y-67681484D01*
X124778858Y-67677974D01*
X124802750Y-67676800D01*
X125290250Y-67676800D01*
X125314142Y-67677974D01*
X125314142Y-67677974D01*
G37*
D12*
G04 #@! TD*
G04 #@! TO.P,C4,2*
G04 #@! TO.N,GND*
X125046500Y-68376800D03*
D11*
G04 #@! TO.N,VCC*
G04 #@! TO.C,C6*
G36*
X116304142Y-76701974D02*
X116327803Y-76705484D01*
X116351007Y-76711296D01*
X116373529Y-76719354D01*
X116395153Y-76729582D01*
X116415670Y-76741879D01*
X116434883Y-76756129D01*
X116452607Y-76772193D01*
X116468671Y-76789917D01*
X116482921Y-76809130D01*
X116495218Y-76829647D01*
X116505446Y-76851271D01*
X116513504Y-76873793D01*
X116519316Y-76896997D01*
X116522826Y-76920658D01*
X116524000Y-76944550D01*
X116524000Y-77432050D01*
X116522826Y-77455942D01*
X116519316Y-77479603D01*
X116513504Y-77502807D01*
X116505446Y-77525329D01*
X116495218Y-77546953D01*
X116482921Y-77567470D01*
X116468671Y-77586683D01*
X116452607Y-77604407D01*
X116434883Y-77620471D01*
X116415670Y-77634721D01*
X116395153Y-77647018D01*
X116373529Y-77657246D01*
X116351007Y-77665304D01*
X116327803Y-77671116D01*
X116304142Y-77674626D01*
X116280250Y-77675800D01*
X115367750Y-77675800D01*
X115343858Y-77674626D01*
X115320197Y-77671116D01*
X115296993Y-77665304D01*
X115274471Y-77657246D01*
X115252847Y-77647018D01*
X115232330Y-77634721D01*
X115213117Y-77620471D01*
X115195393Y-77604407D01*
X115179329Y-77586683D01*
X115165079Y-77567470D01*
X115152782Y-77546953D01*
X115142554Y-77525329D01*
X115134496Y-77502807D01*
X115128684Y-77479603D01*
X115125174Y-77455942D01*
X115124000Y-77432050D01*
X115124000Y-76944550D01*
X115125174Y-76920658D01*
X115128684Y-76896997D01*
X115134496Y-76873793D01*
X115142554Y-76851271D01*
X115152782Y-76829647D01*
X115165079Y-76809130D01*
X115179329Y-76789917D01*
X115195393Y-76772193D01*
X115213117Y-76756129D01*
X115232330Y-76741879D01*
X115252847Y-76729582D01*
X115274471Y-76719354D01*
X115296993Y-76711296D01*
X115320197Y-76705484D01*
X115343858Y-76701974D01*
X115367750Y-76700800D01*
X116280250Y-76700800D01*
X116304142Y-76701974D01*
X116304142Y-76701974D01*
G37*
D12*
G04 #@! TD*
G04 #@! TO.P,C6,1*
G04 #@! TO.N,VCC*
X115824000Y-77188300D03*
D11*
G04 #@! TO.N,GND*
G04 #@! TO.C,C6*
G36*
X116304142Y-74826974D02*
X116327803Y-74830484D01*
X116351007Y-74836296D01*
X116373529Y-74844354D01*
X116395153Y-74854582D01*
X116415670Y-74866879D01*
X116434883Y-74881129D01*
X116452607Y-74897193D01*
X116468671Y-74914917D01*
X116482921Y-74934130D01*
X116495218Y-74954647D01*
X116505446Y-74976271D01*
X116513504Y-74998793D01*
X116519316Y-75021997D01*
X116522826Y-75045658D01*
X116524000Y-75069550D01*
X116524000Y-75557050D01*
X116522826Y-75580942D01*
X116519316Y-75604603D01*
X116513504Y-75627807D01*
X116505446Y-75650329D01*
X116495218Y-75671953D01*
X116482921Y-75692470D01*
X116468671Y-75711683D01*
X116452607Y-75729407D01*
X116434883Y-75745471D01*
X116415670Y-75759721D01*
X116395153Y-75772018D01*
X116373529Y-75782246D01*
X116351007Y-75790304D01*
X116327803Y-75796116D01*
X116304142Y-75799626D01*
X116280250Y-75800800D01*
X115367750Y-75800800D01*
X115343858Y-75799626D01*
X115320197Y-75796116D01*
X115296993Y-75790304D01*
X115274471Y-75782246D01*
X115252847Y-75772018D01*
X115232330Y-75759721D01*
X115213117Y-75745471D01*
X115195393Y-75729407D01*
X115179329Y-75711683D01*
X115165079Y-75692470D01*
X115152782Y-75671953D01*
X115142554Y-75650329D01*
X115134496Y-75627807D01*
X115128684Y-75604603D01*
X115125174Y-75580942D01*
X115124000Y-75557050D01*
X115124000Y-75069550D01*
X115125174Y-75045658D01*
X115128684Y-75021997D01*
X115134496Y-74998793D01*
X115142554Y-74976271D01*
X115152782Y-74954647D01*
X115165079Y-74934130D01*
X115179329Y-74914917D01*
X115195393Y-74897193D01*
X115213117Y-74881129D01*
X115232330Y-74866879D01*
X115252847Y-74854582D01*
X115274471Y-74844354D01*
X115296993Y-74836296D01*
X115320197Y-74830484D01*
X115343858Y-74826974D01*
X115367750Y-74825800D01*
X116280250Y-74825800D01*
X116304142Y-74826974D01*
X116304142Y-74826974D01*
G37*
D12*
G04 #@! TD*
G04 #@! TO.P,C6,2*
G04 #@! TO.N,GND*
X115824000Y-75313300D03*
D11*
G04 #@! TO.N,Net-(C7-Pad1)*
G04 #@! TO.C,C7*
G36*
X117205142Y-64301174D02*
X117228803Y-64304684D01*
X117252007Y-64310496D01*
X117274529Y-64318554D01*
X117296153Y-64328782D01*
X117316670Y-64341079D01*
X117335883Y-64355329D01*
X117353607Y-64371393D01*
X117369671Y-64389117D01*
X117383921Y-64408330D01*
X117396218Y-64428847D01*
X117406446Y-64450471D01*
X117414504Y-64472993D01*
X117420316Y-64496197D01*
X117423826Y-64519858D01*
X117425000Y-64543750D01*
X117425000Y-65456250D01*
X117423826Y-65480142D01*
X117420316Y-65503803D01*
X117414504Y-65527007D01*
X117406446Y-65549529D01*
X117396218Y-65571153D01*
X117383921Y-65591670D01*
X117369671Y-65610883D01*
X117353607Y-65628607D01*
X117335883Y-65644671D01*
X117316670Y-65658921D01*
X117296153Y-65671218D01*
X117274529Y-65681446D01*
X117252007Y-65689504D01*
X117228803Y-65695316D01*
X117205142Y-65698826D01*
X117181250Y-65700000D01*
X116693750Y-65700000D01*
X116669858Y-65698826D01*
X116646197Y-65695316D01*
X116622993Y-65689504D01*
X116600471Y-65681446D01*
X116578847Y-65671218D01*
X116558330Y-65658921D01*
X116539117Y-65644671D01*
X116521393Y-65628607D01*
X116505329Y-65610883D01*
X116491079Y-65591670D01*
X116478782Y-65571153D01*
X116468554Y-65549529D01*
X116460496Y-65527007D01*
X116454684Y-65503803D01*
X116451174Y-65480142D01*
X116450000Y-65456250D01*
X116450000Y-64543750D01*
X116451174Y-64519858D01*
X116454684Y-64496197D01*
X116460496Y-64472993D01*
X116468554Y-64450471D01*
X116478782Y-64428847D01*
X116491079Y-64408330D01*
X116505329Y-64389117D01*
X116521393Y-64371393D01*
X116539117Y-64355329D01*
X116558330Y-64341079D01*
X116578847Y-64328782D01*
X116600471Y-64318554D01*
X116622993Y-64310496D01*
X116646197Y-64304684D01*
X116669858Y-64301174D01*
X116693750Y-64300000D01*
X117181250Y-64300000D01*
X117205142Y-64301174D01*
X117205142Y-64301174D01*
G37*
D12*
G04 #@! TD*
G04 #@! TO.P,C7,1*
G04 #@! TO.N,Net-(C7-Pad1)*
X116937500Y-65000000D03*
D11*
G04 #@! TO.N,Net-(AE1-Pad1)*
G04 #@! TO.C,C7*
G36*
X115330142Y-64301174D02*
X115353803Y-64304684D01*
X115377007Y-64310496D01*
X115399529Y-64318554D01*
X115421153Y-64328782D01*
X115441670Y-64341079D01*
X115460883Y-64355329D01*
X115478607Y-64371393D01*
X115494671Y-64389117D01*
X115508921Y-64408330D01*
X115521218Y-64428847D01*
X115531446Y-64450471D01*
X115539504Y-64472993D01*
X115545316Y-64496197D01*
X115548826Y-64519858D01*
X115550000Y-64543750D01*
X115550000Y-65456250D01*
X115548826Y-65480142D01*
X115545316Y-65503803D01*
X115539504Y-65527007D01*
X115531446Y-65549529D01*
X115521218Y-65571153D01*
X115508921Y-65591670D01*
X115494671Y-65610883D01*
X115478607Y-65628607D01*
X115460883Y-65644671D01*
X115441670Y-65658921D01*
X115421153Y-65671218D01*
X115399529Y-65681446D01*
X115377007Y-65689504D01*
X115353803Y-65695316D01*
X115330142Y-65698826D01*
X115306250Y-65700000D01*
X114818750Y-65700000D01*
X114794858Y-65698826D01*
X114771197Y-65695316D01*
X114747993Y-65689504D01*
X114725471Y-65681446D01*
X114703847Y-65671218D01*
X114683330Y-65658921D01*
X114664117Y-65644671D01*
X114646393Y-65628607D01*
X114630329Y-65610883D01*
X114616079Y-65591670D01*
X114603782Y-65571153D01*
X114593554Y-65549529D01*
X114585496Y-65527007D01*
X114579684Y-65503803D01*
X114576174Y-65480142D01*
X114575000Y-65456250D01*
X114575000Y-64543750D01*
X114576174Y-64519858D01*
X114579684Y-64496197D01*
X114585496Y-64472993D01*
X114593554Y-64450471D01*
X114603782Y-64428847D01*
X114616079Y-64408330D01*
X114630329Y-64389117D01*
X114646393Y-64371393D01*
X114664117Y-64355329D01*
X114683330Y-64341079D01*
X114703847Y-64328782D01*
X114725471Y-64318554D01*
X114747993Y-64310496D01*
X114771197Y-64304684D01*
X114794858Y-64301174D01*
X114818750Y-64300000D01*
X115306250Y-64300000D01*
X115330142Y-64301174D01*
X115330142Y-64301174D01*
G37*
D12*
G04 #@! TD*
G04 #@! TO.P,C7,2*
G04 #@! TO.N,Net-(AE1-Pad1)*
X115062500Y-65000000D03*
D11*
G04 #@! TO.N,GND*
G04 #@! TO.C,C8*
G36*
X111699742Y-90690374D02*
X111723403Y-90693884D01*
X111746607Y-90699696D01*
X111769129Y-90707754D01*
X111790753Y-90717982D01*
X111811270Y-90730279D01*
X111830483Y-90744529D01*
X111848207Y-90760593D01*
X111864271Y-90778317D01*
X111878521Y-90797530D01*
X111890818Y-90818047D01*
X111901046Y-90839671D01*
X111909104Y-90862193D01*
X111914916Y-90885397D01*
X111918426Y-90909058D01*
X111919600Y-90932950D01*
X111919600Y-91845450D01*
X111918426Y-91869342D01*
X111914916Y-91893003D01*
X111909104Y-91916207D01*
X111901046Y-91938729D01*
X111890818Y-91960353D01*
X111878521Y-91980870D01*
X111864271Y-92000083D01*
X111848207Y-92017807D01*
X111830483Y-92033871D01*
X111811270Y-92048121D01*
X111790753Y-92060418D01*
X111769129Y-92070646D01*
X111746607Y-92078704D01*
X111723403Y-92084516D01*
X111699742Y-92088026D01*
X111675850Y-92089200D01*
X111188350Y-92089200D01*
X111164458Y-92088026D01*
X111140797Y-92084516D01*
X111117593Y-92078704D01*
X111095071Y-92070646D01*
X111073447Y-92060418D01*
X111052930Y-92048121D01*
X111033717Y-92033871D01*
X111015993Y-92017807D01*
X110999929Y-92000083D01*
X110985679Y-91980870D01*
X110973382Y-91960353D01*
X110963154Y-91938729D01*
X110955096Y-91916207D01*
X110949284Y-91893003D01*
X110945774Y-91869342D01*
X110944600Y-91845450D01*
X110944600Y-90932950D01*
X110945774Y-90909058D01*
X110949284Y-90885397D01*
X110955096Y-90862193D01*
X110963154Y-90839671D01*
X110973382Y-90818047D01*
X110985679Y-90797530D01*
X110999929Y-90778317D01*
X111015993Y-90760593D01*
X111033717Y-90744529D01*
X111052930Y-90730279D01*
X111073447Y-90717982D01*
X111095071Y-90707754D01*
X111117593Y-90699696D01*
X111140797Y-90693884D01*
X111164458Y-90690374D01*
X111188350Y-90689200D01*
X111675850Y-90689200D01*
X111699742Y-90690374D01*
X111699742Y-90690374D01*
G37*
D12*
G04 #@! TD*
G04 #@! TO.P,C8,2*
G04 #@! TO.N,GND*
X111432100Y-91389200D03*
D11*
G04 #@! TO.N,Net-(C8-Pad1)*
G04 #@! TO.C,C8*
G36*
X113574742Y-90690374D02*
X113598403Y-90693884D01*
X113621607Y-90699696D01*
X113644129Y-90707754D01*
X113665753Y-90717982D01*
X113686270Y-90730279D01*
X113705483Y-90744529D01*
X113723207Y-90760593D01*
X113739271Y-90778317D01*
X113753521Y-90797530D01*
X113765818Y-90818047D01*
X113776046Y-90839671D01*
X113784104Y-90862193D01*
X113789916Y-90885397D01*
X113793426Y-90909058D01*
X113794600Y-90932950D01*
X113794600Y-91845450D01*
X113793426Y-91869342D01*
X113789916Y-91893003D01*
X113784104Y-91916207D01*
X113776046Y-91938729D01*
X113765818Y-91960353D01*
X113753521Y-91980870D01*
X113739271Y-92000083D01*
X113723207Y-92017807D01*
X113705483Y-92033871D01*
X113686270Y-92048121D01*
X113665753Y-92060418D01*
X113644129Y-92070646D01*
X113621607Y-92078704D01*
X113598403Y-92084516D01*
X113574742Y-92088026D01*
X113550850Y-92089200D01*
X113063350Y-92089200D01*
X113039458Y-92088026D01*
X113015797Y-92084516D01*
X112992593Y-92078704D01*
X112970071Y-92070646D01*
X112948447Y-92060418D01*
X112927930Y-92048121D01*
X112908717Y-92033871D01*
X112890993Y-92017807D01*
X112874929Y-92000083D01*
X112860679Y-91980870D01*
X112848382Y-91960353D01*
X112838154Y-91938729D01*
X112830096Y-91916207D01*
X112824284Y-91893003D01*
X112820774Y-91869342D01*
X112819600Y-91845450D01*
X112819600Y-90932950D01*
X112820774Y-90909058D01*
X112824284Y-90885397D01*
X112830096Y-90862193D01*
X112838154Y-90839671D01*
X112848382Y-90818047D01*
X112860679Y-90797530D01*
X112874929Y-90778317D01*
X112890993Y-90760593D01*
X112908717Y-90744529D01*
X112927930Y-90730279D01*
X112948447Y-90717982D01*
X112970071Y-90707754D01*
X112992593Y-90699696D01*
X113015797Y-90693884D01*
X113039458Y-90690374D01*
X113063350Y-90689200D01*
X113550850Y-90689200D01*
X113574742Y-90690374D01*
X113574742Y-90690374D01*
G37*
D12*
G04 #@! TD*
G04 #@! TO.P,C8,1*
G04 #@! TO.N,Net-(C8-Pad1)*
X113307100Y-91389200D03*
D11*
G04 #@! TO.N,Net-(C9-Pad1)*
G04 #@! TO.C,C9*
G36*
X113574742Y-97802374D02*
X113598403Y-97805884D01*
X113621607Y-97811696D01*
X113644129Y-97819754D01*
X113665753Y-97829982D01*
X113686270Y-97842279D01*
X113705483Y-97856529D01*
X113723207Y-97872593D01*
X113739271Y-97890317D01*
X113753521Y-97909530D01*
X113765818Y-97930047D01*
X113776046Y-97951671D01*
X113784104Y-97974193D01*
X113789916Y-97997397D01*
X113793426Y-98021058D01*
X113794600Y-98044950D01*
X113794600Y-98957450D01*
X113793426Y-98981342D01*
X113789916Y-99005003D01*
X113784104Y-99028207D01*
X113776046Y-99050729D01*
X113765818Y-99072353D01*
X113753521Y-99092870D01*
X113739271Y-99112083D01*
X113723207Y-99129807D01*
X113705483Y-99145871D01*
X113686270Y-99160121D01*
X113665753Y-99172418D01*
X113644129Y-99182646D01*
X113621607Y-99190704D01*
X113598403Y-99196516D01*
X113574742Y-99200026D01*
X113550850Y-99201200D01*
X113063350Y-99201200D01*
X113039458Y-99200026D01*
X113015797Y-99196516D01*
X112992593Y-99190704D01*
X112970071Y-99182646D01*
X112948447Y-99172418D01*
X112927930Y-99160121D01*
X112908717Y-99145871D01*
X112890993Y-99129807D01*
X112874929Y-99112083D01*
X112860679Y-99092870D01*
X112848382Y-99072353D01*
X112838154Y-99050729D01*
X112830096Y-99028207D01*
X112824284Y-99005003D01*
X112820774Y-98981342D01*
X112819600Y-98957450D01*
X112819600Y-98044950D01*
X112820774Y-98021058D01*
X112824284Y-97997397D01*
X112830096Y-97974193D01*
X112838154Y-97951671D01*
X112848382Y-97930047D01*
X112860679Y-97909530D01*
X112874929Y-97890317D01*
X112890993Y-97872593D01*
X112908717Y-97856529D01*
X112927930Y-97842279D01*
X112948447Y-97829982D01*
X112970071Y-97819754D01*
X112992593Y-97811696D01*
X113015797Y-97805884D01*
X113039458Y-97802374D01*
X113063350Y-97801200D01*
X113550850Y-97801200D01*
X113574742Y-97802374D01*
X113574742Y-97802374D01*
G37*
D12*
G04 #@! TD*
G04 #@! TO.P,C9,1*
G04 #@! TO.N,Net-(C9-Pad1)*
X113307100Y-98501200D03*
D11*
G04 #@! TO.N,GND*
G04 #@! TO.C,C9*
G36*
X111699742Y-97802374D02*
X111723403Y-97805884D01*
X111746607Y-97811696D01*
X111769129Y-97819754D01*
X111790753Y-97829982D01*
X111811270Y-97842279D01*
X111830483Y-97856529D01*
X111848207Y-97872593D01*
X111864271Y-97890317D01*
X111878521Y-97909530D01*
X111890818Y-97930047D01*
X111901046Y-97951671D01*
X111909104Y-97974193D01*
X111914916Y-97997397D01*
X111918426Y-98021058D01*
X111919600Y-98044950D01*
X111919600Y-98957450D01*
X111918426Y-98981342D01*
X111914916Y-99005003D01*
X111909104Y-99028207D01*
X111901046Y-99050729D01*
X111890818Y-99072353D01*
X111878521Y-99092870D01*
X111864271Y-99112083D01*
X111848207Y-99129807D01*
X111830483Y-99145871D01*
X111811270Y-99160121D01*
X111790753Y-99172418D01*
X111769129Y-99182646D01*
X111746607Y-99190704D01*
X111723403Y-99196516D01*
X111699742Y-99200026D01*
X111675850Y-99201200D01*
X111188350Y-99201200D01*
X111164458Y-99200026D01*
X111140797Y-99196516D01*
X111117593Y-99190704D01*
X111095071Y-99182646D01*
X111073447Y-99172418D01*
X111052930Y-99160121D01*
X111033717Y-99145871D01*
X111015993Y-99129807D01*
X110999929Y-99112083D01*
X110985679Y-99092870D01*
X110973382Y-99072353D01*
X110963154Y-99050729D01*
X110955096Y-99028207D01*
X110949284Y-99005003D01*
X110945774Y-98981342D01*
X110944600Y-98957450D01*
X110944600Y-98044950D01*
X110945774Y-98021058D01*
X110949284Y-97997397D01*
X110955096Y-97974193D01*
X110963154Y-97951671D01*
X110973382Y-97930047D01*
X110985679Y-97909530D01*
X110999929Y-97890317D01*
X111015993Y-97872593D01*
X111033717Y-97856529D01*
X111052930Y-97842279D01*
X111073447Y-97829982D01*
X111095071Y-97819754D01*
X111117593Y-97811696D01*
X111140797Y-97805884D01*
X111164458Y-97802374D01*
X111188350Y-97801200D01*
X111675850Y-97801200D01*
X111699742Y-97802374D01*
X111699742Y-97802374D01*
G37*
D12*
G04 #@! TD*
G04 #@! TO.P,C9,2*
G04 #@! TO.N,GND*
X111432100Y-98501200D03*
D11*
G04 #@! TO.N,GND*
G04 #@! TO.C,C11*
G36*
X120792942Y-126148774D02*
X120816603Y-126152284D01*
X120839807Y-126158096D01*
X120862329Y-126166154D01*
X120883953Y-126176382D01*
X120904470Y-126188679D01*
X120923683Y-126202929D01*
X120941407Y-126218993D01*
X120957471Y-126236717D01*
X120971721Y-126255930D01*
X120984018Y-126276447D01*
X120994246Y-126298071D01*
X121002304Y-126320593D01*
X121008116Y-126343797D01*
X121011626Y-126367458D01*
X121012800Y-126391350D01*
X121012800Y-127303850D01*
X121011626Y-127327742D01*
X121008116Y-127351403D01*
X121002304Y-127374607D01*
X120994246Y-127397129D01*
X120984018Y-127418753D01*
X120971721Y-127439270D01*
X120957471Y-127458483D01*
X120941407Y-127476207D01*
X120923683Y-127492271D01*
X120904470Y-127506521D01*
X120883953Y-127518818D01*
X120862329Y-127529046D01*
X120839807Y-127537104D01*
X120816603Y-127542916D01*
X120792942Y-127546426D01*
X120769050Y-127547600D01*
X120281550Y-127547600D01*
X120257658Y-127546426D01*
X120233997Y-127542916D01*
X120210793Y-127537104D01*
X120188271Y-127529046D01*
X120166647Y-127518818D01*
X120146130Y-127506521D01*
X120126917Y-127492271D01*
X120109193Y-127476207D01*
X120093129Y-127458483D01*
X120078879Y-127439270D01*
X120066582Y-127418753D01*
X120056354Y-127397129D01*
X120048296Y-127374607D01*
X120042484Y-127351403D01*
X120038974Y-127327742D01*
X120037800Y-127303850D01*
X120037800Y-126391350D01*
X120038974Y-126367458D01*
X120042484Y-126343797D01*
X120048296Y-126320593D01*
X120056354Y-126298071D01*
X120066582Y-126276447D01*
X120078879Y-126255930D01*
X120093129Y-126236717D01*
X120109193Y-126218993D01*
X120126917Y-126202929D01*
X120146130Y-126188679D01*
X120166647Y-126176382D01*
X120188271Y-126166154D01*
X120210793Y-126158096D01*
X120233997Y-126152284D01*
X120257658Y-126148774D01*
X120281550Y-126147600D01*
X120769050Y-126147600D01*
X120792942Y-126148774D01*
X120792942Y-126148774D01*
G37*
D12*
G04 #@! TD*
G04 #@! TO.P,C11,2*
G04 #@! TO.N,GND*
X120525300Y-126847600D03*
D11*
G04 #@! TO.N,VCC*
G04 #@! TO.C,C11*
G36*
X122667942Y-126148774D02*
X122691603Y-126152284D01*
X122714807Y-126158096D01*
X122737329Y-126166154D01*
X122758953Y-126176382D01*
X122779470Y-126188679D01*
X122798683Y-126202929D01*
X122816407Y-126218993D01*
X122832471Y-126236717D01*
X122846721Y-126255930D01*
X122859018Y-126276447D01*
X122869246Y-126298071D01*
X122877304Y-126320593D01*
X122883116Y-126343797D01*
X122886626Y-126367458D01*
X122887800Y-126391350D01*
X122887800Y-127303850D01*
X122886626Y-127327742D01*
X122883116Y-127351403D01*
X122877304Y-127374607D01*
X122869246Y-127397129D01*
X122859018Y-127418753D01*
X122846721Y-127439270D01*
X122832471Y-127458483D01*
X122816407Y-127476207D01*
X122798683Y-127492271D01*
X122779470Y-127506521D01*
X122758953Y-127518818D01*
X122737329Y-127529046D01*
X122714807Y-127537104D01*
X122691603Y-127542916D01*
X122667942Y-127546426D01*
X122644050Y-127547600D01*
X122156550Y-127547600D01*
X122132658Y-127546426D01*
X122108997Y-127542916D01*
X122085793Y-127537104D01*
X122063271Y-127529046D01*
X122041647Y-127518818D01*
X122021130Y-127506521D01*
X122001917Y-127492271D01*
X121984193Y-127476207D01*
X121968129Y-127458483D01*
X121953879Y-127439270D01*
X121941582Y-127418753D01*
X121931354Y-127397129D01*
X121923296Y-127374607D01*
X121917484Y-127351403D01*
X121913974Y-127327742D01*
X121912800Y-127303850D01*
X121912800Y-126391350D01*
X121913974Y-126367458D01*
X121917484Y-126343797D01*
X121923296Y-126320593D01*
X121931354Y-126298071D01*
X121941582Y-126276447D01*
X121953879Y-126255930D01*
X121968129Y-126236717D01*
X121984193Y-126218993D01*
X122001917Y-126202929D01*
X122021130Y-126188679D01*
X122041647Y-126176382D01*
X122063271Y-126166154D01*
X122085793Y-126158096D01*
X122108997Y-126152284D01*
X122132658Y-126148774D01*
X122156550Y-126147600D01*
X122644050Y-126147600D01*
X122667942Y-126148774D01*
X122667942Y-126148774D01*
G37*
D12*
G04 #@! TD*
G04 #@! TO.P,C11,1*
G04 #@! TO.N,VCC*
X122400300Y-126847600D03*
D11*
G04 #@! TO.N,GND*
G04 #@! TO.C,C12*
G36*
X125314142Y-66153974D02*
X125337803Y-66157484D01*
X125361007Y-66163296D01*
X125383529Y-66171354D01*
X125405153Y-66181582D01*
X125425670Y-66193879D01*
X125444883Y-66208129D01*
X125462607Y-66224193D01*
X125478671Y-66241917D01*
X125492921Y-66261130D01*
X125505218Y-66281647D01*
X125515446Y-66303271D01*
X125523504Y-66325793D01*
X125529316Y-66348997D01*
X125532826Y-66372658D01*
X125534000Y-66396550D01*
X125534000Y-67309050D01*
X125532826Y-67332942D01*
X125529316Y-67356603D01*
X125523504Y-67379807D01*
X125515446Y-67402329D01*
X125505218Y-67423953D01*
X125492921Y-67444470D01*
X125478671Y-67463683D01*
X125462607Y-67481407D01*
X125444883Y-67497471D01*
X125425670Y-67511721D01*
X125405153Y-67524018D01*
X125383529Y-67534246D01*
X125361007Y-67542304D01*
X125337803Y-67548116D01*
X125314142Y-67551626D01*
X125290250Y-67552800D01*
X124802750Y-67552800D01*
X124778858Y-67551626D01*
X124755197Y-67548116D01*
X124731993Y-67542304D01*
X124709471Y-67534246D01*
X124687847Y-67524018D01*
X124667330Y-67511721D01*
X124648117Y-67497471D01*
X124630393Y-67481407D01*
X124614329Y-67463683D01*
X124600079Y-67444470D01*
X124587782Y-67423953D01*
X124577554Y-67402329D01*
X124569496Y-67379807D01*
X124563684Y-67356603D01*
X124560174Y-67332942D01*
X124559000Y-67309050D01*
X124559000Y-66396550D01*
X124560174Y-66372658D01*
X124563684Y-66348997D01*
X124569496Y-66325793D01*
X124577554Y-66303271D01*
X124587782Y-66281647D01*
X124600079Y-66261130D01*
X124614329Y-66241917D01*
X124630393Y-66224193D01*
X124648117Y-66208129D01*
X124667330Y-66193879D01*
X124687847Y-66181582D01*
X124709471Y-66171354D01*
X124731993Y-66163296D01*
X124755197Y-66157484D01*
X124778858Y-66153974D01*
X124802750Y-66152800D01*
X125290250Y-66152800D01*
X125314142Y-66153974D01*
X125314142Y-66153974D01*
G37*
D12*
G04 #@! TD*
G04 #@! TO.P,C12,2*
G04 #@! TO.N,GND*
X125046500Y-66852800D03*
D11*
G04 #@! TO.N,VCC*
G04 #@! TO.C,C12*
G36*
X127189142Y-66153974D02*
X127212803Y-66157484D01*
X127236007Y-66163296D01*
X127258529Y-66171354D01*
X127280153Y-66181582D01*
X127300670Y-66193879D01*
X127319883Y-66208129D01*
X127337607Y-66224193D01*
X127353671Y-66241917D01*
X127367921Y-66261130D01*
X127380218Y-66281647D01*
X127390446Y-66303271D01*
X127398504Y-66325793D01*
X127404316Y-66348997D01*
X127407826Y-66372658D01*
X127409000Y-66396550D01*
X127409000Y-67309050D01*
X127407826Y-67332942D01*
X127404316Y-67356603D01*
X127398504Y-67379807D01*
X127390446Y-67402329D01*
X127380218Y-67423953D01*
X127367921Y-67444470D01*
X127353671Y-67463683D01*
X127337607Y-67481407D01*
X127319883Y-67497471D01*
X127300670Y-67511721D01*
X127280153Y-67524018D01*
X127258529Y-67534246D01*
X127236007Y-67542304D01*
X127212803Y-67548116D01*
X127189142Y-67551626D01*
X127165250Y-67552800D01*
X126677750Y-67552800D01*
X126653858Y-67551626D01*
X126630197Y-67548116D01*
X126606993Y-67542304D01*
X126584471Y-67534246D01*
X126562847Y-67524018D01*
X126542330Y-67511721D01*
X126523117Y-67497471D01*
X126505393Y-67481407D01*
X126489329Y-67463683D01*
X126475079Y-67444470D01*
X126462782Y-67423953D01*
X126452554Y-67402329D01*
X126444496Y-67379807D01*
X126438684Y-67356603D01*
X126435174Y-67332942D01*
X126434000Y-67309050D01*
X126434000Y-66396550D01*
X126435174Y-66372658D01*
X126438684Y-66348997D01*
X126444496Y-66325793D01*
X126452554Y-66303271D01*
X126462782Y-66281647D01*
X126475079Y-66261130D01*
X126489329Y-66241917D01*
X126505393Y-66224193D01*
X126523117Y-66208129D01*
X126542330Y-66193879D01*
X126562847Y-66181582D01*
X126584471Y-66171354D01*
X126606993Y-66163296D01*
X126630197Y-66157484D01*
X126653858Y-66153974D01*
X126677750Y-66152800D01*
X127165250Y-66152800D01*
X127189142Y-66153974D01*
X127189142Y-66153974D01*
G37*
D12*
G04 #@! TD*
G04 #@! TO.P,C12,1*
G04 #@! TO.N,VCC*
X126921500Y-66852800D03*
D11*
G04 #@! TO.N,VCC*
G04 #@! TO.C,C15*
G36*
X126634942Y-85559574D02*
X126658603Y-85563084D01*
X126681807Y-85568896D01*
X126704329Y-85576954D01*
X126725953Y-85587182D01*
X126746470Y-85599479D01*
X126765683Y-85613729D01*
X126783407Y-85629793D01*
X126799471Y-85647517D01*
X126813721Y-85666730D01*
X126826018Y-85687247D01*
X126836246Y-85708871D01*
X126844304Y-85731393D01*
X126850116Y-85754597D01*
X126853626Y-85778258D01*
X126854800Y-85802150D01*
X126854800Y-86714650D01*
X126853626Y-86738542D01*
X126850116Y-86762203D01*
X126844304Y-86785407D01*
X126836246Y-86807929D01*
X126826018Y-86829553D01*
X126813721Y-86850070D01*
X126799471Y-86869283D01*
X126783407Y-86887007D01*
X126765683Y-86903071D01*
X126746470Y-86917321D01*
X126725953Y-86929618D01*
X126704329Y-86939846D01*
X126681807Y-86947904D01*
X126658603Y-86953716D01*
X126634942Y-86957226D01*
X126611050Y-86958400D01*
X126123550Y-86958400D01*
X126099658Y-86957226D01*
X126075997Y-86953716D01*
X126052793Y-86947904D01*
X126030271Y-86939846D01*
X126008647Y-86929618D01*
X125988130Y-86917321D01*
X125968917Y-86903071D01*
X125951193Y-86887007D01*
X125935129Y-86869283D01*
X125920879Y-86850070D01*
X125908582Y-86829553D01*
X125898354Y-86807929D01*
X125890296Y-86785407D01*
X125884484Y-86762203D01*
X125880974Y-86738542D01*
X125879800Y-86714650D01*
X125879800Y-85802150D01*
X125880974Y-85778258D01*
X125884484Y-85754597D01*
X125890296Y-85731393D01*
X125898354Y-85708871D01*
X125908582Y-85687247D01*
X125920879Y-85666730D01*
X125935129Y-85647517D01*
X125951193Y-85629793D01*
X125968917Y-85613729D01*
X125988130Y-85599479D01*
X126008647Y-85587182D01*
X126030271Y-85576954D01*
X126052793Y-85568896D01*
X126075997Y-85563084D01*
X126099658Y-85559574D01*
X126123550Y-85558400D01*
X126611050Y-85558400D01*
X126634942Y-85559574D01*
X126634942Y-85559574D01*
G37*
D12*
G04 #@! TD*
G04 #@! TO.P,C15,1*
G04 #@! TO.N,VCC*
X126367300Y-86258400D03*
D11*
G04 #@! TO.N,GND*
G04 #@! TO.C,C15*
G36*
X128509942Y-85559574D02*
X128533603Y-85563084D01*
X128556807Y-85568896D01*
X128579329Y-85576954D01*
X128600953Y-85587182D01*
X128621470Y-85599479D01*
X128640683Y-85613729D01*
X128658407Y-85629793D01*
X128674471Y-85647517D01*
X128688721Y-85666730D01*
X128701018Y-85687247D01*
X128711246Y-85708871D01*
X128719304Y-85731393D01*
X128725116Y-85754597D01*
X128728626Y-85778258D01*
X128729800Y-85802150D01*
X128729800Y-86714650D01*
X128728626Y-86738542D01*
X128725116Y-86762203D01*
X128719304Y-86785407D01*
X128711246Y-86807929D01*
X128701018Y-86829553D01*
X128688721Y-86850070D01*
X128674471Y-86869283D01*
X128658407Y-86887007D01*
X128640683Y-86903071D01*
X128621470Y-86917321D01*
X128600953Y-86929618D01*
X128579329Y-86939846D01*
X128556807Y-86947904D01*
X128533603Y-86953716D01*
X128509942Y-86957226D01*
X128486050Y-86958400D01*
X127998550Y-86958400D01*
X127974658Y-86957226D01*
X127950997Y-86953716D01*
X127927793Y-86947904D01*
X127905271Y-86939846D01*
X127883647Y-86929618D01*
X127863130Y-86917321D01*
X127843917Y-86903071D01*
X127826193Y-86887007D01*
X127810129Y-86869283D01*
X127795879Y-86850070D01*
X127783582Y-86829553D01*
X127773354Y-86807929D01*
X127765296Y-86785407D01*
X127759484Y-86762203D01*
X127755974Y-86738542D01*
X127754800Y-86714650D01*
X127754800Y-85802150D01*
X127755974Y-85778258D01*
X127759484Y-85754597D01*
X127765296Y-85731393D01*
X127773354Y-85708871D01*
X127783582Y-85687247D01*
X127795879Y-85666730D01*
X127810129Y-85647517D01*
X127826193Y-85629793D01*
X127843917Y-85613729D01*
X127863130Y-85599479D01*
X127883647Y-85587182D01*
X127905271Y-85576954D01*
X127927793Y-85568896D01*
X127950997Y-85563084D01*
X127974658Y-85559574D01*
X127998550Y-85558400D01*
X128486050Y-85558400D01*
X128509942Y-85559574D01*
X128509942Y-85559574D01*
G37*
D12*
G04 #@! TD*
G04 #@! TO.P,C15,2*
G04 #@! TO.N,GND*
X128242300Y-86258400D03*
D11*
G04 #@! TO.N,Net-(AE1-Pad1)*
G04 #@! TO.C,L1*
G36*
X114272142Y-64459174D02*
X114295803Y-64462684D01*
X114319007Y-64468496D01*
X114341529Y-64476554D01*
X114363153Y-64486782D01*
X114383670Y-64499079D01*
X114402883Y-64513329D01*
X114420607Y-64529393D01*
X114436671Y-64547117D01*
X114450921Y-64566330D01*
X114463218Y-64586847D01*
X114473446Y-64608471D01*
X114481504Y-64630993D01*
X114487316Y-64654197D01*
X114490826Y-64677858D01*
X114492000Y-64701750D01*
X114492000Y-65189250D01*
X114490826Y-65213142D01*
X114487316Y-65236803D01*
X114481504Y-65260007D01*
X114473446Y-65282529D01*
X114463218Y-65304153D01*
X114450921Y-65324670D01*
X114436671Y-65343883D01*
X114420607Y-65361607D01*
X114402883Y-65377671D01*
X114383670Y-65391921D01*
X114363153Y-65404218D01*
X114341529Y-65414446D01*
X114319007Y-65422504D01*
X114295803Y-65428316D01*
X114272142Y-65431826D01*
X114248250Y-65433000D01*
X113335750Y-65433000D01*
X113311858Y-65431826D01*
X113288197Y-65428316D01*
X113264993Y-65422504D01*
X113242471Y-65414446D01*
X113220847Y-65404218D01*
X113200330Y-65391921D01*
X113181117Y-65377671D01*
X113163393Y-65361607D01*
X113147329Y-65343883D01*
X113133079Y-65324670D01*
X113120782Y-65304153D01*
X113110554Y-65282529D01*
X113102496Y-65260007D01*
X113096684Y-65236803D01*
X113093174Y-65213142D01*
X113092000Y-65189250D01*
X113092000Y-64701750D01*
X113093174Y-64677858D01*
X113096684Y-64654197D01*
X113102496Y-64630993D01*
X113110554Y-64608471D01*
X113120782Y-64586847D01*
X113133079Y-64566330D01*
X113147329Y-64547117D01*
X113163393Y-64529393D01*
X113181117Y-64513329D01*
X113200330Y-64499079D01*
X113220847Y-64486782D01*
X113242471Y-64476554D01*
X113264993Y-64468496D01*
X113288197Y-64462684D01*
X113311858Y-64459174D01*
X113335750Y-64458000D01*
X114248250Y-64458000D01*
X114272142Y-64459174D01*
X114272142Y-64459174D01*
G37*
D12*
G04 #@! TD*
G04 #@! TO.P,L1,2*
G04 #@! TO.N,Net-(AE1-Pad1)*
X113792000Y-64945500D03*
D11*
G04 #@! TO.N,GND*
G04 #@! TO.C,L1*
G36*
X114272142Y-62584174D02*
X114295803Y-62587684D01*
X114319007Y-62593496D01*
X114341529Y-62601554D01*
X114363153Y-62611782D01*
X114383670Y-62624079D01*
X114402883Y-62638329D01*
X114420607Y-62654393D01*
X114436671Y-62672117D01*
X114450921Y-62691330D01*
X114463218Y-62711847D01*
X114473446Y-62733471D01*
X114481504Y-62755993D01*
X114487316Y-62779197D01*
X114490826Y-62802858D01*
X114492000Y-62826750D01*
X114492000Y-63314250D01*
X114490826Y-63338142D01*
X114487316Y-63361803D01*
X114481504Y-63385007D01*
X114473446Y-63407529D01*
X114463218Y-63429153D01*
X114450921Y-63449670D01*
X114436671Y-63468883D01*
X114420607Y-63486607D01*
X114402883Y-63502671D01*
X114383670Y-63516921D01*
X114363153Y-63529218D01*
X114341529Y-63539446D01*
X114319007Y-63547504D01*
X114295803Y-63553316D01*
X114272142Y-63556826D01*
X114248250Y-63558000D01*
X113335750Y-63558000D01*
X113311858Y-63556826D01*
X113288197Y-63553316D01*
X113264993Y-63547504D01*
X113242471Y-63539446D01*
X113220847Y-63529218D01*
X113200330Y-63516921D01*
X113181117Y-63502671D01*
X113163393Y-63486607D01*
X113147329Y-63468883D01*
X113133079Y-63449670D01*
X113120782Y-63429153D01*
X113110554Y-63407529D01*
X113102496Y-63385007D01*
X113096684Y-63361803D01*
X113093174Y-63338142D01*
X113092000Y-63314250D01*
X113092000Y-62826750D01*
X113093174Y-62802858D01*
X113096684Y-62779197D01*
X113102496Y-62755993D01*
X113110554Y-62733471D01*
X113120782Y-62711847D01*
X113133079Y-62691330D01*
X113147329Y-62672117D01*
X113163393Y-62654393D01*
X113181117Y-62638329D01*
X113200330Y-62624079D01*
X113220847Y-62611782D01*
X113242471Y-62601554D01*
X113264993Y-62593496D01*
X113288197Y-62587684D01*
X113311858Y-62584174D01*
X113335750Y-62583000D01*
X114248250Y-62583000D01*
X114272142Y-62584174D01*
X114272142Y-62584174D01*
G37*
D12*
G04 #@! TD*
G04 #@! TO.P,L1,1*
G04 #@! TO.N,GND*
X113792000Y-63070500D03*
D11*
G04 #@! TO.N,GND*
G04 #@! TO.C,L2*
G36*
X118691742Y-66694374D02*
X118715403Y-66697884D01*
X118738607Y-66703696D01*
X118761129Y-66711754D01*
X118782753Y-66721982D01*
X118803270Y-66734279D01*
X118822483Y-66748529D01*
X118840207Y-66764593D01*
X118856271Y-66782317D01*
X118870521Y-66801530D01*
X118882818Y-66822047D01*
X118893046Y-66843671D01*
X118901104Y-66866193D01*
X118906916Y-66889397D01*
X118910426Y-66913058D01*
X118911600Y-66936950D01*
X118911600Y-67424450D01*
X118910426Y-67448342D01*
X118906916Y-67472003D01*
X118901104Y-67495207D01*
X118893046Y-67517729D01*
X118882818Y-67539353D01*
X118870521Y-67559870D01*
X118856271Y-67579083D01*
X118840207Y-67596807D01*
X118822483Y-67612871D01*
X118803270Y-67627121D01*
X118782753Y-67639418D01*
X118761129Y-67649646D01*
X118738607Y-67657704D01*
X118715403Y-67663516D01*
X118691742Y-67667026D01*
X118667850Y-67668200D01*
X117755350Y-67668200D01*
X117731458Y-67667026D01*
X117707797Y-67663516D01*
X117684593Y-67657704D01*
X117662071Y-67649646D01*
X117640447Y-67639418D01*
X117619930Y-67627121D01*
X117600717Y-67612871D01*
X117582993Y-67596807D01*
X117566929Y-67579083D01*
X117552679Y-67559870D01*
X117540382Y-67539353D01*
X117530154Y-67517729D01*
X117522096Y-67495207D01*
X117516284Y-67472003D01*
X117512774Y-67448342D01*
X117511600Y-67424450D01*
X117511600Y-66936950D01*
X117512774Y-66913058D01*
X117516284Y-66889397D01*
X117522096Y-66866193D01*
X117530154Y-66843671D01*
X117540382Y-66822047D01*
X117552679Y-66801530D01*
X117566929Y-66782317D01*
X117582993Y-66764593D01*
X117600717Y-66748529D01*
X117619930Y-66734279D01*
X117640447Y-66721982D01*
X117662071Y-66711754D01*
X117684593Y-66703696D01*
X117707797Y-66697884D01*
X117731458Y-66694374D01*
X117755350Y-66693200D01*
X118667850Y-66693200D01*
X118691742Y-66694374D01*
X118691742Y-66694374D01*
G37*
D12*
G04 #@! TD*
G04 #@! TO.P,L2,1*
G04 #@! TO.N,GND*
X118211600Y-67180700D03*
D11*
G04 #@! TO.N,Net-(C7-Pad1)*
G04 #@! TO.C,L2*
G36*
X118691742Y-64819374D02*
X118715403Y-64822884D01*
X118738607Y-64828696D01*
X118761129Y-64836754D01*
X118782753Y-64846982D01*
X118803270Y-64859279D01*
X118822483Y-64873529D01*
X118840207Y-64889593D01*
X118856271Y-64907317D01*
X118870521Y-64926530D01*
X118882818Y-64947047D01*
X118893046Y-64968671D01*
X118901104Y-64991193D01*
X118906916Y-65014397D01*
X118910426Y-65038058D01*
X118911600Y-65061950D01*
X118911600Y-65549450D01*
X118910426Y-65573342D01*
X118906916Y-65597003D01*
X118901104Y-65620207D01*
X118893046Y-65642729D01*
X118882818Y-65664353D01*
X118870521Y-65684870D01*
X118856271Y-65704083D01*
X118840207Y-65721807D01*
X118822483Y-65737871D01*
X118803270Y-65752121D01*
X118782753Y-65764418D01*
X118761129Y-65774646D01*
X118738607Y-65782704D01*
X118715403Y-65788516D01*
X118691742Y-65792026D01*
X118667850Y-65793200D01*
X117755350Y-65793200D01*
X117731458Y-65792026D01*
X117707797Y-65788516D01*
X117684593Y-65782704D01*
X117662071Y-65774646D01*
X117640447Y-65764418D01*
X117619930Y-65752121D01*
X117600717Y-65737871D01*
X117582993Y-65721807D01*
X117566929Y-65704083D01*
X117552679Y-65684870D01*
X117540382Y-65664353D01*
X117530154Y-65642729D01*
X117522096Y-65620207D01*
X117516284Y-65597003D01*
X117512774Y-65573342D01*
X117511600Y-65549450D01*
X117511600Y-65061950D01*
X117512774Y-65038058D01*
X117516284Y-65014397D01*
X117522096Y-64991193D01*
X117530154Y-64968671D01*
X117540382Y-64947047D01*
X117552679Y-64926530D01*
X117566929Y-64907317D01*
X117582993Y-64889593D01*
X117600717Y-64873529D01*
X117619930Y-64859279D01*
X117640447Y-64846982D01*
X117662071Y-64836754D01*
X117684593Y-64828696D01*
X117707797Y-64822884D01*
X117731458Y-64819374D01*
X117755350Y-64818200D01*
X118667850Y-64818200D01*
X118691742Y-64819374D01*
X118691742Y-64819374D01*
G37*
D12*
G04 #@! TD*
G04 #@! TO.P,L2,2*
G04 #@! TO.N,Net-(C7-Pad1)*
X118211600Y-65305700D03*
D27*
G04 #@! TO.N,GND*
X109800000Y-84200000D03*
X108200000Y-81600000D03*
X119000000Y-85200000D03*
X115600000Y-85400000D03*
X113400000Y-79800000D03*
X132200000Y-76200000D03*
X103000000Y-78600000D03*
X103000000Y-83000000D03*
X132200000Y-81600000D03*
X110200000Y-79800000D03*
X119000000Y-80000000D03*
X119000000Y-76000000D03*
D28*
X126796800Y-56489600D03*
X125500000Y-60000000D03*
X125526800Y-52019200D03*
X106781600Y-102463600D03*
X109169200Y-101650800D03*
X120000000Y-67500000D03*
X121000000Y-66500000D03*
X116000000Y-67500000D03*
X115000000Y-66500000D03*
X112300000Y-89500000D03*
X121200000Y-90000000D03*
X126746000Y-82702400D03*
X134000000Y-126000000D03*
X134000000Y-124000000D03*
X134000000Y-122000000D03*
X134000000Y-120000000D03*
X134000000Y-118000000D03*
X134000000Y-116000000D03*
X134000000Y-114000000D03*
X134000000Y-112000000D03*
X134000000Y-110000000D03*
X134000000Y-108000000D03*
X134000000Y-106000000D03*
X134000000Y-104000000D03*
X124000000Y-128500000D03*
X134000000Y-132000000D03*
X134000000Y-130000000D03*
X134000000Y-128000000D03*
X134000000Y-83000000D03*
X134000000Y-81000000D03*
X134000000Y-79000000D03*
X134000000Y-77000000D03*
X134000000Y-75000000D03*
X134000000Y-73000000D03*
X134000000Y-71000000D03*
X134000000Y-69000000D03*
X134000000Y-67000000D03*
X113500000Y-66500000D03*
X113500000Y-68000000D03*
X113500000Y-69500000D03*
X113500000Y-71000000D03*
X113500000Y-72500000D03*
X113500000Y-74000000D03*
X113500000Y-75500000D03*
X112500000Y-76500000D03*
X111000000Y-76500000D03*
X109500000Y-76500000D03*
X108000000Y-76500000D03*
X106500000Y-76500000D03*
X105000000Y-76500000D03*
X103500000Y-76500000D03*
X102000000Y-76500000D03*
X101000000Y-77500000D03*
X101000000Y-131000000D03*
X101000000Y-129000000D03*
X101000000Y-127000000D03*
X101000000Y-125000000D03*
X101000000Y-123000000D03*
X101000000Y-121000000D03*
X101000000Y-119000000D03*
X101000000Y-117000000D03*
X101000000Y-115000000D03*
X101000000Y-113000000D03*
X101000000Y-111000000D03*
X101000000Y-109000000D03*
X101000000Y-107000000D03*
X101000000Y-105000000D03*
X101000000Y-103000000D03*
X101000000Y-101000000D03*
X101000000Y-99000000D03*
X101000000Y-97000000D03*
X101000000Y-95000000D03*
X101000000Y-93000000D03*
X101000000Y-91000000D03*
X101000000Y-89000000D03*
X101000000Y-87000000D03*
X101000000Y-85000000D03*
X101000000Y-83000000D03*
X101000000Y-81000000D03*
X101000000Y-79000000D03*
X113500000Y-60500000D03*
X113500000Y-59000000D03*
X113500000Y-57500000D03*
X113500000Y-56000000D03*
X113500000Y-54500000D03*
X113500000Y-53000000D03*
X113500000Y-51500000D03*
X113500000Y-50000000D03*
X113500000Y-48500000D03*
X113500000Y-47000000D03*
X118000000Y-47000000D03*
X116500000Y-47000000D03*
X115000000Y-47000000D03*
X117043200Y-93472000D03*
X121000000Y-128500000D03*
X119500000Y-107500000D03*
X119500000Y-111000000D03*
X124000000Y-115500000D03*
X127000000Y-75946000D03*
X124663200Y-85598000D03*
X129500000Y-54000000D03*
X133000000Y-51000000D03*
X133000000Y-54000000D03*
X133000000Y-57000000D03*
X133000000Y-60000000D03*
X129000000Y-60000000D03*
X129235200Y-84836000D03*
X125628400Y-93167200D03*
X124968000Y-94742000D03*
X124612400Y-105714800D03*
X132029200Y-94132400D03*
X119000000Y-60000000D03*
X119000000Y-57000000D03*
X119000000Y-54000000D03*
X119000000Y-51000000D03*
X113500000Y-62000000D03*
X109982000Y-91033600D03*
X110083600Y-98552000D03*
X129387600Y-89662000D03*
X124968000Y-89865200D03*
X121107200Y-94488000D03*
X126238000Y-98145600D03*
X101752400Y-106070400D03*
X106426000Y-104648000D03*
G04 #@! TO.N,VCC*
X106629200Y-87020400D03*
X119583200Y-102819200D03*
X123478800Y-96266000D03*
X129336800Y-94792800D03*
X121208800Y-93252800D03*
G04 #@! TO.N,/WIND_DIR*
X115976400Y-103530400D03*
X128066800Y-103530400D03*
G04 #@! TO.N,/MISO*
X121700000Y-60100000D03*
X116800000Y-90600000D03*
X113919000Y-89916000D03*
G04 #@! TO.N,/SCK*
X116992400Y-91592400D03*
X122400000Y-57300000D03*
X112000000Y-86600000D03*
G04 #@! TO.N,/MOSI*
X125018800Y-55575200D03*
G04 #@! TO.N,/RESET*
X115800000Y-91600000D03*
G04 #@! TO.N,/BME_SS*
X116000000Y-88000000D03*
X117000000Y-89000000D03*
G04 #@! TO.N,/RFM_SS*
X123037600Y-52476400D03*
X121818400Y-86918800D03*
G04 #@! TO.N,/RFM_RESET*
X128676400Y-95504000D03*
X122936000Y-51155600D03*
G04 #@! TO.N,/RFM_D0*
X126593600Y-95961200D03*
X126339600Y-84531200D03*
G04 #@! TO.N,/RFM_D1*
X127203200Y-84632800D03*
X127304800Y-95453200D03*
G04 #@! TO.N,/RFM_D2*
X128016000Y-84785200D03*
X127965200Y-96012000D03*
G04 #@! TO.N,Net-(D1-Pad2)*
X122478800Y-83058000D03*
X122478800Y-97790000D03*
G04 #@! TO.N,Net-(J11-Pad1)*
X124764800Y-82600800D03*
G04 #@! TO.N,Net-(C10-Pad1)*
X129900000Y-93200000D03*
G04 #@! TD*
D29*
G04 #@! TO.N,GND*
X110200000Y-79800000D02*
X110000000Y-79800000D01*
X110000000Y-79800000D02*
X108200000Y-81600000D01*
X113975000Y-84125000D02*
X114325000Y-84125000D01*
X114325000Y-84125000D02*
X115600000Y-85400000D01*
X113325000Y-81875000D02*
X113325000Y-79875000D01*
X113325000Y-79875000D02*
X113400000Y-79800000D01*
X134000000Y-75000000D02*
X133400000Y-75000000D01*
X133400000Y-75000000D02*
X132200000Y-76200000D01*
X101000000Y-83000000D02*
X103000000Y-83000000D01*
X110200000Y-79800000D02*
X109600000Y-80400000D01*
X119000000Y-54000000D02*
X123546000Y-54000000D01*
X123546000Y-54000000D02*
X125526800Y-52019200D01*
X106781600Y-102463600D02*
X108356400Y-102463600D01*
X108356400Y-102463600D02*
X109169200Y-101650800D01*
X121000000Y-63500000D02*
X121000000Y-66500000D01*
X113500000Y-66500000D02*
X115000000Y-66500000D01*
X111369600Y-91389200D02*
X111369600Y-90430400D01*
X111369600Y-90430400D02*
X112300000Y-89500000D01*
X126746000Y-82702400D02*
X126746000Y-82651600D01*
X134000000Y-124000000D02*
X134000000Y-122000000D01*
X134000000Y-120000000D02*
X134000000Y-118000000D01*
X134000000Y-116000000D02*
X134000000Y-114000000D01*
X134000000Y-112000000D02*
X134000000Y-110000000D01*
X134000000Y-108000000D02*
X134000000Y-106000000D01*
X134000000Y-126000000D02*
X134000000Y-128000000D01*
X134000000Y-128000000D02*
X134000000Y-130000000D01*
X134000000Y-79000000D02*
X134000000Y-81000000D01*
X134000000Y-75000000D02*
X134000000Y-77000000D01*
X134000000Y-71000000D02*
X134000000Y-73000000D01*
X134000000Y-67000000D02*
X134000000Y-69000000D01*
X113500000Y-66500000D02*
X113500000Y-68000000D01*
X113500000Y-69500000D02*
X113500000Y-71000000D01*
X113500000Y-72500000D02*
X113500000Y-74000000D01*
X113500000Y-75500000D02*
X112500000Y-76500000D01*
X111000000Y-76500000D02*
X109500000Y-76500000D01*
X108000000Y-76500000D02*
X106500000Y-76500000D01*
X105000000Y-76500000D02*
X103500000Y-76500000D01*
X102000000Y-76500000D02*
X101000000Y-77500000D01*
X101000000Y-127000000D02*
X101000000Y-129000000D01*
X101000000Y-123000000D02*
X101000000Y-125000000D01*
X101000000Y-119000000D02*
X101000000Y-121000000D01*
X101000000Y-115000000D02*
X101000000Y-117000000D01*
X101000000Y-111000000D02*
X101000000Y-113000000D01*
X101000000Y-107000000D02*
X101000000Y-109000000D01*
X101000000Y-103000000D02*
X101000000Y-105000000D01*
X101000000Y-99000000D02*
X101000000Y-101000000D01*
X101000000Y-95000000D02*
X101000000Y-97000000D01*
X101000000Y-91000000D02*
X101000000Y-93000000D01*
X101000000Y-87000000D02*
X101000000Y-89000000D01*
X101000000Y-83000000D02*
X101000000Y-85000000D01*
X101000000Y-79000000D02*
X101000000Y-81000000D01*
X113500000Y-60500000D02*
X113500000Y-59000000D01*
X113500000Y-57500000D02*
X113500000Y-56000000D01*
X113500000Y-54500000D02*
X113500000Y-52500000D01*
X113500000Y-52500000D02*
X113500000Y-53000000D01*
X113500000Y-51500000D02*
X113500000Y-50000000D01*
X113500000Y-48500000D02*
X113500000Y-47000000D01*
X118000000Y-47000000D02*
X119000000Y-48000000D01*
X115000000Y-47000000D02*
X116500000Y-47000000D01*
X119000000Y-48000000D02*
X119000000Y-48500000D01*
X119300000Y-94000000D02*
X119269200Y-94030800D01*
X119269200Y-94030800D02*
X117602000Y-94030800D01*
X117602000Y-94030800D02*
X117043200Y-93472000D01*
X124000000Y-115500000D02*
X119500000Y-111000000D01*
X112500000Y-131000000D02*
X112500000Y-128000000D01*
X120500000Y-128000000D02*
X121000000Y-128500000D01*
X112500000Y-128000000D02*
X120500000Y-128000000D01*
X125000000Y-88300000D02*
X125000000Y-85934800D01*
X125000000Y-85934800D02*
X124663200Y-85598000D01*
X115824000Y-75250800D02*
X116074800Y-75000000D01*
X133000000Y-60000000D02*
X129000000Y-60000000D01*
X133000000Y-54000000D02*
X133000000Y-57000000D01*
X133000000Y-48500000D02*
X133000000Y-51000000D01*
X128304800Y-86258400D02*
X128304800Y-85766400D01*
X128304800Y-85766400D02*
X129235200Y-84836000D01*
X126288800Y-92506800D02*
X125628400Y-93167200D01*
X127609600Y-92506800D02*
X126288800Y-92506800D01*
X123580400Y-105714800D02*
X124612400Y-105714800D01*
X130700000Y-94000000D02*
X131896800Y-94000000D01*
X131896800Y-94000000D02*
X132029200Y-94132400D01*
X121000000Y-63500000D02*
X121000000Y-62000000D01*
X121000000Y-62000000D02*
X119000000Y-60000000D01*
X119000000Y-57000000D02*
X119000000Y-54000000D01*
X119000000Y-48500000D02*
X119000000Y-51000000D01*
X119000000Y-48500000D02*
X119000000Y-48000000D01*
X113792000Y-63058000D02*
X113792000Y-62792000D01*
X114292000Y-62792000D02*
X113500000Y-62000000D01*
X111369600Y-91389200D02*
X110337600Y-91389200D01*
X110337600Y-91389200D02*
X109982000Y-91033600D01*
X111369600Y-98501200D02*
X110134400Y-98501200D01*
X110134400Y-98501200D02*
X110083600Y-98552000D01*
X130700000Y-94000000D02*
X129102800Y-94000000D01*
X127609600Y-91440000D02*
X129387600Y-89662000D01*
X127609600Y-92506800D02*
X127609600Y-91440000D01*
X129102800Y-94000000D02*
X127609600Y-92506800D01*
X125000000Y-88300000D02*
X125000000Y-89833200D01*
X125000000Y-89833200D02*
X124968000Y-89865200D01*
X119300000Y-94000000D02*
X120619200Y-94000000D01*
X120619200Y-94000000D02*
X121107200Y-94488000D01*
X125800000Y-99700000D02*
X125800000Y-98583600D01*
X125800000Y-98583600D02*
X126238000Y-98145600D01*
X103038400Y-106019600D02*
X102987600Y-106070400D01*
X102987600Y-106070400D02*
X101752400Y-106070400D01*
X106543600Y-106019600D02*
X106426000Y-105902000D01*
X106426000Y-105902000D02*
X106426000Y-104648000D01*
D30*
G04 #@! TO.N,Net-(AE1-Pad1)*
X113792000Y-64958000D02*
X114958000Y-64958000D01*
X114958000Y-64958000D02*
X115000000Y-65000000D01*
X113000000Y-65000000D02*
X113750000Y-65000000D01*
X113750000Y-65000000D02*
X113792000Y-64958000D01*
D29*
G04 #@! TO.N,VCC*
X112675000Y-81875000D02*
X112675000Y-81179000D01*
X111810800Y-80314800D02*
X111810800Y-78333600D01*
X112675000Y-81179000D02*
X111810800Y-80314800D01*
X112675000Y-78333600D02*
X112725200Y-78333600D01*
X114046000Y-78333600D02*
X112725200Y-78333600D01*
X112725200Y-78333600D02*
X111810800Y-78333600D01*
X111810800Y-78333600D02*
X107188000Y-78333600D01*
X106629200Y-78892400D02*
X106629200Y-87020400D01*
X107188000Y-78333600D02*
X106629200Y-78892400D01*
X122500000Y-127812800D02*
X122500000Y-126884800D01*
X122500000Y-126884800D02*
X122462800Y-126847600D01*
X126984000Y-68580000D02*
X126984000Y-69866000D01*
X125476000Y-71374000D02*
X125476000Y-78333600D01*
X126984000Y-69866000D02*
X125476000Y-71374000D01*
X126984000Y-66852800D02*
X126984000Y-68580000D01*
X127000000Y-63500000D02*
X127000000Y-66836800D01*
X127000000Y-66836800D02*
X126984000Y-66852800D01*
X118125200Y-106375200D02*
X118125200Y-104277200D01*
X118125200Y-104277200D02*
X119583200Y-102819200D01*
X123478800Y-96266000D02*
X125000000Y-96266000D01*
X125000000Y-96266000D02*
X125018800Y-96266000D01*
X125018800Y-96266000D02*
X125000000Y-96266000D01*
X113975000Y-81875000D02*
X113975000Y-81351000D01*
X115824000Y-79502000D02*
X115824000Y-78333600D01*
X113975000Y-81351000D02*
X115824000Y-79502000D01*
X103240800Y-104190800D02*
X102666800Y-104190800D01*
X102514400Y-104038400D02*
X102514400Y-101346000D01*
X102666800Y-104190800D02*
X102514400Y-104038400D01*
X111709200Y-106360000D02*
X112994400Y-106360000D01*
X113639600Y-105714800D02*
X115316000Y-105714800D01*
X112994400Y-106360000D02*
X113639600Y-105714800D01*
X115316000Y-105714800D02*
X117922000Y-105714800D01*
X115824000Y-78028800D02*
X115824000Y-78333600D01*
X115824000Y-78333600D02*
X115824000Y-78282800D01*
X115824000Y-78282800D02*
X115824000Y-78333600D01*
X111709200Y-106360000D02*
X111724400Y-106375200D01*
X111724400Y-106375200D02*
X112064800Y-106375200D01*
X118125200Y-106680000D02*
X118125200Y-106375200D01*
X118125200Y-106375200D02*
X118125200Y-105918000D01*
X118125200Y-105918000D02*
X117922000Y-105714800D01*
X122500000Y-131000000D02*
X128500000Y-131000000D01*
X129336800Y-94792800D02*
X129344000Y-94800000D01*
X129344000Y-94800000D02*
X130700000Y-94800000D01*
X126304800Y-86258400D02*
X125800000Y-86258400D01*
X125780800Y-86106000D02*
X125800000Y-86106000D01*
X125780800Y-86239200D02*
X125780800Y-86106000D01*
X125800000Y-86258400D02*
X125780800Y-86239200D01*
X121462800Y-93200000D02*
X121462800Y-93167200D01*
X121430000Y-93200000D02*
X121462800Y-93167200D01*
X121261600Y-93200000D02*
X121430000Y-93200000D01*
X121261600Y-93200000D02*
X121208800Y-93252800D01*
X125000000Y-99700000D02*
X125000000Y-98418400D01*
X122500000Y-131000000D02*
X122500000Y-127812800D01*
X122500000Y-127812800D02*
X122500000Y-116150000D01*
X118125200Y-111775200D02*
X118125200Y-106680000D01*
X122500000Y-116150000D02*
X118125200Y-111775200D01*
X115824000Y-77250800D02*
X115824000Y-78028800D01*
X115824000Y-78028800D02*
X115824000Y-78079600D01*
X113995200Y-78333600D02*
X114046000Y-78333600D01*
X114046000Y-78333600D02*
X115824000Y-78333600D01*
X115824000Y-78333600D02*
X116078000Y-78333600D01*
X116078000Y-78333600D02*
X125476000Y-78333600D01*
X125800000Y-88300000D02*
X125800000Y-86106000D01*
X125800000Y-86106000D02*
X125800000Y-85109200D01*
X125800000Y-85109200D02*
X125476000Y-84785200D01*
X125476000Y-84785200D02*
X125476000Y-78333600D01*
X125000000Y-99700000D02*
X125000000Y-96266000D01*
X125000000Y-96266000D02*
X125000000Y-95892800D01*
X125000000Y-95892800D02*
X126092800Y-94800000D01*
X125800000Y-88300000D02*
X125800000Y-91892800D01*
X125800000Y-91892800D02*
X124492800Y-93200000D01*
X130700000Y-94800000D02*
X126092800Y-94800000D01*
X124492800Y-93200000D02*
X121462800Y-93200000D01*
X121462800Y-93200000D02*
X119300000Y-93200000D01*
X126092800Y-94800000D02*
X124492800Y-93200000D01*
G04 #@! TO.N,/RAIN*
X119822000Y-105714800D02*
X120548400Y-105714800D01*
X121580400Y-105714800D02*
X120548400Y-105714800D01*
X121900000Y-110500000D02*
X122300000Y-110100000D01*
X120700000Y-110500000D02*
X121900000Y-110500000D01*
X120548400Y-107851600D02*
X119900000Y-108500000D01*
X120548400Y-101955600D02*
X120548400Y-107851600D01*
X121000000Y-99700000D02*
X121000000Y-101504000D01*
X119900000Y-108500000D02*
X119900000Y-109700000D01*
X121000000Y-101504000D02*
X120548400Y-101955600D01*
X119900000Y-109700000D02*
X120700000Y-110500000D01*
X122875000Y-110100000D02*
X123865000Y-109110000D01*
X122300000Y-110100000D02*
X122875000Y-110100000D01*
G04 #@! TO.N,/WIND_DIR*
X115976400Y-103530400D02*
X106625200Y-103530400D01*
X106625200Y-103530400D02*
X106574400Y-103581200D01*
X105964800Y-104190800D02*
X105140800Y-104190800D01*
X105964800Y-104190800D02*
X106574400Y-103581200D01*
X128066800Y-103530400D02*
X128065402Y-103529002D01*
X128065402Y-103529002D02*
X128066800Y-103530400D01*
X128066800Y-103530400D02*
X128066800Y-103527604D01*
X132532000Y-92400000D02*
X132754796Y-92622796D01*
X132754796Y-92622796D02*
X132754796Y-98839608D01*
X132754796Y-98839608D02*
X128066800Y-103527604D01*
X130700000Y-92400000D02*
X132532000Y-92400000D01*
X105038400Y-106019600D02*
X105038400Y-107730800D01*
X106570000Y-111650000D02*
X108095000Y-111650000D01*
X105054400Y-110134400D02*
X106570000Y-111650000D01*
X105054400Y-107746800D02*
X105054400Y-110134400D01*
X105038400Y-107730800D02*
X105054400Y-107746800D01*
X105140800Y-104190800D02*
X105140800Y-105917200D01*
X105140800Y-105917200D02*
X105038400Y-106019600D01*
G04 #@! TO.N,/WIND_SPEED*
X111709200Y-104460000D02*
X111927600Y-104241600D01*
X111927600Y-104241600D02*
X116281200Y-104241600D01*
X119300000Y-101222800D02*
X119300000Y-98000000D01*
X116281200Y-104241600D02*
X119300000Y-101222800D01*
X111709200Y-104460000D02*
X111490800Y-104241600D01*
X111490800Y-104241600D02*
X110134400Y-104241600D01*
X110134400Y-104241600D02*
X109365000Y-105011000D01*
X109365000Y-105011000D02*
X109365000Y-106019600D01*
X108543600Y-106019600D02*
X109365000Y-106019600D01*
X109365000Y-106019600D02*
X109321600Y-106019600D01*
X109321600Y-106019600D02*
X109365000Y-106019600D01*
X111709200Y-104460000D02*
X111267200Y-104460000D01*
X109365000Y-106019600D02*
X109365000Y-109110000D01*
D30*
G04 #@! TO.N,Net-(C7-Pad1)*
X118211600Y-65293200D02*
X118211600Y-64288400D01*
X118211600Y-64288400D02*
X119000000Y-63500000D01*
X117000000Y-65000000D02*
X117500000Y-65000000D01*
X117500000Y-65000000D02*
X119000000Y-63500000D01*
D29*
G04 #@! TO.N,Net-(C8-Pad1)*
X113772000Y-93395200D02*
X113772000Y-91791600D01*
X113772000Y-91791600D02*
X113369600Y-91389200D01*
X119300000Y-94800000D02*
X116440800Y-94800000D01*
X115036000Y-93395200D02*
X113772000Y-93395200D01*
X116440800Y-94800000D02*
X115036000Y-93395200D01*
G04 #@! TO.N,/MISO*
X121707400Y-60107400D02*
X121807400Y-60107400D01*
X121700000Y-60100000D02*
X121707400Y-60107400D01*
X131000000Y-48500000D02*
X131000000Y-50965600D01*
X127711200Y-54203600D02*
X121807400Y-60107400D01*
X127762000Y-54203600D02*
X127711200Y-54203600D01*
X131000000Y-50965600D02*
X127762000Y-54203600D01*
X109372400Y-88849200D02*
X111850800Y-88849200D01*
X111850800Y-88849200D02*
X112351500Y-88348500D01*
X119300000Y-90800000D02*
X117000000Y-90800000D01*
X117000000Y-90800000D02*
X116800000Y-90600000D01*
X113919000Y-89916000D02*
X112351500Y-88348500D01*
X112351500Y-88348500D02*
X111340900Y-87337900D01*
X111673000Y-81875000D02*
X111252000Y-82296000D01*
X111252000Y-82296000D02*
X111252000Y-87249000D01*
X111252000Y-87249000D02*
X111340900Y-87337900D01*
X112025000Y-81875000D02*
X111673000Y-81875000D01*
X109372400Y-88849200D02*
X109829600Y-88849200D01*
G04 #@! TO.N,/SCK*
X127000000Y-52679600D02*
X122400000Y-57279600D01*
X116992400Y-91592400D02*
X117000000Y-91600000D01*
X117000000Y-91600000D02*
X117289600Y-91600000D01*
X117289600Y-91600000D02*
X117348000Y-91541600D01*
X117348000Y-91600000D02*
X117348000Y-91541600D01*
X127000000Y-52679600D02*
X127000000Y-48500000D01*
X122400000Y-57279600D02*
X122400000Y-57300000D01*
X112000000Y-86600000D02*
X112025000Y-86600000D01*
X112025000Y-86600000D02*
X112000000Y-86600000D01*
X112000000Y-86600000D02*
X112025000Y-86600000D01*
X112025000Y-84125000D02*
X112025000Y-86600000D01*
X112025000Y-86600000D02*
X112025000Y-86817200D01*
X112025000Y-86817200D02*
X112025000Y-86879000D01*
X116746000Y-91600000D02*
X117348000Y-91600000D01*
X117348000Y-91600000D02*
X119300000Y-91600000D01*
X112025000Y-86879000D02*
X116746000Y-91600000D01*
G04 #@! TO.N,/MOSI*
X129000000Y-51594000D02*
X129000000Y-48500000D01*
X129000000Y-51594000D02*
X125018800Y-55575200D01*
X120396000Y-86664800D02*
X124002800Y-83058000D01*
X120396000Y-86664800D02*
X118313200Y-86664800D01*
X115989000Y-88989000D02*
X118313200Y-86664800D01*
X124002800Y-83058000D02*
X124002800Y-80518000D01*
X119300000Y-90000000D02*
X117000000Y-90000000D01*
X112675000Y-85675000D02*
X112675000Y-84125000D01*
X117000000Y-90000000D02*
X115989000Y-88989000D01*
X115989000Y-88989000D02*
X112675000Y-85675000D01*
G04 #@! TO.N,/RESET*
X119300000Y-92400000D02*
X116600000Y-92400000D01*
X116600000Y-92400000D02*
X115800000Y-91600000D01*
G04 #@! TO.N,/BME_SS*
X121000000Y-88300000D02*
X117700000Y-88300000D01*
X113325000Y-85325000D02*
X113325000Y-84125000D01*
X116000000Y-88000000D02*
X113325000Y-85325000D01*
X117700000Y-88300000D02*
X117000000Y-89000000D01*
G04 #@! TO.N,/RFM_SS*
X125000000Y-50514000D02*
X123037600Y-52476400D01*
X121818400Y-86918800D02*
X121800000Y-86937200D01*
X121800000Y-88300000D02*
X121800000Y-86937200D01*
X125000000Y-50514000D02*
X125000000Y-48500000D01*
G04 #@! TO.N,/RFM_RESET*
X129661200Y-97200000D02*
X128676400Y-96215200D01*
X128676400Y-96215200D02*
X128676400Y-95504000D01*
X122936000Y-48564000D02*
X122936000Y-51155600D01*
X129661200Y-97200000D02*
X130700000Y-97200000D01*
X122936000Y-48564000D02*
X123000000Y-48500000D01*
G04 #@! TO.N,/RFM_D0*
X126339600Y-84531200D02*
X129000000Y-81870800D01*
X128200000Y-99700000D02*
X128200000Y-98024800D01*
X126593600Y-96418400D02*
X128200000Y-98024800D01*
X126593600Y-95961200D02*
X126593600Y-96418400D01*
X129000000Y-81870800D02*
X129000000Y-63500000D01*
G04 #@! TO.N,/RFM_D1*
X131000000Y-63500000D02*
X131000000Y-67131602D01*
X127304800Y-95453200D02*
X127304800Y-96445198D01*
X127304800Y-96445198D02*
X129000000Y-98140398D01*
X129000000Y-98140398D02*
X129000000Y-99700000D01*
X129540000Y-82296000D02*
X127203200Y-84632800D01*
X129540000Y-68591602D02*
X129540000Y-82296000D01*
X131000000Y-67131602D02*
X129540000Y-68591602D01*
G04 #@! TO.N,/RFM_D2*
X133000000Y-63500000D02*
X133000000Y-65932800D01*
X127965200Y-96012000D02*
X127965200Y-96469200D01*
X127965200Y-96469200D02*
X129496000Y-98000000D01*
X129496000Y-98000000D02*
X130700000Y-98000000D01*
X130098800Y-82702400D02*
X128016000Y-84785200D01*
X130098800Y-68834000D02*
X130098800Y-82702400D01*
X133000000Y-65932800D02*
X130098800Y-68834000D01*
G04 #@! TO.N,Net-(C9-Pad1)*
X113772000Y-96495200D02*
X113772000Y-98098800D01*
X113772000Y-98098800D02*
X113369600Y-98501200D01*
X119300000Y-95600000D02*
X115982000Y-95600000D01*
X115086800Y-96495200D02*
X113772000Y-96495200D01*
X115982000Y-95600000D02*
X115086800Y-96495200D01*
G04 #@! TO.N,/SOLAR_6*
X134569200Y-100888800D02*
X134569200Y-100431600D01*
X133816800Y-88300000D02*
X129000000Y-88300000D01*
X134569200Y-89052400D02*
X133816800Y-88300000D01*
X134569200Y-100431600D02*
X134569200Y-89052400D01*
X128614799Y-106843201D02*
X128658000Y-106800000D01*
X128614799Y-110710201D02*
X128614799Y-106843201D01*
X127675000Y-111650000D02*
X128614799Y-110710201D01*
X128658000Y-106800000D02*
X134569200Y-100888800D01*
G04 #@! TO.N,/SOLAR_5*
X134112000Y-91770200D02*
X134112000Y-90881200D01*
X134112000Y-100355400D02*
X134112000Y-91770200D01*
X133230800Y-90000000D02*
X130700000Y-90000000D01*
X134112000Y-90881200D02*
X133230800Y-90000000D01*
X127344799Y-107122601D02*
X127367400Y-107100000D01*
X127344799Y-108170201D02*
X127344799Y-107122601D01*
X126405000Y-109110000D02*
X127344799Y-108170201D01*
X127367400Y-107100000D02*
X134112000Y-100355400D01*
G04 #@! TO.N,/SOLAR_2*
X133654800Y-91592400D02*
X132862400Y-90800000D01*
X122595000Y-111650000D02*
X123645000Y-110600000D01*
X132862400Y-90800000D02*
X130700000Y-90800000D01*
X123645000Y-110600000D02*
X124300000Y-110600000D01*
X124300000Y-110600000D02*
X125129801Y-109770199D01*
X125129801Y-109770199D02*
X125129801Y-108397799D01*
X133654800Y-99872800D02*
X133654800Y-91592400D01*
X125129801Y-108397799D02*
X133654800Y-99872800D01*
G04 #@! TO.N,/SOLAR_1*
X133204798Y-92158398D02*
X132646400Y-91600000D01*
X133204798Y-99330804D02*
X133204798Y-92158398D01*
X124700601Y-107835001D02*
X133204798Y-99330804D01*
X121325000Y-109110000D02*
X122599999Y-107835001D01*
X132646400Y-91600000D02*
X130700000Y-91600000D01*
X122599999Y-107835001D02*
X124700601Y-107835001D01*
G04 #@! TO.N,Net-(D1-Pad1)*
X116316800Y-82933200D02*
X116250000Y-83000000D01*
G04 #@! TO.N,Net-(D1-Pad2)*
X124200000Y-99700000D02*
X124200000Y-98444400D01*
X122478800Y-83058000D02*
X118848000Y-83058000D01*
X123545600Y-97790000D02*
X122478800Y-97790000D01*
X124200000Y-98444400D02*
X123545600Y-97790000D01*
X118848000Y-83058000D02*
X118790000Y-83000000D01*
G04 #@! TO.N,Net-(J11-Pad1)*
X124764800Y-83261200D02*
X124764800Y-82600800D01*
X122600000Y-88300000D02*
X122600000Y-85426000D01*
X122600000Y-85426000D02*
X124764800Y-83261200D01*
G04 #@! TO.N,Net-(J12-Pad1)*
X126600000Y-99700000D02*
X126600000Y-100400000D01*
X126600000Y-100400000D02*
X125000000Y-102000000D01*
G04 #@! TO.N,Net-(J12-Pad2)*
X127400000Y-99700000D02*
X127400000Y-101860000D01*
X127400000Y-101860000D02*
X127540000Y-102000000D01*
G04 #@! TO.N,Net-(J13-Pad1)*
X119300000Y-96400000D02*
X116858400Y-96400000D01*
X114960400Y-98298000D02*
X114960400Y-100533200D01*
X116858400Y-96400000D02*
X114960400Y-98298000D01*
G04 #@! TO.N,Net-(J13-Pad2)*
X119300000Y-97200000D02*
X118242800Y-97200000D01*
X117500400Y-97942400D02*
X117500400Y-100533200D01*
X118242800Y-97200000D02*
X117500400Y-97942400D01*
G04 #@! TO.N,Net-(C10-Pad1)*
X130700000Y-93200000D02*
X129900000Y-93200000D01*
G04 #@! TD*
D31*
G04 #@! TO.N,GND*
G36*
X117765000Y-46873691D02*
X117765000Y-48214250D01*
X117923750Y-48373000D01*
X118873000Y-48373000D01*
X118873000Y-48353000D01*
X119127000Y-48353000D01*
X119127000Y-48373000D01*
X119147000Y-48373000D01*
X119147000Y-48627000D01*
X119127000Y-48627000D01*
X119127000Y-50476250D01*
X119285750Y-50635000D01*
X119726310Y-50635000D01*
X119959699Y-50538327D01*
X120000953Y-50497073D01*
X120152235Y-50598157D01*
X120400000Y-50647440D01*
X121600000Y-50647440D01*
X121847765Y-50598157D01*
X122000000Y-50496436D01*
X122152235Y-50598157D01*
X122168014Y-50601296D01*
X122143345Y-50625965D01*
X122001000Y-50969617D01*
X122001000Y-51341583D01*
X122143345Y-51685235D01*
X122324910Y-51866800D01*
X122244945Y-51946765D01*
X122102600Y-52290417D01*
X122102600Y-52662383D01*
X122244945Y-53006035D01*
X122507965Y-53269055D01*
X122851617Y-53411400D01*
X123223583Y-53411400D01*
X123567235Y-53269055D01*
X123830255Y-53006035D01*
X123972600Y-52662383D01*
X123972600Y-52616201D01*
X125484473Y-51104329D01*
X125547929Y-51061929D01*
X125670762Y-50878097D01*
X125715904Y-50810538D01*
X125748346Y-50647440D01*
X125754457Y-50616717D01*
X125847765Y-50598157D01*
X126000000Y-50496436D01*
X126152235Y-50598157D01*
X126240000Y-50615614D01*
X126240000Y-52364797D01*
X122239799Y-56365000D01*
X122214017Y-56365000D01*
X121870365Y-56507345D01*
X121607345Y-56770365D01*
X121465000Y-57114017D01*
X121465000Y-57485983D01*
X121607345Y-57829635D01*
X121870365Y-58092655D01*
X122214017Y-58235000D01*
X122585983Y-58235000D01*
X122618445Y-58221554D01*
X121674999Y-59165000D01*
X121514017Y-59165000D01*
X121170365Y-59307345D01*
X120907345Y-59570365D01*
X120765000Y-59914017D01*
X120765000Y-60285983D01*
X120907345Y-60629635D01*
X121170365Y-60892655D01*
X121514017Y-61035000D01*
X121885983Y-61035000D01*
X122229635Y-60892655D01*
X122492655Y-60629635D01*
X122586480Y-60403121D01*
X128093378Y-54896224D01*
X128309929Y-54751529D01*
X128352331Y-54688070D01*
X131484473Y-51555929D01*
X131547929Y-51513529D01*
X131715904Y-51262137D01*
X131760000Y-51040452D01*
X131760000Y-51040448D01*
X131774888Y-50965600D01*
X131760000Y-50890752D01*
X131760000Y-50615614D01*
X131847765Y-50598157D01*
X131999047Y-50497073D01*
X132040301Y-50538327D01*
X132273690Y-50635000D01*
X132714250Y-50635000D01*
X132873000Y-50476250D01*
X132873000Y-48627000D01*
X133127000Y-48627000D01*
X133127000Y-50476250D01*
X133285750Y-50635000D01*
X133726310Y-50635000D01*
X133959699Y-50538327D01*
X134138327Y-50359698D01*
X134235000Y-50126309D01*
X134235000Y-48785750D01*
X134076250Y-48627000D01*
X133127000Y-48627000D01*
X132873000Y-48627000D01*
X132853000Y-48627000D01*
X132853000Y-48373000D01*
X132873000Y-48373000D01*
X132873000Y-48353000D01*
X133127000Y-48353000D01*
X133127000Y-48373000D01*
X134076250Y-48373000D01*
X134235000Y-48214250D01*
X134235000Y-46873691D01*
X134167197Y-46710000D01*
X134290001Y-46710000D01*
X134290001Y-87702139D01*
X134113337Y-87584096D01*
X133891652Y-87540000D01*
X133891647Y-87540000D01*
X133816800Y-87525112D01*
X133741953Y-87540000D01*
X129920451Y-87540000D01*
X129873157Y-87302235D01*
X129732809Y-87092191D01*
X129522765Y-86951843D01*
X129364800Y-86920422D01*
X129364800Y-86544150D01*
X129206050Y-86385400D01*
X128369300Y-86385400D01*
X128369300Y-86405400D01*
X128115300Y-86405400D01*
X128115300Y-86385400D01*
X128095300Y-86385400D01*
X128095300Y-86131400D01*
X128115300Y-86131400D01*
X128115300Y-86111400D01*
X128369300Y-86111400D01*
X128369300Y-86131400D01*
X129206050Y-86131400D01*
X129364800Y-85972650D01*
X129364800Y-85680550D01*
X130798200Y-85680550D01*
X130798200Y-86371110D01*
X130894873Y-86604499D01*
X131073502Y-86783127D01*
X131306891Y-86879800D01*
X131997450Y-86879800D01*
X132156200Y-86721050D01*
X132156200Y-85521800D01*
X132410200Y-85521800D01*
X132410200Y-86721050D01*
X132568950Y-86879800D01*
X133259509Y-86879800D01*
X133492898Y-86783127D01*
X133671527Y-86604499D01*
X133768200Y-86371110D01*
X133768200Y-85680550D01*
X133609450Y-85521800D01*
X132410200Y-85521800D01*
X132156200Y-85521800D01*
X130956950Y-85521800D01*
X130798200Y-85680550D01*
X129364800Y-85680550D01*
X129364800Y-85432090D01*
X129268127Y-85198701D01*
X129089498Y-85020073D01*
X128951000Y-84962705D01*
X128951000Y-84925001D01*
X129457511Y-84418490D01*
X130798200Y-84418490D01*
X130798200Y-85109050D01*
X130956950Y-85267800D01*
X132156200Y-85267800D01*
X132156200Y-84068550D01*
X132410200Y-84068550D01*
X132410200Y-85267800D01*
X133609450Y-85267800D01*
X133768200Y-85109050D01*
X133768200Y-84418490D01*
X133671527Y-84185101D01*
X133492898Y-84006473D01*
X133259509Y-83909800D01*
X132568950Y-83909800D01*
X132410200Y-84068550D01*
X132156200Y-84068550D01*
X131997450Y-83909800D01*
X131306891Y-83909800D01*
X131073502Y-84006473D01*
X130894873Y-84185101D01*
X130798200Y-84418490D01*
X129457511Y-84418490D01*
X130583273Y-83292729D01*
X130646729Y-83250329D01*
X130814704Y-82998937D01*
X130858800Y-82777252D01*
X130858800Y-82777248D01*
X130873688Y-82702401D01*
X130858800Y-82627554D01*
X130858800Y-69148801D01*
X133484476Y-66523127D01*
X133547929Y-66480729D01*
X133590327Y-66417276D01*
X133590329Y-66417274D01*
X133715903Y-66229338D01*
X133715904Y-66229337D01*
X133760000Y-66007652D01*
X133760000Y-66007648D01*
X133774888Y-65932801D01*
X133760000Y-65857954D01*
X133760000Y-65615614D01*
X133847765Y-65598157D01*
X134057809Y-65457809D01*
X134198157Y-65247765D01*
X134247440Y-65000000D01*
X134247440Y-62000000D01*
X134198157Y-61752235D01*
X134057809Y-61542191D01*
X133847765Y-61401843D01*
X133600000Y-61352560D01*
X132400000Y-61352560D01*
X132152235Y-61401843D01*
X132000000Y-61503564D01*
X131847765Y-61401843D01*
X131600000Y-61352560D01*
X130400000Y-61352560D01*
X130152235Y-61401843D01*
X130000000Y-61503564D01*
X129847765Y-61401843D01*
X129600000Y-61352560D01*
X128400000Y-61352560D01*
X128152235Y-61401843D01*
X128000000Y-61503564D01*
X127847765Y-61401843D01*
X127600000Y-61352560D01*
X126400000Y-61352560D01*
X126152235Y-61401843D01*
X126000000Y-61503564D01*
X125847765Y-61401843D01*
X125600000Y-61352560D01*
X124400000Y-61352560D01*
X124152235Y-61401843D01*
X124000000Y-61503564D01*
X123847765Y-61401843D01*
X123600000Y-61352560D01*
X122400000Y-61352560D01*
X122152235Y-61401843D01*
X122000953Y-61502927D01*
X121959699Y-61461673D01*
X121726310Y-61365000D01*
X121285750Y-61365000D01*
X121127000Y-61523750D01*
X121127000Y-63373000D01*
X121147000Y-63373000D01*
X121147000Y-63627000D01*
X121127000Y-63627000D01*
X121127000Y-65476250D01*
X121285750Y-65635000D01*
X121726310Y-65635000D01*
X121959699Y-65538327D01*
X122000953Y-65497073D01*
X122152235Y-65598157D01*
X122400000Y-65647440D01*
X123600000Y-65647440D01*
X123847765Y-65598157D01*
X124000000Y-65496436D01*
X124152235Y-65598157D01*
X124210644Y-65609775D01*
X124199302Y-65614473D01*
X124020673Y-65793101D01*
X123924000Y-66026490D01*
X123924000Y-66567050D01*
X124082750Y-66725800D01*
X124919500Y-66725800D01*
X124919500Y-66705800D01*
X125173500Y-66705800D01*
X125173500Y-66725800D01*
X125193500Y-66725800D01*
X125193500Y-66979800D01*
X125173500Y-66979800D01*
X125173500Y-68249800D01*
X125193500Y-68249800D01*
X125193500Y-68503800D01*
X125173500Y-68503800D01*
X125173500Y-69553050D01*
X125332250Y-69711800D01*
X125660309Y-69711800D01*
X125893698Y-69615127D01*
X126046793Y-69462033D01*
X126047584Y-69463216D01*
X126206079Y-69569119D01*
X124991530Y-70783669D01*
X124928071Y-70826071D01*
X124760096Y-71077464D01*
X124716000Y-71299149D01*
X124716000Y-71299153D01*
X124701112Y-71374000D01*
X124716000Y-71448847D01*
X124716001Y-77573600D01*
X117143284Y-77573600D01*
X117171440Y-77432050D01*
X117171440Y-76944550D01*
X117103602Y-76603506D01*
X116910416Y-76314384D01*
X116909233Y-76313593D01*
X117062327Y-76160498D01*
X117159000Y-75927109D01*
X117159000Y-75599050D01*
X117000250Y-75440300D01*
X115951000Y-75440300D01*
X115951000Y-75460300D01*
X115697000Y-75460300D01*
X115697000Y-75440300D01*
X114647750Y-75440300D01*
X114489000Y-75599050D01*
X114489000Y-75927109D01*
X114585673Y-76160498D01*
X114738767Y-76313593D01*
X114737584Y-76314384D01*
X114544398Y-76603506D01*
X114476560Y-76944550D01*
X114476560Y-77432050D01*
X114504716Y-77573600D01*
X111885652Y-77573600D01*
X111810800Y-77558711D01*
X111735948Y-77573600D01*
X107262848Y-77573600D01*
X107188000Y-77558712D01*
X107113152Y-77573600D01*
X107113148Y-77573600D01*
X106891463Y-77617696D01*
X106640071Y-77785671D01*
X106597671Y-77849127D01*
X106144730Y-78302069D01*
X106081271Y-78344471D01*
X105913296Y-78595864D01*
X105869200Y-78817549D01*
X105869200Y-78817553D01*
X105854312Y-78892400D01*
X105869200Y-78967247D01*
X105869201Y-86458109D01*
X105836545Y-86490765D01*
X105694200Y-86834417D01*
X105694200Y-87206383D01*
X105836545Y-87550035D01*
X106099565Y-87813055D01*
X106443217Y-87955400D01*
X106815183Y-87955400D01*
X107158835Y-87813055D01*
X107421855Y-87550035D01*
X107564200Y-87206383D01*
X107564200Y-86834417D01*
X107421855Y-86490765D01*
X107389200Y-86458110D01*
X107389200Y-79207201D01*
X107502802Y-79093600D01*
X111050801Y-79093600D01*
X111050800Y-80239953D01*
X111035912Y-80314800D01*
X111050800Y-80389647D01*
X111050800Y-80389651D01*
X111094896Y-80611336D01*
X111262871Y-80862729D01*
X111326329Y-80905131D01*
X111449858Y-81028659D01*
X111392191Y-81067191D01*
X111293936Y-81214239D01*
X111125071Y-81327071D01*
X111082669Y-81390530D01*
X110767530Y-81705669D01*
X110704071Y-81748071D01*
X110536096Y-81999464D01*
X110492000Y-82221149D01*
X110492000Y-82221153D01*
X110477112Y-82296000D01*
X110492000Y-82370847D01*
X110492001Y-85129633D01*
X110470165Y-85115043D01*
X110222400Y-85065760D01*
X108522400Y-85065760D01*
X108274635Y-85115043D01*
X108064591Y-85255391D01*
X107924243Y-85465435D01*
X107874960Y-85713200D01*
X107874960Y-87413200D01*
X107924243Y-87660965D01*
X107954468Y-87706200D01*
X107924243Y-87751435D01*
X107874960Y-87999200D01*
X107874960Y-89699200D01*
X107924243Y-89946965D01*
X108064591Y-90157009D01*
X108274635Y-90297357D01*
X108522400Y-90346640D01*
X110222400Y-90346640D01*
X110430534Y-90305240D01*
X110406273Y-90329501D01*
X110309600Y-90562890D01*
X110309600Y-91103450D01*
X110468350Y-91262200D01*
X111305100Y-91262200D01*
X111305100Y-90212950D01*
X111146350Y-90054200D01*
X110818291Y-90054200D01*
X110722351Y-90093940D01*
X110820557Y-89946965D01*
X110869840Y-89699200D01*
X110869840Y-89609200D01*
X111775953Y-89609200D01*
X111850800Y-89624088D01*
X111925647Y-89609200D01*
X111925652Y-89609200D01*
X112147337Y-89565104D01*
X112354728Y-89426529D01*
X112984000Y-90055802D01*
X112984000Y-90057544D01*
X112722306Y-90109598D01*
X112433184Y-90302784D01*
X112432393Y-90303967D01*
X112279298Y-90150873D01*
X112045909Y-90054200D01*
X111717850Y-90054200D01*
X111559100Y-90212950D01*
X111559100Y-91262200D01*
X111579100Y-91262200D01*
X111579100Y-91516200D01*
X111559100Y-91516200D01*
X111559100Y-91536200D01*
X111305100Y-91536200D01*
X111305100Y-91516200D01*
X110468350Y-91516200D01*
X110309600Y-91674950D01*
X110309600Y-91710172D01*
X110124235Y-91747043D01*
X109914191Y-91887391D01*
X109773843Y-92097435D01*
X109724560Y-92345200D01*
X109724560Y-94445200D01*
X109773843Y-94692965D01*
X109914191Y-94903009D01*
X109977334Y-94945200D01*
X109914191Y-94987391D01*
X109773843Y-95197435D01*
X109724560Y-95445200D01*
X109724560Y-97545200D01*
X109773843Y-97792965D01*
X109914191Y-98003009D01*
X110124235Y-98143357D01*
X110309600Y-98180228D01*
X110309600Y-98215450D01*
X110468350Y-98374200D01*
X111305100Y-98374200D01*
X111305100Y-98354200D01*
X111559100Y-98354200D01*
X111559100Y-98374200D01*
X111579100Y-98374200D01*
X111579100Y-98628200D01*
X111559100Y-98628200D01*
X111559100Y-99677450D01*
X111717850Y-99836200D01*
X112045909Y-99836200D01*
X112279298Y-99739527D01*
X112432393Y-99586433D01*
X112433184Y-99587616D01*
X112722306Y-99780802D01*
X113063350Y-99848640D01*
X113462960Y-99848640D01*
X113462960Y-101383200D01*
X113512243Y-101630965D01*
X113652591Y-101841009D01*
X113862635Y-101981357D01*
X114110400Y-102030640D01*
X115810400Y-102030640D01*
X116058165Y-101981357D01*
X116268209Y-101841009D01*
X116408557Y-101630965D01*
X116417584Y-101585581D01*
X116429775Y-101603825D01*
X116920982Y-101932039D01*
X117354144Y-102018200D01*
X117429798Y-102018200D01*
X116608144Y-102839854D01*
X116506035Y-102737745D01*
X116162383Y-102595400D01*
X115790417Y-102595400D01*
X115446765Y-102737745D01*
X115414110Y-102770400D01*
X106700046Y-102770400D01*
X106625199Y-102755512D01*
X106550352Y-102770400D01*
X106550348Y-102770400D01*
X106328663Y-102814496D01*
X106077271Y-102982471D01*
X106034871Y-103045927D01*
X105986749Y-103094049D01*
X105713094Y-102911198D01*
X105372050Y-102843360D01*
X104884550Y-102843360D01*
X104543506Y-102911198D01*
X104254384Y-103104384D01*
X104190800Y-103199544D01*
X104127216Y-103104384D01*
X103838094Y-102911198D01*
X103497050Y-102843360D01*
X103364802Y-102843360D01*
X103612165Y-102794157D01*
X103822209Y-102653809D01*
X103962557Y-102443765D01*
X104011840Y-102196000D01*
X104011840Y-100496000D01*
X103962557Y-100248235D01*
X103822209Y-100038191D01*
X103612165Y-99897843D01*
X103364400Y-99848560D01*
X101664400Y-99848560D01*
X101416635Y-99897843D01*
X101206591Y-100038191D01*
X101066243Y-100248235D01*
X101016960Y-100496000D01*
X101016960Y-102196000D01*
X101066243Y-102443765D01*
X101206591Y-102653809D01*
X101416635Y-102794157D01*
X101664400Y-102843440D01*
X101754400Y-102843440D01*
X101754400Y-103963553D01*
X101739512Y-104038400D01*
X101754400Y-104113247D01*
X101754400Y-104113251D01*
X101798496Y-104334936D01*
X101966471Y-104586329D01*
X102029930Y-104628731D01*
X102076469Y-104675270D01*
X102118871Y-104738729D01*
X102139313Y-104752388D01*
X102163084Y-104871891D01*
X102075073Y-104959901D01*
X101978400Y-105193290D01*
X101978400Y-105733850D01*
X102137150Y-105892600D01*
X102973900Y-105892600D01*
X102973900Y-105872600D01*
X103227900Y-105872600D01*
X103227900Y-105892600D01*
X103247900Y-105892600D01*
X103247900Y-106146600D01*
X103227900Y-106146600D01*
X103227900Y-107195850D01*
X103386650Y-107354600D01*
X103714709Y-107354600D01*
X103948098Y-107257927D01*
X104101193Y-107104833D01*
X104101984Y-107106016D01*
X104278401Y-107223894D01*
X104278401Y-107655949D01*
X104263512Y-107730800D01*
X104294400Y-107886085D01*
X104294401Y-110059548D01*
X104279512Y-110134400D01*
X104294401Y-110209252D01*
X104316058Y-110318128D01*
X104338497Y-110430937D01*
X104441087Y-110584473D01*
X104506472Y-110682329D01*
X104569928Y-110724729D01*
X105979671Y-112134473D01*
X106022071Y-112197929D01*
X106273463Y-112365904D01*
X106495148Y-112410000D01*
X106495152Y-112410000D01*
X106569999Y-112424888D01*
X106644846Y-112410000D01*
X107205251Y-112410000D01*
X107259949Y-112542052D01*
X107702948Y-112985051D01*
X108281753Y-113224800D01*
X108908247Y-113224800D01*
X109487052Y-112985051D01*
X109713135Y-112758968D01*
X110205637Y-112758968D01*
X110296923Y-113019580D01*
X110884833Y-113236045D01*
X111510828Y-113211049D01*
X111973077Y-113019580D01*
X112064363Y-112758968D01*
X111135000Y-111829605D01*
X110205637Y-112758968D01*
X109713135Y-112758968D01*
X109927317Y-112544786D01*
X110026032Y-112579363D01*
X110955395Y-111650000D01*
X110941253Y-111635858D01*
X111120858Y-111456253D01*
X111135000Y-111470395D01*
X111149143Y-111456253D01*
X111328748Y-111635858D01*
X111314605Y-111650000D01*
X112243968Y-112579363D01*
X112342683Y-112544786D01*
X112782948Y-112985051D01*
X113361753Y-113224800D01*
X113988247Y-113224800D01*
X114567052Y-112985051D01*
X115010051Y-112542052D01*
X115249800Y-111963247D01*
X115249800Y-111336753D01*
X115010051Y-110757948D01*
X114567052Y-110314949D01*
X113988247Y-110075200D01*
X113549808Y-110075200D01*
X113513970Y-110039362D01*
X113774580Y-109948077D01*
X113991045Y-109360167D01*
X113966049Y-108734172D01*
X113774580Y-108271923D01*
X113513968Y-108180637D01*
X112584605Y-109110000D01*
X112598748Y-109124143D01*
X112419143Y-109303748D01*
X112405000Y-109289605D01*
X112390858Y-109303748D01*
X112211253Y-109124143D01*
X112225395Y-109110000D01*
X111296032Y-108180637D01*
X111197317Y-108215214D01*
X110983135Y-108001032D01*
X111475637Y-108001032D01*
X112405000Y-108930395D01*
X113334363Y-108001032D01*
X113243077Y-107740420D01*
X112655167Y-107523955D01*
X112029172Y-107548951D01*
X111566923Y-107740420D01*
X111475637Y-108001032D01*
X110983135Y-108001032D01*
X110757052Y-107774949D01*
X110178247Y-107535200D01*
X110125000Y-107535200D01*
X110125000Y-106094452D01*
X110139889Y-106019600D01*
X110125000Y-105944748D01*
X110125000Y-105325801D01*
X110423610Y-105027191D01*
X110429598Y-105057294D01*
X110622784Y-105346416D01*
X110717944Y-105410000D01*
X110622784Y-105473584D01*
X110429598Y-105762706D01*
X110361760Y-106103750D01*
X110361760Y-106591250D01*
X110429598Y-106932294D01*
X110622784Y-107221416D01*
X110911906Y-107414602D01*
X111252950Y-107482440D01*
X112165450Y-107482440D01*
X112506494Y-107414602D01*
X112795616Y-107221416D01*
X112863380Y-107120000D01*
X112919553Y-107120000D01*
X112994400Y-107134888D01*
X113069247Y-107120000D01*
X113069252Y-107120000D01*
X113290937Y-107075904D01*
X113542329Y-106907929D01*
X113584731Y-106844470D01*
X113954402Y-106474800D01*
X116859980Y-106474800D01*
X116867398Y-106512094D01*
X117060584Y-106801216D01*
X117349706Y-106994402D01*
X117365201Y-106997484D01*
X117365200Y-111700353D01*
X117350312Y-111775200D01*
X117365200Y-111850047D01*
X117365200Y-111850051D01*
X117409296Y-112071736D01*
X117577271Y-112323129D01*
X117640730Y-112365531D01*
X121740001Y-116464804D01*
X121740000Y-125618450D01*
X121526384Y-125761184D01*
X121525593Y-125762367D01*
X121372498Y-125609273D01*
X121139109Y-125512600D01*
X120811050Y-125512600D01*
X120652300Y-125671350D01*
X120652300Y-126720600D01*
X120672300Y-126720600D01*
X120672300Y-126974600D01*
X120652300Y-126974600D01*
X120652300Y-128023850D01*
X120811050Y-128182600D01*
X121139109Y-128182600D01*
X121372498Y-128085927D01*
X121525593Y-127932833D01*
X121526384Y-127934016D01*
X121740001Y-128076751D01*
X121740001Y-129352560D01*
X119000000Y-129352560D01*
X118752235Y-129401843D01*
X118542191Y-129542191D01*
X118401843Y-129752235D01*
X118352560Y-130000000D01*
X118352560Y-132000000D01*
X118401843Y-132247765D01*
X118430064Y-132290000D01*
X116567197Y-132290000D01*
X116635000Y-132126310D01*
X116635000Y-131285750D01*
X116476250Y-131127000D01*
X112627000Y-131127000D01*
X112627000Y-131147000D01*
X112373000Y-131147000D01*
X112373000Y-131127000D01*
X106627000Y-131127000D01*
X106627000Y-131147000D01*
X106373000Y-131147000D01*
X106373000Y-131127000D01*
X102523750Y-131127000D01*
X102365000Y-131285750D01*
X102365000Y-132126310D01*
X102432803Y-132290000D01*
X100710000Y-132290000D01*
X100710000Y-129873690D01*
X102365000Y-129873690D01*
X102365000Y-130714250D01*
X102523750Y-130873000D01*
X106373000Y-130873000D01*
X106373000Y-129523750D01*
X106627000Y-129523750D01*
X106627000Y-130873000D01*
X112373000Y-130873000D01*
X112373000Y-129523750D01*
X112627000Y-129523750D01*
X112627000Y-130873000D01*
X116476250Y-130873000D01*
X116635000Y-130714250D01*
X116635000Y-129873690D01*
X116538327Y-129640301D01*
X116359698Y-129461673D01*
X116126309Y-129365000D01*
X112785750Y-129365000D01*
X112627000Y-129523750D01*
X112373000Y-129523750D01*
X112214250Y-129365000D01*
X106785750Y-129365000D01*
X106627000Y-129523750D01*
X106373000Y-129523750D01*
X106214250Y-129365000D01*
X102873691Y-129365000D01*
X102640302Y-129461673D01*
X102461673Y-129640301D01*
X102365000Y-129873690D01*
X100710000Y-129873690D01*
X100710000Y-127133350D01*
X119402800Y-127133350D01*
X119402800Y-127673910D01*
X119499473Y-127907299D01*
X119678102Y-128085927D01*
X119911491Y-128182600D01*
X120239550Y-128182600D01*
X120398300Y-128023850D01*
X120398300Y-126974600D01*
X119561550Y-126974600D01*
X119402800Y-127133350D01*
X100710000Y-127133350D01*
X100710000Y-126021290D01*
X119402800Y-126021290D01*
X119402800Y-126561850D01*
X119561550Y-126720600D01*
X120398300Y-126720600D01*
X120398300Y-125671350D01*
X120239550Y-125512600D01*
X119911491Y-125512600D01*
X119678102Y-125609273D01*
X119499473Y-125787901D01*
X119402800Y-126021290D01*
X100710000Y-126021290D01*
X100710000Y-106305350D01*
X101978400Y-106305350D01*
X101978400Y-106845910D01*
X102075073Y-107079299D01*
X102253702Y-107257927D01*
X102487091Y-107354600D01*
X102815150Y-107354600D01*
X102973900Y-107195850D01*
X102973900Y-106146600D01*
X102137150Y-106146600D01*
X101978400Y-106305350D01*
X100710000Y-106305350D01*
X100710000Y-98786950D01*
X110309600Y-98786950D01*
X110309600Y-99327510D01*
X110406273Y-99560899D01*
X110584902Y-99739527D01*
X110818291Y-99836200D01*
X111146350Y-99836200D01*
X111305100Y-99677450D01*
X111305100Y-98628200D01*
X110468350Y-98628200D01*
X110309600Y-98786950D01*
X100710000Y-98786950D01*
X100710000Y-87491200D01*
X102236160Y-87491200D01*
X102236160Y-89191200D01*
X102285443Y-89438965D01*
X102425791Y-89649009D01*
X102635835Y-89789357D01*
X102883600Y-89838640D01*
X104583600Y-89838640D01*
X104831365Y-89789357D01*
X105041409Y-89649009D01*
X105181757Y-89438965D01*
X105231040Y-89191200D01*
X105231040Y-87491200D01*
X105181757Y-87243435D01*
X105041409Y-87033391D01*
X104831365Y-86893043D01*
X104583600Y-86843760D01*
X102883600Y-86843760D01*
X102635835Y-86893043D01*
X102425791Y-87033391D01*
X102285443Y-87243435D01*
X102236160Y-87491200D01*
X100710000Y-87491200D01*
X100710000Y-76127000D01*
X113000000Y-76127000D01*
X113048601Y-76117333D01*
X113089803Y-76089803D01*
X113117333Y-76048601D01*
X113127000Y-76000000D01*
X113127000Y-74699491D01*
X114489000Y-74699491D01*
X114489000Y-75027550D01*
X114647750Y-75186300D01*
X115697000Y-75186300D01*
X115697000Y-74349550D01*
X115951000Y-74349550D01*
X115951000Y-75186300D01*
X117000250Y-75186300D01*
X117159000Y-75027550D01*
X117159000Y-74699491D01*
X117062327Y-74466102D01*
X116883699Y-74287473D01*
X116650310Y-74190800D01*
X116109750Y-74190800D01*
X115951000Y-74349550D01*
X115697000Y-74349550D01*
X115538250Y-74190800D01*
X114997690Y-74190800D01*
X114764301Y-74287473D01*
X114585673Y-74466102D01*
X114489000Y-74699491D01*
X113127000Y-74699491D01*
X113127000Y-68662550D01*
X123924000Y-68662550D01*
X123924000Y-69203110D01*
X124020673Y-69436499D01*
X124199302Y-69615127D01*
X124432691Y-69711800D01*
X124760750Y-69711800D01*
X124919500Y-69553050D01*
X124919500Y-68503800D01*
X124082750Y-68503800D01*
X123924000Y-68662550D01*
X113127000Y-68662550D01*
X113127000Y-67466450D01*
X116876600Y-67466450D01*
X116876600Y-67794509D01*
X116973273Y-68027898D01*
X117151901Y-68206527D01*
X117385290Y-68303200D01*
X117925850Y-68303200D01*
X118084600Y-68144450D01*
X118084600Y-67307700D01*
X118338600Y-67307700D01*
X118338600Y-68144450D01*
X118497350Y-68303200D01*
X119037910Y-68303200D01*
X119271299Y-68206527D01*
X119449927Y-68027898D01*
X119546600Y-67794509D01*
X119546600Y-67466450D01*
X119387850Y-67307700D01*
X118338600Y-67307700D01*
X118084600Y-67307700D01*
X117035350Y-67307700D01*
X116876600Y-67466450D01*
X113127000Y-67466450D01*
X113127000Y-67138550D01*
X123924000Y-67138550D01*
X123924000Y-68091050D01*
X124082750Y-68249800D01*
X124919500Y-68249800D01*
X124919500Y-66979800D01*
X124082750Y-66979800D01*
X123924000Y-67138550D01*
X113127000Y-67138550D01*
X113127000Y-66135000D01*
X113638217Y-66135000D01*
X113750000Y-66157235D01*
X113861783Y-66135000D01*
X114072932Y-66093000D01*
X114198438Y-66093000D01*
X114477706Y-66279602D01*
X114818750Y-66347440D01*
X115306250Y-66347440D01*
X115647294Y-66279602D01*
X115936416Y-66086416D01*
X116000000Y-65991256D01*
X116063584Y-66086416D01*
X116352706Y-66279602D01*
X116693750Y-66347440D01*
X116967500Y-66347440D01*
X116876600Y-66566891D01*
X116876600Y-66894950D01*
X117035350Y-67053700D01*
X118084600Y-67053700D01*
X118084600Y-67033700D01*
X118338600Y-67033700D01*
X118338600Y-67053700D01*
X119387850Y-67053700D01*
X119546600Y-66894950D01*
X119546600Y-66566891D01*
X119449927Y-66333502D01*
X119296833Y-66180407D01*
X119298016Y-66179616D01*
X119491202Y-65890494D01*
X119539549Y-65647440D01*
X119600000Y-65647440D01*
X119847765Y-65598157D01*
X119999047Y-65497073D01*
X120040301Y-65538327D01*
X120273690Y-65635000D01*
X120714250Y-65635000D01*
X120873000Y-65476250D01*
X120873000Y-63627000D01*
X120853000Y-63627000D01*
X120853000Y-63373000D01*
X120873000Y-63373000D01*
X120873000Y-61523750D01*
X120714250Y-61365000D01*
X120273690Y-61365000D01*
X120040301Y-61461673D01*
X119999047Y-61502927D01*
X119847765Y-61401843D01*
X119600000Y-61352560D01*
X118400000Y-61352560D01*
X118152235Y-61401843D01*
X117942191Y-61542191D01*
X117801843Y-61752235D01*
X117752560Y-62000000D01*
X117752560Y-63142308D01*
X117488078Y-63406790D01*
X117393312Y-63470111D01*
X117329990Y-63564878D01*
X117232178Y-63662690D01*
X117181250Y-63652560D01*
X116693750Y-63652560D01*
X116352706Y-63720398D01*
X116063584Y-63913584D01*
X116000000Y-64008744D01*
X115936416Y-63913584D01*
X115647294Y-63720398D01*
X115306250Y-63652560D01*
X115127000Y-63652560D01*
X115127000Y-63356250D01*
X114968250Y-63197500D01*
X113919000Y-63197500D01*
X113919000Y-63217500D01*
X113665000Y-63217500D01*
X113665000Y-63197500D01*
X113645000Y-63197500D01*
X113645000Y-62943500D01*
X113665000Y-62943500D01*
X113665000Y-62106750D01*
X113919000Y-62106750D01*
X113919000Y-62943500D01*
X114968250Y-62943500D01*
X115127000Y-62784750D01*
X115127000Y-62456691D01*
X115030327Y-62223302D01*
X114851699Y-62044673D01*
X114618310Y-61948000D01*
X114077750Y-61948000D01*
X113919000Y-62106750D01*
X113665000Y-62106750D01*
X113506250Y-61948000D01*
X113127000Y-61948000D01*
X113127000Y-48785750D01*
X117765000Y-48785750D01*
X117765000Y-50126309D01*
X117861673Y-50359698D01*
X118040301Y-50538327D01*
X118273690Y-50635000D01*
X118714250Y-50635000D01*
X118873000Y-50476250D01*
X118873000Y-48627000D01*
X117923750Y-48627000D01*
X117765000Y-48785750D01*
X113127000Y-48785750D01*
X113127000Y-46710000D01*
X117832803Y-46710000D01*
X117765000Y-46873691D01*
X117765000Y-46873691D01*
G37*
X117765000Y-46873691D02*
X117765000Y-48214250D01*
X117923750Y-48373000D01*
X118873000Y-48373000D01*
X118873000Y-48353000D01*
X119127000Y-48353000D01*
X119127000Y-48373000D01*
X119147000Y-48373000D01*
X119147000Y-48627000D01*
X119127000Y-48627000D01*
X119127000Y-50476250D01*
X119285750Y-50635000D01*
X119726310Y-50635000D01*
X119959699Y-50538327D01*
X120000953Y-50497073D01*
X120152235Y-50598157D01*
X120400000Y-50647440D01*
X121600000Y-50647440D01*
X121847765Y-50598157D01*
X122000000Y-50496436D01*
X122152235Y-50598157D01*
X122168014Y-50601296D01*
X122143345Y-50625965D01*
X122001000Y-50969617D01*
X122001000Y-51341583D01*
X122143345Y-51685235D01*
X122324910Y-51866800D01*
X122244945Y-51946765D01*
X122102600Y-52290417D01*
X122102600Y-52662383D01*
X122244945Y-53006035D01*
X122507965Y-53269055D01*
X122851617Y-53411400D01*
X123223583Y-53411400D01*
X123567235Y-53269055D01*
X123830255Y-53006035D01*
X123972600Y-52662383D01*
X123972600Y-52616201D01*
X125484473Y-51104329D01*
X125547929Y-51061929D01*
X125670762Y-50878097D01*
X125715904Y-50810538D01*
X125748346Y-50647440D01*
X125754457Y-50616717D01*
X125847765Y-50598157D01*
X126000000Y-50496436D01*
X126152235Y-50598157D01*
X126240000Y-50615614D01*
X126240000Y-52364797D01*
X122239799Y-56365000D01*
X122214017Y-56365000D01*
X121870365Y-56507345D01*
X121607345Y-56770365D01*
X121465000Y-57114017D01*
X121465000Y-57485983D01*
X121607345Y-57829635D01*
X121870365Y-58092655D01*
X122214017Y-58235000D01*
X122585983Y-58235000D01*
X122618445Y-58221554D01*
X121674999Y-59165000D01*
X121514017Y-59165000D01*
X121170365Y-59307345D01*
X120907345Y-59570365D01*
X120765000Y-59914017D01*
X120765000Y-60285983D01*
X120907345Y-60629635D01*
X121170365Y-60892655D01*
X121514017Y-61035000D01*
X121885983Y-61035000D01*
X122229635Y-60892655D01*
X122492655Y-60629635D01*
X122586480Y-60403121D01*
X128093378Y-54896224D01*
X128309929Y-54751529D01*
X128352331Y-54688070D01*
X131484473Y-51555929D01*
X131547929Y-51513529D01*
X131715904Y-51262137D01*
X131760000Y-51040452D01*
X131760000Y-51040448D01*
X131774888Y-50965600D01*
X131760000Y-50890752D01*
X131760000Y-50615614D01*
X131847765Y-50598157D01*
X131999047Y-50497073D01*
X132040301Y-50538327D01*
X132273690Y-50635000D01*
X132714250Y-50635000D01*
X132873000Y-50476250D01*
X132873000Y-48627000D01*
X133127000Y-48627000D01*
X133127000Y-50476250D01*
X133285750Y-50635000D01*
X133726310Y-50635000D01*
X133959699Y-50538327D01*
X134138327Y-50359698D01*
X134235000Y-50126309D01*
X134235000Y-48785750D01*
X134076250Y-48627000D01*
X133127000Y-48627000D01*
X132873000Y-48627000D01*
X132853000Y-48627000D01*
X132853000Y-48373000D01*
X132873000Y-48373000D01*
X132873000Y-48353000D01*
X133127000Y-48353000D01*
X133127000Y-48373000D01*
X134076250Y-48373000D01*
X134235000Y-48214250D01*
X134235000Y-46873691D01*
X134167197Y-46710000D01*
X134290001Y-46710000D01*
X134290001Y-87702139D01*
X134113337Y-87584096D01*
X133891652Y-87540000D01*
X133891647Y-87540000D01*
X133816800Y-87525112D01*
X133741953Y-87540000D01*
X129920451Y-87540000D01*
X129873157Y-87302235D01*
X129732809Y-87092191D01*
X129522765Y-86951843D01*
X129364800Y-86920422D01*
X129364800Y-86544150D01*
X129206050Y-86385400D01*
X128369300Y-86385400D01*
X128369300Y-86405400D01*
X128115300Y-86405400D01*
X128115300Y-86385400D01*
X128095300Y-86385400D01*
X128095300Y-86131400D01*
X128115300Y-86131400D01*
X128115300Y-86111400D01*
X128369300Y-86111400D01*
X128369300Y-86131400D01*
X129206050Y-86131400D01*
X129364800Y-85972650D01*
X129364800Y-85680550D01*
X130798200Y-85680550D01*
X130798200Y-86371110D01*
X130894873Y-86604499D01*
X131073502Y-86783127D01*
X131306891Y-86879800D01*
X131997450Y-86879800D01*
X132156200Y-86721050D01*
X132156200Y-85521800D01*
X132410200Y-85521800D01*
X132410200Y-86721050D01*
X132568950Y-86879800D01*
X133259509Y-86879800D01*
X133492898Y-86783127D01*
X133671527Y-86604499D01*
X133768200Y-86371110D01*
X133768200Y-85680550D01*
X133609450Y-85521800D01*
X132410200Y-85521800D01*
X132156200Y-85521800D01*
X130956950Y-85521800D01*
X130798200Y-85680550D01*
X129364800Y-85680550D01*
X129364800Y-85432090D01*
X129268127Y-85198701D01*
X129089498Y-85020073D01*
X128951000Y-84962705D01*
X128951000Y-84925001D01*
X129457511Y-84418490D01*
X130798200Y-84418490D01*
X130798200Y-85109050D01*
X130956950Y-85267800D01*
X132156200Y-85267800D01*
X132156200Y-84068550D01*
X132410200Y-84068550D01*
X132410200Y-85267800D01*
X133609450Y-85267800D01*
X133768200Y-85109050D01*
X133768200Y-84418490D01*
X133671527Y-84185101D01*
X133492898Y-84006473D01*
X133259509Y-83909800D01*
X132568950Y-83909800D01*
X132410200Y-84068550D01*
X132156200Y-84068550D01*
X131997450Y-83909800D01*
X131306891Y-83909800D01*
X131073502Y-84006473D01*
X130894873Y-84185101D01*
X130798200Y-84418490D01*
X129457511Y-84418490D01*
X130583273Y-83292729D01*
X130646729Y-83250329D01*
X130814704Y-82998937D01*
X130858800Y-82777252D01*
X130858800Y-82777248D01*
X130873688Y-82702401D01*
X130858800Y-82627554D01*
X130858800Y-69148801D01*
X133484476Y-66523127D01*
X133547929Y-66480729D01*
X133590327Y-66417276D01*
X133590329Y-66417274D01*
X133715903Y-66229338D01*
X133715904Y-66229337D01*
X133760000Y-66007652D01*
X133760000Y-66007648D01*
X133774888Y-65932801D01*
X133760000Y-65857954D01*
X133760000Y-65615614D01*
X133847765Y-65598157D01*
X134057809Y-65457809D01*
X134198157Y-65247765D01*
X134247440Y-65000000D01*
X134247440Y-62000000D01*
X134198157Y-61752235D01*
X134057809Y-61542191D01*
X133847765Y-61401843D01*
X133600000Y-61352560D01*
X132400000Y-61352560D01*
X132152235Y-61401843D01*
X132000000Y-61503564D01*
X131847765Y-61401843D01*
X131600000Y-61352560D01*
X130400000Y-61352560D01*
X130152235Y-61401843D01*
X130000000Y-61503564D01*
X129847765Y-61401843D01*
X129600000Y-61352560D01*
X128400000Y-61352560D01*
X128152235Y-61401843D01*
X128000000Y-61503564D01*
X127847765Y-61401843D01*
X127600000Y-61352560D01*
X126400000Y-61352560D01*
X126152235Y-61401843D01*
X126000000Y-61503564D01*
X125847765Y-61401843D01*
X125600000Y-61352560D01*
X124400000Y-61352560D01*
X124152235Y-61401843D01*
X124000000Y-61503564D01*
X123847765Y-61401843D01*
X123600000Y-61352560D01*
X122400000Y-61352560D01*
X122152235Y-61401843D01*
X122000953Y-61502927D01*
X121959699Y-61461673D01*
X121726310Y-61365000D01*
X121285750Y-61365000D01*
X121127000Y-61523750D01*
X121127000Y-63373000D01*
X121147000Y-63373000D01*
X121147000Y-63627000D01*
X121127000Y-63627000D01*
X121127000Y-65476250D01*
X121285750Y-65635000D01*
X121726310Y-65635000D01*
X121959699Y-65538327D01*
X122000953Y-65497073D01*
X122152235Y-65598157D01*
X122400000Y-65647440D01*
X123600000Y-65647440D01*
X123847765Y-65598157D01*
X124000000Y-65496436D01*
X124152235Y-65598157D01*
X124210644Y-65609775D01*
X124199302Y-65614473D01*
X124020673Y-65793101D01*
X123924000Y-66026490D01*
X123924000Y-66567050D01*
X124082750Y-66725800D01*
X124919500Y-66725800D01*
X124919500Y-66705800D01*
X125173500Y-66705800D01*
X125173500Y-66725800D01*
X125193500Y-66725800D01*
X125193500Y-66979800D01*
X125173500Y-66979800D01*
X125173500Y-68249800D01*
X125193500Y-68249800D01*
X125193500Y-68503800D01*
X125173500Y-68503800D01*
X125173500Y-69553050D01*
X125332250Y-69711800D01*
X125660309Y-69711800D01*
X125893698Y-69615127D01*
X126046793Y-69462033D01*
X126047584Y-69463216D01*
X126206079Y-69569119D01*
X124991530Y-70783669D01*
X124928071Y-70826071D01*
X124760096Y-71077464D01*
X124716000Y-71299149D01*
X124716000Y-71299153D01*
X124701112Y-71374000D01*
X124716000Y-71448847D01*
X124716001Y-77573600D01*
X117143284Y-77573600D01*
X117171440Y-77432050D01*
X117171440Y-76944550D01*
X117103602Y-76603506D01*
X116910416Y-76314384D01*
X116909233Y-76313593D01*
X117062327Y-76160498D01*
X117159000Y-75927109D01*
X117159000Y-75599050D01*
X117000250Y-75440300D01*
X115951000Y-75440300D01*
X115951000Y-75460300D01*
X115697000Y-75460300D01*
X115697000Y-75440300D01*
X114647750Y-75440300D01*
X114489000Y-75599050D01*
X114489000Y-75927109D01*
X114585673Y-76160498D01*
X114738767Y-76313593D01*
X114737584Y-76314384D01*
X114544398Y-76603506D01*
X114476560Y-76944550D01*
X114476560Y-77432050D01*
X114504716Y-77573600D01*
X111885652Y-77573600D01*
X111810800Y-77558711D01*
X111735948Y-77573600D01*
X107262848Y-77573600D01*
X107188000Y-77558712D01*
X107113152Y-77573600D01*
X107113148Y-77573600D01*
X106891463Y-77617696D01*
X106640071Y-77785671D01*
X106597671Y-77849127D01*
X106144730Y-78302069D01*
X106081271Y-78344471D01*
X105913296Y-78595864D01*
X105869200Y-78817549D01*
X105869200Y-78817553D01*
X105854312Y-78892400D01*
X105869200Y-78967247D01*
X105869201Y-86458109D01*
X105836545Y-86490765D01*
X105694200Y-86834417D01*
X105694200Y-87206383D01*
X105836545Y-87550035D01*
X106099565Y-87813055D01*
X106443217Y-87955400D01*
X106815183Y-87955400D01*
X107158835Y-87813055D01*
X107421855Y-87550035D01*
X107564200Y-87206383D01*
X107564200Y-86834417D01*
X107421855Y-86490765D01*
X107389200Y-86458110D01*
X107389200Y-79207201D01*
X107502802Y-79093600D01*
X111050801Y-79093600D01*
X111050800Y-80239953D01*
X111035912Y-80314800D01*
X111050800Y-80389647D01*
X111050800Y-80389651D01*
X111094896Y-80611336D01*
X111262871Y-80862729D01*
X111326329Y-80905131D01*
X111449858Y-81028659D01*
X111392191Y-81067191D01*
X111293936Y-81214239D01*
X111125071Y-81327071D01*
X111082669Y-81390530D01*
X110767530Y-81705669D01*
X110704071Y-81748071D01*
X110536096Y-81999464D01*
X110492000Y-82221149D01*
X110492000Y-82221153D01*
X110477112Y-82296000D01*
X110492000Y-82370847D01*
X110492001Y-85129633D01*
X110470165Y-85115043D01*
X110222400Y-85065760D01*
X108522400Y-85065760D01*
X108274635Y-85115043D01*
X108064591Y-85255391D01*
X107924243Y-85465435D01*
X107874960Y-85713200D01*
X107874960Y-87413200D01*
X107924243Y-87660965D01*
X107954468Y-87706200D01*
X107924243Y-87751435D01*
X107874960Y-87999200D01*
X107874960Y-89699200D01*
X107924243Y-89946965D01*
X108064591Y-90157009D01*
X108274635Y-90297357D01*
X108522400Y-90346640D01*
X110222400Y-90346640D01*
X110430534Y-90305240D01*
X110406273Y-90329501D01*
X110309600Y-90562890D01*
X110309600Y-91103450D01*
X110468350Y-91262200D01*
X111305100Y-91262200D01*
X111305100Y-90212950D01*
X111146350Y-90054200D01*
X110818291Y-90054200D01*
X110722351Y-90093940D01*
X110820557Y-89946965D01*
X110869840Y-89699200D01*
X110869840Y-89609200D01*
X111775953Y-89609200D01*
X111850800Y-89624088D01*
X111925647Y-89609200D01*
X111925652Y-89609200D01*
X112147337Y-89565104D01*
X112354728Y-89426529D01*
X112984000Y-90055802D01*
X112984000Y-90057544D01*
X112722306Y-90109598D01*
X112433184Y-90302784D01*
X112432393Y-90303967D01*
X112279298Y-90150873D01*
X112045909Y-90054200D01*
X111717850Y-90054200D01*
X111559100Y-90212950D01*
X111559100Y-91262200D01*
X111579100Y-91262200D01*
X111579100Y-91516200D01*
X111559100Y-91516200D01*
X111559100Y-91536200D01*
X111305100Y-91536200D01*
X111305100Y-91516200D01*
X110468350Y-91516200D01*
X110309600Y-91674950D01*
X110309600Y-91710172D01*
X110124235Y-91747043D01*
X109914191Y-91887391D01*
X109773843Y-92097435D01*
X109724560Y-92345200D01*
X109724560Y-94445200D01*
X109773843Y-94692965D01*
X109914191Y-94903009D01*
X109977334Y-94945200D01*
X109914191Y-94987391D01*
X109773843Y-95197435D01*
X109724560Y-95445200D01*
X109724560Y-97545200D01*
X109773843Y-97792965D01*
X109914191Y-98003009D01*
X110124235Y-98143357D01*
X110309600Y-98180228D01*
X110309600Y-98215450D01*
X110468350Y-98374200D01*
X111305100Y-98374200D01*
X111305100Y-98354200D01*
X111559100Y-98354200D01*
X111559100Y-98374200D01*
X111579100Y-98374200D01*
X111579100Y-98628200D01*
X111559100Y-98628200D01*
X111559100Y-99677450D01*
X111717850Y-99836200D01*
X112045909Y-99836200D01*
X112279298Y-99739527D01*
X112432393Y-99586433D01*
X112433184Y-99587616D01*
X112722306Y-99780802D01*
X113063350Y-99848640D01*
X113462960Y-99848640D01*
X113462960Y-101383200D01*
X113512243Y-101630965D01*
X113652591Y-101841009D01*
X113862635Y-101981357D01*
X114110400Y-102030640D01*
X115810400Y-102030640D01*
X116058165Y-101981357D01*
X116268209Y-101841009D01*
X116408557Y-101630965D01*
X116417584Y-101585581D01*
X116429775Y-101603825D01*
X116920982Y-101932039D01*
X117354144Y-102018200D01*
X117429798Y-102018200D01*
X116608144Y-102839854D01*
X116506035Y-102737745D01*
X116162383Y-102595400D01*
X115790417Y-102595400D01*
X115446765Y-102737745D01*
X115414110Y-102770400D01*
X106700046Y-102770400D01*
X106625199Y-102755512D01*
X106550352Y-102770400D01*
X106550348Y-102770400D01*
X106328663Y-102814496D01*
X106077271Y-102982471D01*
X106034871Y-103045927D01*
X105986749Y-103094049D01*
X105713094Y-102911198D01*
X105372050Y-102843360D01*
X104884550Y-102843360D01*
X104543506Y-102911198D01*
X104254384Y-103104384D01*
X104190800Y-103199544D01*
X104127216Y-103104384D01*
X103838094Y-102911198D01*
X103497050Y-102843360D01*
X103364802Y-102843360D01*
X103612165Y-102794157D01*
X103822209Y-102653809D01*
X103962557Y-102443765D01*
X104011840Y-102196000D01*
X104011840Y-100496000D01*
X103962557Y-100248235D01*
X103822209Y-100038191D01*
X103612165Y-99897843D01*
X103364400Y-99848560D01*
X101664400Y-99848560D01*
X101416635Y-99897843D01*
X101206591Y-100038191D01*
X101066243Y-100248235D01*
X101016960Y-100496000D01*
X101016960Y-102196000D01*
X101066243Y-102443765D01*
X101206591Y-102653809D01*
X101416635Y-102794157D01*
X101664400Y-102843440D01*
X101754400Y-102843440D01*
X101754400Y-103963553D01*
X101739512Y-104038400D01*
X101754400Y-104113247D01*
X101754400Y-104113251D01*
X101798496Y-104334936D01*
X101966471Y-104586329D01*
X102029930Y-104628731D01*
X102076469Y-104675270D01*
X102118871Y-104738729D01*
X102139313Y-104752388D01*
X102163084Y-104871891D01*
X102075073Y-104959901D01*
X101978400Y-105193290D01*
X101978400Y-105733850D01*
X102137150Y-105892600D01*
X102973900Y-105892600D01*
X102973900Y-105872600D01*
X103227900Y-105872600D01*
X103227900Y-105892600D01*
X103247900Y-105892600D01*
X103247900Y-106146600D01*
X103227900Y-106146600D01*
X103227900Y-107195850D01*
X103386650Y-107354600D01*
X103714709Y-107354600D01*
X103948098Y-107257927D01*
X104101193Y-107104833D01*
X104101984Y-107106016D01*
X104278401Y-107223894D01*
X104278401Y-107655949D01*
X104263512Y-107730800D01*
X104294400Y-107886085D01*
X104294401Y-110059548D01*
X104279512Y-110134400D01*
X104294401Y-110209252D01*
X104316058Y-110318128D01*
X104338497Y-110430937D01*
X104441087Y-110584473D01*
X104506472Y-110682329D01*
X104569928Y-110724729D01*
X105979671Y-112134473D01*
X106022071Y-112197929D01*
X106273463Y-112365904D01*
X106495148Y-112410000D01*
X106495152Y-112410000D01*
X106569999Y-112424888D01*
X106644846Y-112410000D01*
X107205251Y-112410000D01*
X107259949Y-112542052D01*
X107702948Y-112985051D01*
X108281753Y-113224800D01*
X108908247Y-113224800D01*
X109487052Y-112985051D01*
X109713135Y-112758968D01*
X110205637Y-112758968D01*
X110296923Y-113019580D01*
X110884833Y-113236045D01*
X111510828Y-113211049D01*
X111973077Y-113019580D01*
X112064363Y-112758968D01*
X111135000Y-111829605D01*
X110205637Y-112758968D01*
X109713135Y-112758968D01*
X109927317Y-112544786D01*
X110026032Y-112579363D01*
X110955395Y-111650000D01*
X110941253Y-111635858D01*
X111120858Y-111456253D01*
X111135000Y-111470395D01*
X111149143Y-111456253D01*
X111328748Y-111635858D01*
X111314605Y-111650000D01*
X112243968Y-112579363D01*
X112342683Y-112544786D01*
X112782948Y-112985051D01*
X113361753Y-113224800D01*
X113988247Y-113224800D01*
X114567052Y-112985051D01*
X115010051Y-112542052D01*
X115249800Y-111963247D01*
X115249800Y-111336753D01*
X115010051Y-110757948D01*
X114567052Y-110314949D01*
X113988247Y-110075200D01*
X113549808Y-110075200D01*
X113513970Y-110039362D01*
X113774580Y-109948077D01*
X113991045Y-109360167D01*
X113966049Y-108734172D01*
X113774580Y-108271923D01*
X113513968Y-108180637D01*
X112584605Y-109110000D01*
X112598748Y-109124143D01*
X112419143Y-109303748D01*
X112405000Y-109289605D01*
X112390858Y-109303748D01*
X112211253Y-109124143D01*
X112225395Y-109110000D01*
X111296032Y-108180637D01*
X111197317Y-108215214D01*
X110983135Y-108001032D01*
X111475637Y-108001032D01*
X112405000Y-108930395D01*
X113334363Y-108001032D01*
X113243077Y-107740420D01*
X112655167Y-107523955D01*
X112029172Y-107548951D01*
X111566923Y-107740420D01*
X111475637Y-108001032D01*
X110983135Y-108001032D01*
X110757052Y-107774949D01*
X110178247Y-107535200D01*
X110125000Y-107535200D01*
X110125000Y-106094452D01*
X110139889Y-106019600D01*
X110125000Y-105944748D01*
X110125000Y-105325801D01*
X110423610Y-105027191D01*
X110429598Y-105057294D01*
X110622784Y-105346416D01*
X110717944Y-105410000D01*
X110622784Y-105473584D01*
X110429598Y-105762706D01*
X110361760Y-106103750D01*
X110361760Y-106591250D01*
X110429598Y-106932294D01*
X110622784Y-107221416D01*
X110911906Y-107414602D01*
X111252950Y-107482440D01*
X112165450Y-107482440D01*
X112506494Y-107414602D01*
X112795616Y-107221416D01*
X112863380Y-107120000D01*
X112919553Y-107120000D01*
X112994400Y-107134888D01*
X113069247Y-107120000D01*
X113069252Y-107120000D01*
X113290937Y-107075904D01*
X113542329Y-106907929D01*
X113584731Y-106844470D01*
X113954402Y-106474800D01*
X116859980Y-106474800D01*
X116867398Y-106512094D01*
X117060584Y-106801216D01*
X117349706Y-106994402D01*
X117365201Y-106997484D01*
X117365200Y-111700353D01*
X117350312Y-111775200D01*
X117365200Y-111850047D01*
X117365200Y-111850051D01*
X117409296Y-112071736D01*
X117577271Y-112323129D01*
X117640730Y-112365531D01*
X121740001Y-116464804D01*
X121740000Y-125618450D01*
X121526384Y-125761184D01*
X121525593Y-125762367D01*
X121372498Y-125609273D01*
X121139109Y-125512600D01*
X120811050Y-125512600D01*
X120652300Y-125671350D01*
X120652300Y-126720600D01*
X120672300Y-126720600D01*
X120672300Y-126974600D01*
X120652300Y-126974600D01*
X120652300Y-128023850D01*
X120811050Y-128182600D01*
X121139109Y-128182600D01*
X121372498Y-128085927D01*
X121525593Y-127932833D01*
X121526384Y-127934016D01*
X121740001Y-128076751D01*
X121740001Y-129352560D01*
X119000000Y-129352560D01*
X118752235Y-129401843D01*
X118542191Y-129542191D01*
X118401843Y-129752235D01*
X118352560Y-130000000D01*
X118352560Y-132000000D01*
X118401843Y-132247765D01*
X118430064Y-132290000D01*
X116567197Y-132290000D01*
X116635000Y-132126310D01*
X116635000Y-131285750D01*
X116476250Y-131127000D01*
X112627000Y-131127000D01*
X112627000Y-131147000D01*
X112373000Y-131147000D01*
X112373000Y-131127000D01*
X106627000Y-131127000D01*
X106627000Y-131147000D01*
X106373000Y-131147000D01*
X106373000Y-131127000D01*
X102523750Y-131127000D01*
X102365000Y-131285750D01*
X102365000Y-132126310D01*
X102432803Y-132290000D01*
X100710000Y-132290000D01*
X100710000Y-129873690D01*
X102365000Y-129873690D01*
X102365000Y-130714250D01*
X102523750Y-130873000D01*
X106373000Y-130873000D01*
X106373000Y-129523750D01*
X106627000Y-129523750D01*
X106627000Y-130873000D01*
X112373000Y-130873000D01*
X112373000Y-129523750D01*
X112627000Y-129523750D01*
X112627000Y-130873000D01*
X116476250Y-130873000D01*
X116635000Y-130714250D01*
X116635000Y-129873690D01*
X116538327Y-129640301D01*
X116359698Y-129461673D01*
X116126309Y-129365000D01*
X112785750Y-129365000D01*
X112627000Y-129523750D01*
X112373000Y-129523750D01*
X112214250Y-129365000D01*
X106785750Y-129365000D01*
X106627000Y-129523750D01*
X106373000Y-129523750D01*
X106214250Y-129365000D01*
X102873691Y-129365000D01*
X102640302Y-129461673D01*
X102461673Y-129640301D01*
X102365000Y-129873690D01*
X100710000Y-129873690D01*
X100710000Y-127133350D01*
X119402800Y-127133350D01*
X119402800Y-127673910D01*
X119499473Y-127907299D01*
X119678102Y-128085927D01*
X119911491Y-128182600D01*
X120239550Y-128182600D01*
X120398300Y-128023850D01*
X120398300Y-126974600D01*
X119561550Y-126974600D01*
X119402800Y-127133350D01*
X100710000Y-127133350D01*
X100710000Y-126021290D01*
X119402800Y-126021290D01*
X119402800Y-126561850D01*
X119561550Y-126720600D01*
X120398300Y-126720600D01*
X120398300Y-125671350D01*
X120239550Y-125512600D01*
X119911491Y-125512600D01*
X119678102Y-125609273D01*
X119499473Y-125787901D01*
X119402800Y-126021290D01*
X100710000Y-126021290D01*
X100710000Y-106305350D01*
X101978400Y-106305350D01*
X101978400Y-106845910D01*
X102075073Y-107079299D01*
X102253702Y-107257927D01*
X102487091Y-107354600D01*
X102815150Y-107354600D01*
X102973900Y-107195850D01*
X102973900Y-106146600D01*
X102137150Y-106146600D01*
X101978400Y-106305350D01*
X100710000Y-106305350D01*
X100710000Y-98786950D01*
X110309600Y-98786950D01*
X110309600Y-99327510D01*
X110406273Y-99560899D01*
X110584902Y-99739527D01*
X110818291Y-99836200D01*
X111146350Y-99836200D01*
X111305100Y-99677450D01*
X111305100Y-98628200D01*
X110468350Y-98628200D01*
X110309600Y-98786950D01*
X100710000Y-98786950D01*
X100710000Y-87491200D01*
X102236160Y-87491200D01*
X102236160Y-89191200D01*
X102285443Y-89438965D01*
X102425791Y-89649009D01*
X102635835Y-89789357D01*
X102883600Y-89838640D01*
X104583600Y-89838640D01*
X104831365Y-89789357D01*
X105041409Y-89649009D01*
X105181757Y-89438965D01*
X105231040Y-89191200D01*
X105231040Y-87491200D01*
X105181757Y-87243435D01*
X105041409Y-87033391D01*
X104831365Y-86893043D01*
X104583600Y-86843760D01*
X102883600Y-86843760D01*
X102635835Y-86893043D01*
X102425791Y-87033391D01*
X102285443Y-87243435D01*
X102236160Y-87491200D01*
X100710000Y-87491200D01*
X100710000Y-76127000D01*
X113000000Y-76127000D01*
X113048601Y-76117333D01*
X113089803Y-76089803D01*
X113117333Y-76048601D01*
X113127000Y-76000000D01*
X113127000Y-74699491D01*
X114489000Y-74699491D01*
X114489000Y-75027550D01*
X114647750Y-75186300D01*
X115697000Y-75186300D01*
X115697000Y-74349550D01*
X115951000Y-74349550D01*
X115951000Y-75186300D01*
X117000250Y-75186300D01*
X117159000Y-75027550D01*
X117159000Y-74699491D01*
X117062327Y-74466102D01*
X116883699Y-74287473D01*
X116650310Y-74190800D01*
X116109750Y-74190800D01*
X115951000Y-74349550D01*
X115697000Y-74349550D01*
X115538250Y-74190800D01*
X114997690Y-74190800D01*
X114764301Y-74287473D01*
X114585673Y-74466102D01*
X114489000Y-74699491D01*
X113127000Y-74699491D01*
X113127000Y-68662550D01*
X123924000Y-68662550D01*
X123924000Y-69203110D01*
X124020673Y-69436499D01*
X124199302Y-69615127D01*
X124432691Y-69711800D01*
X124760750Y-69711800D01*
X124919500Y-69553050D01*
X124919500Y-68503800D01*
X124082750Y-68503800D01*
X123924000Y-68662550D01*
X113127000Y-68662550D01*
X113127000Y-67466450D01*
X116876600Y-67466450D01*
X116876600Y-67794509D01*
X116973273Y-68027898D01*
X117151901Y-68206527D01*
X117385290Y-68303200D01*
X117925850Y-68303200D01*
X118084600Y-68144450D01*
X118084600Y-67307700D01*
X118338600Y-67307700D01*
X118338600Y-68144450D01*
X118497350Y-68303200D01*
X119037910Y-68303200D01*
X119271299Y-68206527D01*
X119449927Y-68027898D01*
X119546600Y-67794509D01*
X119546600Y-67466450D01*
X119387850Y-67307700D01*
X118338600Y-67307700D01*
X118084600Y-67307700D01*
X117035350Y-67307700D01*
X116876600Y-67466450D01*
X113127000Y-67466450D01*
X113127000Y-67138550D01*
X123924000Y-67138550D01*
X123924000Y-68091050D01*
X124082750Y-68249800D01*
X124919500Y-68249800D01*
X124919500Y-66979800D01*
X124082750Y-66979800D01*
X123924000Y-67138550D01*
X113127000Y-67138550D01*
X113127000Y-66135000D01*
X113638217Y-66135000D01*
X113750000Y-66157235D01*
X113861783Y-66135000D01*
X114072932Y-66093000D01*
X114198438Y-66093000D01*
X114477706Y-66279602D01*
X114818750Y-66347440D01*
X115306250Y-66347440D01*
X115647294Y-66279602D01*
X115936416Y-66086416D01*
X116000000Y-65991256D01*
X116063584Y-66086416D01*
X116352706Y-66279602D01*
X116693750Y-66347440D01*
X116967500Y-66347440D01*
X116876600Y-66566891D01*
X116876600Y-66894950D01*
X117035350Y-67053700D01*
X118084600Y-67053700D01*
X118084600Y-67033700D01*
X118338600Y-67033700D01*
X118338600Y-67053700D01*
X119387850Y-67053700D01*
X119546600Y-66894950D01*
X119546600Y-66566891D01*
X119449927Y-66333502D01*
X119296833Y-66180407D01*
X119298016Y-66179616D01*
X119491202Y-65890494D01*
X119539549Y-65647440D01*
X119600000Y-65647440D01*
X119847765Y-65598157D01*
X119999047Y-65497073D01*
X120040301Y-65538327D01*
X120273690Y-65635000D01*
X120714250Y-65635000D01*
X120873000Y-65476250D01*
X120873000Y-63627000D01*
X120853000Y-63627000D01*
X120853000Y-63373000D01*
X120873000Y-63373000D01*
X120873000Y-61523750D01*
X120714250Y-61365000D01*
X120273690Y-61365000D01*
X120040301Y-61461673D01*
X119999047Y-61502927D01*
X119847765Y-61401843D01*
X119600000Y-61352560D01*
X118400000Y-61352560D01*
X118152235Y-61401843D01*
X117942191Y-61542191D01*
X117801843Y-61752235D01*
X117752560Y-62000000D01*
X117752560Y-63142308D01*
X117488078Y-63406790D01*
X117393312Y-63470111D01*
X117329990Y-63564878D01*
X117232178Y-63662690D01*
X117181250Y-63652560D01*
X116693750Y-63652560D01*
X116352706Y-63720398D01*
X116063584Y-63913584D01*
X116000000Y-64008744D01*
X115936416Y-63913584D01*
X115647294Y-63720398D01*
X115306250Y-63652560D01*
X115127000Y-63652560D01*
X115127000Y-63356250D01*
X114968250Y-63197500D01*
X113919000Y-63197500D01*
X113919000Y-63217500D01*
X113665000Y-63217500D01*
X113665000Y-63197500D01*
X113645000Y-63197500D01*
X113645000Y-62943500D01*
X113665000Y-62943500D01*
X113665000Y-62106750D01*
X113919000Y-62106750D01*
X113919000Y-62943500D01*
X114968250Y-62943500D01*
X115127000Y-62784750D01*
X115127000Y-62456691D01*
X115030327Y-62223302D01*
X114851699Y-62044673D01*
X114618310Y-61948000D01*
X114077750Y-61948000D01*
X113919000Y-62106750D01*
X113665000Y-62106750D01*
X113506250Y-61948000D01*
X113127000Y-61948000D01*
X113127000Y-48785750D01*
X117765000Y-48785750D01*
X117765000Y-50126309D01*
X117861673Y-50359698D01*
X118040301Y-50538327D01*
X118273690Y-50635000D01*
X118714250Y-50635000D01*
X118873000Y-50476250D01*
X118873000Y-48627000D01*
X117923750Y-48627000D01*
X117765000Y-48785750D01*
X113127000Y-48785750D01*
X113127000Y-46710000D01*
X117832803Y-46710000D01*
X117765000Y-46873691D01*
G36*
X134290000Y-132290000D02*
X132569936Y-132290000D01*
X132598157Y-132247765D01*
X132647440Y-132000000D01*
X132647440Y-130000000D01*
X132598157Y-129752235D01*
X132457809Y-129542191D01*
X132247765Y-129401843D01*
X132000000Y-129352560D01*
X123260000Y-129352560D01*
X123260000Y-127943515D01*
X123274216Y-127934016D01*
X123467402Y-127644894D01*
X123535240Y-127303850D01*
X123535240Y-126391350D01*
X123467402Y-126050306D01*
X123274216Y-125761184D01*
X123260000Y-125751685D01*
X123260000Y-116224846D01*
X123274888Y-116149999D01*
X123260000Y-116075152D01*
X123260000Y-116075148D01*
X123215904Y-115853463D01*
X123174102Y-115790902D01*
X123090329Y-115665526D01*
X123090327Y-115665524D01*
X123047929Y-115602071D01*
X122984476Y-115559673D01*
X118885200Y-111460399D01*
X118885200Y-106725811D01*
X118935584Y-106801216D01*
X119224706Y-106994402D01*
X119565750Y-107062240D01*
X119788401Y-107062240D01*
X119788401Y-107536797D01*
X119415530Y-107909669D01*
X119352071Y-107952071D01*
X119184096Y-108203464D01*
X119140000Y-108425149D01*
X119140000Y-108425153D01*
X119125112Y-108500000D01*
X119140000Y-108574847D01*
X119140001Y-109625149D01*
X119125112Y-109700000D01*
X119184097Y-109996537D01*
X119253230Y-110100001D01*
X119352072Y-110247929D01*
X119415528Y-110290329D01*
X120109671Y-110984473D01*
X120152071Y-111047929D01*
X120215527Y-111090329D01*
X120403462Y-111215904D01*
X120451605Y-111225480D01*
X120625148Y-111260000D01*
X120625152Y-111260000D01*
X120700000Y-111274888D01*
X120774848Y-111260000D01*
X121051992Y-111260000D01*
X121020200Y-111336753D01*
X121020200Y-111963247D01*
X121259949Y-112542052D01*
X121702948Y-112985051D01*
X122281753Y-113224800D01*
X122908247Y-113224800D01*
X123487052Y-112985051D01*
X123713135Y-112758968D01*
X124205637Y-112758968D01*
X124296923Y-113019580D01*
X124884833Y-113236045D01*
X125510828Y-113211049D01*
X125973077Y-113019580D01*
X126064363Y-112758968D01*
X125135000Y-111829605D01*
X124205637Y-112758968D01*
X123713135Y-112758968D01*
X123927317Y-112544786D01*
X124026032Y-112579363D01*
X124955395Y-111650000D01*
X124941253Y-111635858D01*
X125120858Y-111456253D01*
X125135000Y-111470395D01*
X125149143Y-111456253D01*
X125328748Y-111635858D01*
X125314605Y-111650000D01*
X126243968Y-112579363D01*
X126342683Y-112544786D01*
X126782948Y-112985051D01*
X127361753Y-113224800D01*
X127988247Y-113224800D01*
X128567052Y-112985051D01*
X129010051Y-112542052D01*
X129249800Y-111963247D01*
X129249800Y-111336753D01*
X129196375Y-111207774D01*
X129205126Y-111194677D01*
X129205128Y-111194675D01*
X129330702Y-111006739D01*
X129330703Y-111006738D01*
X129374799Y-110785053D01*
X129374799Y-110785049D01*
X129389687Y-110710202D01*
X129374799Y-110635355D01*
X129374799Y-107158002D01*
X134290000Y-102242802D01*
X134290000Y-132290000D01*
X134290000Y-132290000D01*
G37*
X134290000Y-132290000D02*
X132569936Y-132290000D01*
X132598157Y-132247765D01*
X132647440Y-132000000D01*
X132647440Y-130000000D01*
X132598157Y-129752235D01*
X132457809Y-129542191D01*
X132247765Y-129401843D01*
X132000000Y-129352560D01*
X123260000Y-129352560D01*
X123260000Y-127943515D01*
X123274216Y-127934016D01*
X123467402Y-127644894D01*
X123535240Y-127303850D01*
X123535240Y-126391350D01*
X123467402Y-126050306D01*
X123274216Y-125761184D01*
X123260000Y-125751685D01*
X123260000Y-116224846D01*
X123274888Y-116149999D01*
X123260000Y-116075152D01*
X123260000Y-116075148D01*
X123215904Y-115853463D01*
X123174102Y-115790902D01*
X123090329Y-115665526D01*
X123090327Y-115665524D01*
X123047929Y-115602071D01*
X122984476Y-115559673D01*
X118885200Y-111460399D01*
X118885200Y-106725811D01*
X118935584Y-106801216D01*
X119224706Y-106994402D01*
X119565750Y-107062240D01*
X119788401Y-107062240D01*
X119788401Y-107536797D01*
X119415530Y-107909669D01*
X119352071Y-107952071D01*
X119184096Y-108203464D01*
X119140000Y-108425149D01*
X119140000Y-108425153D01*
X119125112Y-108500000D01*
X119140000Y-108574847D01*
X119140001Y-109625149D01*
X119125112Y-109700000D01*
X119184097Y-109996537D01*
X119253230Y-110100001D01*
X119352072Y-110247929D01*
X119415528Y-110290329D01*
X120109671Y-110984473D01*
X120152071Y-111047929D01*
X120215527Y-111090329D01*
X120403462Y-111215904D01*
X120451605Y-111225480D01*
X120625148Y-111260000D01*
X120625152Y-111260000D01*
X120700000Y-111274888D01*
X120774848Y-111260000D01*
X121051992Y-111260000D01*
X121020200Y-111336753D01*
X121020200Y-111963247D01*
X121259949Y-112542052D01*
X121702948Y-112985051D01*
X122281753Y-113224800D01*
X122908247Y-113224800D01*
X123487052Y-112985051D01*
X123713135Y-112758968D01*
X124205637Y-112758968D01*
X124296923Y-113019580D01*
X124884833Y-113236045D01*
X125510828Y-113211049D01*
X125973077Y-113019580D01*
X126064363Y-112758968D01*
X125135000Y-111829605D01*
X124205637Y-112758968D01*
X123713135Y-112758968D01*
X123927317Y-112544786D01*
X124026032Y-112579363D01*
X124955395Y-111650000D01*
X124941253Y-111635858D01*
X125120858Y-111456253D01*
X125135000Y-111470395D01*
X125149143Y-111456253D01*
X125328748Y-111635858D01*
X125314605Y-111650000D01*
X126243968Y-112579363D01*
X126342683Y-112544786D01*
X126782948Y-112985051D01*
X127361753Y-113224800D01*
X127988247Y-113224800D01*
X128567052Y-112985051D01*
X129010051Y-112542052D01*
X129249800Y-111963247D01*
X129249800Y-111336753D01*
X129196375Y-111207774D01*
X129205126Y-111194677D01*
X129205128Y-111194675D01*
X129330702Y-111006739D01*
X129330703Y-111006738D01*
X129374799Y-110785053D01*
X129374799Y-110785049D01*
X129389687Y-110710202D01*
X129374799Y-110635355D01*
X129374799Y-107158002D01*
X134290000Y-102242802D01*
X134290000Y-132290000D01*
G36*
X108880530Y-104420669D02*
X108817071Y-104463071D01*
X108677363Y-104672160D01*
X108237350Y-104672160D01*
X107896306Y-104739998D01*
X107607184Y-104933184D01*
X107606393Y-104934367D01*
X107453298Y-104781273D01*
X107219909Y-104684600D01*
X106891850Y-104684600D01*
X106733100Y-104843350D01*
X106733100Y-105892600D01*
X106753100Y-105892600D01*
X106753100Y-106146600D01*
X106733100Y-106146600D01*
X106733100Y-107195850D01*
X106891850Y-107354600D01*
X107219909Y-107354600D01*
X107453298Y-107257927D01*
X107606393Y-107104833D01*
X107607184Y-107106016D01*
X107896306Y-107299202D01*
X108237350Y-107367040D01*
X108605000Y-107367040D01*
X108605001Y-108142896D01*
X108595000Y-108152897D01*
X108217052Y-107774949D01*
X107638247Y-107535200D01*
X107011753Y-107535200D01*
X106432948Y-107774949D01*
X105989949Y-108217948D01*
X105814400Y-108641761D01*
X105814400Y-107821646D01*
X105829288Y-107746799D01*
X105814400Y-107671952D01*
X105814400Y-107671948D01*
X105798400Y-107591511D01*
X105798400Y-107274288D01*
X105992291Y-107354600D01*
X106320350Y-107354600D01*
X106479100Y-107195850D01*
X106479100Y-106146600D01*
X106459100Y-106146600D01*
X106459100Y-105892600D01*
X106479100Y-105892600D01*
X106479100Y-104843350D01*
X106429854Y-104794104D01*
X106512729Y-104738729D01*
X106555131Y-104675270D01*
X106940002Y-104290400D01*
X109010799Y-104290400D01*
X108880530Y-104420669D01*
X108880530Y-104420669D01*
G37*
X108880530Y-104420669D02*
X108817071Y-104463071D01*
X108677363Y-104672160D01*
X108237350Y-104672160D01*
X107896306Y-104739998D01*
X107607184Y-104933184D01*
X107606393Y-104934367D01*
X107453298Y-104781273D01*
X107219909Y-104684600D01*
X106891850Y-104684600D01*
X106733100Y-104843350D01*
X106733100Y-105892600D01*
X106753100Y-105892600D01*
X106753100Y-106146600D01*
X106733100Y-106146600D01*
X106733100Y-107195850D01*
X106891850Y-107354600D01*
X107219909Y-107354600D01*
X107453298Y-107257927D01*
X107606393Y-107104833D01*
X107607184Y-107106016D01*
X107896306Y-107299202D01*
X108237350Y-107367040D01*
X108605000Y-107367040D01*
X108605001Y-108142896D01*
X108595000Y-108152897D01*
X108217052Y-107774949D01*
X107638247Y-107535200D01*
X107011753Y-107535200D01*
X106432948Y-107774949D01*
X105989949Y-108217948D01*
X105814400Y-108641761D01*
X105814400Y-107821646D01*
X105829288Y-107746799D01*
X105814400Y-107671952D01*
X105814400Y-107671948D01*
X105798400Y-107591511D01*
X105798400Y-107274288D01*
X105992291Y-107354600D01*
X106320350Y-107354600D01*
X106479100Y-107195850D01*
X106479100Y-106146600D01*
X106459100Y-106146600D01*
X106459100Y-105892600D01*
X106479100Y-105892600D01*
X106479100Y-104843350D01*
X106429854Y-104794104D01*
X106512729Y-104738729D01*
X106555131Y-104675270D01*
X106940002Y-104290400D01*
X109010799Y-104290400D01*
X108880530Y-104420669D01*
G36*
X123125000Y-101097440D02*
X123513015Y-101097440D01*
X123502560Y-101150000D01*
X123502560Y-102850000D01*
X123551843Y-103097765D01*
X123692191Y-103307809D01*
X123902235Y-103448157D01*
X124150000Y-103497440D01*
X125850000Y-103497440D01*
X126097765Y-103448157D01*
X126307809Y-103307809D01*
X126448157Y-103097765D01*
X126457184Y-103052381D01*
X126469375Y-103070625D01*
X126960582Y-103398839D01*
X127131800Y-103432896D01*
X127131800Y-103716383D01*
X127274145Y-104060035D01*
X127337455Y-104123345D01*
X124385800Y-107075001D01*
X122674846Y-107075001D01*
X122599999Y-107060113D01*
X122525152Y-107075001D01*
X122525147Y-107075001D01*
X122303462Y-107119097D01*
X122052070Y-107287072D01*
X122009670Y-107350528D01*
X121770300Y-107589898D01*
X121638247Y-107535200D01*
X121308400Y-107535200D01*
X121308400Y-107044189D01*
X121399150Y-107062240D01*
X121886650Y-107062240D01*
X122227694Y-106994402D01*
X122516816Y-106801216D01*
X122517607Y-106800033D01*
X122670702Y-106953127D01*
X122904091Y-107049800D01*
X123232150Y-107049800D01*
X123390900Y-106891050D01*
X123390900Y-105841800D01*
X123644900Y-105841800D01*
X123644900Y-106891050D01*
X123803650Y-107049800D01*
X124131709Y-107049800D01*
X124365098Y-106953127D01*
X124543727Y-106774499D01*
X124640400Y-106541110D01*
X124640400Y-106000550D01*
X124481650Y-105841800D01*
X123644900Y-105841800D01*
X123390900Y-105841800D01*
X123370900Y-105841800D01*
X123370900Y-105587800D01*
X123390900Y-105587800D01*
X123390900Y-104538550D01*
X123644900Y-104538550D01*
X123644900Y-105587800D01*
X124481650Y-105587800D01*
X124640400Y-105429050D01*
X124640400Y-104888490D01*
X124543727Y-104655101D01*
X124365098Y-104476473D01*
X124131709Y-104379800D01*
X123803650Y-104379800D01*
X123644900Y-104538550D01*
X123390900Y-104538550D01*
X123232150Y-104379800D01*
X122904091Y-104379800D01*
X122670702Y-104476473D01*
X122517607Y-104629567D01*
X122516816Y-104628384D01*
X122227694Y-104435198D01*
X121886650Y-104367360D01*
X121399150Y-104367360D01*
X121308400Y-104385411D01*
X121308400Y-102270401D01*
X121484470Y-102094331D01*
X121547929Y-102051929D01*
X121676172Y-101860000D01*
X121715904Y-101800538D01*
X121735213Y-101703463D01*
X121760000Y-101578852D01*
X121760000Y-101578848D01*
X121774888Y-101504000D01*
X121760000Y-101429152D01*
X121760000Y-101097440D01*
X122075000Y-101097440D01*
X122200000Y-101072576D01*
X122325000Y-101097440D01*
X122875000Y-101097440D01*
X123000000Y-101072576D01*
X123125000Y-101097440D01*
X123125000Y-101097440D01*
G37*
X123125000Y-101097440D02*
X123513015Y-101097440D01*
X123502560Y-101150000D01*
X123502560Y-102850000D01*
X123551843Y-103097765D01*
X123692191Y-103307809D01*
X123902235Y-103448157D01*
X124150000Y-103497440D01*
X125850000Y-103497440D01*
X126097765Y-103448157D01*
X126307809Y-103307809D01*
X126448157Y-103097765D01*
X126457184Y-103052381D01*
X126469375Y-103070625D01*
X126960582Y-103398839D01*
X127131800Y-103432896D01*
X127131800Y-103716383D01*
X127274145Y-104060035D01*
X127337455Y-104123345D01*
X124385800Y-107075001D01*
X122674846Y-107075001D01*
X122599999Y-107060113D01*
X122525152Y-107075001D01*
X122525147Y-107075001D01*
X122303462Y-107119097D01*
X122052070Y-107287072D01*
X122009670Y-107350528D01*
X121770300Y-107589898D01*
X121638247Y-107535200D01*
X121308400Y-107535200D01*
X121308400Y-107044189D01*
X121399150Y-107062240D01*
X121886650Y-107062240D01*
X122227694Y-106994402D01*
X122516816Y-106801216D01*
X122517607Y-106800033D01*
X122670702Y-106953127D01*
X122904091Y-107049800D01*
X123232150Y-107049800D01*
X123390900Y-106891050D01*
X123390900Y-105841800D01*
X123644900Y-105841800D01*
X123644900Y-106891050D01*
X123803650Y-107049800D01*
X124131709Y-107049800D01*
X124365098Y-106953127D01*
X124543727Y-106774499D01*
X124640400Y-106541110D01*
X124640400Y-106000550D01*
X124481650Y-105841800D01*
X123644900Y-105841800D01*
X123390900Y-105841800D01*
X123370900Y-105841800D01*
X123370900Y-105587800D01*
X123390900Y-105587800D01*
X123390900Y-104538550D01*
X123644900Y-104538550D01*
X123644900Y-105587800D01*
X124481650Y-105587800D01*
X124640400Y-105429050D01*
X124640400Y-104888490D01*
X124543727Y-104655101D01*
X124365098Y-104476473D01*
X124131709Y-104379800D01*
X123803650Y-104379800D01*
X123644900Y-104538550D01*
X123390900Y-104538550D01*
X123232150Y-104379800D01*
X122904091Y-104379800D01*
X122670702Y-104476473D01*
X122517607Y-104629567D01*
X122516816Y-104628384D01*
X122227694Y-104435198D01*
X121886650Y-104367360D01*
X121399150Y-104367360D01*
X121308400Y-104385411D01*
X121308400Y-102270401D01*
X121484470Y-102094331D01*
X121547929Y-102051929D01*
X121676172Y-101860000D01*
X121715904Y-101800538D01*
X121735213Y-101703463D01*
X121760000Y-101578852D01*
X121760000Y-101578848D01*
X121774888Y-101504000D01*
X121760000Y-101429152D01*
X121760000Y-101097440D01*
X122075000Y-101097440D01*
X122200000Y-101072576D01*
X122325000Y-101097440D01*
X122875000Y-101097440D01*
X123000000Y-101072576D01*
X123125000Y-101097440D01*
G36*
X125800945Y-96490835D02*
X125841108Y-96530998D01*
X125877696Y-96714937D01*
X126045672Y-96966329D01*
X126109128Y-97008729D01*
X127402958Y-98302560D01*
X127125000Y-98302560D01*
X127000000Y-98327424D01*
X126875000Y-98302560D01*
X126325000Y-98302560D01*
X126221148Y-98323217D01*
X126201310Y-98315000D01*
X126085750Y-98315000D01*
X125991862Y-98408888D01*
X125867191Y-98492191D01*
X125800000Y-98592749D01*
X125760000Y-98532885D01*
X125760000Y-96435366D01*
X125765830Y-96406059D01*
X125800945Y-96490835D01*
X125800945Y-96490835D01*
G37*
X125800945Y-96490835D02*
X125841108Y-96530998D01*
X125877696Y-96714937D01*
X126045672Y-96966329D01*
X126109128Y-97008729D01*
X127402958Y-98302560D01*
X127125000Y-98302560D01*
X127000000Y-98327424D01*
X126875000Y-98302560D01*
X126325000Y-98302560D01*
X126221148Y-98323217D01*
X126201310Y-98315000D01*
X126085750Y-98315000D01*
X125991862Y-98408888D01*
X125867191Y-98492191D01*
X125800000Y-98592749D01*
X125760000Y-98532885D01*
X125760000Y-96435366D01*
X125765830Y-96406059D01*
X125800945Y-96490835D01*
G36*
X125017998Y-94800000D02*
X124515529Y-95302470D01*
X124452071Y-95344871D01*
X124344408Y-95506000D01*
X124041090Y-95506000D01*
X124008435Y-95473345D01*
X123664783Y-95331000D01*
X123292817Y-95331000D01*
X122949165Y-95473345D01*
X122686145Y-95736365D01*
X122543800Y-96080017D01*
X122543800Y-96451983D01*
X122686145Y-96795635D01*
X122802592Y-96912082D01*
X122664783Y-96855000D01*
X122292817Y-96855000D01*
X121949165Y-96997345D01*
X121686145Y-97260365D01*
X121543800Y-97604017D01*
X121543800Y-97975983D01*
X121679072Y-98302560D01*
X121525000Y-98302560D01*
X121400000Y-98327424D01*
X121275000Y-98302560D01*
X120725000Y-98302560D01*
X120690597Y-98309403D01*
X120697440Y-98275000D01*
X120697440Y-97725000D01*
X120672576Y-97600000D01*
X120697440Y-97475000D01*
X120697440Y-96925000D01*
X120672576Y-96800000D01*
X120697440Y-96675000D01*
X120697440Y-96125000D01*
X120672576Y-96000000D01*
X120697440Y-95875000D01*
X120697440Y-95325000D01*
X120672576Y-95200000D01*
X120697440Y-95075000D01*
X120697440Y-94525000D01*
X120676783Y-94421148D01*
X120685000Y-94401310D01*
X120685000Y-94285750D01*
X120591112Y-94191862D01*
X120547774Y-94127002D01*
X120685000Y-94127002D01*
X120685000Y-94047872D01*
X121022817Y-94187800D01*
X121394783Y-94187800D01*
X121738435Y-94045455D01*
X121823890Y-93960000D01*
X124177999Y-93960000D01*
X125017998Y-94800000D01*
X125017998Y-94800000D01*
G37*
X125017998Y-94800000D02*
X124515529Y-95302470D01*
X124452071Y-95344871D01*
X124344408Y-95506000D01*
X124041090Y-95506000D01*
X124008435Y-95473345D01*
X123664783Y-95331000D01*
X123292817Y-95331000D01*
X122949165Y-95473345D01*
X122686145Y-95736365D01*
X122543800Y-96080017D01*
X122543800Y-96451983D01*
X122686145Y-96795635D01*
X122802592Y-96912082D01*
X122664783Y-96855000D01*
X122292817Y-96855000D01*
X121949165Y-96997345D01*
X121686145Y-97260365D01*
X121543800Y-97604017D01*
X121543800Y-97975983D01*
X121679072Y-98302560D01*
X121525000Y-98302560D01*
X121400000Y-98327424D01*
X121275000Y-98302560D01*
X120725000Y-98302560D01*
X120690597Y-98309403D01*
X120697440Y-98275000D01*
X120697440Y-97725000D01*
X120672576Y-97600000D01*
X120697440Y-97475000D01*
X120697440Y-96925000D01*
X120672576Y-96800000D01*
X120697440Y-96675000D01*
X120697440Y-96125000D01*
X120672576Y-96000000D01*
X120697440Y-95875000D01*
X120697440Y-95325000D01*
X120672576Y-95200000D01*
X120697440Y-95075000D01*
X120697440Y-94525000D01*
X120676783Y-94421148D01*
X120685000Y-94401310D01*
X120685000Y-94285750D01*
X120591112Y-94191862D01*
X120547774Y-94127002D01*
X120685000Y-94127002D01*
X120685000Y-94047872D01*
X121022817Y-94187800D01*
X121394783Y-94187800D01*
X121738435Y-94045455D01*
X121823890Y-93960000D01*
X124177999Y-93960000D01*
X125017998Y-94800000D01*
G36*
X131994796Y-94195546D02*
X131991112Y-94191862D01*
X131947774Y-94127002D01*
X131994796Y-94127002D01*
X131994796Y-94195546D01*
X131994796Y-94195546D01*
G37*
X131994796Y-94195546D02*
X131991112Y-94191862D01*
X131947774Y-94127002D01*
X131994796Y-94127002D01*
X131994796Y-94195546D01*
G36*
X128725000Y-89697440D02*
X129275000Y-89697440D01*
X129309403Y-89690597D01*
X129302560Y-89725000D01*
X129302560Y-90275000D01*
X129327424Y-90400000D01*
X129302560Y-90525000D01*
X129302560Y-91075000D01*
X129327424Y-91200000D01*
X129302560Y-91325000D01*
X129302560Y-91875000D01*
X129327424Y-92000000D01*
X129302560Y-92125000D01*
X129302560Y-92475150D01*
X129107345Y-92670365D01*
X128965000Y-93014017D01*
X128965000Y-93385983D01*
X129107345Y-93729635D01*
X129235510Y-93857800D01*
X129150817Y-93857800D01*
X128807165Y-94000145D01*
X128767310Y-94040000D01*
X126407602Y-94040000D01*
X125567601Y-93200000D01*
X126284473Y-92483129D01*
X126347929Y-92440729D01*
X126515904Y-92189337D01*
X126560000Y-91967652D01*
X126560000Y-91967647D01*
X126574888Y-91892800D01*
X126560000Y-91817953D01*
X126560000Y-89697440D01*
X126875000Y-89697440D01*
X127000000Y-89672576D01*
X127125000Y-89697440D01*
X127675000Y-89697440D01*
X127800000Y-89672576D01*
X127925000Y-89697440D01*
X128475000Y-89697440D01*
X128600000Y-89672576D01*
X128725000Y-89697440D01*
X128725000Y-89697440D01*
G37*
X128725000Y-89697440D02*
X129275000Y-89697440D01*
X129309403Y-89690597D01*
X129302560Y-89725000D01*
X129302560Y-90275000D01*
X129327424Y-90400000D01*
X129302560Y-90525000D01*
X129302560Y-91075000D01*
X129327424Y-91200000D01*
X129302560Y-91325000D01*
X129302560Y-91875000D01*
X129327424Y-92000000D01*
X129302560Y-92125000D01*
X129302560Y-92475150D01*
X129107345Y-92670365D01*
X128965000Y-93014017D01*
X128965000Y-93385983D01*
X129107345Y-93729635D01*
X129235510Y-93857800D01*
X129150817Y-93857800D01*
X128807165Y-94000145D01*
X128767310Y-94040000D01*
X126407602Y-94040000D01*
X125567601Y-93200000D01*
X126284473Y-92483129D01*
X126347929Y-92440729D01*
X126515904Y-92189337D01*
X126560000Y-91967652D01*
X126560000Y-91967647D01*
X126574888Y-91892800D01*
X126560000Y-91817953D01*
X126560000Y-89697440D01*
X126875000Y-89697440D01*
X127000000Y-89672576D01*
X127125000Y-89697440D01*
X127675000Y-89697440D01*
X127800000Y-89672576D01*
X127925000Y-89697440D01*
X128475000Y-89697440D01*
X128600000Y-89672576D01*
X128725000Y-89697440D01*
G36*
X115614017Y-92535000D02*
X115660199Y-92535000D01*
X116009670Y-92884472D01*
X116052071Y-92947929D01*
X116115527Y-92990329D01*
X116303462Y-93115904D01*
X116351605Y-93125480D01*
X116525148Y-93160000D01*
X116525152Y-93160000D01*
X116600000Y-93174888D01*
X116674848Y-93160000D01*
X117902560Y-93160000D01*
X117902560Y-93475000D01*
X117923217Y-93578852D01*
X117915000Y-93598690D01*
X117915000Y-93714250D01*
X118008888Y-93808138D01*
X118092191Y-93932809D01*
X118192749Y-94000000D01*
X118132885Y-94040000D01*
X116755602Y-94040000D01*
X115626331Y-92910730D01*
X115583929Y-92847271D01*
X115332537Y-92679296D01*
X115319440Y-92676691D01*
X115319440Y-92412982D01*
X115614017Y-92535000D01*
X115614017Y-92535000D01*
G37*
X115614017Y-92535000D02*
X115660199Y-92535000D01*
X116009670Y-92884472D01*
X116052071Y-92947929D01*
X116115527Y-92990329D01*
X116303462Y-93115904D01*
X116351605Y-93125480D01*
X116525148Y-93160000D01*
X116525152Y-93160000D01*
X116600000Y-93174888D01*
X116674848Y-93160000D01*
X117902560Y-93160000D01*
X117902560Y-93475000D01*
X117923217Y-93578852D01*
X117915000Y-93598690D01*
X117915000Y-93714250D01*
X118008888Y-93808138D01*
X118092191Y-93932809D01*
X118192749Y-94000000D01*
X118132885Y-94040000D01*
X116755602Y-94040000D01*
X115626331Y-92910730D01*
X115583929Y-92847271D01*
X115332537Y-92679296D01*
X115319440Y-92676691D01*
X115319440Y-92412982D01*
X115614017Y-92535000D01*
G36*
X131994796Y-93872998D02*
X131947774Y-93872998D01*
X131991112Y-93808138D01*
X131994796Y-93804454D01*
X131994796Y-93872998D01*
X131994796Y-93872998D01*
G37*
X131994796Y-93872998D02*
X131947774Y-93872998D01*
X131991112Y-93808138D01*
X131994796Y-93804454D01*
X131994796Y-93872998D01*
G36*
X125040000Y-89467116D02*
X125040001Y-91577997D01*
X124177999Y-92440000D01*
X121702548Y-92440000D01*
X121678023Y-92435122D01*
X121394783Y-92317800D01*
X121022817Y-92317800D01*
X120727799Y-92440000D01*
X120697440Y-92440000D01*
X120697440Y-92125000D01*
X120672576Y-92000000D01*
X120697440Y-91875000D01*
X120697440Y-91325000D01*
X120672576Y-91200000D01*
X120697440Y-91075000D01*
X120697440Y-90525000D01*
X120672576Y-90400000D01*
X120697440Y-90275000D01*
X120697440Y-89725000D01*
X120690597Y-89690597D01*
X120725000Y-89697440D01*
X121275000Y-89697440D01*
X121400000Y-89672576D01*
X121525000Y-89697440D01*
X122075000Y-89697440D01*
X122200000Y-89672576D01*
X122325000Y-89697440D01*
X122875000Y-89697440D01*
X123000000Y-89672576D01*
X123125000Y-89697440D01*
X123675000Y-89697440D01*
X123800000Y-89672576D01*
X123925000Y-89697440D01*
X124475000Y-89697440D01*
X124578852Y-89676783D01*
X124598690Y-89685000D01*
X124714250Y-89685000D01*
X124808138Y-89591112D01*
X124932809Y-89507809D01*
X125000000Y-89407251D01*
X125040000Y-89467116D01*
X125040000Y-89467116D01*
G37*
X125040000Y-89467116D02*
X125040001Y-91577997D01*
X124177999Y-92440000D01*
X121702548Y-92440000D01*
X121678023Y-92435122D01*
X121394783Y-92317800D01*
X121022817Y-92317800D01*
X120727799Y-92440000D01*
X120697440Y-92440000D01*
X120697440Y-92125000D01*
X120672576Y-92000000D01*
X120697440Y-91875000D01*
X120697440Y-91325000D01*
X120672576Y-91200000D01*
X120697440Y-91075000D01*
X120697440Y-90525000D01*
X120672576Y-90400000D01*
X120697440Y-90275000D01*
X120697440Y-89725000D01*
X120690597Y-89690597D01*
X120725000Y-89697440D01*
X121275000Y-89697440D01*
X121400000Y-89672576D01*
X121525000Y-89697440D01*
X122075000Y-89697440D01*
X122200000Y-89672576D01*
X122325000Y-89697440D01*
X122875000Y-89697440D01*
X123000000Y-89672576D01*
X123125000Y-89697440D01*
X123675000Y-89697440D01*
X123800000Y-89672576D01*
X123925000Y-89697440D01*
X124475000Y-89697440D01*
X124578852Y-89676783D01*
X124598690Y-89685000D01*
X124714250Y-89685000D01*
X124808138Y-89591112D01*
X124932809Y-89507809D01*
X125000000Y-89407251D01*
X125040000Y-89467116D01*
G36*
X121949165Y-83850655D02*
X122080813Y-83905185D01*
X120081199Y-85904800D01*
X118388046Y-85904800D01*
X118313199Y-85889912D01*
X118238352Y-85904800D01*
X118238348Y-85904800D01*
X118016663Y-85948896D01*
X117765271Y-86116871D01*
X117722871Y-86180327D01*
X116612744Y-87290454D01*
X116529635Y-87207345D01*
X116185983Y-87065000D01*
X116139802Y-87065000D01*
X114102002Y-85027201D01*
X114102002Y-84990752D01*
X114221250Y-85110000D01*
X114276310Y-85110000D01*
X114509699Y-85013327D01*
X114688327Y-84834698D01*
X114785000Y-84601309D01*
X114785000Y-84410750D01*
X114626252Y-84252002D01*
X114785000Y-84252002D01*
X114785000Y-84197388D01*
X114892191Y-84357809D01*
X115102235Y-84498157D01*
X115350000Y-84547440D01*
X117150000Y-84547440D01*
X117397765Y-84498157D01*
X117607809Y-84357809D01*
X117748157Y-84147765D01*
X117751275Y-84132092D01*
X117920493Y-84301310D01*
X118484670Y-84535000D01*
X119095330Y-84535000D01*
X119659507Y-84301310D01*
X120091310Y-83869507D01*
X120112645Y-83818000D01*
X121916510Y-83818000D01*
X121949165Y-83850655D01*
X121949165Y-83850655D01*
G37*
X121949165Y-83850655D02*
X122080813Y-83905185D01*
X120081199Y-85904800D01*
X118388046Y-85904800D01*
X118313199Y-85889912D01*
X118238352Y-85904800D01*
X118238348Y-85904800D01*
X118016663Y-85948896D01*
X117765271Y-86116871D01*
X117722871Y-86180327D01*
X116612744Y-87290454D01*
X116529635Y-87207345D01*
X116185983Y-87065000D01*
X116139802Y-87065000D01*
X114102002Y-85027201D01*
X114102002Y-84990752D01*
X114221250Y-85110000D01*
X114276310Y-85110000D01*
X114509699Y-85013327D01*
X114688327Y-84834698D01*
X114785000Y-84601309D01*
X114785000Y-84410750D01*
X114626252Y-84252002D01*
X114785000Y-84252002D01*
X114785000Y-84197388D01*
X114892191Y-84357809D01*
X115102235Y-84498157D01*
X115350000Y-84547440D01*
X117150000Y-84547440D01*
X117397765Y-84498157D01*
X117607809Y-84357809D01*
X117748157Y-84147765D01*
X117751275Y-84132092D01*
X117920493Y-84301310D01*
X118484670Y-84535000D01*
X119095330Y-84535000D01*
X119659507Y-84301310D01*
X120091310Y-83869507D01*
X120112645Y-83818000D01*
X121916510Y-83818000D01*
X121949165Y-83850655D01*
G36*
X124716000Y-84710353D02*
X124701112Y-84785200D01*
X124716000Y-84860047D01*
X124716000Y-84860051D01*
X124760096Y-85081736D01*
X124928071Y-85333129D01*
X124991530Y-85375531D01*
X125040001Y-85424002D01*
X125040000Y-85934622D01*
X125005911Y-86106000D01*
X125019159Y-86172603D01*
X125005912Y-86239200D01*
X125020800Y-86314047D01*
X125020800Y-86314051D01*
X125040001Y-86410580D01*
X125040001Y-87132884D01*
X125000000Y-87192749D01*
X124932809Y-87092191D01*
X124808138Y-87008888D01*
X124714250Y-86915000D01*
X124598690Y-86915000D01*
X124578852Y-86923217D01*
X124475000Y-86902560D01*
X123925000Y-86902560D01*
X123800000Y-86927424D01*
X123675000Y-86902560D01*
X123360000Y-86902560D01*
X123360000Y-85740801D01*
X124716000Y-84384802D01*
X124716000Y-84710353D01*
X124716000Y-84710353D01*
G37*
X124716000Y-84710353D02*
X124701112Y-84785200D01*
X124716000Y-84860047D01*
X124716000Y-84860051D01*
X124760096Y-85081736D01*
X124928071Y-85333129D01*
X124991530Y-85375531D01*
X125040001Y-85424002D01*
X125040000Y-85934622D01*
X125005911Y-86106000D01*
X125019159Y-86172603D01*
X125005912Y-86239200D01*
X125020800Y-86314047D01*
X125020800Y-86314051D01*
X125040001Y-86410580D01*
X125040001Y-87132884D01*
X125000000Y-87192749D01*
X124932809Y-87092191D01*
X124808138Y-87008888D01*
X124714250Y-86915000D01*
X124598690Y-86915000D01*
X124578852Y-86923217D01*
X124475000Y-86902560D01*
X123925000Y-86902560D01*
X123800000Y-86927424D01*
X123675000Y-86902560D01*
X123360000Y-86902560D01*
X123360000Y-85740801D01*
X124716000Y-84384802D01*
X124716000Y-84710353D01*
G36*
X126308635Y-80848557D02*
X126556400Y-80897840D01*
X128240000Y-80897840D01*
X128240000Y-81555998D01*
X126236000Y-83559999D01*
X126236000Y-80800023D01*
X126308635Y-80848557D01*
X126308635Y-80848557D01*
G37*
X126308635Y-80848557D02*
X126556400Y-80897840D01*
X128240000Y-80897840D01*
X128240000Y-81555998D01*
X126236000Y-83559999D01*
X126236000Y-80800023D01*
X126308635Y-80848557D01*
G36*
X122694991Y-79210191D02*
X122554643Y-79420235D01*
X122505360Y-79668000D01*
X122505360Y-81368000D01*
X122554643Y-81615765D01*
X122694991Y-81825809D01*
X122905035Y-81966157D01*
X123152800Y-82015440D01*
X123242800Y-82015440D01*
X123242800Y-82499710D01*
X123008435Y-82265345D01*
X122664783Y-82123000D01*
X122292817Y-82123000D01*
X121949165Y-82265345D01*
X121916510Y-82298000D01*
X120160694Y-82298000D01*
X120091310Y-82130493D01*
X119659507Y-81698690D01*
X119095330Y-81465000D01*
X118484670Y-81465000D01*
X117920493Y-81698690D01*
X117751275Y-81867908D01*
X117748157Y-81852235D01*
X117607809Y-81642191D01*
X117397765Y-81501843D01*
X117150000Y-81452560D01*
X115350000Y-81452560D01*
X115102235Y-81501843D01*
X114892191Y-81642191D01*
X114797440Y-81783995D01*
X114797440Y-81603361D01*
X116308473Y-80092329D01*
X116371929Y-80049929D01*
X116539904Y-79798537D01*
X116584000Y-79576852D01*
X116584000Y-79576847D01*
X116598888Y-79502000D01*
X116584000Y-79427153D01*
X116584000Y-79093600D01*
X122869480Y-79093600D01*
X122694991Y-79210191D01*
X122694991Y-79210191D01*
G37*
X122694991Y-79210191D02*
X122554643Y-79420235D01*
X122505360Y-79668000D01*
X122505360Y-81368000D01*
X122554643Y-81615765D01*
X122694991Y-81825809D01*
X122905035Y-81966157D01*
X123152800Y-82015440D01*
X123242800Y-82015440D01*
X123242800Y-82499710D01*
X123008435Y-82265345D01*
X122664783Y-82123000D01*
X122292817Y-82123000D01*
X121949165Y-82265345D01*
X121916510Y-82298000D01*
X120160694Y-82298000D01*
X120091310Y-82130493D01*
X119659507Y-81698690D01*
X119095330Y-81465000D01*
X118484670Y-81465000D01*
X117920493Y-81698690D01*
X117751275Y-81867908D01*
X117748157Y-81852235D01*
X117607809Y-81642191D01*
X117397765Y-81501843D01*
X117150000Y-81452560D01*
X115350000Y-81452560D01*
X115102235Y-81501843D01*
X114892191Y-81642191D01*
X114797440Y-81783995D01*
X114797440Y-81603361D01*
X116308473Y-80092329D01*
X116371929Y-80049929D01*
X116539904Y-79798537D01*
X116584000Y-79576852D01*
X116584000Y-79576847D01*
X116598888Y-79502000D01*
X116584000Y-79427153D01*
X116584000Y-79093600D01*
X122869480Y-79093600D01*
X122694991Y-79210191D01*
G36*
X115064000Y-79187198D02*
X113490528Y-80760671D01*
X113427072Y-80803071D01*
X113382464Y-80869831D01*
X113337856Y-80803071D01*
X113265329Y-80694526D01*
X113265327Y-80694524D01*
X113222929Y-80631071D01*
X113159475Y-80588673D01*
X112570800Y-79999998D01*
X112570800Y-79093600D01*
X115064000Y-79093600D01*
X115064000Y-79187198D01*
X115064000Y-79187198D01*
G37*
X115064000Y-79187198D02*
X113490528Y-80760671D01*
X113427072Y-80803071D01*
X113382464Y-80869831D01*
X113337856Y-80803071D01*
X113265329Y-80694526D01*
X113265327Y-80694524D01*
X113222929Y-80631071D01*
X113159475Y-80588673D01*
X112570800Y-79999998D01*
X112570800Y-79093600D01*
X115064000Y-79093600D01*
X115064000Y-79187198D01*
G36*
X128152235Y-65598157D02*
X128240001Y-65615615D01*
X128240000Y-77902960D01*
X126556400Y-77902960D01*
X126308635Y-77952243D01*
X126236000Y-78000777D01*
X126236000Y-71688801D01*
X127468473Y-70456329D01*
X127531929Y-70413929D01*
X127699904Y-70162537D01*
X127744000Y-69940852D01*
X127744000Y-69940848D01*
X127758888Y-69866001D01*
X127744000Y-69791154D01*
X127744000Y-69497571D01*
X127795416Y-69463216D01*
X127988602Y-69174094D01*
X128056440Y-68833050D01*
X128056440Y-67920550D01*
X127995622Y-67614800D01*
X128056440Y-67309050D01*
X128056440Y-66396550D01*
X127988602Y-66055506D01*
X127795416Y-65766384D01*
X127760000Y-65742720D01*
X127760000Y-65615614D01*
X127847765Y-65598157D01*
X128000000Y-65496436D01*
X128152235Y-65598157D01*
X128152235Y-65598157D01*
G37*
X128152235Y-65598157D02*
X128240001Y-65615615D01*
X128240000Y-77902960D01*
X126556400Y-77902960D01*
X126308635Y-77952243D01*
X126236000Y-78000777D01*
X126236000Y-71688801D01*
X127468473Y-70456329D01*
X127531929Y-70413929D01*
X127699904Y-70162537D01*
X127744000Y-69940852D01*
X127744000Y-69940848D01*
X127758888Y-69866001D01*
X127744000Y-69791154D01*
X127744000Y-69497571D01*
X127795416Y-69463216D01*
X127988602Y-69174094D01*
X128056440Y-68833050D01*
X128056440Y-67920550D01*
X127995622Y-67614800D01*
X128056440Y-67309050D01*
X128056440Y-66396550D01*
X127988602Y-66055506D01*
X127795416Y-65766384D01*
X127760000Y-65742720D01*
X127760000Y-65615614D01*
X127847765Y-65598157D01*
X128000000Y-65496436D01*
X128152235Y-65598157D01*
G04 #@! TD*
M02*
