G04 #@! TF.FileFunction,Copper,L2,Bot,Signal*
%FSLAX46Y46*%
G04 Gerber Fmt 4.6, Leading zero omitted, Abs format (unit mm)*
G04 Created by KiCad (PCBNEW 4.0.7-e2-6376~58~ubuntu16.04.1) date Sat Sep  1 16:07:10 2018*
%MOMM*%
%LPD*%
G01*
G04 APERTURE LIST*
%ADD10C,0.100000*%
%ADD11C,1.000000*%
%ADD12R,1.250000X1.000000*%
%ADD13R,1.000000X1.250000*%
%ADD14R,1.000000X2.750000*%
%ADD15R,1.700000X1.700000*%
%ADD16O,1.700000X1.700000*%
%ADD17R,1.300000X0.700000*%
%ADD18R,1.800000X1.800000*%
%ADD19C,1.800000*%
%ADD20C,3.200000*%
%ADD21C,1.879600*%
%ADD22R,7.000000X2.000000*%
%ADD23C,1.000000*%
%ADD24C,2.200000*%
%ADD25C,0.600000*%
%ADD26C,0.250000*%
%ADD27C,0.254000*%
G04 APERTURE END LIST*
D10*
D11*
X106000000Y-48000000D02*
X107000000Y-47000000D01*
X102000000Y-48000000D02*
X106000000Y-48000000D01*
X101000000Y-49000000D02*
X102000000Y-48000000D01*
X106000000Y-50000000D02*
X107000000Y-49000000D01*
X102000000Y-50000000D02*
X106000000Y-50000000D01*
X101000000Y-51000000D02*
X102000000Y-50000000D01*
X106000000Y-52000000D02*
X107000000Y-51000000D01*
X102000000Y-52000000D02*
X106000000Y-52000000D01*
X101000000Y-53000000D02*
X102000000Y-52000000D01*
X106000000Y-54000000D02*
X107000000Y-53000000D01*
X102000000Y-54000000D02*
X106000000Y-54000000D01*
X101000000Y-55000000D02*
X102000000Y-54000000D01*
X106000000Y-56000000D02*
X107000000Y-55000000D01*
X102000000Y-56000000D02*
X106000000Y-56000000D01*
X101000000Y-57000000D02*
X102000000Y-56000000D01*
X106000000Y-58000000D02*
X107000000Y-57000000D01*
X102000000Y-58000000D02*
X106000000Y-58000000D01*
X101000000Y-59000000D02*
X102000000Y-58000000D01*
X106000000Y-60000000D02*
X107000000Y-59000000D01*
X102000000Y-60000000D02*
X106000000Y-60000000D01*
X101000000Y-61000000D02*
X102000000Y-60000000D01*
X106000000Y-62000000D02*
X107000000Y-61000000D01*
X102000000Y-62000000D02*
X106000000Y-62000000D01*
X101000000Y-63000000D02*
X102000000Y-62000000D01*
X106000000Y-64000000D02*
X107000000Y-63000000D01*
X102000000Y-64000000D02*
X106000000Y-64000000D01*
X101000000Y-65000000D02*
X102000000Y-64000000D01*
D12*
X129946400Y-92998800D03*
X129946400Y-90998800D03*
D13*
X123478800Y-96266000D03*
X121478800Y-96266000D03*
D12*
X129997200Y-95012000D03*
X129997200Y-97012000D03*
D14*
X102444800Y-91867000D03*
X102444800Y-97617000D03*
X106444800Y-97617000D03*
X106444800Y-91867000D03*
D12*
X121208800Y-93252800D03*
X121208800Y-91252800D03*
D15*
X127406400Y-79400400D03*
X125000000Y-102000000D03*
D16*
X127540000Y-102000000D03*
D15*
X114960400Y-100533200D03*
D16*
X117500400Y-100533200D03*
D17*
X106629200Y-87645200D03*
X106629200Y-89545200D03*
D18*
X116250000Y-83000000D03*
D19*
X118790000Y-83000000D03*
D17*
X116230400Y-79466400D03*
X116230400Y-81366400D03*
D15*
X102514400Y-101346000D03*
X109372400Y-86563200D03*
X124002800Y-80518000D03*
X103733600Y-88341200D03*
X132283200Y-85394800D03*
X109372400Y-88849200D03*
D20*
X130080000Y-118000000D03*
D21*
X121825000Y-109110000D03*
X123095000Y-111650000D03*
X124365000Y-109110000D03*
X125635000Y-111650000D03*
X126905000Y-109110000D03*
X128175000Y-111650000D03*
D20*
X119920000Y-118000000D03*
X115080000Y-118000000D03*
D21*
X106825000Y-109110000D03*
X108095000Y-111650000D03*
X109365000Y-109110000D03*
X110635000Y-111650000D03*
X111905000Y-109110000D03*
X113175000Y-111650000D03*
D20*
X104920000Y-118000000D03*
D22*
X106500000Y-131000000D03*
X112500000Y-131000000D03*
X122500000Y-131000000D03*
X128500000Y-131000000D03*
D23*
X107000000Y-47000000D03*
X101000000Y-49000000D03*
X107000000Y-49000000D03*
X101000000Y-51000000D03*
X107000000Y-51000000D03*
X101000000Y-53000000D03*
X107000000Y-53000000D03*
X101000000Y-55000000D03*
X107000000Y-55000000D03*
X101000000Y-57000000D03*
X107000000Y-57000000D03*
X101000000Y-59000000D03*
X107000000Y-59000000D03*
X101000000Y-61000000D03*
X107000000Y-61000000D03*
X101000000Y-63000000D03*
X107000000Y-63000000D03*
X101000000Y-65000000D03*
D24*
X109800000Y-84200000D03*
X108200000Y-81600000D03*
X119000000Y-85200000D03*
X115600000Y-85400000D03*
X113400000Y-79800000D03*
X132200000Y-76200000D03*
X103000000Y-78600000D03*
X103000000Y-83000000D03*
X132200000Y-81600000D03*
X110200000Y-79800000D03*
X119000000Y-80000000D03*
X119000000Y-76000000D03*
D25*
X126796800Y-56489600D03*
X125500000Y-60000000D03*
X125526800Y-52019200D03*
X106781600Y-102463600D03*
X109169200Y-101650800D03*
X120000000Y-67500000D03*
X121000000Y-66500000D03*
X116000000Y-67500000D03*
X115000000Y-66500000D03*
X112300000Y-89500000D03*
X121200000Y-90000000D03*
X126746000Y-82702400D03*
X134000000Y-126000000D03*
X134000000Y-124000000D03*
X134000000Y-122000000D03*
X134000000Y-120000000D03*
X134000000Y-118000000D03*
X134000000Y-116000000D03*
X134000000Y-114000000D03*
X134000000Y-112000000D03*
X134000000Y-110000000D03*
X134000000Y-108000000D03*
X134000000Y-106000000D03*
X134000000Y-104000000D03*
X124000000Y-128500000D03*
X134000000Y-132000000D03*
X134000000Y-130000000D03*
X134000000Y-128000000D03*
X134000000Y-83000000D03*
X134000000Y-81000000D03*
X134000000Y-79000000D03*
X134000000Y-77000000D03*
X134000000Y-75000000D03*
X134000000Y-73000000D03*
X134000000Y-71000000D03*
X134000000Y-69000000D03*
X134000000Y-67000000D03*
X113500000Y-66500000D03*
X113500000Y-68000000D03*
X113500000Y-69500000D03*
X113500000Y-71000000D03*
X113500000Y-72500000D03*
X113500000Y-74000000D03*
X113500000Y-75500000D03*
X112500000Y-76500000D03*
X111000000Y-76500000D03*
X109500000Y-76500000D03*
X108000000Y-76500000D03*
X106500000Y-76500000D03*
X105000000Y-76500000D03*
X103500000Y-76500000D03*
X102000000Y-76500000D03*
X101000000Y-77500000D03*
X101000000Y-131000000D03*
X101000000Y-129000000D03*
X101000000Y-127000000D03*
X101000000Y-125000000D03*
X101000000Y-123000000D03*
X101000000Y-121000000D03*
X101000000Y-119000000D03*
X101000000Y-117000000D03*
X101000000Y-115000000D03*
X101000000Y-113000000D03*
X101000000Y-111000000D03*
X101000000Y-109000000D03*
X101000000Y-107000000D03*
X101000000Y-105000000D03*
X101000000Y-103000000D03*
X101000000Y-101000000D03*
X101000000Y-99000000D03*
X101000000Y-97000000D03*
X101000000Y-95000000D03*
X101000000Y-93000000D03*
X101000000Y-91000000D03*
X101000000Y-89000000D03*
X101000000Y-87000000D03*
X101000000Y-85000000D03*
X101000000Y-83000000D03*
X101000000Y-81000000D03*
X101000000Y-79000000D03*
X113500000Y-60500000D03*
X113500000Y-59000000D03*
X113500000Y-57500000D03*
X113500000Y-56000000D03*
X113500000Y-54500000D03*
X113500000Y-53000000D03*
X113500000Y-51500000D03*
X113500000Y-50000000D03*
X113500000Y-48500000D03*
X113500000Y-47000000D03*
X118000000Y-47000000D03*
X116500000Y-47000000D03*
X115000000Y-47000000D03*
X117043200Y-93472000D03*
X121000000Y-128500000D03*
X119500000Y-107500000D03*
X119500000Y-111000000D03*
X124000000Y-115500000D03*
X127000000Y-75946000D03*
X124663200Y-85598000D03*
X129500000Y-54000000D03*
X133000000Y-51000000D03*
X133000000Y-54000000D03*
X133000000Y-57000000D03*
X133000000Y-60000000D03*
X129000000Y-60000000D03*
X129235200Y-84836000D03*
X125628400Y-93167200D03*
X124968000Y-94742000D03*
X124612400Y-105714800D03*
X132029200Y-94132400D03*
X119000000Y-60000000D03*
X119000000Y-57000000D03*
X119000000Y-54000000D03*
X119000000Y-51000000D03*
X113500000Y-62000000D03*
X109982000Y-91033600D03*
X110083600Y-98552000D03*
X129387600Y-89662000D03*
X124968000Y-89865200D03*
X121107200Y-94488000D03*
X126238000Y-98145600D03*
X101752400Y-106070400D03*
X106426000Y-104648000D03*
X106629200Y-87020400D03*
X119583200Y-102819200D03*
X123478800Y-96266000D03*
X129336800Y-94792800D03*
X121208800Y-93252800D03*
X115976400Y-103530400D03*
X128066800Y-103530400D03*
X121700000Y-60100000D03*
X116800000Y-90600000D03*
X113919000Y-89916000D03*
X116992400Y-91592400D03*
X122400000Y-57300000D03*
X112000000Y-86600000D03*
X125018800Y-55575200D03*
X115800000Y-91600000D03*
X116000000Y-88000000D03*
X117000000Y-89000000D03*
X123037600Y-52476400D03*
X121818400Y-86918800D03*
X128676400Y-95504000D03*
X122936000Y-51155600D03*
X126593600Y-95961200D03*
X126339600Y-84531200D03*
X127203200Y-84632800D03*
X127304800Y-95453200D03*
X128016000Y-84785200D03*
X127965200Y-96012000D03*
X122478800Y-83058000D03*
X122478800Y-97790000D03*
X124764800Y-82600800D03*
X129900000Y-93200000D03*
D26*
X109800000Y-83200000D02*
X109800000Y-84200000D01*
X108200000Y-81600000D02*
X109800000Y-83200000D01*
X115800000Y-85200000D02*
X119000000Y-85200000D01*
X115600000Y-85400000D02*
X115800000Y-85200000D01*
X103000000Y-83000000D02*
X103000000Y-78600000D01*
X134000000Y-79000000D02*
X134000000Y-79800000D01*
X134000000Y-79800000D02*
X132200000Y-81600000D01*
X113400000Y-79800000D02*
X110200000Y-79800000D01*
X113733600Y-79466400D02*
X113400000Y-79800000D01*
X116230400Y-79466400D02*
X113733600Y-79466400D01*
X119000000Y-76000000D02*
X119000000Y-80000000D01*
X118466400Y-79466400D02*
X116230400Y-79466400D01*
X119000000Y-80000000D02*
X118466400Y-79466400D01*
X129000000Y-60000000D02*
X129000000Y-58692800D01*
X129000000Y-58692800D02*
X126796800Y-56489600D01*
X125500000Y-60000000D02*
X129000000Y-60000000D01*
X106245200Y-103000000D02*
X106781600Y-102463600D01*
X101000000Y-103000000D02*
X106245200Y-103000000D01*
X121000000Y-66500000D02*
X120000000Y-67500000D01*
X115000000Y-66500000D02*
X116000000Y-67500000D01*
X121208800Y-91252800D02*
X121208800Y-90008800D01*
X121208800Y-90008800D02*
X121200000Y-90000000D01*
X134000000Y-104000000D02*
X134000000Y-106000000D01*
X134000000Y-126000000D02*
X134000000Y-124000000D01*
X134000000Y-122000000D02*
X134000000Y-120000000D01*
X134000000Y-118000000D02*
X134000000Y-116000000D01*
X134000000Y-114000000D02*
X134000000Y-112000000D01*
X134000000Y-110000000D02*
X134000000Y-108000000D01*
X124000000Y-128500000D02*
X133500000Y-128500000D01*
X134000000Y-130000000D02*
X134000000Y-132000000D01*
X133500000Y-128500000D02*
X134000000Y-128000000D01*
X133000000Y-60000000D02*
X133000000Y-66000000D01*
X134000000Y-81000000D02*
X134000000Y-83000000D01*
X134000000Y-77000000D02*
X134000000Y-79000000D01*
X134000000Y-73000000D02*
X134000000Y-75000000D01*
X134000000Y-69000000D02*
X134000000Y-71000000D01*
X133000000Y-66000000D02*
X134000000Y-67000000D01*
X101000000Y-77500000D02*
X101000000Y-78500000D01*
X113500000Y-68000000D02*
X113500000Y-69500000D01*
X113500000Y-71000000D02*
X113500000Y-72500000D01*
X113500000Y-74000000D02*
X113500000Y-75500000D01*
X112500000Y-76500000D02*
X111000000Y-76500000D01*
X109500000Y-76500000D02*
X108000000Y-76500000D01*
X106500000Y-76500000D02*
X105000000Y-76500000D01*
X103500000Y-76500000D02*
X102000000Y-76500000D01*
X113500000Y-62000000D02*
X113500000Y-66500000D01*
X101000000Y-129000000D02*
X101000000Y-131000000D01*
X101000000Y-128000000D02*
X101000000Y-127000000D01*
X101000000Y-125000000D02*
X101000000Y-128000000D01*
X101000000Y-121000000D02*
X101000000Y-123000000D01*
X101000000Y-117000000D02*
X101000000Y-119000000D01*
X101000000Y-113000000D02*
X101000000Y-115000000D01*
X101000000Y-109000000D02*
X101000000Y-111000000D01*
X101000000Y-105000000D02*
X101000000Y-107000000D01*
X101000000Y-101000000D02*
X101000000Y-103000000D01*
X101000000Y-97000000D02*
X101000000Y-99000000D01*
X101000000Y-93000000D02*
X101000000Y-95000000D01*
X101000000Y-89000000D02*
X101000000Y-91000000D01*
X101000000Y-85000000D02*
X101000000Y-87000000D01*
X101000000Y-81000000D02*
X101000000Y-83000000D01*
X101000000Y-78500000D02*
X101000000Y-79000000D01*
X113500000Y-47000000D02*
X115000000Y-47000000D01*
X113500000Y-59000000D02*
X113500000Y-57500000D01*
X113500000Y-56000000D02*
X113500000Y-54500000D01*
X113500000Y-53000000D02*
X113500000Y-51500000D01*
X113500000Y-50000000D02*
X113500000Y-48500000D01*
X113500000Y-62000000D02*
X113500000Y-60500000D01*
X116500000Y-47000000D02*
X118000000Y-47000000D01*
X124000000Y-128500000D02*
X124000000Y-115500000D01*
X121000000Y-128500000D02*
X124000000Y-128500000D01*
X119500000Y-111000000D02*
X119500000Y-107500000D01*
X128625600Y-82702400D02*
X129184400Y-82143600D01*
X129184400Y-82143600D02*
X129184400Y-78130400D01*
X129184400Y-78130400D02*
X127000000Y-75946000D01*
X125069600Y-84378800D02*
X126746000Y-82702400D01*
X125069600Y-85191600D02*
X125069600Y-84378800D01*
X124663200Y-85598000D02*
X125069600Y-85191600D01*
X126746000Y-82702400D02*
X128625600Y-82702400D01*
X133000000Y-54000000D02*
X129500000Y-54000000D01*
X133000000Y-51000000D02*
X133000000Y-54000000D01*
X133000000Y-57000000D02*
X133000000Y-60000000D01*
X129000000Y-60000000D02*
X127000000Y-60000000D01*
X125628400Y-93167200D02*
X125628400Y-94081600D01*
X125628400Y-94081600D02*
X124968000Y-94742000D01*
X132080000Y-94929200D02*
X129997200Y-97012000D01*
X132080000Y-94183200D02*
X132080000Y-94929200D01*
X132029200Y-94132400D02*
X132080000Y-94183200D01*
X119000000Y-60000000D02*
X119000000Y-57000000D01*
X119000000Y-54000000D02*
X119000000Y-51000000D01*
X121107200Y-94488000D02*
X121107200Y-94538800D01*
X106629200Y-87020400D02*
X106629200Y-87645200D01*
X107238800Y-101346000D02*
X108712000Y-102819200D01*
X119583200Y-102819200D02*
X115316000Y-102819200D01*
X102514400Y-101346000D02*
X107238800Y-101346000D01*
X108712000Y-102819200D02*
X115316000Y-102819200D01*
X123478800Y-98923600D02*
X119583200Y-102819200D01*
X123478800Y-96266000D02*
X123478800Y-98923600D01*
X129997200Y-95012000D02*
X129556000Y-95012000D01*
X129556000Y-95012000D02*
X129336800Y-94792800D01*
X128066800Y-103530400D02*
X115976400Y-103530400D01*
X116800000Y-90600000D02*
X120500000Y-86900000D01*
X121700000Y-76800000D02*
X121700000Y-60100000D01*
X120500000Y-78000000D02*
X121700000Y-76800000D01*
X120500000Y-86900000D02*
X120500000Y-78000000D01*
X116800000Y-90600000D02*
X116116000Y-89916000D01*
X116116000Y-89916000D02*
X113919000Y-89916000D01*
X121158000Y-87426800D02*
X116992400Y-91592400D01*
X121158000Y-78242000D02*
X121158000Y-87426800D01*
X122400000Y-77000000D02*
X121158000Y-78242000D01*
X122400000Y-57300000D02*
X122400000Y-77000000D01*
X109067600Y-86563200D02*
X111963200Y-86563200D01*
X111963200Y-86563200D02*
X112000000Y-86600000D01*
X124002800Y-80518000D02*
X124002800Y-56591200D01*
X124002800Y-56591200D02*
X125018800Y-55575200D01*
X103733600Y-88341200D02*
X105141200Y-88341200D01*
X105900000Y-90200000D02*
X106629200Y-90200000D01*
X105600000Y-89900000D02*
X105900000Y-90200000D01*
X105600000Y-88800000D02*
X105600000Y-89900000D01*
X105141200Y-88341200D02*
X105600000Y-88800000D01*
X115800000Y-91600000D02*
X114800000Y-90600000D01*
X114800000Y-90600000D02*
X111400000Y-90600000D01*
X111400000Y-90600000D02*
X111000000Y-90200000D01*
X111000000Y-90200000D02*
X106629200Y-90200000D01*
X106444800Y-91867000D02*
X106444800Y-97617000D01*
X103733600Y-88341200D02*
X104089200Y-88341200D01*
X106629200Y-89545200D02*
X106629200Y-90200000D01*
X106629200Y-90200000D02*
X106629200Y-91682600D01*
X106629200Y-91682600D02*
X106444800Y-91867000D01*
X117000000Y-89000000D02*
X116000000Y-88000000D01*
X123037600Y-52476400D02*
X123037600Y-77262400D01*
X121818400Y-78481600D02*
X121818400Y-86918800D01*
X123037600Y-77262400D02*
X121818400Y-78481600D01*
X128676400Y-95504000D02*
X128676400Y-88950800D01*
X128676400Y-56896000D02*
X122936000Y-51155600D01*
X130454400Y-58674000D02*
X128676400Y-56896000D01*
X130454400Y-87172800D02*
X130454400Y-58674000D01*
X128676400Y-88950800D02*
X130454400Y-87172800D01*
X126593600Y-84785200D02*
X126593600Y-95961200D01*
X126339600Y-84531200D02*
X126593600Y-84785200D01*
X127203200Y-84632800D02*
X127304800Y-84734400D01*
X127304800Y-84734400D02*
X127304800Y-95453200D01*
X128016000Y-84785200D02*
X127965200Y-84836000D01*
X127965200Y-84836000D02*
X127965200Y-96012000D01*
X116250000Y-83000000D02*
X116250000Y-81386000D01*
X116250000Y-81386000D02*
X116230400Y-81366400D01*
X122478800Y-96367600D02*
X122478800Y-83058000D01*
X122478800Y-97790000D02*
X122478800Y-96367600D01*
X124764800Y-82600800D02*
X125476000Y-82600800D01*
X127406400Y-80670400D02*
X127406400Y-79400400D01*
X125476000Y-82600800D02*
X127406400Y-80670400D01*
X129900000Y-93200000D02*
X129946400Y-93153600D01*
X129946400Y-93153600D02*
X129946400Y-92998800D01*
D27*
G36*
X134290000Y-132290000D02*
X132570392Y-132290000D01*
X132596431Y-132251890D01*
X132647440Y-132000000D01*
X132647440Y-130000000D01*
X132603162Y-129764683D01*
X132464090Y-129548559D01*
X132251890Y-129403569D01*
X132000000Y-129352560D01*
X119000000Y-129352560D01*
X118764683Y-129396838D01*
X118548559Y-129535910D01*
X118403569Y-129748110D01*
X118352560Y-130000000D01*
X118352560Y-132000000D01*
X118396838Y-132235317D01*
X118432026Y-132290000D01*
X116567197Y-132290000D01*
X116635000Y-132126310D01*
X116635000Y-131285750D01*
X116476250Y-131127000D01*
X112627000Y-131127000D01*
X112627000Y-131147000D01*
X112373000Y-131147000D01*
X112373000Y-131127000D01*
X106627000Y-131127000D01*
X106627000Y-131147000D01*
X106373000Y-131147000D01*
X106373000Y-131127000D01*
X102523750Y-131127000D01*
X102365000Y-131285750D01*
X102365000Y-132126310D01*
X102432803Y-132290000D01*
X100710000Y-132290000D01*
X100710000Y-129873690D01*
X102365000Y-129873690D01*
X102365000Y-130714250D01*
X102523750Y-130873000D01*
X106373000Y-130873000D01*
X106373000Y-129523750D01*
X106627000Y-129523750D01*
X106627000Y-130873000D01*
X112373000Y-130873000D01*
X112373000Y-129523750D01*
X112627000Y-129523750D01*
X112627000Y-130873000D01*
X116476250Y-130873000D01*
X116635000Y-130714250D01*
X116635000Y-129873690D01*
X116538327Y-129640301D01*
X116359698Y-129461673D01*
X116126309Y-129365000D01*
X112785750Y-129365000D01*
X112627000Y-129523750D01*
X112373000Y-129523750D01*
X112214250Y-129365000D01*
X106785750Y-129365000D01*
X106627000Y-129523750D01*
X106373000Y-129523750D01*
X106214250Y-129365000D01*
X102873691Y-129365000D01*
X102640302Y-129461673D01*
X102461673Y-129640301D01*
X102365000Y-129873690D01*
X100710000Y-129873690D01*
X100710000Y-109421873D01*
X105249927Y-109421873D01*
X105489171Y-110000887D01*
X105931783Y-110444272D01*
X106510379Y-110684526D01*
X106832829Y-110684808D01*
X106760728Y-110756783D01*
X106520474Y-111335379D01*
X106519927Y-111961873D01*
X106759171Y-112540887D01*
X107201783Y-112984272D01*
X107780379Y-113224526D01*
X108406873Y-113225073D01*
X108985887Y-112985829D01*
X109213144Y-112758968D01*
X109705637Y-112758968D01*
X109796923Y-113019580D01*
X110384833Y-113236045D01*
X111010828Y-113211049D01*
X111473077Y-113019580D01*
X111564363Y-112758968D01*
X110635000Y-111829605D01*
X109705637Y-112758968D01*
X109213144Y-112758968D01*
X109427601Y-112544885D01*
X109526032Y-112579363D01*
X110455395Y-111650000D01*
X110441253Y-111635858D01*
X110620858Y-111456253D01*
X110635000Y-111470395D01*
X110649143Y-111456253D01*
X110828748Y-111635858D01*
X110814605Y-111650000D01*
X111743968Y-112579363D01*
X111842964Y-112544687D01*
X112281783Y-112984272D01*
X112860379Y-113224526D01*
X113486873Y-113225073D01*
X114065887Y-112985829D01*
X114509272Y-112543217D01*
X114749526Y-111964621D01*
X114750073Y-111338127D01*
X114510829Y-110759113D01*
X114068217Y-110315728D01*
X113489621Y-110075474D01*
X113049698Y-110075090D01*
X113013970Y-110039362D01*
X113274580Y-109948077D01*
X113468325Y-109421873D01*
X120249927Y-109421873D01*
X120489171Y-110000887D01*
X120931783Y-110444272D01*
X121510379Y-110684526D01*
X121832829Y-110684808D01*
X121760728Y-110756783D01*
X121520474Y-111335379D01*
X121519927Y-111961873D01*
X121759171Y-112540887D01*
X122201783Y-112984272D01*
X122780379Y-113224526D01*
X123406873Y-113225073D01*
X123985887Y-112985829D01*
X124213144Y-112758968D01*
X124705637Y-112758968D01*
X124796923Y-113019580D01*
X125384833Y-113236045D01*
X126010828Y-113211049D01*
X126473077Y-113019580D01*
X126564363Y-112758968D01*
X125635000Y-111829605D01*
X124705637Y-112758968D01*
X124213144Y-112758968D01*
X124427601Y-112544885D01*
X124526032Y-112579363D01*
X125455395Y-111650000D01*
X125441253Y-111635858D01*
X125620858Y-111456253D01*
X125635000Y-111470395D01*
X125649143Y-111456253D01*
X125828748Y-111635858D01*
X125814605Y-111650000D01*
X126743968Y-112579363D01*
X126842964Y-112544687D01*
X127281783Y-112984272D01*
X127860379Y-113224526D01*
X128486873Y-113225073D01*
X129065887Y-112985829D01*
X129509272Y-112543217D01*
X129749526Y-111964621D01*
X129750073Y-111338127D01*
X129510829Y-110759113D01*
X129068217Y-110315728D01*
X128489621Y-110075474D01*
X128167171Y-110075192D01*
X128239272Y-110003217D01*
X128479526Y-109424621D01*
X128480073Y-108798127D01*
X128240829Y-108219113D01*
X127798217Y-107775728D01*
X127219621Y-107535474D01*
X126593127Y-107534927D01*
X126014113Y-107774171D01*
X125634727Y-108152896D01*
X125258217Y-107775728D01*
X124679621Y-107535474D01*
X124053127Y-107534927D01*
X123474113Y-107774171D01*
X123094727Y-108152896D01*
X122718217Y-107775728D01*
X122139621Y-107535474D01*
X121513127Y-107534927D01*
X120934113Y-107774171D01*
X120490728Y-108216783D01*
X120250474Y-108795379D01*
X120249927Y-109421873D01*
X113468325Y-109421873D01*
X113491045Y-109360167D01*
X113466049Y-108734172D01*
X113274580Y-108271923D01*
X113013968Y-108180637D01*
X112084605Y-109110000D01*
X112098748Y-109124143D01*
X111919143Y-109303748D01*
X111905000Y-109289605D01*
X111890858Y-109303748D01*
X111711253Y-109124143D01*
X111725395Y-109110000D01*
X110796032Y-108180637D01*
X110697036Y-108215313D01*
X110483129Y-108001032D01*
X110975637Y-108001032D01*
X111905000Y-108930395D01*
X112834363Y-108001032D01*
X112743077Y-107740420D01*
X112155167Y-107523955D01*
X111529172Y-107548951D01*
X111066923Y-107740420D01*
X110975637Y-108001032D01*
X110483129Y-108001032D01*
X110258217Y-107775728D01*
X109679621Y-107535474D01*
X109053127Y-107534927D01*
X108474113Y-107774171D01*
X108094727Y-108152896D01*
X107718217Y-107775728D01*
X107139621Y-107535474D01*
X106513127Y-107534927D01*
X105934113Y-107774171D01*
X105490728Y-108216783D01*
X105250474Y-108795379D01*
X105249927Y-109421873D01*
X100710000Y-109421873D01*
X100710000Y-100496000D01*
X101016960Y-100496000D01*
X101016960Y-102196000D01*
X101061238Y-102431317D01*
X101200310Y-102647441D01*
X101412510Y-102792431D01*
X101664400Y-102843440D01*
X103364400Y-102843440D01*
X103599717Y-102799162D01*
X103815841Y-102660090D01*
X103960831Y-102447890D01*
X104011840Y-102196000D01*
X104011840Y-102106000D01*
X106923998Y-102106000D01*
X108174599Y-103356601D01*
X108421160Y-103521348D01*
X108466668Y-103530400D01*
X108712000Y-103579200D01*
X115041357Y-103579200D01*
X115041238Y-103715567D01*
X115183283Y-104059343D01*
X115446073Y-104322592D01*
X115789601Y-104465238D01*
X116161567Y-104465562D01*
X116505343Y-104323517D01*
X116538518Y-104290400D01*
X127504337Y-104290400D01*
X127536473Y-104322592D01*
X127880001Y-104465238D01*
X128251967Y-104465562D01*
X128595743Y-104323517D01*
X128858992Y-104060727D01*
X129001638Y-103717199D01*
X129001962Y-103345233D01*
X128859917Y-103001457D01*
X128729355Y-102870667D01*
X128911961Y-102597378D01*
X129025000Y-102029093D01*
X129025000Y-101970907D01*
X128911961Y-101402622D01*
X128590054Y-100920853D01*
X128108285Y-100598946D01*
X127540000Y-100485907D01*
X126971715Y-100598946D01*
X126489946Y-100920853D01*
X126462150Y-100962452D01*
X126453162Y-100914683D01*
X126314090Y-100698559D01*
X126101890Y-100553569D01*
X125850000Y-100502560D01*
X124150000Y-100502560D01*
X123914683Y-100546838D01*
X123698559Y-100685910D01*
X123553569Y-100898110D01*
X123502560Y-101150000D01*
X123502560Y-102770400D01*
X120706802Y-102770400D01*
X124016201Y-99461001D01*
X124180948Y-99214440D01*
X124238800Y-98923600D01*
X124238800Y-97478279D01*
X124430241Y-97355090D01*
X124469419Y-97297750D01*
X128737200Y-97297750D01*
X128737200Y-97638309D01*
X128833873Y-97871698D01*
X129012501Y-98050327D01*
X129245890Y-98147000D01*
X129711450Y-98147000D01*
X129870200Y-97988250D01*
X129870200Y-97139000D01*
X130124200Y-97139000D01*
X130124200Y-97988250D01*
X130282950Y-98147000D01*
X130748510Y-98147000D01*
X130981899Y-98050327D01*
X131160527Y-97871698D01*
X131257200Y-97638309D01*
X131257200Y-97297750D01*
X131098450Y-97139000D01*
X130124200Y-97139000D01*
X129870200Y-97139000D01*
X128895950Y-97139000D01*
X128737200Y-97297750D01*
X124469419Y-97297750D01*
X124575231Y-97142890D01*
X124626240Y-96891000D01*
X124626240Y-95641000D01*
X124581962Y-95405683D01*
X124442890Y-95189559D01*
X124230690Y-95044569D01*
X123978800Y-94993560D01*
X123238800Y-94993560D01*
X123238800Y-83620463D01*
X123270992Y-83588327D01*
X123413638Y-83244799D01*
X123413962Y-82872833D01*
X123271917Y-82529057D01*
X123009127Y-82265808D01*
X122665599Y-82123162D01*
X122578400Y-82123086D01*
X122578400Y-81648014D01*
X122688710Y-81819441D01*
X122900910Y-81964431D01*
X123152800Y-82015440D01*
X124027737Y-82015440D01*
X123972608Y-82070473D01*
X123829962Y-82414001D01*
X123829638Y-82785967D01*
X123971683Y-83129743D01*
X124234473Y-83392992D01*
X124578001Y-83535638D01*
X124949967Y-83535962D01*
X125293743Y-83393917D01*
X125326918Y-83360800D01*
X125476000Y-83360800D01*
X125766839Y-83302948D01*
X126013401Y-83138201D01*
X127943801Y-81207801D01*
X128108548Y-80961239D01*
X128121159Y-80897840D01*
X128256400Y-80897840D01*
X128491717Y-80853562D01*
X128707841Y-80714490D01*
X128852831Y-80502290D01*
X128903840Y-80250400D01*
X128903840Y-78550400D01*
X128859562Y-78315083D01*
X128720490Y-78098959D01*
X128508290Y-77953969D01*
X128256400Y-77902960D01*
X126556400Y-77902960D01*
X126321083Y-77947238D01*
X126104959Y-78086310D01*
X125959969Y-78298510D01*
X125908960Y-78550400D01*
X125908960Y-80250400D01*
X125953238Y-80485717D01*
X126092310Y-80701841D01*
X126215788Y-80786210D01*
X125466275Y-81535723D01*
X125500240Y-81368000D01*
X125500240Y-79668000D01*
X125455962Y-79432683D01*
X125316890Y-79216559D01*
X125104690Y-79071569D01*
X124852800Y-79020560D01*
X124762800Y-79020560D01*
X124762800Y-56906002D01*
X125158480Y-56510322D01*
X125203967Y-56510362D01*
X125547743Y-56368317D01*
X125810992Y-56105527D01*
X125953638Y-55761999D01*
X125953962Y-55390033D01*
X125854209Y-55148611D01*
X129694400Y-58988802D01*
X129694400Y-86857998D01*
X128725200Y-87827198D01*
X128725200Y-85398374D01*
X128808192Y-85315527D01*
X128950838Y-84971999D01*
X128951162Y-84600033D01*
X128809117Y-84256257D01*
X128546327Y-83993008D01*
X128202799Y-83850362D01*
X127830833Y-83850038D01*
X127768607Y-83875749D01*
X127733527Y-83840608D01*
X127389999Y-83697962D01*
X127018033Y-83697638D01*
X126883939Y-83753044D01*
X126869927Y-83739008D01*
X126526399Y-83596362D01*
X126154433Y-83596038D01*
X125810657Y-83738083D01*
X125547408Y-84000873D01*
X125404762Y-84344401D01*
X125404438Y-84716367D01*
X125546483Y-85060143D01*
X125809273Y-85323392D01*
X125833600Y-85333494D01*
X125833600Y-95398737D01*
X125801408Y-95430873D01*
X125658762Y-95774401D01*
X125658438Y-96146367D01*
X125800483Y-96490143D01*
X126063273Y-96753392D01*
X126406801Y-96896038D01*
X126778767Y-96896362D01*
X127122543Y-96754317D01*
X127254043Y-96623046D01*
X127434873Y-96804192D01*
X127778401Y-96946838D01*
X128150367Y-96947162D01*
X128494143Y-96805117D01*
X128737200Y-96562484D01*
X128737200Y-96726250D01*
X128895950Y-96885000D01*
X129870200Y-96885000D01*
X129870200Y-96865000D01*
X130124200Y-96865000D01*
X130124200Y-96885000D01*
X131098450Y-96885000D01*
X131257200Y-96726250D01*
X131257200Y-96385691D01*
X131160527Y-96152302D01*
X131019290Y-96011064D01*
X131073641Y-95976090D01*
X131218631Y-95763890D01*
X131269640Y-95512000D01*
X131269640Y-94512000D01*
X131225362Y-94276683D01*
X131086290Y-94060559D01*
X130981902Y-93989234D01*
X131022841Y-93962890D01*
X131167831Y-93750690D01*
X131218840Y-93498800D01*
X131218840Y-92498800D01*
X131174562Y-92263483D01*
X131035490Y-92047359D01*
X130967394Y-92000831D01*
X131109727Y-91858498D01*
X131206400Y-91625109D01*
X131206400Y-91284550D01*
X131047650Y-91125800D01*
X130073400Y-91125800D01*
X130073400Y-91145800D01*
X129819400Y-91145800D01*
X129819400Y-91125800D01*
X129799400Y-91125800D01*
X129799400Y-90871800D01*
X129819400Y-90871800D01*
X129819400Y-90022550D01*
X130073400Y-90022550D01*
X130073400Y-90871800D01*
X131047650Y-90871800D01*
X131206400Y-90713050D01*
X131206400Y-90372491D01*
X131109727Y-90139102D01*
X130931099Y-89960473D01*
X130697710Y-89863800D01*
X130232150Y-89863800D01*
X130073400Y-90022550D01*
X129819400Y-90022550D01*
X129660650Y-89863800D01*
X129436400Y-89863800D01*
X129436400Y-89265602D01*
X130991801Y-87710201D01*
X131156548Y-87463639D01*
X131214400Y-87172800D01*
X131214400Y-86841489D01*
X131306891Y-86879800D01*
X131997450Y-86879800D01*
X132156200Y-86721050D01*
X132156200Y-85521800D01*
X132410200Y-85521800D01*
X132410200Y-86721050D01*
X132568950Y-86879800D01*
X133259509Y-86879800D01*
X133492898Y-86783127D01*
X133671527Y-86604499D01*
X133768200Y-86371110D01*
X133768200Y-85680550D01*
X133609450Y-85521800D01*
X132410200Y-85521800D01*
X132156200Y-85521800D01*
X132136200Y-85521800D01*
X132136200Y-85267800D01*
X132156200Y-85267800D01*
X132156200Y-84068550D01*
X132410200Y-84068550D01*
X132410200Y-85267800D01*
X133609450Y-85267800D01*
X133768200Y-85109050D01*
X133768200Y-84418490D01*
X133671527Y-84185101D01*
X133492898Y-84006473D01*
X133259509Y-83909800D01*
X132568950Y-83909800D01*
X132410200Y-84068550D01*
X132156200Y-84068550D01*
X131997450Y-83909800D01*
X131306891Y-83909800D01*
X131214400Y-83948111D01*
X131214400Y-58674000D01*
X131156548Y-58383161D01*
X130991801Y-58136599D01*
X123871122Y-51015920D01*
X123871162Y-50970433D01*
X123729117Y-50626657D01*
X123466327Y-50363408D01*
X123122799Y-50220762D01*
X122750833Y-50220438D01*
X122407057Y-50362483D01*
X122143808Y-50625273D01*
X122001162Y-50968801D01*
X122000838Y-51340767D01*
X122142883Y-51684543D01*
X122324821Y-51866799D01*
X122245408Y-51946073D01*
X122102762Y-52289601D01*
X122102438Y-52661567D01*
X122244483Y-53005343D01*
X122277600Y-53038518D01*
X122277600Y-56364893D01*
X122214833Y-56364838D01*
X121871057Y-56506883D01*
X121607808Y-56769673D01*
X121465162Y-57113201D01*
X121464838Y-57485167D01*
X121606883Y-57828943D01*
X121640000Y-57862118D01*
X121640000Y-59164947D01*
X121514833Y-59164838D01*
X121171057Y-59306883D01*
X120907808Y-59569673D01*
X120765162Y-59913201D01*
X120764838Y-60285167D01*
X120906883Y-60628943D01*
X120940000Y-60662118D01*
X120940000Y-76485198D01*
X119962599Y-77462599D01*
X119797852Y-77709161D01*
X119740000Y-78000000D01*
X119740000Y-81778945D01*
X119660643Y-81699449D01*
X119096670Y-81465267D01*
X118486009Y-81464735D01*
X117921629Y-81697932D01*
X117753387Y-81865880D01*
X117753162Y-81864683D01*
X117614090Y-81648559D01*
X117527840Y-81589627D01*
X117527840Y-81016400D01*
X117483562Y-80781083D01*
X117344490Y-80564959D01*
X117132290Y-80419969D01*
X117098910Y-80413209D01*
X117240099Y-80354727D01*
X117418727Y-80176098D01*
X117515400Y-79942709D01*
X117515400Y-79752150D01*
X117356650Y-79593400D01*
X116357400Y-79593400D01*
X116357400Y-79613400D01*
X116103400Y-79613400D01*
X116103400Y-79593400D01*
X115104150Y-79593400D01*
X114945400Y-79752150D01*
X114945400Y-79942709D01*
X115042073Y-80176098D01*
X115220701Y-80354727D01*
X115356687Y-80411054D01*
X115345083Y-80413238D01*
X115128959Y-80552310D01*
X114983969Y-80764510D01*
X114932960Y-81016400D01*
X114932960Y-81613774D01*
X114898559Y-81635910D01*
X114753569Y-81848110D01*
X114702560Y-82100000D01*
X114702560Y-83900000D01*
X114746838Y-84135317D01*
X114885910Y-84351441D01*
X115098110Y-84496431D01*
X115350000Y-84547440D01*
X117150000Y-84547440D01*
X117385317Y-84503162D01*
X117601441Y-84364090D01*
X117746431Y-84151890D01*
X117750567Y-84131466D01*
X117919357Y-84300551D01*
X118483330Y-84534733D01*
X119093991Y-84535265D01*
X119658371Y-84302068D01*
X119740000Y-84220582D01*
X119740000Y-86585198D01*
X117810959Y-88514239D01*
X117793117Y-88471057D01*
X117530327Y-88207808D01*
X117186799Y-88065162D01*
X117139923Y-88065121D01*
X116935122Y-87860320D01*
X116935162Y-87814833D01*
X116793117Y-87471057D01*
X116530327Y-87207808D01*
X116186799Y-87065162D01*
X115814833Y-87064838D01*
X115471057Y-87206883D01*
X115207808Y-87469673D01*
X115065162Y-87813201D01*
X115064838Y-88185167D01*
X115206883Y-88528943D01*
X115469673Y-88792192D01*
X115813201Y-88934838D01*
X115860077Y-88934879D01*
X116064878Y-89139680D01*
X116064863Y-89156000D01*
X114481463Y-89156000D01*
X114449327Y-89123808D01*
X114105799Y-88981162D01*
X113733833Y-88980838D01*
X113390057Y-89122883D01*
X113126808Y-89385673D01*
X112984162Y-89729201D01*
X112984065Y-89840000D01*
X111714802Y-89840000D01*
X111537401Y-89662599D01*
X111290839Y-89497852D01*
X111000000Y-89440000D01*
X110869840Y-89440000D01*
X110869840Y-87999200D01*
X110825562Y-87763883D01*
X110789558Y-87707932D01*
X110818831Y-87665090D01*
X110869840Y-87413200D01*
X110869840Y-87323200D01*
X111400801Y-87323200D01*
X111469673Y-87392192D01*
X111813201Y-87534838D01*
X112185167Y-87535162D01*
X112528943Y-87393117D01*
X112792192Y-87130327D01*
X112934838Y-86786799D01*
X112935162Y-86414833D01*
X112793117Y-86071057D01*
X112530327Y-85807808D01*
X112186799Y-85665162D01*
X111814833Y-85664838D01*
X111479971Y-85803200D01*
X110869840Y-85803200D01*
X110869840Y-85713200D01*
X110825562Y-85477883D01*
X110686490Y-85261759D01*
X110474290Y-85116769D01*
X110222400Y-85065760D01*
X108522400Y-85065760D01*
X108287083Y-85110038D01*
X108070959Y-85249110D01*
X107925969Y-85461310D01*
X107874960Y-85713200D01*
X107874960Y-87048380D01*
X107743290Y-86843759D01*
X107531090Y-86698769D01*
X107505866Y-86693661D01*
X107422317Y-86491457D01*
X107159527Y-86228208D01*
X106815999Y-86085562D01*
X106444033Y-86085238D01*
X106100257Y-86227283D01*
X105837008Y-86490073D01*
X105753929Y-86690148D01*
X105743883Y-86692038D01*
X105527759Y-86831110D01*
X105382769Y-87043310D01*
X105331760Y-87295200D01*
X105331760Y-87619105D01*
X105231040Y-87599070D01*
X105231040Y-87491200D01*
X105186762Y-87255883D01*
X105047690Y-87039759D01*
X104835490Y-86894769D01*
X104583600Y-86843760D01*
X102883600Y-86843760D01*
X102648283Y-86888038D01*
X102432159Y-87027110D01*
X102287169Y-87239310D01*
X102236160Y-87491200D01*
X102236160Y-89191200D01*
X102280438Y-89426517D01*
X102419510Y-89642641D01*
X102631710Y-89787631D01*
X102883600Y-89838640D01*
X104583600Y-89838640D01*
X104818917Y-89794362D01*
X104840000Y-89780795D01*
X104840000Y-89900000D01*
X104897852Y-90190839D01*
X105062599Y-90437401D01*
X105297360Y-90672162D01*
X105297360Y-93242000D01*
X105341638Y-93477317D01*
X105480710Y-93693441D01*
X105684800Y-93832890D01*
X105684800Y-95654721D01*
X105493359Y-95777910D01*
X105348369Y-95990110D01*
X105297360Y-96242000D01*
X105297360Y-98992000D01*
X105341638Y-99227317D01*
X105480710Y-99443441D01*
X105692910Y-99588431D01*
X105944800Y-99639440D01*
X106944800Y-99639440D01*
X107180117Y-99595162D01*
X107396241Y-99456090D01*
X107541231Y-99243890D01*
X107592240Y-98992000D01*
X107592240Y-96551750D01*
X120343800Y-96551750D01*
X120343800Y-97017310D01*
X120440473Y-97250699D01*
X120619102Y-97429327D01*
X120852491Y-97526000D01*
X121193050Y-97526000D01*
X121351800Y-97367250D01*
X121351800Y-96393000D01*
X120502550Y-96393000D01*
X120343800Y-96551750D01*
X107592240Y-96551750D01*
X107592240Y-96242000D01*
X107547962Y-96006683D01*
X107408890Y-95790559D01*
X107204800Y-95651110D01*
X107204800Y-95514690D01*
X120343800Y-95514690D01*
X120343800Y-95980250D01*
X120502550Y-96139000D01*
X121351800Y-96139000D01*
X121351800Y-95164750D01*
X121193050Y-95006000D01*
X120852491Y-95006000D01*
X120619102Y-95102673D01*
X120440473Y-95281301D01*
X120343800Y-95514690D01*
X107204800Y-95514690D01*
X107204800Y-93829279D01*
X107396241Y-93706090D01*
X107541231Y-93493890D01*
X107592240Y-93242000D01*
X107592240Y-90960000D01*
X110685198Y-90960000D01*
X110862599Y-91137401D01*
X111109160Y-91302148D01*
X111144417Y-91309161D01*
X111400000Y-91360000D01*
X114485198Y-91360000D01*
X114864878Y-91739680D01*
X114864838Y-91785167D01*
X115006883Y-92128943D01*
X115269673Y-92392192D01*
X115613201Y-92534838D01*
X115985167Y-92535162D01*
X116328943Y-92393117D01*
X116399887Y-92322297D01*
X116462073Y-92384592D01*
X116805601Y-92527238D01*
X117177567Y-92527562D01*
X117521343Y-92385517D01*
X117784592Y-92122727D01*
X117927238Y-91779199D01*
X117927279Y-91732323D01*
X119033111Y-90626491D01*
X119948800Y-90626491D01*
X119948800Y-90967050D01*
X120107550Y-91125800D01*
X121081800Y-91125800D01*
X121081800Y-90276550D01*
X120923050Y-90117800D01*
X120457490Y-90117800D01*
X120224101Y-90214473D01*
X120045473Y-90393102D01*
X119948800Y-90626491D01*
X119033111Y-90626491D01*
X121695401Y-87964201D01*
X121718800Y-87929182D01*
X121718800Y-90117800D01*
X121494550Y-90117800D01*
X121335800Y-90276550D01*
X121335800Y-91125800D01*
X121355800Y-91125800D01*
X121355800Y-91379800D01*
X121335800Y-91379800D01*
X121335800Y-91399800D01*
X121081800Y-91399800D01*
X121081800Y-91379800D01*
X120107550Y-91379800D01*
X119948800Y-91538550D01*
X119948800Y-91879109D01*
X120045473Y-92112498D01*
X120186710Y-92253736D01*
X120132359Y-92288710D01*
X119987369Y-92500910D01*
X119936360Y-92752800D01*
X119936360Y-93752800D01*
X119980638Y-93988117D01*
X120119710Y-94204241D01*
X120331910Y-94349231D01*
X120583800Y-94400240D01*
X121718800Y-94400240D01*
X121718800Y-95051750D01*
X121605800Y-95164750D01*
X121605800Y-96139000D01*
X121625800Y-96139000D01*
X121625800Y-96393000D01*
X121605800Y-96393000D01*
X121605800Y-97367250D01*
X121631335Y-97392785D01*
X121543962Y-97603201D01*
X121543638Y-97975167D01*
X121685683Y-98318943D01*
X121948473Y-98582192D01*
X122292001Y-98724838D01*
X122602490Y-98725108D01*
X119443520Y-101884078D01*
X119398033Y-101884038D01*
X119054257Y-102026083D01*
X119021082Y-102059200D01*
X109026802Y-102059200D01*
X107776201Y-100808599D01*
X107529639Y-100643852D01*
X107238800Y-100586000D01*
X104011840Y-100586000D01*
X104011840Y-100496000D01*
X103967562Y-100260683D01*
X103828490Y-100044559D01*
X103616290Y-99899569D01*
X103364400Y-99848560D01*
X101664400Y-99848560D01*
X101429083Y-99892838D01*
X101212959Y-100031910D01*
X101067969Y-100244110D01*
X101016960Y-100496000D01*
X100710000Y-100496000D01*
X100710000Y-99683200D01*
X113462960Y-99683200D01*
X113462960Y-101383200D01*
X113507238Y-101618517D01*
X113646310Y-101834641D01*
X113858510Y-101979631D01*
X114110400Y-102030640D01*
X115810400Y-102030640D01*
X116045717Y-101986362D01*
X116261841Y-101847290D01*
X116406831Y-101635090D01*
X116420486Y-101567659D01*
X116450346Y-101612347D01*
X116932115Y-101934254D01*
X117500400Y-102047293D01*
X118068685Y-101934254D01*
X118550454Y-101612347D01*
X118872361Y-101130578D01*
X118985400Y-100562293D01*
X118985400Y-100504107D01*
X118872361Y-99935822D01*
X118550454Y-99454053D01*
X118068685Y-99132146D01*
X117500400Y-99019107D01*
X116932115Y-99132146D01*
X116450346Y-99454053D01*
X116422550Y-99495652D01*
X116413562Y-99447883D01*
X116274490Y-99231759D01*
X116062290Y-99086769D01*
X115810400Y-99035760D01*
X114110400Y-99035760D01*
X113875083Y-99080038D01*
X113658959Y-99219110D01*
X113513969Y-99431310D01*
X113462960Y-99683200D01*
X100710000Y-99683200D01*
X100710000Y-97902750D01*
X101309800Y-97902750D01*
X101309800Y-99118309D01*
X101406473Y-99351698D01*
X101585101Y-99530327D01*
X101818490Y-99627000D01*
X102159050Y-99627000D01*
X102317800Y-99468250D01*
X102317800Y-97744000D01*
X102571800Y-97744000D01*
X102571800Y-99468250D01*
X102730550Y-99627000D01*
X103071110Y-99627000D01*
X103304499Y-99530327D01*
X103483127Y-99351698D01*
X103579800Y-99118309D01*
X103579800Y-97902750D01*
X103421050Y-97744000D01*
X102571800Y-97744000D01*
X102317800Y-97744000D01*
X101468550Y-97744000D01*
X101309800Y-97902750D01*
X100710000Y-97902750D01*
X100710000Y-96115691D01*
X101309800Y-96115691D01*
X101309800Y-97331250D01*
X101468550Y-97490000D01*
X102317800Y-97490000D01*
X102317800Y-95765750D01*
X102571800Y-95765750D01*
X102571800Y-97490000D01*
X103421050Y-97490000D01*
X103579800Y-97331250D01*
X103579800Y-96115691D01*
X103483127Y-95882302D01*
X103304499Y-95703673D01*
X103071110Y-95607000D01*
X102730550Y-95607000D01*
X102571800Y-95765750D01*
X102317800Y-95765750D01*
X102159050Y-95607000D01*
X101818490Y-95607000D01*
X101585101Y-95703673D01*
X101406473Y-95882302D01*
X101309800Y-96115691D01*
X100710000Y-96115691D01*
X100710000Y-92152750D01*
X101309800Y-92152750D01*
X101309800Y-93368309D01*
X101406473Y-93601698D01*
X101585101Y-93780327D01*
X101818490Y-93877000D01*
X102159050Y-93877000D01*
X102317800Y-93718250D01*
X102317800Y-91994000D01*
X102571800Y-91994000D01*
X102571800Y-93718250D01*
X102730550Y-93877000D01*
X103071110Y-93877000D01*
X103304499Y-93780327D01*
X103483127Y-93601698D01*
X103579800Y-93368309D01*
X103579800Y-92152750D01*
X103421050Y-91994000D01*
X102571800Y-91994000D01*
X102317800Y-91994000D01*
X101468550Y-91994000D01*
X101309800Y-92152750D01*
X100710000Y-92152750D01*
X100710000Y-90365691D01*
X101309800Y-90365691D01*
X101309800Y-91581250D01*
X101468550Y-91740000D01*
X102317800Y-91740000D01*
X102317800Y-90015750D01*
X102571800Y-90015750D01*
X102571800Y-91740000D01*
X103421050Y-91740000D01*
X103579800Y-91581250D01*
X103579800Y-90365691D01*
X103483127Y-90132302D01*
X103304499Y-89953673D01*
X103071110Y-89857000D01*
X102730550Y-89857000D01*
X102571800Y-90015750D01*
X102317800Y-90015750D01*
X102159050Y-89857000D01*
X101818490Y-89857000D01*
X101585101Y-89953673D01*
X101406473Y-90132302D01*
X101309800Y-90365691D01*
X100710000Y-90365691D01*
X100710000Y-78990091D01*
X114945400Y-78990091D01*
X114945400Y-79180650D01*
X115104150Y-79339400D01*
X116103400Y-79339400D01*
X116103400Y-78640150D01*
X116357400Y-78640150D01*
X116357400Y-79339400D01*
X117356650Y-79339400D01*
X117515400Y-79180650D01*
X117515400Y-78990091D01*
X117418727Y-78756702D01*
X117240099Y-78578073D01*
X117006710Y-78481400D01*
X116516150Y-78481400D01*
X116357400Y-78640150D01*
X116103400Y-78640150D01*
X115944650Y-78481400D01*
X115454090Y-78481400D01*
X115220701Y-78578073D01*
X115042073Y-78756702D01*
X114945400Y-78990091D01*
X100710000Y-78990091D01*
X100710000Y-76127000D01*
X113000000Y-76127000D01*
X113046159Y-76118315D01*
X113088553Y-76091035D01*
X113116994Y-76049410D01*
X113127000Y-76000000D01*
X113127000Y-46710000D01*
X134290000Y-46710000D01*
X134290000Y-132290000D01*
X134290000Y-132290000D01*
G37*
X134290000Y-132290000D02*
X132570392Y-132290000D01*
X132596431Y-132251890D01*
X132647440Y-132000000D01*
X132647440Y-130000000D01*
X132603162Y-129764683D01*
X132464090Y-129548559D01*
X132251890Y-129403569D01*
X132000000Y-129352560D01*
X119000000Y-129352560D01*
X118764683Y-129396838D01*
X118548559Y-129535910D01*
X118403569Y-129748110D01*
X118352560Y-130000000D01*
X118352560Y-132000000D01*
X118396838Y-132235317D01*
X118432026Y-132290000D01*
X116567197Y-132290000D01*
X116635000Y-132126310D01*
X116635000Y-131285750D01*
X116476250Y-131127000D01*
X112627000Y-131127000D01*
X112627000Y-131147000D01*
X112373000Y-131147000D01*
X112373000Y-131127000D01*
X106627000Y-131127000D01*
X106627000Y-131147000D01*
X106373000Y-131147000D01*
X106373000Y-131127000D01*
X102523750Y-131127000D01*
X102365000Y-131285750D01*
X102365000Y-132126310D01*
X102432803Y-132290000D01*
X100710000Y-132290000D01*
X100710000Y-129873690D01*
X102365000Y-129873690D01*
X102365000Y-130714250D01*
X102523750Y-130873000D01*
X106373000Y-130873000D01*
X106373000Y-129523750D01*
X106627000Y-129523750D01*
X106627000Y-130873000D01*
X112373000Y-130873000D01*
X112373000Y-129523750D01*
X112627000Y-129523750D01*
X112627000Y-130873000D01*
X116476250Y-130873000D01*
X116635000Y-130714250D01*
X116635000Y-129873690D01*
X116538327Y-129640301D01*
X116359698Y-129461673D01*
X116126309Y-129365000D01*
X112785750Y-129365000D01*
X112627000Y-129523750D01*
X112373000Y-129523750D01*
X112214250Y-129365000D01*
X106785750Y-129365000D01*
X106627000Y-129523750D01*
X106373000Y-129523750D01*
X106214250Y-129365000D01*
X102873691Y-129365000D01*
X102640302Y-129461673D01*
X102461673Y-129640301D01*
X102365000Y-129873690D01*
X100710000Y-129873690D01*
X100710000Y-109421873D01*
X105249927Y-109421873D01*
X105489171Y-110000887D01*
X105931783Y-110444272D01*
X106510379Y-110684526D01*
X106832829Y-110684808D01*
X106760728Y-110756783D01*
X106520474Y-111335379D01*
X106519927Y-111961873D01*
X106759171Y-112540887D01*
X107201783Y-112984272D01*
X107780379Y-113224526D01*
X108406873Y-113225073D01*
X108985887Y-112985829D01*
X109213144Y-112758968D01*
X109705637Y-112758968D01*
X109796923Y-113019580D01*
X110384833Y-113236045D01*
X111010828Y-113211049D01*
X111473077Y-113019580D01*
X111564363Y-112758968D01*
X110635000Y-111829605D01*
X109705637Y-112758968D01*
X109213144Y-112758968D01*
X109427601Y-112544885D01*
X109526032Y-112579363D01*
X110455395Y-111650000D01*
X110441253Y-111635858D01*
X110620858Y-111456253D01*
X110635000Y-111470395D01*
X110649143Y-111456253D01*
X110828748Y-111635858D01*
X110814605Y-111650000D01*
X111743968Y-112579363D01*
X111842964Y-112544687D01*
X112281783Y-112984272D01*
X112860379Y-113224526D01*
X113486873Y-113225073D01*
X114065887Y-112985829D01*
X114509272Y-112543217D01*
X114749526Y-111964621D01*
X114750073Y-111338127D01*
X114510829Y-110759113D01*
X114068217Y-110315728D01*
X113489621Y-110075474D01*
X113049698Y-110075090D01*
X113013970Y-110039362D01*
X113274580Y-109948077D01*
X113468325Y-109421873D01*
X120249927Y-109421873D01*
X120489171Y-110000887D01*
X120931783Y-110444272D01*
X121510379Y-110684526D01*
X121832829Y-110684808D01*
X121760728Y-110756783D01*
X121520474Y-111335379D01*
X121519927Y-111961873D01*
X121759171Y-112540887D01*
X122201783Y-112984272D01*
X122780379Y-113224526D01*
X123406873Y-113225073D01*
X123985887Y-112985829D01*
X124213144Y-112758968D01*
X124705637Y-112758968D01*
X124796923Y-113019580D01*
X125384833Y-113236045D01*
X126010828Y-113211049D01*
X126473077Y-113019580D01*
X126564363Y-112758968D01*
X125635000Y-111829605D01*
X124705637Y-112758968D01*
X124213144Y-112758968D01*
X124427601Y-112544885D01*
X124526032Y-112579363D01*
X125455395Y-111650000D01*
X125441253Y-111635858D01*
X125620858Y-111456253D01*
X125635000Y-111470395D01*
X125649143Y-111456253D01*
X125828748Y-111635858D01*
X125814605Y-111650000D01*
X126743968Y-112579363D01*
X126842964Y-112544687D01*
X127281783Y-112984272D01*
X127860379Y-113224526D01*
X128486873Y-113225073D01*
X129065887Y-112985829D01*
X129509272Y-112543217D01*
X129749526Y-111964621D01*
X129750073Y-111338127D01*
X129510829Y-110759113D01*
X129068217Y-110315728D01*
X128489621Y-110075474D01*
X128167171Y-110075192D01*
X128239272Y-110003217D01*
X128479526Y-109424621D01*
X128480073Y-108798127D01*
X128240829Y-108219113D01*
X127798217Y-107775728D01*
X127219621Y-107535474D01*
X126593127Y-107534927D01*
X126014113Y-107774171D01*
X125634727Y-108152896D01*
X125258217Y-107775728D01*
X124679621Y-107535474D01*
X124053127Y-107534927D01*
X123474113Y-107774171D01*
X123094727Y-108152896D01*
X122718217Y-107775728D01*
X122139621Y-107535474D01*
X121513127Y-107534927D01*
X120934113Y-107774171D01*
X120490728Y-108216783D01*
X120250474Y-108795379D01*
X120249927Y-109421873D01*
X113468325Y-109421873D01*
X113491045Y-109360167D01*
X113466049Y-108734172D01*
X113274580Y-108271923D01*
X113013968Y-108180637D01*
X112084605Y-109110000D01*
X112098748Y-109124143D01*
X111919143Y-109303748D01*
X111905000Y-109289605D01*
X111890858Y-109303748D01*
X111711253Y-109124143D01*
X111725395Y-109110000D01*
X110796032Y-108180637D01*
X110697036Y-108215313D01*
X110483129Y-108001032D01*
X110975637Y-108001032D01*
X111905000Y-108930395D01*
X112834363Y-108001032D01*
X112743077Y-107740420D01*
X112155167Y-107523955D01*
X111529172Y-107548951D01*
X111066923Y-107740420D01*
X110975637Y-108001032D01*
X110483129Y-108001032D01*
X110258217Y-107775728D01*
X109679621Y-107535474D01*
X109053127Y-107534927D01*
X108474113Y-107774171D01*
X108094727Y-108152896D01*
X107718217Y-107775728D01*
X107139621Y-107535474D01*
X106513127Y-107534927D01*
X105934113Y-107774171D01*
X105490728Y-108216783D01*
X105250474Y-108795379D01*
X105249927Y-109421873D01*
X100710000Y-109421873D01*
X100710000Y-100496000D01*
X101016960Y-100496000D01*
X101016960Y-102196000D01*
X101061238Y-102431317D01*
X101200310Y-102647441D01*
X101412510Y-102792431D01*
X101664400Y-102843440D01*
X103364400Y-102843440D01*
X103599717Y-102799162D01*
X103815841Y-102660090D01*
X103960831Y-102447890D01*
X104011840Y-102196000D01*
X104011840Y-102106000D01*
X106923998Y-102106000D01*
X108174599Y-103356601D01*
X108421160Y-103521348D01*
X108466668Y-103530400D01*
X108712000Y-103579200D01*
X115041357Y-103579200D01*
X115041238Y-103715567D01*
X115183283Y-104059343D01*
X115446073Y-104322592D01*
X115789601Y-104465238D01*
X116161567Y-104465562D01*
X116505343Y-104323517D01*
X116538518Y-104290400D01*
X127504337Y-104290400D01*
X127536473Y-104322592D01*
X127880001Y-104465238D01*
X128251967Y-104465562D01*
X128595743Y-104323517D01*
X128858992Y-104060727D01*
X129001638Y-103717199D01*
X129001962Y-103345233D01*
X128859917Y-103001457D01*
X128729355Y-102870667D01*
X128911961Y-102597378D01*
X129025000Y-102029093D01*
X129025000Y-101970907D01*
X128911961Y-101402622D01*
X128590054Y-100920853D01*
X128108285Y-100598946D01*
X127540000Y-100485907D01*
X126971715Y-100598946D01*
X126489946Y-100920853D01*
X126462150Y-100962452D01*
X126453162Y-100914683D01*
X126314090Y-100698559D01*
X126101890Y-100553569D01*
X125850000Y-100502560D01*
X124150000Y-100502560D01*
X123914683Y-100546838D01*
X123698559Y-100685910D01*
X123553569Y-100898110D01*
X123502560Y-101150000D01*
X123502560Y-102770400D01*
X120706802Y-102770400D01*
X124016201Y-99461001D01*
X124180948Y-99214440D01*
X124238800Y-98923600D01*
X124238800Y-97478279D01*
X124430241Y-97355090D01*
X124469419Y-97297750D01*
X128737200Y-97297750D01*
X128737200Y-97638309D01*
X128833873Y-97871698D01*
X129012501Y-98050327D01*
X129245890Y-98147000D01*
X129711450Y-98147000D01*
X129870200Y-97988250D01*
X129870200Y-97139000D01*
X130124200Y-97139000D01*
X130124200Y-97988250D01*
X130282950Y-98147000D01*
X130748510Y-98147000D01*
X130981899Y-98050327D01*
X131160527Y-97871698D01*
X131257200Y-97638309D01*
X131257200Y-97297750D01*
X131098450Y-97139000D01*
X130124200Y-97139000D01*
X129870200Y-97139000D01*
X128895950Y-97139000D01*
X128737200Y-97297750D01*
X124469419Y-97297750D01*
X124575231Y-97142890D01*
X124626240Y-96891000D01*
X124626240Y-95641000D01*
X124581962Y-95405683D01*
X124442890Y-95189559D01*
X124230690Y-95044569D01*
X123978800Y-94993560D01*
X123238800Y-94993560D01*
X123238800Y-83620463D01*
X123270992Y-83588327D01*
X123413638Y-83244799D01*
X123413962Y-82872833D01*
X123271917Y-82529057D01*
X123009127Y-82265808D01*
X122665599Y-82123162D01*
X122578400Y-82123086D01*
X122578400Y-81648014D01*
X122688710Y-81819441D01*
X122900910Y-81964431D01*
X123152800Y-82015440D01*
X124027737Y-82015440D01*
X123972608Y-82070473D01*
X123829962Y-82414001D01*
X123829638Y-82785967D01*
X123971683Y-83129743D01*
X124234473Y-83392992D01*
X124578001Y-83535638D01*
X124949967Y-83535962D01*
X125293743Y-83393917D01*
X125326918Y-83360800D01*
X125476000Y-83360800D01*
X125766839Y-83302948D01*
X126013401Y-83138201D01*
X127943801Y-81207801D01*
X128108548Y-80961239D01*
X128121159Y-80897840D01*
X128256400Y-80897840D01*
X128491717Y-80853562D01*
X128707841Y-80714490D01*
X128852831Y-80502290D01*
X128903840Y-80250400D01*
X128903840Y-78550400D01*
X128859562Y-78315083D01*
X128720490Y-78098959D01*
X128508290Y-77953969D01*
X128256400Y-77902960D01*
X126556400Y-77902960D01*
X126321083Y-77947238D01*
X126104959Y-78086310D01*
X125959969Y-78298510D01*
X125908960Y-78550400D01*
X125908960Y-80250400D01*
X125953238Y-80485717D01*
X126092310Y-80701841D01*
X126215788Y-80786210D01*
X125466275Y-81535723D01*
X125500240Y-81368000D01*
X125500240Y-79668000D01*
X125455962Y-79432683D01*
X125316890Y-79216559D01*
X125104690Y-79071569D01*
X124852800Y-79020560D01*
X124762800Y-79020560D01*
X124762800Y-56906002D01*
X125158480Y-56510322D01*
X125203967Y-56510362D01*
X125547743Y-56368317D01*
X125810992Y-56105527D01*
X125953638Y-55761999D01*
X125953962Y-55390033D01*
X125854209Y-55148611D01*
X129694400Y-58988802D01*
X129694400Y-86857998D01*
X128725200Y-87827198D01*
X128725200Y-85398374D01*
X128808192Y-85315527D01*
X128950838Y-84971999D01*
X128951162Y-84600033D01*
X128809117Y-84256257D01*
X128546327Y-83993008D01*
X128202799Y-83850362D01*
X127830833Y-83850038D01*
X127768607Y-83875749D01*
X127733527Y-83840608D01*
X127389999Y-83697962D01*
X127018033Y-83697638D01*
X126883939Y-83753044D01*
X126869927Y-83739008D01*
X126526399Y-83596362D01*
X126154433Y-83596038D01*
X125810657Y-83738083D01*
X125547408Y-84000873D01*
X125404762Y-84344401D01*
X125404438Y-84716367D01*
X125546483Y-85060143D01*
X125809273Y-85323392D01*
X125833600Y-85333494D01*
X125833600Y-95398737D01*
X125801408Y-95430873D01*
X125658762Y-95774401D01*
X125658438Y-96146367D01*
X125800483Y-96490143D01*
X126063273Y-96753392D01*
X126406801Y-96896038D01*
X126778767Y-96896362D01*
X127122543Y-96754317D01*
X127254043Y-96623046D01*
X127434873Y-96804192D01*
X127778401Y-96946838D01*
X128150367Y-96947162D01*
X128494143Y-96805117D01*
X128737200Y-96562484D01*
X128737200Y-96726250D01*
X128895950Y-96885000D01*
X129870200Y-96885000D01*
X129870200Y-96865000D01*
X130124200Y-96865000D01*
X130124200Y-96885000D01*
X131098450Y-96885000D01*
X131257200Y-96726250D01*
X131257200Y-96385691D01*
X131160527Y-96152302D01*
X131019290Y-96011064D01*
X131073641Y-95976090D01*
X131218631Y-95763890D01*
X131269640Y-95512000D01*
X131269640Y-94512000D01*
X131225362Y-94276683D01*
X131086290Y-94060559D01*
X130981902Y-93989234D01*
X131022841Y-93962890D01*
X131167831Y-93750690D01*
X131218840Y-93498800D01*
X131218840Y-92498800D01*
X131174562Y-92263483D01*
X131035490Y-92047359D01*
X130967394Y-92000831D01*
X131109727Y-91858498D01*
X131206400Y-91625109D01*
X131206400Y-91284550D01*
X131047650Y-91125800D01*
X130073400Y-91125800D01*
X130073400Y-91145800D01*
X129819400Y-91145800D01*
X129819400Y-91125800D01*
X129799400Y-91125800D01*
X129799400Y-90871800D01*
X129819400Y-90871800D01*
X129819400Y-90022550D01*
X130073400Y-90022550D01*
X130073400Y-90871800D01*
X131047650Y-90871800D01*
X131206400Y-90713050D01*
X131206400Y-90372491D01*
X131109727Y-90139102D01*
X130931099Y-89960473D01*
X130697710Y-89863800D01*
X130232150Y-89863800D01*
X130073400Y-90022550D01*
X129819400Y-90022550D01*
X129660650Y-89863800D01*
X129436400Y-89863800D01*
X129436400Y-89265602D01*
X130991801Y-87710201D01*
X131156548Y-87463639D01*
X131214400Y-87172800D01*
X131214400Y-86841489D01*
X131306891Y-86879800D01*
X131997450Y-86879800D01*
X132156200Y-86721050D01*
X132156200Y-85521800D01*
X132410200Y-85521800D01*
X132410200Y-86721050D01*
X132568950Y-86879800D01*
X133259509Y-86879800D01*
X133492898Y-86783127D01*
X133671527Y-86604499D01*
X133768200Y-86371110D01*
X133768200Y-85680550D01*
X133609450Y-85521800D01*
X132410200Y-85521800D01*
X132156200Y-85521800D01*
X132136200Y-85521800D01*
X132136200Y-85267800D01*
X132156200Y-85267800D01*
X132156200Y-84068550D01*
X132410200Y-84068550D01*
X132410200Y-85267800D01*
X133609450Y-85267800D01*
X133768200Y-85109050D01*
X133768200Y-84418490D01*
X133671527Y-84185101D01*
X133492898Y-84006473D01*
X133259509Y-83909800D01*
X132568950Y-83909800D01*
X132410200Y-84068550D01*
X132156200Y-84068550D01*
X131997450Y-83909800D01*
X131306891Y-83909800D01*
X131214400Y-83948111D01*
X131214400Y-58674000D01*
X131156548Y-58383161D01*
X130991801Y-58136599D01*
X123871122Y-51015920D01*
X123871162Y-50970433D01*
X123729117Y-50626657D01*
X123466327Y-50363408D01*
X123122799Y-50220762D01*
X122750833Y-50220438D01*
X122407057Y-50362483D01*
X122143808Y-50625273D01*
X122001162Y-50968801D01*
X122000838Y-51340767D01*
X122142883Y-51684543D01*
X122324821Y-51866799D01*
X122245408Y-51946073D01*
X122102762Y-52289601D01*
X122102438Y-52661567D01*
X122244483Y-53005343D01*
X122277600Y-53038518D01*
X122277600Y-56364893D01*
X122214833Y-56364838D01*
X121871057Y-56506883D01*
X121607808Y-56769673D01*
X121465162Y-57113201D01*
X121464838Y-57485167D01*
X121606883Y-57828943D01*
X121640000Y-57862118D01*
X121640000Y-59164947D01*
X121514833Y-59164838D01*
X121171057Y-59306883D01*
X120907808Y-59569673D01*
X120765162Y-59913201D01*
X120764838Y-60285167D01*
X120906883Y-60628943D01*
X120940000Y-60662118D01*
X120940000Y-76485198D01*
X119962599Y-77462599D01*
X119797852Y-77709161D01*
X119740000Y-78000000D01*
X119740000Y-81778945D01*
X119660643Y-81699449D01*
X119096670Y-81465267D01*
X118486009Y-81464735D01*
X117921629Y-81697932D01*
X117753387Y-81865880D01*
X117753162Y-81864683D01*
X117614090Y-81648559D01*
X117527840Y-81589627D01*
X117527840Y-81016400D01*
X117483562Y-80781083D01*
X117344490Y-80564959D01*
X117132290Y-80419969D01*
X117098910Y-80413209D01*
X117240099Y-80354727D01*
X117418727Y-80176098D01*
X117515400Y-79942709D01*
X117515400Y-79752150D01*
X117356650Y-79593400D01*
X116357400Y-79593400D01*
X116357400Y-79613400D01*
X116103400Y-79613400D01*
X116103400Y-79593400D01*
X115104150Y-79593400D01*
X114945400Y-79752150D01*
X114945400Y-79942709D01*
X115042073Y-80176098D01*
X115220701Y-80354727D01*
X115356687Y-80411054D01*
X115345083Y-80413238D01*
X115128959Y-80552310D01*
X114983969Y-80764510D01*
X114932960Y-81016400D01*
X114932960Y-81613774D01*
X114898559Y-81635910D01*
X114753569Y-81848110D01*
X114702560Y-82100000D01*
X114702560Y-83900000D01*
X114746838Y-84135317D01*
X114885910Y-84351441D01*
X115098110Y-84496431D01*
X115350000Y-84547440D01*
X117150000Y-84547440D01*
X117385317Y-84503162D01*
X117601441Y-84364090D01*
X117746431Y-84151890D01*
X117750567Y-84131466D01*
X117919357Y-84300551D01*
X118483330Y-84534733D01*
X119093991Y-84535265D01*
X119658371Y-84302068D01*
X119740000Y-84220582D01*
X119740000Y-86585198D01*
X117810959Y-88514239D01*
X117793117Y-88471057D01*
X117530327Y-88207808D01*
X117186799Y-88065162D01*
X117139923Y-88065121D01*
X116935122Y-87860320D01*
X116935162Y-87814833D01*
X116793117Y-87471057D01*
X116530327Y-87207808D01*
X116186799Y-87065162D01*
X115814833Y-87064838D01*
X115471057Y-87206883D01*
X115207808Y-87469673D01*
X115065162Y-87813201D01*
X115064838Y-88185167D01*
X115206883Y-88528943D01*
X115469673Y-88792192D01*
X115813201Y-88934838D01*
X115860077Y-88934879D01*
X116064878Y-89139680D01*
X116064863Y-89156000D01*
X114481463Y-89156000D01*
X114449327Y-89123808D01*
X114105799Y-88981162D01*
X113733833Y-88980838D01*
X113390057Y-89122883D01*
X113126808Y-89385673D01*
X112984162Y-89729201D01*
X112984065Y-89840000D01*
X111714802Y-89840000D01*
X111537401Y-89662599D01*
X111290839Y-89497852D01*
X111000000Y-89440000D01*
X110869840Y-89440000D01*
X110869840Y-87999200D01*
X110825562Y-87763883D01*
X110789558Y-87707932D01*
X110818831Y-87665090D01*
X110869840Y-87413200D01*
X110869840Y-87323200D01*
X111400801Y-87323200D01*
X111469673Y-87392192D01*
X111813201Y-87534838D01*
X112185167Y-87535162D01*
X112528943Y-87393117D01*
X112792192Y-87130327D01*
X112934838Y-86786799D01*
X112935162Y-86414833D01*
X112793117Y-86071057D01*
X112530327Y-85807808D01*
X112186799Y-85665162D01*
X111814833Y-85664838D01*
X111479971Y-85803200D01*
X110869840Y-85803200D01*
X110869840Y-85713200D01*
X110825562Y-85477883D01*
X110686490Y-85261759D01*
X110474290Y-85116769D01*
X110222400Y-85065760D01*
X108522400Y-85065760D01*
X108287083Y-85110038D01*
X108070959Y-85249110D01*
X107925969Y-85461310D01*
X107874960Y-85713200D01*
X107874960Y-87048380D01*
X107743290Y-86843759D01*
X107531090Y-86698769D01*
X107505866Y-86693661D01*
X107422317Y-86491457D01*
X107159527Y-86228208D01*
X106815999Y-86085562D01*
X106444033Y-86085238D01*
X106100257Y-86227283D01*
X105837008Y-86490073D01*
X105753929Y-86690148D01*
X105743883Y-86692038D01*
X105527759Y-86831110D01*
X105382769Y-87043310D01*
X105331760Y-87295200D01*
X105331760Y-87619105D01*
X105231040Y-87599070D01*
X105231040Y-87491200D01*
X105186762Y-87255883D01*
X105047690Y-87039759D01*
X104835490Y-86894769D01*
X104583600Y-86843760D01*
X102883600Y-86843760D01*
X102648283Y-86888038D01*
X102432159Y-87027110D01*
X102287169Y-87239310D01*
X102236160Y-87491200D01*
X102236160Y-89191200D01*
X102280438Y-89426517D01*
X102419510Y-89642641D01*
X102631710Y-89787631D01*
X102883600Y-89838640D01*
X104583600Y-89838640D01*
X104818917Y-89794362D01*
X104840000Y-89780795D01*
X104840000Y-89900000D01*
X104897852Y-90190839D01*
X105062599Y-90437401D01*
X105297360Y-90672162D01*
X105297360Y-93242000D01*
X105341638Y-93477317D01*
X105480710Y-93693441D01*
X105684800Y-93832890D01*
X105684800Y-95654721D01*
X105493359Y-95777910D01*
X105348369Y-95990110D01*
X105297360Y-96242000D01*
X105297360Y-98992000D01*
X105341638Y-99227317D01*
X105480710Y-99443441D01*
X105692910Y-99588431D01*
X105944800Y-99639440D01*
X106944800Y-99639440D01*
X107180117Y-99595162D01*
X107396241Y-99456090D01*
X107541231Y-99243890D01*
X107592240Y-98992000D01*
X107592240Y-96551750D01*
X120343800Y-96551750D01*
X120343800Y-97017310D01*
X120440473Y-97250699D01*
X120619102Y-97429327D01*
X120852491Y-97526000D01*
X121193050Y-97526000D01*
X121351800Y-97367250D01*
X121351800Y-96393000D01*
X120502550Y-96393000D01*
X120343800Y-96551750D01*
X107592240Y-96551750D01*
X107592240Y-96242000D01*
X107547962Y-96006683D01*
X107408890Y-95790559D01*
X107204800Y-95651110D01*
X107204800Y-95514690D01*
X120343800Y-95514690D01*
X120343800Y-95980250D01*
X120502550Y-96139000D01*
X121351800Y-96139000D01*
X121351800Y-95164750D01*
X121193050Y-95006000D01*
X120852491Y-95006000D01*
X120619102Y-95102673D01*
X120440473Y-95281301D01*
X120343800Y-95514690D01*
X107204800Y-95514690D01*
X107204800Y-93829279D01*
X107396241Y-93706090D01*
X107541231Y-93493890D01*
X107592240Y-93242000D01*
X107592240Y-90960000D01*
X110685198Y-90960000D01*
X110862599Y-91137401D01*
X111109160Y-91302148D01*
X111144417Y-91309161D01*
X111400000Y-91360000D01*
X114485198Y-91360000D01*
X114864878Y-91739680D01*
X114864838Y-91785167D01*
X115006883Y-92128943D01*
X115269673Y-92392192D01*
X115613201Y-92534838D01*
X115985167Y-92535162D01*
X116328943Y-92393117D01*
X116399887Y-92322297D01*
X116462073Y-92384592D01*
X116805601Y-92527238D01*
X117177567Y-92527562D01*
X117521343Y-92385517D01*
X117784592Y-92122727D01*
X117927238Y-91779199D01*
X117927279Y-91732323D01*
X119033111Y-90626491D01*
X119948800Y-90626491D01*
X119948800Y-90967050D01*
X120107550Y-91125800D01*
X121081800Y-91125800D01*
X121081800Y-90276550D01*
X120923050Y-90117800D01*
X120457490Y-90117800D01*
X120224101Y-90214473D01*
X120045473Y-90393102D01*
X119948800Y-90626491D01*
X119033111Y-90626491D01*
X121695401Y-87964201D01*
X121718800Y-87929182D01*
X121718800Y-90117800D01*
X121494550Y-90117800D01*
X121335800Y-90276550D01*
X121335800Y-91125800D01*
X121355800Y-91125800D01*
X121355800Y-91379800D01*
X121335800Y-91379800D01*
X121335800Y-91399800D01*
X121081800Y-91399800D01*
X121081800Y-91379800D01*
X120107550Y-91379800D01*
X119948800Y-91538550D01*
X119948800Y-91879109D01*
X120045473Y-92112498D01*
X120186710Y-92253736D01*
X120132359Y-92288710D01*
X119987369Y-92500910D01*
X119936360Y-92752800D01*
X119936360Y-93752800D01*
X119980638Y-93988117D01*
X120119710Y-94204241D01*
X120331910Y-94349231D01*
X120583800Y-94400240D01*
X121718800Y-94400240D01*
X121718800Y-95051750D01*
X121605800Y-95164750D01*
X121605800Y-96139000D01*
X121625800Y-96139000D01*
X121625800Y-96393000D01*
X121605800Y-96393000D01*
X121605800Y-97367250D01*
X121631335Y-97392785D01*
X121543962Y-97603201D01*
X121543638Y-97975167D01*
X121685683Y-98318943D01*
X121948473Y-98582192D01*
X122292001Y-98724838D01*
X122602490Y-98725108D01*
X119443520Y-101884078D01*
X119398033Y-101884038D01*
X119054257Y-102026083D01*
X119021082Y-102059200D01*
X109026802Y-102059200D01*
X107776201Y-100808599D01*
X107529639Y-100643852D01*
X107238800Y-100586000D01*
X104011840Y-100586000D01*
X104011840Y-100496000D01*
X103967562Y-100260683D01*
X103828490Y-100044559D01*
X103616290Y-99899569D01*
X103364400Y-99848560D01*
X101664400Y-99848560D01*
X101429083Y-99892838D01*
X101212959Y-100031910D01*
X101067969Y-100244110D01*
X101016960Y-100496000D01*
X100710000Y-100496000D01*
X100710000Y-99683200D01*
X113462960Y-99683200D01*
X113462960Y-101383200D01*
X113507238Y-101618517D01*
X113646310Y-101834641D01*
X113858510Y-101979631D01*
X114110400Y-102030640D01*
X115810400Y-102030640D01*
X116045717Y-101986362D01*
X116261841Y-101847290D01*
X116406831Y-101635090D01*
X116420486Y-101567659D01*
X116450346Y-101612347D01*
X116932115Y-101934254D01*
X117500400Y-102047293D01*
X118068685Y-101934254D01*
X118550454Y-101612347D01*
X118872361Y-101130578D01*
X118985400Y-100562293D01*
X118985400Y-100504107D01*
X118872361Y-99935822D01*
X118550454Y-99454053D01*
X118068685Y-99132146D01*
X117500400Y-99019107D01*
X116932115Y-99132146D01*
X116450346Y-99454053D01*
X116422550Y-99495652D01*
X116413562Y-99447883D01*
X116274490Y-99231759D01*
X116062290Y-99086769D01*
X115810400Y-99035760D01*
X114110400Y-99035760D01*
X113875083Y-99080038D01*
X113658959Y-99219110D01*
X113513969Y-99431310D01*
X113462960Y-99683200D01*
X100710000Y-99683200D01*
X100710000Y-97902750D01*
X101309800Y-97902750D01*
X101309800Y-99118309D01*
X101406473Y-99351698D01*
X101585101Y-99530327D01*
X101818490Y-99627000D01*
X102159050Y-99627000D01*
X102317800Y-99468250D01*
X102317800Y-97744000D01*
X102571800Y-97744000D01*
X102571800Y-99468250D01*
X102730550Y-99627000D01*
X103071110Y-99627000D01*
X103304499Y-99530327D01*
X103483127Y-99351698D01*
X103579800Y-99118309D01*
X103579800Y-97902750D01*
X103421050Y-97744000D01*
X102571800Y-97744000D01*
X102317800Y-97744000D01*
X101468550Y-97744000D01*
X101309800Y-97902750D01*
X100710000Y-97902750D01*
X100710000Y-96115691D01*
X101309800Y-96115691D01*
X101309800Y-97331250D01*
X101468550Y-97490000D01*
X102317800Y-97490000D01*
X102317800Y-95765750D01*
X102571800Y-95765750D01*
X102571800Y-97490000D01*
X103421050Y-97490000D01*
X103579800Y-97331250D01*
X103579800Y-96115691D01*
X103483127Y-95882302D01*
X103304499Y-95703673D01*
X103071110Y-95607000D01*
X102730550Y-95607000D01*
X102571800Y-95765750D01*
X102317800Y-95765750D01*
X102159050Y-95607000D01*
X101818490Y-95607000D01*
X101585101Y-95703673D01*
X101406473Y-95882302D01*
X101309800Y-96115691D01*
X100710000Y-96115691D01*
X100710000Y-92152750D01*
X101309800Y-92152750D01*
X101309800Y-93368309D01*
X101406473Y-93601698D01*
X101585101Y-93780327D01*
X101818490Y-93877000D01*
X102159050Y-93877000D01*
X102317800Y-93718250D01*
X102317800Y-91994000D01*
X102571800Y-91994000D01*
X102571800Y-93718250D01*
X102730550Y-93877000D01*
X103071110Y-93877000D01*
X103304499Y-93780327D01*
X103483127Y-93601698D01*
X103579800Y-93368309D01*
X103579800Y-92152750D01*
X103421050Y-91994000D01*
X102571800Y-91994000D01*
X102317800Y-91994000D01*
X101468550Y-91994000D01*
X101309800Y-92152750D01*
X100710000Y-92152750D01*
X100710000Y-90365691D01*
X101309800Y-90365691D01*
X101309800Y-91581250D01*
X101468550Y-91740000D01*
X102317800Y-91740000D01*
X102317800Y-90015750D01*
X102571800Y-90015750D01*
X102571800Y-91740000D01*
X103421050Y-91740000D01*
X103579800Y-91581250D01*
X103579800Y-90365691D01*
X103483127Y-90132302D01*
X103304499Y-89953673D01*
X103071110Y-89857000D01*
X102730550Y-89857000D01*
X102571800Y-90015750D01*
X102317800Y-90015750D01*
X102159050Y-89857000D01*
X101818490Y-89857000D01*
X101585101Y-89953673D01*
X101406473Y-90132302D01*
X101309800Y-90365691D01*
X100710000Y-90365691D01*
X100710000Y-78990091D01*
X114945400Y-78990091D01*
X114945400Y-79180650D01*
X115104150Y-79339400D01*
X116103400Y-79339400D01*
X116103400Y-78640150D01*
X116357400Y-78640150D01*
X116357400Y-79339400D01*
X117356650Y-79339400D01*
X117515400Y-79180650D01*
X117515400Y-78990091D01*
X117418727Y-78756702D01*
X117240099Y-78578073D01*
X117006710Y-78481400D01*
X116516150Y-78481400D01*
X116357400Y-78640150D01*
X116103400Y-78640150D01*
X115944650Y-78481400D01*
X115454090Y-78481400D01*
X115220701Y-78578073D01*
X115042073Y-78756702D01*
X114945400Y-78990091D01*
X100710000Y-78990091D01*
X100710000Y-76127000D01*
X113000000Y-76127000D01*
X113046159Y-76118315D01*
X113088553Y-76091035D01*
X113116994Y-76049410D01*
X113127000Y-76000000D01*
X113127000Y-46710000D01*
X134290000Y-46710000D01*
X134290000Y-132290000D01*
M02*
