G04 #@! TF.FileFunction,Legend,Bot*
%FSLAX46Y46*%
G04 Gerber Fmt 4.6, Leading zero omitted, Abs format (unit mm)*
G04 Created by KiCad (PCBNEW 4.0.7-e2-6376~58~ubuntu16.04.1) date Sat Sep  1 16:07:10 2018*
%MOMM*%
%LPD*%
G01*
G04 APERTURE LIST*
%ADD10C,0.100000*%
%ADD11C,0.500000*%
%ADD12C,0.120000*%
%ADD13C,0.203200*%
%ADD14C,0.150000*%
G04 APERTURE END LIST*
D10*
D11*
X124333143Y-127925486D02*
X126618857Y-127925486D01*
X125476000Y-129068343D02*
X125476000Y-126782629D01*
X108178743Y-128027086D02*
X110464457Y-128027086D01*
D12*
X130796400Y-91498800D02*
X130796400Y-92498800D01*
X129096400Y-92498800D02*
X129096400Y-91498800D01*
X121978800Y-95416000D02*
X122978800Y-95416000D01*
X122978800Y-97116000D02*
X121978800Y-97116000D01*
X129147200Y-96512000D02*
X129147200Y-95512000D01*
X130847200Y-95512000D02*
X130847200Y-96512000D01*
X107194800Y-97992000D02*
X107844800Y-97992000D01*
X107844800Y-97992000D02*
X107844800Y-91492000D01*
X107844800Y-91492000D02*
X107194800Y-91492000D01*
X101694800Y-97992000D02*
X101044800Y-97992000D01*
X101044800Y-97992000D02*
X101044800Y-91492000D01*
X101044800Y-91492000D02*
X101694800Y-91492000D01*
X103194800Y-97992000D02*
X105694800Y-97992000D01*
X103194800Y-91492000D02*
X105694800Y-91492000D01*
X122058800Y-91752800D02*
X122058800Y-92752800D01*
X120358800Y-92752800D02*
X120358800Y-91752800D01*
X107509200Y-89195200D02*
X107509200Y-87995200D01*
X105749200Y-87995200D02*
X105749200Y-89195200D01*
X117110400Y-81016400D02*
X117110400Y-79816400D01*
X115350400Y-79816400D02*
X115350400Y-81016400D01*
D13*
X131858000Y-123207000D02*
X131858000Y-107586000D01*
X131858000Y-107586000D02*
X118142000Y-107586000D01*
X118142000Y-107586000D02*
X118142000Y-123207000D01*
X131858000Y-123207000D02*
X118142000Y-123207000D01*
X116858000Y-123207000D02*
X116858000Y-107586000D01*
X116858000Y-107586000D02*
X103142000Y-107586000D01*
X103142000Y-107586000D02*
X103142000Y-123207000D01*
X116858000Y-123207000D02*
X103142000Y-123207000D01*
D14*
X131803543Y-91355943D02*
X131851162Y-91308324D01*
X131898781Y-91165467D01*
X131898781Y-91070229D01*
X131851162Y-90927371D01*
X131755924Y-90832133D01*
X131660686Y-90784514D01*
X131470210Y-90736895D01*
X131327352Y-90736895D01*
X131136876Y-90784514D01*
X131041638Y-90832133D01*
X130946400Y-90927371D01*
X130898781Y-91070229D01*
X130898781Y-91165467D01*
X130946400Y-91308324D01*
X130994019Y-91355943D01*
X131898781Y-92308324D02*
X131898781Y-91736895D01*
X131898781Y-92022609D02*
X130898781Y-92022609D01*
X131041638Y-91927371D01*
X131136876Y-91832133D01*
X131184495Y-91736895D01*
X130898781Y-92927371D02*
X130898781Y-93022610D01*
X130946400Y-93117848D01*
X130994019Y-93165467D01*
X131089257Y-93213086D01*
X131279733Y-93260705D01*
X131517829Y-93260705D01*
X131708305Y-93213086D01*
X131803543Y-93165467D01*
X131851162Y-93117848D01*
X131898781Y-93022610D01*
X131898781Y-92927371D01*
X131851162Y-92832133D01*
X131803543Y-92784514D01*
X131708305Y-92736895D01*
X131517829Y-92689276D01*
X131279733Y-92689276D01*
X131089257Y-92736895D01*
X130994019Y-92784514D01*
X130946400Y-92832133D01*
X130898781Y-92927371D01*
X123121657Y-95123143D02*
X123169276Y-95170762D01*
X123312133Y-95218381D01*
X123407371Y-95218381D01*
X123550229Y-95170762D01*
X123645467Y-95075524D01*
X123693086Y-94980286D01*
X123740705Y-94789810D01*
X123740705Y-94646952D01*
X123693086Y-94456476D01*
X123645467Y-94361238D01*
X123550229Y-94266000D01*
X123407371Y-94218381D01*
X123312133Y-94218381D01*
X123169276Y-94266000D01*
X123121657Y-94313619D01*
X122169276Y-95218381D02*
X122740705Y-95218381D01*
X122454991Y-95218381D02*
X122454991Y-94218381D01*
X122550229Y-94361238D01*
X122645467Y-94456476D01*
X122740705Y-94504095D01*
X121835943Y-94218381D02*
X121216895Y-94218381D01*
X121550229Y-94599333D01*
X121407371Y-94599333D01*
X121312133Y-94646952D01*
X121264514Y-94694571D01*
X121216895Y-94789810D01*
X121216895Y-95027905D01*
X121264514Y-95123143D01*
X121312133Y-95170762D01*
X121407371Y-95218381D01*
X121693086Y-95218381D01*
X121788324Y-95170762D01*
X121835943Y-95123143D01*
X128854343Y-95369143D02*
X128901962Y-95321524D01*
X128949581Y-95178667D01*
X128949581Y-95083429D01*
X128901962Y-94940571D01*
X128806724Y-94845333D01*
X128711486Y-94797714D01*
X128521010Y-94750095D01*
X128378152Y-94750095D01*
X128187676Y-94797714D01*
X128092438Y-94845333D01*
X127997200Y-94940571D01*
X127949581Y-95083429D01*
X127949581Y-95178667D01*
X127997200Y-95321524D01*
X128044819Y-95369143D01*
X128949581Y-96321524D02*
X128949581Y-95750095D01*
X128949581Y-96035809D02*
X127949581Y-96035809D01*
X128092438Y-95940571D01*
X128187676Y-95845333D01*
X128235295Y-95750095D01*
X128282914Y-97178667D02*
X128949581Y-97178667D01*
X127901962Y-96940571D02*
X128616248Y-96702476D01*
X128616248Y-97321524D01*
X109218362Y-96659867D02*
X109265981Y-96802724D01*
X109265981Y-97040820D01*
X109218362Y-97136058D01*
X109170743Y-97183677D01*
X109075505Y-97231296D01*
X108980267Y-97231296D01*
X108885029Y-97183677D01*
X108837410Y-97136058D01*
X108789790Y-97040820D01*
X108742171Y-96850343D01*
X108694552Y-96755105D01*
X108646933Y-96707486D01*
X108551695Y-96659867D01*
X108456457Y-96659867D01*
X108361219Y-96707486D01*
X108313600Y-96755105D01*
X108265981Y-96850343D01*
X108265981Y-97088439D01*
X108313600Y-97231296D01*
X108265981Y-97564629D02*
X109265981Y-97802724D01*
X108551695Y-97993201D01*
X109265981Y-98183677D01*
X108265981Y-98421772D01*
X109265981Y-99326534D02*
X109265981Y-98755105D01*
X109265981Y-99040819D02*
X108265981Y-99040819D01*
X108408838Y-98945581D01*
X108504076Y-98850343D01*
X108551695Y-98755105D01*
X123065943Y-92086134D02*
X123113562Y-92038515D01*
X123161181Y-91895658D01*
X123161181Y-91800420D01*
X123113562Y-91657562D01*
X123018324Y-91562324D01*
X122923086Y-91514705D01*
X122732610Y-91467086D01*
X122589752Y-91467086D01*
X122399276Y-91514705D01*
X122304038Y-91562324D01*
X122208800Y-91657562D01*
X122161181Y-91800420D01*
X122161181Y-91895658D01*
X122208800Y-92038515D01*
X122256419Y-92086134D01*
X122161181Y-92990896D02*
X122161181Y-92514705D01*
X122637371Y-92467086D01*
X122589752Y-92514705D01*
X122542133Y-92609943D01*
X122542133Y-92848039D01*
X122589752Y-92943277D01*
X122637371Y-92990896D01*
X122732610Y-93038515D01*
X122970705Y-93038515D01*
X123065943Y-92990896D01*
X123113562Y-92943277D01*
X123161181Y-92848039D01*
X123161181Y-92609943D01*
X123113562Y-92514705D01*
X123065943Y-92467086D01*
X106319581Y-85837734D02*
X105843390Y-85504400D01*
X106319581Y-85266305D02*
X105319581Y-85266305D01*
X105319581Y-85647258D01*
X105367200Y-85742496D01*
X105414819Y-85790115D01*
X105510057Y-85837734D01*
X105652914Y-85837734D01*
X105748152Y-85790115D01*
X105795771Y-85742496D01*
X105843390Y-85647258D01*
X105843390Y-85266305D01*
X105652914Y-86694877D02*
X106319581Y-86694877D01*
X105271962Y-86456781D02*
X105986248Y-86218686D01*
X105986248Y-86837734D01*
X115032781Y-80249734D02*
X114556590Y-79916400D01*
X115032781Y-79678305D02*
X114032781Y-79678305D01*
X114032781Y-80059258D01*
X114080400Y-80154496D01*
X114128019Y-80202115D01*
X114223257Y-80249734D01*
X114366114Y-80249734D01*
X114461352Y-80202115D01*
X114508971Y-80154496D01*
X114556590Y-80059258D01*
X114556590Y-79678305D01*
X114032781Y-81154496D02*
X114032781Y-80678305D01*
X114508971Y-80630686D01*
X114461352Y-80678305D01*
X114413733Y-80773543D01*
X114413733Y-81011639D01*
X114461352Y-81106877D01*
X114508971Y-81154496D01*
X114604210Y-81202115D01*
X114842305Y-81202115D01*
X114937543Y-81154496D01*
X114985162Y-81106877D01*
X115032781Y-81011639D01*
X115032781Y-80773543D01*
X114985162Y-80678305D01*
X114937543Y-80630686D01*
M02*
