G04 #@! TF.GenerationSoftware,KiCad,Pcbnew,5.0.2-bee76a0~70~ubuntu18.04.1*
G04 #@! TF.CreationDate,2019-02-20T16:39:47+02:00*
G04 #@! TF.ProjectId,weerstasie,77656572-7374-4617-9369-652e6b696361,rev?*
G04 #@! TF.SameCoordinates,Original*
G04 #@! TF.FileFunction,Legend,Bot*
G04 #@! TF.FilePolarity,Positive*
%FSLAX46Y46*%
G04 Gerber Fmt 4.6, Leading zero omitted, Abs format (unit mm)*
G04 Created by KiCad (PCBNEW 5.0.2-bee76a0~70~ubuntu18.04.1) date Wed 20 Feb 2019 16:39:47 SAST*
%MOMM*%
%LPD*%
G01*
G04 APERTURE LIST*
%ADD10C,0.500000*%
%ADD11C,0.120000*%
%ADD12C,0.203200*%
%ADD13C,0.150000*%
G04 APERTURE END LIST*
D10*
X124333142Y-127925485D02*
X126618857Y-127925485D01*
X125476000Y-129068342D02*
X125476000Y-126782628D01*
X108178742Y-128027085D02*
X110464457Y-128027085D01*
D11*
G04 #@! TO.C,R4*
X107339200Y-88336622D02*
X107339200Y-88853778D01*
X105919200Y-88336622D02*
X105919200Y-88853778D01*
G04 #@! TO.C,R5*
X116940400Y-80157822D02*
X116940400Y-80674978D01*
X115520400Y-80157822D02*
X115520400Y-80674978D01*
G04 #@! TO.C,SW1*
X107194800Y-97992000D02*
X107844800Y-97992000D01*
X107844800Y-97992000D02*
X107844800Y-91492000D01*
X107844800Y-91492000D02*
X107194800Y-91492000D01*
X101694800Y-97992000D02*
X101044800Y-97992000D01*
X101044800Y-97992000D02*
X101044800Y-91492000D01*
X101044800Y-91492000D02*
X101694800Y-91492000D01*
X103194800Y-97992000D02*
X105694800Y-97992000D01*
X103194800Y-91492000D02*
X105694800Y-91492000D01*
D12*
G04 #@! TO.C,J4*
X131358000Y-123207000D02*
X131358000Y-107586000D01*
X131358000Y-107586000D02*
X117642000Y-107586000D01*
X117642000Y-107586000D02*
X117642000Y-123207000D01*
X131358000Y-123207000D02*
X117642000Y-123207000D01*
G04 #@! TO.C,J1*
X117358000Y-123207000D02*
X117358000Y-107586000D01*
X117358000Y-107586000D02*
X103642000Y-107586000D01*
X103642000Y-107586000D02*
X103642000Y-123207000D01*
X117358000Y-123207000D02*
X103642000Y-123207000D01*
D11*
G04 #@! TO.C,C5*
X121918800Y-92511378D02*
X121918800Y-91994222D01*
X120498800Y-92511378D02*
X120498800Y-91994222D01*
G04 #@! TO.C,C10*
X129236400Y-92257378D02*
X129236400Y-91740222D01*
X130656400Y-92257378D02*
X130656400Y-91740222D01*
G04 #@! TO.C,C13*
X122737378Y-95556000D02*
X122220222Y-95556000D01*
X122737378Y-96976000D02*
X122220222Y-96976000D01*
G04 #@! TO.C,C14*
X130707200Y-95753422D02*
X130707200Y-96270578D01*
X129287200Y-95753422D02*
X129287200Y-96270578D01*
G04 #@! TO.C,R4*
D13*
X105431580Y-88428533D02*
X104955390Y-88095200D01*
X105431580Y-87857104D02*
X104431580Y-87857104D01*
X104431580Y-88238057D01*
X104479200Y-88333295D01*
X104526819Y-88380914D01*
X104622057Y-88428533D01*
X104764914Y-88428533D01*
X104860152Y-88380914D01*
X104907771Y-88333295D01*
X104955390Y-88238057D01*
X104955390Y-87857104D01*
X104764914Y-89285676D02*
X105431580Y-89285676D01*
X104383961Y-89047580D02*
X105098247Y-88809485D01*
X105098247Y-89428533D01*
G04 #@! TO.C,R5*
X115032780Y-80249733D02*
X114556590Y-79916400D01*
X115032780Y-79678304D02*
X114032780Y-79678304D01*
X114032780Y-80059257D01*
X114080400Y-80154495D01*
X114128019Y-80202114D01*
X114223257Y-80249733D01*
X114366114Y-80249733D01*
X114461352Y-80202114D01*
X114508971Y-80154495D01*
X114556590Y-80059257D01*
X114556590Y-79678304D01*
X114032780Y-81154495D02*
X114032780Y-80678304D01*
X114508971Y-80630685D01*
X114461352Y-80678304D01*
X114413733Y-80773542D01*
X114413733Y-81011638D01*
X114461352Y-81106876D01*
X114508971Y-81154495D01*
X114604209Y-81202114D01*
X114842304Y-81202114D01*
X114937542Y-81154495D01*
X114985161Y-81106876D01*
X115032780Y-81011638D01*
X115032780Y-80773542D01*
X114985161Y-80678304D01*
X114937542Y-80630685D01*
G04 #@! TO.C,SW1*
X109218361Y-96659866D02*
X109265980Y-96802723D01*
X109265980Y-97040819D01*
X109218361Y-97136057D01*
X109170742Y-97183676D01*
X109075504Y-97231295D01*
X108980266Y-97231295D01*
X108885028Y-97183676D01*
X108837409Y-97136057D01*
X108789790Y-97040819D01*
X108742171Y-96850342D01*
X108694552Y-96755104D01*
X108646933Y-96707485D01*
X108551695Y-96659866D01*
X108456457Y-96659866D01*
X108361219Y-96707485D01*
X108313600Y-96755104D01*
X108265980Y-96850342D01*
X108265980Y-97088438D01*
X108313600Y-97231295D01*
X108265980Y-97564628D02*
X109265980Y-97802723D01*
X108551695Y-97993200D01*
X109265980Y-98183676D01*
X108265980Y-98421771D01*
X109265980Y-99326533D02*
X109265980Y-98755104D01*
X109265980Y-99040819D02*
X108265980Y-99040819D01*
X108408838Y-98945580D01*
X108504076Y-98850342D01*
X108551695Y-98755104D01*
G04 #@! TO.C,C5*
X123215942Y-92086133D02*
X123263561Y-92038514D01*
X123311180Y-91895657D01*
X123311180Y-91800419D01*
X123263561Y-91657561D01*
X123168323Y-91562323D01*
X123073085Y-91514704D01*
X122882609Y-91467085D01*
X122739752Y-91467085D01*
X122549276Y-91514704D01*
X122454038Y-91562323D01*
X122358800Y-91657561D01*
X122311180Y-91800419D01*
X122311180Y-91895657D01*
X122358800Y-92038514D01*
X122406419Y-92086133D01*
X122311180Y-92990895D02*
X122311180Y-92514704D01*
X122787371Y-92467085D01*
X122739752Y-92514704D01*
X122692133Y-92609942D01*
X122692133Y-92848038D01*
X122739752Y-92943276D01*
X122787371Y-92990895D01*
X122882609Y-93038514D01*
X123120704Y-93038514D01*
X123215942Y-92990895D01*
X123263561Y-92943276D01*
X123311180Y-92848038D01*
X123311180Y-92609942D01*
X123263561Y-92514704D01*
X123215942Y-92467085D01*
G04 #@! TO.C,C10*
X131953542Y-91355942D02*
X132001161Y-91308323D01*
X132048780Y-91165466D01*
X132048780Y-91070228D01*
X132001161Y-90927371D01*
X131905923Y-90832133D01*
X131810685Y-90784514D01*
X131620209Y-90736895D01*
X131477352Y-90736895D01*
X131286876Y-90784514D01*
X131191638Y-90832133D01*
X131096400Y-90927371D01*
X131048780Y-91070228D01*
X131048780Y-91165466D01*
X131096400Y-91308323D01*
X131144019Y-91355942D01*
X132048780Y-92308323D02*
X132048780Y-91736895D01*
X132048780Y-92022609D02*
X131048780Y-92022609D01*
X131191638Y-91927371D01*
X131286876Y-91832133D01*
X131334495Y-91736895D01*
X131048780Y-92927371D02*
X131048780Y-93022609D01*
X131096400Y-93117847D01*
X131144019Y-93165466D01*
X131239257Y-93213085D01*
X131429733Y-93260704D01*
X131667828Y-93260704D01*
X131858304Y-93213085D01*
X131953542Y-93165466D01*
X132001161Y-93117847D01*
X132048780Y-93022609D01*
X132048780Y-92927371D01*
X132001161Y-92832133D01*
X131953542Y-92784514D01*
X131858304Y-92736895D01*
X131667828Y-92689276D01*
X131429733Y-92689276D01*
X131239257Y-92736895D01*
X131144019Y-92784514D01*
X131096400Y-92832133D01*
X131048780Y-92927371D01*
G04 #@! TO.C,C13*
X123121657Y-94973142D02*
X123169276Y-95020761D01*
X123312133Y-95068380D01*
X123407371Y-95068380D01*
X123550228Y-95020761D01*
X123645466Y-94925523D01*
X123693085Y-94830285D01*
X123740704Y-94639809D01*
X123740704Y-94496952D01*
X123693085Y-94306476D01*
X123645466Y-94211238D01*
X123550228Y-94116000D01*
X123407371Y-94068380D01*
X123312133Y-94068380D01*
X123169276Y-94116000D01*
X123121657Y-94163619D01*
X122169276Y-95068380D02*
X122740704Y-95068380D01*
X122454990Y-95068380D02*
X122454990Y-94068380D01*
X122550228Y-94211238D01*
X122645466Y-94306476D01*
X122740704Y-94354095D01*
X121835942Y-94068380D02*
X121216895Y-94068380D01*
X121550228Y-94449333D01*
X121407371Y-94449333D01*
X121312133Y-94496952D01*
X121264514Y-94544571D01*
X121216895Y-94639809D01*
X121216895Y-94877904D01*
X121264514Y-94973142D01*
X121312133Y-95020761D01*
X121407371Y-95068380D01*
X121693085Y-95068380D01*
X121788323Y-95020761D01*
X121835942Y-94973142D01*
G04 #@! TO.C,C14*
X128704342Y-95369142D02*
X128751961Y-95321523D01*
X128799580Y-95178666D01*
X128799580Y-95083428D01*
X128751961Y-94940571D01*
X128656723Y-94845333D01*
X128561485Y-94797714D01*
X128371009Y-94750095D01*
X128228152Y-94750095D01*
X128037676Y-94797714D01*
X127942438Y-94845333D01*
X127847200Y-94940571D01*
X127799580Y-95083428D01*
X127799580Y-95178666D01*
X127847200Y-95321523D01*
X127894819Y-95369142D01*
X128799580Y-96321523D02*
X128799580Y-95750095D01*
X128799580Y-96035809D02*
X127799580Y-96035809D01*
X127942438Y-95940571D01*
X128037676Y-95845333D01*
X128085295Y-95750095D01*
X128132914Y-97178666D02*
X128799580Y-97178666D01*
X127751961Y-96940571D02*
X128466247Y-96702476D01*
X128466247Y-97321523D01*
G04 #@! TD*
M02*
