G04 #@! TF.GenerationSoftware,KiCad,Pcbnew,5.0.2-bee76a0~70~ubuntu18.04.1*
G04 #@! TF.CreationDate,2019-02-20T16:39:47+02:00*
G04 #@! TF.ProjectId,weerstasie,77656572-7374-4617-9369-652e6b696361,rev?*
G04 #@! TF.SameCoordinates,Original*
G04 #@! TF.FileFunction,Copper,L2,Bot*
G04 #@! TF.FilePolarity,Positive*
%FSLAX46Y46*%
G04 Gerber Fmt 4.6, Leading zero omitted, Abs format (unit mm)*
G04 Created by KiCad (PCBNEW 5.0.2-bee76a0~70~ubuntu18.04.1) date Wed 20 Feb 2019 16:39:47 SAST*
%MOMM*%
%LPD*%
G01*
G04 APERTURE LIST*
G04 #@! TA.AperFunction,EtchedComponent*
%ADD10C,1.000000*%
G04 #@! TD*
G04 #@! TA.AperFunction,Conductor*
%ADD11C,0.100000*%
G04 #@! TD*
G04 #@! TA.AperFunction,SMDPad,CuDef*
%ADD12C,0.975000*%
G04 #@! TD*
G04 #@! TA.AperFunction,SMDPad,CuDef*
%ADD13R,1.000000X2.750000*%
G04 #@! TD*
G04 #@! TA.AperFunction,ComponentPad*
%ADD14R,1.700000X1.700000*%
G04 #@! TD*
G04 #@! TA.AperFunction,ComponentPad*
%ADD15O,1.700000X1.700000*%
G04 #@! TD*
G04 #@! TA.AperFunction,ComponentPad*
%ADD16R,1.800000X1.800000*%
G04 #@! TD*
G04 #@! TA.AperFunction,ComponentPad*
%ADD17C,1.800000*%
G04 #@! TD*
G04 #@! TA.AperFunction,ComponentPad*
%ADD18C,3.200000*%
G04 #@! TD*
G04 #@! TA.AperFunction,ComponentPad*
%ADD19C,1.879600*%
G04 #@! TD*
G04 #@! TA.AperFunction,ComponentPad*
%ADD20R,7.000000X2.000000*%
G04 #@! TD*
G04 #@! TA.AperFunction,ViaPad*
%ADD21C,1.000000*%
G04 #@! TD*
G04 #@! TA.AperFunction,ViaPad*
%ADD22C,2.200000*%
G04 #@! TD*
G04 #@! TA.AperFunction,ViaPad*
%ADD23C,0.600000*%
G04 #@! TD*
G04 #@! TA.AperFunction,Conductor*
%ADD24C,0.250000*%
G04 #@! TD*
G04 #@! TA.AperFunction,Conductor*
%ADD25C,0.254000*%
G04 #@! TD*
G04 APERTURE END LIST*
D10*
G04 #@! TO.C,AE1*
X106000000Y-48000000D02*
X107000000Y-47000000D01*
X102000000Y-48000000D02*
X106000000Y-48000000D01*
X101000000Y-49000000D02*
X102000000Y-48000000D01*
X106000000Y-50000000D02*
X107000000Y-49000000D01*
X102000000Y-50000000D02*
X106000000Y-50000000D01*
X101000000Y-51000000D02*
X102000000Y-50000000D01*
X106000000Y-52000000D02*
X107000000Y-51000000D01*
X102000000Y-52000000D02*
X106000000Y-52000000D01*
X101000000Y-53000000D02*
X102000000Y-52000000D01*
X106000000Y-54000000D02*
X107000000Y-53000000D01*
X102000000Y-54000000D02*
X106000000Y-54000000D01*
X101000000Y-55000000D02*
X102000000Y-54000000D01*
X106000000Y-56000000D02*
X107000000Y-55000000D01*
X102000000Y-56000000D02*
X106000000Y-56000000D01*
X101000000Y-57000000D02*
X102000000Y-56000000D01*
X106000000Y-58000000D02*
X107000000Y-57000000D01*
X102000000Y-58000000D02*
X106000000Y-58000000D01*
X101000000Y-59000000D02*
X102000000Y-58000000D01*
X106000000Y-60000000D02*
X107000000Y-59000000D01*
X102000000Y-60000000D02*
X106000000Y-60000000D01*
X101000000Y-61000000D02*
X102000000Y-60000000D01*
X106000000Y-62000000D02*
X107000000Y-61000000D01*
X102000000Y-62000000D02*
X106000000Y-62000000D01*
X101000000Y-63000000D02*
X102000000Y-62000000D01*
X106000000Y-64000000D02*
X107000000Y-63000000D01*
X102000000Y-64000000D02*
X106000000Y-64000000D01*
X101000000Y-65000000D02*
X102000000Y-64000000D01*
G04 #@! TD*
D11*
G04 #@! TO.N,/RESET*
G04 #@! TO.C,R4*
G36*
X107109342Y-89046374D02*
X107133003Y-89049884D01*
X107156207Y-89055696D01*
X107178729Y-89063754D01*
X107200353Y-89073982D01*
X107220870Y-89086279D01*
X107240083Y-89100529D01*
X107257807Y-89116593D01*
X107273871Y-89134317D01*
X107288121Y-89153530D01*
X107300418Y-89174047D01*
X107310646Y-89195671D01*
X107318704Y-89218193D01*
X107324516Y-89241397D01*
X107328026Y-89265058D01*
X107329200Y-89288950D01*
X107329200Y-89776450D01*
X107328026Y-89800342D01*
X107324516Y-89824003D01*
X107318704Y-89847207D01*
X107310646Y-89869729D01*
X107300418Y-89891353D01*
X107288121Y-89911870D01*
X107273871Y-89931083D01*
X107257807Y-89948807D01*
X107240083Y-89964871D01*
X107220870Y-89979121D01*
X107200353Y-89991418D01*
X107178729Y-90001646D01*
X107156207Y-90009704D01*
X107133003Y-90015516D01*
X107109342Y-90019026D01*
X107085450Y-90020200D01*
X106172950Y-90020200D01*
X106149058Y-90019026D01*
X106125397Y-90015516D01*
X106102193Y-90009704D01*
X106079671Y-90001646D01*
X106058047Y-89991418D01*
X106037530Y-89979121D01*
X106018317Y-89964871D01*
X106000593Y-89948807D01*
X105984529Y-89931083D01*
X105970279Y-89911870D01*
X105957982Y-89891353D01*
X105947754Y-89869729D01*
X105939696Y-89847207D01*
X105933884Y-89824003D01*
X105930374Y-89800342D01*
X105929200Y-89776450D01*
X105929200Y-89288950D01*
X105930374Y-89265058D01*
X105933884Y-89241397D01*
X105939696Y-89218193D01*
X105947754Y-89195671D01*
X105957982Y-89174047D01*
X105970279Y-89153530D01*
X105984529Y-89134317D01*
X106000593Y-89116593D01*
X106018317Y-89100529D01*
X106037530Y-89086279D01*
X106058047Y-89073982D01*
X106079671Y-89063754D01*
X106102193Y-89055696D01*
X106125397Y-89049884D01*
X106149058Y-89046374D01*
X106172950Y-89045200D01*
X107085450Y-89045200D01*
X107109342Y-89046374D01*
X107109342Y-89046374D01*
G37*
D12*
G04 #@! TD*
G04 #@! TO.P,R4,2*
G04 #@! TO.N,/RESET*
X106629200Y-89532700D03*
D11*
G04 #@! TO.N,VCC*
G04 #@! TO.C,R4*
G36*
X107109342Y-87171374D02*
X107133003Y-87174884D01*
X107156207Y-87180696D01*
X107178729Y-87188754D01*
X107200353Y-87198982D01*
X107220870Y-87211279D01*
X107240083Y-87225529D01*
X107257807Y-87241593D01*
X107273871Y-87259317D01*
X107288121Y-87278530D01*
X107300418Y-87299047D01*
X107310646Y-87320671D01*
X107318704Y-87343193D01*
X107324516Y-87366397D01*
X107328026Y-87390058D01*
X107329200Y-87413950D01*
X107329200Y-87901450D01*
X107328026Y-87925342D01*
X107324516Y-87949003D01*
X107318704Y-87972207D01*
X107310646Y-87994729D01*
X107300418Y-88016353D01*
X107288121Y-88036870D01*
X107273871Y-88056083D01*
X107257807Y-88073807D01*
X107240083Y-88089871D01*
X107220870Y-88104121D01*
X107200353Y-88116418D01*
X107178729Y-88126646D01*
X107156207Y-88134704D01*
X107133003Y-88140516D01*
X107109342Y-88144026D01*
X107085450Y-88145200D01*
X106172950Y-88145200D01*
X106149058Y-88144026D01*
X106125397Y-88140516D01*
X106102193Y-88134704D01*
X106079671Y-88126646D01*
X106058047Y-88116418D01*
X106037530Y-88104121D01*
X106018317Y-88089871D01*
X106000593Y-88073807D01*
X105984529Y-88056083D01*
X105970279Y-88036870D01*
X105957982Y-88016353D01*
X105947754Y-87994729D01*
X105939696Y-87972207D01*
X105933884Y-87949003D01*
X105930374Y-87925342D01*
X105929200Y-87901450D01*
X105929200Y-87413950D01*
X105930374Y-87390058D01*
X105933884Y-87366397D01*
X105939696Y-87343193D01*
X105947754Y-87320671D01*
X105957982Y-87299047D01*
X105970279Y-87278530D01*
X105984529Y-87259317D01*
X106000593Y-87241593D01*
X106018317Y-87225529D01*
X106037530Y-87211279D01*
X106058047Y-87198982D01*
X106079671Y-87188754D01*
X106102193Y-87180696D01*
X106125397Y-87174884D01*
X106149058Y-87171374D01*
X106172950Y-87170200D01*
X107085450Y-87170200D01*
X107109342Y-87171374D01*
X107109342Y-87171374D01*
G37*
D12*
G04 #@! TD*
G04 #@! TO.P,R4,1*
G04 #@! TO.N,VCC*
X106629200Y-87657700D03*
D11*
G04 #@! TO.N,Net-(D1-Pad1)*
G04 #@! TO.C,R5*
G36*
X116710542Y-80867574D02*
X116734203Y-80871084D01*
X116757407Y-80876896D01*
X116779929Y-80884954D01*
X116801553Y-80895182D01*
X116822070Y-80907479D01*
X116841283Y-80921729D01*
X116859007Y-80937793D01*
X116875071Y-80955517D01*
X116889321Y-80974730D01*
X116901618Y-80995247D01*
X116911846Y-81016871D01*
X116919904Y-81039393D01*
X116925716Y-81062597D01*
X116929226Y-81086258D01*
X116930400Y-81110150D01*
X116930400Y-81597650D01*
X116929226Y-81621542D01*
X116925716Y-81645203D01*
X116919904Y-81668407D01*
X116911846Y-81690929D01*
X116901618Y-81712553D01*
X116889321Y-81733070D01*
X116875071Y-81752283D01*
X116859007Y-81770007D01*
X116841283Y-81786071D01*
X116822070Y-81800321D01*
X116801553Y-81812618D01*
X116779929Y-81822846D01*
X116757407Y-81830904D01*
X116734203Y-81836716D01*
X116710542Y-81840226D01*
X116686650Y-81841400D01*
X115774150Y-81841400D01*
X115750258Y-81840226D01*
X115726597Y-81836716D01*
X115703393Y-81830904D01*
X115680871Y-81822846D01*
X115659247Y-81812618D01*
X115638730Y-81800321D01*
X115619517Y-81786071D01*
X115601793Y-81770007D01*
X115585729Y-81752283D01*
X115571479Y-81733070D01*
X115559182Y-81712553D01*
X115548954Y-81690929D01*
X115540896Y-81668407D01*
X115535084Y-81645203D01*
X115531574Y-81621542D01*
X115530400Y-81597650D01*
X115530400Y-81110150D01*
X115531574Y-81086258D01*
X115535084Y-81062597D01*
X115540896Y-81039393D01*
X115548954Y-81016871D01*
X115559182Y-80995247D01*
X115571479Y-80974730D01*
X115585729Y-80955517D01*
X115601793Y-80937793D01*
X115619517Y-80921729D01*
X115638730Y-80907479D01*
X115659247Y-80895182D01*
X115680871Y-80884954D01*
X115703393Y-80876896D01*
X115726597Y-80871084D01*
X115750258Y-80867574D01*
X115774150Y-80866400D01*
X116686650Y-80866400D01*
X116710542Y-80867574D01*
X116710542Y-80867574D01*
G37*
D12*
G04 #@! TD*
G04 #@! TO.P,R5,2*
G04 #@! TO.N,Net-(D1-Pad1)*
X116230400Y-81353900D03*
D11*
G04 #@! TO.N,GND*
G04 #@! TO.C,R5*
G36*
X116710542Y-78992574D02*
X116734203Y-78996084D01*
X116757407Y-79001896D01*
X116779929Y-79009954D01*
X116801553Y-79020182D01*
X116822070Y-79032479D01*
X116841283Y-79046729D01*
X116859007Y-79062793D01*
X116875071Y-79080517D01*
X116889321Y-79099730D01*
X116901618Y-79120247D01*
X116911846Y-79141871D01*
X116919904Y-79164393D01*
X116925716Y-79187597D01*
X116929226Y-79211258D01*
X116930400Y-79235150D01*
X116930400Y-79722650D01*
X116929226Y-79746542D01*
X116925716Y-79770203D01*
X116919904Y-79793407D01*
X116911846Y-79815929D01*
X116901618Y-79837553D01*
X116889321Y-79858070D01*
X116875071Y-79877283D01*
X116859007Y-79895007D01*
X116841283Y-79911071D01*
X116822070Y-79925321D01*
X116801553Y-79937618D01*
X116779929Y-79947846D01*
X116757407Y-79955904D01*
X116734203Y-79961716D01*
X116710542Y-79965226D01*
X116686650Y-79966400D01*
X115774150Y-79966400D01*
X115750258Y-79965226D01*
X115726597Y-79961716D01*
X115703393Y-79955904D01*
X115680871Y-79947846D01*
X115659247Y-79937618D01*
X115638730Y-79925321D01*
X115619517Y-79911071D01*
X115601793Y-79895007D01*
X115585729Y-79877283D01*
X115571479Y-79858070D01*
X115559182Y-79837553D01*
X115548954Y-79815929D01*
X115540896Y-79793407D01*
X115535084Y-79770203D01*
X115531574Y-79746542D01*
X115530400Y-79722650D01*
X115530400Y-79235150D01*
X115531574Y-79211258D01*
X115535084Y-79187597D01*
X115540896Y-79164393D01*
X115548954Y-79141871D01*
X115559182Y-79120247D01*
X115571479Y-79099730D01*
X115585729Y-79080517D01*
X115601793Y-79062793D01*
X115619517Y-79046729D01*
X115638730Y-79032479D01*
X115659247Y-79020182D01*
X115680871Y-79009954D01*
X115703393Y-79001896D01*
X115726597Y-78996084D01*
X115750258Y-78992574D01*
X115774150Y-78991400D01*
X116686650Y-78991400D01*
X116710542Y-78992574D01*
X116710542Y-78992574D01*
G37*
D12*
G04 #@! TD*
G04 #@! TO.P,R5,1*
G04 #@! TO.N,GND*
X116230400Y-79478900D03*
D13*
G04 #@! TO.P,SW1,1*
G04 #@! TO.N,GND*
X102444800Y-91867000D03*
X102444800Y-97617000D03*
G04 #@! TO.P,SW1,2*
G04 #@! TO.N,/RESET*
X106444800Y-97617000D03*
X106444800Y-91867000D03*
G04 #@! TD*
D14*
G04 #@! TO.P,J11,1*
G04 #@! TO.N,Net-(J11-Pad1)*
X127406400Y-79400400D03*
G04 #@! TD*
G04 #@! TO.P,J12,1*
G04 #@! TO.N,Net-(J12-Pad1)*
X125000000Y-102000000D03*
D15*
G04 #@! TO.P,J12,2*
G04 #@! TO.N,Net-(J12-Pad2)*
X127540000Y-102000000D03*
G04 #@! TD*
D14*
G04 #@! TO.P,J13,1*
G04 #@! TO.N,Net-(J13-Pad1)*
X114960400Y-100533200D03*
D15*
G04 #@! TO.P,J13,2*
G04 #@! TO.N,Net-(J13-Pad2)*
X117500400Y-100533200D03*
G04 #@! TD*
D16*
G04 #@! TO.P,D1,1*
G04 #@! TO.N,Net-(D1-Pad1)*
X116250000Y-83000000D03*
D17*
G04 #@! TO.P,D1,2*
G04 #@! TO.N,Net-(D1-Pad2)*
X118790000Y-83000000D03*
G04 #@! TD*
D14*
G04 #@! TO.P,J6,1*
G04 #@! TO.N,VCC*
X102514400Y-101346000D03*
G04 #@! TD*
G04 #@! TO.P,J7,1*
G04 #@! TO.N,/SCK*
X109372400Y-86563200D03*
G04 #@! TD*
G04 #@! TO.P,J8,1*
G04 #@! TO.N,/MOSI*
X124002800Y-80518000D03*
G04 #@! TD*
G04 #@! TO.P,J9,1*
G04 #@! TO.N,/RESET*
X103733600Y-88341200D03*
G04 #@! TD*
G04 #@! TO.P,J10,1*
G04 #@! TO.N,GND*
X132283200Y-85394800D03*
G04 #@! TD*
G04 #@! TO.P,J5,1*
G04 #@! TO.N,/MISO*
X109372400Y-88849200D03*
G04 #@! TD*
D18*
G04 #@! TO.P,J4,8*
G04 #@! TO.N,GND*
X129580000Y-118000000D03*
D19*
G04 #@! TO.P,J4,1*
G04 #@! TO.N,/SOLAR_1*
X121325000Y-109110000D03*
G04 #@! TO.P,J4,2*
G04 #@! TO.N,/SOLAR_2*
X122595000Y-111650000D03*
G04 #@! TO.P,J4,3*
G04 #@! TO.N,/RAIN*
X123865000Y-109110000D03*
G04 #@! TO.P,J4,4*
G04 #@! TO.N,GND*
X125135000Y-111650000D03*
G04 #@! TO.P,J4,5*
G04 #@! TO.N,/SOLAR_5*
X126405000Y-109110000D03*
G04 #@! TO.P,J4,6*
G04 #@! TO.N,/SOLAR_6*
X127675000Y-111650000D03*
D18*
G04 #@! TO.P,J4,7*
G04 #@! TO.N,GND*
X119420000Y-118000000D03*
G04 #@! TD*
G04 #@! TO.P,J1,8*
G04 #@! TO.N,GND*
X115580000Y-118000000D03*
D19*
G04 #@! TO.P,J1,1*
G04 #@! TO.N,N/C*
X107325000Y-109110000D03*
G04 #@! TO.P,J1,2*
G04 #@! TO.N,/WIND_DIR*
X108595000Y-111650000D03*
G04 #@! TO.P,J1,3*
G04 #@! TO.N,/WIND_SPEED*
X109865000Y-109110000D03*
G04 #@! TO.P,J1,4*
G04 #@! TO.N,GND*
X111135000Y-111650000D03*
G04 #@! TO.P,J1,5*
X112405000Y-109110000D03*
G04 #@! TO.P,J1,6*
G04 #@! TO.N,N/C*
X113675000Y-111650000D03*
D18*
G04 #@! TO.P,J1,7*
G04 #@! TO.N,GND*
X105420000Y-118000000D03*
G04 #@! TD*
D20*
G04 #@! TO.P,J2,1*
G04 #@! TO.N,GND*
X106500000Y-131000000D03*
X112500000Y-131000000D03*
G04 #@! TD*
G04 #@! TO.P,J3,1*
G04 #@! TO.N,VCC*
X122500000Y-131000000D03*
X128500000Y-131000000D03*
G04 #@! TD*
D21*
G04 #@! TO.N,*
G04 #@! TO.C,AE1*
X107000000Y-47000000D03*
X101000000Y-49000000D03*
X107000000Y-49000000D03*
X101000000Y-51000000D03*
X107000000Y-51000000D03*
X101000000Y-53000000D03*
X107000000Y-53000000D03*
X101000000Y-55000000D03*
X107000000Y-55000000D03*
X101000000Y-57000000D03*
X107000000Y-57000000D03*
X101000000Y-59000000D03*
X107000000Y-59000000D03*
X101000000Y-61000000D03*
X107000000Y-61000000D03*
X101000000Y-63000000D03*
X107000000Y-63000000D03*
X101000000Y-65000000D03*
G04 #@! TD*
D11*
G04 #@! TO.N,VCC*
G04 #@! TO.C,C5*
G36*
X121688942Y-92703974D02*
X121712603Y-92707484D01*
X121735807Y-92713296D01*
X121758329Y-92721354D01*
X121779953Y-92731582D01*
X121800470Y-92743879D01*
X121819683Y-92758129D01*
X121837407Y-92774193D01*
X121853471Y-92791917D01*
X121867721Y-92811130D01*
X121880018Y-92831647D01*
X121890246Y-92853271D01*
X121898304Y-92875793D01*
X121904116Y-92898997D01*
X121907626Y-92922658D01*
X121908800Y-92946550D01*
X121908800Y-93434050D01*
X121907626Y-93457942D01*
X121904116Y-93481603D01*
X121898304Y-93504807D01*
X121890246Y-93527329D01*
X121880018Y-93548953D01*
X121867721Y-93569470D01*
X121853471Y-93588683D01*
X121837407Y-93606407D01*
X121819683Y-93622471D01*
X121800470Y-93636721D01*
X121779953Y-93649018D01*
X121758329Y-93659246D01*
X121735807Y-93667304D01*
X121712603Y-93673116D01*
X121688942Y-93676626D01*
X121665050Y-93677800D01*
X120752550Y-93677800D01*
X120728658Y-93676626D01*
X120704997Y-93673116D01*
X120681793Y-93667304D01*
X120659271Y-93659246D01*
X120637647Y-93649018D01*
X120617130Y-93636721D01*
X120597917Y-93622471D01*
X120580193Y-93606407D01*
X120564129Y-93588683D01*
X120549879Y-93569470D01*
X120537582Y-93548953D01*
X120527354Y-93527329D01*
X120519296Y-93504807D01*
X120513484Y-93481603D01*
X120509974Y-93457942D01*
X120508800Y-93434050D01*
X120508800Y-92946550D01*
X120509974Y-92922658D01*
X120513484Y-92898997D01*
X120519296Y-92875793D01*
X120527354Y-92853271D01*
X120537582Y-92831647D01*
X120549879Y-92811130D01*
X120564129Y-92791917D01*
X120580193Y-92774193D01*
X120597917Y-92758129D01*
X120617130Y-92743879D01*
X120637647Y-92731582D01*
X120659271Y-92721354D01*
X120681793Y-92713296D01*
X120704997Y-92707484D01*
X120728658Y-92703974D01*
X120752550Y-92702800D01*
X121665050Y-92702800D01*
X121688942Y-92703974D01*
X121688942Y-92703974D01*
G37*
D12*
G04 #@! TD*
G04 #@! TO.P,C5,1*
G04 #@! TO.N,VCC*
X121208800Y-93190300D03*
D11*
G04 #@! TO.N,GND*
G04 #@! TO.C,C5*
G36*
X121688942Y-90828974D02*
X121712603Y-90832484D01*
X121735807Y-90838296D01*
X121758329Y-90846354D01*
X121779953Y-90856582D01*
X121800470Y-90868879D01*
X121819683Y-90883129D01*
X121837407Y-90899193D01*
X121853471Y-90916917D01*
X121867721Y-90936130D01*
X121880018Y-90956647D01*
X121890246Y-90978271D01*
X121898304Y-91000793D01*
X121904116Y-91023997D01*
X121907626Y-91047658D01*
X121908800Y-91071550D01*
X121908800Y-91559050D01*
X121907626Y-91582942D01*
X121904116Y-91606603D01*
X121898304Y-91629807D01*
X121890246Y-91652329D01*
X121880018Y-91673953D01*
X121867721Y-91694470D01*
X121853471Y-91713683D01*
X121837407Y-91731407D01*
X121819683Y-91747471D01*
X121800470Y-91761721D01*
X121779953Y-91774018D01*
X121758329Y-91784246D01*
X121735807Y-91792304D01*
X121712603Y-91798116D01*
X121688942Y-91801626D01*
X121665050Y-91802800D01*
X120752550Y-91802800D01*
X120728658Y-91801626D01*
X120704997Y-91798116D01*
X120681793Y-91792304D01*
X120659271Y-91784246D01*
X120637647Y-91774018D01*
X120617130Y-91761721D01*
X120597917Y-91747471D01*
X120580193Y-91731407D01*
X120564129Y-91713683D01*
X120549879Y-91694470D01*
X120537582Y-91673953D01*
X120527354Y-91652329D01*
X120519296Y-91629807D01*
X120513484Y-91606603D01*
X120509974Y-91582942D01*
X120508800Y-91559050D01*
X120508800Y-91071550D01*
X120509974Y-91047658D01*
X120513484Y-91023997D01*
X120519296Y-91000793D01*
X120527354Y-90978271D01*
X120537582Y-90956647D01*
X120549879Y-90936130D01*
X120564129Y-90916917D01*
X120580193Y-90899193D01*
X120597917Y-90883129D01*
X120617130Y-90868879D01*
X120637647Y-90856582D01*
X120659271Y-90846354D01*
X120681793Y-90838296D01*
X120704997Y-90832484D01*
X120728658Y-90828974D01*
X120752550Y-90827800D01*
X121665050Y-90827800D01*
X121688942Y-90828974D01*
X121688942Y-90828974D01*
G37*
D12*
G04 #@! TD*
G04 #@! TO.P,C5,2*
G04 #@! TO.N,GND*
X121208800Y-91315300D03*
D11*
G04 #@! TO.N,GND*
G04 #@! TO.C,C10*
G36*
X130426542Y-90574974D02*
X130450203Y-90578484D01*
X130473407Y-90584296D01*
X130495929Y-90592354D01*
X130517553Y-90602582D01*
X130538070Y-90614879D01*
X130557283Y-90629129D01*
X130575007Y-90645193D01*
X130591071Y-90662917D01*
X130605321Y-90682130D01*
X130617618Y-90702647D01*
X130627846Y-90724271D01*
X130635904Y-90746793D01*
X130641716Y-90769997D01*
X130645226Y-90793658D01*
X130646400Y-90817550D01*
X130646400Y-91305050D01*
X130645226Y-91328942D01*
X130641716Y-91352603D01*
X130635904Y-91375807D01*
X130627846Y-91398329D01*
X130617618Y-91419953D01*
X130605321Y-91440470D01*
X130591071Y-91459683D01*
X130575007Y-91477407D01*
X130557283Y-91493471D01*
X130538070Y-91507721D01*
X130517553Y-91520018D01*
X130495929Y-91530246D01*
X130473407Y-91538304D01*
X130450203Y-91544116D01*
X130426542Y-91547626D01*
X130402650Y-91548800D01*
X129490150Y-91548800D01*
X129466258Y-91547626D01*
X129442597Y-91544116D01*
X129419393Y-91538304D01*
X129396871Y-91530246D01*
X129375247Y-91520018D01*
X129354730Y-91507721D01*
X129335517Y-91493471D01*
X129317793Y-91477407D01*
X129301729Y-91459683D01*
X129287479Y-91440470D01*
X129275182Y-91419953D01*
X129264954Y-91398329D01*
X129256896Y-91375807D01*
X129251084Y-91352603D01*
X129247574Y-91328942D01*
X129246400Y-91305050D01*
X129246400Y-90817550D01*
X129247574Y-90793658D01*
X129251084Y-90769997D01*
X129256896Y-90746793D01*
X129264954Y-90724271D01*
X129275182Y-90702647D01*
X129287479Y-90682130D01*
X129301729Y-90662917D01*
X129317793Y-90645193D01*
X129335517Y-90629129D01*
X129354730Y-90614879D01*
X129375247Y-90602582D01*
X129396871Y-90592354D01*
X129419393Y-90584296D01*
X129442597Y-90578484D01*
X129466258Y-90574974D01*
X129490150Y-90573800D01*
X130402650Y-90573800D01*
X130426542Y-90574974D01*
X130426542Y-90574974D01*
G37*
D12*
G04 #@! TD*
G04 #@! TO.P,C10,2*
G04 #@! TO.N,GND*
X129946400Y-91061300D03*
D11*
G04 #@! TO.N,Net-(C10-Pad1)*
G04 #@! TO.C,C10*
G36*
X130426542Y-92449974D02*
X130450203Y-92453484D01*
X130473407Y-92459296D01*
X130495929Y-92467354D01*
X130517553Y-92477582D01*
X130538070Y-92489879D01*
X130557283Y-92504129D01*
X130575007Y-92520193D01*
X130591071Y-92537917D01*
X130605321Y-92557130D01*
X130617618Y-92577647D01*
X130627846Y-92599271D01*
X130635904Y-92621793D01*
X130641716Y-92644997D01*
X130645226Y-92668658D01*
X130646400Y-92692550D01*
X130646400Y-93180050D01*
X130645226Y-93203942D01*
X130641716Y-93227603D01*
X130635904Y-93250807D01*
X130627846Y-93273329D01*
X130617618Y-93294953D01*
X130605321Y-93315470D01*
X130591071Y-93334683D01*
X130575007Y-93352407D01*
X130557283Y-93368471D01*
X130538070Y-93382721D01*
X130517553Y-93395018D01*
X130495929Y-93405246D01*
X130473407Y-93413304D01*
X130450203Y-93419116D01*
X130426542Y-93422626D01*
X130402650Y-93423800D01*
X129490150Y-93423800D01*
X129466258Y-93422626D01*
X129442597Y-93419116D01*
X129419393Y-93413304D01*
X129396871Y-93405246D01*
X129375247Y-93395018D01*
X129354730Y-93382721D01*
X129335517Y-93368471D01*
X129317793Y-93352407D01*
X129301729Y-93334683D01*
X129287479Y-93315470D01*
X129275182Y-93294953D01*
X129264954Y-93273329D01*
X129256896Y-93250807D01*
X129251084Y-93227603D01*
X129247574Y-93203942D01*
X129246400Y-93180050D01*
X129246400Y-92692550D01*
X129247574Y-92668658D01*
X129251084Y-92644997D01*
X129256896Y-92621793D01*
X129264954Y-92599271D01*
X129275182Y-92577647D01*
X129287479Y-92557130D01*
X129301729Y-92537917D01*
X129317793Y-92520193D01*
X129335517Y-92504129D01*
X129354730Y-92489879D01*
X129375247Y-92477582D01*
X129396871Y-92467354D01*
X129419393Y-92459296D01*
X129442597Y-92453484D01*
X129466258Y-92449974D01*
X129490150Y-92448800D01*
X130402650Y-92448800D01*
X130426542Y-92449974D01*
X130426542Y-92449974D01*
G37*
D12*
G04 #@! TD*
G04 #@! TO.P,C10,1*
G04 #@! TO.N,Net-(C10-Pad1)*
X129946400Y-92936300D03*
D11*
G04 #@! TO.N,VCC*
G04 #@! TO.C,C13*
G36*
X123683942Y-95567174D02*
X123707603Y-95570684D01*
X123730807Y-95576496D01*
X123753329Y-95584554D01*
X123774953Y-95594782D01*
X123795470Y-95607079D01*
X123814683Y-95621329D01*
X123832407Y-95637393D01*
X123848471Y-95655117D01*
X123862721Y-95674330D01*
X123875018Y-95694847D01*
X123885246Y-95716471D01*
X123893304Y-95738993D01*
X123899116Y-95762197D01*
X123902626Y-95785858D01*
X123903800Y-95809750D01*
X123903800Y-96722250D01*
X123902626Y-96746142D01*
X123899116Y-96769803D01*
X123893304Y-96793007D01*
X123885246Y-96815529D01*
X123875018Y-96837153D01*
X123862721Y-96857670D01*
X123848471Y-96876883D01*
X123832407Y-96894607D01*
X123814683Y-96910671D01*
X123795470Y-96924921D01*
X123774953Y-96937218D01*
X123753329Y-96947446D01*
X123730807Y-96955504D01*
X123707603Y-96961316D01*
X123683942Y-96964826D01*
X123660050Y-96966000D01*
X123172550Y-96966000D01*
X123148658Y-96964826D01*
X123124997Y-96961316D01*
X123101793Y-96955504D01*
X123079271Y-96947446D01*
X123057647Y-96937218D01*
X123037130Y-96924921D01*
X123017917Y-96910671D01*
X123000193Y-96894607D01*
X122984129Y-96876883D01*
X122969879Y-96857670D01*
X122957582Y-96837153D01*
X122947354Y-96815529D01*
X122939296Y-96793007D01*
X122933484Y-96769803D01*
X122929974Y-96746142D01*
X122928800Y-96722250D01*
X122928800Y-95809750D01*
X122929974Y-95785858D01*
X122933484Y-95762197D01*
X122939296Y-95738993D01*
X122947354Y-95716471D01*
X122957582Y-95694847D01*
X122969879Y-95674330D01*
X122984129Y-95655117D01*
X123000193Y-95637393D01*
X123017917Y-95621329D01*
X123037130Y-95607079D01*
X123057647Y-95594782D01*
X123079271Y-95584554D01*
X123101793Y-95576496D01*
X123124997Y-95570684D01*
X123148658Y-95567174D01*
X123172550Y-95566000D01*
X123660050Y-95566000D01*
X123683942Y-95567174D01*
X123683942Y-95567174D01*
G37*
D12*
G04 #@! TD*
G04 #@! TO.P,C13,1*
G04 #@! TO.N,VCC*
X123416300Y-96266000D03*
D11*
G04 #@! TO.N,GND*
G04 #@! TO.C,C13*
G36*
X121808942Y-95567174D02*
X121832603Y-95570684D01*
X121855807Y-95576496D01*
X121878329Y-95584554D01*
X121899953Y-95594782D01*
X121920470Y-95607079D01*
X121939683Y-95621329D01*
X121957407Y-95637393D01*
X121973471Y-95655117D01*
X121987721Y-95674330D01*
X122000018Y-95694847D01*
X122010246Y-95716471D01*
X122018304Y-95738993D01*
X122024116Y-95762197D01*
X122027626Y-95785858D01*
X122028800Y-95809750D01*
X122028800Y-96722250D01*
X122027626Y-96746142D01*
X122024116Y-96769803D01*
X122018304Y-96793007D01*
X122010246Y-96815529D01*
X122000018Y-96837153D01*
X121987721Y-96857670D01*
X121973471Y-96876883D01*
X121957407Y-96894607D01*
X121939683Y-96910671D01*
X121920470Y-96924921D01*
X121899953Y-96937218D01*
X121878329Y-96947446D01*
X121855807Y-96955504D01*
X121832603Y-96961316D01*
X121808942Y-96964826D01*
X121785050Y-96966000D01*
X121297550Y-96966000D01*
X121273658Y-96964826D01*
X121249997Y-96961316D01*
X121226793Y-96955504D01*
X121204271Y-96947446D01*
X121182647Y-96937218D01*
X121162130Y-96924921D01*
X121142917Y-96910671D01*
X121125193Y-96894607D01*
X121109129Y-96876883D01*
X121094879Y-96857670D01*
X121082582Y-96837153D01*
X121072354Y-96815529D01*
X121064296Y-96793007D01*
X121058484Y-96769803D01*
X121054974Y-96746142D01*
X121053800Y-96722250D01*
X121053800Y-95809750D01*
X121054974Y-95785858D01*
X121058484Y-95762197D01*
X121064296Y-95738993D01*
X121072354Y-95716471D01*
X121082582Y-95694847D01*
X121094879Y-95674330D01*
X121109129Y-95655117D01*
X121125193Y-95637393D01*
X121142917Y-95621329D01*
X121162130Y-95607079D01*
X121182647Y-95594782D01*
X121204271Y-95584554D01*
X121226793Y-95576496D01*
X121249997Y-95570684D01*
X121273658Y-95567174D01*
X121297550Y-95566000D01*
X121785050Y-95566000D01*
X121808942Y-95567174D01*
X121808942Y-95567174D01*
G37*
D12*
G04 #@! TD*
G04 #@! TO.P,C13,2*
G04 #@! TO.N,GND*
X121541300Y-96266000D03*
D11*
G04 #@! TO.N,GND*
G04 #@! TO.C,C14*
G36*
X130477342Y-96463174D02*
X130501003Y-96466684D01*
X130524207Y-96472496D01*
X130546729Y-96480554D01*
X130568353Y-96490782D01*
X130588870Y-96503079D01*
X130608083Y-96517329D01*
X130625807Y-96533393D01*
X130641871Y-96551117D01*
X130656121Y-96570330D01*
X130668418Y-96590847D01*
X130678646Y-96612471D01*
X130686704Y-96634993D01*
X130692516Y-96658197D01*
X130696026Y-96681858D01*
X130697200Y-96705750D01*
X130697200Y-97193250D01*
X130696026Y-97217142D01*
X130692516Y-97240803D01*
X130686704Y-97264007D01*
X130678646Y-97286529D01*
X130668418Y-97308153D01*
X130656121Y-97328670D01*
X130641871Y-97347883D01*
X130625807Y-97365607D01*
X130608083Y-97381671D01*
X130588870Y-97395921D01*
X130568353Y-97408218D01*
X130546729Y-97418446D01*
X130524207Y-97426504D01*
X130501003Y-97432316D01*
X130477342Y-97435826D01*
X130453450Y-97437000D01*
X129540950Y-97437000D01*
X129517058Y-97435826D01*
X129493397Y-97432316D01*
X129470193Y-97426504D01*
X129447671Y-97418446D01*
X129426047Y-97408218D01*
X129405530Y-97395921D01*
X129386317Y-97381671D01*
X129368593Y-97365607D01*
X129352529Y-97347883D01*
X129338279Y-97328670D01*
X129325982Y-97308153D01*
X129315754Y-97286529D01*
X129307696Y-97264007D01*
X129301884Y-97240803D01*
X129298374Y-97217142D01*
X129297200Y-97193250D01*
X129297200Y-96705750D01*
X129298374Y-96681858D01*
X129301884Y-96658197D01*
X129307696Y-96634993D01*
X129315754Y-96612471D01*
X129325982Y-96590847D01*
X129338279Y-96570330D01*
X129352529Y-96551117D01*
X129368593Y-96533393D01*
X129386317Y-96517329D01*
X129405530Y-96503079D01*
X129426047Y-96490782D01*
X129447671Y-96480554D01*
X129470193Y-96472496D01*
X129493397Y-96466684D01*
X129517058Y-96463174D01*
X129540950Y-96462000D01*
X130453450Y-96462000D01*
X130477342Y-96463174D01*
X130477342Y-96463174D01*
G37*
D12*
G04 #@! TD*
G04 #@! TO.P,C14,2*
G04 #@! TO.N,GND*
X129997200Y-96949500D03*
D11*
G04 #@! TO.N,VCC*
G04 #@! TO.C,C14*
G36*
X130477342Y-94588174D02*
X130501003Y-94591684D01*
X130524207Y-94597496D01*
X130546729Y-94605554D01*
X130568353Y-94615782D01*
X130588870Y-94628079D01*
X130608083Y-94642329D01*
X130625807Y-94658393D01*
X130641871Y-94676117D01*
X130656121Y-94695330D01*
X130668418Y-94715847D01*
X130678646Y-94737471D01*
X130686704Y-94759993D01*
X130692516Y-94783197D01*
X130696026Y-94806858D01*
X130697200Y-94830750D01*
X130697200Y-95318250D01*
X130696026Y-95342142D01*
X130692516Y-95365803D01*
X130686704Y-95389007D01*
X130678646Y-95411529D01*
X130668418Y-95433153D01*
X130656121Y-95453670D01*
X130641871Y-95472883D01*
X130625807Y-95490607D01*
X130608083Y-95506671D01*
X130588870Y-95520921D01*
X130568353Y-95533218D01*
X130546729Y-95543446D01*
X130524207Y-95551504D01*
X130501003Y-95557316D01*
X130477342Y-95560826D01*
X130453450Y-95562000D01*
X129540950Y-95562000D01*
X129517058Y-95560826D01*
X129493397Y-95557316D01*
X129470193Y-95551504D01*
X129447671Y-95543446D01*
X129426047Y-95533218D01*
X129405530Y-95520921D01*
X129386317Y-95506671D01*
X129368593Y-95490607D01*
X129352529Y-95472883D01*
X129338279Y-95453670D01*
X129325982Y-95433153D01*
X129315754Y-95411529D01*
X129307696Y-95389007D01*
X129301884Y-95365803D01*
X129298374Y-95342142D01*
X129297200Y-95318250D01*
X129297200Y-94830750D01*
X129298374Y-94806858D01*
X129301884Y-94783197D01*
X129307696Y-94759993D01*
X129315754Y-94737471D01*
X129325982Y-94715847D01*
X129338279Y-94695330D01*
X129352529Y-94676117D01*
X129368593Y-94658393D01*
X129386317Y-94642329D01*
X129405530Y-94628079D01*
X129426047Y-94615782D01*
X129447671Y-94605554D01*
X129470193Y-94597496D01*
X129493397Y-94591684D01*
X129517058Y-94588174D01*
X129540950Y-94587000D01*
X130453450Y-94587000D01*
X130477342Y-94588174D01*
X130477342Y-94588174D01*
G37*
D12*
G04 #@! TD*
G04 #@! TO.P,C14,1*
G04 #@! TO.N,VCC*
X129997200Y-95074500D03*
D22*
G04 #@! TO.N,GND*
X109800000Y-84200000D03*
X108200000Y-81600000D03*
X119000000Y-85200000D03*
X115600000Y-85400000D03*
X113400000Y-79800000D03*
X132200000Y-76200000D03*
X103000000Y-78600000D03*
X103000000Y-83000000D03*
X132200000Y-81600000D03*
X110200000Y-79800000D03*
X119000000Y-80000000D03*
X119000000Y-76000000D03*
D23*
X126796800Y-56489600D03*
X125500000Y-60000000D03*
X125526800Y-52019200D03*
X106781600Y-102463600D03*
X109169200Y-101650800D03*
X120000000Y-67500000D03*
X121000000Y-66500000D03*
X116000000Y-67500000D03*
X115000000Y-66500000D03*
X112300000Y-89500000D03*
X121200000Y-90000000D03*
X126746000Y-82702400D03*
X134000000Y-126000000D03*
X134000000Y-124000000D03*
X134000000Y-122000000D03*
X134000000Y-120000000D03*
X134000000Y-118000000D03*
X134000000Y-116000000D03*
X134000000Y-114000000D03*
X134000000Y-112000000D03*
X134000000Y-110000000D03*
X134000000Y-108000000D03*
X134000000Y-106000000D03*
X134000000Y-104000000D03*
X124000000Y-128500000D03*
X134000000Y-132000000D03*
X134000000Y-130000000D03*
X134000000Y-128000000D03*
X134000000Y-83000000D03*
X134000000Y-81000000D03*
X134000000Y-79000000D03*
X134000000Y-77000000D03*
X134000000Y-75000000D03*
X134000000Y-73000000D03*
X134000000Y-71000000D03*
X134000000Y-69000000D03*
X134000000Y-67000000D03*
X113500000Y-66500000D03*
X113500000Y-68000000D03*
X113500000Y-69500000D03*
X113500000Y-71000000D03*
X113500000Y-72500000D03*
X113500000Y-74000000D03*
X113500000Y-75500000D03*
X112500000Y-76500000D03*
X111000000Y-76500000D03*
X109500000Y-76500000D03*
X108000000Y-76500000D03*
X106500000Y-76500000D03*
X105000000Y-76500000D03*
X103500000Y-76500000D03*
X102000000Y-76500000D03*
X101000000Y-77500000D03*
X101000000Y-131000000D03*
X101000000Y-129000000D03*
X101000000Y-127000000D03*
X101000000Y-125000000D03*
X101000000Y-123000000D03*
X101000000Y-121000000D03*
X101000000Y-119000000D03*
X101000000Y-117000000D03*
X101000000Y-115000000D03*
X101000000Y-113000000D03*
X101000000Y-111000000D03*
X101000000Y-109000000D03*
X101000000Y-107000000D03*
X101000000Y-105000000D03*
X101000000Y-103000000D03*
X101000000Y-101000000D03*
X101000000Y-99000000D03*
X101000000Y-97000000D03*
X101000000Y-95000000D03*
X101000000Y-93000000D03*
X101000000Y-91000000D03*
X101000000Y-89000000D03*
X101000000Y-87000000D03*
X101000000Y-85000000D03*
X101000000Y-83000000D03*
X101000000Y-81000000D03*
X101000000Y-79000000D03*
X113500000Y-60500000D03*
X113500000Y-59000000D03*
X113500000Y-57500000D03*
X113500000Y-56000000D03*
X113500000Y-54500000D03*
X113500000Y-53000000D03*
X113500000Y-51500000D03*
X113500000Y-50000000D03*
X113500000Y-48500000D03*
X113500000Y-47000000D03*
X118000000Y-47000000D03*
X116500000Y-47000000D03*
X115000000Y-47000000D03*
X117043200Y-93472000D03*
X121000000Y-128500000D03*
X119500000Y-107500000D03*
X119500000Y-111000000D03*
X124000000Y-115500000D03*
X127000000Y-75946000D03*
X124663200Y-85598000D03*
X129500000Y-54000000D03*
X133000000Y-51000000D03*
X133000000Y-54000000D03*
X133000000Y-57000000D03*
X133000000Y-60000000D03*
X129000000Y-60000000D03*
X129235200Y-84836000D03*
X125628400Y-93167200D03*
X124968000Y-94742000D03*
X124612400Y-105714800D03*
X132029200Y-94132400D03*
X119000000Y-60000000D03*
X119000000Y-57000000D03*
X119000000Y-54000000D03*
X119000000Y-51000000D03*
X113500000Y-62000000D03*
X109982000Y-91033600D03*
X110083600Y-98552000D03*
X129387600Y-89662000D03*
X124968000Y-89865200D03*
X121107200Y-94488000D03*
X126238000Y-98145600D03*
X101752400Y-106070400D03*
X106426000Y-104648000D03*
G04 #@! TO.N,VCC*
X106629200Y-87020400D03*
X119583200Y-102819200D03*
X123478800Y-96266000D03*
X129336800Y-94792800D03*
X121208800Y-93252800D03*
G04 #@! TO.N,/WIND_DIR*
X115976400Y-103530400D03*
X128066800Y-103530400D03*
G04 #@! TO.N,/MISO*
X121700000Y-60100000D03*
X116800000Y-90600000D03*
X113919000Y-89916000D03*
G04 #@! TO.N,/SCK*
X116992400Y-91592400D03*
X122400000Y-57300000D03*
X112000000Y-86600000D03*
G04 #@! TO.N,/MOSI*
X125018800Y-55575200D03*
G04 #@! TO.N,/RESET*
X115800000Y-91600000D03*
G04 #@! TO.N,/BME_SS*
X116000000Y-88000000D03*
X117000000Y-89000000D03*
G04 #@! TO.N,/RFM_SS*
X123037600Y-52476400D03*
X121818400Y-86918800D03*
G04 #@! TO.N,/RFM_RESET*
X128676400Y-95504000D03*
X122936000Y-51155600D03*
G04 #@! TO.N,/RFM_D0*
X126593600Y-95961200D03*
X126339600Y-84531200D03*
G04 #@! TO.N,/RFM_D1*
X127203200Y-84632800D03*
X127304800Y-95453200D03*
G04 #@! TO.N,/RFM_D2*
X128016000Y-84785200D03*
X127965200Y-96012000D03*
G04 #@! TO.N,Net-(D1-Pad2)*
X122478800Y-83058000D03*
X122478800Y-97790000D03*
G04 #@! TO.N,Net-(J11-Pad1)*
X124764800Y-82600800D03*
G04 #@! TO.N,Net-(C10-Pad1)*
X129900000Y-93200000D03*
G04 #@! TD*
D24*
G04 #@! TO.N,GND*
X109800000Y-83200000D02*
X109800000Y-84200000D01*
X108200000Y-81600000D02*
X109800000Y-83200000D01*
X115800000Y-85200000D02*
X119000000Y-85200000D01*
X115600000Y-85400000D02*
X115800000Y-85200000D01*
X103000000Y-83000000D02*
X103000000Y-78600000D01*
X134000000Y-79000000D02*
X134000000Y-79800000D01*
X134000000Y-79800000D02*
X132200000Y-81600000D01*
X113400000Y-79800000D02*
X110200000Y-79800000D01*
X113733600Y-79466400D02*
X113400000Y-79800000D01*
X116230400Y-79466400D02*
X113733600Y-79466400D01*
X119000000Y-76000000D02*
X119000000Y-80000000D01*
X118466400Y-79466400D02*
X116230400Y-79466400D01*
X119000000Y-80000000D02*
X118466400Y-79466400D01*
X129000000Y-60000000D02*
X129000000Y-58692800D01*
X129000000Y-58692800D02*
X126796800Y-56489600D01*
X125500000Y-60000000D02*
X129000000Y-60000000D01*
X106245200Y-103000000D02*
X106781600Y-102463600D01*
X101000000Y-103000000D02*
X106245200Y-103000000D01*
X121000000Y-66500000D02*
X120000000Y-67500000D01*
X115000000Y-66500000D02*
X116000000Y-67500000D01*
X121208800Y-91252800D02*
X121208800Y-90008800D01*
X121208800Y-90008800D02*
X121200000Y-90000000D01*
X134000000Y-104000000D02*
X134000000Y-106000000D01*
X134000000Y-126000000D02*
X134000000Y-124000000D01*
X134000000Y-122000000D02*
X134000000Y-120000000D01*
X134000000Y-118000000D02*
X134000000Y-116000000D01*
X134000000Y-114000000D02*
X134000000Y-112000000D01*
X134000000Y-110000000D02*
X134000000Y-108000000D01*
X124000000Y-128500000D02*
X133500000Y-128500000D01*
X134000000Y-130000000D02*
X134000000Y-132000000D01*
X133500000Y-128500000D02*
X134000000Y-128000000D01*
X133000000Y-60000000D02*
X133000000Y-66000000D01*
X134000000Y-81000000D02*
X134000000Y-83000000D01*
X134000000Y-77000000D02*
X134000000Y-79000000D01*
X134000000Y-73000000D02*
X134000000Y-75000000D01*
X134000000Y-69000000D02*
X134000000Y-71000000D01*
X133000000Y-66000000D02*
X134000000Y-67000000D01*
X101000000Y-77500000D02*
X101000000Y-78500000D01*
X113500000Y-68000000D02*
X113500000Y-69500000D01*
X113500000Y-71000000D02*
X113500000Y-72500000D01*
X113500000Y-74000000D02*
X113500000Y-75500000D01*
X112500000Y-76500000D02*
X111000000Y-76500000D01*
X109500000Y-76500000D02*
X108000000Y-76500000D01*
X106500000Y-76500000D02*
X105000000Y-76500000D01*
X103500000Y-76500000D02*
X102000000Y-76500000D01*
X113500000Y-62000000D02*
X113500000Y-66500000D01*
X101000000Y-129000000D02*
X101000000Y-131000000D01*
X101000000Y-128000000D02*
X101000000Y-127000000D01*
X101000000Y-125000000D02*
X101000000Y-128000000D01*
X101000000Y-121000000D02*
X101000000Y-123000000D01*
X101000000Y-117000000D02*
X101000000Y-119000000D01*
X101000000Y-113000000D02*
X101000000Y-115000000D01*
X101000000Y-109000000D02*
X101000000Y-111000000D01*
X101000000Y-105000000D02*
X101000000Y-107000000D01*
X101000000Y-101000000D02*
X101000000Y-103000000D01*
X101000000Y-97000000D02*
X101000000Y-99000000D01*
X101000000Y-93000000D02*
X101000000Y-95000000D01*
X101000000Y-89000000D02*
X101000000Y-91000000D01*
X101000000Y-85000000D02*
X101000000Y-87000000D01*
X101000000Y-81000000D02*
X101000000Y-83000000D01*
X101000000Y-78500000D02*
X101000000Y-79000000D01*
X113500000Y-47000000D02*
X115000000Y-47000000D01*
X113500000Y-59000000D02*
X113500000Y-57500000D01*
X113500000Y-56000000D02*
X113500000Y-54500000D01*
X113500000Y-53000000D02*
X113500000Y-51500000D01*
X113500000Y-50000000D02*
X113500000Y-48500000D01*
X113500000Y-62000000D02*
X113500000Y-60500000D01*
X116500000Y-47000000D02*
X118000000Y-47000000D01*
X124000000Y-128500000D02*
X124000000Y-115500000D01*
X121000000Y-128500000D02*
X124000000Y-128500000D01*
X119500000Y-111000000D02*
X119500000Y-107500000D01*
X128625600Y-82702400D02*
X129184400Y-82143600D01*
X129184400Y-82143600D02*
X129184400Y-78130400D01*
X129184400Y-78130400D02*
X127000000Y-75946000D01*
X125069600Y-84378800D02*
X126746000Y-82702400D01*
X125069600Y-85191600D02*
X125069600Y-84378800D01*
X124663200Y-85598000D02*
X125069600Y-85191600D01*
X126746000Y-82702400D02*
X128625600Y-82702400D01*
X133000000Y-54000000D02*
X129500000Y-54000000D01*
X133000000Y-51000000D02*
X133000000Y-54000000D01*
X133000000Y-57000000D02*
X133000000Y-60000000D01*
X129000000Y-60000000D02*
X127000000Y-60000000D01*
X125628400Y-93167200D02*
X125628400Y-94081600D01*
X125628400Y-94081600D02*
X124968000Y-94742000D01*
X132080000Y-94929200D02*
X129997200Y-97012000D01*
X132080000Y-94183200D02*
X132080000Y-94929200D01*
X132029200Y-94132400D02*
X132080000Y-94183200D01*
X119000000Y-60000000D02*
X119000000Y-57000000D01*
X119000000Y-54000000D02*
X119000000Y-51000000D01*
X121107200Y-94488000D02*
X121107200Y-94538800D01*
G04 #@! TO.N,VCC*
X106629200Y-87020400D02*
X106629200Y-87645200D01*
X107238800Y-101346000D02*
X108712000Y-102819200D01*
X119583200Y-102819200D02*
X115316000Y-102819200D01*
X102514400Y-101346000D02*
X107238800Y-101346000D01*
X108712000Y-102819200D02*
X115316000Y-102819200D01*
X123478800Y-98923600D02*
X119583200Y-102819200D01*
X123478800Y-96266000D02*
X123478800Y-98923600D01*
X129997200Y-95012000D02*
X129556000Y-95012000D01*
X129556000Y-95012000D02*
X129336800Y-94792800D01*
G04 #@! TO.N,/WIND_DIR*
X128066800Y-103530400D02*
X115976400Y-103530400D01*
G04 #@! TO.N,/MISO*
X116800000Y-90600000D02*
X120500000Y-86900000D01*
X121700000Y-76800000D02*
X121700000Y-60100000D01*
X120500000Y-78000000D02*
X121700000Y-76800000D01*
X120500000Y-86900000D02*
X120500000Y-78000000D01*
X116800000Y-90600000D02*
X116116000Y-89916000D01*
X116116000Y-89916000D02*
X113919000Y-89916000D01*
G04 #@! TO.N,/SCK*
X121158000Y-87426800D02*
X116992400Y-91592400D01*
X121158000Y-78242000D02*
X121158000Y-87426800D01*
X122400000Y-77000000D02*
X121158000Y-78242000D01*
X122400000Y-57300000D02*
X122400000Y-77000000D01*
X109067600Y-86563200D02*
X111963200Y-86563200D01*
X111963200Y-86563200D02*
X112000000Y-86600000D01*
G04 #@! TO.N,/MOSI*
X124002800Y-80518000D02*
X124002800Y-56591200D01*
X124002800Y-56591200D02*
X125018800Y-55575200D01*
G04 #@! TO.N,/RESET*
X103733600Y-88341200D02*
X105141200Y-88341200D01*
X105900000Y-90200000D02*
X106629200Y-90200000D01*
X105600000Y-89900000D02*
X105900000Y-90200000D01*
X105600000Y-88800000D02*
X105600000Y-89900000D01*
X105141200Y-88341200D02*
X105600000Y-88800000D01*
X115800000Y-91600000D02*
X114800000Y-90600000D01*
X114800000Y-90600000D02*
X111400000Y-90600000D01*
X111400000Y-90600000D02*
X111000000Y-90200000D01*
X111000000Y-90200000D02*
X106629200Y-90200000D01*
X106444800Y-91867000D02*
X106444800Y-97617000D01*
X103733600Y-88341200D02*
X104089200Y-88341200D01*
X106629200Y-89545200D02*
X106629200Y-90200000D01*
X106629200Y-90200000D02*
X106629200Y-91682600D01*
X106629200Y-91682600D02*
X106444800Y-91867000D01*
G04 #@! TO.N,/BME_SS*
X117000000Y-89000000D02*
X116000000Y-88000000D01*
G04 #@! TO.N,/RFM_SS*
X123037600Y-52476400D02*
X123037600Y-77262400D01*
X121818400Y-78481600D02*
X121818400Y-86918800D01*
X123037600Y-77262400D02*
X121818400Y-78481600D01*
G04 #@! TO.N,/RFM_RESET*
X128676400Y-95504000D02*
X128676400Y-88950800D01*
X128676400Y-56896000D02*
X122936000Y-51155600D01*
X130454400Y-58674000D02*
X128676400Y-56896000D01*
X130454400Y-87172800D02*
X130454400Y-58674000D01*
X128676400Y-88950800D02*
X130454400Y-87172800D01*
G04 #@! TO.N,/RFM_D0*
X126593600Y-84785200D02*
X126593600Y-95961200D01*
X126339600Y-84531200D02*
X126593600Y-84785200D01*
G04 #@! TO.N,/RFM_D1*
X127203200Y-84632800D02*
X127304800Y-84734400D01*
X127304800Y-84734400D02*
X127304800Y-95453200D01*
G04 #@! TO.N,/RFM_D2*
X128016000Y-84785200D02*
X127965200Y-84836000D01*
X127965200Y-84836000D02*
X127965200Y-96012000D01*
G04 #@! TO.N,Net-(D1-Pad1)*
X116250000Y-83000000D02*
X116250000Y-81386000D01*
X116250000Y-81386000D02*
X116230400Y-81366400D01*
G04 #@! TO.N,Net-(D1-Pad2)*
X122478800Y-96367600D02*
X122478800Y-83058000D01*
X122478800Y-97790000D02*
X122478800Y-96367600D01*
G04 #@! TO.N,Net-(J11-Pad1)*
X124764800Y-82600800D02*
X125476000Y-82600800D01*
X127406400Y-80670400D02*
X127406400Y-79400400D01*
X125476000Y-82600800D02*
X127406400Y-80670400D01*
G04 #@! TO.N,Net-(C10-Pad1)*
X129900000Y-93200000D02*
X129946400Y-93153600D01*
X129946400Y-93153600D02*
X129946400Y-92998800D01*
G04 #@! TD*
D25*
G04 #@! TO.N,GND*
G36*
X134290000Y-132290000D02*
X132569936Y-132290000D01*
X132598157Y-132247765D01*
X132647440Y-132000000D01*
X132647440Y-130000000D01*
X132598157Y-129752235D01*
X132457809Y-129542191D01*
X132247765Y-129401843D01*
X132000000Y-129352560D01*
X119000000Y-129352560D01*
X118752235Y-129401843D01*
X118542191Y-129542191D01*
X118401843Y-129752235D01*
X118352560Y-130000000D01*
X118352560Y-132000000D01*
X118401843Y-132247765D01*
X118430064Y-132290000D01*
X116567197Y-132290000D01*
X116635000Y-132126310D01*
X116635000Y-131285750D01*
X116476250Y-131127000D01*
X112627000Y-131127000D01*
X112627000Y-131147000D01*
X112373000Y-131147000D01*
X112373000Y-131127000D01*
X106627000Y-131127000D01*
X106627000Y-131147000D01*
X106373000Y-131147000D01*
X106373000Y-131127000D01*
X102523750Y-131127000D01*
X102365000Y-131285750D01*
X102365000Y-132126310D01*
X102432803Y-132290000D01*
X100710000Y-132290000D01*
X100710000Y-129873690D01*
X102365000Y-129873690D01*
X102365000Y-130714250D01*
X102523750Y-130873000D01*
X106373000Y-130873000D01*
X106373000Y-129523750D01*
X106627000Y-129523750D01*
X106627000Y-130873000D01*
X112373000Y-130873000D01*
X112373000Y-129523750D01*
X112627000Y-129523750D01*
X112627000Y-130873000D01*
X116476250Y-130873000D01*
X116635000Y-130714250D01*
X116635000Y-129873690D01*
X116538327Y-129640301D01*
X116359698Y-129461673D01*
X116126309Y-129365000D01*
X112785750Y-129365000D01*
X112627000Y-129523750D01*
X112373000Y-129523750D01*
X112214250Y-129365000D01*
X106785750Y-129365000D01*
X106627000Y-129523750D01*
X106373000Y-129523750D01*
X106214250Y-129365000D01*
X102873691Y-129365000D01*
X102640302Y-129461673D01*
X102461673Y-129640301D01*
X102365000Y-129873690D01*
X100710000Y-129873690D01*
X100710000Y-108796753D01*
X105750200Y-108796753D01*
X105750200Y-109423247D01*
X105989949Y-110002052D01*
X106432948Y-110445051D01*
X107011753Y-110684800D01*
X107333097Y-110684800D01*
X107259949Y-110757948D01*
X107020200Y-111336753D01*
X107020200Y-111963247D01*
X107259949Y-112542052D01*
X107702948Y-112985051D01*
X108281753Y-113224800D01*
X108908247Y-113224800D01*
X109487052Y-112985051D01*
X109713135Y-112758968D01*
X110205637Y-112758968D01*
X110296923Y-113019580D01*
X110884833Y-113236045D01*
X111510828Y-113211049D01*
X111973077Y-113019580D01*
X112064363Y-112758968D01*
X111135000Y-111829605D01*
X110205637Y-112758968D01*
X109713135Y-112758968D01*
X109927317Y-112544786D01*
X110026032Y-112579363D01*
X110955395Y-111650000D01*
X110941253Y-111635858D01*
X111120858Y-111456253D01*
X111135000Y-111470395D01*
X111149143Y-111456253D01*
X111328748Y-111635858D01*
X111314605Y-111650000D01*
X112243968Y-112579363D01*
X112342683Y-112544786D01*
X112782948Y-112985051D01*
X113361753Y-113224800D01*
X113988247Y-113224800D01*
X114567052Y-112985051D01*
X115010051Y-112542052D01*
X115249800Y-111963247D01*
X115249800Y-111336753D01*
X115010051Y-110757948D01*
X114567052Y-110314949D01*
X113988247Y-110075200D01*
X113549808Y-110075200D01*
X113513970Y-110039362D01*
X113774580Y-109948077D01*
X113991045Y-109360167D01*
X113968548Y-108796753D01*
X119750200Y-108796753D01*
X119750200Y-109423247D01*
X119989949Y-110002052D01*
X120432948Y-110445051D01*
X121011753Y-110684800D01*
X121333097Y-110684800D01*
X121259949Y-110757948D01*
X121020200Y-111336753D01*
X121020200Y-111963247D01*
X121259949Y-112542052D01*
X121702948Y-112985051D01*
X122281753Y-113224800D01*
X122908247Y-113224800D01*
X123487052Y-112985051D01*
X123713135Y-112758968D01*
X124205637Y-112758968D01*
X124296923Y-113019580D01*
X124884833Y-113236045D01*
X125510828Y-113211049D01*
X125973077Y-113019580D01*
X126064363Y-112758968D01*
X125135000Y-111829605D01*
X124205637Y-112758968D01*
X123713135Y-112758968D01*
X123927317Y-112544786D01*
X124026032Y-112579363D01*
X124955395Y-111650000D01*
X124941253Y-111635858D01*
X125120858Y-111456253D01*
X125135000Y-111470395D01*
X125149143Y-111456253D01*
X125328748Y-111635858D01*
X125314605Y-111650000D01*
X126243968Y-112579363D01*
X126342683Y-112544786D01*
X126782948Y-112985051D01*
X127361753Y-113224800D01*
X127988247Y-113224800D01*
X128567052Y-112985051D01*
X129010051Y-112542052D01*
X129249800Y-111963247D01*
X129249800Y-111336753D01*
X129010051Y-110757948D01*
X128567052Y-110314949D01*
X127988247Y-110075200D01*
X127666903Y-110075200D01*
X127740051Y-110002052D01*
X127979800Y-109423247D01*
X127979800Y-108796753D01*
X127740051Y-108217948D01*
X127297052Y-107774949D01*
X126718247Y-107535200D01*
X126091753Y-107535200D01*
X125512948Y-107774949D01*
X125135000Y-108152897D01*
X124757052Y-107774949D01*
X124178247Y-107535200D01*
X123551753Y-107535200D01*
X122972948Y-107774949D01*
X122595000Y-108152897D01*
X122217052Y-107774949D01*
X121638247Y-107535200D01*
X121011753Y-107535200D01*
X120432948Y-107774949D01*
X119989949Y-108217948D01*
X119750200Y-108796753D01*
X113968548Y-108796753D01*
X113966049Y-108734172D01*
X113774580Y-108271923D01*
X113513968Y-108180637D01*
X112584605Y-109110000D01*
X112598748Y-109124143D01*
X112419143Y-109303748D01*
X112405000Y-109289605D01*
X112390858Y-109303748D01*
X112211253Y-109124143D01*
X112225395Y-109110000D01*
X111296032Y-108180637D01*
X111197317Y-108215214D01*
X110983135Y-108001032D01*
X111475637Y-108001032D01*
X112405000Y-108930395D01*
X113334363Y-108001032D01*
X113243077Y-107740420D01*
X112655167Y-107523955D01*
X112029172Y-107548951D01*
X111566923Y-107740420D01*
X111475637Y-108001032D01*
X110983135Y-108001032D01*
X110757052Y-107774949D01*
X110178247Y-107535200D01*
X109551753Y-107535200D01*
X108972948Y-107774949D01*
X108595000Y-108152897D01*
X108217052Y-107774949D01*
X107638247Y-107535200D01*
X107011753Y-107535200D01*
X106432948Y-107774949D01*
X105989949Y-108217948D01*
X105750200Y-108796753D01*
X100710000Y-108796753D01*
X100710000Y-100496000D01*
X101016960Y-100496000D01*
X101016960Y-102196000D01*
X101066243Y-102443765D01*
X101206591Y-102653809D01*
X101416635Y-102794157D01*
X101664400Y-102843440D01*
X103364400Y-102843440D01*
X103612165Y-102794157D01*
X103822209Y-102653809D01*
X103962557Y-102443765D01*
X104011840Y-102196000D01*
X104011840Y-102106000D01*
X106923999Y-102106000D01*
X108121673Y-103303676D01*
X108164071Y-103367129D01*
X108227524Y-103409527D01*
X108227526Y-103409529D01*
X108340477Y-103485000D01*
X108415463Y-103535104D01*
X108637148Y-103579200D01*
X108637152Y-103579200D01*
X108711999Y-103594088D01*
X108786846Y-103579200D01*
X115041400Y-103579200D01*
X115041400Y-103716383D01*
X115183745Y-104060035D01*
X115446765Y-104323055D01*
X115790417Y-104465400D01*
X116162383Y-104465400D01*
X116506035Y-104323055D01*
X116538690Y-104290400D01*
X127504510Y-104290400D01*
X127537165Y-104323055D01*
X127880817Y-104465400D01*
X128252783Y-104465400D01*
X128596435Y-104323055D01*
X128859455Y-104060035D01*
X129001800Y-103716383D01*
X129001800Y-103344417D01*
X128859455Y-103000765D01*
X128738274Y-102879584D01*
X128938839Y-102579418D01*
X129054092Y-102000000D01*
X128938839Y-101420582D01*
X128610625Y-100929375D01*
X128119418Y-100601161D01*
X127686256Y-100515000D01*
X127393744Y-100515000D01*
X126960582Y-100601161D01*
X126469375Y-100929375D01*
X126457184Y-100947619D01*
X126448157Y-100902235D01*
X126307809Y-100692191D01*
X126097765Y-100551843D01*
X125850000Y-100502560D01*
X124150000Y-100502560D01*
X123902235Y-100551843D01*
X123692191Y-100692191D01*
X123551843Y-100902235D01*
X123502560Y-101150000D01*
X123502560Y-102770400D01*
X120706801Y-102770400D01*
X123963276Y-99513927D01*
X124026729Y-99471529D01*
X124069127Y-99408076D01*
X124069129Y-99408074D01*
X124194703Y-99220138D01*
X124194704Y-99220137D01*
X124238800Y-98998452D01*
X124238800Y-98998448D01*
X124253688Y-98923601D01*
X124238800Y-98848754D01*
X124238800Y-97386771D01*
X124290216Y-97352416D01*
X124368504Y-97235250D01*
X128662200Y-97235250D01*
X128662200Y-97563309D01*
X128758873Y-97796698D01*
X128937501Y-97975327D01*
X129170890Y-98072000D01*
X129711450Y-98072000D01*
X129870200Y-97913250D01*
X129870200Y-97076500D01*
X130124200Y-97076500D01*
X130124200Y-97913250D01*
X130282950Y-98072000D01*
X130823510Y-98072000D01*
X131056899Y-97975327D01*
X131235527Y-97796698D01*
X131332200Y-97563309D01*
X131332200Y-97235250D01*
X131173450Y-97076500D01*
X130124200Y-97076500D01*
X129870200Y-97076500D01*
X128820950Y-97076500D01*
X128662200Y-97235250D01*
X124368504Y-97235250D01*
X124483402Y-97063294D01*
X124551240Y-96722250D01*
X124551240Y-95809750D01*
X124483402Y-95468706D01*
X124290216Y-95179584D01*
X124001094Y-94986398D01*
X123660050Y-94918560D01*
X123238800Y-94918560D01*
X123238800Y-83620290D01*
X123271455Y-83587635D01*
X123413800Y-83243983D01*
X123413800Y-82872017D01*
X123271455Y-82528365D01*
X123008435Y-82265345D01*
X122664783Y-82123000D01*
X122578400Y-82123000D01*
X122578400Y-81651320D01*
X122694991Y-81825809D01*
X122905035Y-81966157D01*
X123152800Y-82015440D01*
X124027870Y-82015440D01*
X123972145Y-82071165D01*
X123829800Y-82414817D01*
X123829800Y-82786783D01*
X123972145Y-83130435D01*
X124235165Y-83393455D01*
X124578817Y-83535800D01*
X124950783Y-83535800D01*
X125294435Y-83393455D01*
X125327090Y-83360800D01*
X125401153Y-83360800D01*
X125476000Y-83375688D01*
X125550847Y-83360800D01*
X125550852Y-83360800D01*
X125772537Y-83316704D01*
X126023929Y-83148729D01*
X126066331Y-83085270D01*
X127890873Y-81260729D01*
X127954329Y-81218329D01*
X128122304Y-80966937D01*
X128136048Y-80897840D01*
X128256400Y-80897840D01*
X128504165Y-80848557D01*
X128714209Y-80708209D01*
X128854557Y-80498165D01*
X128903840Y-80250400D01*
X128903840Y-78550400D01*
X128854557Y-78302635D01*
X128714209Y-78092591D01*
X128504165Y-77952243D01*
X128256400Y-77902960D01*
X126556400Y-77902960D01*
X126308635Y-77952243D01*
X126098591Y-78092591D01*
X125958243Y-78302635D01*
X125908960Y-78550400D01*
X125908960Y-80250400D01*
X125958243Y-80498165D01*
X126098591Y-80708209D01*
X126215603Y-80786395D01*
X125467028Y-81534971D01*
X125500240Y-81368000D01*
X125500240Y-79668000D01*
X125450957Y-79420235D01*
X125310609Y-79210191D01*
X125100565Y-79069843D01*
X124852800Y-79020560D01*
X124762800Y-79020560D01*
X124762800Y-56906001D01*
X125158602Y-56510200D01*
X125204783Y-56510200D01*
X125548435Y-56367855D01*
X125811455Y-56104835D01*
X125953800Y-55761183D01*
X125953800Y-55389217D01*
X125854087Y-55148489D01*
X128191927Y-57486329D01*
X128191930Y-57486331D01*
X129694401Y-58988803D01*
X129694400Y-86857998D01*
X128725200Y-87827199D01*
X128725200Y-85398290D01*
X128808655Y-85314835D01*
X128951000Y-84971183D01*
X128951000Y-84599217D01*
X128808655Y-84255565D01*
X128545635Y-83992545D01*
X128201983Y-83850200D01*
X127830017Y-83850200D01*
X127768409Y-83875719D01*
X127732835Y-83840145D01*
X127389183Y-83697800D01*
X127017217Y-83697800D01*
X126883767Y-83753077D01*
X126869235Y-83738545D01*
X126525583Y-83596200D01*
X126153617Y-83596200D01*
X125809965Y-83738545D01*
X125546945Y-84001565D01*
X125404600Y-84345217D01*
X125404600Y-84717183D01*
X125546945Y-85060835D01*
X125809965Y-85323855D01*
X125833600Y-85333645D01*
X125833601Y-95398909D01*
X125800945Y-95431565D01*
X125658600Y-95775217D01*
X125658600Y-96147183D01*
X125800945Y-96490835D01*
X126063965Y-96753855D01*
X126407617Y-96896200D01*
X126779583Y-96896200D01*
X127123235Y-96753855D01*
X127254000Y-96623090D01*
X127435565Y-96804655D01*
X127779217Y-96947000D01*
X128151183Y-96947000D01*
X128494835Y-96804655D01*
X128662200Y-96637290D01*
X128662200Y-96663750D01*
X128820950Y-96822500D01*
X129870200Y-96822500D01*
X129870200Y-96802500D01*
X130124200Y-96802500D01*
X130124200Y-96822500D01*
X131173450Y-96822500D01*
X131332200Y-96663750D01*
X131332200Y-96335691D01*
X131235527Y-96102302D01*
X131082433Y-95949207D01*
X131083616Y-95948416D01*
X131276802Y-95659294D01*
X131344640Y-95318250D01*
X131344640Y-94830750D01*
X131276802Y-94489706D01*
X131083616Y-94200584D01*
X130794494Y-94007398D01*
X130750739Y-93998695D01*
X131032816Y-93810216D01*
X131226002Y-93521094D01*
X131293840Y-93180050D01*
X131293840Y-92692550D01*
X131226002Y-92351506D01*
X131032816Y-92062384D01*
X131031633Y-92061593D01*
X131184727Y-91908498D01*
X131281400Y-91675109D01*
X131281400Y-91347050D01*
X131122650Y-91188300D01*
X130073400Y-91188300D01*
X130073400Y-91208300D01*
X129819400Y-91208300D01*
X129819400Y-91188300D01*
X129799400Y-91188300D01*
X129799400Y-90934300D01*
X129819400Y-90934300D01*
X129819400Y-90097550D01*
X130073400Y-90097550D01*
X130073400Y-90934300D01*
X131122650Y-90934300D01*
X131281400Y-90775550D01*
X131281400Y-90447491D01*
X131184727Y-90214102D01*
X131006099Y-90035473D01*
X130772710Y-89938800D01*
X130232150Y-89938800D01*
X130073400Y-90097550D01*
X129819400Y-90097550D01*
X129660650Y-89938800D01*
X129436400Y-89938800D01*
X129436400Y-89265601D01*
X130938873Y-87763129D01*
X131002329Y-87720729D01*
X131072371Y-87615904D01*
X131170304Y-87469338D01*
X131182172Y-87409671D01*
X131214400Y-87247652D01*
X131214400Y-87247648D01*
X131229288Y-87172800D01*
X131214400Y-87097952D01*
X131214400Y-86841489D01*
X131306891Y-86879800D01*
X131997450Y-86879800D01*
X132156200Y-86721050D01*
X132156200Y-85521800D01*
X132410200Y-85521800D01*
X132410200Y-86721050D01*
X132568950Y-86879800D01*
X133259509Y-86879800D01*
X133492898Y-86783127D01*
X133671527Y-86604499D01*
X133768200Y-86371110D01*
X133768200Y-85680550D01*
X133609450Y-85521800D01*
X132410200Y-85521800D01*
X132156200Y-85521800D01*
X132136200Y-85521800D01*
X132136200Y-85267800D01*
X132156200Y-85267800D01*
X132156200Y-84068550D01*
X132410200Y-84068550D01*
X132410200Y-85267800D01*
X133609450Y-85267800D01*
X133768200Y-85109050D01*
X133768200Y-84418490D01*
X133671527Y-84185101D01*
X133492898Y-84006473D01*
X133259509Y-83909800D01*
X132568950Y-83909800D01*
X132410200Y-84068550D01*
X132156200Y-84068550D01*
X131997450Y-83909800D01*
X131306891Y-83909800D01*
X131214400Y-83948111D01*
X131214400Y-58748848D01*
X131229288Y-58674000D01*
X131214400Y-58599152D01*
X131214400Y-58599148D01*
X131170304Y-58377463D01*
X131170304Y-58377462D01*
X131044729Y-58189527D01*
X131002329Y-58126071D01*
X130938873Y-58083671D01*
X129266731Y-56411530D01*
X129266729Y-56411527D01*
X123871000Y-51015799D01*
X123871000Y-50969617D01*
X123728655Y-50625965D01*
X123465635Y-50362945D01*
X123121983Y-50220600D01*
X122750017Y-50220600D01*
X122406365Y-50362945D01*
X122143345Y-50625965D01*
X122001000Y-50969617D01*
X122001000Y-51341583D01*
X122143345Y-51685235D01*
X122324910Y-51866800D01*
X122244945Y-51946765D01*
X122102600Y-52290417D01*
X122102600Y-52662383D01*
X122244945Y-53006035D01*
X122277600Y-53038690D01*
X122277600Y-56365000D01*
X122214017Y-56365000D01*
X121870365Y-56507345D01*
X121607345Y-56770365D01*
X121465000Y-57114017D01*
X121465000Y-57485983D01*
X121607345Y-57829635D01*
X121640000Y-57862290D01*
X121640000Y-59165000D01*
X121514017Y-59165000D01*
X121170365Y-59307345D01*
X120907345Y-59570365D01*
X120765000Y-59914017D01*
X120765000Y-60285983D01*
X120907345Y-60629635D01*
X120940001Y-60662291D01*
X120940000Y-76485198D01*
X120015528Y-77409671D01*
X119952072Y-77452071D01*
X119909672Y-77515527D01*
X119909671Y-77515528D01*
X119784097Y-77703463D01*
X119725112Y-78000000D01*
X119740001Y-78074852D01*
X119740001Y-81779184D01*
X119659507Y-81698690D01*
X119095330Y-81465000D01*
X118484670Y-81465000D01*
X117920493Y-81698690D01*
X117751275Y-81867908D01*
X117748157Y-81852235D01*
X117607809Y-81642191D01*
X117573536Y-81619290D01*
X117577840Y-81597650D01*
X117577840Y-81110150D01*
X117510002Y-80769106D01*
X117316816Y-80479984D01*
X117315633Y-80479193D01*
X117468727Y-80326098D01*
X117565400Y-80092709D01*
X117565400Y-79764650D01*
X117406650Y-79605900D01*
X116357400Y-79605900D01*
X116357400Y-79625900D01*
X116103400Y-79625900D01*
X116103400Y-79605900D01*
X115054150Y-79605900D01*
X114895400Y-79764650D01*
X114895400Y-80092709D01*
X114992073Y-80326098D01*
X115145167Y-80479193D01*
X115143984Y-80479984D01*
X114950798Y-80769106D01*
X114882960Y-81110150D01*
X114882960Y-81597650D01*
X114891905Y-81642619D01*
X114751843Y-81852235D01*
X114702560Y-82100000D01*
X114702560Y-83900000D01*
X114751843Y-84147765D01*
X114892191Y-84357809D01*
X115102235Y-84498157D01*
X115350000Y-84547440D01*
X117150000Y-84547440D01*
X117397765Y-84498157D01*
X117607809Y-84357809D01*
X117748157Y-84147765D01*
X117751275Y-84132092D01*
X117920493Y-84301310D01*
X118484670Y-84535000D01*
X119095330Y-84535000D01*
X119659507Y-84301310D01*
X119740000Y-84220817D01*
X119740000Y-86585198D01*
X117810867Y-88514332D01*
X117792655Y-88470365D01*
X117529635Y-88207345D01*
X117185983Y-88065000D01*
X117139802Y-88065000D01*
X116935000Y-87860199D01*
X116935000Y-87814017D01*
X116792655Y-87470365D01*
X116529635Y-87207345D01*
X116185983Y-87065000D01*
X115814017Y-87065000D01*
X115470365Y-87207345D01*
X115207345Y-87470365D01*
X115065000Y-87814017D01*
X115065000Y-88185983D01*
X115207345Y-88529635D01*
X115470365Y-88792655D01*
X115814017Y-88935000D01*
X115860199Y-88935000D01*
X116065000Y-89139802D01*
X116065000Y-89151257D01*
X116041153Y-89156000D01*
X114481290Y-89156000D01*
X114448635Y-89123345D01*
X114104983Y-88981000D01*
X113733017Y-88981000D01*
X113389365Y-89123345D01*
X113126345Y-89386365D01*
X112984000Y-89730017D01*
X112984000Y-89840000D01*
X111714801Y-89840000D01*
X111590331Y-89715529D01*
X111547929Y-89652071D01*
X111296537Y-89484096D01*
X111074852Y-89440000D01*
X111074847Y-89440000D01*
X111000000Y-89425112D01*
X110925153Y-89440000D01*
X110869840Y-89440000D01*
X110869840Y-87999200D01*
X110820557Y-87751435D01*
X110790332Y-87706200D01*
X110820557Y-87660965D01*
X110869840Y-87413200D01*
X110869840Y-87323200D01*
X111400910Y-87323200D01*
X111470365Y-87392655D01*
X111814017Y-87535000D01*
X112185983Y-87535000D01*
X112529635Y-87392655D01*
X112792655Y-87129635D01*
X112935000Y-86785983D01*
X112935000Y-86414017D01*
X112792655Y-86070365D01*
X112529635Y-85807345D01*
X112185983Y-85665000D01*
X111814017Y-85665000D01*
X111480372Y-85803200D01*
X110869840Y-85803200D01*
X110869840Y-85713200D01*
X110820557Y-85465435D01*
X110680209Y-85255391D01*
X110470165Y-85115043D01*
X110222400Y-85065760D01*
X108522400Y-85065760D01*
X108274635Y-85115043D01*
X108064591Y-85255391D01*
X107924243Y-85465435D01*
X107874960Y-85713200D01*
X107874960Y-87022258D01*
X107715616Y-86783784D01*
X107477257Y-86624517D01*
X107421855Y-86490765D01*
X107158835Y-86227745D01*
X106815183Y-86085400D01*
X106443217Y-86085400D01*
X106099565Y-86227745D01*
X105836545Y-86490765D01*
X105781143Y-86624517D01*
X105542784Y-86783784D01*
X105349598Y-87072906D01*
X105281760Y-87413950D01*
X105281760Y-87594270D01*
X105231040Y-87584181D01*
X105231040Y-87491200D01*
X105181757Y-87243435D01*
X105041409Y-87033391D01*
X104831365Y-86893043D01*
X104583600Y-86843760D01*
X102883600Y-86843760D01*
X102635835Y-86893043D01*
X102425791Y-87033391D01*
X102285443Y-87243435D01*
X102236160Y-87491200D01*
X102236160Y-89191200D01*
X102285443Y-89438965D01*
X102425791Y-89649009D01*
X102635835Y-89789357D01*
X102883600Y-89838640D01*
X104583600Y-89838640D01*
X104831365Y-89789357D01*
X104840001Y-89783587D01*
X104840001Y-89825149D01*
X104825112Y-89900000D01*
X104884097Y-90196537D01*
X104987674Y-90351550D01*
X105052072Y-90447929D01*
X105115528Y-90490329D01*
X105297360Y-90672161D01*
X105297360Y-93242000D01*
X105346643Y-93489765D01*
X105486991Y-93699809D01*
X105684800Y-93831982D01*
X105684801Y-95652018D01*
X105486991Y-95784191D01*
X105346643Y-95994235D01*
X105297360Y-96242000D01*
X105297360Y-98992000D01*
X105346643Y-99239765D01*
X105486991Y-99449809D01*
X105697035Y-99590157D01*
X105944800Y-99639440D01*
X106944800Y-99639440D01*
X107192565Y-99590157D01*
X107402609Y-99449809D01*
X107542957Y-99239765D01*
X107592240Y-98992000D01*
X107592240Y-96551750D01*
X120418800Y-96551750D01*
X120418800Y-97092310D01*
X120515473Y-97325699D01*
X120694102Y-97504327D01*
X120927491Y-97601000D01*
X121255550Y-97601000D01*
X121414300Y-97442250D01*
X121414300Y-96393000D01*
X120577550Y-96393000D01*
X120418800Y-96551750D01*
X107592240Y-96551750D01*
X107592240Y-96242000D01*
X107542957Y-95994235D01*
X107402609Y-95784191D01*
X107204800Y-95652018D01*
X107204800Y-95439690D01*
X120418800Y-95439690D01*
X120418800Y-95980250D01*
X120577550Y-96139000D01*
X121414300Y-96139000D01*
X121414300Y-95089750D01*
X121255550Y-94931000D01*
X120927491Y-94931000D01*
X120694102Y-95027673D01*
X120515473Y-95206301D01*
X120418800Y-95439690D01*
X107204800Y-95439690D01*
X107204800Y-93831982D01*
X107402609Y-93699809D01*
X107542957Y-93489765D01*
X107592240Y-93242000D01*
X107592240Y-90960000D01*
X110685198Y-90960000D01*
X110809671Y-91084472D01*
X110852071Y-91147929D01*
X111103463Y-91315904D01*
X111325148Y-91360000D01*
X111325152Y-91360000D01*
X111399999Y-91374888D01*
X111474846Y-91360000D01*
X114485199Y-91360000D01*
X114865000Y-91739802D01*
X114865000Y-91785983D01*
X115007345Y-92129635D01*
X115270365Y-92392655D01*
X115614017Y-92535000D01*
X115985983Y-92535000D01*
X116329635Y-92392655D01*
X116400000Y-92322290D01*
X116462765Y-92385055D01*
X116806417Y-92527400D01*
X117178383Y-92527400D01*
X117522035Y-92385055D01*
X117785055Y-92122035D01*
X117927400Y-91778383D01*
X117927400Y-91732201D01*
X118958110Y-90701491D01*
X119873800Y-90701491D01*
X119873800Y-91029550D01*
X120032550Y-91188300D01*
X121081800Y-91188300D01*
X121081800Y-90351550D01*
X120923050Y-90192800D01*
X120382490Y-90192800D01*
X120149101Y-90289473D01*
X119970473Y-90468102D01*
X119873800Y-90701491D01*
X118958110Y-90701491D01*
X121642473Y-88017129D01*
X121705929Y-87974729D01*
X121718801Y-87955465D01*
X121718800Y-90192800D01*
X121494550Y-90192800D01*
X121335800Y-90351550D01*
X121335800Y-91188300D01*
X121355800Y-91188300D01*
X121355800Y-91442300D01*
X121335800Y-91442300D01*
X121335800Y-91462300D01*
X121081800Y-91462300D01*
X121081800Y-91442300D01*
X120032550Y-91442300D01*
X119873800Y-91601050D01*
X119873800Y-91929109D01*
X119970473Y-92162498D01*
X120123567Y-92315593D01*
X120122384Y-92316384D01*
X119929198Y-92605506D01*
X119861360Y-92946550D01*
X119861360Y-93434050D01*
X119929198Y-93775094D01*
X120122384Y-94064216D01*
X120411506Y-94257402D01*
X120752550Y-94325240D01*
X121665050Y-94325240D01*
X121718800Y-94314548D01*
X121718800Y-95039250D01*
X121668300Y-95089750D01*
X121668300Y-96139000D01*
X121688300Y-96139000D01*
X121688300Y-96393000D01*
X121668300Y-96393000D01*
X121668300Y-97303447D01*
X121543800Y-97604017D01*
X121543800Y-97975983D01*
X121686145Y-98319635D01*
X121949165Y-98582655D01*
X122292817Y-98725000D01*
X122602597Y-98725000D01*
X119443399Y-101884200D01*
X119397217Y-101884200D01*
X119053565Y-102026545D01*
X119020910Y-102059200D01*
X109026803Y-102059200D01*
X107829131Y-100861530D01*
X107786729Y-100798071D01*
X107535337Y-100630096D01*
X107313652Y-100586000D01*
X107313647Y-100586000D01*
X107238800Y-100571112D01*
X107163953Y-100586000D01*
X104011840Y-100586000D01*
X104011840Y-100496000D01*
X103962557Y-100248235D01*
X103822209Y-100038191D01*
X103612165Y-99897843D01*
X103364400Y-99848560D01*
X101664400Y-99848560D01*
X101416635Y-99897843D01*
X101206591Y-100038191D01*
X101066243Y-100248235D01*
X101016960Y-100496000D01*
X100710000Y-100496000D01*
X100710000Y-99683200D01*
X113462960Y-99683200D01*
X113462960Y-101383200D01*
X113512243Y-101630965D01*
X113652591Y-101841009D01*
X113862635Y-101981357D01*
X114110400Y-102030640D01*
X115810400Y-102030640D01*
X116058165Y-101981357D01*
X116268209Y-101841009D01*
X116408557Y-101630965D01*
X116417584Y-101585581D01*
X116429775Y-101603825D01*
X116920982Y-101932039D01*
X117354144Y-102018200D01*
X117646656Y-102018200D01*
X118079818Y-101932039D01*
X118571025Y-101603825D01*
X118899239Y-101112618D01*
X119014492Y-100533200D01*
X118899239Y-99953782D01*
X118571025Y-99462575D01*
X118079818Y-99134361D01*
X117646656Y-99048200D01*
X117354144Y-99048200D01*
X116920982Y-99134361D01*
X116429775Y-99462575D01*
X116417584Y-99480819D01*
X116408557Y-99435435D01*
X116268209Y-99225391D01*
X116058165Y-99085043D01*
X115810400Y-99035760D01*
X114110400Y-99035760D01*
X113862635Y-99085043D01*
X113652591Y-99225391D01*
X113512243Y-99435435D01*
X113462960Y-99683200D01*
X100710000Y-99683200D01*
X100710000Y-97902750D01*
X101309800Y-97902750D01*
X101309800Y-99118309D01*
X101406473Y-99351698D01*
X101585101Y-99530327D01*
X101818490Y-99627000D01*
X102159050Y-99627000D01*
X102317800Y-99468250D01*
X102317800Y-97744000D01*
X102571800Y-97744000D01*
X102571800Y-99468250D01*
X102730550Y-99627000D01*
X103071110Y-99627000D01*
X103304499Y-99530327D01*
X103483127Y-99351698D01*
X103579800Y-99118309D01*
X103579800Y-97902750D01*
X103421050Y-97744000D01*
X102571800Y-97744000D01*
X102317800Y-97744000D01*
X101468550Y-97744000D01*
X101309800Y-97902750D01*
X100710000Y-97902750D01*
X100710000Y-96115691D01*
X101309800Y-96115691D01*
X101309800Y-97331250D01*
X101468550Y-97490000D01*
X102317800Y-97490000D01*
X102317800Y-95765750D01*
X102571800Y-95765750D01*
X102571800Y-97490000D01*
X103421050Y-97490000D01*
X103579800Y-97331250D01*
X103579800Y-96115691D01*
X103483127Y-95882302D01*
X103304499Y-95703673D01*
X103071110Y-95607000D01*
X102730550Y-95607000D01*
X102571800Y-95765750D01*
X102317800Y-95765750D01*
X102159050Y-95607000D01*
X101818490Y-95607000D01*
X101585101Y-95703673D01*
X101406473Y-95882302D01*
X101309800Y-96115691D01*
X100710000Y-96115691D01*
X100710000Y-92152750D01*
X101309800Y-92152750D01*
X101309800Y-93368309D01*
X101406473Y-93601698D01*
X101585101Y-93780327D01*
X101818490Y-93877000D01*
X102159050Y-93877000D01*
X102317800Y-93718250D01*
X102317800Y-91994000D01*
X102571800Y-91994000D01*
X102571800Y-93718250D01*
X102730550Y-93877000D01*
X103071110Y-93877000D01*
X103304499Y-93780327D01*
X103483127Y-93601698D01*
X103579800Y-93368309D01*
X103579800Y-92152750D01*
X103421050Y-91994000D01*
X102571800Y-91994000D01*
X102317800Y-91994000D01*
X101468550Y-91994000D01*
X101309800Y-92152750D01*
X100710000Y-92152750D01*
X100710000Y-90365691D01*
X101309800Y-90365691D01*
X101309800Y-91581250D01*
X101468550Y-91740000D01*
X102317800Y-91740000D01*
X102317800Y-90015750D01*
X102571800Y-90015750D01*
X102571800Y-91740000D01*
X103421050Y-91740000D01*
X103579800Y-91581250D01*
X103579800Y-90365691D01*
X103483127Y-90132302D01*
X103304499Y-89953673D01*
X103071110Y-89857000D01*
X102730550Y-89857000D01*
X102571800Y-90015750D01*
X102317800Y-90015750D01*
X102159050Y-89857000D01*
X101818490Y-89857000D01*
X101585101Y-89953673D01*
X101406473Y-90132302D01*
X101309800Y-90365691D01*
X100710000Y-90365691D01*
X100710000Y-78865091D01*
X114895400Y-78865091D01*
X114895400Y-79193150D01*
X115054150Y-79351900D01*
X116103400Y-79351900D01*
X116103400Y-78515150D01*
X116357400Y-78515150D01*
X116357400Y-79351900D01*
X117406650Y-79351900D01*
X117565400Y-79193150D01*
X117565400Y-78865091D01*
X117468727Y-78631702D01*
X117290099Y-78453073D01*
X117056710Y-78356400D01*
X116516150Y-78356400D01*
X116357400Y-78515150D01*
X116103400Y-78515150D01*
X115944650Y-78356400D01*
X115404090Y-78356400D01*
X115170701Y-78453073D01*
X114992073Y-78631702D01*
X114895400Y-78865091D01*
X100710000Y-78865091D01*
X100710000Y-76127000D01*
X113000000Y-76127000D01*
X113048601Y-76117333D01*
X113089803Y-76089803D01*
X113117333Y-76048601D01*
X113127000Y-76000000D01*
X113127000Y-46710000D01*
X134290001Y-46710000D01*
X134290000Y-132290000D01*
X134290000Y-132290000D01*
G37*
X134290000Y-132290000D02*
X132569936Y-132290000D01*
X132598157Y-132247765D01*
X132647440Y-132000000D01*
X132647440Y-130000000D01*
X132598157Y-129752235D01*
X132457809Y-129542191D01*
X132247765Y-129401843D01*
X132000000Y-129352560D01*
X119000000Y-129352560D01*
X118752235Y-129401843D01*
X118542191Y-129542191D01*
X118401843Y-129752235D01*
X118352560Y-130000000D01*
X118352560Y-132000000D01*
X118401843Y-132247765D01*
X118430064Y-132290000D01*
X116567197Y-132290000D01*
X116635000Y-132126310D01*
X116635000Y-131285750D01*
X116476250Y-131127000D01*
X112627000Y-131127000D01*
X112627000Y-131147000D01*
X112373000Y-131147000D01*
X112373000Y-131127000D01*
X106627000Y-131127000D01*
X106627000Y-131147000D01*
X106373000Y-131147000D01*
X106373000Y-131127000D01*
X102523750Y-131127000D01*
X102365000Y-131285750D01*
X102365000Y-132126310D01*
X102432803Y-132290000D01*
X100710000Y-132290000D01*
X100710000Y-129873690D01*
X102365000Y-129873690D01*
X102365000Y-130714250D01*
X102523750Y-130873000D01*
X106373000Y-130873000D01*
X106373000Y-129523750D01*
X106627000Y-129523750D01*
X106627000Y-130873000D01*
X112373000Y-130873000D01*
X112373000Y-129523750D01*
X112627000Y-129523750D01*
X112627000Y-130873000D01*
X116476250Y-130873000D01*
X116635000Y-130714250D01*
X116635000Y-129873690D01*
X116538327Y-129640301D01*
X116359698Y-129461673D01*
X116126309Y-129365000D01*
X112785750Y-129365000D01*
X112627000Y-129523750D01*
X112373000Y-129523750D01*
X112214250Y-129365000D01*
X106785750Y-129365000D01*
X106627000Y-129523750D01*
X106373000Y-129523750D01*
X106214250Y-129365000D01*
X102873691Y-129365000D01*
X102640302Y-129461673D01*
X102461673Y-129640301D01*
X102365000Y-129873690D01*
X100710000Y-129873690D01*
X100710000Y-108796753D01*
X105750200Y-108796753D01*
X105750200Y-109423247D01*
X105989949Y-110002052D01*
X106432948Y-110445051D01*
X107011753Y-110684800D01*
X107333097Y-110684800D01*
X107259949Y-110757948D01*
X107020200Y-111336753D01*
X107020200Y-111963247D01*
X107259949Y-112542052D01*
X107702948Y-112985051D01*
X108281753Y-113224800D01*
X108908247Y-113224800D01*
X109487052Y-112985051D01*
X109713135Y-112758968D01*
X110205637Y-112758968D01*
X110296923Y-113019580D01*
X110884833Y-113236045D01*
X111510828Y-113211049D01*
X111973077Y-113019580D01*
X112064363Y-112758968D01*
X111135000Y-111829605D01*
X110205637Y-112758968D01*
X109713135Y-112758968D01*
X109927317Y-112544786D01*
X110026032Y-112579363D01*
X110955395Y-111650000D01*
X110941253Y-111635858D01*
X111120858Y-111456253D01*
X111135000Y-111470395D01*
X111149143Y-111456253D01*
X111328748Y-111635858D01*
X111314605Y-111650000D01*
X112243968Y-112579363D01*
X112342683Y-112544786D01*
X112782948Y-112985051D01*
X113361753Y-113224800D01*
X113988247Y-113224800D01*
X114567052Y-112985051D01*
X115010051Y-112542052D01*
X115249800Y-111963247D01*
X115249800Y-111336753D01*
X115010051Y-110757948D01*
X114567052Y-110314949D01*
X113988247Y-110075200D01*
X113549808Y-110075200D01*
X113513970Y-110039362D01*
X113774580Y-109948077D01*
X113991045Y-109360167D01*
X113968548Y-108796753D01*
X119750200Y-108796753D01*
X119750200Y-109423247D01*
X119989949Y-110002052D01*
X120432948Y-110445051D01*
X121011753Y-110684800D01*
X121333097Y-110684800D01*
X121259949Y-110757948D01*
X121020200Y-111336753D01*
X121020200Y-111963247D01*
X121259949Y-112542052D01*
X121702948Y-112985051D01*
X122281753Y-113224800D01*
X122908247Y-113224800D01*
X123487052Y-112985051D01*
X123713135Y-112758968D01*
X124205637Y-112758968D01*
X124296923Y-113019580D01*
X124884833Y-113236045D01*
X125510828Y-113211049D01*
X125973077Y-113019580D01*
X126064363Y-112758968D01*
X125135000Y-111829605D01*
X124205637Y-112758968D01*
X123713135Y-112758968D01*
X123927317Y-112544786D01*
X124026032Y-112579363D01*
X124955395Y-111650000D01*
X124941253Y-111635858D01*
X125120858Y-111456253D01*
X125135000Y-111470395D01*
X125149143Y-111456253D01*
X125328748Y-111635858D01*
X125314605Y-111650000D01*
X126243968Y-112579363D01*
X126342683Y-112544786D01*
X126782948Y-112985051D01*
X127361753Y-113224800D01*
X127988247Y-113224800D01*
X128567052Y-112985051D01*
X129010051Y-112542052D01*
X129249800Y-111963247D01*
X129249800Y-111336753D01*
X129010051Y-110757948D01*
X128567052Y-110314949D01*
X127988247Y-110075200D01*
X127666903Y-110075200D01*
X127740051Y-110002052D01*
X127979800Y-109423247D01*
X127979800Y-108796753D01*
X127740051Y-108217948D01*
X127297052Y-107774949D01*
X126718247Y-107535200D01*
X126091753Y-107535200D01*
X125512948Y-107774949D01*
X125135000Y-108152897D01*
X124757052Y-107774949D01*
X124178247Y-107535200D01*
X123551753Y-107535200D01*
X122972948Y-107774949D01*
X122595000Y-108152897D01*
X122217052Y-107774949D01*
X121638247Y-107535200D01*
X121011753Y-107535200D01*
X120432948Y-107774949D01*
X119989949Y-108217948D01*
X119750200Y-108796753D01*
X113968548Y-108796753D01*
X113966049Y-108734172D01*
X113774580Y-108271923D01*
X113513968Y-108180637D01*
X112584605Y-109110000D01*
X112598748Y-109124143D01*
X112419143Y-109303748D01*
X112405000Y-109289605D01*
X112390858Y-109303748D01*
X112211253Y-109124143D01*
X112225395Y-109110000D01*
X111296032Y-108180637D01*
X111197317Y-108215214D01*
X110983135Y-108001032D01*
X111475637Y-108001032D01*
X112405000Y-108930395D01*
X113334363Y-108001032D01*
X113243077Y-107740420D01*
X112655167Y-107523955D01*
X112029172Y-107548951D01*
X111566923Y-107740420D01*
X111475637Y-108001032D01*
X110983135Y-108001032D01*
X110757052Y-107774949D01*
X110178247Y-107535200D01*
X109551753Y-107535200D01*
X108972948Y-107774949D01*
X108595000Y-108152897D01*
X108217052Y-107774949D01*
X107638247Y-107535200D01*
X107011753Y-107535200D01*
X106432948Y-107774949D01*
X105989949Y-108217948D01*
X105750200Y-108796753D01*
X100710000Y-108796753D01*
X100710000Y-100496000D01*
X101016960Y-100496000D01*
X101016960Y-102196000D01*
X101066243Y-102443765D01*
X101206591Y-102653809D01*
X101416635Y-102794157D01*
X101664400Y-102843440D01*
X103364400Y-102843440D01*
X103612165Y-102794157D01*
X103822209Y-102653809D01*
X103962557Y-102443765D01*
X104011840Y-102196000D01*
X104011840Y-102106000D01*
X106923999Y-102106000D01*
X108121673Y-103303676D01*
X108164071Y-103367129D01*
X108227524Y-103409527D01*
X108227526Y-103409529D01*
X108340477Y-103485000D01*
X108415463Y-103535104D01*
X108637148Y-103579200D01*
X108637152Y-103579200D01*
X108711999Y-103594088D01*
X108786846Y-103579200D01*
X115041400Y-103579200D01*
X115041400Y-103716383D01*
X115183745Y-104060035D01*
X115446765Y-104323055D01*
X115790417Y-104465400D01*
X116162383Y-104465400D01*
X116506035Y-104323055D01*
X116538690Y-104290400D01*
X127504510Y-104290400D01*
X127537165Y-104323055D01*
X127880817Y-104465400D01*
X128252783Y-104465400D01*
X128596435Y-104323055D01*
X128859455Y-104060035D01*
X129001800Y-103716383D01*
X129001800Y-103344417D01*
X128859455Y-103000765D01*
X128738274Y-102879584D01*
X128938839Y-102579418D01*
X129054092Y-102000000D01*
X128938839Y-101420582D01*
X128610625Y-100929375D01*
X128119418Y-100601161D01*
X127686256Y-100515000D01*
X127393744Y-100515000D01*
X126960582Y-100601161D01*
X126469375Y-100929375D01*
X126457184Y-100947619D01*
X126448157Y-100902235D01*
X126307809Y-100692191D01*
X126097765Y-100551843D01*
X125850000Y-100502560D01*
X124150000Y-100502560D01*
X123902235Y-100551843D01*
X123692191Y-100692191D01*
X123551843Y-100902235D01*
X123502560Y-101150000D01*
X123502560Y-102770400D01*
X120706801Y-102770400D01*
X123963276Y-99513927D01*
X124026729Y-99471529D01*
X124069127Y-99408076D01*
X124069129Y-99408074D01*
X124194703Y-99220138D01*
X124194704Y-99220137D01*
X124238800Y-98998452D01*
X124238800Y-98998448D01*
X124253688Y-98923601D01*
X124238800Y-98848754D01*
X124238800Y-97386771D01*
X124290216Y-97352416D01*
X124368504Y-97235250D01*
X128662200Y-97235250D01*
X128662200Y-97563309D01*
X128758873Y-97796698D01*
X128937501Y-97975327D01*
X129170890Y-98072000D01*
X129711450Y-98072000D01*
X129870200Y-97913250D01*
X129870200Y-97076500D01*
X130124200Y-97076500D01*
X130124200Y-97913250D01*
X130282950Y-98072000D01*
X130823510Y-98072000D01*
X131056899Y-97975327D01*
X131235527Y-97796698D01*
X131332200Y-97563309D01*
X131332200Y-97235250D01*
X131173450Y-97076500D01*
X130124200Y-97076500D01*
X129870200Y-97076500D01*
X128820950Y-97076500D01*
X128662200Y-97235250D01*
X124368504Y-97235250D01*
X124483402Y-97063294D01*
X124551240Y-96722250D01*
X124551240Y-95809750D01*
X124483402Y-95468706D01*
X124290216Y-95179584D01*
X124001094Y-94986398D01*
X123660050Y-94918560D01*
X123238800Y-94918560D01*
X123238800Y-83620290D01*
X123271455Y-83587635D01*
X123413800Y-83243983D01*
X123413800Y-82872017D01*
X123271455Y-82528365D01*
X123008435Y-82265345D01*
X122664783Y-82123000D01*
X122578400Y-82123000D01*
X122578400Y-81651320D01*
X122694991Y-81825809D01*
X122905035Y-81966157D01*
X123152800Y-82015440D01*
X124027870Y-82015440D01*
X123972145Y-82071165D01*
X123829800Y-82414817D01*
X123829800Y-82786783D01*
X123972145Y-83130435D01*
X124235165Y-83393455D01*
X124578817Y-83535800D01*
X124950783Y-83535800D01*
X125294435Y-83393455D01*
X125327090Y-83360800D01*
X125401153Y-83360800D01*
X125476000Y-83375688D01*
X125550847Y-83360800D01*
X125550852Y-83360800D01*
X125772537Y-83316704D01*
X126023929Y-83148729D01*
X126066331Y-83085270D01*
X127890873Y-81260729D01*
X127954329Y-81218329D01*
X128122304Y-80966937D01*
X128136048Y-80897840D01*
X128256400Y-80897840D01*
X128504165Y-80848557D01*
X128714209Y-80708209D01*
X128854557Y-80498165D01*
X128903840Y-80250400D01*
X128903840Y-78550400D01*
X128854557Y-78302635D01*
X128714209Y-78092591D01*
X128504165Y-77952243D01*
X128256400Y-77902960D01*
X126556400Y-77902960D01*
X126308635Y-77952243D01*
X126098591Y-78092591D01*
X125958243Y-78302635D01*
X125908960Y-78550400D01*
X125908960Y-80250400D01*
X125958243Y-80498165D01*
X126098591Y-80708209D01*
X126215603Y-80786395D01*
X125467028Y-81534971D01*
X125500240Y-81368000D01*
X125500240Y-79668000D01*
X125450957Y-79420235D01*
X125310609Y-79210191D01*
X125100565Y-79069843D01*
X124852800Y-79020560D01*
X124762800Y-79020560D01*
X124762800Y-56906001D01*
X125158602Y-56510200D01*
X125204783Y-56510200D01*
X125548435Y-56367855D01*
X125811455Y-56104835D01*
X125953800Y-55761183D01*
X125953800Y-55389217D01*
X125854087Y-55148489D01*
X128191927Y-57486329D01*
X128191930Y-57486331D01*
X129694401Y-58988803D01*
X129694400Y-86857998D01*
X128725200Y-87827199D01*
X128725200Y-85398290D01*
X128808655Y-85314835D01*
X128951000Y-84971183D01*
X128951000Y-84599217D01*
X128808655Y-84255565D01*
X128545635Y-83992545D01*
X128201983Y-83850200D01*
X127830017Y-83850200D01*
X127768409Y-83875719D01*
X127732835Y-83840145D01*
X127389183Y-83697800D01*
X127017217Y-83697800D01*
X126883767Y-83753077D01*
X126869235Y-83738545D01*
X126525583Y-83596200D01*
X126153617Y-83596200D01*
X125809965Y-83738545D01*
X125546945Y-84001565D01*
X125404600Y-84345217D01*
X125404600Y-84717183D01*
X125546945Y-85060835D01*
X125809965Y-85323855D01*
X125833600Y-85333645D01*
X125833601Y-95398909D01*
X125800945Y-95431565D01*
X125658600Y-95775217D01*
X125658600Y-96147183D01*
X125800945Y-96490835D01*
X126063965Y-96753855D01*
X126407617Y-96896200D01*
X126779583Y-96896200D01*
X127123235Y-96753855D01*
X127254000Y-96623090D01*
X127435565Y-96804655D01*
X127779217Y-96947000D01*
X128151183Y-96947000D01*
X128494835Y-96804655D01*
X128662200Y-96637290D01*
X128662200Y-96663750D01*
X128820950Y-96822500D01*
X129870200Y-96822500D01*
X129870200Y-96802500D01*
X130124200Y-96802500D01*
X130124200Y-96822500D01*
X131173450Y-96822500D01*
X131332200Y-96663750D01*
X131332200Y-96335691D01*
X131235527Y-96102302D01*
X131082433Y-95949207D01*
X131083616Y-95948416D01*
X131276802Y-95659294D01*
X131344640Y-95318250D01*
X131344640Y-94830750D01*
X131276802Y-94489706D01*
X131083616Y-94200584D01*
X130794494Y-94007398D01*
X130750739Y-93998695D01*
X131032816Y-93810216D01*
X131226002Y-93521094D01*
X131293840Y-93180050D01*
X131293840Y-92692550D01*
X131226002Y-92351506D01*
X131032816Y-92062384D01*
X131031633Y-92061593D01*
X131184727Y-91908498D01*
X131281400Y-91675109D01*
X131281400Y-91347050D01*
X131122650Y-91188300D01*
X130073400Y-91188300D01*
X130073400Y-91208300D01*
X129819400Y-91208300D01*
X129819400Y-91188300D01*
X129799400Y-91188300D01*
X129799400Y-90934300D01*
X129819400Y-90934300D01*
X129819400Y-90097550D01*
X130073400Y-90097550D01*
X130073400Y-90934300D01*
X131122650Y-90934300D01*
X131281400Y-90775550D01*
X131281400Y-90447491D01*
X131184727Y-90214102D01*
X131006099Y-90035473D01*
X130772710Y-89938800D01*
X130232150Y-89938800D01*
X130073400Y-90097550D01*
X129819400Y-90097550D01*
X129660650Y-89938800D01*
X129436400Y-89938800D01*
X129436400Y-89265601D01*
X130938873Y-87763129D01*
X131002329Y-87720729D01*
X131072371Y-87615904D01*
X131170304Y-87469338D01*
X131182172Y-87409671D01*
X131214400Y-87247652D01*
X131214400Y-87247648D01*
X131229288Y-87172800D01*
X131214400Y-87097952D01*
X131214400Y-86841489D01*
X131306891Y-86879800D01*
X131997450Y-86879800D01*
X132156200Y-86721050D01*
X132156200Y-85521800D01*
X132410200Y-85521800D01*
X132410200Y-86721050D01*
X132568950Y-86879800D01*
X133259509Y-86879800D01*
X133492898Y-86783127D01*
X133671527Y-86604499D01*
X133768200Y-86371110D01*
X133768200Y-85680550D01*
X133609450Y-85521800D01*
X132410200Y-85521800D01*
X132156200Y-85521800D01*
X132136200Y-85521800D01*
X132136200Y-85267800D01*
X132156200Y-85267800D01*
X132156200Y-84068550D01*
X132410200Y-84068550D01*
X132410200Y-85267800D01*
X133609450Y-85267800D01*
X133768200Y-85109050D01*
X133768200Y-84418490D01*
X133671527Y-84185101D01*
X133492898Y-84006473D01*
X133259509Y-83909800D01*
X132568950Y-83909800D01*
X132410200Y-84068550D01*
X132156200Y-84068550D01*
X131997450Y-83909800D01*
X131306891Y-83909800D01*
X131214400Y-83948111D01*
X131214400Y-58748848D01*
X131229288Y-58674000D01*
X131214400Y-58599152D01*
X131214400Y-58599148D01*
X131170304Y-58377463D01*
X131170304Y-58377462D01*
X131044729Y-58189527D01*
X131002329Y-58126071D01*
X130938873Y-58083671D01*
X129266731Y-56411530D01*
X129266729Y-56411527D01*
X123871000Y-51015799D01*
X123871000Y-50969617D01*
X123728655Y-50625965D01*
X123465635Y-50362945D01*
X123121983Y-50220600D01*
X122750017Y-50220600D01*
X122406365Y-50362945D01*
X122143345Y-50625965D01*
X122001000Y-50969617D01*
X122001000Y-51341583D01*
X122143345Y-51685235D01*
X122324910Y-51866800D01*
X122244945Y-51946765D01*
X122102600Y-52290417D01*
X122102600Y-52662383D01*
X122244945Y-53006035D01*
X122277600Y-53038690D01*
X122277600Y-56365000D01*
X122214017Y-56365000D01*
X121870365Y-56507345D01*
X121607345Y-56770365D01*
X121465000Y-57114017D01*
X121465000Y-57485983D01*
X121607345Y-57829635D01*
X121640000Y-57862290D01*
X121640000Y-59165000D01*
X121514017Y-59165000D01*
X121170365Y-59307345D01*
X120907345Y-59570365D01*
X120765000Y-59914017D01*
X120765000Y-60285983D01*
X120907345Y-60629635D01*
X120940001Y-60662291D01*
X120940000Y-76485198D01*
X120015528Y-77409671D01*
X119952072Y-77452071D01*
X119909672Y-77515527D01*
X119909671Y-77515528D01*
X119784097Y-77703463D01*
X119725112Y-78000000D01*
X119740001Y-78074852D01*
X119740001Y-81779184D01*
X119659507Y-81698690D01*
X119095330Y-81465000D01*
X118484670Y-81465000D01*
X117920493Y-81698690D01*
X117751275Y-81867908D01*
X117748157Y-81852235D01*
X117607809Y-81642191D01*
X117573536Y-81619290D01*
X117577840Y-81597650D01*
X117577840Y-81110150D01*
X117510002Y-80769106D01*
X117316816Y-80479984D01*
X117315633Y-80479193D01*
X117468727Y-80326098D01*
X117565400Y-80092709D01*
X117565400Y-79764650D01*
X117406650Y-79605900D01*
X116357400Y-79605900D01*
X116357400Y-79625900D01*
X116103400Y-79625900D01*
X116103400Y-79605900D01*
X115054150Y-79605900D01*
X114895400Y-79764650D01*
X114895400Y-80092709D01*
X114992073Y-80326098D01*
X115145167Y-80479193D01*
X115143984Y-80479984D01*
X114950798Y-80769106D01*
X114882960Y-81110150D01*
X114882960Y-81597650D01*
X114891905Y-81642619D01*
X114751843Y-81852235D01*
X114702560Y-82100000D01*
X114702560Y-83900000D01*
X114751843Y-84147765D01*
X114892191Y-84357809D01*
X115102235Y-84498157D01*
X115350000Y-84547440D01*
X117150000Y-84547440D01*
X117397765Y-84498157D01*
X117607809Y-84357809D01*
X117748157Y-84147765D01*
X117751275Y-84132092D01*
X117920493Y-84301310D01*
X118484670Y-84535000D01*
X119095330Y-84535000D01*
X119659507Y-84301310D01*
X119740000Y-84220817D01*
X119740000Y-86585198D01*
X117810867Y-88514332D01*
X117792655Y-88470365D01*
X117529635Y-88207345D01*
X117185983Y-88065000D01*
X117139802Y-88065000D01*
X116935000Y-87860199D01*
X116935000Y-87814017D01*
X116792655Y-87470365D01*
X116529635Y-87207345D01*
X116185983Y-87065000D01*
X115814017Y-87065000D01*
X115470365Y-87207345D01*
X115207345Y-87470365D01*
X115065000Y-87814017D01*
X115065000Y-88185983D01*
X115207345Y-88529635D01*
X115470365Y-88792655D01*
X115814017Y-88935000D01*
X115860199Y-88935000D01*
X116065000Y-89139802D01*
X116065000Y-89151257D01*
X116041153Y-89156000D01*
X114481290Y-89156000D01*
X114448635Y-89123345D01*
X114104983Y-88981000D01*
X113733017Y-88981000D01*
X113389365Y-89123345D01*
X113126345Y-89386365D01*
X112984000Y-89730017D01*
X112984000Y-89840000D01*
X111714801Y-89840000D01*
X111590331Y-89715529D01*
X111547929Y-89652071D01*
X111296537Y-89484096D01*
X111074852Y-89440000D01*
X111074847Y-89440000D01*
X111000000Y-89425112D01*
X110925153Y-89440000D01*
X110869840Y-89440000D01*
X110869840Y-87999200D01*
X110820557Y-87751435D01*
X110790332Y-87706200D01*
X110820557Y-87660965D01*
X110869840Y-87413200D01*
X110869840Y-87323200D01*
X111400910Y-87323200D01*
X111470365Y-87392655D01*
X111814017Y-87535000D01*
X112185983Y-87535000D01*
X112529635Y-87392655D01*
X112792655Y-87129635D01*
X112935000Y-86785983D01*
X112935000Y-86414017D01*
X112792655Y-86070365D01*
X112529635Y-85807345D01*
X112185983Y-85665000D01*
X111814017Y-85665000D01*
X111480372Y-85803200D01*
X110869840Y-85803200D01*
X110869840Y-85713200D01*
X110820557Y-85465435D01*
X110680209Y-85255391D01*
X110470165Y-85115043D01*
X110222400Y-85065760D01*
X108522400Y-85065760D01*
X108274635Y-85115043D01*
X108064591Y-85255391D01*
X107924243Y-85465435D01*
X107874960Y-85713200D01*
X107874960Y-87022258D01*
X107715616Y-86783784D01*
X107477257Y-86624517D01*
X107421855Y-86490765D01*
X107158835Y-86227745D01*
X106815183Y-86085400D01*
X106443217Y-86085400D01*
X106099565Y-86227745D01*
X105836545Y-86490765D01*
X105781143Y-86624517D01*
X105542784Y-86783784D01*
X105349598Y-87072906D01*
X105281760Y-87413950D01*
X105281760Y-87594270D01*
X105231040Y-87584181D01*
X105231040Y-87491200D01*
X105181757Y-87243435D01*
X105041409Y-87033391D01*
X104831365Y-86893043D01*
X104583600Y-86843760D01*
X102883600Y-86843760D01*
X102635835Y-86893043D01*
X102425791Y-87033391D01*
X102285443Y-87243435D01*
X102236160Y-87491200D01*
X102236160Y-89191200D01*
X102285443Y-89438965D01*
X102425791Y-89649009D01*
X102635835Y-89789357D01*
X102883600Y-89838640D01*
X104583600Y-89838640D01*
X104831365Y-89789357D01*
X104840001Y-89783587D01*
X104840001Y-89825149D01*
X104825112Y-89900000D01*
X104884097Y-90196537D01*
X104987674Y-90351550D01*
X105052072Y-90447929D01*
X105115528Y-90490329D01*
X105297360Y-90672161D01*
X105297360Y-93242000D01*
X105346643Y-93489765D01*
X105486991Y-93699809D01*
X105684800Y-93831982D01*
X105684801Y-95652018D01*
X105486991Y-95784191D01*
X105346643Y-95994235D01*
X105297360Y-96242000D01*
X105297360Y-98992000D01*
X105346643Y-99239765D01*
X105486991Y-99449809D01*
X105697035Y-99590157D01*
X105944800Y-99639440D01*
X106944800Y-99639440D01*
X107192565Y-99590157D01*
X107402609Y-99449809D01*
X107542957Y-99239765D01*
X107592240Y-98992000D01*
X107592240Y-96551750D01*
X120418800Y-96551750D01*
X120418800Y-97092310D01*
X120515473Y-97325699D01*
X120694102Y-97504327D01*
X120927491Y-97601000D01*
X121255550Y-97601000D01*
X121414300Y-97442250D01*
X121414300Y-96393000D01*
X120577550Y-96393000D01*
X120418800Y-96551750D01*
X107592240Y-96551750D01*
X107592240Y-96242000D01*
X107542957Y-95994235D01*
X107402609Y-95784191D01*
X107204800Y-95652018D01*
X107204800Y-95439690D01*
X120418800Y-95439690D01*
X120418800Y-95980250D01*
X120577550Y-96139000D01*
X121414300Y-96139000D01*
X121414300Y-95089750D01*
X121255550Y-94931000D01*
X120927491Y-94931000D01*
X120694102Y-95027673D01*
X120515473Y-95206301D01*
X120418800Y-95439690D01*
X107204800Y-95439690D01*
X107204800Y-93831982D01*
X107402609Y-93699809D01*
X107542957Y-93489765D01*
X107592240Y-93242000D01*
X107592240Y-90960000D01*
X110685198Y-90960000D01*
X110809671Y-91084472D01*
X110852071Y-91147929D01*
X111103463Y-91315904D01*
X111325148Y-91360000D01*
X111325152Y-91360000D01*
X111399999Y-91374888D01*
X111474846Y-91360000D01*
X114485199Y-91360000D01*
X114865000Y-91739802D01*
X114865000Y-91785983D01*
X115007345Y-92129635D01*
X115270365Y-92392655D01*
X115614017Y-92535000D01*
X115985983Y-92535000D01*
X116329635Y-92392655D01*
X116400000Y-92322290D01*
X116462765Y-92385055D01*
X116806417Y-92527400D01*
X117178383Y-92527400D01*
X117522035Y-92385055D01*
X117785055Y-92122035D01*
X117927400Y-91778383D01*
X117927400Y-91732201D01*
X118958110Y-90701491D01*
X119873800Y-90701491D01*
X119873800Y-91029550D01*
X120032550Y-91188300D01*
X121081800Y-91188300D01*
X121081800Y-90351550D01*
X120923050Y-90192800D01*
X120382490Y-90192800D01*
X120149101Y-90289473D01*
X119970473Y-90468102D01*
X119873800Y-90701491D01*
X118958110Y-90701491D01*
X121642473Y-88017129D01*
X121705929Y-87974729D01*
X121718801Y-87955465D01*
X121718800Y-90192800D01*
X121494550Y-90192800D01*
X121335800Y-90351550D01*
X121335800Y-91188300D01*
X121355800Y-91188300D01*
X121355800Y-91442300D01*
X121335800Y-91442300D01*
X121335800Y-91462300D01*
X121081800Y-91462300D01*
X121081800Y-91442300D01*
X120032550Y-91442300D01*
X119873800Y-91601050D01*
X119873800Y-91929109D01*
X119970473Y-92162498D01*
X120123567Y-92315593D01*
X120122384Y-92316384D01*
X119929198Y-92605506D01*
X119861360Y-92946550D01*
X119861360Y-93434050D01*
X119929198Y-93775094D01*
X120122384Y-94064216D01*
X120411506Y-94257402D01*
X120752550Y-94325240D01*
X121665050Y-94325240D01*
X121718800Y-94314548D01*
X121718800Y-95039250D01*
X121668300Y-95089750D01*
X121668300Y-96139000D01*
X121688300Y-96139000D01*
X121688300Y-96393000D01*
X121668300Y-96393000D01*
X121668300Y-97303447D01*
X121543800Y-97604017D01*
X121543800Y-97975983D01*
X121686145Y-98319635D01*
X121949165Y-98582655D01*
X122292817Y-98725000D01*
X122602597Y-98725000D01*
X119443399Y-101884200D01*
X119397217Y-101884200D01*
X119053565Y-102026545D01*
X119020910Y-102059200D01*
X109026803Y-102059200D01*
X107829131Y-100861530D01*
X107786729Y-100798071D01*
X107535337Y-100630096D01*
X107313652Y-100586000D01*
X107313647Y-100586000D01*
X107238800Y-100571112D01*
X107163953Y-100586000D01*
X104011840Y-100586000D01*
X104011840Y-100496000D01*
X103962557Y-100248235D01*
X103822209Y-100038191D01*
X103612165Y-99897843D01*
X103364400Y-99848560D01*
X101664400Y-99848560D01*
X101416635Y-99897843D01*
X101206591Y-100038191D01*
X101066243Y-100248235D01*
X101016960Y-100496000D01*
X100710000Y-100496000D01*
X100710000Y-99683200D01*
X113462960Y-99683200D01*
X113462960Y-101383200D01*
X113512243Y-101630965D01*
X113652591Y-101841009D01*
X113862635Y-101981357D01*
X114110400Y-102030640D01*
X115810400Y-102030640D01*
X116058165Y-101981357D01*
X116268209Y-101841009D01*
X116408557Y-101630965D01*
X116417584Y-101585581D01*
X116429775Y-101603825D01*
X116920982Y-101932039D01*
X117354144Y-102018200D01*
X117646656Y-102018200D01*
X118079818Y-101932039D01*
X118571025Y-101603825D01*
X118899239Y-101112618D01*
X119014492Y-100533200D01*
X118899239Y-99953782D01*
X118571025Y-99462575D01*
X118079818Y-99134361D01*
X117646656Y-99048200D01*
X117354144Y-99048200D01*
X116920982Y-99134361D01*
X116429775Y-99462575D01*
X116417584Y-99480819D01*
X116408557Y-99435435D01*
X116268209Y-99225391D01*
X116058165Y-99085043D01*
X115810400Y-99035760D01*
X114110400Y-99035760D01*
X113862635Y-99085043D01*
X113652591Y-99225391D01*
X113512243Y-99435435D01*
X113462960Y-99683200D01*
X100710000Y-99683200D01*
X100710000Y-97902750D01*
X101309800Y-97902750D01*
X101309800Y-99118309D01*
X101406473Y-99351698D01*
X101585101Y-99530327D01*
X101818490Y-99627000D01*
X102159050Y-99627000D01*
X102317800Y-99468250D01*
X102317800Y-97744000D01*
X102571800Y-97744000D01*
X102571800Y-99468250D01*
X102730550Y-99627000D01*
X103071110Y-99627000D01*
X103304499Y-99530327D01*
X103483127Y-99351698D01*
X103579800Y-99118309D01*
X103579800Y-97902750D01*
X103421050Y-97744000D01*
X102571800Y-97744000D01*
X102317800Y-97744000D01*
X101468550Y-97744000D01*
X101309800Y-97902750D01*
X100710000Y-97902750D01*
X100710000Y-96115691D01*
X101309800Y-96115691D01*
X101309800Y-97331250D01*
X101468550Y-97490000D01*
X102317800Y-97490000D01*
X102317800Y-95765750D01*
X102571800Y-95765750D01*
X102571800Y-97490000D01*
X103421050Y-97490000D01*
X103579800Y-97331250D01*
X103579800Y-96115691D01*
X103483127Y-95882302D01*
X103304499Y-95703673D01*
X103071110Y-95607000D01*
X102730550Y-95607000D01*
X102571800Y-95765750D01*
X102317800Y-95765750D01*
X102159050Y-95607000D01*
X101818490Y-95607000D01*
X101585101Y-95703673D01*
X101406473Y-95882302D01*
X101309800Y-96115691D01*
X100710000Y-96115691D01*
X100710000Y-92152750D01*
X101309800Y-92152750D01*
X101309800Y-93368309D01*
X101406473Y-93601698D01*
X101585101Y-93780327D01*
X101818490Y-93877000D01*
X102159050Y-93877000D01*
X102317800Y-93718250D01*
X102317800Y-91994000D01*
X102571800Y-91994000D01*
X102571800Y-93718250D01*
X102730550Y-93877000D01*
X103071110Y-93877000D01*
X103304499Y-93780327D01*
X103483127Y-93601698D01*
X103579800Y-93368309D01*
X103579800Y-92152750D01*
X103421050Y-91994000D01*
X102571800Y-91994000D01*
X102317800Y-91994000D01*
X101468550Y-91994000D01*
X101309800Y-92152750D01*
X100710000Y-92152750D01*
X100710000Y-90365691D01*
X101309800Y-90365691D01*
X101309800Y-91581250D01*
X101468550Y-91740000D01*
X102317800Y-91740000D01*
X102317800Y-90015750D01*
X102571800Y-90015750D01*
X102571800Y-91740000D01*
X103421050Y-91740000D01*
X103579800Y-91581250D01*
X103579800Y-90365691D01*
X103483127Y-90132302D01*
X103304499Y-89953673D01*
X103071110Y-89857000D01*
X102730550Y-89857000D01*
X102571800Y-90015750D01*
X102317800Y-90015750D01*
X102159050Y-89857000D01*
X101818490Y-89857000D01*
X101585101Y-89953673D01*
X101406473Y-90132302D01*
X101309800Y-90365691D01*
X100710000Y-90365691D01*
X100710000Y-78865091D01*
X114895400Y-78865091D01*
X114895400Y-79193150D01*
X115054150Y-79351900D01*
X116103400Y-79351900D01*
X116103400Y-78515150D01*
X116357400Y-78515150D01*
X116357400Y-79351900D01*
X117406650Y-79351900D01*
X117565400Y-79193150D01*
X117565400Y-78865091D01*
X117468727Y-78631702D01*
X117290099Y-78453073D01*
X117056710Y-78356400D01*
X116516150Y-78356400D01*
X116357400Y-78515150D01*
X116103400Y-78515150D01*
X115944650Y-78356400D01*
X115404090Y-78356400D01*
X115170701Y-78453073D01*
X114992073Y-78631702D01*
X114895400Y-78865091D01*
X100710000Y-78865091D01*
X100710000Y-76127000D01*
X113000000Y-76127000D01*
X113048601Y-76117333D01*
X113089803Y-76089803D01*
X113117333Y-76048601D01*
X113127000Y-76000000D01*
X113127000Y-46710000D01*
X134290001Y-46710000D01*
X134290000Y-132290000D01*
G04 #@! TD*
M02*
