G04 #@! TF.GenerationSoftware,KiCad,Pcbnew,5.0.2-bee76a0~70~ubuntu18.04.1*
G04 #@! TF.CreationDate,2019-02-20T16:39:47+02:00*
G04 #@! TF.ProjectId,weerstasie,77656572-7374-4617-9369-652e6b696361,rev?*
G04 #@! TF.SameCoordinates,Original*
G04 #@! TF.FileFunction,Paste,Bot*
G04 #@! TF.FilePolarity,Positive*
%FSLAX46Y46*%
G04 Gerber Fmt 4.6, Leading zero omitted, Abs format (unit mm)*
G04 Created by KiCad (PCBNEW 5.0.2-bee76a0~70~ubuntu18.04.1) date Wed 20 Feb 2019 16:39:47 SAST*
%MOMM*%
%LPD*%
G01*
G04 APERTURE LIST*
%ADD10C,0.100000*%
%ADD11C,0.975000*%
%ADD12R,1.000000X2.750000*%
G04 APERTURE END LIST*
D10*
G04 #@! TO.C,R4*
G36*
X107109342Y-89046374D02*
X107133003Y-89049884D01*
X107156207Y-89055696D01*
X107178729Y-89063754D01*
X107200353Y-89073982D01*
X107220870Y-89086279D01*
X107240083Y-89100529D01*
X107257807Y-89116593D01*
X107273871Y-89134317D01*
X107288121Y-89153530D01*
X107300418Y-89174047D01*
X107310646Y-89195671D01*
X107318704Y-89218193D01*
X107324516Y-89241397D01*
X107328026Y-89265058D01*
X107329200Y-89288950D01*
X107329200Y-89776450D01*
X107328026Y-89800342D01*
X107324516Y-89824003D01*
X107318704Y-89847207D01*
X107310646Y-89869729D01*
X107300418Y-89891353D01*
X107288121Y-89911870D01*
X107273871Y-89931083D01*
X107257807Y-89948807D01*
X107240083Y-89964871D01*
X107220870Y-89979121D01*
X107200353Y-89991418D01*
X107178729Y-90001646D01*
X107156207Y-90009704D01*
X107133003Y-90015516D01*
X107109342Y-90019026D01*
X107085450Y-90020200D01*
X106172950Y-90020200D01*
X106149058Y-90019026D01*
X106125397Y-90015516D01*
X106102193Y-90009704D01*
X106079671Y-90001646D01*
X106058047Y-89991418D01*
X106037530Y-89979121D01*
X106018317Y-89964871D01*
X106000593Y-89948807D01*
X105984529Y-89931083D01*
X105970279Y-89911870D01*
X105957982Y-89891353D01*
X105947754Y-89869729D01*
X105939696Y-89847207D01*
X105933884Y-89824003D01*
X105930374Y-89800342D01*
X105929200Y-89776450D01*
X105929200Y-89288950D01*
X105930374Y-89265058D01*
X105933884Y-89241397D01*
X105939696Y-89218193D01*
X105947754Y-89195671D01*
X105957982Y-89174047D01*
X105970279Y-89153530D01*
X105984529Y-89134317D01*
X106000593Y-89116593D01*
X106018317Y-89100529D01*
X106037530Y-89086279D01*
X106058047Y-89073982D01*
X106079671Y-89063754D01*
X106102193Y-89055696D01*
X106125397Y-89049884D01*
X106149058Y-89046374D01*
X106172950Y-89045200D01*
X107085450Y-89045200D01*
X107109342Y-89046374D01*
X107109342Y-89046374D01*
G37*
D11*
X106629200Y-89532700D03*
D10*
G36*
X107109342Y-87171374D02*
X107133003Y-87174884D01*
X107156207Y-87180696D01*
X107178729Y-87188754D01*
X107200353Y-87198982D01*
X107220870Y-87211279D01*
X107240083Y-87225529D01*
X107257807Y-87241593D01*
X107273871Y-87259317D01*
X107288121Y-87278530D01*
X107300418Y-87299047D01*
X107310646Y-87320671D01*
X107318704Y-87343193D01*
X107324516Y-87366397D01*
X107328026Y-87390058D01*
X107329200Y-87413950D01*
X107329200Y-87901450D01*
X107328026Y-87925342D01*
X107324516Y-87949003D01*
X107318704Y-87972207D01*
X107310646Y-87994729D01*
X107300418Y-88016353D01*
X107288121Y-88036870D01*
X107273871Y-88056083D01*
X107257807Y-88073807D01*
X107240083Y-88089871D01*
X107220870Y-88104121D01*
X107200353Y-88116418D01*
X107178729Y-88126646D01*
X107156207Y-88134704D01*
X107133003Y-88140516D01*
X107109342Y-88144026D01*
X107085450Y-88145200D01*
X106172950Y-88145200D01*
X106149058Y-88144026D01*
X106125397Y-88140516D01*
X106102193Y-88134704D01*
X106079671Y-88126646D01*
X106058047Y-88116418D01*
X106037530Y-88104121D01*
X106018317Y-88089871D01*
X106000593Y-88073807D01*
X105984529Y-88056083D01*
X105970279Y-88036870D01*
X105957982Y-88016353D01*
X105947754Y-87994729D01*
X105939696Y-87972207D01*
X105933884Y-87949003D01*
X105930374Y-87925342D01*
X105929200Y-87901450D01*
X105929200Y-87413950D01*
X105930374Y-87390058D01*
X105933884Y-87366397D01*
X105939696Y-87343193D01*
X105947754Y-87320671D01*
X105957982Y-87299047D01*
X105970279Y-87278530D01*
X105984529Y-87259317D01*
X106000593Y-87241593D01*
X106018317Y-87225529D01*
X106037530Y-87211279D01*
X106058047Y-87198982D01*
X106079671Y-87188754D01*
X106102193Y-87180696D01*
X106125397Y-87174884D01*
X106149058Y-87171374D01*
X106172950Y-87170200D01*
X107085450Y-87170200D01*
X107109342Y-87171374D01*
X107109342Y-87171374D01*
G37*
D11*
X106629200Y-87657700D03*
G04 #@! TD*
D10*
G04 #@! TO.C,R5*
G36*
X116710542Y-80867574D02*
X116734203Y-80871084D01*
X116757407Y-80876896D01*
X116779929Y-80884954D01*
X116801553Y-80895182D01*
X116822070Y-80907479D01*
X116841283Y-80921729D01*
X116859007Y-80937793D01*
X116875071Y-80955517D01*
X116889321Y-80974730D01*
X116901618Y-80995247D01*
X116911846Y-81016871D01*
X116919904Y-81039393D01*
X116925716Y-81062597D01*
X116929226Y-81086258D01*
X116930400Y-81110150D01*
X116930400Y-81597650D01*
X116929226Y-81621542D01*
X116925716Y-81645203D01*
X116919904Y-81668407D01*
X116911846Y-81690929D01*
X116901618Y-81712553D01*
X116889321Y-81733070D01*
X116875071Y-81752283D01*
X116859007Y-81770007D01*
X116841283Y-81786071D01*
X116822070Y-81800321D01*
X116801553Y-81812618D01*
X116779929Y-81822846D01*
X116757407Y-81830904D01*
X116734203Y-81836716D01*
X116710542Y-81840226D01*
X116686650Y-81841400D01*
X115774150Y-81841400D01*
X115750258Y-81840226D01*
X115726597Y-81836716D01*
X115703393Y-81830904D01*
X115680871Y-81822846D01*
X115659247Y-81812618D01*
X115638730Y-81800321D01*
X115619517Y-81786071D01*
X115601793Y-81770007D01*
X115585729Y-81752283D01*
X115571479Y-81733070D01*
X115559182Y-81712553D01*
X115548954Y-81690929D01*
X115540896Y-81668407D01*
X115535084Y-81645203D01*
X115531574Y-81621542D01*
X115530400Y-81597650D01*
X115530400Y-81110150D01*
X115531574Y-81086258D01*
X115535084Y-81062597D01*
X115540896Y-81039393D01*
X115548954Y-81016871D01*
X115559182Y-80995247D01*
X115571479Y-80974730D01*
X115585729Y-80955517D01*
X115601793Y-80937793D01*
X115619517Y-80921729D01*
X115638730Y-80907479D01*
X115659247Y-80895182D01*
X115680871Y-80884954D01*
X115703393Y-80876896D01*
X115726597Y-80871084D01*
X115750258Y-80867574D01*
X115774150Y-80866400D01*
X116686650Y-80866400D01*
X116710542Y-80867574D01*
X116710542Y-80867574D01*
G37*
D11*
X116230400Y-81353900D03*
D10*
G36*
X116710542Y-78992574D02*
X116734203Y-78996084D01*
X116757407Y-79001896D01*
X116779929Y-79009954D01*
X116801553Y-79020182D01*
X116822070Y-79032479D01*
X116841283Y-79046729D01*
X116859007Y-79062793D01*
X116875071Y-79080517D01*
X116889321Y-79099730D01*
X116901618Y-79120247D01*
X116911846Y-79141871D01*
X116919904Y-79164393D01*
X116925716Y-79187597D01*
X116929226Y-79211258D01*
X116930400Y-79235150D01*
X116930400Y-79722650D01*
X116929226Y-79746542D01*
X116925716Y-79770203D01*
X116919904Y-79793407D01*
X116911846Y-79815929D01*
X116901618Y-79837553D01*
X116889321Y-79858070D01*
X116875071Y-79877283D01*
X116859007Y-79895007D01*
X116841283Y-79911071D01*
X116822070Y-79925321D01*
X116801553Y-79937618D01*
X116779929Y-79947846D01*
X116757407Y-79955904D01*
X116734203Y-79961716D01*
X116710542Y-79965226D01*
X116686650Y-79966400D01*
X115774150Y-79966400D01*
X115750258Y-79965226D01*
X115726597Y-79961716D01*
X115703393Y-79955904D01*
X115680871Y-79947846D01*
X115659247Y-79937618D01*
X115638730Y-79925321D01*
X115619517Y-79911071D01*
X115601793Y-79895007D01*
X115585729Y-79877283D01*
X115571479Y-79858070D01*
X115559182Y-79837553D01*
X115548954Y-79815929D01*
X115540896Y-79793407D01*
X115535084Y-79770203D01*
X115531574Y-79746542D01*
X115530400Y-79722650D01*
X115530400Y-79235150D01*
X115531574Y-79211258D01*
X115535084Y-79187597D01*
X115540896Y-79164393D01*
X115548954Y-79141871D01*
X115559182Y-79120247D01*
X115571479Y-79099730D01*
X115585729Y-79080517D01*
X115601793Y-79062793D01*
X115619517Y-79046729D01*
X115638730Y-79032479D01*
X115659247Y-79020182D01*
X115680871Y-79009954D01*
X115703393Y-79001896D01*
X115726597Y-78996084D01*
X115750258Y-78992574D01*
X115774150Y-78991400D01*
X116686650Y-78991400D01*
X116710542Y-78992574D01*
X116710542Y-78992574D01*
G37*
D11*
X116230400Y-79478900D03*
G04 #@! TD*
D12*
G04 #@! TO.C,SW1*
X102444800Y-91867000D03*
X102444800Y-97617000D03*
X106444800Y-97617000D03*
X106444800Y-91867000D03*
G04 #@! TD*
D10*
G04 #@! TO.C,C5*
G36*
X121688942Y-92703974D02*
X121712603Y-92707484D01*
X121735807Y-92713296D01*
X121758329Y-92721354D01*
X121779953Y-92731582D01*
X121800470Y-92743879D01*
X121819683Y-92758129D01*
X121837407Y-92774193D01*
X121853471Y-92791917D01*
X121867721Y-92811130D01*
X121880018Y-92831647D01*
X121890246Y-92853271D01*
X121898304Y-92875793D01*
X121904116Y-92898997D01*
X121907626Y-92922658D01*
X121908800Y-92946550D01*
X121908800Y-93434050D01*
X121907626Y-93457942D01*
X121904116Y-93481603D01*
X121898304Y-93504807D01*
X121890246Y-93527329D01*
X121880018Y-93548953D01*
X121867721Y-93569470D01*
X121853471Y-93588683D01*
X121837407Y-93606407D01*
X121819683Y-93622471D01*
X121800470Y-93636721D01*
X121779953Y-93649018D01*
X121758329Y-93659246D01*
X121735807Y-93667304D01*
X121712603Y-93673116D01*
X121688942Y-93676626D01*
X121665050Y-93677800D01*
X120752550Y-93677800D01*
X120728658Y-93676626D01*
X120704997Y-93673116D01*
X120681793Y-93667304D01*
X120659271Y-93659246D01*
X120637647Y-93649018D01*
X120617130Y-93636721D01*
X120597917Y-93622471D01*
X120580193Y-93606407D01*
X120564129Y-93588683D01*
X120549879Y-93569470D01*
X120537582Y-93548953D01*
X120527354Y-93527329D01*
X120519296Y-93504807D01*
X120513484Y-93481603D01*
X120509974Y-93457942D01*
X120508800Y-93434050D01*
X120508800Y-92946550D01*
X120509974Y-92922658D01*
X120513484Y-92898997D01*
X120519296Y-92875793D01*
X120527354Y-92853271D01*
X120537582Y-92831647D01*
X120549879Y-92811130D01*
X120564129Y-92791917D01*
X120580193Y-92774193D01*
X120597917Y-92758129D01*
X120617130Y-92743879D01*
X120637647Y-92731582D01*
X120659271Y-92721354D01*
X120681793Y-92713296D01*
X120704997Y-92707484D01*
X120728658Y-92703974D01*
X120752550Y-92702800D01*
X121665050Y-92702800D01*
X121688942Y-92703974D01*
X121688942Y-92703974D01*
G37*
D11*
X121208800Y-93190300D03*
D10*
G36*
X121688942Y-90828974D02*
X121712603Y-90832484D01*
X121735807Y-90838296D01*
X121758329Y-90846354D01*
X121779953Y-90856582D01*
X121800470Y-90868879D01*
X121819683Y-90883129D01*
X121837407Y-90899193D01*
X121853471Y-90916917D01*
X121867721Y-90936130D01*
X121880018Y-90956647D01*
X121890246Y-90978271D01*
X121898304Y-91000793D01*
X121904116Y-91023997D01*
X121907626Y-91047658D01*
X121908800Y-91071550D01*
X121908800Y-91559050D01*
X121907626Y-91582942D01*
X121904116Y-91606603D01*
X121898304Y-91629807D01*
X121890246Y-91652329D01*
X121880018Y-91673953D01*
X121867721Y-91694470D01*
X121853471Y-91713683D01*
X121837407Y-91731407D01*
X121819683Y-91747471D01*
X121800470Y-91761721D01*
X121779953Y-91774018D01*
X121758329Y-91784246D01*
X121735807Y-91792304D01*
X121712603Y-91798116D01*
X121688942Y-91801626D01*
X121665050Y-91802800D01*
X120752550Y-91802800D01*
X120728658Y-91801626D01*
X120704997Y-91798116D01*
X120681793Y-91792304D01*
X120659271Y-91784246D01*
X120637647Y-91774018D01*
X120617130Y-91761721D01*
X120597917Y-91747471D01*
X120580193Y-91731407D01*
X120564129Y-91713683D01*
X120549879Y-91694470D01*
X120537582Y-91673953D01*
X120527354Y-91652329D01*
X120519296Y-91629807D01*
X120513484Y-91606603D01*
X120509974Y-91582942D01*
X120508800Y-91559050D01*
X120508800Y-91071550D01*
X120509974Y-91047658D01*
X120513484Y-91023997D01*
X120519296Y-91000793D01*
X120527354Y-90978271D01*
X120537582Y-90956647D01*
X120549879Y-90936130D01*
X120564129Y-90916917D01*
X120580193Y-90899193D01*
X120597917Y-90883129D01*
X120617130Y-90868879D01*
X120637647Y-90856582D01*
X120659271Y-90846354D01*
X120681793Y-90838296D01*
X120704997Y-90832484D01*
X120728658Y-90828974D01*
X120752550Y-90827800D01*
X121665050Y-90827800D01*
X121688942Y-90828974D01*
X121688942Y-90828974D01*
G37*
D11*
X121208800Y-91315300D03*
G04 #@! TD*
D10*
G04 #@! TO.C,C10*
G36*
X130426542Y-90574974D02*
X130450203Y-90578484D01*
X130473407Y-90584296D01*
X130495929Y-90592354D01*
X130517553Y-90602582D01*
X130538070Y-90614879D01*
X130557283Y-90629129D01*
X130575007Y-90645193D01*
X130591071Y-90662917D01*
X130605321Y-90682130D01*
X130617618Y-90702647D01*
X130627846Y-90724271D01*
X130635904Y-90746793D01*
X130641716Y-90769997D01*
X130645226Y-90793658D01*
X130646400Y-90817550D01*
X130646400Y-91305050D01*
X130645226Y-91328942D01*
X130641716Y-91352603D01*
X130635904Y-91375807D01*
X130627846Y-91398329D01*
X130617618Y-91419953D01*
X130605321Y-91440470D01*
X130591071Y-91459683D01*
X130575007Y-91477407D01*
X130557283Y-91493471D01*
X130538070Y-91507721D01*
X130517553Y-91520018D01*
X130495929Y-91530246D01*
X130473407Y-91538304D01*
X130450203Y-91544116D01*
X130426542Y-91547626D01*
X130402650Y-91548800D01*
X129490150Y-91548800D01*
X129466258Y-91547626D01*
X129442597Y-91544116D01*
X129419393Y-91538304D01*
X129396871Y-91530246D01*
X129375247Y-91520018D01*
X129354730Y-91507721D01*
X129335517Y-91493471D01*
X129317793Y-91477407D01*
X129301729Y-91459683D01*
X129287479Y-91440470D01*
X129275182Y-91419953D01*
X129264954Y-91398329D01*
X129256896Y-91375807D01*
X129251084Y-91352603D01*
X129247574Y-91328942D01*
X129246400Y-91305050D01*
X129246400Y-90817550D01*
X129247574Y-90793658D01*
X129251084Y-90769997D01*
X129256896Y-90746793D01*
X129264954Y-90724271D01*
X129275182Y-90702647D01*
X129287479Y-90682130D01*
X129301729Y-90662917D01*
X129317793Y-90645193D01*
X129335517Y-90629129D01*
X129354730Y-90614879D01*
X129375247Y-90602582D01*
X129396871Y-90592354D01*
X129419393Y-90584296D01*
X129442597Y-90578484D01*
X129466258Y-90574974D01*
X129490150Y-90573800D01*
X130402650Y-90573800D01*
X130426542Y-90574974D01*
X130426542Y-90574974D01*
G37*
D11*
X129946400Y-91061300D03*
D10*
G36*
X130426542Y-92449974D02*
X130450203Y-92453484D01*
X130473407Y-92459296D01*
X130495929Y-92467354D01*
X130517553Y-92477582D01*
X130538070Y-92489879D01*
X130557283Y-92504129D01*
X130575007Y-92520193D01*
X130591071Y-92537917D01*
X130605321Y-92557130D01*
X130617618Y-92577647D01*
X130627846Y-92599271D01*
X130635904Y-92621793D01*
X130641716Y-92644997D01*
X130645226Y-92668658D01*
X130646400Y-92692550D01*
X130646400Y-93180050D01*
X130645226Y-93203942D01*
X130641716Y-93227603D01*
X130635904Y-93250807D01*
X130627846Y-93273329D01*
X130617618Y-93294953D01*
X130605321Y-93315470D01*
X130591071Y-93334683D01*
X130575007Y-93352407D01*
X130557283Y-93368471D01*
X130538070Y-93382721D01*
X130517553Y-93395018D01*
X130495929Y-93405246D01*
X130473407Y-93413304D01*
X130450203Y-93419116D01*
X130426542Y-93422626D01*
X130402650Y-93423800D01*
X129490150Y-93423800D01*
X129466258Y-93422626D01*
X129442597Y-93419116D01*
X129419393Y-93413304D01*
X129396871Y-93405246D01*
X129375247Y-93395018D01*
X129354730Y-93382721D01*
X129335517Y-93368471D01*
X129317793Y-93352407D01*
X129301729Y-93334683D01*
X129287479Y-93315470D01*
X129275182Y-93294953D01*
X129264954Y-93273329D01*
X129256896Y-93250807D01*
X129251084Y-93227603D01*
X129247574Y-93203942D01*
X129246400Y-93180050D01*
X129246400Y-92692550D01*
X129247574Y-92668658D01*
X129251084Y-92644997D01*
X129256896Y-92621793D01*
X129264954Y-92599271D01*
X129275182Y-92577647D01*
X129287479Y-92557130D01*
X129301729Y-92537917D01*
X129317793Y-92520193D01*
X129335517Y-92504129D01*
X129354730Y-92489879D01*
X129375247Y-92477582D01*
X129396871Y-92467354D01*
X129419393Y-92459296D01*
X129442597Y-92453484D01*
X129466258Y-92449974D01*
X129490150Y-92448800D01*
X130402650Y-92448800D01*
X130426542Y-92449974D01*
X130426542Y-92449974D01*
G37*
D11*
X129946400Y-92936300D03*
G04 #@! TD*
D10*
G04 #@! TO.C,C13*
G36*
X123683942Y-95567174D02*
X123707603Y-95570684D01*
X123730807Y-95576496D01*
X123753329Y-95584554D01*
X123774953Y-95594782D01*
X123795470Y-95607079D01*
X123814683Y-95621329D01*
X123832407Y-95637393D01*
X123848471Y-95655117D01*
X123862721Y-95674330D01*
X123875018Y-95694847D01*
X123885246Y-95716471D01*
X123893304Y-95738993D01*
X123899116Y-95762197D01*
X123902626Y-95785858D01*
X123903800Y-95809750D01*
X123903800Y-96722250D01*
X123902626Y-96746142D01*
X123899116Y-96769803D01*
X123893304Y-96793007D01*
X123885246Y-96815529D01*
X123875018Y-96837153D01*
X123862721Y-96857670D01*
X123848471Y-96876883D01*
X123832407Y-96894607D01*
X123814683Y-96910671D01*
X123795470Y-96924921D01*
X123774953Y-96937218D01*
X123753329Y-96947446D01*
X123730807Y-96955504D01*
X123707603Y-96961316D01*
X123683942Y-96964826D01*
X123660050Y-96966000D01*
X123172550Y-96966000D01*
X123148658Y-96964826D01*
X123124997Y-96961316D01*
X123101793Y-96955504D01*
X123079271Y-96947446D01*
X123057647Y-96937218D01*
X123037130Y-96924921D01*
X123017917Y-96910671D01*
X123000193Y-96894607D01*
X122984129Y-96876883D01*
X122969879Y-96857670D01*
X122957582Y-96837153D01*
X122947354Y-96815529D01*
X122939296Y-96793007D01*
X122933484Y-96769803D01*
X122929974Y-96746142D01*
X122928800Y-96722250D01*
X122928800Y-95809750D01*
X122929974Y-95785858D01*
X122933484Y-95762197D01*
X122939296Y-95738993D01*
X122947354Y-95716471D01*
X122957582Y-95694847D01*
X122969879Y-95674330D01*
X122984129Y-95655117D01*
X123000193Y-95637393D01*
X123017917Y-95621329D01*
X123037130Y-95607079D01*
X123057647Y-95594782D01*
X123079271Y-95584554D01*
X123101793Y-95576496D01*
X123124997Y-95570684D01*
X123148658Y-95567174D01*
X123172550Y-95566000D01*
X123660050Y-95566000D01*
X123683942Y-95567174D01*
X123683942Y-95567174D01*
G37*
D11*
X123416300Y-96266000D03*
D10*
G36*
X121808942Y-95567174D02*
X121832603Y-95570684D01*
X121855807Y-95576496D01*
X121878329Y-95584554D01*
X121899953Y-95594782D01*
X121920470Y-95607079D01*
X121939683Y-95621329D01*
X121957407Y-95637393D01*
X121973471Y-95655117D01*
X121987721Y-95674330D01*
X122000018Y-95694847D01*
X122010246Y-95716471D01*
X122018304Y-95738993D01*
X122024116Y-95762197D01*
X122027626Y-95785858D01*
X122028800Y-95809750D01*
X122028800Y-96722250D01*
X122027626Y-96746142D01*
X122024116Y-96769803D01*
X122018304Y-96793007D01*
X122010246Y-96815529D01*
X122000018Y-96837153D01*
X121987721Y-96857670D01*
X121973471Y-96876883D01*
X121957407Y-96894607D01*
X121939683Y-96910671D01*
X121920470Y-96924921D01*
X121899953Y-96937218D01*
X121878329Y-96947446D01*
X121855807Y-96955504D01*
X121832603Y-96961316D01*
X121808942Y-96964826D01*
X121785050Y-96966000D01*
X121297550Y-96966000D01*
X121273658Y-96964826D01*
X121249997Y-96961316D01*
X121226793Y-96955504D01*
X121204271Y-96947446D01*
X121182647Y-96937218D01*
X121162130Y-96924921D01*
X121142917Y-96910671D01*
X121125193Y-96894607D01*
X121109129Y-96876883D01*
X121094879Y-96857670D01*
X121082582Y-96837153D01*
X121072354Y-96815529D01*
X121064296Y-96793007D01*
X121058484Y-96769803D01*
X121054974Y-96746142D01*
X121053800Y-96722250D01*
X121053800Y-95809750D01*
X121054974Y-95785858D01*
X121058484Y-95762197D01*
X121064296Y-95738993D01*
X121072354Y-95716471D01*
X121082582Y-95694847D01*
X121094879Y-95674330D01*
X121109129Y-95655117D01*
X121125193Y-95637393D01*
X121142917Y-95621329D01*
X121162130Y-95607079D01*
X121182647Y-95594782D01*
X121204271Y-95584554D01*
X121226793Y-95576496D01*
X121249997Y-95570684D01*
X121273658Y-95567174D01*
X121297550Y-95566000D01*
X121785050Y-95566000D01*
X121808942Y-95567174D01*
X121808942Y-95567174D01*
G37*
D11*
X121541300Y-96266000D03*
G04 #@! TD*
D10*
G04 #@! TO.C,C14*
G36*
X130477342Y-96463174D02*
X130501003Y-96466684D01*
X130524207Y-96472496D01*
X130546729Y-96480554D01*
X130568353Y-96490782D01*
X130588870Y-96503079D01*
X130608083Y-96517329D01*
X130625807Y-96533393D01*
X130641871Y-96551117D01*
X130656121Y-96570330D01*
X130668418Y-96590847D01*
X130678646Y-96612471D01*
X130686704Y-96634993D01*
X130692516Y-96658197D01*
X130696026Y-96681858D01*
X130697200Y-96705750D01*
X130697200Y-97193250D01*
X130696026Y-97217142D01*
X130692516Y-97240803D01*
X130686704Y-97264007D01*
X130678646Y-97286529D01*
X130668418Y-97308153D01*
X130656121Y-97328670D01*
X130641871Y-97347883D01*
X130625807Y-97365607D01*
X130608083Y-97381671D01*
X130588870Y-97395921D01*
X130568353Y-97408218D01*
X130546729Y-97418446D01*
X130524207Y-97426504D01*
X130501003Y-97432316D01*
X130477342Y-97435826D01*
X130453450Y-97437000D01*
X129540950Y-97437000D01*
X129517058Y-97435826D01*
X129493397Y-97432316D01*
X129470193Y-97426504D01*
X129447671Y-97418446D01*
X129426047Y-97408218D01*
X129405530Y-97395921D01*
X129386317Y-97381671D01*
X129368593Y-97365607D01*
X129352529Y-97347883D01*
X129338279Y-97328670D01*
X129325982Y-97308153D01*
X129315754Y-97286529D01*
X129307696Y-97264007D01*
X129301884Y-97240803D01*
X129298374Y-97217142D01*
X129297200Y-97193250D01*
X129297200Y-96705750D01*
X129298374Y-96681858D01*
X129301884Y-96658197D01*
X129307696Y-96634993D01*
X129315754Y-96612471D01*
X129325982Y-96590847D01*
X129338279Y-96570330D01*
X129352529Y-96551117D01*
X129368593Y-96533393D01*
X129386317Y-96517329D01*
X129405530Y-96503079D01*
X129426047Y-96490782D01*
X129447671Y-96480554D01*
X129470193Y-96472496D01*
X129493397Y-96466684D01*
X129517058Y-96463174D01*
X129540950Y-96462000D01*
X130453450Y-96462000D01*
X130477342Y-96463174D01*
X130477342Y-96463174D01*
G37*
D11*
X129997200Y-96949500D03*
D10*
G36*
X130477342Y-94588174D02*
X130501003Y-94591684D01*
X130524207Y-94597496D01*
X130546729Y-94605554D01*
X130568353Y-94615782D01*
X130588870Y-94628079D01*
X130608083Y-94642329D01*
X130625807Y-94658393D01*
X130641871Y-94676117D01*
X130656121Y-94695330D01*
X130668418Y-94715847D01*
X130678646Y-94737471D01*
X130686704Y-94759993D01*
X130692516Y-94783197D01*
X130696026Y-94806858D01*
X130697200Y-94830750D01*
X130697200Y-95318250D01*
X130696026Y-95342142D01*
X130692516Y-95365803D01*
X130686704Y-95389007D01*
X130678646Y-95411529D01*
X130668418Y-95433153D01*
X130656121Y-95453670D01*
X130641871Y-95472883D01*
X130625807Y-95490607D01*
X130608083Y-95506671D01*
X130588870Y-95520921D01*
X130568353Y-95533218D01*
X130546729Y-95543446D01*
X130524207Y-95551504D01*
X130501003Y-95557316D01*
X130477342Y-95560826D01*
X130453450Y-95562000D01*
X129540950Y-95562000D01*
X129517058Y-95560826D01*
X129493397Y-95557316D01*
X129470193Y-95551504D01*
X129447671Y-95543446D01*
X129426047Y-95533218D01*
X129405530Y-95520921D01*
X129386317Y-95506671D01*
X129368593Y-95490607D01*
X129352529Y-95472883D01*
X129338279Y-95453670D01*
X129325982Y-95433153D01*
X129315754Y-95411529D01*
X129307696Y-95389007D01*
X129301884Y-95365803D01*
X129298374Y-95342142D01*
X129297200Y-95318250D01*
X129297200Y-94830750D01*
X129298374Y-94806858D01*
X129301884Y-94783197D01*
X129307696Y-94759993D01*
X129315754Y-94737471D01*
X129325982Y-94715847D01*
X129338279Y-94695330D01*
X129352529Y-94676117D01*
X129368593Y-94658393D01*
X129386317Y-94642329D01*
X129405530Y-94628079D01*
X129426047Y-94615782D01*
X129447671Y-94605554D01*
X129470193Y-94597496D01*
X129493397Y-94591684D01*
X129517058Y-94588174D01*
X129540950Y-94587000D01*
X130453450Y-94587000D01*
X130477342Y-94588174D01*
X130477342Y-94588174D01*
G37*
D11*
X129997200Y-95074500D03*
G04 #@! TD*
M02*
