G04 #@! TF.GenerationSoftware,KiCad,Pcbnew,5.0.2-bee76a0~70~ubuntu18.04.1*
G04 #@! TF.CreationDate,2019-02-20T16:39:47+02:00*
G04 #@! TF.ProjectId,weerstasie,77656572-7374-4617-9369-652e6b696361,rev?*
G04 #@! TF.SameCoordinates,Original*
G04 #@! TF.FileFunction,Paste,Top*
G04 #@! TF.FilePolarity,Positive*
%FSLAX46Y46*%
G04 Gerber Fmt 4.6, Leading zero omitted, Abs format (unit mm)*
G04 Created by KiCad (PCBNEW 5.0.2-bee76a0~70~ubuntu18.04.1) date Wed 20 Feb 2019 16:39:47 SAST*
%MOMM*%
%LPD*%
G01*
G04 APERTURE LIST*
%ADD10C,0.100000*%
%ADD11C,0.975000*%
%ADD12R,1.200000X3.000000*%
%ADD13R,1.500000X0.550000*%
%ADD14R,0.550000X1.500000*%
%ADD15R,1.800000X2.100000*%
%ADD16R,0.350000X0.700000*%
%ADD17C,1.879600*%
%ADD18C,1.000000*%
G04 APERTURE END LIST*
D10*
G04 #@! TO.C,R1*
G36*
X120077142Y-105015974D02*
X120100803Y-105019484D01*
X120124007Y-105025296D01*
X120146529Y-105033354D01*
X120168153Y-105043582D01*
X120188670Y-105055879D01*
X120207883Y-105070129D01*
X120225607Y-105086193D01*
X120241671Y-105103917D01*
X120255921Y-105123130D01*
X120268218Y-105143647D01*
X120278446Y-105165271D01*
X120286504Y-105187793D01*
X120292316Y-105210997D01*
X120295826Y-105234658D01*
X120297000Y-105258550D01*
X120297000Y-106171050D01*
X120295826Y-106194942D01*
X120292316Y-106218603D01*
X120286504Y-106241807D01*
X120278446Y-106264329D01*
X120268218Y-106285953D01*
X120255921Y-106306470D01*
X120241671Y-106325683D01*
X120225607Y-106343407D01*
X120207883Y-106359471D01*
X120188670Y-106373721D01*
X120168153Y-106386018D01*
X120146529Y-106396246D01*
X120124007Y-106404304D01*
X120100803Y-106410116D01*
X120077142Y-106413626D01*
X120053250Y-106414800D01*
X119565750Y-106414800D01*
X119541858Y-106413626D01*
X119518197Y-106410116D01*
X119494993Y-106404304D01*
X119472471Y-106396246D01*
X119450847Y-106386018D01*
X119430330Y-106373721D01*
X119411117Y-106359471D01*
X119393393Y-106343407D01*
X119377329Y-106325683D01*
X119363079Y-106306470D01*
X119350782Y-106285953D01*
X119340554Y-106264329D01*
X119332496Y-106241807D01*
X119326684Y-106218603D01*
X119323174Y-106194942D01*
X119322000Y-106171050D01*
X119322000Y-105258550D01*
X119323174Y-105234658D01*
X119326684Y-105210997D01*
X119332496Y-105187793D01*
X119340554Y-105165271D01*
X119350782Y-105143647D01*
X119363079Y-105123130D01*
X119377329Y-105103917D01*
X119393393Y-105086193D01*
X119411117Y-105070129D01*
X119430330Y-105055879D01*
X119450847Y-105043582D01*
X119472471Y-105033354D01*
X119494993Y-105025296D01*
X119518197Y-105019484D01*
X119541858Y-105015974D01*
X119565750Y-105014800D01*
X120053250Y-105014800D01*
X120077142Y-105015974D01*
X120077142Y-105015974D01*
G37*
D11*
X119809500Y-105714800D03*
D10*
G36*
X118202142Y-105015974D02*
X118225803Y-105019484D01*
X118249007Y-105025296D01*
X118271529Y-105033354D01*
X118293153Y-105043582D01*
X118313670Y-105055879D01*
X118332883Y-105070129D01*
X118350607Y-105086193D01*
X118366671Y-105103917D01*
X118380921Y-105123130D01*
X118393218Y-105143647D01*
X118403446Y-105165271D01*
X118411504Y-105187793D01*
X118417316Y-105210997D01*
X118420826Y-105234658D01*
X118422000Y-105258550D01*
X118422000Y-106171050D01*
X118420826Y-106194942D01*
X118417316Y-106218603D01*
X118411504Y-106241807D01*
X118403446Y-106264329D01*
X118393218Y-106285953D01*
X118380921Y-106306470D01*
X118366671Y-106325683D01*
X118350607Y-106343407D01*
X118332883Y-106359471D01*
X118313670Y-106373721D01*
X118293153Y-106386018D01*
X118271529Y-106396246D01*
X118249007Y-106404304D01*
X118225803Y-106410116D01*
X118202142Y-106413626D01*
X118178250Y-106414800D01*
X117690750Y-106414800D01*
X117666858Y-106413626D01*
X117643197Y-106410116D01*
X117619993Y-106404304D01*
X117597471Y-106396246D01*
X117575847Y-106386018D01*
X117555330Y-106373721D01*
X117536117Y-106359471D01*
X117518393Y-106343407D01*
X117502329Y-106325683D01*
X117488079Y-106306470D01*
X117475782Y-106285953D01*
X117465554Y-106264329D01*
X117457496Y-106241807D01*
X117451684Y-106218603D01*
X117448174Y-106194942D01*
X117447000Y-106171050D01*
X117447000Y-105258550D01*
X117448174Y-105234658D01*
X117451684Y-105210997D01*
X117457496Y-105187793D01*
X117465554Y-105165271D01*
X117475782Y-105143647D01*
X117488079Y-105123130D01*
X117502329Y-105103917D01*
X117518393Y-105086193D01*
X117536117Y-105070129D01*
X117555330Y-105055879D01*
X117575847Y-105043582D01*
X117597471Y-105033354D01*
X117619993Y-105025296D01*
X117643197Y-105019484D01*
X117666858Y-105015974D01*
X117690750Y-105014800D01*
X118178250Y-105014800D01*
X118202142Y-105015974D01*
X118202142Y-105015974D01*
G37*
D11*
X117934500Y-105714800D03*
G04 #@! TD*
D10*
G04 #@! TO.C,R2*
G36*
X105395942Y-103491974D02*
X105419603Y-103495484D01*
X105442807Y-103501296D01*
X105465329Y-103509354D01*
X105486953Y-103519582D01*
X105507470Y-103531879D01*
X105526683Y-103546129D01*
X105544407Y-103562193D01*
X105560471Y-103579917D01*
X105574721Y-103599130D01*
X105587018Y-103619647D01*
X105597246Y-103641271D01*
X105605304Y-103663793D01*
X105611116Y-103686997D01*
X105614626Y-103710658D01*
X105615800Y-103734550D01*
X105615800Y-104647050D01*
X105614626Y-104670942D01*
X105611116Y-104694603D01*
X105605304Y-104717807D01*
X105597246Y-104740329D01*
X105587018Y-104761953D01*
X105574721Y-104782470D01*
X105560471Y-104801683D01*
X105544407Y-104819407D01*
X105526683Y-104835471D01*
X105507470Y-104849721D01*
X105486953Y-104862018D01*
X105465329Y-104872246D01*
X105442807Y-104880304D01*
X105419603Y-104886116D01*
X105395942Y-104889626D01*
X105372050Y-104890800D01*
X104884550Y-104890800D01*
X104860658Y-104889626D01*
X104836997Y-104886116D01*
X104813793Y-104880304D01*
X104791271Y-104872246D01*
X104769647Y-104862018D01*
X104749130Y-104849721D01*
X104729917Y-104835471D01*
X104712193Y-104819407D01*
X104696129Y-104801683D01*
X104681879Y-104782470D01*
X104669582Y-104761953D01*
X104659354Y-104740329D01*
X104651296Y-104717807D01*
X104645484Y-104694603D01*
X104641974Y-104670942D01*
X104640800Y-104647050D01*
X104640800Y-103734550D01*
X104641974Y-103710658D01*
X104645484Y-103686997D01*
X104651296Y-103663793D01*
X104659354Y-103641271D01*
X104669582Y-103619647D01*
X104681879Y-103599130D01*
X104696129Y-103579917D01*
X104712193Y-103562193D01*
X104729917Y-103546129D01*
X104749130Y-103531879D01*
X104769647Y-103519582D01*
X104791271Y-103509354D01*
X104813793Y-103501296D01*
X104836997Y-103495484D01*
X104860658Y-103491974D01*
X104884550Y-103490800D01*
X105372050Y-103490800D01*
X105395942Y-103491974D01*
X105395942Y-103491974D01*
G37*
D11*
X105128300Y-104190800D03*
D10*
G36*
X103520942Y-103491974D02*
X103544603Y-103495484D01*
X103567807Y-103501296D01*
X103590329Y-103509354D01*
X103611953Y-103519582D01*
X103632470Y-103531879D01*
X103651683Y-103546129D01*
X103669407Y-103562193D01*
X103685471Y-103579917D01*
X103699721Y-103599130D01*
X103712018Y-103619647D01*
X103722246Y-103641271D01*
X103730304Y-103663793D01*
X103736116Y-103686997D01*
X103739626Y-103710658D01*
X103740800Y-103734550D01*
X103740800Y-104647050D01*
X103739626Y-104670942D01*
X103736116Y-104694603D01*
X103730304Y-104717807D01*
X103722246Y-104740329D01*
X103712018Y-104761953D01*
X103699721Y-104782470D01*
X103685471Y-104801683D01*
X103669407Y-104819407D01*
X103651683Y-104835471D01*
X103632470Y-104849721D01*
X103611953Y-104862018D01*
X103590329Y-104872246D01*
X103567807Y-104880304D01*
X103544603Y-104886116D01*
X103520942Y-104889626D01*
X103497050Y-104890800D01*
X103009550Y-104890800D01*
X102985658Y-104889626D01*
X102961997Y-104886116D01*
X102938793Y-104880304D01*
X102916271Y-104872246D01*
X102894647Y-104862018D01*
X102874130Y-104849721D01*
X102854917Y-104835471D01*
X102837193Y-104819407D01*
X102821129Y-104801683D01*
X102806879Y-104782470D01*
X102794582Y-104761953D01*
X102784354Y-104740329D01*
X102776296Y-104717807D01*
X102770484Y-104694603D01*
X102766974Y-104670942D01*
X102765800Y-104647050D01*
X102765800Y-103734550D01*
X102766974Y-103710658D01*
X102770484Y-103686997D01*
X102776296Y-103663793D01*
X102784354Y-103641271D01*
X102794582Y-103619647D01*
X102806879Y-103599130D01*
X102821129Y-103579917D01*
X102837193Y-103562193D01*
X102854917Y-103546129D01*
X102874130Y-103531879D01*
X102894647Y-103519582D01*
X102916271Y-103509354D01*
X102938793Y-103501296D01*
X102961997Y-103495484D01*
X102985658Y-103491974D01*
X103009550Y-103490800D01*
X103497050Y-103490800D01*
X103520942Y-103491974D01*
X103520942Y-103491974D01*
G37*
D11*
X103253300Y-104190800D03*
G04 #@! TD*
D10*
G04 #@! TO.C,R3*
G36*
X112189342Y-103986174D02*
X112213003Y-103989684D01*
X112236207Y-103995496D01*
X112258729Y-104003554D01*
X112280353Y-104013782D01*
X112300870Y-104026079D01*
X112320083Y-104040329D01*
X112337807Y-104056393D01*
X112353871Y-104074117D01*
X112368121Y-104093330D01*
X112380418Y-104113847D01*
X112390646Y-104135471D01*
X112398704Y-104157993D01*
X112404516Y-104181197D01*
X112408026Y-104204858D01*
X112409200Y-104228750D01*
X112409200Y-104716250D01*
X112408026Y-104740142D01*
X112404516Y-104763803D01*
X112398704Y-104787007D01*
X112390646Y-104809529D01*
X112380418Y-104831153D01*
X112368121Y-104851670D01*
X112353871Y-104870883D01*
X112337807Y-104888607D01*
X112320083Y-104904671D01*
X112300870Y-104918921D01*
X112280353Y-104931218D01*
X112258729Y-104941446D01*
X112236207Y-104949504D01*
X112213003Y-104955316D01*
X112189342Y-104958826D01*
X112165450Y-104960000D01*
X111252950Y-104960000D01*
X111229058Y-104958826D01*
X111205397Y-104955316D01*
X111182193Y-104949504D01*
X111159671Y-104941446D01*
X111138047Y-104931218D01*
X111117530Y-104918921D01*
X111098317Y-104904671D01*
X111080593Y-104888607D01*
X111064529Y-104870883D01*
X111050279Y-104851670D01*
X111037982Y-104831153D01*
X111027754Y-104809529D01*
X111019696Y-104787007D01*
X111013884Y-104763803D01*
X111010374Y-104740142D01*
X111009200Y-104716250D01*
X111009200Y-104228750D01*
X111010374Y-104204858D01*
X111013884Y-104181197D01*
X111019696Y-104157993D01*
X111027754Y-104135471D01*
X111037982Y-104113847D01*
X111050279Y-104093330D01*
X111064529Y-104074117D01*
X111080593Y-104056393D01*
X111098317Y-104040329D01*
X111117530Y-104026079D01*
X111138047Y-104013782D01*
X111159671Y-104003554D01*
X111182193Y-103995496D01*
X111205397Y-103989684D01*
X111229058Y-103986174D01*
X111252950Y-103985000D01*
X112165450Y-103985000D01*
X112189342Y-103986174D01*
X112189342Y-103986174D01*
G37*
D11*
X111709200Y-104472500D03*
D10*
G36*
X112189342Y-105861174D02*
X112213003Y-105864684D01*
X112236207Y-105870496D01*
X112258729Y-105878554D01*
X112280353Y-105888782D01*
X112300870Y-105901079D01*
X112320083Y-105915329D01*
X112337807Y-105931393D01*
X112353871Y-105949117D01*
X112368121Y-105968330D01*
X112380418Y-105988847D01*
X112390646Y-106010471D01*
X112398704Y-106032993D01*
X112404516Y-106056197D01*
X112408026Y-106079858D01*
X112409200Y-106103750D01*
X112409200Y-106591250D01*
X112408026Y-106615142D01*
X112404516Y-106638803D01*
X112398704Y-106662007D01*
X112390646Y-106684529D01*
X112380418Y-106706153D01*
X112368121Y-106726670D01*
X112353871Y-106745883D01*
X112337807Y-106763607D01*
X112320083Y-106779671D01*
X112300870Y-106793921D01*
X112280353Y-106806218D01*
X112258729Y-106816446D01*
X112236207Y-106824504D01*
X112213003Y-106830316D01*
X112189342Y-106833826D01*
X112165450Y-106835000D01*
X111252950Y-106835000D01*
X111229058Y-106833826D01*
X111205397Y-106830316D01*
X111182193Y-106824504D01*
X111159671Y-106816446D01*
X111138047Y-106806218D01*
X111117530Y-106793921D01*
X111098317Y-106779671D01*
X111080593Y-106763607D01*
X111064529Y-106745883D01*
X111050279Y-106726670D01*
X111037982Y-106706153D01*
X111027754Y-106684529D01*
X111019696Y-106662007D01*
X111013884Y-106638803D01*
X111010374Y-106615142D01*
X111009200Y-106591250D01*
X111009200Y-106103750D01*
X111010374Y-106079858D01*
X111013884Y-106056197D01*
X111019696Y-106032993D01*
X111027754Y-106010471D01*
X111037982Y-105988847D01*
X111050279Y-105968330D01*
X111064529Y-105949117D01*
X111080593Y-105931393D01*
X111098317Y-105915329D01*
X111117530Y-105901079D01*
X111138047Y-105888782D01*
X111159671Y-105878554D01*
X111182193Y-105870496D01*
X111205397Y-105864684D01*
X111229058Y-105861174D01*
X111252950Y-105860000D01*
X112165450Y-105860000D01*
X112189342Y-105861174D01*
X112189342Y-105861174D01*
G37*
D11*
X111709200Y-106347500D03*
G04 #@! TD*
D12*
G04 #@! TO.C,U2*
X133000000Y-48500000D03*
X131000000Y-48500000D03*
X129000000Y-48500000D03*
X127000000Y-48500000D03*
X125000000Y-48500000D03*
X123000000Y-48500000D03*
X121000000Y-48500000D03*
X119000000Y-48500000D03*
X119000000Y-63500000D03*
X121000000Y-63500000D03*
X123000000Y-63500000D03*
X125000000Y-63500000D03*
X127000000Y-63500000D03*
X129000000Y-63500000D03*
X131000000Y-63500000D03*
X133000000Y-63500000D03*
G04 #@! TD*
D13*
G04 #@! TO.C,U3*
X119300000Y-90000000D03*
X119300000Y-90800000D03*
X119300000Y-91600000D03*
X119300000Y-92400000D03*
X119300000Y-93200000D03*
X119300000Y-94000000D03*
X119300000Y-94800000D03*
X119300000Y-95600000D03*
X119300000Y-96400000D03*
X119300000Y-97200000D03*
X119300000Y-98000000D03*
D14*
X121000000Y-99700000D03*
X121800000Y-99700000D03*
X122600000Y-99700000D03*
X123400000Y-99700000D03*
X124200000Y-99700000D03*
X125000000Y-99700000D03*
X125800000Y-99700000D03*
X126600000Y-99700000D03*
X127400000Y-99700000D03*
X128200000Y-99700000D03*
X129000000Y-99700000D03*
D13*
X130700000Y-98000000D03*
X130700000Y-97200000D03*
X130700000Y-96400000D03*
X130700000Y-95600000D03*
X130700000Y-94800000D03*
X130700000Y-94000000D03*
X130700000Y-93200000D03*
X130700000Y-92400000D03*
X130700000Y-91600000D03*
X130700000Y-90800000D03*
X130700000Y-90000000D03*
D14*
X129000000Y-88300000D03*
X128200000Y-88300000D03*
X127400000Y-88300000D03*
X126600000Y-88300000D03*
X125800000Y-88300000D03*
X125000000Y-88300000D03*
X124200000Y-88300000D03*
X123400000Y-88300000D03*
X122600000Y-88300000D03*
X121800000Y-88300000D03*
X121000000Y-88300000D03*
G04 #@! TD*
D15*
G04 #@! TO.C,Y1*
X113772000Y-96495200D03*
X113772000Y-93395200D03*
X111272000Y-93395200D03*
X111272000Y-96495200D03*
G04 #@! TD*
D16*
G04 #@! TO.C,U1*
X113975000Y-81875000D03*
X113325000Y-81875000D03*
X112675000Y-81875000D03*
X112025000Y-81875000D03*
X112025000Y-84125000D03*
X112675000Y-84125000D03*
X113325000Y-84125000D03*
X113975000Y-84125000D03*
G04 #@! TD*
D17*
G04 #@! TO.C,J4*
X121325000Y-109110000D03*
X122595000Y-111650000D03*
X123865000Y-109110000D03*
X125135000Y-111650000D03*
X126405000Y-109110000D03*
X127675000Y-111650000D03*
G04 #@! TD*
G04 #@! TO.C,J1*
X107325000Y-109110000D03*
X108595000Y-111650000D03*
X109865000Y-109110000D03*
X111135000Y-111650000D03*
X112405000Y-109110000D03*
X113675000Y-111650000D03*
G04 #@! TD*
D18*
G04 #@! TO.C,AE1*
X113000000Y-65000000D03*
G04 #@! TD*
D10*
G04 #@! TO.C,C1*
G36*
X123785542Y-105015974D02*
X123809203Y-105019484D01*
X123832407Y-105025296D01*
X123854929Y-105033354D01*
X123876553Y-105043582D01*
X123897070Y-105055879D01*
X123916283Y-105070129D01*
X123934007Y-105086193D01*
X123950071Y-105103917D01*
X123964321Y-105123130D01*
X123976618Y-105143647D01*
X123986846Y-105165271D01*
X123994904Y-105187793D01*
X124000716Y-105210997D01*
X124004226Y-105234658D01*
X124005400Y-105258550D01*
X124005400Y-106171050D01*
X124004226Y-106194942D01*
X124000716Y-106218603D01*
X123994904Y-106241807D01*
X123986846Y-106264329D01*
X123976618Y-106285953D01*
X123964321Y-106306470D01*
X123950071Y-106325683D01*
X123934007Y-106343407D01*
X123916283Y-106359471D01*
X123897070Y-106373721D01*
X123876553Y-106386018D01*
X123854929Y-106396246D01*
X123832407Y-106404304D01*
X123809203Y-106410116D01*
X123785542Y-106413626D01*
X123761650Y-106414800D01*
X123274150Y-106414800D01*
X123250258Y-106413626D01*
X123226597Y-106410116D01*
X123203393Y-106404304D01*
X123180871Y-106396246D01*
X123159247Y-106386018D01*
X123138730Y-106373721D01*
X123119517Y-106359471D01*
X123101793Y-106343407D01*
X123085729Y-106325683D01*
X123071479Y-106306470D01*
X123059182Y-106285953D01*
X123048954Y-106264329D01*
X123040896Y-106241807D01*
X123035084Y-106218603D01*
X123031574Y-106194942D01*
X123030400Y-106171050D01*
X123030400Y-105258550D01*
X123031574Y-105234658D01*
X123035084Y-105210997D01*
X123040896Y-105187793D01*
X123048954Y-105165271D01*
X123059182Y-105143647D01*
X123071479Y-105123130D01*
X123085729Y-105103917D01*
X123101793Y-105086193D01*
X123119517Y-105070129D01*
X123138730Y-105055879D01*
X123159247Y-105043582D01*
X123180871Y-105033354D01*
X123203393Y-105025296D01*
X123226597Y-105019484D01*
X123250258Y-105015974D01*
X123274150Y-105014800D01*
X123761650Y-105014800D01*
X123785542Y-105015974D01*
X123785542Y-105015974D01*
G37*
D11*
X123517900Y-105714800D03*
D10*
G36*
X121910542Y-105015974D02*
X121934203Y-105019484D01*
X121957407Y-105025296D01*
X121979929Y-105033354D01*
X122001553Y-105043582D01*
X122022070Y-105055879D01*
X122041283Y-105070129D01*
X122059007Y-105086193D01*
X122075071Y-105103917D01*
X122089321Y-105123130D01*
X122101618Y-105143647D01*
X122111846Y-105165271D01*
X122119904Y-105187793D01*
X122125716Y-105210997D01*
X122129226Y-105234658D01*
X122130400Y-105258550D01*
X122130400Y-106171050D01*
X122129226Y-106194942D01*
X122125716Y-106218603D01*
X122119904Y-106241807D01*
X122111846Y-106264329D01*
X122101618Y-106285953D01*
X122089321Y-106306470D01*
X122075071Y-106325683D01*
X122059007Y-106343407D01*
X122041283Y-106359471D01*
X122022070Y-106373721D01*
X122001553Y-106386018D01*
X121979929Y-106396246D01*
X121957407Y-106404304D01*
X121934203Y-106410116D01*
X121910542Y-106413626D01*
X121886650Y-106414800D01*
X121399150Y-106414800D01*
X121375258Y-106413626D01*
X121351597Y-106410116D01*
X121328393Y-106404304D01*
X121305871Y-106396246D01*
X121284247Y-106386018D01*
X121263730Y-106373721D01*
X121244517Y-106359471D01*
X121226793Y-106343407D01*
X121210729Y-106325683D01*
X121196479Y-106306470D01*
X121184182Y-106285953D01*
X121173954Y-106264329D01*
X121165896Y-106241807D01*
X121160084Y-106218603D01*
X121156574Y-106194942D01*
X121155400Y-106171050D01*
X121155400Y-105258550D01*
X121156574Y-105234658D01*
X121160084Y-105210997D01*
X121165896Y-105187793D01*
X121173954Y-105165271D01*
X121184182Y-105143647D01*
X121196479Y-105123130D01*
X121210729Y-105103917D01*
X121226793Y-105086193D01*
X121244517Y-105070129D01*
X121263730Y-105055879D01*
X121284247Y-105043582D01*
X121305871Y-105033354D01*
X121328393Y-105025296D01*
X121351597Y-105019484D01*
X121375258Y-105015974D01*
X121399150Y-105014800D01*
X121886650Y-105014800D01*
X121910542Y-105015974D01*
X121910542Y-105015974D01*
G37*
D11*
X121642900Y-105714800D03*
G04 #@! TD*
D10*
G04 #@! TO.C,C2*
G36*
X103368542Y-105320774D02*
X103392203Y-105324284D01*
X103415407Y-105330096D01*
X103437929Y-105338154D01*
X103459553Y-105348382D01*
X103480070Y-105360679D01*
X103499283Y-105374929D01*
X103517007Y-105390993D01*
X103533071Y-105408717D01*
X103547321Y-105427930D01*
X103559618Y-105448447D01*
X103569846Y-105470071D01*
X103577904Y-105492593D01*
X103583716Y-105515797D01*
X103587226Y-105539458D01*
X103588400Y-105563350D01*
X103588400Y-106475850D01*
X103587226Y-106499742D01*
X103583716Y-106523403D01*
X103577904Y-106546607D01*
X103569846Y-106569129D01*
X103559618Y-106590753D01*
X103547321Y-106611270D01*
X103533071Y-106630483D01*
X103517007Y-106648207D01*
X103499283Y-106664271D01*
X103480070Y-106678521D01*
X103459553Y-106690818D01*
X103437929Y-106701046D01*
X103415407Y-106709104D01*
X103392203Y-106714916D01*
X103368542Y-106718426D01*
X103344650Y-106719600D01*
X102857150Y-106719600D01*
X102833258Y-106718426D01*
X102809597Y-106714916D01*
X102786393Y-106709104D01*
X102763871Y-106701046D01*
X102742247Y-106690818D01*
X102721730Y-106678521D01*
X102702517Y-106664271D01*
X102684793Y-106648207D01*
X102668729Y-106630483D01*
X102654479Y-106611270D01*
X102642182Y-106590753D01*
X102631954Y-106569129D01*
X102623896Y-106546607D01*
X102618084Y-106523403D01*
X102614574Y-106499742D01*
X102613400Y-106475850D01*
X102613400Y-105563350D01*
X102614574Y-105539458D01*
X102618084Y-105515797D01*
X102623896Y-105492593D01*
X102631954Y-105470071D01*
X102642182Y-105448447D01*
X102654479Y-105427930D01*
X102668729Y-105408717D01*
X102684793Y-105390993D01*
X102702517Y-105374929D01*
X102721730Y-105360679D01*
X102742247Y-105348382D01*
X102763871Y-105338154D01*
X102786393Y-105330096D01*
X102809597Y-105324284D01*
X102833258Y-105320774D01*
X102857150Y-105319600D01*
X103344650Y-105319600D01*
X103368542Y-105320774D01*
X103368542Y-105320774D01*
G37*
D11*
X103100900Y-106019600D03*
D10*
G36*
X105243542Y-105320774D02*
X105267203Y-105324284D01*
X105290407Y-105330096D01*
X105312929Y-105338154D01*
X105334553Y-105348382D01*
X105355070Y-105360679D01*
X105374283Y-105374929D01*
X105392007Y-105390993D01*
X105408071Y-105408717D01*
X105422321Y-105427930D01*
X105434618Y-105448447D01*
X105444846Y-105470071D01*
X105452904Y-105492593D01*
X105458716Y-105515797D01*
X105462226Y-105539458D01*
X105463400Y-105563350D01*
X105463400Y-106475850D01*
X105462226Y-106499742D01*
X105458716Y-106523403D01*
X105452904Y-106546607D01*
X105444846Y-106569129D01*
X105434618Y-106590753D01*
X105422321Y-106611270D01*
X105408071Y-106630483D01*
X105392007Y-106648207D01*
X105374283Y-106664271D01*
X105355070Y-106678521D01*
X105334553Y-106690818D01*
X105312929Y-106701046D01*
X105290407Y-106709104D01*
X105267203Y-106714916D01*
X105243542Y-106718426D01*
X105219650Y-106719600D01*
X104732150Y-106719600D01*
X104708258Y-106718426D01*
X104684597Y-106714916D01*
X104661393Y-106709104D01*
X104638871Y-106701046D01*
X104617247Y-106690818D01*
X104596730Y-106678521D01*
X104577517Y-106664271D01*
X104559793Y-106648207D01*
X104543729Y-106630483D01*
X104529479Y-106611270D01*
X104517182Y-106590753D01*
X104506954Y-106569129D01*
X104498896Y-106546607D01*
X104493084Y-106523403D01*
X104489574Y-106499742D01*
X104488400Y-106475850D01*
X104488400Y-105563350D01*
X104489574Y-105539458D01*
X104493084Y-105515797D01*
X104498896Y-105492593D01*
X104506954Y-105470071D01*
X104517182Y-105448447D01*
X104529479Y-105427930D01*
X104543729Y-105408717D01*
X104559793Y-105390993D01*
X104577517Y-105374929D01*
X104596730Y-105360679D01*
X104617247Y-105348382D01*
X104638871Y-105338154D01*
X104661393Y-105330096D01*
X104684597Y-105324284D01*
X104708258Y-105320774D01*
X104732150Y-105319600D01*
X105219650Y-105319600D01*
X105243542Y-105320774D01*
X105243542Y-105320774D01*
G37*
D11*
X104975900Y-106019600D03*
G04 #@! TD*
D10*
G04 #@! TO.C,C3*
G36*
X108748742Y-105320774D02*
X108772403Y-105324284D01*
X108795607Y-105330096D01*
X108818129Y-105338154D01*
X108839753Y-105348382D01*
X108860270Y-105360679D01*
X108879483Y-105374929D01*
X108897207Y-105390993D01*
X108913271Y-105408717D01*
X108927521Y-105427930D01*
X108939818Y-105448447D01*
X108950046Y-105470071D01*
X108958104Y-105492593D01*
X108963916Y-105515797D01*
X108967426Y-105539458D01*
X108968600Y-105563350D01*
X108968600Y-106475850D01*
X108967426Y-106499742D01*
X108963916Y-106523403D01*
X108958104Y-106546607D01*
X108950046Y-106569129D01*
X108939818Y-106590753D01*
X108927521Y-106611270D01*
X108913271Y-106630483D01*
X108897207Y-106648207D01*
X108879483Y-106664271D01*
X108860270Y-106678521D01*
X108839753Y-106690818D01*
X108818129Y-106701046D01*
X108795607Y-106709104D01*
X108772403Y-106714916D01*
X108748742Y-106718426D01*
X108724850Y-106719600D01*
X108237350Y-106719600D01*
X108213458Y-106718426D01*
X108189797Y-106714916D01*
X108166593Y-106709104D01*
X108144071Y-106701046D01*
X108122447Y-106690818D01*
X108101930Y-106678521D01*
X108082717Y-106664271D01*
X108064993Y-106648207D01*
X108048929Y-106630483D01*
X108034679Y-106611270D01*
X108022382Y-106590753D01*
X108012154Y-106569129D01*
X108004096Y-106546607D01*
X107998284Y-106523403D01*
X107994774Y-106499742D01*
X107993600Y-106475850D01*
X107993600Y-105563350D01*
X107994774Y-105539458D01*
X107998284Y-105515797D01*
X108004096Y-105492593D01*
X108012154Y-105470071D01*
X108022382Y-105448447D01*
X108034679Y-105427930D01*
X108048929Y-105408717D01*
X108064993Y-105390993D01*
X108082717Y-105374929D01*
X108101930Y-105360679D01*
X108122447Y-105348382D01*
X108144071Y-105338154D01*
X108166593Y-105330096D01*
X108189797Y-105324284D01*
X108213458Y-105320774D01*
X108237350Y-105319600D01*
X108724850Y-105319600D01*
X108748742Y-105320774D01*
X108748742Y-105320774D01*
G37*
D11*
X108481100Y-106019600D03*
D10*
G36*
X106873742Y-105320774D02*
X106897403Y-105324284D01*
X106920607Y-105330096D01*
X106943129Y-105338154D01*
X106964753Y-105348382D01*
X106985270Y-105360679D01*
X107004483Y-105374929D01*
X107022207Y-105390993D01*
X107038271Y-105408717D01*
X107052521Y-105427930D01*
X107064818Y-105448447D01*
X107075046Y-105470071D01*
X107083104Y-105492593D01*
X107088916Y-105515797D01*
X107092426Y-105539458D01*
X107093600Y-105563350D01*
X107093600Y-106475850D01*
X107092426Y-106499742D01*
X107088916Y-106523403D01*
X107083104Y-106546607D01*
X107075046Y-106569129D01*
X107064818Y-106590753D01*
X107052521Y-106611270D01*
X107038271Y-106630483D01*
X107022207Y-106648207D01*
X107004483Y-106664271D01*
X106985270Y-106678521D01*
X106964753Y-106690818D01*
X106943129Y-106701046D01*
X106920607Y-106709104D01*
X106897403Y-106714916D01*
X106873742Y-106718426D01*
X106849850Y-106719600D01*
X106362350Y-106719600D01*
X106338458Y-106718426D01*
X106314797Y-106714916D01*
X106291593Y-106709104D01*
X106269071Y-106701046D01*
X106247447Y-106690818D01*
X106226930Y-106678521D01*
X106207717Y-106664271D01*
X106189993Y-106648207D01*
X106173929Y-106630483D01*
X106159679Y-106611270D01*
X106147382Y-106590753D01*
X106137154Y-106569129D01*
X106129096Y-106546607D01*
X106123284Y-106523403D01*
X106119774Y-106499742D01*
X106118600Y-106475850D01*
X106118600Y-105563350D01*
X106119774Y-105539458D01*
X106123284Y-105515797D01*
X106129096Y-105492593D01*
X106137154Y-105470071D01*
X106147382Y-105448447D01*
X106159679Y-105427930D01*
X106173929Y-105408717D01*
X106189993Y-105390993D01*
X106207717Y-105374929D01*
X106226930Y-105360679D01*
X106247447Y-105348382D01*
X106269071Y-105338154D01*
X106291593Y-105330096D01*
X106314797Y-105324284D01*
X106338458Y-105320774D01*
X106362350Y-105319600D01*
X106849850Y-105319600D01*
X106873742Y-105320774D01*
X106873742Y-105320774D01*
G37*
D11*
X106606100Y-106019600D03*
G04 #@! TD*
D10*
G04 #@! TO.C,C4*
G36*
X127189142Y-67677974D02*
X127212803Y-67681484D01*
X127236007Y-67687296D01*
X127258529Y-67695354D01*
X127280153Y-67705582D01*
X127300670Y-67717879D01*
X127319883Y-67732129D01*
X127337607Y-67748193D01*
X127353671Y-67765917D01*
X127367921Y-67785130D01*
X127380218Y-67805647D01*
X127390446Y-67827271D01*
X127398504Y-67849793D01*
X127404316Y-67872997D01*
X127407826Y-67896658D01*
X127409000Y-67920550D01*
X127409000Y-68833050D01*
X127407826Y-68856942D01*
X127404316Y-68880603D01*
X127398504Y-68903807D01*
X127390446Y-68926329D01*
X127380218Y-68947953D01*
X127367921Y-68968470D01*
X127353671Y-68987683D01*
X127337607Y-69005407D01*
X127319883Y-69021471D01*
X127300670Y-69035721D01*
X127280153Y-69048018D01*
X127258529Y-69058246D01*
X127236007Y-69066304D01*
X127212803Y-69072116D01*
X127189142Y-69075626D01*
X127165250Y-69076800D01*
X126677750Y-69076800D01*
X126653858Y-69075626D01*
X126630197Y-69072116D01*
X126606993Y-69066304D01*
X126584471Y-69058246D01*
X126562847Y-69048018D01*
X126542330Y-69035721D01*
X126523117Y-69021471D01*
X126505393Y-69005407D01*
X126489329Y-68987683D01*
X126475079Y-68968470D01*
X126462782Y-68947953D01*
X126452554Y-68926329D01*
X126444496Y-68903807D01*
X126438684Y-68880603D01*
X126435174Y-68856942D01*
X126434000Y-68833050D01*
X126434000Y-67920550D01*
X126435174Y-67896658D01*
X126438684Y-67872997D01*
X126444496Y-67849793D01*
X126452554Y-67827271D01*
X126462782Y-67805647D01*
X126475079Y-67785130D01*
X126489329Y-67765917D01*
X126505393Y-67748193D01*
X126523117Y-67732129D01*
X126542330Y-67717879D01*
X126562847Y-67705582D01*
X126584471Y-67695354D01*
X126606993Y-67687296D01*
X126630197Y-67681484D01*
X126653858Y-67677974D01*
X126677750Y-67676800D01*
X127165250Y-67676800D01*
X127189142Y-67677974D01*
X127189142Y-67677974D01*
G37*
D11*
X126921500Y-68376800D03*
D10*
G36*
X125314142Y-67677974D02*
X125337803Y-67681484D01*
X125361007Y-67687296D01*
X125383529Y-67695354D01*
X125405153Y-67705582D01*
X125425670Y-67717879D01*
X125444883Y-67732129D01*
X125462607Y-67748193D01*
X125478671Y-67765917D01*
X125492921Y-67785130D01*
X125505218Y-67805647D01*
X125515446Y-67827271D01*
X125523504Y-67849793D01*
X125529316Y-67872997D01*
X125532826Y-67896658D01*
X125534000Y-67920550D01*
X125534000Y-68833050D01*
X125532826Y-68856942D01*
X125529316Y-68880603D01*
X125523504Y-68903807D01*
X125515446Y-68926329D01*
X125505218Y-68947953D01*
X125492921Y-68968470D01*
X125478671Y-68987683D01*
X125462607Y-69005407D01*
X125444883Y-69021471D01*
X125425670Y-69035721D01*
X125405153Y-69048018D01*
X125383529Y-69058246D01*
X125361007Y-69066304D01*
X125337803Y-69072116D01*
X125314142Y-69075626D01*
X125290250Y-69076800D01*
X124802750Y-69076800D01*
X124778858Y-69075626D01*
X124755197Y-69072116D01*
X124731993Y-69066304D01*
X124709471Y-69058246D01*
X124687847Y-69048018D01*
X124667330Y-69035721D01*
X124648117Y-69021471D01*
X124630393Y-69005407D01*
X124614329Y-68987683D01*
X124600079Y-68968470D01*
X124587782Y-68947953D01*
X124577554Y-68926329D01*
X124569496Y-68903807D01*
X124563684Y-68880603D01*
X124560174Y-68856942D01*
X124559000Y-68833050D01*
X124559000Y-67920550D01*
X124560174Y-67896658D01*
X124563684Y-67872997D01*
X124569496Y-67849793D01*
X124577554Y-67827271D01*
X124587782Y-67805647D01*
X124600079Y-67785130D01*
X124614329Y-67765917D01*
X124630393Y-67748193D01*
X124648117Y-67732129D01*
X124667330Y-67717879D01*
X124687847Y-67705582D01*
X124709471Y-67695354D01*
X124731993Y-67687296D01*
X124755197Y-67681484D01*
X124778858Y-67677974D01*
X124802750Y-67676800D01*
X125290250Y-67676800D01*
X125314142Y-67677974D01*
X125314142Y-67677974D01*
G37*
D11*
X125046500Y-68376800D03*
G04 #@! TD*
D10*
G04 #@! TO.C,C6*
G36*
X116304142Y-76701974D02*
X116327803Y-76705484D01*
X116351007Y-76711296D01*
X116373529Y-76719354D01*
X116395153Y-76729582D01*
X116415670Y-76741879D01*
X116434883Y-76756129D01*
X116452607Y-76772193D01*
X116468671Y-76789917D01*
X116482921Y-76809130D01*
X116495218Y-76829647D01*
X116505446Y-76851271D01*
X116513504Y-76873793D01*
X116519316Y-76896997D01*
X116522826Y-76920658D01*
X116524000Y-76944550D01*
X116524000Y-77432050D01*
X116522826Y-77455942D01*
X116519316Y-77479603D01*
X116513504Y-77502807D01*
X116505446Y-77525329D01*
X116495218Y-77546953D01*
X116482921Y-77567470D01*
X116468671Y-77586683D01*
X116452607Y-77604407D01*
X116434883Y-77620471D01*
X116415670Y-77634721D01*
X116395153Y-77647018D01*
X116373529Y-77657246D01*
X116351007Y-77665304D01*
X116327803Y-77671116D01*
X116304142Y-77674626D01*
X116280250Y-77675800D01*
X115367750Y-77675800D01*
X115343858Y-77674626D01*
X115320197Y-77671116D01*
X115296993Y-77665304D01*
X115274471Y-77657246D01*
X115252847Y-77647018D01*
X115232330Y-77634721D01*
X115213117Y-77620471D01*
X115195393Y-77604407D01*
X115179329Y-77586683D01*
X115165079Y-77567470D01*
X115152782Y-77546953D01*
X115142554Y-77525329D01*
X115134496Y-77502807D01*
X115128684Y-77479603D01*
X115125174Y-77455942D01*
X115124000Y-77432050D01*
X115124000Y-76944550D01*
X115125174Y-76920658D01*
X115128684Y-76896997D01*
X115134496Y-76873793D01*
X115142554Y-76851271D01*
X115152782Y-76829647D01*
X115165079Y-76809130D01*
X115179329Y-76789917D01*
X115195393Y-76772193D01*
X115213117Y-76756129D01*
X115232330Y-76741879D01*
X115252847Y-76729582D01*
X115274471Y-76719354D01*
X115296993Y-76711296D01*
X115320197Y-76705484D01*
X115343858Y-76701974D01*
X115367750Y-76700800D01*
X116280250Y-76700800D01*
X116304142Y-76701974D01*
X116304142Y-76701974D01*
G37*
D11*
X115824000Y-77188300D03*
D10*
G36*
X116304142Y-74826974D02*
X116327803Y-74830484D01*
X116351007Y-74836296D01*
X116373529Y-74844354D01*
X116395153Y-74854582D01*
X116415670Y-74866879D01*
X116434883Y-74881129D01*
X116452607Y-74897193D01*
X116468671Y-74914917D01*
X116482921Y-74934130D01*
X116495218Y-74954647D01*
X116505446Y-74976271D01*
X116513504Y-74998793D01*
X116519316Y-75021997D01*
X116522826Y-75045658D01*
X116524000Y-75069550D01*
X116524000Y-75557050D01*
X116522826Y-75580942D01*
X116519316Y-75604603D01*
X116513504Y-75627807D01*
X116505446Y-75650329D01*
X116495218Y-75671953D01*
X116482921Y-75692470D01*
X116468671Y-75711683D01*
X116452607Y-75729407D01*
X116434883Y-75745471D01*
X116415670Y-75759721D01*
X116395153Y-75772018D01*
X116373529Y-75782246D01*
X116351007Y-75790304D01*
X116327803Y-75796116D01*
X116304142Y-75799626D01*
X116280250Y-75800800D01*
X115367750Y-75800800D01*
X115343858Y-75799626D01*
X115320197Y-75796116D01*
X115296993Y-75790304D01*
X115274471Y-75782246D01*
X115252847Y-75772018D01*
X115232330Y-75759721D01*
X115213117Y-75745471D01*
X115195393Y-75729407D01*
X115179329Y-75711683D01*
X115165079Y-75692470D01*
X115152782Y-75671953D01*
X115142554Y-75650329D01*
X115134496Y-75627807D01*
X115128684Y-75604603D01*
X115125174Y-75580942D01*
X115124000Y-75557050D01*
X115124000Y-75069550D01*
X115125174Y-75045658D01*
X115128684Y-75021997D01*
X115134496Y-74998793D01*
X115142554Y-74976271D01*
X115152782Y-74954647D01*
X115165079Y-74934130D01*
X115179329Y-74914917D01*
X115195393Y-74897193D01*
X115213117Y-74881129D01*
X115232330Y-74866879D01*
X115252847Y-74854582D01*
X115274471Y-74844354D01*
X115296993Y-74836296D01*
X115320197Y-74830484D01*
X115343858Y-74826974D01*
X115367750Y-74825800D01*
X116280250Y-74825800D01*
X116304142Y-74826974D01*
X116304142Y-74826974D01*
G37*
D11*
X115824000Y-75313300D03*
G04 #@! TD*
D10*
G04 #@! TO.C,C7*
G36*
X117205142Y-64301174D02*
X117228803Y-64304684D01*
X117252007Y-64310496D01*
X117274529Y-64318554D01*
X117296153Y-64328782D01*
X117316670Y-64341079D01*
X117335883Y-64355329D01*
X117353607Y-64371393D01*
X117369671Y-64389117D01*
X117383921Y-64408330D01*
X117396218Y-64428847D01*
X117406446Y-64450471D01*
X117414504Y-64472993D01*
X117420316Y-64496197D01*
X117423826Y-64519858D01*
X117425000Y-64543750D01*
X117425000Y-65456250D01*
X117423826Y-65480142D01*
X117420316Y-65503803D01*
X117414504Y-65527007D01*
X117406446Y-65549529D01*
X117396218Y-65571153D01*
X117383921Y-65591670D01*
X117369671Y-65610883D01*
X117353607Y-65628607D01*
X117335883Y-65644671D01*
X117316670Y-65658921D01*
X117296153Y-65671218D01*
X117274529Y-65681446D01*
X117252007Y-65689504D01*
X117228803Y-65695316D01*
X117205142Y-65698826D01*
X117181250Y-65700000D01*
X116693750Y-65700000D01*
X116669858Y-65698826D01*
X116646197Y-65695316D01*
X116622993Y-65689504D01*
X116600471Y-65681446D01*
X116578847Y-65671218D01*
X116558330Y-65658921D01*
X116539117Y-65644671D01*
X116521393Y-65628607D01*
X116505329Y-65610883D01*
X116491079Y-65591670D01*
X116478782Y-65571153D01*
X116468554Y-65549529D01*
X116460496Y-65527007D01*
X116454684Y-65503803D01*
X116451174Y-65480142D01*
X116450000Y-65456250D01*
X116450000Y-64543750D01*
X116451174Y-64519858D01*
X116454684Y-64496197D01*
X116460496Y-64472993D01*
X116468554Y-64450471D01*
X116478782Y-64428847D01*
X116491079Y-64408330D01*
X116505329Y-64389117D01*
X116521393Y-64371393D01*
X116539117Y-64355329D01*
X116558330Y-64341079D01*
X116578847Y-64328782D01*
X116600471Y-64318554D01*
X116622993Y-64310496D01*
X116646197Y-64304684D01*
X116669858Y-64301174D01*
X116693750Y-64300000D01*
X117181250Y-64300000D01*
X117205142Y-64301174D01*
X117205142Y-64301174D01*
G37*
D11*
X116937500Y-65000000D03*
D10*
G36*
X115330142Y-64301174D02*
X115353803Y-64304684D01*
X115377007Y-64310496D01*
X115399529Y-64318554D01*
X115421153Y-64328782D01*
X115441670Y-64341079D01*
X115460883Y-64355329D01*
X115478607Y-64371393D01*
X115494671Y-64389117D01*
X115508921Y-64408330D01*
X115521218Y-64428847D01*
X115531446Y-64450471D01*
X115539504Y-64472993D01*
X115545316Y-64496197D01*
X115548826Y-64519858D01*
X115550000Y-64543750D01*
X115550000Y-65456250D01*
X115548826Y-65480142D01*
X115545316Y-65503803D01*
X115539504Y-65527007D01*
X115531446Y-65549529D01*
X115521218Y-65571153D01*
X115508921Y-65591670D01*
X115494671Y-65610883D01*
X115478607Y-65628607D01*
X115460883Y-65644671D01*
X115441670Y-65658921D01*
X115421153Y-65671218D01*
X115399529Y-65681446D01*
X115377007Y-65689504D01*
X115353803Y-65695316D01*
X115330142Y-65698826D01*
X115306250Y-65700000D01*
X114818750Y-65700000D01*
X114794858Y-65698826D01*
X114771197Y-65695316D01*
X114747993Y-65689504D01*
X114725471Y-65681446D01*
X114703847Y-65671218D01*
X114683330Y-65658921D01*
X114664117Y-65644671D01*
X114646393Y-65628607D01*
X114630329Y-65610883D01*
X114616079Y-65591670D01*
X114603782Y-65571153D01*
X114593554Y-65549529D01*
X114585496Y-65527007D01*
X114579684Y-65503803D01*
X114576174Y-65480142D01*
X114575000Y-65456250D01*
X114575000Y-64543750D01*
X114576174Y-64519858D01*
X114579684Y-64496197D01*
X114585496Y-64472993D01*
X114593554Y-64450471D01*
X114603782Y-64428847D01*
X114616079Y-64408330D01*
X114630329Y-64389117D01*
X114646393Y-64371393D01*
X114664117Y-64355329D01*
X114683330Y-64341079D01*
X114703847Y-64328782D01*
X114725471Y-64318554D01*
X114747993Y-64310496D01*
X114771197Y-64304684D01*
X114794858Y-64301174D01*
X114818750Y-64300000D01*
X115306250Y-64300000D01*
X115330142Y-64301174D01*
X115330142Y-64301174D01*
G37*
D11*
X115062500Y-65000000D03*
G04 #@! TD*
D10*
G04 #@! TO.C,C8*
G36*
X111699742Y-90690374D02*
X111723403Y-90693884D01*
X111746607Y-90699696D01*
X111769129Y-90707754D01*
X111790753Y-90717982D01*
X111811270Y-90730279D01*
X111830483Y-90744529D01*
X111848207Y-90760593D01*
X111864271Y-90778317D01*
X111878521Y-90797530D01*
X111890818Y-90818047D01*
X111901046Y-90839671D01*
X111909104Y-90862193D01*
X111914916Y-90885397D01*
X111918426Y-90909058D01*
X111919600Y-90932950D01*
X111919600Y-91845450D01*
X111918426Y-91869342D01*
X111914916Y-91893003D01*
X111909104Y-91916207D01*
X111901046Y-91938729D01*
X111890818Y-91960353D01*
X111878521Y-91980870D01*
X111864271Y-92000083D01*
X111848207Y-92017807D01*
X111830483Y-92033871D01*
X111811270Y-92048121D01*
X111790753Y-92060418D01*
X111769129Y-92070646D01*
X111746607Y-92078704D01*
X111723403Y-92084516D01*
X111699742Y-92088026D01*
X111675850Y-92089200D01*
X111188350Y-92089200D01*
X111164458Y-92088026D01*
X111140797Y-92084516D01*
X111117593Y-92078704D01*
X111095071Y-92070646D01*
X111073447Y-92060418D01*
X111052930Y-92048121D01*
X111033717Y-92033871D01*
X111015993Y-92017807D01*
X110999929Y-92000083D01*
X110985679Y-91980870D01*
X110973382Y-91960353D01*
X110963154Y-91938729D01*
X110955096Y-91916207D01*
X110949284Y-91893003D01*
X110945774Y-91869342D01*
X110944600Y-91845450D01*
X110944600Y-90932950D01*
X110945774Y-90909058D01*
X110949284Y-90885397D01*
X110955096Y-90862193D01*
X110963154Y-90839671D01*
X110973382Y-90818047D01*
X110985679Y-90797530D01*
X110999929Y-90778317D01*
X111015993Y-90760593D01*
X111033717Y-90744529D01*
X111052930Y-90730279D01*
X111073447Y-90717982D01*
X111095071Y-90707754D01*
X111117593Y-90699696D01*
X111140797Y-90693884D01*
X111164458Y-90690374D01*
X111188350Y-90689200D01*
X111675850Y-90689200D01*
X111699742Y-90690374D01*
X111699742Y-90690374D01*
G37*
D11*
X111432100Y-91389200D03*
D10*
G36*
X113574742Y-90690374D02*
X113598403Y-90693884D01*
X113621607Y-90699696D01*
X113644129Y-90707754D01*
X113665753Y-90717982D01*
X113686270Y-90730279D01*
X113705483Y-90744529D01*
X113723207Y-90760593D01*
X113739271Y-90778317D01*
X113753521Y-90797530D01*
X113765818Y-90818047D01*
X113776046Y-90839671D01*
X113784104Y-90862193D01*
X113789916Y-90885397D01*
X113793426Y-90909058D01*
X113794600Y-90932950D01*
X113794600Y-91845450D01*
X113793426Y-91869342D01*
X113789916Y-91893003D01*
X113784104Y-91916207D01*
X113776046Y-91938729D01*
X113765818Y-91960353D01*
X113753521Y-91980870D01*
X113739271Y-92000083D01*
X113723207Y-92017807D01*
X113705483Y-92033871D01*
X113686270Y-92048121D01*
X113665753Y-92060418D01*
X113644129Y-92070646D01*
X113621607Y-92078704D01*
X113598403Y-92084516D01*
X113574742Y-92088026D01*
X113550850Y-92089200D01*
X113063350Y-92089200D01*
X113039458Y-92088026D01*
X113015797Y-92084516D01*
X112992593Y-92078704D01*
X112970071Y-92070646D01*
X112948447Y-92060418D01*
X112927930Y-92048121D01*
X112908717Y-92033871D01*
X112890993Y-92017807D01*
X112874929Y-92000083D01*
X112860679Y-91980870D01*
X112848382Y-91960353D01*
X112838154Y-91938729D01*
X112830096Y-91916207D01*
X112824284Y-91893003D01*
X112820774Y-91869342D01*
X112819600Y-91845450D01*
X112819600Y-90932950D01*
X112820774Y-90909058D01*
X112824284Y-90885397D01*
X112830096Y-90862193D01*
X112838154Y-90839671D01*
X112848382Y-90818047D01*
X112860679Y-90797530D01*
X112874929Y-90778317D01*
X112890993Y-90760593D01*
X112908717Y-90744529D01*
X112927930Y-90730279D01*
X112948447Y-90717982D01*
X112970071Y-90707754D01*
X112992593Y-90699696D01*
X113015797Y-90693884D01*
X113039458Y-90690374D01*
X113063350Y-90689200D01*
X113550850Y-90689200D01*
X113574742Y-90690374D01*
X113574742Y-90690374D01*
G37*
D11*
X113307100Y-91389200D03*
G04 #@! TD*
D10*
G04 #@! TO.C,C9*
G36*
X113574742Y-97802374D02*
X113598403Y-97805884D01*
X113621607Y-97811696D01*
X113644129Y-97819754D01*
X113665753Y-97829982D01*
X113686270Y-97842279D01*
X113705483Y-97856529D01*
X113723207Y-97872593D01*
X113739271Y-97890317D01*
X113753521Y-97909530D01*
X113765818Y-97930047D01*
X113776046Y-97951671D01*
X113784104Y-97974193D01*
X113789916Y-97997397D01*
X113793426Y-98021058D01*
X113794600Y-98044950D01*
X113794600Y-98957450D01*
X113793426Y-98981342D01*
X113789916Y-99005003D01*
X113784104Y-99028207D01*
X113776046Y-99050729D01*
X113765818Y-99072353D01*
X113753521Y-99092870D01*
X113739271Y-99112083D01*
X113723207Y-99129807D01*
X113705483Y-99145871D01*
X113686270Y-99160121D01*
X113665753Y-99172418D01*
X113644129Y-99182646D01*
X113621607Y-99190704D01*
X113598403Y-99196516D01*
X113574742Y-99200026D01*
X113550850Y-99201200D01*
X113063350Y-99201200D01*
X113039458Y-99200026D01*
X113015797Y-99196516D01*
X112992593Y-99190704D01*
X112970071Y-99182646D01*
X112948447Y-99172418D01*
X112927930Y-99160121D01*
X112908717Y-99145871D01*
X112890993Y-99129807D01*
X112874929Y-99112083D01*
X112860679Y-99092870D01*
X112848382Y-99072353D01*
X112838154Y-99050729D01*
X112830096Y-99028207D01*
X112824284Y-99005003D01*
X112820774Y-98981342D01*
X112819600Y-98957450D01*
X112819600Y-98044950D01*
X112820774Y-98021058D01*
X112824284Y-97997397D01*
X112830096Y-97974193D01*
X112838154Y-97951671D01*
X112848382Y-97930047D01*
X112860679Y-97909530D01*
X112874929Y-97890317D01*
X112890993Y-97872593D01*
X112908717Y-97856529D01*
X112927930Y-97842279D01*
X112948447Y-97829982D01*
X112970071Y-97819754D01*
X112992593Y-97811696D01*
X113015797Y-97805884D01*
X113039458Y-97802374D01*
X113063350Y-97801200D01*
X113550850Y-97801200D01*
X113574742Y-97802374D01*
X113574742Y-97802374D01*
G37*
D11*
X113307100Y-98501200D03*
D10*
G36*
X111699742Y-97802374D02*
X111723403Y-97805884D01*
X111746607Y-97811696D01*
X111769129Y-97819754D01*
X111790753Y-97829982D01*
X111811270Y-97842279D01*
X111830483Y-97856529D01*
X111848207Y-97872593D01*
X111864271Y-97890317D01*
X111878521Y-97909530D01*
X111890818Y-97930047D01*
X111901046Y-97951671D01*
X111909104Y-97974193D01*
X111914916Y-97997397D01*
X111918426Y-98021058D01*
X111919600Y-98044950D01*
X111919600Y-98957450D01*
X111918426Y-98981342D01*
X111914916Y-99005003D01*
X111909104Y-99028207D01*
X111901046Y-99050729D01*
X111890818Y-99072353D01*
X111878521Y-99092870D01*
X111864271Y-99112083D01*
X111848207Y-99129807D01*
X111830483Y-99145871D01*
X111811270Y-99160121D01*
X111790753Y-99172418D01*
X111769129Y-99182646D01*
X111746607Y-99190704D01*
X111723403Y-99196516D01*
X111699742Y-99200026D01*
X111675850Y-99201200D01*
X111188350Y-99201200D01*
X111164458Y-99200026D01*
X111140797Y-99196516D01*
X111117593Y-99190704D01*
X111095071Y-99182646D01*
X111073447Y-99172418D01*
X111052930Y-99160121D01*
X111033717Y-99145871D01*
X111015993Y-99129807D01*
X110999929Y-99112083D01*
X110985679Y-99092870D01*
X110973382Y-99072353D01*
X110963154Y-99050729D01*
X110955096Y-99028207D01*
X110949284Y-99005003D01*
X110945774Y-98981342D01*
X110944600Y-98957450D01*
X110944600Y-98044950D01*
X110945774Y-98021058D01*
X110949284Y-97997397D01*
X110955096Y-97974193D01*
X110963154Y-97951671D01*
X110973382Y-97930047D01*
X110985679Y-97909530D01*
X110999929Y-97890317D01*
X111015993Y-97872593D01*
X111033717Y-97856529D01*
X111052930Y-97842279D01*
X111073447Y-97829982D01*
X111095071Y-97819754D01*
X111117593Y-97811696D01*
X111140797Y-97805884D01*
X111164458Y-97802374D01*
X111188350Y-97801200D01*
X111675850Y-97801200D01*
X111699742Y-97802374D01*
X111699742Y-97802374D01*
G37*
D11*
X111432100Y-98501200D03*
G04 #@! TD*
D10*
G04 #@! TO.C,C11*
G36*
X120792942Y-126148774D02*
X120816603Y-126152284D01*
X120839807Y-126158096D01*
X120862329Y-126166154D01*
X120883953Y-126176382D01*
X120904470Y-126188679D01*
X120923683Y-126202929D01*
X120941407Y-126218993D01*
X120957471Y-126236717D01*
X120971721Y-126255930D01*
X120984018Y-126276447D01*
X120994246Y-126298071D01*
X121002304Y-126320593D01*
X121008116Y-126343797D01*
X121011626Y-126367458D01*
X121012800Y-126391350D01*
X121012800Y-127303850D01*
X121011626Y-127327742D01*
X121008116Y-127351403D01*
X121002304Y-127374607D01*
X120994246Y-127397129D01*
X120984018Y-127418753D01*
X120971721Y-127439270D01*
X120957471Y-127458483D01*
X120941407Y-127476207D01*
X120923683Y-127492271D01*
X120904470Y-127506521D01*
X120883953Y-127518818D01*
X120862329Y-127529046D01*
X120839807Y-127537104D01*
X120816603Y-127542916D01*
X120792942Y-127546426D01*
X120769050Y-127547600D01*
X120281550Y-127547600D01*
X120257658Y-127546426D01*
X120233997Y-127542916D01*
X120210793Y-127537104D01*
X120188271Y-127529046D01*
X120166647Y-127518818D01*
X120146130Y-127506521D01*
X120126917Y-127492271D01*
X120109193Y-127476207D01*
X120093129Y-127458483D01*
X120078879Y-127439270D01*
X120066582Y-127418753D01*
X120056354Y-127397129D01*
X120048296Y-127374607D01*
X120042484Y-127351403D01*
X120038974Y-127327742D01*
X120037800Y-127303850D01*
X120037800Y-126391350D01*
X120038974Y-126367458D01*
X120042484Y-126343797D01*
X120048296Y-126320593D01*
X120056354Y-126298071D01*
X120066582Y-126276447D01*
X120078879Y-126255930D01*
X120093129Y-126236717D01*
X120109193Y-126218993D01*
X120126917Y-126202929D01*
X120146130Y-126188679D01*
X120166647Y-126176382D01*
X120188271Y-126166154D01*
X120210793Y-126158096D01*
X120233997Y-126152284D01*
X120257658Y-126148774D01*
X120281550Y-126147600D01*
X120769050Y-126147600D01*
X120792942Y-126148774D01*
X120792942Y-126148774D01*
G37*
D11*
X120525300Y-126847600D03*
D10*
G36*
X122667942Y-126148774D02*
X122691603Y-126152284D01*
X122714807Y-126158096D01*
X122737329Y-126166154D01*
X122758953Y-126176382D01*
X122779470Y-126188679D01*
X122798683Y-126202929D01*
X122816407Y-126218993D01*
X122832471Y-126236717D01*
X122846721Y-126255930D01*
X122859018Y-126276447D01*
X122869246Y-126298071D01*
X122877304Y-126320593D01*
X122883116Y-126343797D01*
X122886626Y-126367458D01*
X122887800Y-126391350D01*
X122887800Y-127303850D01*
X122886626Y-127327742D01*
X122883116Y-127351403D01*
X122877304Y-127374607D01*
X122869246Y-127397129D01*
X122859018Y-127418753D01*
X122846721Y-127439270D01*
X122832471Y-127458483D01*
X122816407Y-127476207D01*
X122798683Y-127492271D01*
X122779470Y-127506521D01*
X122758953Y-127518818D01*
X122737329Y-127529046D01*
X122714807Y-127537104D01*
X122691603Y-127542916D01*
X122667942Y-127546426D01*
X122644050Y-127547600D01*
X122156550Y-127547600D01*
X122132658Y-127546426D01*
X122108997Y-127542916D01*
X122085793Y-127537104D01*
X122063271Y-127529046D01*
X122041647Y-127518818D01*
X122021130Y-127506521D01*
X122001917Y-127492271D01*
X121984193Y-127476207D01*
X121968129Y-127458483D01*
X121953879Y-127439270D01*
X121941582Y-127418753D01*
X121931354Y-127397129D01*
X121923296Y-127374607D01*
X121917484Y-127351403D01*
X121913974Y-127327742D01*
X121912800Y-127303850D01*
X121912800Y-126391350D01*
X121913974Y-126367458D01*
X121917484Y-126343797D01*
X121923296Y-126320593D01*
X121931354Y-126298071D01*
X121941582Y-126276447D01*
X121953879Y-126255930D01*
X121968129Y-126236717D01*
X121984193Y-126218993D01*
X122001917Y-126202929D01*
X122021130Y-126188679D01*
X122041647Y-126176382D01*
X122063271Y-126166154D01*
X122085793Y-126158096D01*
X122108997Y-126152284D01*
X122132658Y-126148774D01*
X122156550Y-126147600D01*
X122644050Y-126147600D01*
X122667942Y-126148774D01*
X122667942Y-126148774D01*
G37*
D11*
X122400300Y-126847600D03*
G04 #@! TD*
D10*
G04 #@! TO.C,C12*
G36*
X125314142Y-66153974D02*
X125337803Y-66157484D01*
X125361007Y-66163296D01*
X125383529Y-66171354D01*
X125405153Y-66181582D01*
X125425670Y-66193879D01*
X125444883Y-66208129D01*
X125462607Y-66224193D01*
X125478671Y-66241917D01*
X125492921Y-66261130D01*
X125505218Y-66281647D01*
X125515446Y-66303271D01*
X125523504Y-66325793D01*
X125529316Y-66348997D01*
X125532826Y-66372658D01*
X125534000Y-66396550D01*
X125534000Y-67309050D01*
X125532826Y-67332942D01*
X125529316Y-67356603D01*
X125523504Y-67379807D01*
X125515446Y-67402329D01*
X125505218Y-67423953D01*
X125492921Y-67444470D01*
X125478671Y-67463683D01*
X125462607Y-67481407D01*
X125444883Y-67497471D01*
X125425670Y-67511721D01*
X125405153Y-67524018D01*
X125383529Y-67534246D01*
X125361007Y-67542304D01*
X125337803Y-67548116D01*
X125314142Y-67551626D01*
X125290250Y-67552800D01*
X124802750Y-67552800D01*
X124778858Y-67551626D01*
X124755197Y-67548116D01*
X124731993Y-67542304D01*
X124709471Y-67534246D01*
X124687847Y-67524018D01*
X124667330Y-67511721D01*
X124648117Y-67497471D01*
X124630393Y-67481407D01*
X124614329Y-67463683D01*
X124600079Y-67444470D01*
X124587782Y-67423953D01*
X124577554Y-67402329D01*
X124569496Y-67379807D01*
X124563684Y-67356603D01*
X124560174Y-67332942D01*
X124559000Y-67309050D01*
X124559000Y-66396550D01*
X124560174Y-66372658D01*
X124563684Y-66348997D01*
X124569496Y-66325793D01*
X124577554Y-66303271D01*
X124587782Y-66281647D01*
X124600079Y-66261130D01*
X124614329Y-66241917D01*
X124630393Y-66224193D01*
X124648117Y-66208129D01*
X124667330Y-66193879D01*
X124687847Y-66181582D01*
X124709471Y-66171354D01*
X124731993Y-66163296D01*
X124755197Y-66157484D01*
X124778858Y-66153974D01*
X124802750Y-66152800D01*
X125290250Y-66152800D01*
X125314142Y-66153974D01*
X125314142Y-66153974D01*
G37*
D11*
X125046500Y-66852800D03*
D10*
G36*
X127189142Y-66153974D02*
X127212803Y-66157484D01*
X127236007Y-66163296D01*
X127258529Y-66171354D01*
X127280153Y-66181582D01*
X127300670Y-66193879D01*
X127319883Y-66208129D01*
X127337607Y-66224193D01*
X127353671Y-66241917D01*
X127367921Y-66261130D01*
X127380218Y-66281647D01*
X127390446Y-66303271D01*
X127398504Y-66325793D01*
X127404316Y-66348997D01*
X127407826Y-66372658D01*
X127409000Y-66396550D01*
X127409000Y-67309050D01*
X127407826Y-67332942D01*
X127404316Y-67356603D01*
X127398504Y-67379807D01*
X127390446Y-67402329D01*
X127380218Y-67423953D01*
X127367921Y-67444470D01*
X127353671Y-67463683D01*
X127337607Y-67481407D01*
X127319883Y-67497471D01*
X127300670Y-67511721D01*
X127280153Y-67524018D01*
X127258529Y-67534246D01*
X127236007Y-67542304D01*
X127212803Y-67548116D01*
X127189142Y-67551626D01*
X127165250Y-67552800D01*
X126677750Y-67552800D01*
X126653858Y-67551626D01*
X126630197Y-67548116D01*
X126606993Y-67542304D01*
X126584471Y-67534246D01*
X126562847Y-67524018D01*
X126542330Y-67511721D01*
X126523117Y-67497471D01*
X126505393Y-67481407D01*
X126489329Y-67463683D01*
X126475079Y-67444470D01*
X126462782Y-67423953D01*
X126452554Y-67402329D01*
X126444496Y-67379807D01*
X126438684Y-67356603D01*
X126435174Y-67332942D01*
X126434000Y-67309050D01*
X126434000Y-66396550D01*
X126435174Y-66372658D01*
X126438684Y-66348997D01*
X126444496Y-66325793D01*
X126452554Y-66303271D01*
X126462782Y-66281647D01*
X126475079Y-66261130D01*
X126489329Y-66241917D01*
X126505393Y-66224193D01*
X126523117Y-66208129D01*
X126542330Y-66193879D01*
X126562847Y-66181582D01*
X126584471Y-66171354D01*
X126606993Y-66163296D01*
X126630197Y-66157484D01*
X126653858Y-66153974D01*
X126677750Y-66152800D01*
X127165250Y-66152800D01*
X127189142Y-66153974D01*
X127189142Y-66153974D01*
G37*
D11*
X126921500Y-66852800D03*
G04 #@! TD*
D10*
G04 #@! TO.C,C15*
G36*
X126634942Y-85559574D02*
X126658603Y-85563084D01*
X126681807Y-85568896D01*
X126704329Y-85576954D01*
X126725953Y-85587182D01*
X126746470Y-85599479D01*
X126765683Y-85613729D01*
X126783407Y-85629793D01*
X126799471Y-85647517D01*
X126813721Y-85666730D01*
X126826018Y-85687247D01*
X126836246Y-85708871D01*
X126844304Y-85731393D01*
X126850116Y-85754597D01*
X126853626Y-85778258D01*
X126854800Y-85802150D01*
X126854800Y-86714650D01*
X126853626Y-86738542D01*
X126850116Y-86762203D01*
X126844304Y-86785407D01*
X126836246Y-86807929D01*
X126826018Y-86829553D01*
X126813721Y-86850070D01*
X126799471Y-86869283D01*
X126783407Y-86887007D01*
X126765683Y-86903071D01*
X126746470Y-86917321D01*
X126725953Y-86929618D01*
X126704329Y-86939846D01*
X126681807Y-86947904D01*
X126658603Y-86953716D01*
X126634942Y-86957226D01*
X126611050Y-86958400D01*
X126123550Y-86958400D01*
X126099658Y-86957226D01*
X126075997Y-86953716D01*
X126052793Y-86947904D01*
X126030271Y-86939846D01*
X126008647Y-86929618D01*
X125988130Y-86917321D01*
X125968917Y-86903071D01*
X125951193Y-86887007D01*
X125935129Y-86869283D01*
X125920879Y-86850070D01*
X125908582Y-86829553D01*
X125898354Y-86807929D01*
X125890296Y-86785407D01*
X125884484Y-86762203D01*
X125880974Y-86738542D01*
X125879800Y-86714650D01*
X125879800Y-85802150D01*
X125880974Y-85778258D01*
X125884484Y-85754597D01*
X125890296Y-85731393D01*
X125898354Y-85708871D01*
X125908582Y-85687247D01*
X125920879Y-85666730D01*
X125935129Y-85647517D01*
X125951193Y-85629793D01*
X125968917Y-85613729D01*
X125988130Y-85599479D01*
X126008647Y-85587182D01*
X126030271Y-85576954D01*
X126052793Y-85568896D01*
X126075997Y-85563084D01*
X126099658Y-85559574D01*
X126123550Y-85558400D01*
X126611050Y-85558400D01*
X126634942Y-85559574D01*
X126634942Y-85559574D01*
G37*
D11*
X126367300Y-86258400D03*
D10*
G36*
X128509942Y-85559574D02*
X128533603Y-85563084D01*
X128556807Y-85568896D01*
X128579329Y-85576954D01*
X128600953Y-85587182D01*
X128621470Y-85599479D01*
X128640683Y-85613729D01*
X128658407Y-85629793D01*
X128674471Y-85647517D01*
X128688721Y-85666730D01*
X128701018Y-85687247D01*
X128711246Y-85708871D01*
X128719304Y-85731393D01*
X128725116Y-85754597D01*
X128728626Y-85778258D01*
X128729800Y-85802150D01*
X128729800Y-86714650D01*
X128728626Y-86738542D01*
X128725116Y-86762203D01*
X128719304Y-86785407D01*
X128711246Y-86807929D01*
X128701018Y-86829553D01*
X128688721Y-86850070D01*
X128674471Y-86869283D01*
X128658407Y-86887007D01*
X128640683Y-86903071D01*
X128621470Y-86917321D01*
X128600953Y-86929618D01*
X128579329Y-86939846D01*
X128556807Y-86947904D01*
X128533603Y-86953716D01*
X128509942Y-86957226D01*
X128486050Y-86958400D01*
X127998550Y-86958400D01*
X127974658Y-86957226D01*
X127950997Y-86953716D01*
X127927793Y-86947904D01*
X127905271Y-86939846D01*
X127883647Y-86929618D01*
X127863130Y-86917321D01*
X127843917Y-86903071D01*
X127826193Y-86887007D01*
X127810129Y-86869283D01*
X127795879Y-86850070D01*
X127783582Y-86829553D01*
X127773354Y-86807929D01*
X127765296Y-86785407D01*
X127759484Y-86762203D01*
X127755974Y-86738542D01*
X127754800Y-86714650D01*
X127754800Y-85802150D01*
X127755974Y-85778258D01*
X127759484Y-85754597D01*
X127765296Y-85731393D01*
X127773354Y-85708871D01*
X127783582Y-85687247D01*
X127795879Y-85666730D01*
X127810129Y-85647517D01*
X127826193Y-85629793D01*
X127843917Y-85613729D01*
X127863130Y-85599479D01*
X127883647Y-85587182D01*
X127905271Y-85576954D01*
X127927793Y-85568896D01*
X127950997Y-85563084D01*
X127974658Y-85559574D01*
X127998550Y-85558400D01*
X128486050Y-85558400D01*
X128509942Y-85559574D01*
X128509942Y-85559574D01*
G37*
D11*
X128242300Y-86258400D03*
G04 #@! TD*
D10*
G04 #@! TO.C,L1*
G36*
X114272142Y-64459174D02*
X114295803Y-64462684D01*
X114319007Y-64468496D01*
X114341529Y-64476554D01*
X114363153Y-64486782D01*
X114383670Y-64499079D01*
X114402883Y-64513329D01*
X114420607Y-64529393D01*
X114436671Y-64547117D01*
X114450921Y-64566330D01*
X114463218Y-64586847D01*
X114473446Y-64608471D01*
X114481504Y-64630993D01*
X114487316Y-64654197D01*
X114490826Y-64677858D01*
X114492000Y-64701750D01*
X114492000Y-65189250D01*
X114490826Y-65213142D01*
X114487316Y-65236803D01*
X114481504Y-65260007D01*
X114473446Y-65282529D01*
X114463218Y-65304153D01*
X114450921Y-65324670D01*
X114436671Y-65343883D01*
X114420607Y-65361607D01*
X114402883Y-65377671D01*
X114383670Y-65391921D01*
X114363153Y-65404218D01*
X114341529Y-65414446D01*
X114319007Y-65422504D01*
X114295803Y-65428316D01*
X114272142Y-65431826D01*
X114248250Y-65433000D01*
X113335750Y-65433000D01*
X113311858Y-65431826D01*
X113288197Y-65428316D01*
X113264993Y-65422504D01*
X113242471Y-65414446D01*
X113220847Y-65404218D01*
X113200330Y-65391921D01*
X113181117Y-65377671D01*
X113163393Y-65361607D01*
X113147329Y-65343883D01*
X113133079Y-65324670D01*
X113120782Y-65304153D01*
X113110554Y-65282529D01*
X113102496Y-65260007D01*
X113096684Y-65236803D01*
X113093174Y-65213142D01*
X113092000Y-65189250D01*
X113092000Y-64701750D01*
X113093174Y-64677858D01*
X113096684Y-64654197D01*
X113102496Y-64630993D01*
X113110554Y-64608471D01*
X113120782Y-64586847D01*
X113133079Y-64566330D01*
X113147329Y-64547117D01*
X113163393Y-64529393D01*
X113181117Y-64513329D01*
X113200330Y-64499079D01*
X113220847Y-64486782D01*
X113242471Y-64476554D01*
X113264993Y-64468496D01*
X113288197Y-64462684D01*
X113311858Y-64459174D01*
X113335750Y-64458000D01*
X114248250Y-64458000D01*
X114272142Y-64459174D01*
X114272142Y-64459174D01*
G37*
D11*
X113792000Y-64945500D03*
D10*
G36*
X114272142Y-62584174D02*
X114295803Y-62587684D01*
X114319007Y-62593496D01*
X114341529Y-62601554D01*
X114363153Y-62611782D01*
X114383670Y-62624079D01*
X114402883Y-62638329D01*
X114420607Y-62654393D01*
X114436671Y-62672117D01*
X114450921Y-62691330D01*
X114463218Y-62711847D01*
X114473446Y-62733471D01*
X114481504Y-62755993D01*
X114487316Y-62779197D01*
X114490826Y-62802858D01*
X114492000Y-62826750D01*
X114492000Y-63314250D01*
X114490826Y-63338142D01*
X114487316Y-63361803D01*
X114481504Y-63385007D01*
X114473446Y-63407529D01*
X114463218Y-63429153D01*
X114450921Y-63449670D01*
X114436671Y-63468883D01*
X114420607Y-63486607D01*
X114402883Y-63502671D01*
X114383670Y-63516921D01*
X114363153Y-63529218D01*
X114341529Y-63539446D01*
X114319007Y-63547504D01*
X114295803Y-63553316D01*
X114272142Y-63556826D01*
X114248250Y-63558000D01*
X113335750Y-63558000D01*
X113311858Y-63556826D01*
X113288197Y-63553316D01*
X113264993Y-63547504D01*
X113242471Y-63539446D01*
X113220847Y-63529218D01*
X113200330Y-63516921D01*
X113181117Y-63502671D01*
X113163393Y-63486607D01*
X113147329Y-63468883D01*
X113133079Y-63449670D01*
X113120782Y-63429153D01*
X113110554Y-63407529D01*
X113102496Y-63385007D01*
X113096684Y-63361803D01*
X113093174Y-63338142D01*
X113092000Y-63314250D01*
X113092000Y-62826750D01*
X113093174Y-62802858D01*
X113096684Y-62779197D01*
X113102496Y-62755993D01*
X113110554Y-62733471D01*
X113120782Y-62711847D01*
X113133079Y-62691330D01*
X113147329Y-62672117D01*
X113163393Y-62654393D01*
X113181117Y-62638329D01*
X113200330Y-62624079D01*
X113220847Y-62611782D01*
X113242471Y-62601554D01*
X113264993Y-62593496D01*
X113288197Y-62587684D01*
X113311858Y-62584174D01*
X113335750Y-62583000D01*
X114248250Y-62583000D01*
X114272142Y-62584174D01*
X114272142Y-62584174D01*
G37*
D11*
X113792000Y-63070500D03*
G04 #@! TD*
D10*
G04 #@! TO.C,L2*
G36*
X118691742Y-66694374D02*
X118715403Y-66697884D01*
X118738607Y-66703696D01*
X118761129Y-66711754D01*
X118782753Y-66721982D01*
X118803270Y-66734279D01*
X118822483Y-66748529D01*
X118840207Y-66764593D01*
X118856271Y-66782317D01*
X118870521Y-66801530D01*
X118882818Y-66822047D01*
X118893046Y-66843671D01*
X118901104Y-66866193D01*
X118906916Y-66889397D01*
X118910426Y-66913058D01*
X118911600Y-66936950D01*
X118911600Y-67424450D01*
X118910426Y-67448342D01*
X118906916Y-67472003D01*
X118901104Y-67495207D01*
X118893046Y-67517729D01*
X118882818Y-67539353D01*
X118870521Y-67559870D01*
X118856271Y-67579083D01*
X118840207Y-67596807D01*
X118822483Y-67612871D01*
X118803270Y-67627121D01*
X118782753Y-67639418D01*
X118761129Y-67649646D01*
X118738607Y-67657704D01*
X118715403Y-67663516D01*
X118691742Y-67667026D01*
X118667850Y-67668200D01*
X117755350Y-67668200D01*
X117731458Y-67667026D01*
X117707797Y-67663516D01*
X117684593Y-67657704D01*
X117662071Y-67649646D01*
X117640447Y-67639418D01*
X117619930Y-67627121D01*
X117600717Y-67612871D01*
X117582993Y-67596807D01*
X117566929Y-67579083D01*
X117552679Y-67559870D01*
X117540382Y-67539353D01*
X117530154Y-67517729D01*
X117522096Y-67495207D01*
X117516284Y-67472003D01*
X117512774Y-67448342D01*
X117511600Y-67424450D01*
X117511600Y-66936950D01*
X117512774Y-66913058D01*
X117516284Y-66889397D01*
X117522096Y-66866193D01*
X117530154Y-66843671D01*
X117540382Y-66822047D01*
X117552679Y-66801530D01*
X117566929Y-66782317D01*
X117582993Y-66764593D01*
X117600717Y-66748529D01*
X117619930Y-66734279D01*
X117640447Y-66721982D01*
X117662071Y-66711754D01*
X117684593Y-66703696D01*
X117707797Y-66697884D01*
X117731458Y-66694374D01*
X117755350Y-66693200D01*
X118667850Y-66693200D01*
X118691742Y-66694374D01*
X118691742Y-66694374D01*
G37*
D11*
X118211600Y-67180700D03*
D10*
G36*
X118691742Y-64819374D02*
X118715403Y-64822884D01*
X118738607Y-64828696D01*
X118761129Y-64836754D01*
X118782753Y-64846982D01*
X118803270Y-64859279D01*
X118822483Y-64873529D01*
X118840207Y-64889593D01*
X118856271Y-64907317D01*
X118870521Y-64926530D01*
X118882818Y-64947047D01*
X118893046Y-64968671D01*
X118901104Y-64991193D01*
X118906916Y-65014397D01*
X118910426Y-65038058D01*
X118911600Y-65061950D01*
X118911600Y-65549450D01*
X118910426Y-65573342D01*
X118906916Y-65597003D01*
X118901104Y-65620207D01*
X118893046Y-65642729D01*
X118882818Y-65664353D01*
X118870521Y-65684870D01*
X118856271Y-65704083D01*
X118840207Y-65721807D01*
X118822483Y-65737871D01*
X118803270Y-65752121D01*
X118782753Y-65764418D01*
X118761129Y-65774646D01*
X118738607Y-65782704D01*
X118715403Y-65788516D01*
X118691742Y-65792026D01*
X118667850Y-65793200D01*
X117755350Y-65793200D01*
X117731458Y-65792026D01*
X117707797Y-65788516D01*
X117684593Y-65782704D01*
X117662071Y-65774646D01*
X117640447Y-65764418D01*
X117619930Y-65752121D01*
X117600717Y-65737871D01*
X117582993Y-65721807D01*
X117566929Y-65704083D01*
X117552679Y-65684870D01*
X117540382Y-65664353D01*
X117530154Y-65642729D01*
X117522096Y-65620207D01*
X117516284Y-65597003D01*
X117512774Y-65573342D01*
X117511600Y-65549450D01*
X117511600Y-65061950D01*
X117512774Y-65038058D01*
X117516284Y-65014397D01*
X117522096Y-64991193D01*
X117530154Y-64968671D01*
X117540382Y-64947047D01*
X117552679Y-64926530D01*
X117566929Y-64907317D01*
X117582993Y-64889593D01*
X117600717Y-64873529D01*
X117619930Y-64859279D01*
X117640447Y-64846982D01*
X117662071Y-64836754D01*
X117684593Y-64828696D01*
X117707797Y-64822884D01*
X117731458Y-64819374D01*
X117755350Y-64818200D01*
X118667850Y-64818200D01*
X118691742Y-64819374D01*
X118691742Y-64819374D01*
G37*
D11*
X118211600Y-65305700D03*
G04 #@! TD*
M02*
