G04 #@! TF.GenerationSoftware,KiCad,Pcbnew,5.1.6-c6e7f7d~87~ubuntu20.04.1*
G04 #@! TF.CreationDate,2020-07-20T11:44:09+02:00*
G04 #@! TF.ProjectId,weerstasie,77656572-7374-4617-9369-652e6b696361,rev?*
G04 #@! TF.SameCoordinates,Original*
G04 #@! TF.FileFunction,Paste,Bot*
G04 #@! TF.FilePolarity,Positive*
%FSLAX46Y46*%
G04 Gerber Fmt 4.6, Leading zero omitted, Abs format (unit mm)*
G04 Created by KiCad (PCBNEW 5.1.6-c6e7f7d~87~ubuntu20.04.1) date 2020-07-20 11:44:09*
%MOMM*%
%LPD*%
G01*
G04 APERTURE LIST*
G04 APERTURE END LIST*
G36*
G01*
X126979500Y-105969750D02*
X126979500Y-106882250D01*
G75*
G02*
X126735750Y-107126000I-243750J0D01*
G01*
X126248250Y-107126000D01*
G75*
G02*
X126004500Y-106882250I0J243750D01*
G01*
X126004500Y-105969750D01*
G75*
G02*
X126248250Y-105726000I243750J0D01*
G01*
X126735750Y-105726000D01*
G75*
G02*
X126979500Y-105969750I0J-243750D01*
G01*
G37*
G36*
G01*
X128854500Y-105969750D02*
X128854500Y-106882250D01*
G75*
G02*
X128610750Y-107126000I-243750J0D01*
G01*
X128123250Y-107126000D01*
G75*
G02*
X127879500Y-106882250I0J243750D01*
G01*
X127879500Y-105969750D01*
G75*
G02*
X128123250Y-105726000I243750J0D01*
G01*
X128610750Y-105726000D01*
G75*
G02*
X128854500Y-105969750I0J-243750D01*
G01*
G37*
G36*
G01*
X118517350Y-79467100D02*
X119429850Y-79467100D01*
G75*
G02*
X119673600Y-79710850I0J-243750D01*
G01*
X119673600Y-80198350D01*
G75*
G02*
X119429850Y-80442100I-243750J0D01*
G01*
X118517350Y-80442100D01*
G75*
G02*
X118273600Y-80198350I0J243750D01*
G01*
X118273600Y-79710850D01*
G75*
G02*
X118517350Y-79467100I243750J0D01*
G01*
G37*
G36*
G01*
X118517350Y-77592100D02*
X119429850Y-77592100D01*
G75*
G02*
X119673600Y-77835850I0J-243750D01*
G01*
X119673600Y-78323350D01*
G75*
G02*
X119429850Y-78567100I-243750J0D01*
G01*
X118517350Y-78567100D01*
G75*
G02*
X118273600Y-78323350I0J243750D01*
G01*
X118273600Y-77835850D01*
G75*
G02*
X118517350Y-77592100I243750J0D01*
G01*
G37*
G36*
G01*
X121665050Y-93677800D02*
X120752550Y-93677800D01*
G75*
G02*
X120508800Y-93434050I0J243750D01*
G01*
X120508800Y-92946550D01*
G75*
G02*
X120752550Y-92702800I243750J0D01*
G01*
X121665050Y-92702800D01*
G75*
G02*
X121908800Y-92946550I0J-243750D01*
G01*
X121908800Y-93434050D01*
G75*
G02*
X121665050Y-93677800I-243750J0D01*
G01*
G37*
G36*
G01*
X121665050Y-91802800D02*
X120752550Y-91802800D01*
G75*
G02*
X120508800Y-91559050I0J243750D01*
G01*
X120508800Y-91071550D01*
G75*
G02*
X120752550Y-90827800I243750J0D01*
G01*
X121665050Y-90827800D01*
G75*
G02*
X121908800Y-91071550I0J-243750D01*
G01*
X121908800Y-91559050D01*
G75*
G02*
X121665050Y-91802800I-243750J0D01*
G01*
G37*
G36*
G01*
X130402650Y-91548800D02*
X129490150Y-91548800D01*
G75*
G02*
X129246400Y-91305050I0J243750D01*
G01*
X129246400Y-90817550D01*
G75*
G02*
X129490150Y-90573800I243750J0D01*
G01*
X130402650Y-90573800D01*
G75*
G02*
X130646400Y-90817550I0J-243750D01*
G01*
X130646400Y-91305050D01*
G75*
G02*
X130402650Y-91548800I-243750J0D01*
G01*
G37*
G36*
G01*
X130402650Y-93423800D02*
X129490150Y-93423800D01*
G75*
G02*
X129246400Y-93180050I0J243750D01*
G01*
X129246400Y-92692550D01*
G75*
G02*
X129490150Y-92448800I243750J0D01*
G01*
X130402650Y-92448800D01*
G75*
G02*
X130646400Y-92692550I0J-243750D01*
G01*
X130646400Y-93180050D01*
G75*
G02*
X130402650Y-93423800I-243750J0D01*
G01*
G37*
G36*
G01*
X123903800Y-95809750D02*
X123903800Y-96722250D01*
G75*
G02*
X123660050Y-96966000I-243750J0D01*
G01*
X123172550Y-96966000D01*
G75*
G02*
X122928800Y-96722250I0J243750D01*
G01*
X122928800Y-95809750D01*
G75*
G02*
X123172550Y-95566000I243750J0D01*
G01*
X123660050Y-95566000D01*
G75*
G02*
X123903800Y-95809750I0J-243750D01*
G01*
G37*
G36*
G01*
X122028800Y-95809750D02*
X122028800Y-96722250D01*
G75*
G02*
X121785050Y-96966000I-243750J0D01*
G01*
X121297550Y-96966000D01*
G75*
G02*
X121053800Y-96722250I0J243750D01*
G01*
X121053800Y-95809750D01*
G75*
G02*
X121297550Y-95566000I243750J0D01*
G01*
X121785050Y-95566000D01*
G75*
G02*
X122028800Y-95809750I0J-243750D01*
G01*
G37*
G36*
G01*
X129540950Y-96462000D02*
X130453450Y-96462000D01*
G75*
G02*
X130697200Y-96705750I0J-243750D01*
G01*
X130697200Y-97193250D01*
G75*
G02*
X130453450Y-97437000I-243750J0D01*
G01*
X129540950Y-97437000D01*
G75*
G02*
X129297200Y-97193250I0J243750D01*
G01*
X129297200Y-96705750D01*
G75*
G02*
X129540950Y-96462000I243750J0D01*
G01*
G37*
G36*
G01*
X129540950Y-94587000D02*
X130453450Y-94587000D01*
G75*
G02*
X130697200Y-94830750I0J-243750D01*
G01*
X130697200Y-95318250D01*
G75*
G02*
X130453450Y-95562000I-243750J0D01*
G01*
X129540950Y-95562000D01*
G75*
G02*
X129297200Y-95318250I0J243750D01*
G01*
X129297200Y-94830750D01*
G75*
G02*
X129540950Y-94587000I243750J0D01*
G01*
G37*
M02*
