M48
; DRILL file {KiCad 5.1.6-c6e7f7d~87~ubuntu20.04.1} date Mon Jul 20 11:44:15 2020
; FORMAT={-:-/ absolute / metric / decimal}
; #@! TF.CreationDate,2020-07-20T11:44:15+02:00
; #@! TF.GenerationSoftware,Kicad,Pcbnew,5.1.6-c6e7f7d~87~ubuntu20.04.1
; #@! TF.FileFunction,Plated,1,2,PTH
FMAT,2
METRIC
T1C0.380
T2C0.400
T3C0.800
T4C0.900
T5C1.000
T6C2.000
T7C3.250
%
G90
G05
T1
X101.0Y-49.0
X101.0Y-51.0
X101.0Y-53.0
X101.0Y-55.0
X101.0Y-57.0
X101.0Y-59.0
X101.0Y-61.0
X101.0Y-63.0
X101.0Y-65.0
X107.0Y-47.0
X107.0Y-49.0
X107.0Y-51.0
X107.0Y-53.0
X107.0Y-55.0
X107.0Y-57.0
X107.0Y-59.0
X107.0Y-61.0
X107.0Y-63.0
T2
X101.0Y-77.5
X101.0Y-79.0
X101.0Y-83.0
X101.0Y-87.0
X101.0Y-91.0
X101.0Y-95.0
X101.0Y-99.0
X101.0Y-103.0
X101.0Y-107.0
X101.0Y-111.0
X101.0Y-115.0
X101.0Y-119.0
X101.0Y-123.0
X101.0Y-127.0
X101.0Y-131.0
X102.0Y-76.5
X103.5Y-76.5
X103.632Y-107.798
X104.75Y-84.582
X104.953Y-86.563
X104.953Y-95.148
X105.0Y-76.5
X105.004Y-93.015
X106.5Y-76.5
X106.934Y-114.452
X107.645Y-104.546
X107.95Y-102.464
X108.0Y-76.5
X109.5Y-76.5
X110.388Y-105.461
X111.0Y-76.5
X111.252Y-88.9
X111.963Y-95.047
X112.025Y-86.4
X112.5Y-76.5
X113.03Y-89.306
X113.5Y-47.0
X113.5Y-48.5
X113.5Y-50.0
X113.5Y-51.5
X113.5Y-53.0
X113.5Y-54.5
X113.5Y-56.0
X113.5Y-57.5
X113.5Y-59.0
X113.5Y-60.5
X113.5Y-62.0
X113.5Y-66.5
X113.5Y-68.0
X113.5Y-69.5
X113.5Y-71.0
X113.5Y-72.5
X113.5Y-74.0
X113.5Y-75.5
X113.944Y-102.311
X114.95Y-89.026
X115.0Y-47.0
X115.0Y-66.5
X115.265Y-88.29
X115.367Y-63.348
X115.521Y-91.97
X116.434Y-89.459
X116.5Y-47.0
X116.586Y-66.548
X116.738Y-106.68
X116.796Y-90.709
X116.84Y-93.472
X116.992Y-91.592
X117.043Y-112.522
X117.297Y-63.246
X117.399Y-76.403
X117.754Y-61.366
X118.0Y-47.0
X118.059Y-50.902
X118.675Y-103.53
X119.786Y-65.989
X120.434Y-103.53
X120.548Y-76.251
X120.701Y-69.342
X120.904Y-61.112
X121.0Y-128.5
X121.107Y-94.488
X121.2Y-90.0
X121.209Y-93.253
X121.514Y-98.247
X121.7Y-60.1
X121.818Y-86.919
X121.869Y-50.8
X122.123Y-56.032
X122.4Y-57.3
X122.479Y-83.058
X122.479Y-97.79
X122.936Y-51.156
X123.038Y-52.476
X123.038Y-78.638
X123.139Y-82.194
X123.479Y-96.266
X124.0Y-128.5
X124.003Y-56.794
X124.003Y-80.518
X124.003Y-114.656
X124.866Y-86.716
X124.968Y-77.622
X124.968Y-89.865
X124.968Y-94.742
X125.628Y-93.167
X125.73Y-51.664
X125.781Y-57.506
X125.781Y-61.163
X125.882Y-75.641
X126.035Y-70.002
X126.238Y-98.146
X126.594Y-95.961
X127.0Y-68.276
X127.0Y-83.922
X127.305Y-82.144
X127.305Y-95.453
X127.406Y-104.597
X127.424Y-84.617
X127.711Y-107.899
X127.965Y-71.628
X127.965Y-96.012
X128.067Y-78.08
X128.219Y-84.699
X128.676Y-95.504
X129.337Y-94.793
X129.388Y-89.662
X129.5Y-54.0
X129.743Y-85.903
X129.9Y-93.2
X131.267Y-87.63
X131.8Y-73.076
X131.805Y-106.557
X132.029Y-94.132
X132.334Y-100.787
X132.537Y-92.304
X133.0Y-51.0
X133.0Y-54.0
X133.0Y-57.0
X133.553Y-61.011
X134.0Y-67.0
X134.0Y-71.0
X134.0Y-75.0
X134.0Y-79.0
X134.0Y-83.0
X134.0Y-108.0
X134.0Y-112.0
X134.0Y-116.0
X134.0Y-120.0
X134.0Y-124.0
X134.0Y-128.0
X134.0Y-132.0
X134.061Y-102.819
T4
X116.25Y-83.0
X118.79Y-83.0
X121.225Y-109.11
X122.495Y-111.65
X123.765Y-109.11
X125.035Y-111.65
X126.305Y-109.11
X127.575Y-111.65
X107.425Y-109.11
X108.695Y-111.65
X109.965Y-109.11
X111.235Y-111.65
X112.505Y-109.11
X113.775Y-111.65
T5
X103.226Y-86.411
X114.96Y-100.533
X117.5Y-100.533
X103.226Y-91.491
X103.226Y-94.031
X125.0Y-102.0
X127.54Y-102.0
X133.35Y-87.63
X133.35Y-85.09
X126.492Y-80.518
X103.226Y-88.951
T6
X108.407Y-90.526
X109.068Y-87.224
X109.728Y-78.74
X109.728Y-81.28
X109.728Y-83.82
X110.744Y-92.507
X113.4Y-79.8
X115.773Y-85.903
X116.586Y-79.705
T7
X119.32Y-118.0
X129.48Y-118.0
X105.52Y-118.0
X115.68Y-118.0
T3
G00X104.4Y-131.0
M15
G01X108.6Y-131.0
M16
G05
G00X110.4Y-131.0
M15
G01X114.6Y-131.0
M16
G05
G00X120.4Y-131.0
M15
G01X124.6Y-131.0
M16
G05
G00X126.4Y-131.0
M15
G01X130.6Y-131.0
M16
G05
T0
M30
