M48
;DRILL file {KiCad 5.0.2-bee76a0~70~ubuntu18.04.1} date Wed 20 Feb 2019 16:39:49 SAST
;FORMAT={-:-/ absolute / inch / decimal}
FMAT,2
INCH,TZ
T1C0.0150
T2C0.0157
T3C0.0315
T4C0.0354
T5C0.0394
T6C0.0400
T7C0.0787
T8C0.1181
%
G90
G05
T1
X3.9764Y-1.9291
X3.9764Y-2.0079
X3.9764Y-2.0866
X3.9764Y-2.1654
X3.9764Y-2.2441
X3.9764Y-2.3228
X3.9764Y-2.4016
X3.9764Y-2.4803
X3.9764Y-2.5591
X4.2126Y-1.8504
X4.2126Y-1.9291
X4.2126Y-2.0079
X4.2126Y-2.0866
X4.2126Y-2.1654
X4.2126Y-2.2441
X4.2126Y-2.3228
X4.2126Y-2.4016
X4.2126Y-2.4803
T2
X3.9764Y-3.0512
X3.9764Y-3.1102
X3.9764Y-3.189
X3.9764Y-3.2677
X3.9764Y-3.3465
X3.9764Y-3.4252
X3.9764Y-3.5039
X3.9764Y-3.5827
X3.9764Y-3.6614
X3.9764Y-3.7402
X3.9764Y-3.8189
X3.9764Y-3.8976
X3.9764Y-3.9764
X3.9764Y-4.0551
X3.9764Y-4.1339
X3.9764Y-4.2126
X3.9764Y-4.2913
X3.9764Y-4.3701
X3.9764Y-4.4488
X3.9764Y-4.5276
X3.9764Y-4.6063
X3.9764Y-4.685
X3.9764Y-4.7638
X3.9764Y-4.8425
X3.9764Y-4.9213
X3.9764Y-5.
X3.9764Y-5.0787
X3.9764Y-5.1575
X4.006Y-4.176
X4.0157Y-3.0118
X4.0748Y-3.0118
X4.1339Y-3.0118
X4.19Y-4.12
X4.1929Y-3.0118
X4.198Y-3.426
X4.204Y-4.034
X4.252Y-3.0118
X4.298Y-4.002
X4.311Y-3.0118
X4.33Y-3.584
X4.334Y-3.88
X4.3701Y-3.0118
X4.4094Y-3.4094
X4.4213Y-3.5236
X4.4291Y-3.0118
X4.4685Y-1.8504
X4.4685Y-1.9094
X4.4685Y-1.9685
X4.4685Y-2.0276
X4.4685Y-2.0866
X4.4685Y-2.1457
X4.4685Y-2.2047
X4.4685Y-2.2638
X4.4685Y-2.3228
X4.4685Y-2.3819
X4.4685Y-2.4409
X4.4685Y-2.6181
X4.4685Y-2.6772
X4.4685Y-2.7362
X4.4685Y-2.7953
X4.4685Y-2.8543
X4.4685Y-2.9134
X4.4685Y-2.9724
X4.485Y-3.54
X4.5276Y-1.8504
X4.5276Y-2.6181
X4.5591Y-3.6063
X4.566Y-4.076
X4.5669Y-2.6575
X4.5669Y-3.4646
X4.5866Y-1.8504
X4.5984Y-3.5669
X4.606Y-3.606
X4.6063Y-3.5039
X4.608Y-3.68
X4.6457Y-1.8504
X4.685Y-2.0079
X4.685Y-2.126
X4.685Y-2.2441
X4.685Y-2.3622
X4.7047Y-4.2323
X4.7047Y-4.3701
X4.708Y-4.048
X4.7244Y-2.6575
X4.7638Y-2.6181
X4.7638Y-5.0591
X4.768Y-3.72
X4.7717Y-3.5433
X4.772Y-3.6714
X4.7913Y-2.3661
X4.796Y-3.422
X4.8189Y-2.2559
X4.822Y-3.27
X4.822Y-3.85
X4.84Y-2.014
X4.844Y-2.066
X4.8614Y-3.79
X4.8819Y-4.5472
X4.8819Y-5.0591
X4.906Y-4.162
X4.908Y-3.37
X4.912Y-3.252
X4.92Y-3.538
X4.92Y-3.73
X4.922Y-2.188
X4.9409Y-2.3622
X4.942Y-2.048
X4.946Y-3.668
X4.97Y-3.864
X4.974Y-3.328
X4.984Y-3.778
X4.99Y-3.256
X4.992Y-2.224
X5.Y-2.99
X5.008Y-3.332
X5.012Y-3.758
X5.038Y-3.78
X5.04Y-3.338
X5.042Y-4.076
X5.066Y-3.76
X5.0787Y-2.3622
X5.088Y-3.34
X5.092Y-3.732
X5.094Y-3.53
X5.0984Y-2.126
X5.1142Y-3.6693
X5.198Y-3.706
X5.2362Y-2.0079
X5.2362Y-2.126
X5.2362Y-2.2441
X5.2362Y-2.3622
X5.2756Y-2.6378
X5.2756Y-2.7165
X5.2756Y-2.7953
X5.2756Y-2.874
X5.2756Y-2.9528
X5.2756Y-3.0315
X5.2756Y-3.1102
X5.2756Y-3.189
X5.2756Y-3.2677
X5.2756Y-4.0945
X5.2756Y-4.1732
X5.2756Y-4.252
X5.2756Y-4.3307
X5.2756Y-4.4094
X5.2756Y-4.4882
X5.2756Y-4.5669
X5.2756Y-4.6457
X5.2756Y-4.7244
X5.2756Y-4.8031
X5.2756Y-4.8819
X5.2756Y-4.9606
X5.2756Y-5.0394
X5.2756Y-5.1181
X5.2756Y-5.1969
T4
X4.5768Y-3.2677
X4.6768Y-3.2677
T5
X4.036Y-3.99
X4.306Y-3.498
X4.9213Y-4.0157
X5.0213Y-4.0157
X4.306Y-3.408
X5.016Y-3.126
X4.526Y-3.958
X4.626Y-3.958
X5.208Y-3.362
X4.882Y-3.17
X4.084Y-3.478
T6
X4.7766Y-4.2957
X4.8266Y-4.3957
X4.8766Y-4.2957
X4.9266Y-4.3957
X4.9766Y-4.2957
X5.0266Y-4.3957
X4.2254Y-4.2957
X4.2754Y-4.3957
X4.3254Y-4.2957
X4.3754Y-4.3957
X4.4254Y-4.2957
X4.4754Y-4.3957
T7
X4.0551Y-3.0945
X4.0551Y-3.2677
X4.2598Y-3.2126
X4.3228Y-3.315
X4.3386Y-3.1417
X4.4646Y-3.1417
X4.5512Y-3.3622
X4.685Y-2.9921
X4.685Y-3.1496
X4.685Y-3.3543
X5.2047Y-3.
X5.2047Y-3.2126
T8
X4.7016Y-4.6457
X5.1016Y-4.6457
X4.1504Y-4.6457
X4.5504Y-4.6457
T3
X4.7402Y-5.1575G85X4.9055Y-5.1575
G05
X4.9764Y-5.1575G85X5.1417Y-5.1575
G05
X4.1102Y-5.1575G85X4.2756Y-5.1575
G05
X4.3465Y-5.1575G85X4.5118Y-5.1575
G05
T0
M30
