G04 #@! TF.GenerationSoftware,KiCad,Pcbnew,5.1.6-c6e7f7d~87~ubuntu20.04.1*
G04 #@! TF.CreationDate,2020-07-20T11:44:09+02:00*
G04 #@! TF.ProjectId,weerstasie,77656572-7374-4617-9369-652e6b696361,rev?*
G04 #@! TF.SameCoordinates,Original*
G04 #@! TF.FileFunction,Legend,Top*
G04 #@! TF.FilePolarity,Positive*
%FSLAX46Y46*%
G04 Gerber Fmt 4.6, Leading zero omitted, Abs format (unit mm)*
G04 Created by KiCad (PCBNEW 5.1.6-c6e7f7d~87~ubuntu20.04.1) date 2020-07-20 11:44:09*
%MOMM*%
%LPD*%
G01*
G04 APERTURE LIST*
%ADD10C,0.150000*%
%ADD11C,0.070000*%
%ADD12C,0.500000*%
%ADD13C,0.120000*%
%ADD14C,1.000000*%
%ADD15C,0.203200*%
%ADD16C,0.125000*%
%ADD17C,0.025400*%
G04 APERTURE END LIST*
D10*
X132989580Y-123715352D02*
X132513390Y-124048685D01*
X132989580Y-124286780D02*
X131989580Y-124286780D01*
X131989580Y-123905828D01*
X132037200Y-123810590D01*
X132084819Y-123762971D01*
X132180057Y-123715352D01*
X132322914Y-123715352D01*
X132418152Y-123762971D01*
X132465771Y-123810590D01*
X132513390Y-123905828D01*
X132513390Y-124286780D01*
X132703866Y-123334400D02*
X132703866Y-122858209D01*
X132989580Y-123429638D02*
X131989580Y-123096304D01*
X132989580Y-122762971D01*
X132989580Y-122429638D02*
X131989580Y-122429638D01*
X132989580Y-121953447D02*
X131989580Y-121953447D01*
X132989580Y-121382019D01*
X131989580Y-121382019D01*
X101915980Y-124982076D02*
X102915980Y-124743980D01*
X102201695Y-124553504D01*
X102915980Y-124363028D01*
X101915980Y-124124933D01*
X102915980Y-123743980D02*
X101915980Y-123743980D01*
X102915980Y-123267790D02*
X101915980Y-123267790D01*
X102915980Y-122696361D01*
X101915980Y-122696361D01*
X102915980Y-122220171D02*
X101915980Y-122220171D01*
X101915980Y-121982076D01*
X101963600Y-121839219D01*
X102058838Y-121743980D01*
X102154076Y-121696361D01*
X102344552Y-121648742D01*
X102487409Y-121648742D01*
X102677885Y-121696361D01*
X102773123Y-121743980D01*
X102868361Y-121839219D01*
X102915980Y-121982076D01*
X102915980Y-122220171D01*
D11*
X115593028Y-81568114D02*
X115593028Y-81268114D01*
X115764457Y-81568114D02*
X115635885Y-81396685D01*
X115764457Y-81268114D02*
X115593028Y-81439542D01*
X119206971Y-81482400D02*
X119349828Y-81482400D01*
X119178400Y-81568114D02*
X119278400Y-81268114D01*
X119378400Y-81568114D01*
X119277600Y-65112857D02*
X119277600Y-64970000D01*
X119363314Y-65141428D02*
X119063314Y-65041428D01*
X119363314Y-64941428D01*
X119363314Y-64841428D02*
X119063314Y-64841428D01*
X119363314Y-64670000D01*
X119063314Y-64670000D01*
X119063314Y-64570000D02*
X119063314Y-64398571D01*
X119363314Y-64484285D02*
X119063314Y-64484285D01*
X118348114Y-89797714D02*
X118176685Y-89797714D01*
X118262400Y-89797714D02*
X118262400Y-89497714D01*
X118233828Y-89540571D01*
X118205257Y-89569142D01*
X118176685Y-89583428D01*
X114538114Y-84666914D02*
X114366685Y-84666914D01*
X114452400Y-84666914D02*
X114452400Y-84366914D01*
X114423828Y-84409771D01*
X114395257Y-84438342D01*
X114366685Y-84452628D01*
D12*
X108178742Y-128027085D02*
X110464457Y-128027085D01*
X124333142Y-127925485D02*
X126618857Y-127925485D01*
X125476000Y-129068342D02*
X125476000Y-126782628D01*
D13*
X118613422Y-106424800D02*
X119130578Y-106424800D01*
X118613422Y-105004800D02*
X119130578Y-105004800D01*
X103779822Y-104799200D02*
X104296978Y-104799200D01*
X103779822Y-103379200D02*
X104296978Y-103379200D01*
X112419200Y-105668578D02*
X112419200Y-105151422D01*
X110999200Y-105668578D02*
X110999200Y-105151422D01*
D10*
X134000000Y-64000000D02*
X134000000Y-48000000D01*
X134000000Y-48000000D02*
X118000000Y-48000000D01*
X118000000Y-48000000D02*
X118000000Y-64000000D01*
X118000000Y-64000000D02*
X134000000Y-64000000D01*
X119825000Y-88825000D02*
X119825000Y-89400000D01*
X130175000Y-88825000D02*
X130175000Y-89500000D01*
X130175000Y-99175000D02*
X130175000Y-98500000D01*
X119825000Y-99175000D02*
X119825000Y-98500000D01*
X119825000Y-88825000D02*
X120500000Y-88825000D01*
X119825000Y-99175000D02*
X120500000Y-99175000D01*
X130175000Y-99175000D02*
X129500000Y-99175000D01*
X130175000Y-88825000D02*
X129500000Y-88825000D01*
X119825000Y-89400000D02*
X118550000Y-89400000D01*
D13*
X125162000Y-81848000D02*
X127822000Y-81848000D01*
X125162000Y-81788000D02*
X125162000Y-81848000D01*
X127822000Y-81788000D02*
X127822000Y-81848000D01*
X125162000Y-81788000D02*
X127822000Y-81788000D01*
X125162000Y-80518000D02*
X125162000Y-79188000D01*
X125162000Y-79188000D02*
X126492000Y-79188000D01*
X128870000Y-103330000D02*
X128870000Y-100670000D01*
X126270000Y-103330000D02*
X128870000Y-103330000D01*
X126270000Y-100670000D02*
X128870000Y-100670000D01*
X126270000Y-103330000D02*
X126270000Y-100670000D01*
X125000000Y-103330000D02*
X123670000Y-103330000D01*
X123670000Y-103330000D02*
X123670000Y-102000000D01*
X118830400Y-101863200D02*
X118830400Y-99203200D01*
X116230400Y-101863200D02*
X118830400Y-101863200D01*
X116230400Y-99203200D02*
X118830400Y-99203200D01*
X116230400Y-101863200D02*
X116230400Y-99203200D01*
X114960400Y-101863200D02*
X113630400Y-101863200D01*
X113630400Y-101863200D02*
X113630400Y-100533200D01*
X115960000Y-81764000D02*
X115960000Y-81920000D01*
X115960000Y-84080000D02*
X115960000Y-84236000D01*
X119192335Y-81921392D02*
G75*
G03*
X115960000Y-81764484I-1672335J-1078608D01*
G01*
X119192335Y-84078608D02*
G75*
G02*
X115960000Y-84235516I-1672335J1078608D01*
G01*
X118561130Y-81920163D02*
G75*
G03*
X116479039Y-81920000I-1041130J-1079837D01*
G01*
X118561130Y-84079837D02*
G75*
G02*
X116479039Y-84080000I-1041130J1079837D01*
G01*
D10*
X111750000Y-81750000D02*
X114250000Y-81750000D01*
X111750000Y-84250000D02*
X111750000Y-81750000D01*
X114250000Y-84250000D02*
X111750000Y-84250000D01*
X114250000Y-81750000D02*
X114250000Y-84250000D01*
X114000000Y-83500000D02*
G75*
G03*
X114000000Y-83500000I-250000J0D01*
G01*
D13*
X132020000Y-88960000D02*
X134680000Y-88960000D01*
X132020000Y-88900000D02*
X132020000Y-88960000D01*
X134680000Y-88900000D02*
X134680000Y-88960000D01*
X132020000Y-88900000D02*
X134680000Y-88900000D01*
X132020000Y-87630000D02*
X132020000Y-86300000D01*
X132020000Y-86300000D02*
X133350000Y-86300000D01*
X101895600Y-87740800D02*
X104555600Y-87740800D01*
X101895600Y-87680800D02*
X101895600Y-87740800D01*
X104555600Y-87680800D02*
X104555600Y-87740800D01*
X101895600Y-87680800D02*
X104555600Y-87680800D01*
X101895600Y-86410800D02*
X101895600Y-85080800D01*
X101895600Y-85080800D02*
X103225600Y-85080800D01*
X101895600Y-92820800D02*
X104555600Y-92820800D01*
X101895600Y-92760800D02*
X101895600Y-92820800D01*
X104555600Y-92760800D02*
X104555600Y-92820800D01*
X101895600Y-92760800D02*
X104555600Y-92760800D01*
X101895600Y-91490800D02*
X101895600Y-90160800D01*
X101895600Y-90160800D02*
X103225600Y-90160800D01*
X101895600Y-95360800D02*
X104555600Y-95360800D01*
X101895600Y-95300800D02*
X101895600Y-95360800D01*
X104555600Y-95300800D02*
X104555600Y-95360800D01*
X101895600Y-95300800D02*
X104555600Y-95300800D01*
X101895600Y-94030800D02*
X101895600Y-92700800D01*
X101895600Y-92700800D02*
X103225600Y-92700800D01*
X132020000Y-86420000D02*
X134680000Y-86420000D01*
X132020000Y-86360000D02*
X132020000Y-86420000D01*
X134680000Y-86360000D02*
X134680000Y-86420000D01*
X132020000Y-86360000D02*
X134680000Y-86360000D01*
X132020000Y-85090000D02*
X132020000Y-83760000D01*
X132020000Y-83760000D02*
X133350000Y-83760000D01*
X101895600Y-90280800D02*
X104555600Y-90280800D01*
X101895600Y-90220800D02*
X101895600Y-90280800D01*
X104555600Y-90220800D02*
X104555600Y-90280800D01*
X101895600Y-90220800D02*
X104555600Y-90220800D01*
X101895600Y-88950800D02*
X101895600Y-87620800D01*
X101895600Y-87620800D02*
X103225600Y-87620800D01*
D14*
X103000000Y-131000000D02*
X103000000Y-130500000D01*
X103000000Y-130500000D02*
X103000000Y-130000000D01*
X103000000Y-130000000D02*
X116000000Y-130000000D01*
X116000000Y-130000000D02*
X116000000Y-132000000D01*
X116000000Y-132000000D02*
X103000000Y-132000000D01*
X103000000Y-132000000D02*
X103000000Y-131000000D01*
X119000000Y-131000000D02*
X119000000Y-130500000D01*
X119000000Y-130500000D02*
X119000000Y-130000000D01*
X119000000Y-130000000D02*
X132000000Y-130000000D01*
X132000000Y-130000000D02*
X132000000Y-132000000D01*
X132000000Y-132000000D02*
X119000000Y-132000000D01*
X119000000Y-132000000D02*
X119000000Y-131000000D01*
D13*
X122321822Y-106424800D02*
X122838978Y-106424800D01*
X122321822Y-105004800D02*
X122838978Y-105004800D01*
X104296978Y-105309600D02*
X103779822Y-105309600D01*
X104296978Y-106729600D02*
X103779822Y-106729600D01*
X107802178Y-106729600D02*
X107285022Y-106729600D01*
X107802178Y-105309600D02*
X107285022Y-105309600D01*
X126242578Y-69086800D02*
X125725422Y-69086800D01*
X126242578Y-67666800D02*
X125725422Y-67666800D01*
X115114000Y-76509378D02*
X115114000Y-75992222D01*
X116534000Y-76509378D02*
X116534000Y-75992222D01*
X116258578Y-65710000D02*
X115741422Y-65710000D01*
X116258578Y-64290000D02*
X115741422Y-64290000D01*
X113921278Y-90476000D02*
X113404122Y-90476000D01*
X113921278Y-91896000D02*
X113404122Y-91896000D01*
X112876400Y-99235522D02*
X112876400Y-99752678D01*
X111456400Y-99235522D02*
X111456400Y-99752678D01*
X129207522Y-128624400D02*
X129724678Y-128624400D01*
X129207522Y-127204400D02*
X129724678Y-127204400D01*
X126242578Y-66142800D02*
X125725422Y-66142800D01*
X126242578Y-67562800D02*
X125725422Y-67562800D01*
X127046222Y-85192800D02*
X127563378Y-85192800D01*
X127046222Y-86612800D02*
X127563378Y-86612800D01*
X113082000Y-63749422D02*
X113082000Y-64266578D01*
X114502000Y-63749422D02*
X114502000Y-64266578D01*
X117501600Y-66501778D02*
X117501600Y-65984622D01*
X118921600Y-66501778D02*
X118921600Y-65984622D01*
X116166000Y-97646000D02*
X116166000Y-92346000D01*
X112466000Y-97646000D02*
X116166000Y-97646000D01*
D15*
X103742000Y-123207000D02*
X103742000Y-126128000D01*
X103742000Y-126128000D02*
X117458000Y-126128000D01*
X117458000Y-126128000D02*
X117458000Y-123207000D01*
X131258000Y-126128000D02*
X131258000Y-123207000D01*
X117542000Y-126128000D02*
X131258000Y-126128000D01*
X117542000Y-123207000D02*
X117542000Y-126128000D01*
D10*
X118705333Y-104517180D02*
X118372000Y-104040990D01*
X118133904Y-104517180D02*
X118133904Y-103517180D01*
X118514857Y-103517180D01*
X118610095Y-103564800D01*
X118657714Y-103612419D01*
X118705333Y-103707657D01*
X118705333Y-103850514D01*
X118657714Y-103945752D01*
X118610095Y-103993371D01*
X118514857Y-104040990D01*
X118133904Y-104040990D01*
X119657714Y-104517180D02*
X119086285Y-104517180D01*
X119372000Y-104517180D02*
X119372000Y-103517180D01*
X119276761Y-103660038D01*
X119181523Y-103755276D01*
X119086285Y-103802895D01*
X104080933Y-103050780D02*
X103747600Y-102574590D01*
X103509504Y-103050780D02*
X103509504Y-102050780D01*
X103890457Y-102050780D01*
X103985695Y-102098400D01*
X104033314Y-102146019D01*
X104080933Y-102241257D01*
X104080933Y-102384114D01*
X104033314Y-102479352D01*
X103985695Y-102526971D01*
X103890457Y-102574590D01*
X103509504Y-102574590D01*
X104461885Y-102146019D02*
X104509504Y-102098400D01*
X104604742Y-102050780D01*
X104842838Y-102050780D01*
X104938076Y-102098400D01*
X104985695Y-102146019D01*
X105033314Y-102241257D01*
X105033314Y-102336495D01*
X104985695Y-102479352D01*
X104414266Y-103050780D01*
X105033314Y-103050780D01*
X110511580Y-105576666D02*
X110035390Y-105910000D01*
X110511580Y-106148095D02*
X109511580Y-106148095D01*
X109511580Y-105767142D01*
X109559200Y-105671904D01*
X109606819Y-105624285D01*
X109702057Y-105576666D01*
X109844914Y-105576666D01*
X109940152Y-105624285D01*
X109987771Y-105671904D01*
X110035390Y-105767142D01*
X110035390Y-106148095D01*
X109511580Y-105243333D02*
X109511580Y-104624285D01*
X109892533Y-104957619D01*
X109892533Y-104814761D01*
X109940152Y-104719523D01*
X109987771Y-104671904D01*
X110083009Y-104624285D01*
X110321104Y-104624285D01*
X110416342Y-104671904D01*
X110463961Y-104719523D01*
X110511580Y-104814761D01*
X110511580Y-105100476D01*
X110463961Y-105195714D01*
X110416342Y-105243333D01*
X116800380Y-56489504D02*
X117609904Y-56489504D01*
X117705142Y-56441885D01*
X117752761Y-56394266D01*
X117800380Y-56299028D01*
X117800380Y-56108552D01*
X117752761Y-56013314D01*
X117705142Y-55965695D01*
X117609904Y-55918076D01*
X116800380Y-55918076D01*
X116895619Y-55489504D02*
X116848000Y-55441885D01*
X116800380Y-55346647D01*
X116800380Y-55108552D01*
X116848000Y-55013314D01*
X116895619Y-54965695D01*
X116990857Y-54918076D01*
X117086095Y-54918076D01*
X117228952Y-54965695D01*
X117800380Y-55537123D01*
X117800380Y-54918076D01*
X118364095Y-86117180D02*
X118364095Y-86926704D01*
X118411714Y-87021942D01*
X118459333Y-87069561D01*
X118554571Y-87117180D01*
X118745047Y-87117180D01*
X118840285Y-87069561D01*
X118887904Y-87021942D01*
X118935523Y-86926704D01*
X118935523Y-86117180D01*
X119316476Y-86117180D02*
X119935523Y-86117180D01*
X119602190Y-86498133D01*
X119745047Y-86498133D01*
X119840285Y-86545752D01*
X119887904Y-86593371D01*
X119935523Y-86688609D01*
X119935523Y-86926704D01*
X119887904Y-87021942D01*
X119840285Y-87069561D01*
X119745047Y-87117180D01*
X119459333Y-87117180D01*
X119364095Y-87069561D01*
X119316476Y-87021942D01*
X126698476Y-77430380D02*
X126698476Y-78144666D01*
X126650857Y-78287523D01*
X126555619Y-78382761D01*
X126412761Y-78430380D01*
X126317523Y-78430380D01*
X127698476Y-78430380D02*
X127127047Y-78430380D01*
X127412761Y-78430380D02*
X127412761Y-77430380D01*
X127317523Y-77573238D01*
X127222285Y-77668476D01*
X127127047Y-77716095D01*
X128650857Y-78430380D02*
X128079428Y-78430380D01*
X128365142Y-78430380D02*
X128365142Y-77430380D01*
X128269904Y-77573238D01*
X128174666Y-77668476D01*
X128079428Y-77716095D01*
X125174476Y-103947980D02*
X125174476Y-104662266D01*
X125126857Y-104805123D01*
X125031619Y-104900361D01*
X124888761Y-104947980D01*
X124793523Y-104947980D01*
X126174476Y-104947980D02*
X125603047Y-104947980D01*
X125888761Y-104947980D02*
X125888761Y-103947980D01*
X125793523Y-104090838D01*
X125698285Y-104186076D01*
X125603047Y-104233695D01*
X126555428Y-104043219D02*
X126603047Y-103995600D01*
X126698285Y-103947980D01*
X126936380Y-103947980D01*
X127031619Y-103995600D01*
X127079238Y-104043219D01*
X127126857Y-104138457D01*
X127126857Y-104233695D01*
X127079238Y-104376552D01*
X126507809Y-104947980D01*
X127126857Y-104947980D01*
X113439676Y-102474780D02*
X113439676Y-103189066D01*
X113392057Y-103331923D01*
X113296819Y-103427161D01*
X113153961Y-103474780D01*
X113058723Y-103474780D01*
X114439676Y-103474780D02*
X113868247Y-103474780D01*
X114153961Y-103474780D02*
X114153961Y-102474780D01*
X114058723Y-102617638D01*
X113963485Y-102712876D01*
X113868247Y-102760495D01*
X114773009Y-102474780D02*
X115392057Y-102474780D01*
X115058723Y-102855733D01*
X115201580Y-102855733D01*
X115296819Y-102903352D01*
X115344438Y-102950971D01*
X115392057Y-103046209D01*
X115392057Y-103284304D01*
X115344438Y-103379542D01*
X115296819Y-103427161D01*
X115201580Y-103474780D01*
X114915866Y-103474780D01*
X114820628Y-103427161D01*
X114773009Y-103379542D01*
X119962704Y-82595980D02*
X119962704Y-81595980D01*
X120200800Y-81595980D01*
X120343657Y-81643600D01*
X120438895Y-81738838D01*
X120486514Y-81834076D01*
X120534133Y-82024552D01*
X120534133Y-82167409D01*
X120486514Y-82357885D01*
X120438895Y-82453123D01*
X120343657Y-82548361D01*
X120200800Y-82595980D01*
X119962704Y-82595980D01*
X121486514Y-82595980D02*
X120915085Y-82595980D01*
X121200800Y-82595980D02*
X121200800Y-81595980D01*
X121105561Y-81738838D01*
X121010323Y-81834076D01*
X120915085Y-81881695D01*
D16*
X110927390Y-83413542D02*
X111332152Y-83413542D01*
X111379771Y-83384971D01*
X111403580Y-83356400D01*
X111427390Y-83299257D01*
X111427390Y-83184971D01*
X111403580Y-83127828D01*
X111379771Y-83099257D01*
X111332152Y-83070685D01*
X110927390Y-83070685D01*
X111427390Y-82470685D02*
X111427390Y-82813542D01*
X111427390Y-82642114D02*
X110927390Y-82642114D01*
X110998819Y-82699257D01*
X111046438Y-82756400D01*
X111070247Y-82813542D01*
D10*
X130730666Y-86218780D02*
X130730666Y-86933066D01*
X130683047Y-87075923D01*
X130587809Y-87171161D01*
X130444952Y-87218780D01*
X130349714Y-87218780D01*
X131635428Y-86218780D02*
X131444952Y-86218780D01*
X131349714Y-86266400D01*
X131302095Y-86314019D01*
X131206857Y-86456876D01*
X131159238Y-86647352D01*
X131159238Y-87028304D01*
X131206857Y-87123542D01*
X131254476Y-87171161D01*
X131349714Y-87218780D01*
X131540190Y-87218780D01*
X131635428Y-87171161D01*
X131683047Y-87123542D01*
X131730666Y-87028304D01*
X131730666Y-86790209D01*
X131683047Y-86694971D01*
X131635428Y-86647352D01*
X131540190Y-86599733D01*
X131349714Y-86599733D01*
X131254476Y-86647352D01*
X131206857Y-86694971D01*
X131159238Y-86790209D01*
X105584666Y-84948780D02*
X105584666Y-85663066D01*
X105537047Y-85805923D01*
X105441809Y-85901161D01*
X105298952Y-85948780D01*
X105203714Y-85948780D01*
X105965619Y-84948780D02*
X106632285Y-84948780D01*
X106203714Y-85948780D01*
X102892266Y-88613180D02*
X102892266Y-89327466D01*
X102844647Y-89470323D01*
X102749409Y-89565561D01*
X102606552Y-89613180D01*
X102511314Y-89613180D01*
X103511314Y-89041752D02*
X103416076Y-88994133D01*
X103368457Y-88946514D01*
X103320838Y-88851276D01*
X103320838Y-88803657D01*
X103368457Y-88708419D01*
X103416076Y-88660800D01*
X103511314Y-88613180D01*
X103701790Y-88613180D01*
X103797028Y-88660800D01*
X103844647Y-88708419D01*
X103892266Y-88803657D01*
X103892266Y-88851276D01*
X103844647Y-88946514D01*
X103797028Y-88994133D01*
X103701790Y-89041752D01*
X103511314Y-89041752D01*
X103416076Y-89089371D01*
X103368457Y-89136990D01*
X103320838Y-89232228D01*
X103320838Y-89422704D01*
X103368457Y-89517942D01*
X103416076Y-89565561D01*
X103511314Y-89613180D01*
X103701790Y-89613180D01*
X103797028Y-89565561D01*
X103844647Y-89517942D01*
X103892266Y-89422704D01*
X103892266Y-89232228D01*
X103844647Y-89136990D01*
X103797028Y-89089371D01*
X103701790Y-89041752D01*
X102892266Y-91153180D02*
X102892266Y-91867466D01*
X102844647Y-92010323D01*
X102749409Y-92105561D01*
X102606552Y-92153180D01*
X102511314Y-92153180D01*
X103416076Y-92153180D02*
X103606552Y-92153180D01*
X103701790Y-92105561D01*
X103749409Y-92057942D01*
X103844647Y-91915085D01*
X103892266Y-91724609D01*
X103892266Y-91343657D01*
X103844647Y-91248419D01*
X103797028Y-91200800D01*
X103701790Y-91153180D01*
X103511314Y-91153180D01*
X103416076Y-91200800D01*
X103368457Y-91248419D01*
X103320838Y-91343657D01*
X103320838Y-91581752D01*
X103368457Y-91676990D01*
X103416076Y-91724609D01*
X103511314Y-91772228D01*
X103701790Y-91772228D01*
X103797028Y-91724609D01*
X103844647Y-91676990D01*
X103892266Y-91581752D01*
X129848076Y-83780380D02*
X129848076Y-84494666D01*
X129800457Y-84637523D01*
X129705219Y-84732761D01*
X129562361Y-84780380D01*
X129467123Y-84780380D01*
X130848076Y-84780380D02*
X130276647Y-84780380D01*
X130562361Y-84780380D02*
X130562361Y-83780380D01*
X130467123Y-83923238D01*
X130371885Y-84018476D01*
X130276647Y-84066095D01*
X131467123Y-83780380D02*
X131562361Y-83780380D01*
X131657600Y-83828000D01*
X131705219Y-83875619D01*
X131752838Y-83970857D01*
X131800457Y-84161333D01*
X131800457Y-84399428D01*
X131752838Y-84589904D01*
X131705219Y-84685142D01*
X131657600Y-84732761D01*
X131562361Y-84780380D01*
X131467123Y-84780380D01*
X131371885Y-84732761D01*
X131324266Y-84685142D01*
X131276647Y-84589904D01*
X131229028Y-84399428D01*
X131229028Y-84161333D01*
X131276647Y-83970857D01*
X131324266Y-83875619D01*
X131371885Y-83828000D01*
X131467123Y-83780380D01*
X105533866Y-88149180D02*
X105533866Y-88863466D01*
X105486247Y-89006323D01*
X105391009Y-89101561D01*
X105248152Y-89149180D01*
X105152914Y-89149180D01*
X106486247Y-88149180D02*
X106010057Y-88149180D01*
X105962438Y-88625371D01*
X106010057Y-88577752D01*
X106105295Y-88530133D01*
X106343390Y-88530133D01*
X106438628Y-88577752D01*
X106486247Y-88625371D01*
X106533866Y-88720609D01*
X106533866Y-88958704D01*
X106486247Y-89053942D01*
X106438628Y-89101561D01*
X106343390Y-89149180D01*
X106105295Y-89149180D01*
X106010057Y-89101561D01*
X105962438Y-89053942D01*
X102993866Y-128128780D02*
X102993866Y-128843066D01*
X102946247Y-128985923D01*
X102851009Y-129081161D01*
X102708152Y-129128780D01*
X102612914Y-129128780D01*
X103422438Y-128224019D02*
X103470057Y-128176400D01*
X103565295Y-128128780D01*
X103803390Y-128128780D01*
X103898628Y-128176400D01*
X103946247Y-128224019D01*
X103993866Y-128319257D01*
X103993866Y-128414495D01*
X103946247Y-128557352D01*
X103374819Y-129128780D01*
X103993866Y-129128780D01*
X118993866Y-128128780D02*
X118993866Y-128843066D01*
X118946247Y-128985923D01*
X118851009Y-129081161D01*
X118708152Y-129128780D01*
X118612914Y-129128780D01*
X119374819Y-128128780D02*
X119993866Y-128128780D01*
X119660533Y-128509733D01*
X119803390Y-128509733D01*
X119898628Y-128557352D01*
X119946247Y-128604971D01*
X119993866Y-128700209D01*
X119993866Y-128938304D01*
X119946247Y-129033542D01*
X119898628Y-129081161D01*
X119803390Y-129128780D01*
X119517676Y-129128780D01*
X119422438Y-129081161D01*
X119374819Y-129033542D01*
X112180666Y-68679866D02*
X112180666Y-68203676D01*
X112466380Y-68775104D02*
X111466380Y-68441771D01*
X112466380Y-68108438D01*
X111942571Y-67775104D02*
X111942571Y-67441771D01*
X112466380Y-67298914D02*
X112466380Y-67775104D01*
X111466380Y-67775104D01*
X111466380Y-67298914D01*
X112466380Y-66346533D02*
X112466380Y-66917961D01*
X112466380Y-66632247D02*
X111466380Y-66632247D01*
X111609238Y-66727485D01*
X111704476Y-66822723D01*
X111752095Y-66917961D01*
X122413733Y-104421942D02*
X122366114Y-104469561D01*
X122223257Y-104517180D01*
X122128019Y-104517180D01*
X121985161Y-104469561D01*
X121889923Y-104374323D01*
X121842304Y-104279085D01*
X121794685Y-104088609D01*
X121794685Y-103945752D01*
X121842304Y-103755276D01*
X121889923Y-103660038D01*
X121985161Y-103564800D01*
X122128019Y-103517180D01*
X122223257Y-103517180D01*
X122366114Y-103564800D01*
X122413733Y-103612419D01*
X123366114Y-104517180D02*
X122794685Y-104517180D01*
X123080400Y-104517180D02*
X123080400Y-103517180D01*
X122985161Y-103660038D01*
X122889923Y-103755276D01*
X122794685Y-103802895D01*
X103871733Y-108026742D02*
X103824114Y-108074361D01*
X103681257Y-108121980D01*
X103586019Y-108121980D01*
X103443161Y-108074361D01*
X103347923Y-107979123D01*
X103300304Y-107883885D01*
X103252685Y-107693409D01*
X103252685Y-107550552D01*
X103300304Y-107360076D01*
X103347923Y-107264838D01*
X103443161Y-107169600D01*
X103586019Y-107121980D01*
X103681257Y-107121980D01*
X103824114Y-107169600D01*
X103871733Y-107217219D01*
X104252685Y-107217219D02*
X104300304Y-107169600D01*
X104395542Y-107121980D01*
X104633638Y-107121980D01*
X104728876Y-107169600D01*
X104776495Y-107217219D01*
X104824114Y-107312457D01*
X104824114Y-107407695D01*
X104776495Y-107550552D01*
X104205066Y-108121980D01*
X104824114Y-108121980D01*
X107433333Y-104857142D02*
X107385714Y-104904761D01*
X107242857Y-104952380D01*
X107147619Y-104952380D01*
X107004761Y-104904761D01*
X106909523Y-104809523D01*
X106861904Y-104714285D01*
X106814285Y-104523809D01*
X106814285Y-104380952D01*
X106861904Y-104190476D01*
X106909523Y-104095238D01*
X107004761Y-104000000D01*
X107147619Y-103952380D01*
X107242857Y-103952380D01*
X107385714Y-104000000D01*
X107433333Y-104047619D01*
X107766666Y-103952380D02*
X108385714Y-103952380D01*
X108052380Y-104333333D01*
X108195238Y-104333333D01*
X108290476Y-104380952D01*
X108338095Y-104428571D01*
X108385714Y-104523809D01*
X108385714Y-104761904D01*
X108338095Y-104857142D01*
X108290476Y-104904761D01*
X108195238Y-104952380D01*
X107909523Y-104952380D01*
X107814285Y-104904761D01*
X107766666Y-104857142D01*
X128458933Y-68937142D02*
X128411314Y-68984761D01*
X128268457Y-69032380D01*
X128173219Y-69032380D01*
X128030361Y-68984761D01*
X127935123Y-68889523D01*
X127887504Y-68794285D01*
X127839885Y-68603809D01*
X127839885Y-68460952D01*
X127887504Y-68270476D01*
X127935123Y-68175238D01*
X128030361Y-68080000D01*
X128173219Y-68032380D01*
X128268457Y-68032380D01*
X128411314Y-68080000D01*
X128458933Y-68127619D01*
X129316076Y-68365714D02*
X129316076Y-69032380D01*
X129077980Y-67984761D02*
X128839885Y-68699047D01*
X129458933Y-68699047D01*
X114531142Y-76417466D02*
X114578761Y-76465085D01*
X114626380Y-76607942D01*
X114626380Y-76703180D01*
X114578761Y-76846038D01*
X114483523Y-76941276D01*
X114388285Y-76988895D01*
X114197809Y-77036514D01*
X114054952Y-77036514D01*
X113864476Y-76988895D01*
X113769238Y-76941276D01*
X113674000Y-76846038D01*
X113626380Y-76703180D01*
X113626380Y-76607942D01*
X113674000Y-76465085D01*
X113721619Y-76417466D01*
X113626380Y-75560323D02*
X113626380Y-75750800D01*
X113674000Y-75846038D01*
X113721619Y-75893657D01*
X113864476Y-75988895D01*
X114054952Y-76036514D01*
X114435904Y-76036514D01*
X114531142Y-75988895D01*
X114578761Y-75941276D01*
X114626380Y-75846038D01*
X114626380Y-75655561D01*
X114578761Y-75560323D01*
X114531142Y-75512704D01*
X114435904Y-75465085D01*
X114197809Y-75465085D01*
X114102571Y-75512704D01*
X114054952Y-75560323D01*
X114007333Y-75655561D01*
X114007333Y-75846038D01*
X114054952Y-75941276D01*
X114102571Y-75988895D01*
X114197809Y-76036514D01*
X115809733Y-66905142D02*
X115762114Y-66952761D01*
X115619257Y-67000380D01*
X115524019Y-67000380D01*
X115381161Y-66952761D01*
X115285923Y-66857523D01*
X115238304Y-66762285D01*
X115190685Y-66571809D01*
X115190685Y-66428952D01*
X115238304Y-66238476D01*
X115285923Y-66143238D01*
X115381161Y-66048000D01*
X115524019Y-66000380D01*
X115619257Y-66000380D01*
X115762114Y-66048000D01*
X115809733Y-66095619D01*
X116143066Y-66000380D02*
X116809733Y-66000380D01*
X116381161Y-67000380D01*
X110831333Y-91085942D02*
X110783714Y-91133561D01*
X110640857Y-91181180D01*
X110545619Y-91181180D01*
X110402761Y-91133561D01*
X110307523Y-91038323D01*
X110259904Y-90943085D01*
X110212285Y-90752609D01*
X110212285Y-90609752D01*
X110259904Y-90419276D01*
X110307523Y-90324038D01*
X110402761Y-90228800D01*
X110545619Y-90181180D01*
X110640857Y-90181180D01*
X110783714Y-90228800D01*
X110831333Y-90276419D01*
X111402761Y-90609752D02*
X111307523Y-90562133D01*
X111259904Y-90514514D01*
X111212285Y-90419276D01*
X111212285Y-90371657D01*
X111259904Y-90276419D01*
X111307523Y-90228800D01*
X111402761Y-90181180D01*
X111593238Y-90181180D01*
X111688476Y-90228800D01*
X111736095Y-90276419D01*
X111783714Y-90371657D01*
X111783714Y-90419276D01*
X111736095Y-90514514D01*
X111688476Y-90562133D01*
X111593238Y-90609752D01*
X111402761Y-90609752D01*
X111307523Y-90657371D01*
X111259904Y-90704990D01*
X111212285Y-90800228D01*
X111212285Y-90990704D01*
X111259904Y-91085942D01*
X111307523Y-91133561D01*
X111402761Y-91181180D01*
X111593238Y-91181180D01*
X111688476Y-91133561D01*
X111736095Y-91085942D01*
X111783714Y-90990704D01*
X111783714Y-90800228D01*
X111736095Y-90704990D01*
X111688476Y-90657371D01*
X111593238Y-90609752D01*
X110897942Y-99582266D02*
X110945561Y-99629885D01*
X110993180Y-99772742D01*
X110993180Y-99867980D01*
X110945561Y-100010838D01*
X110850323Y-100106076D01*
X110755085Y-100153695D01*
X110564609Y-100201314D01*
X110421752Y-100201314D01*
X110231276Y-100153695D01*
X110136038Y-100106076D01*
X110040800Y-100010838D01*
X109993180Y-99867980D01*
X109993180Y-99772742D01*
X110040800Y-99629885D01*
X110088419Y-99582266D01*
X110993180Y-99106076D02*
X110993180Y-98915600D01*
X110945561Y-98820361D01*
X110897942Y-98772742D01*
X110755085Y-98677504D01*
X110564609Y-98629885D01*
X110183657Y-98629885D01*
X110088419Y-98677504D01*
X110040800Y-98725123D01*
X109993180Y-98820361D01*
X109993180Y-99010838D01*
X110040800Y-99106076D01*
X110088419Y-99153695D01*
X110183657Y-99201314D01*
X110421752Y-99201314D01*
X110516990Y-99153695D01*
X110564609Y-99106076D01*
X110612228Y-99010838D01*
X110612228Y-98820361D01*
X110564609Y-98725123D01*
X110516990Y-98677504D01*
X110421752Y-98629885D01*
X131945142Y-128271542D02*
X131897523Y-128319161D01*
X131754666Y-128366780D01*
X131659428Y-128366780D01*
X131516571Y-128319161D01*
X131421333Y-128223923D01*
X131373714Y-128128685D01*
X131326095Y-127938209D01*
X131326095Y-127795352D01*
X131373714Y-127604876D01*
X131421333Y-127509638D01*
X131516571Y-127414400D01*
X131659428Y-127366780D01*
X131754666Y-127366780D01*
X131897523Y-127414400D01*
X131945142Y-127462019D01*
X132897523Y-128366780D02*
X132326095Y-128366780D01*
X132611809Y-128366780D02*
X132611809Y-127366780D01*
X132516571Y-127509638D01*
X132421333Y-127604876D01*
X132326095Y-127652495D01*
X133849904Y-128366780D02*
X133278476Y-128366780D01*
X133564190Y-128366780D02*
X133564190Y-127366780D01*
X133468952Y-127509638D01*
X133373714Y-127604876D01*
X133278476Y-127652495D01*
X128490742Y-67057542D02*
X128443123Y-67105161D01*
X128300266Y-67152780D01*
X128205028Y-67152780D01*
X128062171Y-67105161D01*
X127966933Y-67009923D01*
X127919314Y-66914685D01*
X127871695Y-66724209D01*
X127871695Y-66581352D01*
X127919314Y-66390876D01*
X127966933Y-66295638D01*
X128062171Y-66200400D01*
X128205028Y-66152780D01*
X128300266Y-66152780D01*
X128443123Y-66200400D01*
X128490742Y-66248019D01*
X129443123Y-67152780D02*
X128871695Y-67152780D01*
X129157409Y-67152780D02*
X129157409Y-66152780D01*
X129062171Y-66295638D01*
X128966933Y-66390876D01*
X128871695Y-66438495D01*
X129824076Y-66248019D02*
X129871695Y-66200400D01*
X129966933Y-66152780D01*
X130205028Y-66152780D01*
X130300266Y-66200400D01*
X130347885Y-66248019D01*
X130395504Y-66343257D01*
X130395504Y-66438495D01*
X130347885Y-66581352D01*
X129776457Y-67152780D01*
X130395504Y-67152780D01*
X126661942Y-84609942D02*
X126614323Y-84657561D01*
X126471466Y-84705180D01*
X126376228Y-84705180D01*
X126233371Y-84657561D01*
X126138133Y-84562323D01*
X126090514Y-84467085D01*
X126042895Y-84276609D01*
X126042895Y-84133752D01*
X126090514Y-83943276D01*
X126138133Y-83848038D01*
X126233371Y-83752800D01*
X126376228Y-83705180D01*
X126471466Y-83705180D01*
X126614323Y-83752800D01*
X126661942Y-83800419D01*
X127614323Y-84705180D02*
X127042895Y-84705180D01*
X127328609Y-84705180D02*
X127328609Y-83705180D01*
X127233371Y-83848038D01*
X127138133Y-83943276D01*
X127042895Y-83990895D01*
X128519085Y-83705180D02*
X128042895Y-83705180D01*
X127995276Y-84181371D01*
X128042895Y-84133752D01*
X128138133Y-84086133D01*
X128376228Y-84086133D01*
X128471466Y-84133752D01*
X128519085Y-84181371D01*
X128566704Y-84276609D01*
X128566704Y-84514704D01*
X128519085Y-84609942D01*
X128471466Y-84657561D01*
X128376228Y-84705180D01*
X128138133Y-84705180D01*
X128042895Y-84657561D01*
X127995276Y-84609942D01*
X114803180Y-61685466D02*
X114803180Y-62161657D01*
X113803180Y-62161657D01*
X114803180Y-60828323D02*
X114803180Y-61399752D01*
X114803180Y-61114038D02*
X113803180Y-61114038D01*
X113946038Y-61209276D01*
X114041276Y-61304514D01*
X114088895Y-61399752D01*
X118613180Y-69000666D02*
X118613180Y-69476857D01*
X117613180Y-69476857D01*
X117708419Y-68714952D02*
X117660800Y-68667333D01*
X117613180Y-68572095D01*
X117613180Y-68334000D01*
X117660800Y-68238761D01*
X117708419Y-68191142D01*
X117803657Y-68143523D01*
X117898895Y-68143523D01*
X118041752Y-68191142D01*
X118613180Y-68762571D01*
X118613180Y-68143523D01*
X111492190Y-95472190D02*
X111968380Y-95472190D01*
X110968380Y-95805523D02*
X111492190Y-95472190D01*
X110968380Y-95138857D01*
X111968380Y-94281714D02*
X111968380Y-94853142D01*
X111968380Y-94567428D02*
X110968380Y-94567428D01*
X111111238Y-94662666D01*
X111206476Y-94757904D01*
X111254095Y-94853142D01*
D17*
X103095047Y-126017866D02*
X103385333Y-126017866D01*
X103443390Y-126037219D01*
X103482095Y-126075923D01*
X103501447Y-126133980D01*
X103501447Y-126172685D01*
X103501447Y-125611466D02*
X103501447Y-125843695D01*
X103501447Y-125727580D02*
X103095047Y-125727580D01*
X103153104Y-125766285D01*
X103191809Y-125804990D01*
X103211161Y-125843695D01*
X103095047Y-124994609D02*
X103501447Y-124897847D01*
X103211161Y-124820438D01*
X103501447Y-124743028D01*
X103095047Y-124646266D01*
X103501447Y-124491447D02*
X103095047Y-124491447D01*
X103501447Y-124297923D02*
X103095047Y-124297923D01*
X103501447Y-124065695D01*
X103095047Y-124065695D01*
X103501447Y-123872171D02*
X103095047Y-123872171D01*
X103095047Y-123775409D01*
X103114400Y-123717352D01*
X103153104Y-123678647D01*
X103191809Y-123659295D01*
X103269219Y-123639942D01*
X103327276Y-123639942D01*
X103404685Y-123659295D01*
X103443390Y-123678647D01*
X103482095Y-123717352D01*
X103501447Y-123775409D01*
X103501447Y-123872171D01*
X116895047Y-126017866D02*
X117185333Y-126017866D01*
X117243390Y-126037219D01*
X117282095Y-126075923D01*
X117301447Y-126133980D01*
X117301447Y-126172685D01*
X117030514Y-125650171D02*
X117301447Y-125650171D01*
X116875695Y-125746933D02*
X117165980Y-125843695D01*
X117165980Y-125592114D01*
X117301447Y-124665619D02*
X117107923Y-124801085D01*
X117301447Y-124897847D02*
X116895047Y-124897847D01*
X116895047Y-124743028D01*
X116914400Y-124704323D01*
X116933752Y-124684971D01*
X116972457Y-124665619D01*
X117030514Y-124665619D01*
X117069219Y-124684971D01*
X117088571Y-124704323D01*
X117107923Y-124743028D01*
X117107923Y-124897847D01*
X117185333Y-124510800D02*
X117185333Y-124317276D01*
X117301447Y-124549504D02*
X116895047Y-124414038D01*
X117301447Y-124278571D01*
X117301447Y-124143104D02*
X116895047Y-124143104D01*
X117301447Y-123949580D02*
X116895047Y-123949580D01*
X117301447Y-123717352D01*
X116895047Y-123717352D01*
M02*
