G04 #@! TF.GenerationSoftware,KiCad,Pcbnew,5.0.2-bee76a0~70~ubuntu18.04.1*
G04 #@! TF.CreationDate,2019-02-20T16:39:47+02:00*
G04 #@! TF.ProjectId,weerstasie,77656572-7374-4617-9369-652e6b696361,rev?*
G04 #@! TF.SameCoordinates,Original*
G04 #@! TF.FileFunction,Legend,Top*
G04 #@! TF.FilePolarity,Positive*
%FSLAX46Y46*%
G04 Gerber Fmt 4.6, Leading zero omitted, Abs format (unit mm)*
G04 Created by KiCad (PCBNEW 5.0.2-bee76a0~70~ubuntu18.04.1) date Wed 20 Feb 2019 16:39:47 SAST*
%MOMM*%
%LPD*%
G01*
G04 APERTURE LIST*
%ADD10C,0.500000*%
%ADD11C,0.120000*%
%ADD12C,0.150000*%
%ADD13C,0.203200*%
%ADD14C,1.000000*%
%ADD15C,0.125000*%
%ADD16C,0.025400*%
G04 APERTURE END LIST*
D10*
X108178742Y-128027085D02*
X110464457Y-128027085D01*
X124333142Y-127925485D02*
X126618857Y-127925485D01*
X125476000Y-129068342D02*
X125476000Y-126782628D01*
D11*
G04 #@! TO.C,R1*
X118613422Y-106424800D02*
X119130578Y-106424800D01*
X118613422Y-105004800D02*
X119130578Y-105004800D01*
G04 #@! TO.C,R2*
X103932222Y-104900800D02*
X104449378Y-104900800D01*
X103932222Y-103480800D02*
X104449378Y-103480800D01*
G04 #@! TO.C,R3*
X112419200Y-105668578D02*
X112419200Y-105151422D01*
X110999200Y-105668578D02*
X110999200Y-105151422D01*
D12*
G04 #@! TO.C,U2*
X134000000Y-64000000D02*
X134000000Y-48000000D01*
X134000000Y-48000000D02*
X118000000Y-48000000D01*
X118000000Y-48000000D02*
X118000000Y-64000000D01*
X118000000Y-64000000D02*
X134000000Y-64000000D01*
G04 #@! TO.C,U3*
X119825000Y-88825000D02*
X119825000Y-89400000D01*
X130175000Y-88825000D02*
X130175000Y-89500000D01*
X130175000Y-99175000D02*
X130175000Y-98500000D01*
X119825000Y-99175000D02*
X119825000Y-98500000D01*
X119825000Y-88825000D02*
X120500000Y-88825000D01*
X119825000Y-99175000D02*
X120500000Y-99175000D01*
X130175000Y-99175000D02*
X129500000Y-99175000D01*
X130175000Y-88825000D02*
X129500000Y-88825000D01*
X119825000Y-89400000D02*
X118550000Y-89400000D01*
D11*
G04 #@! TO.C,J11*
X126076400Y-80730400D02*
X128736400Y-80730400D01*
X126076400Y-80670400D02*
X126076400Y-80730400D01*
X128736400Y-80670400D02*
X128736400Y-80730400D01*
X126076400Y-80670400D02*
X128736400Y-80670400D01*
X126076400Y-79400400D02*
X126076400Y-78070400D01*
X126076400Y-78070400D02*
X127406400Y-78070400D01*
G04 #@! TO.C,J12*
X128870000Y-103330000D02*
X128870000Y-100670000D01*
X126270000Y-103330000D02*
X128870000Y-103330000D01*
X126270000Y-100670000D02*
X128870000Y-100670000D01*
X126270000Y-103330000D02*
X126270000Y-100670000D01*
X125000000Y-103330000D02*
X123670000Y-103330000D01*
X123670000Y-103330000D02*
X123670000Y-102000000D01*
G04 #@! TO.C,J13*
X118830400Y-101863200D02*
X118830400Y-99203200D01*
X116230400Y-101863200D02*
X118830400Y-101863200D01*
X116230400Y-99203200D02*
X118830400Y-99203200D01*
X116230400Y-101863200D02*
X116230400Y-99203200D01*
X114960400Y-101863200D02*
X113630400Y-101863200D01*
X113630400Y-101863200D02*
X113630400Y-100533200D01*
G04 #@! TO.C,Y1*
X110172000Y-97745200D02*
X114872000Y-97745200D01*
X114872000Y-97745200D02*
X114872000Y-92145200D01*
G04 #@! TO.C,D1*
X119192335Y-81921392D02*
G75*
G03X115960000Y-81764484I-1672335J-1078608D01*
G01*
X119192335Y-84078608D02*
G75*
G02X115960000Y-84235516I-1672335J1078608D01*
G01*
X118561130Y-81920163D02*
G75*
G03X116479039Y-81920000I-1041130J-1079837D01*
G01*
X118561130Y-84079837D02*
G75*
G02X116479039Y-84080000I-1041130J1079837D01*
G01*
X115960000Y-81764000D02*
X115960000Y-81920000D01*
X115960000Y-84080000D02*
X115960000Y-84236000D01*
D12*
G04 #@! TO.C,U1*
X111750000Y-81750000D02*
X114250000Y-81750000D01*
X111750000Y-84250000D02*
X111750000Y-81750000D01*
X114250000Y-84250000D02*
X111750000Y-84250000D01*
X114250000Y-81750000D02*
X114250000Y-84250000D01*
X114000000Y-83500000D02*
G75*
G03X114000000Y-83500000I-250000J0D01*
G01*
D11*
G04 #@! TO.C,J6*
X101184400Y-102676000D02*
X103844400Y-102676000D01*
X101184400Y-102616000D02*
X101184400Y-102676000D01*
X103844400Y-102616000D02*
X103844400Y-102676000D01*
X101184400Y-102616000D02*
X103844400Y-102616000D01*
X101184400Y-101346000D02*
X101184400Y-100016000D01*
X101184400Y-100016000D02*
X102514400Y-100016000D01*
G04 #@! TO.C,J7*
X108042400Y-87893200D02*
X110702400Y-87893200D01*
X108042400Y-87833200D02*
X108042400Y-87893200D01*
X110702400Y-87833200D02*
X110702400Y-87893200D01*
X108042400Y-87833200D02*
X110702400Y-87833200D01*
X108042400Y-86563200D02*
X108042400Y-85233200D01*
X108042400Y-85233200D02*
X109372400Y-85233200D01*
G04 #@! TO.C,J8*
X122672800Y-81848000D02*
X125332800Y-81848000D01*
X122672800Y-81788000D02*
X122672800Y-81848000D01*
X125332800Y-81788000D02*
X125332800Y-81848000D01*
X122672800Y-81788000D02*
X125332800Y-81788000D01*
X122672800Y-80518000D02*
X122672800Y-79188000D01*
X122672800Y-79188000D02*
X124002800Y-79188000D01*
G04 #@! TO.C,J9*
X102403600Y-89671200D02*
X105063600Y-89671200D01*
X102403600Y-89611200D02*
X102403600Y-89671200D01*
X105063600Y-89611200D02*
X105063600Y-89671200D01*
X102403600Y-89611200D02*
X105063600Y-89611200D01*
X102403600Y-88341200D02*
X102403600Y-87011200D01*
X102403600Y-87011200D02*
X103733600Y-87011200D01*
G04 #@! TO.C,J10*
X130953200Y-86724800D02*
X133613200Y-86724800D01*
X130953200Y-86664800D02*
X130953200Y-86724800D01*
X133613200Y-86664800D02*
X133613200Y-86724800D01*
X130953200Y-86664800D02*
X133613200Y-86664800D01*
X130953200Y-85394800D02*
X130953200Y-84064800D01*
X130953200Y-84064800D02*
X132283200Y-84064800D01*
G04 #@! TO.C,J5*
X108042400Y-90179200D02*
X110702400Y-90179200D01*
X108042400Y-90119200D02*
X108042400Y-90179200D01*
X110702400Y-90119200D02*
X110702400Y-90179200D01*
X108042400Y-90119200D02*
X110702400Y-90119200D01*
X108042400Y-88849200D02*
X108042400Y-87519200D01*
X108042400Y-87519200D02*
X109372400Y-87519200D01*
D13*
G04 #@! TO.C,J4*
X117642000Y-123207000D02*
X117642000Y-126128000D01*
X117642000Y-126128000D02*
X131358000Y-126128000D01*
X131358000Y-126128000D02*
X131358000Y-123207000D01*
G04 #@! TO.C,J1*
X103642000Y-123207000D02*
X103642000Y-126128000D01*
X103642000Y-126128000D02*
X117358000Y-126128000D01*
X117358000Y-126128000D02*
X117358000Y-123207000D01*
D14*
G04 #@! TO.C,J2*
X103000000Y-131000000D02*
X103000000Y-130500000D01*
X103000000Y-130500000D02*
X103000000Y-130000000D01*
X103000000Y-130000000D02*
X116000000Y-130000000D01*
X116000000Y-130000000D02*
X116000000Y-132000000D01*
X116000000Y-132000000D02*
X103000000Y-132000000D01*
X103000000Y-132000000D02*
X103000000Y-131000000D01*
G04 #@! TO.C,J3*
X119000000Y-131000000D02*
X119000000Y-130500000D01*
X119000000Y-130500000D02*
X119000000Y-130000000D01*
X119000000Y-130000000D02*
X132000000Y-130000000D01*
X132000000Y-130000000D02*
X132000000Y-132000000D01*
X132000000Y-132000000D02*
X119000000Y-132000000D01*
X119000000Y-132000000D02*
X119000000Y-131000000D01*
D11*
G04 #@! TO.C,C1*
X122321822Y-106424800D02*
X122838978Y-106424800D01*
X122321822Y-105004800D02*
X122838978Y-105004800D01*
G04 #@! TO.C,C2*
X104296978Y-105309600D02*
X103779822Y-105309600D01*
X104296978Y-106729600D02*
X103779822Y-106729600D01*
G04 #@! TO.C,C3*
X107802178Y-106729600D02*
X107285022Y-106729600D01*
X107802178Y-105309600D02*
X107285022Y-105309600D01*
G04 #@! TO.C,C4*
X126242578Y-69086800D02*
X125725422Y-69086800D01*
X126242578Y-67666800D02*
X125725422Y-67666800D01*
G04 #@! TO.C,C6*
X115114000Y-76509378D02*
X115114000Y-75992222D01*
X116534000Y-76509378D02*
X116534000Y-75992222D01*
G04 #@! TO.C,C7*
X116258578Y-65710000D02*
X115741422Y-65710000D01*
X116258578Y-64290000D02*
X115741422Y-64290000D01*
G04 #@! TO.C,C8*
X112628178Y-90679200D02*
X112111022Y-90679200D01*
X112628178Y-92099200D02*
X112111022Y-92099200D01*
G04 #@! TO.C,C9*
X112628178Y-99211200D02*
X112111022Y-99211200D01*
X112628178Y-97791200D02*
X112111022Y-97791200D01*
G04 #@! TO.C,C11*
X121721378Y-126137600D02*
X121204222Y-126137600D01*
X121721378Y-127557600D02*
X121204222Y-127557600D01*
G04 #@! TO.C,C12*
X126242578Y-66142800D02*
X125725422Y-66142800D01*
X126242578Y-67562800D02*
X125725422Y-67562800D01*
G04 #@! TO.C,C15*
X127046222Y-85548400D02*
X127563378Y-85548400D01*
X127046222Y-86968400D02*
X127563378Y-86968400D01*
G04 #@! TO.C,L1*
X113082000Y-63749422D02*
X113082000Y-64266578D01*
X114502000Y-63749422D02*
X114502000Y-64266578D01*
G04 #@! TO.C,L2*
X117501600Y-66501778D02*
X117501600Y-65984622D01*
X118921600Y-66501778D02*
X118921600Y-65984622D01*
G04 #@! TO.C,R1*
D12*
X118705333Y-104517180D02*
X118372000Y-104040990D01*
X118133904Y-104517180D02*
X118133904Y-103517180D01*
X118514857Y-103517180D01*
X118610095Y-103564800D01*
X118657714Y-103612419D01*
X118705333Y-103707657D01*
X118705333Y-103850514D01*
X118657714Y-103945752D01*
X118610095Y-103993371D01*
X118514857Y-104040990D01*
X118133904Y-104040990D01*
X119657714Y-104517180D02*
X119086285Y-104517180D01*
X119372000Y-104517180D02*
X119372000Y-103517180D01*
X119276761Y-103660038D01*
X119181523Y-103755276D01*
X119086285Y-103802895D01*
G04 #@! TO.C,R2*
X104233333Y-103152380D02*
X103900000Y-102676190D01*
X103661904Y-103152380D02*
X103661904Y-102152380D01*
X104042857Y-102152380D01*
X104138095Y-102200000D01*
X104185714Y-102247619D01*
X104233333Y-102342857D01*
X104233333Y-102485714D01*
X104185714Y-102580952D01*
X104138095Y-102628571D01*
X104042857Y-102676190D01*
X103661904Y-102676190D01*
X104614285Y-102247619D02*
X104661904Y-102200000D01*
X104757142Y-102152380D01*
X104995238Y-102152380D01*
X105090476Y-102200000D01*
X105138095Y-102247619D01*
X105185714Y-102342857D01*
X105185714Y-102438095D01*
X105138095Y-102580952D01*
X104566666Y-103152380D01*
X105185714Y-103152380D01*
G04 #@! TO.C,R3*
X110511580Y-105576666D02*
X110035390Y-105910000D01*
X110511580Y-106148095D02*
X109511580Y-106148095D01*
X109511580Y-105767142D01*
X109559200Y-105671904D01*
X109606819Y-105624285D01*
X109702057Y-105576666D01*
X109844914Y-105576666D01*
X109940152Y-105624285D01*
X109987771Y-105671904D01*
X110035390Y-105767142D01*
X110035390Y-106148095D01*
X109511580Y-105243333D02*
X109511580Y-104624285D01*
X109892533Y-104957619D01*
X109892533Y-104814761D01*
X109940152Y-104719523D01*
X109987771Y-104671904D01*
X110083009Y-104624285D01*
X110321104Y-104624285D01*
X110416342Y-104671904D01*
X110463961Y-104719523D01*
X110511580Y-104814761D01*
X110511580Y-105100476D01*
X110463961Y-105195714D01*
X110416342Y-105243333D01*
G04 #@! TO.C,U2*
X116800380Y-56489504D02*
X117609904Y-56489504D01*
X117705142Y-56441885D01*
X117752761Y-56394266D01*
X117800380Y-56299028D01*
X117800380Y-56108552D01*
X117752761Y-56013314D01*
X117705142Y-55965695D01*
X117609904Y-55918076D01*
X116800380Y-55918076D01*
X116895619Y-55489504D02*
X116848000Y-55441885D01*
X116800380Y-55346647D01*
X116800380Y-55108552D01*
X116848000Y-55013314D01*
X116895619Y-54965695D01*
X116990857Y-54918076D01*
X117086095Y-54918076D01*
X117228952Y-54965695D01*
X117800380Y-55537123D01*
X117800380Y-54918076D01*
G04 #@! TO.C,U3*
X118364095Y-86117180D02*
X118364095Y-86926704D01*
X118411714Y-87021942D01*
X118459333Y-87069561D01*
X118554571Y-87117180D01*
X118745047Y-87117180D01*
X118840285Y-87069561D01*
X118887904Y-87021942D01*
X118935523Y-86926704D01*
X118935523Y-86117180D01*
X119316476Y-86117180D02*
X119935523Y-86117180D01*
X119602190Y-86498133D01*
X119745047Y-86498133D01*
X119840285Y-86545752D01*
X119887904Y-86593371D01*
X119935523Y-86688609D01*
X119935523Y-86926704D01*
X119887904Y-87021942D01*
X119840285Y-87069561D01*
X119745047Y-87117180D01*
X119459333Y-87117180D01*
X119364095Y-87069561D01*
X119316476Y-87021942D01*
G04 #@! TO.C,J11*
X127612876Y-76312780D02*
X127612876Y-77027066D01*
X127565257Y-77169923D01*
X127470019Y-77265161D01*
X127327161Y-77312780D01*
X127231923Y-77312780D01*
X128612876Y-77312780D02*
X128041447Y-77312780D01*
X128327161Y-77312780D02*
X128327161Y-76312780D01*
X128231923Y-76455638D01*
X128136685Y-76550876D01*
X128041447Y-76598495D01*
X129565257Y-77312780D02*
X128993828Y-77312780D01*
X129279542Y-77312780D02*
X129279542Y-76312780D01*
X129184304Y-76455638D01*
X129089066Y-76550876D01*
X128993828Y-76598495D01*
G04 #@! TO.C,J12*
X125174476Y-103947980D02*
X125174476Y-104662266D01*
X125126857Y-104805123D01*
X125031619Y-104900361D01*
X124888761Y-104947980D01*
X124793523Y-104947980D01*
X126174476Y-104947980D02*
X125603047Y-104947980D01*
X125888761Y-104947980D02*
X125888761Y-103947980D01*
X125793523Y-104090838D01*
X125698285Y-104186076D01*
X125603047Y-104233695D01*
X126555428Y-104043219D02*
X126603047Y-103995600D01*
X126698285Y-103947980D01*
X126936380Y-103947980D01*
X127031619Y-103995600D01*
X127079238Y-104043219D01*
X127126857Y-104138457D01*
X127126857Y-104233695D01*
X127079238Y-104376552D01*
X126507809Y-104947980D01*
X127126857Y-104947980D01*
G04 #@! TO.C,J13*
X113439676Y-102474780D02*
X113439676Y-103189066D01*
X113392057Y-103331923D01*
X113296819Y-103427161D01*
X113153961Y-103474780D01*
X113058723Y-103474780D01*
X114439676Y-103474780D02*
X113868247Y-103474780D01*
X114153961Y-103474780D02*
X114153961Y-102474780D01*
X114058723Y-102617638D01*
X113963485Y-102712876D01*
X113868247Y-102760495D01*
X114773009Y-102474780D02*
X115392057Y-102474780D01*
X115058723Y-102855733D01*
X115201580Y-102855733D01*
X115296819Y-102903352D01*
X115344438Y-102950971D01*
X115392057Y-103046209D01*
X115392057Y-103284304D01*
X115344438Y-103379542D01*
X115296819Y-103427161D01*
X115201580Y-103474780D01*
X114915866Y-103474780D01*
X114820628Y-103427161D01*
X114773009Y-103379542D01*
G04 #@! TO.C,Y1*
X109348190Y-95421390D02*
X109824380Y-95421390D01*
X108824380Y-95754723D02*
X109348190Y-95421390D01*
X108824380Y-95088057D01*
X109824380Y-94230914D02*
X109824380Y-94802342D01*
X109824380Y-94516628D02*
X108824380Y-94516628D01*
X108967238Y-94611866D01*
X109062476Y-94707104D01*
X109110095Y-94802342D01*
G04 #@! TO.C,D1*
X118794304Y-81071980D02*
X118794304Y-80071980D01*
X119032400Y-80071980D01*
X119175257Y-80119600D01*
X119270495Y-80214838D01*
X119318114Y-80310076D01*
X119365733Y-80500552D01*
X119365733Y-80643409D01*
X119318114Y-80833885D01*
X119270495Y-80929123D01*
X119175257Y-81024361D01*
X119032400Y-81071980D01*
X118794304Y-81071980D01*
X120318114Y-81071980D02*
X119746685Y-81071980D01*
X120032400Y-81071980D02*
X120032400Y-80071980D01*
X119937161Y-80214838D01*
X119841923Y-80310076D01*
X119746685Y-80357695D01*
G04 #@! TO.C,U1*
D15*
X114377190Y-83457142D02*
X114781952Y-83457142D01*
X114829571Y-83428571D01*
X114853380Y-83400000D01*
X114877190Y-83342857D01*
X114877190Y-83228571D01*
X114853380Y-83171428D01*
X114829571Y-83142857D01*
X114781952Y-83114285D01*
X114377190Y-83114285D01*
X114877190Y-82514285D02*
X114877190Y-82857142D01*
X114877190Y-82685714D02*
X114377190Y-82685714D01*
X114448619Y-82742857D01*
X114496238Y-82800000D01*
X114520047Y-82857142D01*
G04 #@! TO.C,J6*
D12*
X104721066Y-100087180D02*
X104721066Y-100801466D01*
X104673447Y-100944323D01*
X104578209Y-101039561D01*
X104435352Y-101087180D01*
X104340114Y-101087180D01*
X105625828Y-100087180D02*
X105435352Y-100087180D01*
X105340114Y-100134800D01*
X105292495Y-100182419D01*
X105197257Y-100325276D01*
X105149638Y-100515752D01*
X105149638Y-100896704D01*
X105197257Y-100991942D01*
X105244876Y-101039561D01*
X105340114Y-101087180D01*
X105530590Y-101087180D01*
X105625828Y-101039561D01*
X105673447Y-100991942D01*
X105721066Y-100896704D01*
X105721066Y-100658609D01*
X105673447Y-100563371D01*
X105625828Y-100515752D01*
X105530590Y-100468133D01*
X105340114Y-100468133D01*
X105244876Y-100515752D01*
X105197257Y-100563371D01*
X105149638Y-100658609D01*
G04 #@! TO.C,J7*
X111731466Y-85101180D02*
X111731466Y-85815466D01*
X111683847Y-85958323D01*
X111588609Y-86053561D01*
X111445752Y-86101180D01*
X111350514Y-86101180D01*
X112112419Y-85101180D02*
X112779085Y-85101180D01*
X112350514Y-86101180D01*
G04 #@! TO.C,J8*
X123669466Y-77640380D02*
X123669466Y-78354666D01*
X123621847Y-78497523D01*
X123526609Y-78592761D01*
X123383752Y-78640380D01*
X123288514Y-78640380D01*
X124288514Y-78068952D02*
X124193276Y-78021333D01*
X124145657Y-77973714D01*
X124098038Y-77878476D01*
X124098038Y-77830857D01*
X124145657Y-77735619D01*
X124193276Y-77688000D01*
X124288514Y-77640380D01*
X124478990Y-77640380D01*
X124574228Y-77688000D01*
X124621847Y-77735619D01*
X124669466Y-77830857D01*
X124669466Y-77878476D01*
X124621847Y-77973714D01*
X124574228Y-78021333D01*
X124478990Y-78068952D01*
X124288514Y-78068952D01*
X124193276Y-78116571D01*
X124145657Y-78164190D01*
X124098038Y-78259428D01*
X124098038Y-78449904D01*
X124145657Y-78545142D01*
X124193276Y-78592761D01*
X124288514Y-78640380D01*
X124478990Y-78640380D01*
X124574228Y-78592761D01*
X124621847Y-78545142D01*
X124669466Y-78449904D01*
X124669466Y-78259428D01*
X124621847Y-78164190D01*
X124574228Y-78116571D01*
X124478990Y-78068952D01*
G04 #@! TO.C,J9*
X103400266Y-85463580D02*
X103400266Y-86177866D01*
X103352647Y-86320723D01*
X103257409Y-86415961D01*
X103114552Y-86463580D01*
X103019314Y-86463580D01*
X103924076Y-86463580D02*
X104114552Y-86463580D01*
X104209790Y-86415961D01*
X104257409Y-86368342D01*
X104352647Y-86225485D01*
X104400266Y-86035009D01*
X104400266Y-85654057D01*
X104352647Y-85558819D01*
X104305028Y-85511200D01*
X104209790Y-85463580D01*
X104019314Y-85463580D01*
X103924076Y-85511200D01*
X103876457Y-85558819D01*
X103828838Y-85654057D01*
X103828838Y-85892152D01*
X103876457Y-85987390D01*
X103924076Y-86035009D01*
X104019314Y-86082628D01*
X104209790Y-86082628D01*
X104305028Y-86035009D01*
X104352647Y-85987390D01*
X104400266Y-85892152D01*
G04 #@! TO.C,J10*
X131473676Y-82517180D02*
X131473676Y-83231466D01*
X131426057Y-83374323D01*
X131330819Y-83469561D01*
X131187961Y-83517180D01*
X131092723Y-83517180D01*
X132473676Y-83517180D02*
X131902247Y-83517180D01*
X132187961Y-83517180D02*
X132187961Y-82517180D01*
X132092723Y-82660038D01*
X131997485Y-82755276D01*
X131902247Y-82802895D01*
X133092723Y-82517180D02*
X133187961Y-82517180D01*
X133283200Y-82564800D01*
X133330819Y-82612419D01*
X133378438Y-82707657D01*
X133426057Y-82898133D01*
X133426057Y-83136228D01*
X133378438Y-83326704D01*
X133330819Y-83421942D01*
X133283200Y-83469561D01*
X133187961Y-83517180D01*
X133092723Y-83517180D01*
X132997485Y-83469561D01*
X132949866Y-83421942D01*
X132902247Y-83326704D01*
X132854628Y-83136228D01*
X132854628Y-82898133D01*
X132902247Y-82707657D01*
X132949866Y-82612419D01*
X132997485Y-82564800D01*
X133092723Y-82517180D01*
G04 #@! TO.C,J5*
X111680666Y-88047580D02*
X111680666Y-88761866D01*
X111633047Y-88904723D01*
X111537809Y-88999961D01*
X111394952Y-89047580D01*
X111299714Y-89047580D01*
X112633047Y-88047580D02*
X112156857Y-88047580D01*
X112109238Y-88523771D01*
X112156857Y-88476152D01*
X112252095Y-88428533D01*
X112490190Y-88428533D01*
X112585428Y-88476152D01*
X112633047Y-88523771D01*
X112680666Y-88619009D01*
X112680666Y-88857104D01*
X112633047Y-88952342D01*
X112585428Y-88999961D01*
X112490190Y-89047580D01*
X112252095Y-89047580D01*
X112156857Y-88999961D01*
X112109238Y-88952342D01*
G04 #@! TO.C,J4*
D16*
X116995047Y-126017866D02*
X117285333Y-126017866D01*
X117343390Y-126037219D01*
X117382095Y-126075923D01*
X117401447Y-126133980D01*
X117401447Y-126172685D01*
X117130514Y-125650171D02*
X117401447Y-125650171D01*
X116975695Y-125746933D02*
X117265980Y-125843695D01*
X117265980Y-125592114D01*
X117401447Y-124665619D02*
X117207923Y-124801085D01*
X117401447Y-124897847D02*
X116995047Y-124897847D01*
X116995047Y-124743028D01*
X117014400Y-124704323D01*
X117033752Y-124684971D01*
X117072457Y-124665619D01*
X117130514Y-124665619D01*
X117169219Y-124684971D01*
X117188571Y-124704323D01*
X117207923Y-124743028D01*
X117207923Y-124897847D01*
X117285333Y-124510800D02*
X117285333Y-124317276D01*
X117401447Y-124549504D02*
X116995047Y-124414038D01*
X117401447Y-124278571D01*
X117401447Y-124143104D02*
X116995047Y-124143104D01*
X117401447Y-123949580D02*
X116995047Y-123949580D01*
X117401447Y-123717352D01*
X116995047Y-123717352D01*
G04 #@! TO.C,J1*
X102995047Y-126017866D02*
X103285333Y-126017866D01*
X103343390Y-126037219D01*
X103382095Y-126075923D01*
X103401447Y-126133980D01*
X103401447Y-126172685D01*
X103401447Y-125611466D02*
X103401447Y-125843695D01*
X103401447Y-125727580D02*
X102995047Y-125727580D01*
X103053104Y-125766285D01*
X103091809Y-125804990D01*
X103111161Y-125843695D01*
X102995047Y-124994609D02*
X103401447Y-124897847D01*
X103111161Y-124820438D01*
X103401447Y-124743028D01*
X102995047Y-124646266D01*
X103401447Y-124491447D02*
X102995047Y-124491447D01*
X103401447Y-124297923D02*
X102995047Y-124297923D01*
X103401447Y-124065695D01*
X102995047Y-124065695D01*
X103401447Y-123872171D02*
X102995047Y-123872171D01*
X102995047Y-123775409D01*
X103014400Y-123717352D01*
X103053104Y-123678647D01*
X103091809Y-123659295D01*
X103169219Y-123639942D01*
X103227276Y-123639942D01*
X103304685Y-123659295D01*
X103343390Y-123678647D01*
X103382095Y-123717352D01*
X103401447Y-123775409D01*
X103401447Y-123872171D01*
G04 #@! TO.C,J2*
D12*
X102993866Y-128128780D02*
X102993866Y-128843066D01*
X102946247Y-128985923D01*
X102851009Y-129081161D01*
X102708152Y-129128780D01*
X102612914Y-129128780D01*
X103422438Y-128224019D02*
X103470057Y-128176400D01*
X103565295Y-128128780D01*
X103803390Y-128128780D01*
X103898628Y-128176400D01*
X103946247Y-128224019D01*
X103993866Y-128319257D01*
X103993866Y-128414495D01*
X103946247Y-128557352D01*
X103374819Y-129128780D01*
X103993866Y-129128780D01*
G04 #@! TO.C,J3*
X118993866Y-128128780D02*
X118993866Y-128843066D01*
X118946247Y-128985923D01*
X118851009Y-129081161D01*
X118708152Y-129128780D01*
X118612914Y-129128780D01*
X119374819Y-128128780D02*
X119993866Y-128128780D01*
X119660533Y-128509733D01*
X119803390Y-128509733D01*
X119898628Y-128557352D01*
X119946247Y-128604971D01*
X119993866Y-128700209D01*
X119993866Y-128938304D01*
X119946247Y-129033542D01*
X119898628Y-129081161D01*
X119803390Y-129128780D01*
X119517676Y-129128780D01*
X119422438Y-129081161D01*
X119374819Y-129033542D01*
G04 #@! TO.C,AE1*
X112129866Y-48715466D02*
X112129866Y-48239276D01*
X112415580Y-48810704D02*
X111415580Y-48477371D01*
X112415580Y-48144038D01*
X111891771Y-47810704D02*
X111891771Y-47477371D01*
X112415580Y-47334514D02*
X112415580Y-47810704D01*
X111415580Y-47810704D01*
X111415580Y-47334514D01*
X112415580Y-46382133D02*
X112415580Y-46953561D01*
X112415580Y-46667847D02*
X111415580Y-46667847D01*
X111558438Y-46763085D01*
X111653676Y-46858323D01*
X111701295Y-46953561D01*
G04 #@! TO.C,C1*
X122413733Y-104421942D02*
X122366114Y-104469561D01*
X122223257Y-104517180D01*
X122128019Y-104517180D01*
X121985161Y-104469561D01*
X121889923Y-104374323D01*
X121842304Y-104279085D01*
X121794685Y-104088609D01*
X121794685Y-103945752D01*
X121842304Y-103755276D01*
X121889923Y-103660038D01*
X121985161Y-103564800D01*
X122128019Y-103517180D01*
X122223257Y-103517180D01*
X122366114Y-103564800D01*
X122413733Y-103612419D01*
X123366114Y-104517180D02*
X122794685Y-104517180D01*
X123080400Y-104517180D02*
X123080400Y-103517180D01*
X122985161Y-103660038D01*
X122889923Y-103755276D01*
X122794685Y-103802895D01*
G04 #@! TO.C,C2*
X103871733Y-108026742D02*
X103824114Y-108074361D01*
X103681257Y-108121980D01*
X103586019Y-108121980D01*
X103443161Y-108074361D01*
X103347923Y-107979123D01*
X103300304Y-107883885D01*
X103252685Y-107693409D01*
X103252685Y-107550552D01*
X103300304Y-107360076D01*
X103347923Y-107264838D01*
X103443161Y-107169600D01*
X103586019Y-107121980D01*
X103681257Y-107121980D01*
X103824114Y-107169600D01*
X103871733Y-107217219D01*
X104252685Y-107217219D02*
X104300304Y-107169600D01*
X104395542Y-107121980D01*
X104633638Y-107121980D01*
X104728876Y-107169600D01*
X104776495Y-107217219D01*
X104824114Y-107312457D01*
X104824114Y-107407695D01*
X104776495Y-107550552D01*
X104205066Y-108121980D01*
X104824114Y-108121980D01*
G04 #@! TO.C,C3*
X107433333Y-104857142D02*
X107385714Y-104904761D01*
X107242857Y-104952380D01*
X107147619Y-104952380D01*
X107004761Y-104904761D01*
X106909523Y-104809523D01*
X106861904Y-104714285D01*
X106814285Y-104523809D01*
X106814285Y-104380952D01*
X106861904Y-104190476D01*
X106909523Y-104095238D01*
X107004761Y-104000000D01*
X107147619Y-103952380D01*
X107242857Y-103952380D01*
X107385714Y-104000000D01*
X107433333Y-104047619D01*
X107766666Y-103952380D02*
X108385714Y-103952380D01*
X108052380Y-104333333D01*
X108195238Y-104333333D01*
X108290476Y-104380952D01*
X108338095Y-104428571D01*
X108385714Y-104523809D01*
X108385714Y-104761904D01*
X108338095Y-104857142D01*
X108290476Y-104904761D01*
X108195238Y-104952380D01*
X107909523Y-104952380D01*
X107814285Y-104904761D01*
X107766666Y-104857142D01*
G04 #@! TO.C,C4*
X125817333Y-70383942D02*
X125769714Y-70431561D01*
X125626857Y-70479180D01*
X125531619Y-70479180D01*
X125388761Y-70431561D01*
X125293523Y-70336323D01*
X125245904Y-70241085D01*
X125198285Y-70050609D01*
X125198285Y-69907752D01*
X125245904Y-69717276D01*
X125293523Y-69622038D01*
X125388761Y-69526800D01*
X125531619Y-69479180D01*
X125626857Y-69479180D01*
X125769714Y-69526800D01*
X125817333Y-69574419D01*
X126674476Y-69812514D02*
X126674476Y-70479180D01*
X126436380Y-69431561D02*
X126198285Y-70145847D01*
X126817333Y-70145847D01*
G04 #@! TO.C,C6*
X114531142Y-76417466D02*
X114578761Y-76465085D01*
X114626380Y-76607942D01*
X114626380Y-76703180D01*
X114578761Y-76846038D01*
X114483523Y-76941276D01*
X114388285Y-76988895D01*
X114197809Y-77036514D01*
X114054952Y-77036514D01*
X113864476Y-76988895D01*
X113769238Y-76941276D01*
X113674000Y-76846038D01*
X113626380Y-76703180D01*
X113626380Y-76607942D01*
X113674000Y-76465085D01*
X113721619Y-76417466D01*
X113626380Y-75560323D02*
X113626380Y-75750800D01*
X113674000Y-75846038D01*
X113721619Y-75893657D01*
X113864476Y-75988895D01*
X114054952Y-76036514D01*
X114435904Y-76036514D01*
X114531142Y-75988895D01*
X114578761Y-75941276D01*
X114626380Y-75846038D01*
X114626380Y-75655561D01*
X114578761Y-75560323D01*
X114531142Y-75512704D01*
X114435904Y-75465085D01*
X114197809Y-75465085D01*
X114102571Y-75512704D01*
X114054952Y-75560323D01*
X114007333Y-75655561D01*
X114007333Y-75846038D01*
X114054952Y-75941276D01*
X114102571Y-75988895D01*
X114197809Y-76036514D01*
G04 #@! TO.C,C7*
X115833333Y-67007142D02*
X115785714Y-67054761D01*
X115642857Y-67102380D01*
X115547619Y-67102380D01*
X115404761Y-67054761D01*
X115309523Y-66959523D01*
X115261904Y-66864285D01*
X115214285Y-66673809D01*
X115214285Y-66530952D01*
X115261904Y-66340476D01*
X115309523Y-66245238D01*
X115404761Y-66150000D01*
X115547619Y-66102380D01*
X115642857Y-66102380D01*
X115785714Y-66150000D01*
X115833333Y-66197619D01*
X116166666Y-66102380D02*
X116833333Y-66102380D01*
X116404761Y-67102380D01*
G04 #@! TO.C,C8*
X112202933Y-93396342D02*
X112155314Y-93443961D01*
X112012457Y-93491580D01*
X111917219Y-93491580D01*
X111774361Y-93443961D01*
X111679123Y-93348723D01*
X111631504Y-93253485D01*
X111583885Y-93063009D01*
X111583885Y-92920152D01*
X111631504Y-92729676D01*
X111679123Y-92634438D01*
X111774361Y-92539200D01*
X111917219Y-92491580D01*
X112012457Y-92491580D01*
X112155314Y-92539200D01*
X112202933Y-92586819D01*
X112774361Y-92920152D02*
X112679123Y-92872533D01*
X112631504Y-92824914D01*
X112583885Y-92729676D01*
X112583885Y-92682057D01*
X112631504Y-92586819D01*
X112679123Y-92539200D01*
X112774361Y-92491580D01*
X112964838Y-92491580D01*
X113060076Y-92539200D01*
X113107695Y-92586819D01*
X113155314Y-92682057D01*
X113155314Y-92729676D01*
X113107695Y-92824914D01*
X113060076Y-92872533D01*
X112964838Y-92920152D01*
X112774361Y-92920152D01*
X112679123Y-92967771D01*
X112631504Y-93015390D01*
X112583885Y-93110628D01*
X112583885Y-93301104D01*
X112631504Y-93396342D01*
X112679123Y-93443961D01*
X112774361Y-93491580D01*
X112964838Y-93491580D01*
X113060076Y-93443961D01*
X113107695Y-93396342D01*
X113155314Y-93301104D01*
X113155314Y-93110628D01*
X113107695Y-93015390D01*
X113060076Y-92967771D01*
X112964838Y-92920152D01*
G04 #@! TO.C,C9*
X112202933Y-100508342D02*
X112155314Y-100555961D01*
X112012457Y-100603580D01*
X111917219Y-100603580D01*
X111774361Y-100555961D01*
X111679123Y-100460723D01*
X111631504Y-100365485D01*
X111583885Y-100175009D01*
X111583885Y-100032152D01*
X111631504Y-99841676D01*
X111679123Y-99746438D01*
X111774361Y-99651200D01*
X111917219Y-99603580D01*
X112012457Y-99603580D01*
X112155314Y-99651200D01*
X112202933Y-99698819D01*
X112679123Y-100603580D02*
X112869600Y-100603580D01*
X112964838Y-100555961D01*
X113012457Y-100508342D01*
X113107695Y-100365485D01*
X113155314Y-100175009D01*
X113155314Y-99794057D01*
X113107695Y-99698819D01*
X113060076Y-99651200D01*
X112964838Y-99603580D01*
X112774361Y-99603580D01*
X112679123Y-99651200D01*
X112631504Y-99698819D01*
X112583885Y-99794057D01*
X112583885Y-100032152D01*
X112631504Y-100127390D01*
X112679123Y-100175009D01*
X112774361Y-100222628D01*
X112964838Y-100222628D01*
X113060076Y-100175009D01*
X113107695Y-100127390D01*
X113155314Y-100032152D01*
G04 #@! TO.C,C11*
X120819942Y-128854742D02*
X120772323Y-128902361D01*
X120629466Y-128949980D01*
X120534228Y-128949980D01*
X120391371Y-128902361D01*
X120296133Y-128807123D01*
X120248514Y-128711885D01*
X120200895Y-128521409D01*
X120200895Y-128378552D01*
X120248514Y-128188076D01*
X120296133Y-128092838D01*
X120391371Y-127997600D01*
X120534228Y-127949980D01*
X120629466Y-127949980D01*
X120772323Y-127997600D01*
X120819942Y-128045219D01*
X121772323Y-128949980D02*
X121200895Y-128949980D01*
X121486609Y-128949980D02*
X121486609Y-127949980D01*
X121391371Y-128092838D01*
X121296133Y-128188076D01*
X121200895Y-128235695D01*
X122724704Y-128949980D02*
X122153276Y-128949980D01*
X122438990Y-128949980D02*
X122438990Y-127949980D01*
X122343752Y-128092838D01*
X122248514Y-128188076D01*
X122153276Y-128235695D01*
G04 #@! TO.C,C12*
X125341142Y-68859942D02*
X125293523Y-68907561D01*
X125150666Y-68955180D01*
X125055428Y-68955180D01*
X124912571Y-68907561D01*
X124817333Y-68812323D01*
X124769714Y-68717085D01*
X124722095Y-68526609D01*
X124722095Y-68383752D01*
X124769714Y-68193276D01*
X124817333Y-68098038D01*
X124912571Y-68002800D01*
X125055428Y-67955180D01*
X125150666Y-67955180D01*
X125293523Y-68002800D01*
X125341142Y-68050419D01*
X126293523Y-68955180D02*
X125722095Y-68955180D01*
X126007809Y-68955180D02*
X126007809Y-67955180D01*
X125912571Y-68098038D01*
X125817333Y-68193276D01*
X125722095Y-68240895D01*
X126674476Y-68050419D02*
X126722095Y-68002800D01*
X126817333Y-67955180D01*
X127055428Y-67955180D01*
X127150666Y-68002800D01*
X127198285Y-68050419D01*
X127245904Y-68145657D01*
X127245904Y-68240895D01*
X127198285Y-68383752D01*
X126626857Y-68955180D01*
X127245904Y-68955180D01*
G04 #@! TO.C,C15*
X126661942Y-84965542D02*
X126614323Y-85013161D01*
X126471466Y-85060780D01*
X126376228Y-85060780D01*
X126233371Y-85013161D01*
X126138133Y-84917923D01*
X126090514Y-84822685D01*
X126042895Y-84632209D01*
X126042895Y-84489352D01*
X126090514Y-84298876D01*
X126138133Y-84203638D01*
X126233371Y-84108400D01*
X126376228Y-84060780D01*
X126471466Y-84060780D01*
X126614323Y-84108400D01*
X126661942Y-84156019D01*
X127614323Y-85060780D02*
X127042895Y-85060780D01*
X127328609Y-85060780D02*
X127328609Y-84060780D01*
X127233371Y-84203638D01*
X127138133Y-84298876D01*
X127042895Y-84346495D01*
X128519085Y-84060780D02*
X128042895Y-84060780D01*
X127995276Y-84536971D01*
X128042895Y-84489352D01*
X128138133Y-84441733D01*
X128376228Y-84441733D01*
X128471466Y-84489352D01*
X128519085Y-84536971D01*
X128566704Y-84632209D01*
X128566704Y-84870304D01*
X128519085Y-84965542D01*
X128471466Y-85013161D01*
X128376228Y-85060780D01*
X128138133Y-85060780D01*
X128042895Y-85013161D01*
X127995276Y-84965542D01*
G04 #@! TO.C,L1*
X115894380Y-64174666D02*
X115894380Y-64650857D01*
X114894380Y-64650857D01*
X115894380Y-63317523D02*
X115894380Y-63888952D01*
X115894380Y-63603238D02*
X114894380Y-63603238D01*
X115037238Y-63698476D01*
X115132476Y-63793714D01*
X115180095Y-63888952D01*
G04 #@! TO.C,L2*
X117013980Y-66409866D02*
X117013980Y-66886057D01*
X116013980Y-66886057D01*
X116109219Y-66124152D02*
X116061600Y-66076533D01*
X116013980Y-65981295D01*
X116013980Y-65743200D01*
X116061600Y-65647961D01*
X116109219Y-65600342D01*
X116204457Y-65552723D01*
X116299695Y-65552723D01*
X116442552Y-65600342D01*
X117013980Y-66171771D01*
X117013980Y-65552723D01*
G04 #@! TD*
M02*
